G75*
G70*
%OFA0B0*%
%FSLAX24Y24*%
%IPPOS*%
%LPD*%
%AMOC8*
5,1,8,0,0,1.08239X$1,22.5*
%
%ADD10C,0.0520*%
%ADD11OC8,0.0600*%
%ADD12C,0.0600*%
%ADD13C,0.2300*%
%ADD14C,0.2000*%
%ADD15C,0.0594*%
%ADD16C,0.0705*%
%ADD17C,0.0315*%
%ADD18C,0.0100*%
%ADD19C,0.0160*%
%ADD20C,0.0120*%
%ADD21C,0.0240*%
%ADD22C,0.0320*%
D10*
X005572Y010993D03*
X005572Y012893D03*
X010635Y020297D03*
X010635Y022197D03*
D11*
X021843Y015314D03*
X021843Y014314D03*
X021843Y013314D03*
X021843Y012314D03*
X021843Y011314D03*
X021843Y010314D03*
X021843Y009314D03*
X021843Y008314D03*
X021843Y007314D03*
X021843Y006314D03*
X022843Y006314D03*
X022843Y007314D03*
X022843Y008314D03*
X022843Y009314D03*
X022843Y010314D03*
X022843Y011314D03*
X022843Y012314D03*
X022843Y013314D03*
X022843Y014314D03*
X022843Y015314D03*
X016952Y004657D03*
X016412Y003537D03*
X015872Y004657D03*
X015332Y003537D03*
X014792Y004657D03*
X014252Y003537D03*
X013712Y004657D03*
X013172Y003537D03*
X012632Y004657D03*
D12*
X017335Y021415D02*
X017335Y022015D01*
X018335Y022015D02*
X018335Y021415D01*
X019335Y021415D02*
X019335Y022015D01*
D13*
X001800Y003113D03*
X001800Y031459D03*
X022272Y031459D03*
X022272Y003113D03*
D14*
X019722Y004097D03*
X009862Y004097D03*
D15*
X017351Y031932D03*
X018335Y031932D03*
D16*
X021420Y019451D02*
X022125Y019451D01*
X022125Y017483D02*
X021420Y017483D01*
D17*
X019812Y017188D03*
X019812Y018566D03*
X019713Y020534D03*
X017646Y020632D03*
X016564Y020829D03*
X015580Y019353D03*
X013611Y020042D03*
X012824Y020829D03*
X012430Y021321D03*
X011249Y021715D03*
X009871Y020928D03*
X009871Y020239D03*
X010245Y018585D03*
X011446Y018270D03*
X011721Y018723D03*
X011741Y019845D03*
X013119Y018861D03*
X012430Y017818D03*
X011446Y016892D03*
X012312Y015908D03*
X012666Y015318D03*
X012430Y014136D03*
X012528Y013192D03*
X012824Y011577D03*
X011839Y010790D03*
X011446Y011381D03*
X011150Y010987D03*
X010757Y010692D03*
X010363Y010987D03*
X010265Y010495D03*
X009871Y010199D03*
X009674Y009707D03*
X010461Y009510D03*
X010560Y008034D03*
X009674Y006262D03*
X009083Y006066D03*
X008198Y004983D03*
X008493Y003408D03*
X009831Y002306D03*
X011347Y003310D03*
X013119Y002325D03*
X014694Y002129D03*
X014202Y005377D03*
X014989Y006853D03*
X014398Y009412D03*
X012725Y009609D03*
X012036Y006853D03*
X008394Y009609D03*
X007902Y009904D03*
X008296Y010199D03*
X007115Y009215D03*
X006032Y008329D03*
X005894Y007522D03*
X006721Y007050D03*
X006524Y006262D03*
X007410Y007345D03*
X005698Y005987D03*
X005048Y007739D03*
X004359Y007739D03*
X004398Y008585D03*
X006131Y011105D03*
X006328Y012463D03*
X005383Y012325D03*
X006032Y013743D03*
X006524Y013546D03*
X006131Y014530D03*
X006623Y014629D03*
X006032Y015219D03*
X007883Y016715D03*
X008099Y015514D03*
X008729Y017266D03*
X008690Y017818D03*
X009477Y015613D03*
X010855Y014136D03*
X010757Y013152D03*
X008887Y013152D03*
X008099Y013743D03*
X007509Y012365D03*
X004064Y012266D03*
X004083Y013251D03*
X001209Y010790D03*
X000855Y013664D03*
X001013Y017286D03*
X000816Y019963D03*
X001072Y022306D03*
X000816Y022699D03*
X001308Y023093D03*
X001209Y023979D03*
X002784Y022699D03*
X003867Y024176D03*
X004280Y024550D03*
X004851Y025258D03*
X005934Y025357D03*
X007076Y024195D03*
X008001Y023093D03*
X008001Y020928D03*
X005835Y020928D03*
X005048Y020140D03*
X004359Y019156D03*
X004457Y018369D03*
X003965Y018270D03*
X004556Y021715D03*
X005835Y023093D03*
X004261Y026440D03*
X004477Y027955D03*
X003769Y029097D03*
X002587Y029688D03*
X001898Y029688D03*
X001111Y029688D03*
X001013Y028703D03*
X002489Y027424D03*
X000855Y026262D03*
X004162Y032050D03*
X005580Y030829D03*
X007312Y028900D03*
X007942Y028349D03*
X007706Y027719D03*
X007843Y026814D03*
X008690Y025554D03*
X009871Y024766D03*
X011052Y025455D03*
X011446Y023585D03*
X009083Y027424D03*
X009083Y028900D03*
X009083Y030869D03*
X009871Y031656D03*
X011446Y031656D03*
X011249Y029491D03*
X014398Y030672D03*
X014891Y029491D03*
X014891Y025455D03*
X014891Y022798D03*
X018828Y026636D03*
X020009Y029491D03*
X022272Y028310D03*
X022961Y024274D03*
X020796Y024077D03*
X022076Y020731D03*
X018040Y015908D03*
X018040Y014038D03*
X017351Y013546D03*
X015580Y011577D03*
X014398Y013546D03*
X014398Y015908D03*
X018631Y011085D03*
X019418Y011184D03*
X020599Y011774D03*
X020107Y008920D03*
X018335Y009018D03*
X018335Y009569D03*
X018217Y010081D03*
X018335Y006361D03*
X019517Y006361D03*
X017450Y003900D03*
X019812Y002325D03*
X023060Y004589D03*
X019615Y014825D03*
X006918Y017778D03*
X006721Y027325D03*
X006524Y028408D03*
X000855Y007365D03*
X002095Y005377D03*
X002686Y005357D03*
X002686Y005967D03*
X003473Y005967D03*
X004064Y005770D03*
X002706Y004294D03*
X003178Y002129D03*
X004320Y002286D03*
X004871Y002207D03*
X005776Y002069D03*
X005934Y003506D03*
X006623Y003487D03*
X000816Y004195D03*
D18*
X000914Y004195D01*
X001209Y004491D01*
X002509Y004491D01*
X002706Y004294D01*
X002635Y004201D02*
X002888Y003948D01*
X003067Y003638D01*
X003160Y003292D01*
X003160Y002934D01*
X003067Y002588D01*
X002986Y002447D01*
X003105Y002496D01*
X003251Y002496D01*
X003386Y002440D01*
X003489Y002337D01*
X003545Y002202D01*
X003545Y002152D01*
X004503Y002152D01*
X004503Y002268D01*
X004493Y002293D01*
X004493Y004193D01*
X004205Y004506D01*
X001591Y004506D01*
X001495Y004546D01*
X001357Y004684D01*
X001284Y004757D01*
X001245Y004852D01*
X001245Y005724D01*
X001284Y005819D01*
X001580Y006114D01*
X001653Y006188D01*
X001748Y006227D01*
X002426Y006227D01*
X002478Y006279D01*
X002613Y006335D01*
X002759Y006335D01*
X002894Y006279D01*
X002997Y006175D01*
X003053Y006040D01*
X003053Y005894D01*
X002997Y005759D01*
X002900Y005662D01*
X002946Y005617D01*
X003730Y005617D01*
X003696Y005697D01*
X003696Y005843D01*
X003752Y005978D01*
X003856Y006082D01*
X003991Y006138D01*
X004137Y006138D01*
X004272Y006082D01*
X004375Y005978D01*
X004427Y005853D01*
X012776Y005853D01*
X012780Y005855D01*
X012828Y005853D01*
X012875Y005853D01*
X012879Y005851D01*
X012884Y005851D01*
X012927Y005832D01*
X012971Y005814D01*
X012974Y005810D01*
X012978Y005809D01*
X013010Y005774D01*
X013044Y005740D01*
X013046Y005736D01*
X013306Y005459D01*
X013598Y005167D01*
X013923Y005167D01*
X014222Y004868D01*
X014222Y004446D01*
X013923Y004147D01*
X013501Y004147D01*
X013202Y004446D01*
X013202Y004827D01*
X012969Y005061D01*
X012965Y005063D01*
X012932Y005097D01*
X012898Y005131D01*
X012897Y005135D01*
X012711Y005333D01*
X006089Y005333D01*
X006396Y005026D01*
X006469Y004953D01*
X006509Y004857D01*
X006509Y003969D01*
X006623Y003854D01*
X006696Y003854D01*
X006831Y003798D01*
X006934Y003695D01*
X006990Y003560D01*
X006990Y003414D01*
X006934Y003279D01*
X006930Y003274D01*
X007992Y003274D01*
X008125Y003408D01*
X008125Y003481D01*
X008181Y003616D01*
X008285Y003720D01*
X008420Y003776D01*
X008566Y003776D01*
X008701Y003720D01*
X008714Y003707D01*
X008652Y003938D01*
X008652Y004256D01*
X008735Y004564D01*
X008894Y004840D01*
X009119Y005065D01*
X009395Y005225D01*
X009703Y005307D01*
X010021Y005307D01*
X010329Y005225D01*
X010605Y005065D01*
X010830Y004840D01*
X010990Y004564D01*
X011072Y004256D01*
X011072Y003938D01*
X010990Y003630D01*
X010830Y003354D01*
X010605Y003129D01*
X010346Y002979D01*
X016948Y002979D01*
X017682Y003713D01*
X017682Y005428D01*
X017721Y005524D01*
X019756Y007558D01*
X019830Y008677D01*
X019796Y008712D01*
X019740Y008847D01*
X019740Y008993D01*
X019796Y009128D01*
X019847Y009180D01*
X019847Y010387D01*
X019418Y010816D01*
X019345Y010816D01*
X019210Y010872D01*
X019107Y010975D01*
X019051Y011111D01*
X019051Y011183D01*
X018917Y011317D01*
X015839Y011317D01*
X015788Y011266D01*
X015653Y011210D01*
X015594Y011210D01*
X010910Y006526D01*
X010902Y006522D01*
X016456Y006522D01*
X017682Y007748D01*
X017682Y009857D01*
X017721Y009953D01*
X017794Y010026D01*
X017850Y010082D01*
X017850Y010154D01*
X017906Y010289D01*
X018009Y010393D01*
X018144Y010449D01*
X018290Y010449D01*
X018425Y010393D01*
X018529Y010289D01*
X018585Y010154D01*
X018585Y010008D01*
X018534Y009885D01*
X018544Y009881D01*
X018583Y009841D01*
X018704Y009841D01*
X018803Y009800D01*
X018879Y009724D01*
X018958Y009646D01*
X018999Y009546D01*
X018999Y007469D01*
X018958Y007369D01*
X018882Y007293D01*
X018848Y007279D01*
X016382Y004813D01*
X016382Y004446D01*
X016083Y004147D01*
X015661Y004147D01*
X015362Y004446D01*
X015362Y004845D01*
X015302Y004785D01*
X015302Y004446D01*
X015003Y004147D01*
X014581Y004147D01*
X014282Y004446D01*
X014282Y004868D01*
X014581Y005167D01*
X014920Y005167D01*
X015260Y005507D01*
X015360Y005548D01*
X015960Y005548D01*
X016414Y006002D01*
X009934Y006002D01*
X009882Y005951D01*
X009747Y005895D01*
X009601Y005895D01*
X009466Y005951D01*
X009362Y006054D01*
X009307Y006189D01*
X009307Y006335D01*
X009362Y006471D01*
X009376Y006485D01*
X006963Y006485D01*
X006864Y006526D01*
X006788Y006602D01*
X006707Y006682D01*
X006648Y006682D01*
X006513Y006738D01*
X006410Y006842D01*
X006354Y006977D01*
X006354Y007123D01*
X006410Y007258D01*
X006513Y007361D01*
X006648Y007417D01*
X006794Y007417D01*
X006929Y007361D01*
X007033Y007258D01*
X007089Y007123D01*
X007089Y007064D01*
X007128Y007025D01*
X010645Y007025D01*
X012907Y009286D01*
X012798Y009241D01*
X012652Y009241D01*
X012517Y009297D01*
X012414Y009401D01*
X012358Y009536D01*
X012358Y009682D01*
X012414Y009817D01*
X012465Y009869D01*
X012465Y010485D01*
X011763Y011187D01*
X011757Y011172D01*
X011654Y011069D01*
X011519Y011013D01*
X011518Y011013D01*
X011518Y010914D01*
X011462Y010779D01*
X011359Y010675D01*
X011223Y010619D01*
X011124Y010619D01*
X011124Y010618D01*
X011068Y010483D01*
X010965Y010380D01*
X010830Y010324D01*
X010684Y010324D01*
X010605Y010357D01*
X010576Y010287D01*
X010473Y010183D01*
X010338Y010127D01*
X010238Y010127D01*
X010238Y010126D01*
X010182Y009991D01*
X010079Y009888D01*
X010009Y009859D01*
X010041Y009780D01*
X010041Y009634D01*
X009986Y009499D01*
X009882Y009396D01*
X009747Y009340D01*
X009601Y009340D01*
X009466Y009396D01*
X009362Y009499D01*
X009307Y009634D01*
X009307Y009707D01*
X009257Y009757D01*
X009217Y009852D01*
X009217Y010190D01*
X009074Y010333D01*
X008638Y010333D01*
X008664Y010272D01*
X008664Y010126D01*
X008608Y009991D01*
X008504Y009888D01*
X008369Y009832D01*
X008270Y009832D01*
X008270Y009831D01*
X008214Y009696D01*
X008111Y009593D01*
X007975Y009537D01*
X007829Y009537D01*
X007694Y009593D01*
X007643Y009644D01*
X007321Y009644D01*
X006253Y008576D01*
X006180Y008503D01*
X006084Y008463D01*
X005587Y008463D01*
X005595Y008460D01*
X005671Y008384D01*
X005849Y008206D01*
X008775Y008206D01*
X010094Y009525D01*
X010094Y009584D01*
X010150Y009719D01*
X010253Y009822D01*
X010388Y009878D01*
X010535Y009878D01*
X010670Y009822D01*
X010773Y009719D01*
X010829Y009584D01*
X010829Y009437D01*
X010773Y009302D01*
X010670Y009199D01*
X010535Y009143D01*
X010476Y009143D01*
X009116Y007783D01*
X009040Y007707D01*
X008940Y007666D01*
X005683Y007666D01*
X005584Y007707D01*
X005371Y007920D01*
X005416Y007812D01*
X005416Y007753D01*
X006539Y006630D01*
X006598Y006630D01*
X006733Y006574D01*
X006836Y006471D01*
X006892Y006335D01*
X006892Y006189D01*
X006836Y006054D01*
X006733Y005951D01*
X006598Y005895D01*
X006451Y005895D01*
X006316Y005951D01*
X006213Y006054D01*
X006157Y006189D01*
X006157Y006248D01*
X005034Y007371D01*
X004975Y007371D01*
X004840Y007427D01*
X004736Y007531D01*
X004704Y007610D01*
X004671Y007531D01*
X004567Y007427D01*
X004432Y007371D01*
X004286Y007371D01*
X004151Y007427D01*
X004048Y007531D01*
X003992Y007666D01*
X003992Y007812D01*
X004024Y007889D01*
X001426Y010487D01*
X001418Y010478D01*
X001283Y010422D01*
X001136Y010422D01*
X001001Y010478D01*
X000898Y010582D01*
X000842Y010717D01*
X000842Y010863D01*
X000898Y010998D01*
X001001Y011101D01*
X001136Y011157D01*
X001283Y011157D01*
X001418Y011101D01*
X001459Y011060D01*
X001558Y011060D01*
X001658Y011019D01*
X004031Y008646D01*
X004031Y008658D01*
X004087Y008793D01*
X004190Y008897D01*
X004325Y008953D01*
X004411Y008953D01*
X004485Y008983D01*
X005925Y008983D01*
X006192Y009250D01*
X003815Y009250D01*
X003720Y009290D01*
X001456Y011554D01*
X001456Y011554D01*
X001383Y011627D01*
X001343Y011722D01*
X001343Y020918D01*
X000675Y021586D01*
X000675Y003885D01*
X000712Y003948D01*
X000965Y004201D01*
X001275Y004380D01*
X001621Y004473D01*
X001979Y004473D01*
X002325Y004380D01*
X002635Y004201D01*
X002639Y004197D02*
X004488Y004197D01*
X004493Y004099D02*
X002737Y004099D01*
X002836Y004000D02*
X004493Y004000D01*
X004493Y003902D02*
X002915Y003902D01*
X002972Y003803D02*
X004493Y003803D01*
X004493Y003705D02*
X003028Y003705D01*
X003076Y003606D02*
X004493Y003606D01*
X004493Y003508D02*
X003102Y003508D01*
X003128Y003409D02*
X004493Y003409D01*
X004493Y003311D02*
X003155Y003311D01*
X003160Y003212D02*
X004493Y003212D01*
X004493Y003114D02*
X003160Y003114D01*
X003160Y003015D02*
X004493Y003015D01*
X004493Y002917D02*
X003156Y002917D01*
X003129Y002818D02*
X004493Y002818D01*
X004493Y002720D02*
X003103Y002720D01*
X003076Y002621D02*
X004493Y002621D01*
X004493Y002523D02*
X003030Y002523D01*
X003178Y002129D02*
X003414Y001892D01*
X005107Y001892D01*
X006190Y003014D01*
X008099Y003014D01*
X008493Y003408D01*
X008270Y003705D02*
X006924Y003705D01*
X006971Y003606D02*
X008177Y003606D01*
X008137Y003508D02*
X006990Y003508D01*
X006989Y003409D02*
X008125Y003409D01*
X008028Y003311D02*
X006948Y003311D01*
X006623Y003487D02*
X006249Y003861D01*
X006249Y004806D01*
X005698Y005357D01*
X002686Y005357D01*
X002913Y005675D02*
X003705Y005675D01*
X003696Y005773D02*
X003003Y005773D01*
X003044Y005872D02*
X003708Y005872D01*
X003749Y005970D02*
X003053Y005970D01*
X003041Y006069D02*
X003843Y006069D01*
X004064Y005770D02*
X004241Y005593D01*
X012824Y005593D01*
X013119Y005278D01*
X013712Y004685D01*
X013712Y004657D01*
X013352Y004296D02*
X012907Y004296D01*
X012819Y004207D02*
X013082Y004471D01*
X013082Y004607D01*
X012682Y004607D01*
X012682Y004207D01*
X012819Y004207D01*
X012682Y004296D02*
X012582Y004296D01*
X012582Y004207D02*
X012582Y004607D01*
X012182Y004607D01*
X012182Y004471D01*
X012446Y004207D01*
X012582Y004207D01*
X012582Y004394D02*
X012682Y004394D01*
X012682Y004493D02*
X012582Y004493D01*
X012582Y004591D02*
X012682Y004591D01*
X012682Y004607D02*
X012582Y004607D01*
X012582Y004707D01*
X012182Y004707D01*
X012182Y004843D01*
X012446Y005107D01*
X012582Y005107D01*
X012582Y004707D01*
X012682Y004707D01*
X012682Y005107D01*
X012819Y005107D01*
X013082Y004843D01*
X013082Y004707D01*
X012682Y004707D01*
X012682Y004607D01*
X012682Y004690D02*
X013202Y004690D01*
X013202Y004788D02*
X013082Y004788D01*
X013039Y004887D02*
X013142Y004887D01*
X013044Y004985D02*
X012940Y004985D01*
X012945Y005084D02*
X012842Y005084D01*
X012852Y005182D02*
X010402Y005182D01*
X010573Y005084D02*
X012423Y005084D01*
X012324Y004985D02*
X010685Y004985D01*
X010783Y004887D02*
X012226Y004887D01*
X012182Y004788D02*
X010860Y004788D01*
X010917Y004690D02*
X012582Y004690D01*
X012582Y004788D02*
X012682Y004788D01*
X012682Y004887D02*
X012582Y004887D01*
X012582Y004985D02*
X012682Y004985D01*
X012682Y005084D02*
X012582Y005084D01*
X012760Y005281D02*
X010119Y005281D01*
X009902Y005970D02*
X016382Y005970D01*
X016284Y005872D02*
X004419Y005872D01*
X004379Y005970D02*
X006297Y005970D01*
X006207Y006069D02*
X004285Y006069D01*
X004320Y004766D02*
X004753Y004294D01*
X004753Y002345D01*
X004871Y002227D01*
X004871Y002207D01*
X004503Y002227D02*
X003535Y002227D01*
X003494Y002326D02*
X004493Y002326D01*
X004493Y002424D02*
X003402Y002424D01*
X002471Y004296D02*
X004398Y004296D01*
X004308Y004394D02*
X002271Y004394D01*
X002371Y005003D02*
X005619Y005003D01*
X005934Y004688D01*
X005934Y003506D01*
X006190Y003211D01*
X006190Y003014D01*
X006426Y002719D02*
X017056Y002719D01*
X017942Y003605D01*
X017942Y005377D01*
X020009Y007443D01*
X020107Y008920D01*
X020107Y010495D01*
X019418Y011184D01*
X019024Y011577D01*
X015580Y011577D01*
X015212Y011592D02*
X013048Y009427D01*
X013093Y009536D01*
X013093Y009682D01*
X013037Y009817D01*
X012985Y009869D01*
X012985Y010645D01*
X012946Y010740D01*
X011877Y011809D01*
X015292Y011809D01*
X015268Y011786D01*
X015212Y011650D01*
X015212Y011592D01*
X015205Y011585D02*
X012101Y011585D01*
X012199Y011487D02*
X015107Y011487D01*
X015008Y011388D02*
X012298Y011388D01*
X012396Y011290D02*
X014910Y011290D01*
X014811Y011191D02*
X012495Y011191D01*
X012593Y011093D02*
X014713Y011093D01*
X014614Y010994D02*
X012692Y010994D01*
X012790Y010896D02*
X014516Y010896D01*
X014417Y010797D02*
X012889Y010797D01*
X012963Y010699D02*
X014319Y010699D01*
X014220Y010600D02*
X012985Y010600D01*
X012985Y010502D02*
X014122Y010502D01*
X014023Y010403D02*
X012985Y010403D01*
X012985Y010305D02*
X013925Y010305D01*
X013826Y010206D02*
X012985Y010206D01*
X012985Y010108D02*
X013728Y010108D01*
X013629Y010009D02*
X012985Y010009D01*
X012985Y009911D02*
X013531Y009911D01*
X013432Y009812D02*
X013039Y009812D01*
X013080Y009714D02*
X013334Y009714D01*
X013235Y009615D02*
X013093Y009615D01*
X013085Y009517D02*
X013137Y009517D01*
X012841Y009221D02*
X010692Y009221D01*
X010780Y009320D02*
X012495Y009320D01*
X012406Y009418D02*
X010821Y009418D01*
X010829Y009517D02*
X012366Y009517D01*
X012358Y009615D02*
X010816Y009615D01*
X010775Y009714D02*
X012371Y009714D01*
X012412Y009812D02*
X010680Y009812D01*
X010496Y010206D02*
X012465Y010206D01*
X012465Y010108D02*
X010231Y010108D01*
X010190Y010009D02*
X012465Y010009D01*
X012465Y009911D02*
X010102Y009911D01*
X010028Y009812D02*
X010243Y009812D01*
X010148Y009714D02*
X010041Y009714D01*
X010034Y009615D02*
X010107Y009615D01*
X010086Y009517D02*
X009993Y009517D01*
X009987Y009418D02*
X009904Y009418D01*
X009889Y009320D02*
X006996Y009320D01*
X007095Y009418D02*
X009444Y009418D01*
X009355Y009517D02*
X007193Y009517D01*
X007292Y009615D02*
X007672Y009615D01*
X007902Y009904D02*
X007213Y009904D01*
X006032Y008723D01*
X004536Y008723D01*
X004398Y008585D01*
X004260Y008926D02*
X003751Y008926D01*
X003653Y009024D02*
X005966Y009024D01*
X006064Y009123D02*
X003554Y009123D01*
X003456Y009221D02*
X006163Y009221D01*
X006426Y009707D02*
X003965Y009707D01*
X001800Y011873D01*
X001800Y021420D01*
X001800Y021518D01*
X001072Y022306D01*
X000717Y022601D02*
X000816Y022699D01*
X000717Y022601D02*
X000717Y021912D01*
X000816Y021814D01*
X001603Y021026D01*
X001603Y011774D01*
X003867Y009510D01*
X006524Y009510D01*
X007410Y010396D01*
X008099Y010396D01*
X008296Y010199D01*
X008664Y010206D02*
X009201Y010206D01*
X009217Y010108D02*
X008656Y010108D01*
X008615Y010009D02*
X009217Y010009D01*
X009217Y009911D02*
X008527Y009911D01*
X008262Y009812D02*
X009234Y009812D01*
X009300Y009714D02*
X008221Y009714D01*
X008133Y009615D02*
X009314Y009615D01*
X009477Y009904D02*
X009674Y009707D01*
X009477Y009904D02*
X009477Y010298D01*
X009182Y010593D01*
X007312Y010593D01*
X006426Y009707D01*
X006328Y009904D02*
X007213Y010790D01*
X009379Y010790D01*
X009871Y010298D01*
X009871Y010199D01*
X010265Y010495D02*
X009772Y010987D01*
X007115Y010987D01*
X006229Y010101D01*
X004162Y010101D01*
X002194Y012069D01*
X002194Y021912D01*
X001997Y022109D01*
X001997Y026932D01*
X001898Y027030D01*
X001898Y028900D01*
X001702Y029097D01*
X001111Y029688D01*
X000763Y029808D02*
X000675Y029808D01*
X000744Y029761D02*
X000744Y029614D01*
X000799Y029479D01*
X000903Y029376D01*
X001038Y029320D01*
X001111Y029320D01*
X001481Y028950D01*
X001638Y028792D01*
X001638Y026978D01*
X001678Y026883D01*
X001737Y026824D01*
X001737Y023032D01*
X001675Y023093D01*
X001675Y023166D01*
X001619Y023301D01*
X001516Y023405D01*
X001381Y023461D01*
X001235Y023461D01*
X001100Y023405D01*
X000996Y023301D01*
X000940Y023166D01*
X000940Y023046D01*
X000889Y023067D01*
X000743Y023067D01*
X000675Y023039D01*
X000675Y030687D01*
X000712Y030624D01*
X000965Y030371D01*
X001275Y030192D01*
X001621Y030099D01*
X001979Y030099D01*
X002325Y030192D01*
X002635Y030371D01*
X002888Y030624D01*
X003067Y030934D01*
X003160Y031280D01*
X003160Y031638D01*
X003067Y031984D01*
X002888Y032294D01*
X002635Y032548D01*
X002572Y032584D01*
X021501Y032584D01*
X021437Y032548D01*
X021184Y032294D01*
X021005Y031984D01*
X020912Y031638D01*
X020912Y031280D01*
X021005Y030934D01*
X021184Y030624D01*
X021437Y030371D01*
X021748Y030192D01*
X022093Y030099D01*
X022451Y030099D01*
X022797Y030192D01*
X023108Y030371D01*
X023361Y030624D01*
X023397Y030687D01*
X023397Y003885D01*
X023361Y003948D01*
X023108Y004201D01*
X022797Y004380D01*
X022451Y004473D01*
X022093Y004473D01*
X021748Y004380D01*
X021437Y004201D01*
X021184Y003948D01*
X021005Y003638D01*
X020912Y003292D01*
X020912Y002934D01*
X021005Y002588D01*
X021184Y002278D01*
X021437Y002025D01*
X021540Y001965D01*
X012036Y001872D01*
X006116Y001930D01*
X006144Y001996D01*
X006144Y002069D01*
X006534Y002459D01*
X017108Y002459D01*
X017203Y002499D01*
X018089Y003384D01*
X018162Y003458D01*
X018202Y003553D01*
X018202Y005269D01*
X020186Y007254D01*
X020219Y007282D01*
X020223Y007290D01*
X020229Y007296D01*
X020246Y007336D01*
X020265Y007375D01*
X020265Y007384D01*
X020269Y007392D01*
X020269Y007435D01*
X020349Y008642D01*
X020419Y008712D01*
X020475Y008847D01*
X020475Y008993D01*
X020419Y009128D01*
X020367Y009180D01*
X020367Y010546D01*
X020328Y010642D01*
X019786Y011184D01*
X019786Y011257D01*
X019730Y011392D01*
X019626Y011495D01*
X019491Y011551D01*
X019418Y011551D01*
X019245Y011725D01*
X019172Y011798D01*
X019143Y011809D01*
X019606Y011809D01*
X020536Y010879D01*
X020536Y010246D01*
X020576Y010151D01*
X021333Y009393D01*
X021333Y009102D01*
X021622Y008814D01*
X021333Y008525D01*
X021333Y008102D01*
X021622Y007814D01*
X021333Y007525D01*
X021333Y007102D01*
X021622Y006814D01*
X021333Y006525D01*
X021333Y006102D01*
X021632Y005804D01*
X022055Y005804D01*
X022353Y006102D01*
X022353Y006525D01*
X022065Y006814D01*
X022353Y007102D01*
X022353Y007525D01*
X022065Y007814D01*
X022353Y008102D01*
X022353Y008525D01*
X022065Y008814D01*
X022353Y009102D01*
X022353Y009525D01*
X022065Y009814D01*
X022353Y010102D01*
X022353Y010456D01*
X022393Y010496D01*
X022393Y010364D01*
X022793Y010364D01*
X022793Y010764D01*
X022657Y010764D01*
X022574Y010681D01*
X022611Y010770D01*
X022611Y010909D01*
X022657Y010864D01*
X022793Y010864D01*
X022793Y011264D01*
X022893Y011264D01*
X022893Y011364D01*
X022793Y011364D01*
X022793Y011764D01*
X022657Y011764D01*
X022611Y011718D01*
X022611Y011909D01*
X022657Y011864D01*
X022793Y011864D01*
X022793Y012264D01*
X022893Y012264D01*
X022893Y012364D01*
X022793Y012364D01*
X022793Y012764D01*
X022657Y012764D01*
X022581Y012687D01*
X022572Y012709D01*
X022498Y012782D01*
X022266Y013015D01*
X022353Y013102D01*
X022353Y013525D01*
X022065Y013814D01*
X022353Y014102D01*
X022353Y014525D01*
X022065Y014814D01*
X022343Y015092D01*
X022632Y014804D01*
X023055Y014804D01*
X023353Y015102D01*
X023353Y015525D01*
X023397Y015525D01*
X023353Y015525D02*
X023055Y015824D01*
X022632Y015824D01*
X022343Y015535D01*
X022055Y015824D01*
X021632Y015824D01*
X021333Y015525D01*
X021333Y015102D01*
X021622Y014814D01*
X021333Y014525D01*
X021333Y014451D01*
X021068Y014185D01*
X021028Y014090D01*
X021028Y013457D01*
X020984Y013412D01*
X020341Y013412D01*
X020845Y013916D01*
X020918Y013989D01*
X020958Y014085D01*
X020958Y017283D01*
X020990Y017219D01*
X021037Y017156D01*
X021093Y017100D01*
X021157Y017053D01*
X021227Y017017D01*
X021302Y016993D01*
X021380Y016980D01*
X021722Y016980D01*
X021722Y017433D01*
X021822Y017433D01*
X021822Y016980D01*
X022164Y016980D01*
X022243Y016993D01*
X022318Y017017D01*
X022388Y017053D01*
X022452Y017100D01*
X022508Y017156D01*
X022555Y017219D01*
X022591Y017290D01*
X022615Y017365D01*
X022626Y017433D01*
X021822Y017433D01*
X021822Y017533D01*
X021722Y017533D01*
X021722Y017985D01*
X021380Y017985D01*
X021302Y017973D01*
X021227Y017949D01*
X021157Y017913D01*
X021093Y017866D01*
X021037Y017810D01*
X020990Y017746D01*
X020958Y017682D01*
X020958Y018269D01*
X021578Y018889D01*
X022237Y018889D01*
X022444Y018975D01*
X022602Y019133D01*
X022687Y019339D01*
X022687Y019563D01*
X022602Y019770D01*
X022444Y019928D01*
X022237Y020014D01*
X021308Y020014D01*
X021101Y019928D01*
X020943Y019770D01*
X020857Y019563D01*
X020857Y019339D01*
X020943Y019133D01*
X021015Y019061D01*
X020550Y018597D01*
X020477Y018524D01*
X020438Y018428D01*
X020438Y014244D01*
X019999Y013806D01*
X017611Y013806D01*
X017559Y013857D01*
X017424Y013913D01*
X017278Y013913D01*
X017143Y013857D01*
X017040Y013754D01*
X016984Y013619D01*
X016984Y013473D01*
X017009Y013412D01*
X012827Y013412D01*
X012737Y013503D01*
X012601Y013559D01*
X012455Y013559D01*
X012320Y013503D01*
X012296Y013479D01*
X012296Y013635D01*
X012430Y013769D01*
X012503Y013769D01*
X012638Y013825D01*
X012741Y013928D01*
X012797Y014063D01*
X012797Y014210D01*
X012741Y014345D01*
X012638Y014448D01*
X012503Y014504D01*
X012357Y014504D01*
X012222Y014448D01*
X012118Y014345D01*
X012062Y014210D01*
X012062Y014137D01*
X011816Y013890D01*
X011776Y013794D01*
X011776Y013018D01*
X008601Y013018D01*
X006990Y014629D01*
X006990Y014702D01*
X006934Y014837D01*
X006831Y014940D01*
X006696Y014996D01*
X006550Y014996D01*
X006415Y014940D01*
X006323Y014848D01*
X006204Y014898D01*
X006058Y014898D01*
X005923Y014842D01*
X005819Y014738D01*
X005763Y014603D01*
X005763Y014457D01*
X005819Y014322D01*
X005923Y014219D01*
X006058Y014163D01*
X006130Y014163D01*
X006238Y014055D01*
X006105Y014110D01*
X005959Y014110D01*
X005824Y014054D01*
X005721Y013951D01*
X005665Y013816D01*
X005665Y013670D01*
X005721Y013535D01*
X005772Y013483D01*
X005772Y013319D01*
X005665Y013363D01*
X005478Y013363D01*
X005305Y013292D01*
X005173Y013160D01*
X005102Y012987D01*
X005102Y012974D01*
X004816Y013260D01*
X004816Y013401D01*
X004776Y013496D01*
X004029Y014244D01*
X004029Y015308D01*
X004467Y015746D01*
X011981Y015746D01*
X012000Y015700D01*
X012104Y015597D01*
X012239Y015541D01*
X012370Y015541D01*
X012355Y015526D01*
X012299Y015391D01*
X012299Y015244D01*
X012355Y015109D01*
X012458Y015006D01*
X012593Y014950D01*
X012739Y014950D01*
X012874Y015006D01*
X012978Y015109D01*
X013034Y015244D01*
X013034Y015391D01*
X012978Y015526D01*
X012926Y015577D01*
X012926Y016117D01*
X012887Y016213D01*
X012813Y016286D01*
X012577Y016522D01*
X012482Y016562D01*
X008217Y016562D01*
X008250Y016642D01*
X008250Y016788D01*
X008233Y016829D01*
X008663Y016829D01*
X008758Y016869D01*
X008788Y016899D01*
X008802Y016899D01*
X008937Y016955D01*
X009041Y017058D01*
X009097Y017193D01*
X009097Y017339D01*
X009041Y017474D01*
X008988Y017528D01*
X012200Y017528D01*
X012222Y017506D01*
X012357Y017450D01*
X012503Y017450D01*
X012638Y017506D01*
X012741Y017609D01*
X012797Y017744D01*
X012797Y017891D01*
X012741Y018026D01*
X012720Y018047D01*
X012720Y018722D01*
X012676Y018828D01*
X012594Y018910D01*
X012323Y019181D01*
X015253Y019181D01*
X015268Y019145D01*
X015371Y019041D01*
X015506Y018985D01*
X015653Y018985D01*
X015788Y019041D01*
X015891Y019145D01*
X015947Y019280D01*
X015947Y019353D01*
X016784Y020190D01*
X016824Y020285D01*
X016824Y020570D01*
X016875Y020621D01*
X016931Y020756D01*
X016931Y020902D01*
X016875Y021037D01*
X016772Y021141D01*
X016637Y021197D01*
X016491Y021197D01*
X016356Y021141D01*
X016252Y021037D01*
X016196Y020902D01*
X016196Y020756D01*
X016252Y020621D01*
X016304Y020570D01*
X016304Y020445D01*
X015850Y019991D01*
X015850Y020194D01*
X015808Y020293D01*
X015732Y020369D01*
X011106Y024995D01*
X011007Y025036D01*
X010121Y025036D01*
X010079Y025078D01*
X009944Y025134D01*
X009798Y025134D01*
X009663Y025078D01*
X009621Y025036D01*
X008960Y025036D01*
X008960Y025304D01*
X009001Y025346D01*
X009057Y025481D01*
X009057Y025627D01*
X009001Y025762D01*
X008898Y025865D01*
X008763Y025921D01*
X008617Y025921D01*
X008482Y025865D01*
X008378Y025762D01*
X008322Y025627D01*
X008322Y025481D01*
X008378Y025346D01*
X008420Y025304D01*
X008420Y025036D01*
X006120Y025036D01*
X006142Y025045D01*
X006194Y025097D01*
X006438Y025097D01*
X006534Y025136D01*
X006607Y025210D01*
X007844Y026446D01*
X007916Y026446D01*
X008051Y026502D01*
X008155Y026605D01*
X008211Y026740D01*
X008211Y026887D01*
X008155Y027022D01*
X008051Y027125D01*
X007916Y027181D01*
X007770Y027181D01*
X007635Y027125D01*
X007532Y027022D01*
X007476Y026887D01*
X007476Y026814D01*
X006279Y025617D01*
X006194Y025617D01*
X006142Y025668D01*
X006007Y025724D01*
X005861Y025724D01*
X005726Y025668D01*
X005622Y025565D01*
X005566Y025430D01*
X005566Y025284D01*
X005622Y025149D01*
X005726Y025045D01*
X005747Y025036D01*
X004865Y025036D01*
X004531Y025370D01*
X004531Y026190D01*
X004572Y026231D01*
X004628Y026366D01*
X004628Y026513D01*
X004572Y026648D01*
X004469Y026751D01*
X004334Y026807D01*
X004188Y026807D01*
X004052Y026751D01*
X003949Y026648D01*
X003893Y026513D01*
X003893Y026366D01*
X003949Y026231D01*
X003991Y026190D01*
X003991Y025205D01*
X004032Y025106D01*
X004220Y024917D01*
X004207Y024917D01*
X004072Y024861D01*
X003969Y024758D01*
X003913Y024623D01*
X003913Y024477D01*
X003969Y024342D01*
X004072Y024238D01*
X004207Y024182D01*
X004353Y024182D01*
X004488Y024238D01*
X004540Y024290D01*
X005188Y024290D01*
X003438Y022540D01*
X003438Y022948D01*
X003398Y023044D01*
X002847Y023594D01*
X002847Y026627D01*
X003916Y027695D01*
X004217Y027695D01*
X004269Y027644D01*
X004404Y027588D01*
X004550Y027588D01*
X004685Y027644D01*
X004789Y027747D01*
X004845Y027882D01*
X004845Y028028D01*
X004789Y028163D01*
X004685Y028267D01*
X004550Y028323D01*
X004404Y028323D01*
X004269Y028267D01*
X004217Y028215D01*
X003756Y028215D01*
X003661Y028176D01*
X003587Y028103D01*
X002856Y027372D01*
X002856Y027497D01*
X002801Y027632D01*
X002697Y027735D01*
X002562Y027791D01*
X002416Y027791D01*
X002355Y027766D01*
X002355Y029088D01*
X002588Y029320D01*
X002660Y029320D01*
X002796Y029376D01*
X002899Y029479D01*
X002955Y029614D01*
X002955Y029761D01*
X002899Y029896D01*
X002796Y029999D01*
X002660Y030055D01*
X002514Y030055D01*
X002379Y029999D01*
X002276Y029896D01*
X002220Y029761D01*
X002220Y029688D01*
X001875Y029343D01*
X001860Y029306D01*
X001849Y029317D01*
X001479Y029688D01*
X001479Y029761D01*
X001423Y029896D01*
X001319Y029999D01*
X001184Y030055D01*
X001038Y030055D01*
X000903Y029999D01*
X000799Y029896D01*
X000744Y029761D01*
X000744Y029709D02*
X000675Y029709D01*
X000675Y029611D02*
X000745Y029611D01*
X000786Y029512D02*
X000675Y029512D01*
X000675Y029414D02*
X000865Y029414D01*
X000675Y029315D02*
X001116Y029315D01*
X001214Y029217D02*
X000675Y029217D01*
X000675Y029118D02*
X001313Y029118D01*
X001411Y029020D02*
X000675Y029020D01*
X000675Y028921D02*
X001510Y028921D01*
X001608Y028823D02*
X000675Y028823D01*
X000675Y028724D02*
X001638Y028724D01*
X001638Y028626D02*
X000675Y028626D01*
X000675Y028527D02*
X001638Y028527D01*
X001638Y028429D02*
X000675Y028429D01*
X000675Y028330D02*
X001638Y028330D01*
X001638Y028232D02*
X000675Y028232D01*
X000675Y028133D02*
X001638Y028133D01*
X001638Y028035D02*
X000675Y028035D01*
X000675Y027936D02*
X001638Y027936D01*
X001638Y027838D02*
X000675Y027838D01*
X000675Y027739D02*
X001638Y027739D01*
X001638Y027641D02*
X000675Y027641D01*
X000675Y027542D02*
X001638Y027542D01*
X001638Y027444D02*
X000675Y027444D01*
X000675Y027345D02*
X001638Y027345D01*
X001638Y027247D02*
X000675Y027247D01*
X000675Y027148D02*
X001638Y027148D01*
X001638Y027050D02*
X000675Y027050D01*
X000675Y026951D02*
X001650Y026951D01*
X001708Y026853D02*
X000675Y026853D01*
X000675Y026754D02*
X001737Y026754D01*
X001737Y026656D02*
X000675Y026656D01*
X000675Y026557D02*
X001737Y026557D01*
X001737Y026459D02*
X000675Y026459D01*
X000675Y026360D02*
X001737Y026360D01*
X001737Y026262D02*
X000675Y026262D01*
X000675Y026163D02*
X001737Y026163D01*
X001737Y026065D02*
X000675Y026065D01*
X000675Y025966D02*
X001737Y025966D01*
X001737Y025868D02*
X000675Y025868D01*
X000675Y025769D02*
X001737Y025769D01*
X001737Y025671D02*
X000675Y025671D01*
X000675Y025572D02*
X001737Y025572D01*
X001737Y025474D02*
X000675Y025474D01*
X000675Y025375D02*
X001737Y025375D01*
X001737Y025277D02*
X000675Y025277D01*
X000675Y025178D02*
X001737Y025178D01*
X001737Y025080D02*
X000675Y025080D01*
X000675Y024981D02*
X001737Y024981D01*
X001737Y024883D02*
X000675Y024883D01*
X000675Y024784D02*
X001737Y024784D01*
X001737Y024686D02*
X000675Y024686D01*
X000675Y024587D02*
X001737Y024587D01*
X001737Y024489D02*
X000675Y024489D01*
X000675Y024390D02*
X001737Y024390D01*
X001737Y024292D02*
X000675Y024292D01*
X000675Y024193D02*
X001737Y024193D01*
X001737Y024095D02*
X000675Y024095D01*
X000675Y023996D02*
X001737Y023996D01*
X001737Y023898D02*
X000675Y023898D01*
X000675Y023799D02*
X001737Y023799D01*
X001737Y023701D02*
X000675Y023701D01*
X000675Y023602D02*
X001737Y023602D01*
X001737Y023504D02*
X000675Y023504D01*
X000675Y023405D02*
X001101Y023405D01*
X001002Y023307D02*
X000675Y023307D01*
X000675Y023208D02*
X000958Y023208D01*
X000940Y023110D02*
X000675Y023110D01*
X001308Y023093D02*
X001800Y022601D01*
X001800Y021912D01*
X001898Y021814D01*
X001997Y021715D01*
X001997Y011971D01*
X004064Y009904D01*
X006328Y009904D01*
X006131Y010298D02*
X004261Y010298D01*
X002391Y012168D01*
X002391Y022109D01*
X002194Y022306D01*
X002194Y027129D01*
X002095Y027227D01*
X002095Y029195D01*
X002587Y029688D01*
X002239Y029808D02*
X001459Y029808D01*
X001479Y029709D02*
X002220Y029709D01*
X002143Y029611D02*
X001556Y029611D01*
X001654Y029512D02*
X002044Y029512D01*
X001946Y029414D02*
X001753Y029414D01*
X001851Y029315D02*
X001863Y029315D01*
X002386Y029118D02*
X007010Y029118D01*
X007013Y029121D02*
X007000Y029108D01*
X006944Y028973D01*
X006944Y028827D01*
X007000Y028692D01*
X007052Y028640D01*
X007052Y028061D01*
X007091Y027966D01*
X007165Y027892D01*
X007338Y027719D01*
X007338Y027646D01*
X007394Y027511D01*
X007497Y027408D01*
X007632Y027352D01*
X007779Y027352D01*
X007914Y027408D01*
X008017Y027511D01*
X008073Y027646D01*
X008073Y027792D01*
X008017Y027927D01*
X007963Y027982D01*
X008015Y027982D01*
X008105Y028019D01*
X015600Y028019D01*
X018990Y024630D01*
X018990Y022391D01*
X018903Y022304D01*
X018835Y022141D01*
X018768Y022304D01*
X018624Y022448D01*
X018437Y022525D01*
X018234Y022525D01*
X018047Y022448D01*
X017903Y022304D01*
X017835Y022141D01*
X017768Y022304D01*
X017624Y022448D01*
X017437Y022525D01*
X017234Y022525D01*
X017047Y022448D01*
X016903Y022304D01*
X016825Y022117D01*
X016825Y021314D01*
X016903Y021126D01*
X017047Y020983D01*
X017234Y020905D01*
X017437Y020905D01*
X017624Y020983D01*
X017768Y021126D01*
X017835Y021290D01*
X017903Y021126D01*
X018047Y020983D01*
X018234Y020905D01*
X018437Y020905D01*
X018624Y020983D01*
X018768Y021126D01*
X018835Y021290D01*
X018903Y021126D01*
X019047Y020983D01*
X019234Y020905D01*
X019437Y020905D01*
X019624Y020983D01*
X019768Y021126D01*
X019845Y021314D01*
X019845Y022117D01*
X019768Y022304D01*
X019650Y022422D01*
X019650Y024832D01*
X019599Y024953D01*
X016017Y028536D01*
X015924Y028629D01*
X015803Y028679D01*
X008105Y028679D01*
X008015Y028716D01*
X007869Y028716D01*
X007734Y028661D01*
X007630Y028557D01*
X007574Y028422D01*
X007574Y028276D01*
X007615Y028177D01*
X007572Y028220D01*
X007572Y028640D01*
X007623Y028692D01*
X007679Y028827D01*
X007679Y028973D01*
X007623Y029108D01*
X007611Y029121D01*
X009157Y029121D01*
X009293Y029177D01*
X009397Y029281D01*
X009453Y029417D01*
X009453Y029564D01*
X009453Y030942D01*
X009397Y031078D01*
X009293Y031182D01*
X009157Y031239D01*
X009010Y031239D01*
X008874Y031182D01*
X008770Y031078D01*
X008713Y030942D01*
X008713Y029861D01*
X005950Y029861D01*
X005950Y030903D01*
X005893Y031039D01*
X005789Y031143D01*
X005653Y031199D01*
X005506Y031199D01*
X005370Y031143D01*
X005266Y031039D01*
X005210Y030903D01*
X005210Y029496D01*
X005266Y029360D01*
X005370Y029256D01*
X005449Y029177D01*
X005585Y029121D01*
X007013Y029121D01*
X006963Y029020D02*
X002355Y029020D01*
X002355Y028921D02*
X006944Y028921D01*
X006946Y028823D02*
X002355Y028823D01*
X002355Y028724D02*
X006987Y028724D01*
X007052Y028626D02*
X002355Y028626D01*
X002355Y028527D02*
X007052Y028527D01*
X007052Y028429D02*
X002355Y028429D01*
X002355Y028330D02*
X007052Y028330D01*
X007052Y028232D02*
X004721Y028232D01*
X004801Y028133D02*
X007052Y028133D01*
X007063Y028035D02*
X004842Y028035D01*
X004845Y027936D02*
X007121Y027936D01*
X007219Y027838D02*
X004826Y027838D01*
X004781Y027739D02*
X007318Y027739D01*
X007340Y027641D02*
X004678Y027641D01*
X004477Y027955D02*
X003808Y027955D01*
X002587Y026735D01*
X002587Y023487D01*
X003178Y022896D01*
X003178Y022404D01*
X002981Y022207D01*
X002981Y012463D01*
X004064Y011381D01*
X004950Y011381D01*
X005245Y011676D01*
X006524Y011676D01*
X006623Y011774D01*
X011052Y011774D01*
X011446Y011381D01*
X011150Y011184D02*
X011150Y010987D01*
X011150Y011184D02*
X010757Y011577D01*
X006721Y011577D01*
X006623Y011479D01*
X005343Y011479D01*
X005048Y011184D01*
X003965Y011184D01*
X002784Y012365D01*
X002784Y022699D01*
X002587Y022306D02*
X002587Y012266D01*
X004359Y010495D01*
X006032Y010495D01*
X006918Y011381D01*
X010560Y011381D01*
X010757Y011184D01*
X010757Y010692D01*
X010988Y010403D02*
X012465Y010403D01*
X012465Y010305D02*
X010584Y010305D01*
X010363Y010987D02*
X010166Y011184D01*
X007017Y011184D01*
X006131Y010298D01*
X006022Y010852D02*
X006042Y010900D01*
X006042Y011087D01*
X005987Y011219D01*
X006389Y011219D01*
X006022Y010852D01*
X006040Y010896D02*
X006065Y010896D01*
X006042Y010994D02*
X006164Y010994D01*
X006262Y011093D02*
X006039Y011093D01*
X005999Y011191D02*
X006361Y011191D01*
X006426Y011873D02*
X006524Y011971D01*
X011347Y011971D01*
X012725Y010593D01*
X012725Y009609D01*
X012743Y009123D02*
X010455Y009123D01*
X010357Y009024D02*
X012644Y009024D01*
X012546Y008926D02*
X010258Y008926D01*
X010160Y008827D02*
X012447Y008827D01*
X012349Y008729D02*
X010061Y008729D01*
X009963Y008630D02*
X012250Y008630D01*
X012152Y008532D02*
X009864Y008532D01*
X009766Y008433D02*
X012053Y008433D01*
X011955Y008335D02*
X009667Y008335D01*
X009569Y008236D02*
X011856Y008236D01*
X011758Y008138D02*
X009470Y008138D01*
X009372Y008039D02*
X011659Y008039D01*
X011561Y007940D02*
X009273Y007940D01*
X009175Y007842D02*
X011462Y007842D01*
X011364Y007743D02*
X009076Y007743D01*
X008805Y008236D02*
X005818Y008236D01*
X005720Y008335D02*
X008904Y008335D01*
X009002Y008433D02*
X005621Y008433D01*
X006208Y008532D02*
X009101Y008532D01*
X009199Y008630D02*
X006307Y008630D01*
X006405Y008729D02*
X009298Y008729D01*
X009396Y008827D02*
X006504Y008827D01*
X006602Y008926D02*
X009495Y008926D01*
X009593Y009024D02*
X006701Y009024D01*
X006799Y009123D02*
X009692Y009123D01*
X009790Y009221D02*
X006898Y009221D01*
X005547Y007743D02*
X005425Y007743D01*
X005403Y007842D02*
X005449Y007842D01*
X005524Y007645D02*
X011265Y007645D01*
X011167Y007546D02*
X005622Y007546D01*
X005721Y007448D02*
X011068Y007448D01*
X010970Y007349D02*
X006941Y007349D01*
X007036Y007251D02*
X010871Y007251D01*
X010773Y007152D02*
X007076Y007152D01*
X007099Y007054D02*
X010674Y007054D01*
X011044Y006660D02*
X016594Y006660D01*
X016692Y006758D02*
X011143Y006758D01*
X011241Y006857D02*
X016791Y006857D01*
X016889Y006955D02*
X011340Y006955D01*
X011438Y007054D02*
X016988Y007054D01*
X017086Y007152D02*
X011537Y007152D01*
X011635Y007251D02*
X017185Y007251D01*
X017283Y007349D02*
X011734Y007349D01*
X011832Y007448D02*
X017382Y007448D01*
X017480Y007546D02*
X011931Y007546D01*
X012029Y007645D02*
X017579Y007645D01*
X017677Y007743D02*
X012128Y007743D01*
X012226Y007842D02*
X017682Y007842D01*
X017682Y007940D02*
X012325Y007940D01*
X012423Y008039D02*
X017682Y008039D01*
X017682Y008138D02*
X012522Y008138D01*
X012620Y008236D02*
X017682Y008236D01*
X017682Y008335D02*
X012719Y008335D01*
X012817Y008433D02*
X017682Y008433D01*
X017682Y008532D02*
X012916Y008532D01*
X013014Y008630D02*
X017682Y008630D01*
X017682Y008729D02*
X013113Y008729D01*
X013211Y008827D02*
X017682Y008827D01*
X017682Y008926D02*
X013310Y008926D01*
X013408Y009024D02*
X017682Y009024D01*
X017682Y009123D02*
X013507Y009123D01*
X013605Y009221D02*
X017682Y009221D01*
X017682Y009320D02*
X013704Y009320D01*
X013802Y009418D02*
X017682Y009418D01*
X017682Y009517D02*
X013901Y009517D01*
X013999Y009615D02*
X017682Y009615D01*
X017682Y009714D02*
X014098Y009714D01*
X014196Y009812D02*
X017682Y009812D01*
X017704Y009911D02*
X014295Y009911D01*
X014393Y010009D02*
X017777Y010009D01*
X017850Y010108D02*
X014492Y010108D01*
X014590Y010206D02*
X017871Y010206D01*
X017921Y010305D02*
X014689Y010305D01*
X014787Y010403D02*
X018034Y010403D01*
X018217Y010081D02*
X017942Y009806D01*
X017942Y007640D01*
X016564Y006262D01*
X009674Y006262D01*
X009446Y005970D02*
X006752Y005970D01*
X006842Y006069D02*
X009356Y006069D01*
X009316Y006167D02*
X006883Y006167D01*
X006892Y006266D02*
X009307Y006266D01*
X009319Y006364D02*
X006880Y006364D01*
X006839Y006463D02*
X009359Y006463D01*
X009606Y005281D02*
X006141Y005281D01*
X006240Y005182D02*
X009322Y005182D01*
X009152Y005084D02*
X006338Y005084D01*
X006437Y004985D02*
X009039Y004985D01*
X008941Y004887D02*
X006497Y004887D01*
X006509Y004788D02*
X008864Y004788D01*
X008807Y004690D02*
X006509Y004690D01*
X006509Y004591D02*
X008750Y004591D01*
X008716Y004493D02*
X006509Y004493D01*
X006509Y004394D02*
X008689Y004394D01*
X008663Y004296D02*
X006509Y004296D01*
X006509Y004197D02*
X008652Y004197D01*
X008652Y004099D02*
X006509Y004099D01*
X006509Y004000D02*
X008652Y004000D01*
X008662Y003902D02*
X006575Y003902D01*
X006819Y003803D02*
X008688Y003803D01*
X010409Y003015D02*
X016985Y003015D01*
X017083Y003114D02*
X016710Y003114D01*
X016623Y003027D02*
X016922Y003326D01*
X016922Y003748D01*
X016623Y004047D01*
X016201Y004047D01*
X015902Y003748D01*
X015902Y003326D01*
X016201Y003027D01*
X016623Y003027D01*
X016809Y003212D02*
X017182Y003212D01*
X017280Y003311D02*
X016907Y003311D01*
X016922Y003409D02*
X017379Y003409D01*
X017477Y003508D02*
X016922Y003508D01*
X016922Y003606D02*
X017576Y003606D01*
X017674Y003705D02*
X016922Y003705D01*
X016867Y003803D02*
X017682Y003803D01*
X017682Y003902D02*
X016768Y003902D01*
X016670Y004000D02*
X017682Y004000D01*
X017682Y004099D02*
X011072Y004099D01*
X011072Y004197D02*
X013450Y004197D01*
X013383Y004047D02*
X012961Y004047D01*
X012662Y003748D01*
X012662Y003326D01*
X012961Y003027D01*
X013383Y003027D01*
X013682Y003326D01*
X013682Y003748D01*
X013383Y004047D01*
X013430Y004000D02*
X013994Y004000D01*
X014041Y004047D02*
X013742Y003748D01*
X013742Y003326D01*
X014041Y003027D01*
X014463Y003027D01*
X014762Y003326D01*
X014762Y003748D01*
X014463Y004047D01*
X014041Y004047D01*
X013974Y004197D02*
X014530Y004197D01*
X014432Y004296D02*
X014072Y004296D01*
X014171Y004394D02*
X014333Y004394D01*
X014282Y004493D02*
X014222Y004493D01*
X014222Y004591D02*
X014282Y004591D01*
X014282Y004690D02*
X014222Y004690D01*
X014222Y004788D02*
X014282Y004788D01*
X014301Y004887D02*
X014203Y004887D01*
X014105Y004985D02*
X014399Y004985D01*
X014498Y005084D02*
X014006Y005084D01*
X013582Y005182D02*
X014936Y005182D01*
X015034Y005281D02*
X013484Y005281D01*
X013385Y005379D02*
X015133Y005379D01*
X015231Y005478D02*
X013288Y005478D01*
X013196Y005576D02*
X015988Y005576D01*
X016087Y005675D02*
X013103Y005675D01*
X013011Y005773D02*
X016185Y005773D01*
X016752Y005182D02*
X017682Y005182D01*
X017682Y005084D02*
X017246Y005084D01*
X017163Y005167D02*
X016741Y005167D01*
X016442Y004868D01*
X016442Y004446D01*
X016741Y004147D01*
X017163Y004147D01*
X017462Y004446D01*
X017462Y004868D01*
X017163Y005167D01*
X017345Y004985D02*
X017682Y004985D01*
X017682Y004887D02*
X017443Y004887D01*
X017462Y004788D02*
X017682Y004788D01*
X017682Y004690D02*
X017462Y004690D01*
X017462Y004591D02*
X017682Y004591D01*
X017682Y004493D02*
X017462Y004493D01*
X017411Y004394D02*
X017682Y004394D01*
X017682Y004296D02*
X017312Y004296D01*
X017214Y004197D02*
X017682Y004197D01*
X018202Y004197D02*
X018512Y004197D01*
X018512Y004256D02*
X018512Y003938D01*
X018595Y003630D01*
X018754Y003354D01*
X018979Y003129D01*
X019255Y002969D01*
X019563Y002887D01*
X019881Y002887D01*
X020189Y002969D01*
X020465Y003129D01*
X020690Y003354D01*
X020850Y003630D01*
X020932Y003938D01*
X020932Y004256D01*
X020850Y004564D01*
X020690Y004840D01*
X020465Y005065D01*
X020189Y005225D01*
X019881Y005307D01*
X019563Y005307D01*
X019255Y005225D01*
X018979Y005065D01*
X018754Y004840D01*
X018595Y004564D01*
X018512Y004256D01*
X018523Y004296D02*
X018202Y004296D01*
X018202Y004394D02*
X018549Y004394D01*
X018576Y004493D02*
X018202Y004493D01*
X018202Y004591D02*
X018610Y004591D01*
X018667Y004690D02*
X018202Y004690D01*
X018202Y004788D02*
X018724Y004788D01*
X018801Y004887D02*
X018202Y004887D01*
X018202Y004985D02*
X018899Y004985D01*
X019012Y005084D02*
X018202Y005084D01*
X018202Y005182D02*
X019182Y005182D01*
X019466Y005281D02*
X018214Y005281D01*
X018312Y005379D02*
X023397Y005379D01*
X023397Y005281D02*
X019979Y005281D01*
X020262Y005182D02*
X023397Y005182D01*
X023397Y005084D02*
X020433Y005084D01*
X020545Y004985D02*
X023397Y004985D01*
X023397Y004887D02*
X020643Y004887D01*
X020720Y004788D02*
X023397Y004788D01*
X023397Y004690D02*
X020777Y004690D01*
X020834Y004591D02*
X023397Y004591D01*
X023397Y004493D02*
X020869Y004493D01*
X020895Y004394D02*
X021801Y004394D01*
X021602Y004296D02*
X020922Y004296D01*
X020932Y004197D02*
X021434Y004197D01*
X021335Y004099D02*
X020932Y004099D01*
X020932Y004000D02*
X021237Y004000D01*
X021158Y003902D02*
X020923Y003902D01*
X020896Y003803D02*
X021101Y003803D01*
X021044Y003705D02*
X020870Y003705D01*
X020836Y003606D02*
X020997Y003606D01*
X020970Y003508D02*
X020779Y003508D01*
X020722Y003409D02*
X020944Y003409D01*
X020918Y003311D02*
X020647Y003311D01*
X020549Y003212D02*
X020912Y003212D01*
X020912Y003114D02*
X020439Y003114D01*
X020269Y003015D02*
X020912Y003015D01*
X020917Y002917D02*
X019993Y002917D01*
X019451Y002917D02*
X017622Y002917D01*
X017720Y003015D02*
X019175Y003015D01*
X019005Y003114D02*
X017819Y003114D01*
X017917Y003212D02*
X018895Y003212D01*
X018797Y003311D02*
X018016Y003311D01*
X018114Y003409D02*
X018722Y003409D01*
X018665Y003508D02*
X018183Y003508D01*
X018202Y003606D02*
X018608Y003606D01*
X018574Y003705D02*
X018202Y003705D01*
X018202Y003803D02*
X018548Y003803D01*
X018522Y003902D02*
X018202Y003902D01*
X018202Y004000D02*
X018512Y004000D01*
X018512Y004099D02*
X018202Y004099D01*
X017682Y005281D02*
X016850Y005281D01*
X016949Y005379D02*
X017682Y005379D01*
X017702Y005478D02*
X017047Y005478D01*
X017146Y005576D02*
X017774Y005576D01*
X017872Y005675D02*
X017244Y005675D01*
X017343Y005773D02*
X017971Y005773D01*
X018069Y005872D02*
X017441Y005872D01*
X017540Y005970D02*
X018168Y005970D01*
X018266Y006069D02*
X017638Y006069D01*
X017737Y006167D02*
X018365Y006167D01*
X018463Y006266D02*
X017835Y006266D01*
X017934Y006364D02*
X018562Y006364D01*
X018660Y006463D02*
X018032Y006463D01*
X018131Y006561D02*
X018759Y006561D01*
X018857Y006660D02*
X018229Y006660D01*
X018328Y006758D02*
X018956Y006758D01*
X019054Y006857D02*
X018426Y006857D01*
X018525Y006955D02*
X019153Y006955D01*
X019251Y007054D02*
X018623Y007054D01*
X018722Y007152D02*
X019350Y007152D01*
X019448Y007251D02*
X018820Y007251D01*
X018938Y007349D02*
X019547Y007349D01*
X019645Y007448D02*
X018991Y007448D01*
X018999Y007546D02*
X019744Y007546D01*
X019762Y007645D02*
X018999Y007645D01*
X018999Y007743D02*
X019768Y007743D01*
X019775Y007842D02*
X018999Y007842D01*
X018999Y007940D02*
X019781Y007940D01*
X019788Y008039D02*
X018999Y008039D01*
X018999Y008138D02*
X019794Y008138D01*
X019801Y008236D02*
X018999Y008236D01*
X018999Y008335D02*
X019807Y008335D01*
X019814Y008433D02*
X018999Y008433D01*
X018999Y008532D02*
X019821Y008532D01*
X019827Y008630D02*
X018999Y008630D01*
X018999Y008729D02*
X019789Y008729D01*
X019748Y008827D02*
X018999Y008827D01*
X018999Y008926D02*
X019740Y008926D01*
X019752Y009024D02*
X018999Y009024D01*
X018999Y009123D02*
X019793Y009123D01*
X019847Y009221D02*
X018999Y009221D01*
X018999Y009320D02*
X019847Y009320D01*
X019847Y009418D02*
X018999Y009418D01*
X018999Y009517D02*
X019847Y009517D01*
X019847Y009615D02*
X018971Y009615D01*
X018890Y009714D02*
X019847Y009714D01*
X019847Y009812D02*
X018775Y009812D01*
X018544Y009911D02*
X019847Y009911D01*
X019847Y010009D02*
X018585Y010009D01*
X018585Y010108D02*
X019847Y010108D01*
X019847Y010206D02*
X018563Y010206D01*
X018514Y010305D02*
X019847Y010305D01*
X019831Y010403D02*
X018401Y010403D01*
X019099Y010994D02*
X015378Y010994D01*
X015280Y010896D02*
X019187Y010896D01*
X019058Y011093D02*
X015477Y011093D01*
X015575Y011191D02*
X019043Y011191D01*
X018945Y011290D02*
X015811Y011290D01*
X015226Y011684D02*
X012002Y011684D01*
X011904Y011782D02*
X015267Y011782D01*
X015181Y010797D02*
X019437Y010797D01*
X019536Y010699D02*
X015083Y010699D01*
X014984Y010600D02*
X019634Y010600D01*
X019733Y010502D02*
X014886Y010502D01*
X012783Y013457D02*
X016990Y013457D01*
X016984Y013555D02*
X012611Y013555D01*
X012446Y013555D02*
X012296Y013555D01*
X012315Y013654D02*
X016998Y013654D01*
X017039Y013752D02*
X012413Y013752D01*
X012664Y013851D02*
X017136Y013851D01*
X017351Y013546D02*
X020107Y013546D01*
X020698Y014136D01*
X020698Y018377D01*
X021772Y019451D01*
X021563Y018874D02*
X023397Y018874D01*
X023397Y018776D02*
X021464Y018776D01*
X021366Y018677D02*
X023397Y018677D01*
X023397Y018579D02*
X021267Y018579D01*
X021169Y018480D02*
X023397Y018480D01*
X023397Y018382D02*
X021070Y018382D01*
X020972Y018283D02*
X023397Y018283D01*
X023397Y018185D02*
X020958Y018185D01*
X020958Y018086D02*
X023397Y018086D01*
X023397Y017988D02*
X020958Y017988D01*
X020958Y017889D02*
X021124Y017889D01*
X021022Y017791D02*
X020958Y017791D01*
X020958Y017692D02*
X020963Y017692D01*
X020958Y017200D02*
X021005Y017200D01*
X020958Y017101D02*
X021091Y017101D01*
X020958Y017003D02*
X021272Y017003D01*
X020958Y016904D02*
X023397Y016904D01*
X023397Y016806D02*
X020958Y016806D01*
X020958Y016707D02*
X023397Y016707D01*
X023397Y016609D02*
X020958Y016609D01*
X020958Y016510D02*
X023397Y016510D01*
X023397Y016412D02*
X020958Y016412D01*
X020958Y016313D02*
X023397Y016313D01*
X023397Y016215D02*
X020958Y016215D01*
X020958Y016116D02*
X023397Y016116D01*
X023397Y016018D02*
X020958Y016018D01*
X020958Y015919D02*
X023397Y015919D01*
X023397Y015821D02*
X023058Y015821D01*
X023156Y015722D02*
X023397Y015722D01*
X023397Y015624D02*
X023255Y015624D01*
X023353Y015427D02*
X023397Y015427D01*
X023397Y015328D02*
X023353Y015328D01*
X023353Y015230D02*
X023397Y015230D01*
X023397Y015131D02*
X023353Y015131D01*
X023397Y015033D02*
X023283Y015033D01*
X023185Y014934D02*
X023397Y014934D01*
X023397Y014836D02*
X023086Y014836D01*
X023030Y014764D02*
X022893Y014764D01*
X022893Y014364D01*
X022793Y014364D01*
X022793Y014764D01*
X022657Y014764D01*
X022393Y014500D01*
X022393Y014364D01*
X022793Y014364D01*
X022793Y014264D01*
X022393Y014264D01*
X022393Y014127D01*
X022657Y013864D01*
X022793Y013864D01*
X022793Y014264D01*
X022893Y014264D01*
X022893Y014364D01*
X023293Y014364D01*
X023293Y014500D01*
X023030Y014764D01*
X023056Y014737D02*
X023397Y014737D01*
X023397Y014639D02*
X023155Y014639D01*
X023253Y014540D02*
X023397Y014540D01*
X023397Y014442D02*
X023293Y014442D01*
X023397Y014343D02*
X022893Y014343D01*
X022893Y014264D02*
X023293Y014264D01*
X023293Y014127D01*
X023030Y013864D01*
X022893Y013864D01*
X022893Y014264D01*
X022893Y014245D02*
X022793Y014245D01*
X022793Y014343D02*
X022353Y014343D01*
X022353Y014245D02*
X022393Y014245D01*
X022393Y014146D02*
X022353Y014146D01*
X022298Y014048D02*
X022473Y014048D01*
X022571Y013949D02*
X022200Y013949D01*
X022101Y013851D02*
X023397Y013851D01*
X023397Y013949D02*
X023115Y013949D01*
X023214Y014048D02*
X023397Y014048D01*
X023397Y014146D02*
X023293Y014146D01*
X023293Y014245D02*
X023397Y014245D01*
X023397Y013752D02*
X023041Y013752D01*
X023030Y013764D02*
X022893Y013764D01*
X022893Y013364D01*
X022793Y013364D01*
X022793Y013764D01*
X022657Y013764D01*
X022393Y013500D01*
X022393Y013364D01*
X022793Y013364D01*
X022793Y013264D01*
X022393Y013264D01*
X022393Y013127D01*
X022657Y012864D01*
X022793Y012864D01*
X022793Y013264D01*
X022893Y013264D01*
X022893Y013364D01*
X023293Y013364D01*
X023293Y013500D01*
X023030Y013764D01*
X022893Y013752D02*
X022793Y013752D01*
X022793Y013654D02*
X022893Y013654D01*
X022893Y013555D02*
X022793Y013555D01*
X022793Y013457D02*
X022893Y013457D01*
X022893Y013358D02*
X023397Y013358D01*
X023397Y013260D02*
X023293Y013260D01*
X023293Y013264D02*
X022893Y013264D01*
X022893Y012864D01*
X023030Y012864D01*
X023293Y013127D01*
X023293Y013264D01*
X023293Y013161D02*
X023397Y013161D01*
X023397Y013063D02*
X023229Y013063D01*
X023130Y012964D02*
X023397Y012964D01*
X023397Y012866D02*
X023032Y012866D01*
X023030Y012764D02*
X022893Y012764D01*
X022893Y012364D01*
X023293Y012364D01*
X023293Y012500D01*
X023030Y012764D01*
X023125Y012669D02*
X023397Y012669D01*
X023397Y012767D02*
X022513Y012767D01*
X022415Y012866D02*
X022655Y012866D01*
X022793Y012866D02*
X022893Y012866D01*
X022893Y012964D02*
X022793Y012964D01*
X022793Y013063D02*
X022893Y013063D01*
X022893Y013161D02*
X022793Y013161D01*
X022793Y013260D02*
X022893Y013260D01*
X022793Y013358D02*
X022353Y013358D01*
X022353Y013260D02*
X022393Y013260D01*
X022393Y013161D02*
X022353Y013161D01*
X022313Y013063D02*
X022458Y013063D01*
X022556Y012964D02*
X022316Y012964D01*
X022115Y012798D02*
X022351Y012562D01*
X022351Y010821D01*
X021843Y010314D01*
X022066Y009812D02*
X023397Y009812D01*
X023397Y009714D02*
X023080Y009714D01*
X023030Y009764D02*
X022893Y009764D01*
X022893Y009364D01*
X022793Y009364D01*
X022793Y009764D01*
X022657Y009764D01*
X022393Y009500D01*
X022393Y009364D01*
X022793Y009364D01*
X022793Y009264D01*
X022393Y009264D01*
X022393Y009127D01*
X022657Y008864D01*
X022793Y008864D01*
X022793Y009264D01*
X022893Y009264D01*
X022893Y009364D01*
X023293Y009364D01*
X023293Y009500D01*
X023030Y009764D01*
X023030Y009864D02*
X023293Y010127D01*
X023293Y010264D01*
X022893Y010264D01*
X022893Y010364D01*
X022793Y010364D01*
X022793Y010264D01*
X022393Y010264D01*
X022393Y010127D01*
X022657Y009864D01*
X022793Y009864D01*
X022793Y010264D01*
X022893Y010264D01*
X022893Y009864D01*
X023030Y009864D01*
X023077Y009911D02*
X023397Y009911D01*
X023397Y010009D02*
X023175Y010009D01*
X023274Y010108D02*
X023397Y010108D01*
X023397Y010206D02*
X023293Y010206D01*
X023397Y010305D02*
X022893Y010305D01*
X022893Y010364D02*
X023293Y010364D01*
X023293Y010500D01*
X023030Y010764D01*
X022893Y010764D01*
X022893Y010364D01*
X022893Y010403D02*
X022793Y010403D01*
X022793Y010305D02*
X022353Y010305D01*
X022353Y010403D02*
X022393Y010403D01*
X022393Y010206D02*
X022353Y010206D01*
X022353Y010108D02*
X022413Y010108D01*
X022511Y010009D02*
X022260Y010009D01*
X022161Y009911D02*
X022610Y009911D01*
X022793Y009911D02*
X022893Y009911D01*
X022893Y010009D02*
X022793Y010009D01*
X022793Y010108D02*
X022893Y010108D01*
X022893Y010206D02*
X022793Y010206D01*
X022793Y010502D02*
X022893Y010502D01*
X022893Y010600D02*
X022793Y010600D01*
X022793Y010699D02*
X022893Y010699D01*
X022893Y010864D02*
X023030Y010864D01*
X023293Y011127D01*
X023293Y011264D01*
X022893Y011264D01*
X022893Y010864D01*
X022893Y010896D02*
X022793Y010896D01*
X022793Y010994D02*
X022893Y010994D01*
X022893Y011093D02*
X022793Y011093D01*
X022793Y011191D02*
X022893Y011191D01*
X022893Y011290D02*
X023397Y011290D01*
X023397Y011388D02*
X023293Y011388D01*
X023293Y011364D02*
X023293Y011500D01*
X023030Y011764D01*
X022893Y011764D01*
X022893Y011364D01*
X023293Y011364D01*
X023293Y011487D02*
X023397Y011487D01*
X023397Y011585D02*
X023208Y011585D01*
X023110Y011684D02*
X023397Y011684D01*
X023397Y011782D02*
X022611Y011782D01*
X022611Y011881D02*
X022640Y011881D01*
X022793Y011881D02*
X022893Y011881D01*
X022893Y011864D02*
X023030Y011864D01*
X023293Y012127D01*
X023293Y012264D01*
X022893Y012264D01*
X022893Y011864D01*
X022893Y011979D02*
X022793Y011979D01*
X022793Y012078D02*
X022893Y012078D01*
X022893Y012176D02*
X022793Y012176D01*
X022893Y012275D02*
X023397Y012275D01*
X023397Y012373D02*
X023293Y012373D01*
X023293Y012472D02*
X023397Y012472D01*
X023397Y012570D02*
X023223Y012570D01*
X022893Y012570D02*
X022793Y012570D01*
X022793Y012472D02*
X022893Y012472D01*
X022893Y012373D02*
X022793Y012373D01*
X022793Y012669D02*
X022893Y012669D01*
X023293Y012176D02*
X023397Y012176D01*
X023397Y012078D02*
X023244Y012078D01*
X023145Y011979D02*
X023397Y011979D01*
X023397Y011881D02*
X023047Y011881D01*
X022893Y011684D02*
X022793Y011684D01*
X022793Y011585D02*
X022893Y011585D01*
X022893Y011487D02*
X022793Y011487D01*
X022793Y011388D02*
X022893Y011388D01*
X023293Y011191D02*
X023397Y011191D01*
X023397Y011093D02*
X023259Y011093D01*
X023160Y010994D02*
X023397Y010994D01*
X023397Y010896D02*
X023062Y010896D01*
X023095Y010699D02*
X023397Y010699D01*
X023397Y010797D02*
X022611Y010797D01*
X022611Y010896D02*
X022625Y010896D01*
X022592Y010699D02*
X022582Y010699D01*
X023193Y010600D02*
X023397Y010600D01*
X023397Y010502D02*
X023292Y010502D01*
X023293Y010403D02*
X023397Y010403D01*
X023397Y009615D02*
X023178Y009615D01*
X023277Y009517D02*
X023397Y009517D01*
X023397Y009418D02*
X023293Y009418D01*
X023397Y009320D02*
X022893Y009320D01*
X022893Y009264D02*
X023293Y009264D01*
X023293Y009127D01*
X023030Y008864D01*
X022893Y008864D01*
X022893Y009264D01*
X022893Y009221D02*
X022793Y009221D01*
X022793Y009123D02*
X022893Y009123D01*
X022893Y009024D02*
X022793Y009024D01*
X022793Y008926D02*
X022893Y008926D01*
X022893Y008764D02*
X022893Y008364D01*
X022793Y008364D01*
X022793Y008764D01*
X022657Y008764D01*
X022393Y008500D01*
X022393Y008364D01*
X022793Y008364D01*
X022793Y008264D01*
X022393Y008264D01*
X022393Y008127D01*
X022657Y007864D01*
X022793Y007864D01*
X022793Y008264D01*
X022893Y008264D01*
X022893Y008364D01*
X023293Y008364D01*
X023293Y008500D01*
X023030Y008764D01*
X022893Y008764D01*
X022893Y008729D02*
X022793Y008729D01*
X022793Y008630D02*
X022893Y008630D01*
X022893Y008532D02*
X022793Y008532D01*
X022793Y008433D02*
X022893Y008433D01*
X022893Y008335D02*
X023397Y008335D01*
X023397Y008433D02*
X023293Y008433D01*
X023262Y008532D02*
X023397Y008532D01*
X023397Y008630D02*
X023163Y008630D01*
X023065Y008729D02*
X023397Y008729D01*
X023397Y008827D02*
X022078Y008827D01*
X022150Y008729D02*
X022622Y008729D01*
X022523Y008630D02*
X022248Y008630D01*
X022347Y008532D02*
X022425Y008532D01*
X022393Y008433D02*
X022353Y008433D01*
X022353Y008335D02*
X022793Y008335D01*
X022793Y008236D02*
X022893Y008236D01*
X022893Y008264D02*
X022893Y007864D01*
X023030Y007864D01*
X023293Y008127D01*
X023293Y008264D01*
X022893Y008264D01*
X022893Y008138D02*
X022793Y008138D01*
X022793Y008039D02*
X022893Y008039D01*
X022893Y007940D02*
X022793Y007940D01*
X022793Y007764D02*
X022657Y007764D01*
X022393Y007500D01*
X022393Y007364D01*
X022793Y007364D01*
X022793Y007764D01*
X022793Y007743D02*
X022893Y007743D01*
X022893Y007764D02*
X022893Y007364D01*
X022793Y007364D01*
X022793Y007264D01*
X022393Y007264D01*
X022393Y007127D01*
X022657Y006864D01*
X022793Y006864D01*
X022793Y007264D01*
X022893Y007264D01*
X022893Y007364D01*
X023293Y007364D01*
X023293Y007500D01*
X023030Y007764D01*
X022893Y007764D01*
X022893Y007645D02*
X022793Y007645D01*
X022793Y007546D02*
X022893Y007546D01*
X022893Y007448D02*
X022793Y007448D01*
X022793Y007349D02*
X022353Y007349D01*
X022353Y007251D02*
X022393Y007251D01*
X022393Y007152D02*
X022353Y007152D01*
X022305Y007054D02*
X022466Y007054D01*
X022565Y006955D02*
X022206Y006955D01*
X022108Y006857D02*
X023397Y006857D01*
X023397Y006955D02*
X023122Y006955D01*
X023030Y006864D02*
X023293Y007127D01*
X023293Y007264D01*
X022893Y007264D01*
X022893Y006864D01*
X023030Y006864D01*
X023030Y006764D02*
X022893Y006764D01*
X022893Y006364D01*
X022793Y006364D01*
X022793Y006764D01*
X022657Y006764D01*
X022393Y006500D01*
X022393Y006364D01*
X022793Y006364D01*
X022793Y006264D01*
X022393Y006264D01*
X022393Y006127D01*
X022657Y005864D01*
X022793Y005864D01*
X022793Y006264D01*
X022893Y006264D01*
X022893Y006364D01*
X023293Y006364D01*
X023293Y006500D01*
X023030Y006764D01*
X023035Y006758D02*
X023397Y006758D01*
X023397Y006660D02*
X023133Y006660D01*
X023232Y006561D02*
X023397Y006561D01*
X023397Y006463D02*
X023293Y006463D01*
X023293Y006364D02*
X023397Y006364D01*
X023397Y006266D02*
X022893Y006266D01*
X022893Y006264D02*
X023293Y006264D01*
X023293Y006127D01*
X023030Y005864D01*
X022893Y005864D01*
X022893Y006264D01*
X022893Y006167D02*
X022793Y006167D01*
X022793Y006069D02*
X022893Y006069D01*
X022893Y005970D02*
X022793Y005970D01*
X022793Y005872D02*
X022893Y005872D01*
X023038Y005872D02*
X023397Y005872D01*
X023397Y005970D02*
X023137Y005970D01*
X023235Y006069D02*
X023397Y006069D01*
X023397Y006167D02*
X023293Y006167D01*
X023397Y005773D02*
X018706Y005773D01*
X018608Y005675D02*
X023397Y005675D01*
X023397Y005576D02*
X018509Y005576D01*
X018411Y005478D02*
X023397Y005478D01*
X022893Y006364D02*
X022793Y006364D01*
X022793Y006266D02*
X022353Y006266D01*
X022353Y006364D02*
X022393Y006364D01*
X022393Y006463D02*
X022353Y006463D01*
X022317Y006561D02*
X022455Y006561D01*
X022553Y006660D02*
X022218Y006660D01*
X022120Y006758D02*
X022652Y006758D01*
X022793Y006758D02*
X022893Y006758D01*
X022893Y006660D02*
X022793Y006660D01*
X022793Y006561D02*
X022893Y006561D01*
X022893Y006463D02*
X022793Y006463D01*
X022793Y006955D02*
X022893Y006955D01*
X022893Y007054D02*
X022793Y007054D01*
X022793Y007152D02*
X022893Y007152D01*
X022893Y007251D02*
X022793Y007251D01*
X022893Y007349D02*
X023397Y007349D01*
X023397Y007251D02*
X023293Y007251D01*
X023293Y007152D02*
X023397Y007152D01*
X023397Y007054D02*
X023220Y007054D01*
X023293Y007448D02*
X023397Y007448D01*
X023397Y007546D02*
X023247Y007546D01*
X023148Y007645D02*
X023397Y007645D01*
X023397Y007743D02*
X023050Y007743D01*
X023107Y007940D02*
X023397Y007940D01*
X023397Y007842D02*
X022093Y007842D01*
X022135Y007743D02*
X022637Y007743D01*
X022538Y007645D02*
X022233Y007645D01*
X022332Y007546D02*
X022440Y007546D01*
X022393Y007448D02*
X022353Y007448D01*
X022191Y007940D02*
X022580Y007940D01*
X022481Y008039D02*
X022290Y008039D01*
X022353Y008138D02*
X022393Y008138D01*
X022393Y008236D02*
X022353Y008236D01*
X022176Y008926D02*
X022595Y008926D01*
X022496Y009024D02*
X022275Y009024D01*
X022353Y009123D02*
X022398Y009123D01*
X022393Y009221D02*
X022353Y009221D01*
X022353Y009320D02*
X022793Y009320D01*
X022793Y009418D02*
X022893Y009418D01*
X022893Y009517D02*
X022793Y009517D01*
X022793Y009615D02*
X022893Y009615D01*
X022893Y009714D02*
X022793Y009714D01*
X022607Y009714D02*
X022165Y009714D01*
X022263Y009615D02*
X022508Y009615D01*
X022410Y009517D02*
X022353Y009517D01*
X022353Y009418D02*
X022393Y009418D01*
X023092Y008926D02*
X023397Y008926D01*
X023397Y009024D02*
X023190Y009024D01*
X023289Y009123D02*
X023397Y009123D01*
X023397Y009221D02*
X023293Y009221D01*
X023293Y008236D02*
X023397Y008236D01*
X023397Y008138D02*
X023293Y008138D01*
X023205Y008039D02*
X023397Y008039D01*
X022393Y006167D02*
X022353Y006167D01*
X022320Y006069D02*
X022451Y006069D01*
X022550Y005970D02*
X022221Y005970D01*
X022123Y005872D02*
X022648Y005872D01*
X022744Y004394D02*
X023397Y004394D01*
X023397Y004296D02*
X022943Y004296D01*
X023111Y004197D02*
X023397Y004197D01*
X023397Y004099D02*
X023210Y004099D01*
X023308Y004000D02*
X023397Y004000D01*
X023387Y003902D02*
X023397Y003902D01*
X021564Y005872D02*
X018805Y005872D01*
X018903Y005970D02*
X021465Y005970D01*
X021367Y006069D02*
X019002Y006069D01*
X019100Y006167D02*
X021333Y006167D01*
X021333Y006266D02*
X019199Y006266D01*
X019297Y006364D02*
X021333Y006364D01*
X021333Y006463D02*
X019396Y006463D01*
X019494Y006561D02*
X021370Y006561D01*
X021468Y006660D02*
X019593Y006660D01*
X019691Y006758D02*
X021567Y006758D01*
X021579Y006857D02*
X019790Y006857D01*
X019888Y006955D02*
X021480Y006955D01*
X021382Y007054D02*
X019987Y007054D01*
X020085Y007152D02*
X021333Y007152D01*
X021333Y007251D02*
X020184Y007251D01*
X020252Y007349D02*
X021333Y007349D01*
X021333Y007448D02*
X020270Y007448D01*
X020276Y007546D02*
X021355Y007546D01*
X021453Y007645D02*
X020283Y007645D01*
X020289Y007743D02*
X021552Y007743D01*
X021594Y007842D02*
X020296Y007842D01*
X020302Y007940D02*
X021495Y007940D01*
X021397Y008039D02*
X020309Y008039D01*
X020316Y008138D02*
X021333Y008138D01*
X021333Y008236D02*
X020322Y008236D01*
X020329Y008335D02*
X021333Y008335D01*
X021333Y008433D02*
X020335Y008433D01*
X020342Y008532D02*
X021340Y008532D01*
X021438Y008630D02*
X020348Y008630D01*
X020426Y008729D02*
X021537Y008729D01*
X021609Y008827D02*
X020466Y008827D01*
X020475Y008926D02*
X021510Y008926D01*
X021412Y009024D02*
X020462Y009024D01*
X020421Y009123D02*
X021333Y009123D01*
X021333Y009221D02*
X020367Y009221D01*
X020367Y009320D02*
X021333Y009320D01*
X021308Y009418D02*
X020367Y009418D01*
X020367Y009517D02*
X021210Y009517D01*
X021111Y009615D02*
X020367Y009615D01*
X020367Y009714D02*
X021013Y009714D01*
X020914Y009812D02*
X020367Y009812D01*
X020367Y009911D02*
X020816Y009911D01*
X020717Y010009D02*
X020367Y010009D01*
X020367Y010108D02*
X020619Y010108D01*
X020553Y010206D02*
X020367Y010206D01*
X020367Y010305D02*
X020536Y010305D01*
X020536Y010403D02*
X020367Y010403D01*
X020367Y010502D02*
X020536Y010502D01*
X020536Y010600D02*
X020345Y010600D01*
X020271Y010699D02*
X020536Y010699D01*
X020536Y010797D02*
X020172Y010797D01*
X020074Y010896D02*
X020520Y010896D01*
X020421Y010994D02*
X019975Y010994D01*
X019877Y011093D02*
X020323Y011093D01*
X020224Y011191D02*
X019786Y011191D01*
X019772Y011290D02*
X020126Y011290D01*
X020027Y011388D02*
X019731Y011388D01*
X019635Y011487D02*
X019929Y011487D01*
X019830Y011585D02*
X019384Y011585D01*
X019286Y011684D02*
X019732Y011684D01*
X019633Y011782D02*
X019187Y011782D01*
X019713Y012069D02*
X011583Y012069D01*
X011485Y012168D01*
X007706Y012168D01*
X007509Y012365D01*
X008099Y012365D02*
X011623Y012365D01*
X011721Y012266D01*
X020107Y012266D01*
X020599Y011774D01*
X020694Y012463D02*
X011879Y012463D01*
X011780Y012562D01*
X008296Y012562D01*
X006721Y014136D01*
X006524Y014136D01*
X006131Y014530D01*
X005897Y014245D02*
X004029Y014245D01*
X004029Y014343D02*
X005810Y014343D01*
X005770Y014442D02*
X004029Y014442D01*
X004029Y014540D02*
X005763Y014540D01*
X005778Y014639D02*
X004029Y014639D01*
X004029Y014737D02*
X005819Y014737D01*
X005916Y014836D02*
X004029Y014836D01*
X004029Y014934D02*
X006409Y014934D01*
X006623Y014629D02*
X008493Y012758D01*
X011938Y012758D01*
X012036Y012660D01*
X021505Y012660D01*
X021839Y012325D01*
X021839Y012318D01*
X021843Y012314D01*
X021643Y012798D02*
X022115Y012798D01*
X021643Y012798D02*
X021583Y012857D01*
X012233Y012857D01*
X012036Y013054D01*
X012036Y013743D01*
X012430Y014136D01*
X012062Y014146D02*
X007473Y014146D01*
X007375Y014245D02*
X012077Y014245D01*
X012118Y014343D02*
X007276Y014343D01*
X007178Y014442D02*
X012215Y014442D01*
X011973Y014048D02*
X007572Y014048D01*
X007670Y013949D02*
X011875Y013949D01*
X011799Y013851D02*
X007769Y013851D01*
X007867Y013752D02*
X011776Y013752D01*
X011776Y013654D02*
X007966Y013654D01*
X008064Y013555D02*
X011776Y013555D01*
X011776Y013457D02*
X008163Y013457D01*
X008261Y013358D02*
X011776Y013358D01*
X011776Y013260D02*
X008360Y013260D01*
X008458Y013161D02*
X011776Y013161D01*
X011776Y013063D02*
X008557Y013063D01*
X008099Y012365D02*
X006918Y013546D01*
X006524Y013546D01*
X006032Y013743D02*
X006032Y013152D01*
X006328Y012857D01*
X006328Y012463D01*
X006426Y011873D02*
X005146Y011873D01*
X004851Y011577D01*
X004162Y011577D01*
X003178Y012562D01*
X003178Y021912D01*
X005442Y024176D01*
X007056Y024176D01*
X007076Y024195D01*
X007443Y024193D02*
X009387Y024193D01*
X009291Y024290D02*
X012099Y021482D01*
X012062Y021395D01*
X012062Y021248D01*
X012118Y021113D01*
X012222Y021010D01*
X012357Y020954D01*
X012503Y020954D01*
X012638Y021010D01*
X012741Y021113D01*
X012797Y021248D01*
X012797Y021395D01*
X012741Y021530D01*
X012682Y021589D01*
X012650Y021666D01*
X012577Y021739D01*
X009917Y024399D01*
X009944Y024399D01*
X010079Y024455D01*
X010121Y024496D01*
X010842Y024496D01*
X015310Y020029D01*
X015310Y019721D01*
X012935Y019721D01*
X011500Y021157D01*
X011401Y021198D01*
X010121Y021198D01*
X010079Y021239D01*
X009944Y021295D01*
X009798Y021295D01*
X009663Y021239D01*
X009559Y021136D01*
X009503Y021001D01*
X009503Y020855D01*
X009559Y020720D01*
X009663Y020616D01*
X009798Y020560D01*
X009944Y020560D01*
X010079Y020616D01*
X010121Y020658D01*
X010331Y020658D01*
X010236Y020563D01*
X010165Y020390D01*
X010165Y020203D01*
X010236Y020030D01*
X010368Y019898D01*
X010541Y019827D01*
X010728Y019827D01*
X010901Y019898D01*
X011033Y020030D01*
X011105Y020203D01*
X011105Y020390D01*
X011033Y020563D01*
X010938Y020658D01*
X011235Y020658D01*
X012172Y019721D01*
X005849Y019721D01*
X005416Y020155D01*
X010185Y020155D01*
X010165Y020253D02*
X005399Y020253D01*
X005416Y020213D02*
X005360Y020349D01*
X005256Y020452D01*
X005121Y020508D01*
X004975Y020508D01*
X004846Y020454D01*
X004846Y021485D01*
X004867Y021507D01*
X004923Y021642D01*
X004923Y021788D01*
X004867Y021923D01*
X004764Y022027D01*
X004629Y022083D01*
X004483Y022083D01*
X004348Y022027D01*
X004244Y021923D01*
X004188Y021788D01*
X004188Y021642D01*
X004244Y021507D01*
X004266Y021485D01*
X004266Y019571D01*
X004286Y019523D01*
X004151Y019468D01*
X004048Y019364D01*
X003992Y019229D01*
X003992Y019083D01*
X004033Y018983D01*
X003776Y018983D01*
X003680Y018943D01*
X003607Y018870D01*
X003438Y018701D01*
X003438Y021804D01*
X005549Y023916D01*
X006836Y023916D01*
X006867Y023884D01*
X007002Y023828D01*
X007149Y023828D01*
X007284Y023884D01*
X007387Y023987D01*
X007443Y024122D01*
X007443Y024269D01*
X007434Y024290D01*
X009291Y024290D01*
X009486Y024095D02*
X007432Y024095D01*
X007391Y023996D02*
X009584Y023996D01*
X009683Y023898D02*
X007297Y023898D01*
X006854Y023898D02*
X005531Y023898D01*
X005433Y023799D02*
X009781Y023799D01*
X009880Y023701D02*
X005334Y023701D01*
X005236Y023602D02*
X009978Y023602D01*
X010077Y023504D02*
X005137Y023504D01*
X005039Y023405D02*
X010175Y023405D01*
X010274Y023307D02*
X004940Y023307D01*
X004842Y023208D02*
X010372Y023208D01*
X010471Y023110D02*
X004743Y023110D01*
X004645Y023011D02*
X010569Y023011D01*
X010668Y022913D02*
X004546Y022913D01*
X004448Y022814D02*
X010766Y022814D01*
X010865Y022716D02*
X004349Y022716D01*
X004251Y022617D02*
X010421Y022617D01*
X010368Y022595D02*
X010236Y022463D01*
X010165Y022290D01*
X010165Y022103D01*
X010236Y021930D01*
X010368Y021798D01*
X010541Y021727D01*
X010728Y021727D01*
X010901Y021798D01*
X011033Y021930D01*
X011105Y022103D01*
X011105Y022290D01*
X011033Y022463D01*
X010901Y022595D01*
X010728Y022667D01*
X010541Y022667D01*
X010368Y022595D01*
X010292Y022519D02*
X004152Y022519D01*
X004054Y022420D02*
X010218Y022420D01*
X010178Y022322D02*
X003955Y022322D01*
X003857Y022223D02*
X010165Y022223D01*
X010165Y022125D02*
X003758Y022125D01*
X003660Y022026D02*
X004347Y022026D01*
X004249Y021928D02*
X003561Y021928D01*
X003463Y021829D02*
X004205Y021829D01*
X004188Y021731D02*
X003438Y021731D01*
X003438Y021632D02*
X004193Y021632D01*
X004233Y021534D02*
X003438Y021534D01*
X003438Y021435D02*
X004266Y021435D01*
X004266Y021337D02*
X003438Y021337D01*
X003438Y021238D02*
X004266Y021238D01*
X004266Y021140D02*
X003438Y021140D01*
X003438Y021041D02*
X004266Y021041D01*
X004266Y020943D02*
X003438Y020943D01*
X003438Y020844D02*
X004266Y020844D01*
X004266Y020746D02*
X003438Y020746D01*
X003438Y020647D02*
X004266Y020647D01*
X004266Y020549D02*
X003438Y020549D01*
X003438Y020450D02*
X004266Y020450D01*
X004266Y020352D02*
X003438Y020352D01*
X003438Y020253D02*
X004266Y020253D01*
X004266Y020155D02*
X003438Y020155D01*
X003438Y020056D02*
X004266Y020056D01*
X004266Y019958D02*
X003438Y019958D01*
X003438Y019859D02*
X004266Y019859D01*
X004266Y019761D02*
X003438Y019761D01*
X003438Y019662D02*
X004266Y019662D01*
X004269Y019564D02*
X003438Y019564D01*
X003438Y019465D02*
X004148Y019465D01*
X004050Y019367D02*
X003438Y019367D01*
X003438Y019268D02*
X004008Y019268D01*
X003992Y019170D02*
X003438Y019170D01*
X003438Y019071D02*
X003997Y019071D01*
X003751Y018973D02*
X003438Y018973D01*
X003438Y018874D02*
X003611Y018874D01*
X003512Y018776D02*
X003438Y018776D01*
X003828Y018723D02*
X003375Y018270D01*
X003375Y012955D01*
X004064Y012266D01*
X004083Y013251D02*
X004083Y013349D01*
X003572Y013861D01*
X003572Y015711D01*
X004162Y016302D01*
X012430Y016302D01*
X012666Y016066D01*
X012666Y015318D01*
X012299Y015328D02*
X004048Y015328D01*
X004029Y015230D02*
X012305Y015230D01*
X012346Y015131D02*
X004029Y015131D01*
X004029Y015033D02*
X012431Y015033D01*
X012314Y015427D02*
X004147Y015427D01*
X004245Y015525D02*
X012354Y015525D01*
X012077Y015624D02*
X004344Y015624D01*
X004442Y015722D02*
X011991Y015722D01*
X012213Y016006D02*
X012312Y015908D01*
X012213Y016006D02*
X004359Y016006D01*
X003769Y015416D01*
X003769Y014136D01*
X004556Y013349D01*
X004556Y013152D01*
X005383Y012325D01*
X005133Y013063D02*
X005013Y013063D01*
X004915Y013161D02*
X005174Y013161D01*
X005273Y013260D02*
X004816Y013260D01*
X004816Y013358D02*
X005465Y013358D01*
X005678Y013358D02*
X005772Y013358D01*
X005772Y013457D02*
X004793Y013457D01*
X004718Y013555D02*
X005712Y013555D01*
X005671Y013654D02*
X004619Y013654D01*
X004521Y013752D02*
X005665Y013752D01*
X005679Y013851D02*
X004422Y013851D01*
X004324Y013949D02*
X005720Y013949D01*
X005817Y014048D02*
X004225Y014048D01*
X004127Y014146D02*
X006147Y014146D01*
X006976Y014737D02*
X020438Y014737D01*
X020438Y014639D02*
X006990Y014639D01*
X007079Y014540D02*
X020438Y014540D01*
X020438Y014442D02*
X012645Y014442D01*
X012742Y014343D02*
X020438Y014343D01*
X020438Y014245D02*
X012783Y014245D01*
X012797Y014146D02*
X020340Y014146D01*
X020241Y014048D02*
X012791Y014048D01*
X012750Y013949D02*
X020143Y013949D01*
X020044Y013851D02*
X017566Y013851D01*
X019713Y012069D02*
X020796Y010987D01*
X020796Y010298D01*
X021780Y009314D01*
X021843Y009314D01*
X021843Y011314D02*
X020694Y012463D01*
X020698Y012463D01*
X021091Y013152D02*
X021288Y013349D01*
X021288Y014038D01*
X021583Y014333D01*
X021824Y014333D01*
X021843Y014314D01*
X021447Y014639D02*
X020958Y014639D01*
X020958Y014737D02*
X021546Y014737D01*
X021600Y014836D02*
X020958Y014836D01*
X020958Y014934D02*
X021502Y014934D01*
X021403Y015033D02*
X020958Y015033D01*
X020958Y015131D02*
X021333Y015131D01*
X021333Y015230D02*
X020958Y015230D01*
X020958Y015328D02*
X021333Y015328D01*
X021333Y015427D02*
X020958Y015427D01*
X020958Y015525D02*
X021334Y015525D01*
X021432Y015624D02*
X020958Y015624D01*
X020958Y015722D02*
X021531Y015722D01*
X021629Y015821D02*
X020958Y015821D01*
X020438Y015821D02*
X012926Y015821D01*
X012926Y015919D02*
X020438Y015919D01*
X020438Y016018D02*
X012926Y016018D01*
X012926Y016116D02*
X020438Y016116D01*
X020438Y016215D02*
X012885Y016215D01*
X012786Y016313D02*
X020438Y016313D01*
X020438Y016412D02*
X012688Y016412D01*
X012589Y016510D02*
X020438Y016510D01*
X020438Y016609D02*
X008236Y016609D01*
X008250Y016707D02*
X020438Y016707D01*
X020438Y016806D02*
X008243Y016806D01*
X008611Y017089D02*
X005737Y017089D01*
X004457Y018369D01*
X004825Y018369D02*
X004825Y018442D01*
X004816Y018463D01*
X009898Y018463D01*
X009933Y018377D01*
X010037Y018274D01*
X010172Y018218D01*
X010318Y018218D01*
X010453Y018274D01*
X010556Y018377D01*
X010612Y018512D01*
X010612Y018658D01*
X010595Y018699D01*
X011354Y018699D01*
X011354Y018650D01*
X011410Y018515D01*
X011513Y018411D01*
X011648Y018356D01*
X011794Y018356D01*
X011929Y018411D01*
X012033Y018515D01*
X012073Y018611D01*
X012140Y018544D01*
X012140Y018108D01*
X008919Y018108D01*
X008898Y018129D01*
X008763Y018185D01*
X008617Y018185D01*
X008482Y018129D01*
X008378Y018026D01*
X008322Y017891D01*
X008322Y017744D01*
X008378Y017609D01*
X008465Y017522D01*
X008418Y017474D01*
X008366Y017349D01*
X005845Y017349D01*
X004825Y018369D01*
X004825Y018382D02*
X009931Y018382D01*
X010027Y018283D02*
X004911Y018283D01*
X005009Y018185D02*
X008616Y018185D01*
X008764Y018185D02*
X012140Y018185D01*
X012140Y018283D02*
X010462Y018283D01*
X010558Y018382D02*
X011585Y018382D01*
X011445Y018480D02*
X010599Y018480D01*
X010612Y018579D02*
X011383Y018579D01*
X011354Y018677D02*
X010605Y018677D01*
X010245Y018585D02*
X010107Y018723D01*
X003828Y018723D01*
X003965Y018270D02*
X003965Y018172D01*
X005422Y016715D01*
X007883Y016715D01*
X008385Y017397D02*
X005797Y017397D01*
X005699Y017495D02*
X008438Y017495D01*
X008394Y017594D02*
X005600Y017594D01*
X005502Y017692D02*
X008344Y017692D01*
X008322Y017791D02*
X005403Y017791D01*
X005305Y017889D02*
X008322Y017889D01*
X008362Y017988D02*
X005206Y017988D01*
X005108Y018086D02*
X008439Y018086D01*
X009020Y017495D02*
X012248Y017495D01*
X012612Y017495D02*
X020438Y017495D01*
X020438Y017397D02*
X009073Y017397D01*
X009097Y017298D02*
X020438Y017298D01*
X020438Y017200D02*
X009097Y017200D01*
X009058Y017101D02*
X020438Y017101D01*
X020438Y017003D02*
X008985Y017003D01*
X008815Y016904D02*
X020438Y016904D01*
X020438Y017594D02*
X012726Y017594D01*
X012776Y017692D02*
X020438Y017692D01*
X020438Y017791D02*
X012797Y017791D01*
X012797Y017889D02*
X020438Y017889D01*
X020438Y017988D02*
X012757Y017988D01*
X012720Y018086D02*
X020438Y018086D01*
X020438Y018185D02*
X012720Y018185D01*
X012720Y018283D02*
X020438Y018283D01*
X020438Y018382D02*
X012720Y018382D01*
X012720Y018480D02*
X020459Y018480D01*
X020532Y018579D02*
X012720Y018579D01*
X012720Y018677D02*
X020630Y018677D01*
X020729Y018776D02*
X012698Y018776D01*
X012630Y018874D02*
X020827Y018874D01*
X020926Y018973D02*
X012531Y018973D01*
X012594Y018910D02*
X012594Y018910D01*
X012433Y019071D02*
X015342Y019071D01*
X015258Y019170D02*
X012334Y019170D01*
X012105Y018579D02*
X012059Y018579D01*
X011998Y018480D02*
X012140Y018480D01*
X012140Y018382D02*
X011857Y018382D01*
X011721Y018723D02*
X011485Y018959D01*
X004556Y018959D01*
X004359Y019156D01*
X005416Y020155D02*
X005416Y020213D01*
X005357Y020352D02*
X010165Y020352D01*
X010189Y020450D02*
X005258Y020450D01*
X004846Y020549D02*
X010230Y020549D01*
X010320Y020647D02*
X010110Y020647D01*
X009871Y020239D02*
X009871Y020140D01*
X010226Y020056D02*
X005514Y020056D01*
X005613Y019958D02*
X010309Y019958D01*
X010463Y019859D02*
X005711Y019859D01*
X005810Y019761D02*
X012133Y019761D01*
X012034Y019859D02*
X010806Y019859D01*
X010960Y019958D02*
X011936Y019958D01*
X011837Y020056D02*
X011044Y020056D01*
X011085Y020155D02*
X011739Y020155D01*
X011640Y020253D02*
X011105Y020253D01*
X011105Y020352D02*
X011542Y020352D01*
X011443Y020450D02*
X011080Y020450D01*
X011039Y020549D02*
X011345Y020549D01*
X011246Y020647D02*
X010949Y020647D01*
X011517Y021140D02*
X012108Y021140D01*
X012067Y021238D02*
X010080Y021238D01*
X009661Y021238D02*
X004846Y021238D01*
X004846Y021140D02*
X009563Y021140D01*
X009520Y021041D02*
X004846Y021041D01*
X004846Y020943D02*
X009503Y020943D01*
X009508Y020844D02*
X004846Y020844D01*
X004846Y020746D02*
X009549Y020746D01*
X009632Y020647D02*
X004846Y020647D01*
X004846Y021337D02*
X012062Y021337D01*
X012079Y021435D02*
X004846Y021435D01*
X004878Y021534D02*
X012047Y021534D01*
X011948Y021632D02*
X004919Y021632D01*
X004923Y021731D02*
X010532Y021731D01*
X010738Y021731D02*
X011850Y021731D01*
X011751Y021829D02*
X010932Y021829D01*
X011030Y021928D02*
X011653Y021928D01*
X011554Y022026D02*
X011073Y022026D01*
X011105Y022125D02*
X011456Y022125D01*
X011357Y022223D02*
X011105Y022223D01*
X011092Y022322D02*
X011259Y022322D01*
X011160Y022420D02*
X011051Y022420D01*
X011062Y022519D02*
X010977Y022519D01*
X010963Y022617D02*
X010848Y022617D01*
X011305Y023011D02*
X012327Y023011D01*
X012425Y022913D02*
X011403Y022913D01*
X011502Y022814D02*
X012524Y022814D01*
X012622Y022716D02*
X011600Y022716D01*
X011699Y022617D02*
X012721Y022617D01*
X012819Y022519D02*
X011797Y022519D01*
X011896Y022420D02*
X012918Y022420D01*
X013016Y022322D02*
X011994Y022322D01*
X012093Y022223D02*
X013115Y022223D01*
X013214Y022125D02*
X012191Y022125D01*
X012290Y022026D02*
X013312Y022026D01*
X013411Y021928D02*
X012388Y021928D01*
X012487Y021829D02*
X013509Y021829D01*
X013608Y021731D02*
X012585Y021731D01*
X012577Y021739D02*
X012577Y021739D01*
X012664Y021632D02*
X013706Y021632D01*
X013805Y021534D02*
X012738Y021534D01*
X012781Y021435D02*
X013903Y021435D01*
X014002Y021337D02*
X012797Y021337D01*
X012793Y021238D02*
X014100Y021238D01*
X014199Y021140D02*
X012752Y021140D01*
X012669Y021041D02*
X014297Y021041D01*
X014396Y020943D02*
X011714Y020943D01*
X011616Y021041D02*
X012191Y021041D01*
X012430Y021321D02*
X012430Y021518D01*
X009398Y024550D01*
X004280Y024550D01*
X003939Y024686D02*
X002847Y024686D01*
X002847Y024784D02*
X003995Y024784D01*
X004123Y024883D02*
X002847Y024883D01*
X002847Y024981D02*
X004156Y024981D01*
X004058Y025080D02*
X002847Y025080D01*
X002847Y025178D02*
X004002Y025178D01*
X003991Y025277D02*
X002847Y025277D01*
X002847Y025375D02*
X003991Y025375D01*
X003991Y025474D02*
X002847Y025474D01*
X002847Y025572D02*
X003991Y025572D01*
X003991Y025671D02*
X002847Y025671D01*
X002847Y025769D02*
X003991Y025769D01*
X003991Y025868D02*
X002847Y025868D01*
X002847Y025966D02*
X003991Y025966D01*
X003991Y026065D02*
X002847Y026065D01*
X002847Y026163D02*
X003991Y026163D01*
X003937Y026262D02*
X002847Y026262D01*
X002847Y026360D02*
X003896Y026360D01*
X003893Y026459D02*
X002847Y026459D01*
X002847Y026557D02*
X003912Y026557D01*
X003957Y026656D02*
X002876Y026656D01*
X002974Y026754D02*
X004060Y026754D01*
X004462Y026754D02*
X007416Y026754D01*
X007476Y026853D02*
X003073Y026853D01*
X003171Y026951D02*
X007502Y026951D01*
X007560Y027050D02*
X003270Y027050D01*
X003368Y027148D02*
X007691Y027148D01*
X007843Y026814D02*
X006387Y025357D01*
X005934Y025357D01*
X005566Y025375D02*
X004531Y025375D01*
X004531Y025474D02*
X005584Y025474D01*
X005629Y025572D02*
X004531Y025572D01*
X004531Y025671D02*
X005731Y025671D01*
X006137Y025671D02*
X006333Y025671D01*
X006431Y025769D02*
X004531Y025769D01*
X004531Y025868D02*
X006530Y025868D01*
X006628Y025966D02*
X004531Y025966D01*
X004531Y026065D02*
X006727Y026065D01*
X006825Y026163D02*
X004531Y026163D01*
X004585Y026262D02*
X006924Y026262D01*
X007022Y026360D02*
X004625Y026360D01*
X004628Y026459D02*
X007121Y026459D01*
X007219Y026557D02*
X004610Y026557D01*
X004564Y026656D02*
X007318Y026656D01*
X007659Y026262D02*
X017358Y026262D01*
X017259Y026360D02*
X007757Y026360D01*
X007946Y026459D02*
X017161Y026459D01*
X017062Y026557D02*
X008106Y026557D01*
X008176Y026656D02*
X016964Y026656D01*
X016865Y026754D02*
X008211Y026754D01*
X008211Y026853D02*
X016767Y026853D01*
X016668Y026951D02*
X008184Y026951D01*
X008127Y027050D02*
X016570Y027050D01*
X016471Y027148D02*
X007996Y027148D01*
X007950Y027444D02*
X016176Y027444D01*
X016077Y027542D02*
X008030Y027542D01*
X008071Y027641D02*
X015979Y027641D01*
X015880Y027739D02*
X008073Y027739D01*
X008054Y027838D02*
X015782Y027838D01*
X015683Y027936D02*
X008008Y027936D01*
X007706Y027719D02*
X007312Y028113D01*
X007312Y028900D01*
X007679Y028921D02*
X023397Y028921D01*
X023397Y028823D02*
X007677Y028823D01*
X007637Y028724D02*
X023397Y028724D01*
X023397Y028626D02*
X015927Y028626D01*
X016026Y028527D02*
X023397Y028527D01*
X023397Y028429D02*
X016124Y028429D01*
X016223Y028330D02*
X023397Y028330D01*
X023397Y028232D02*
X016321Y028232D01*
X016420Y028133D02*
X023397Y028133D01*
X023397Y028035D02*
X016518Y028035D01*
X016617Y027936D02*
X023397Y027936D01*
X023397Y027838D02*
X016715Y027838D01*
X016814Y027739D02*
X023397Y027739D01*
X023397Y027641D02*
X016912Y027641D01*
X017011Y027542D02*
X023397Y027542D01*
X023397Y027444D02*
X017109Y027444D01*
X017208Y027345D02*
X023397Y027345D01*
X023397Y027247D02*
X017306Y027247D01*
X017405Y027148D02*
X023397Y027148D01*
X023397Y027050D02*
X017503Y027050D01*
X017602Y026951D02*
X023397Y026951D01*
X023397Y026853D02*
X017700Y026853D01*
X017799Y026754D02*
X023397Y026754D01*
X023397Y026656D02*
X017897Y026656D01*
X017996Y026557D02*
X023397Y026557D01*
X023397Y026459D02*
X018094Y026459D01*
X018193Y026360D02*
X023397Y026360D01*
X023397Y026262D02*
X018291Y026262D01*
X018390Y026163D02*
X023397Y026163D01*
X023397Y026065D02*
X018488Y026065D01*
X018587Y025966D02*
X023397Y025966D01*
X023397Y025868D02*
X018685Y025868D01*
X018784Y025769D02*
X023397Y025769D01*
X023397Y025671D02*
X018882Y025671D01*
X018981Y025572D02*
X023397Y025572D01*
X023397Y025474D02*
X019079Y025474D01*
X019178Y025375D02*
X023397Y025375D01*
X023397Y025277D02*
X019276Y025277D01*
X019375Y025178D02*
X023397Y025178D01*
X023397Y025080D02*
X019473Y025080D01*
X019572Y024981D02*
X023397Y024981D01*
X023397Y024883D02*
X019629Y024883D01*
X019650Y024784D02*
X023397Y024784D01*
X023397Y024686D02*
X019650Y024686D01*
X019650Y024587D02*
X023397Y024587D01*
X023397Y024489D02*
X019650Y024489D01*
X019650Y024390D02*
X023397Y024390D01*
X023397Y024292D02*
X019650Y024292D01*
X019650Y024193D02*
X023397Y024193D01*
X023397Y024095D02*
X019650Y024095D01*
X019650Y023996D02*
X023397Y023996D01*
X023397Y023898D02*
X019650Y023898D01*
X019650Y023799D02*
X023397Y023799D01*
X023397Y023701D02*
X019650Y023701D01*
X019650Y023602D02*
X023397Y023602D01*
X023397Y023504D02*
X019650Y023504D01*
X019650Y023405D02*
X023397Y023405D01*
X023397Y023307D02*
X019650Y023307D01*
X019650Y023208D02*
X023397Y023208D01*
X023397Y023110D02*
X019650Y023110D01*
X019650Y023011D02*
X023397Y023011D01*
X023397Y022913D02*
X019650Y022913D01*
X019650Y022814D02*
X023397Y022814D01*
X023397Y022716D02*
X019650Y022716D01*
X019650Y022617D02*
X023397Y022617D01*
X023397Y022519D02*
X019650Y022519D01*
X019652Y022420D02*
X023397Y022420D01*
X023397Y022322D02*
X019750Y022322D01*
X019801Y022223D02*
X023397Y022223D01*
X023397Y022125D02*
X019842Y022125D01*
X019845Y022026D02*
X023397Y022026D01*
X023397Y021928D02*
X019845Y021928D01*
X019845Y021829D02*
X023397Y021829D01*
X023397Y021731D02*
X019845Y021731D01*
X019845Y021632D02*
X023397Y021632D01*
X023397Y021534D02*
X019845Y021534D01*
X019845Y021435D02*
X023397Y021435D01*
X023397Y021337D02*
X019845Y021337D01*
X019814Y021238D02*
X023397Y021238D01*
X023397Y021140D02*
X019773Y021140D01*
X019683Y021041D02*
X023397Y021041D01*
X023397Y020943D02*
X019527Y020943D01*
X019144Y020943D02*
X018527Y020943D01*
X018683Y021041D02*
X018988Y021041D01*
X018898Y021140D02*
X018773Y021140D01*
X018814Y021238D02*
X018857Y021238D01*
X018870Y022223D02*
X018801Y022223D01*
X018750Y022322D02*
X018921Y022322D01*
X018990Y022420D02*
X018652Y022420D01*
X018453Y022519D02*
X018990Y022519D01*
X018990Y022617D02*
X013485Y022617D01*
X013583Y022519D02*
X017218Y022519D01*
X017019Y022420D02*
X013682Y022420D01*
X013780Y022322D02*
X016921Y022322D01*
X016870Y022223D02*
X013879Y022223D01*
X013977Y022125D02*
X016829Y022125D01*
X016825Y022026D02*
X014076Y022026D01*
X014174Y021928D02*
X016825Y021928D01*
X016825Y021829D02*
X014273Y021829D01*
X014371Y021731D02*
X016825Y021731D01*
X016825Y021632D02*
X014470Y021632D01*
X014568Y021534D02*
X016825Y021534D01*
X016825Y021435D02*
X014667Y021435D01*
X014765Y021337D02*
X016825Y021337D01*
X016857Y021238D02*
X014864Y021238D01*
X014962Y021140D02*
X016354Y021140D01*
X016256Y021041D02*
X015061Y021041D01*
X015159Y020943D02*
X016213Y020943D01*
X016196Y020844D02*
X015258Y020844D01*
X015356Y020746D02*
X016201Y020746D01*
X016242Y020647D02*
X015455Y020647D01*
X015553Y020549D02*
X016304Y020549D01*
X016304Y020450D02*
X015652Y020450D01*
X015750Y020352D02*
X016210Y020352D01*
X016112Y020253D02*
X015825Y020253D01*
X015850Y020155D02*
X016013Y020155D01*
X015915Y020056D02*
X015850Y020056D01*
X015310Y019958D02*
X012699Y019958D01*
X012601Y020056D02*
X015282Y020056D01*
X015184Y020155D02*
X012502Y020155D01*
X012404Y020253D02*
X015085Y020253D01*
X014987Y020352D02*
X012305Y020352D01*
X012207Y020450D02*
X014888Y020450D01*
X014790Y020549D02*
X012108Y020549D01*
X012010Y020647D02*
X014691Y020647D01*
X014593Y020746D02*
X011911Y020746D01*
X011813Y020844D02*
X014494Y020844D01*
X015310Y019859D02*
X012798Y019859D01*
X012896Y019761D02*
X015310Y019761D01*
X015580Y019353D02*
X016564Y020337D01*
X016564Y020829D01*
X016773Y021140D02*
X016898Y021140D01*
X016872Y021041D02*
X016988Y021041D01*
X016915Y020943D02*
X017144Y020943D01*
X016931Y020844D02*
X023397Y020844D01*
X023397Y020746D02*
X016927Y020746D01*
X016886Y020647D02*
X023397Y020647D01*
X023397Y020549D02*
X016824Y020549D01*
X016824Y020450D02*
X023397Y020450D01*
X023397Y020352D02*
X016824Y020352D01*
X016810Y020253D02*
X023397Y020253D01*
X023397Y020155D02*
X016749Y020155D01*
X016650Y020056D02*
X023397Y020056D01*
X023397Y019958D02*
X022373Y019958D01*
X022513Y019859D02*
X023397Y019859D01*
X023397Y019761D02*
X022606Y019761D01*
X022647Y019662D02*
X023397Y019662D01*
X023397Y019564D02*
X022687Y019564D01*
X022687Y019465D02*
X023397Y019465D01*
X023397Y019367D02*
X022687Y019367D01*
X022658Y019268D02*
X023397Y019268D01*
X023397Y019170D02*
X022617Y019170D01*
X022540Y019071D02*
X023397Y019071D01*
X023397Y018973D02*
X022439Y018973D01*
X022243Y017973D02*
X022164Y017985D01*
X021822Y017985D01*
X021822Y017533D01*
X022626Y017533D01*
X022615Y017601D01*
X022591Y017676D01*
X022555Y017746D01*
X022508Y017810D01*
X022452Y017866D01*
X022388Y017913D01*
X022318Y017949D01*
X022243Y017973D01*
X022421Y017889D02*
X023397Y017889D01*
X023397Y017791D02*
X022523Y017791D01*
X022582Y017692D02*
X023397Y017692D01*
X023397Y017594D02*
X022616Y017594D01*
X022620Y017397D02*
X023397Y017397D01*
X023397Y017495D02*
X021822Y017495D01*
X021822Y017397D02*
X021722Y017397D01*
X021722Y017298D02*
X021822Y017298D01*
X021822Y017200D02*
X021722Y017200D01*
X021722Y017101D02*
X021822Y017101D01*
X021822Y017003D02*
X021722Y017003D01*
X022273Y017003D02*
X023397Y017003D01*
X023397Y017101D02*
X022454Y017101D01*
X022540Y017200D02*
X023397Y017200D01*
X023397Y017298D02*
X022593Y017298D01*
X021822Y017594D02*
X021722Y017594D01*
X021722Y017692D02*
X021822Y017692D01*
X021822Y017791D02*
X021722Y017791D01*
X021722Y017889D02*
X021822Y017889D01*
X021005Y019071D02*
X015817Y019071D01*
X015901Y019170D02*
X020928Y019170D01*
X020887Y019268D02*
X015942Y019268D01*
X015961Y019367D02*
X020857Y019367D01*
X020857Y019465D02*
X016059Y019465D01*
X016158Y019564D02*
X020858Y019564D01*
X020898Y019662D02*
X016256Y019662D01*
X016355Y019761D02*
X020939Y019761D01*
X021032Y019859D02*
X016453Y019859D01*
X016552Y019958D02*
X021172Y019958D01*
X018990Y022716D02*
X013386Y022716D01*
X013288Y022814D02*
X018990Y022814D01*
X018990Y022913D02*
X013189Y022913D01*
X013091Y023011D02*
X018990Y023011D01*
X018990Y023110D02*
X012992Y023110D01*
X012894Y023208D02*
X018990Y023208D01*
X018990Y023307D02*
X012795Y023307D01*
X012697Y023405D02*
X018990Y023405D01*
X018990Y023504D02*
X012598Y023504D01*
X012500Y023602D02*
X018990Y023602D01*
X018990Y023701D02*
X012401Y023701D01*
X012303Y023799D02*
X018990Y023799D01*
X018990Y023898D02*
X012204Y023898D01*
X012106Y023996D02*
X018990Y023996D01*
X018990Y024095D02*
X012007Y024095D01*
X011909Y024193D02*
X018990Y024193D01*
X018990Y024292D02*
X011810Y024292D01*
X011712Y024390D02*
X018990Y024390D01*
X018990Y024489D02*
X011613Y024489D01*
X011515Y024587D02*
X018990Y024587D01*
X018934Y024686D02*
X011416Y024686D01*
X011318Y024784D02*
X018835Y024784D01*
X018737Y024883D02*
X011219Y024883D01*
X011121Y024981D02*
X018638Y024981D01*
X018540Y025080D02*
X010075Y025080D01*
X009667Y025080D02*
X008960Y025080D01*
X008960Y025178D02*
X018441Y025178D01*
X018343Y025277D02*
X008960Y025277D01*
X009014Y025375D02*
X018244Y025375D01*
X018146Y025474D02*
X009054Y025474D01*
X009057Y025572D02*
X018047Y025572D01*
X017949Y025671D02*
X009039Y025671D01*
X008994Y025769D02*
X017850Y025769D01*
X017752Y025868D02*
X008892Y025868D01*
X008487Y025868D02*
X007265Y025868D01*
X007363Y025966D02*
X017653Y025966D01*
X017555Y026065D02*
X007462Y026065D01*
X007560Y026163D02*
X017456Y026163D01*
X016373Y027247D02*
X003467Y027247D01*
X003565Y027345D02*
X016274Y027345D01*
X018588Y030579D02*
X018400Y030767D01*
X018299Y031012D01*
X018299Y031277D01*
X018360Y031425D01*
X018235Y031425D01*
X018048Y031502D01*
X017906Y031645D01*
X017829Y031831D01*
X017829Y032033D01*
X017906Y032219D01*
X018048Y032361D01*
X018235Y032439D01*
X018436Y032439D01*
X018623Y032361D01*
X018765Y032219D01*
X018842Y032033D01*
X018842Y031831D01*
X018834Y031811D01*
X019098Y031811D01*
X019343Y031709D01*
X019530Y031522D01*
X019632Y031277D01*
X019632Y031012D01*
X019530Y030767D01*
X019343Y030579D01*
X019098Y030478D01*
X018833Y030478D01*
X018588Y030579D01*
X018571Y030596D02*
X009453Y030596D01*
X009453Y030694D02*
X018473Y030694D01*
X018390Y030793D02*
X009453Y030793D01*
X009453Y030891D02*
X018349Y030891D01*
X018308Y030990D02*
X009434Y030990D01*
X009387Y031088D02*
X018299Y031088D01*
X018299Y031187D02*
X009283Y031187D01*
X009559Y031448D02*
X009663Y031345D01*
X009798Y031289D01*
X009944Y031289D01*
X010079Y031345D01*
X010121Y031386D01*
X011196Y031386D01*
X011238Y031345D01*
X011373Y031289D01*
X011519Y031289D01*
X011654Y031345D01*
X011757Y031448D01*
X011813Y031583D01*
X011813Y031729D01*
X011757Y031864D01*
X011654Y031968D01*
X011519Y032024D01*
X011373Y032024D01*
X011238Y031968D01*
X011196Y031926D01*
X010121Y031926D01*
X010079Y031968D01*
X009944Y032024D01*
X009798Y032024D01*
X009663Y031968D01*
X009559Y031864D01*
X009503Y031729D01*
X009503Y031583D01*
X009559Y031448D01*
X009545Y031482D02*
X003160Y031482D01*
X003160Y031384D02*
X009624Y031384D01*
X009504Y031581D02*
X003160Y031581D01*
X003149Y031679D02*
X009503Y031679D01*
X009523Y031778D02*
X003123Y031778D01*
X003096Y031876D02*
X009571Y031876D01*
X009679Y031975D02*
X003070Y031975D01*
X003016Y032073D02*
X016927Y032073D01*
X016937Y032103D02*
X016915Y032036D01*
X016906Y031980D01*
X017303Y031980D01*
X017303Y032376D01*
X017247Y032368D01*
X017180Y032346D01*
X017117Y032314D01*
X017060Y032273D01*
X017010Y032223D01*
X016969Y032166D01*
X016937Y032103D01*
X016973Y032172D02*
X002959Y032172D01*
X002902Y032270D02*
X017058Y032270D01*
X017253Y032369D02*
X002814Y032369D01*
X002716Y032467D02*
X021357Y032467D01*
X021258Y032369D02*
X018605Y032369D01*
X018714Y032270D02*
X021170Y032270D01*
X021113Y032172D02*
X018785Y032172D01*
X018825Y032073D02*
X021056Y032073D01*
X021003Y031975D02*
X018842Y031975D01*
X018842Y031876D02*
X020976Y031876D01*
X020950Y031778D02*
X019178Y031778D01*
X019373Y031679D02*
X020923Y031679D01*
X020912Y031581D02*
X019472Y031581D01*
X019547Y031482D02*
X020912Y031482D01*
X020912Y031384D02*
X019588Y031384D01*
X019628Y031285D02*
X020912Y031285D01*
X020938Y031187D02*
X019632Y031187D01*
X019632Y031088D02*
X020964Y031088D01*
X020990Y030990D02*
X019623Y030990D01*
X019582Y030891D02*
X021030Y030891D01*
X021087Y030793D02*
X019541Y030793D01*
X019458Y030694D02*
X021144Y030694D01*
X021213Y030596D02*
X019359Y030596D01*
X019145Y030497D02*
X021311Y030497D01*
X021410Y030399D02*
X009453Y030399D01*
X009453Y030497D02*
X018786Y030497D01*
X018302Y031285D02*
X008159Y031285D01*
X008126Y031299D02*
X007876Y031299D01*
X007646Y031204D01*
X007469Y031027D01*
X007374Y030797D01*
X007374Y030547D01*
X007469Y030317D01*
X007646Y030140D01*
X007876Y030045D01*
X008126Y030045D01*
X008356Y030140D01*
X008532Y030317D01*
X008628Y030547D01*
X008628Y030797D01*
X008532Y031027D01*
X008356Y031204D01*
X008126Y031299D01*
X008373Y031187D02*
X008884Y031187D01*
X008780Y031088D02*
X008472Y031088D01*
X008548Y030990D02*
X008733Y030990D01*
X008713Y030891D02*
X008589Y030891D01*
X008628Y030793D02*
X008713Y030793D01*
X008713Y030694D02*
X008628Y030694D01*
X008628Y030596D02*
X008713Y030596D01*
X008713Y030497D02*
X008607Y030497D01*
X008566Y030399D02*
X008713Y030399D01*
X008713Y030300D02*
X008516Y030300D01*
X008417Y030202D02*
X008713Y030202D01*
X008713Y030103D02*
X008266Y030103D01*
X008713Y030005D02*
X005950Y030005D01*
X005950Y030103D02*
X006357Y030103D01*
X006268Y030140D02*
X006498Y030045D01*
X006748Y030045D01*
X006978Y030140D01*
X007155Y030317D01*
X007250Y030547D01*
X007250Y030797D01*
X007155Y031027D01*
X006978Y031204D01*
X006748Y031299D01*
X006498Y031299D01*
X006268Y031204D01*
X006091Y031027D01*
X005996Y030797D01*
X005996Y030547D01*
X006091Y030317D01*
X006268Y030140D01*
X006206Y030202D02*
X005950Y030202D01*
X005950Y030300D02*
X006108Y030300D01*
X006057Y030399D02*
X005950Y030399D01*
X005950Y030497D02*
X006016Y030497D01*
X005996Y030596D02*
X005950Y030596D01*
X005950Y030694D02*
X005996Y030694D01*
X005996Y030793D02*
X005950Y030793D01*
X005950Y030891D02*
X006035Y030891D01*
X006076Y030990D02*
X005914Y030990D01*
X005844Y031088D02*
X006152Y031088D01*
X006251Y031187D02*
X005684Y031187D01*
X005475Y031187D02*
X003135Y031187D01*
X003160Y031285D02*
X006464Y031285D01*
X006781Y031285D02*
X007842Y031285D01*
X007629Y031187D02*
X006995Y031187D01*
X007094Y031088D02*
X007530Y031088D01*
X007454Y030990D02*
X007170Y030990D01*
X007211Y030891D02*
X007413Y030891D01*
X007374Y030793D02*
X007250Y030793D01*
X007250Y030694D02*
X007374Y030694D01*
X007374Y030596D02*
X007250Y030596D01*
X007229Y030497D02*
X007394Y030497D01*
X007435Y030399D02*
X007188Y030399D01*
X007138Y030300D02*
X007486Y030300D01*
X007584Y030202D02*
X007039Y030202D01*
X006889Y030103D02*
X007735Y030103D01*
X007614Y029118D02*
X023397Y029118D01*
X023397Y029020D02*
X007660Y029020D01*
X007699Y028626D02*
X007572Y028626D01*
X007572Y028527D02*
X007618Y028527D01*
X007577Y028429D02*
X007572Y028429D01*
X007572Y028330D02*
X007574Y028330D01*
X007572Y028232D02*
X007593Y028232D01*
X007381Y027542D02*
X003762Y027542D01*
X003664Y027444D02*
X007461Y027444D01*
X007166Y025769D02*
X008385Y025769D01*
X008340Y025671D02*
X007068Y025671D01*
X006969Y025572D02*
X008322Y025572D01*
X008325Y025474D02*
X006871Y025474D01*
X006772Y025375D02*
X008366Y025375D01*
X008420Y025277D02*
X006674Y025277D01*
X006575Y025178D02*
X008420Y025178D01*
X008420Y025080D02*
X006176Y025080D01*
X005691Y025080D02*
X004821Y025080D01*
X004723Y025178D02*
X005610Y025178D01*
X005569Y025277D02*
X004624Y025277D01*
X003913Y024587D02*
X002847Y024587D01*
X002847Y024489D02*
X003913Y024489D01*
X003949Y024390D02*
X002847Y024390D01*
X002847Y024292D02*
X004019Y024292D01*
X004181Y024193D02*
X002847Y024193D01*
X002847Y024095D02*
X004993Y024095D01*
X005091Y024193D02*
X004379Y024193D01*
X004697Y023799D02*
X002847Y023799D01*
X002847Y023701D02*
X004599Y023701D01*
X004500Y023602D02*
X002847Y023602D01*
X002938Y023504D02*
X004402Y023504D01*
X004303Y023405D02*
X003037Y023405D01*
X003135Y023307D02*
X004205Y023307D01*
X004106Y023208D02*
X003234Y023208D01*
X003332Y023110D02*
X004008Y023110D01*
X003909Y023011D02*
X003412Y023011D01*
X003438Y022913D02*
X003811Y022913D01*
X003712Y022814D02*
X003438Y022814D01*
X003438Y022716D02*
X003614Y022716D01*
X003515Y022617D02*
X003438Y022617D01*
X002847Y023898D02*
X004796Y023898D01*
X004894Y023996D02*
X002847Y023996D01*
X001737Y023405D02*
X001515Y023405D01*
X001614Y023307D02*
X001737Y023307D01*
X001737Y023208D02*
X001658Y023208D01*
X001675Y023110D02*
X001737Y023110D01*
X001406Y022995D02*
X001308Y023093D01*
X002391Y022503D02*
X002587Y022306D01*
X002391Y022503D02*
X002391Y027325D01*
X002489Y027424D01*
X002856Y027444D02*
X002928Y027444D01*
X002838Y027542D02*
X003027Y027542D01*
X003125Y027641D02*
X002792Y027641D01*
X002688Y027739D02*
X003224Y027739D01*
X003322Y027838D02*
X002355Y027838D01*
X002355Y027936D02*
X003421Y027936D01*
X003519Y028035D02*
X002355Y028035D01*
X002355Y028133D02*
X003618Y028133D01*
X003861Y027641D02*
X004277Y027641D01*
X004234Y028232D02*
X002355Y028232D01*
X002484Y029217D02*
X005409Y029217D01*
X005311Y029315D02*
X002583Y029315D01*
X002833Y029414D02*
X005244Y029414D01*
X005210Y029512D02*
X002912Y029512D01*
X002953Y029611D02*
X005210Y029611D01*
X005210Y029709D02*
X002955Y029709D01*
X002935Y029808D02*
X005210Y029808D01*
X005210Y029906D02*
X002889Y029906D01*
X002782Y030005D02*
X005210Y030005D01*
X005210Y030103D02*
X001993Y030103D01*
X002286Y029906D02*
X001412Y029906D01*
X001306Y030005D02*
X002392Y030005D01*
X002342Y030202D02*
X005210Y030202D01*
X005210Y030300D02*
X002512Y030300D01*
X002663Y030399D02*
X005210Y030399D01*
X005210Y030497D02*
X002761Y030497D01*
X002860Y030596D02*
X005210Y030596D01*
X005210Y030694D02*
X002929Y030694D01*
X002985Y030793D02*
X005210Y030793D01*
X005210Y030891D02*
X003042Y030891D01*
X003082Y030990D02*
X005245Y030990D01*
X005315Y031088D02*
X003109Y031088D01*
X002604Y032566D02*
X021469Y032566D01*
X021560Y030300D02*
X009453Y030300D01*
X009453Y030202D02*
X021731Y030202D01*
X022079Y030103D02*
X009453Y030103D01*
X009453Y030005D02*
X023397Y030005D01*
X023397Y030103D02*
X022466Y030103D01*
X022814Y030202D02*
X023397Y030202D01*
X023397Y030300D02*
X022985Y030300D01*
X023135Y030399D02*
X023397Y030399D01*
X023397Y030497D02*
X023234Y030497D01*
X023332Y030596D02*
X023397Y030596D01*
X023397Y029906D02*
X009453Y029906D01*
X009453Y029808D02*
X023397Y029808D01*
X023397Y029709D02*
X009453Y029709D01*
X009453Y029611D02*
X023397Y029611D01*
X023397Y029512D02*
X009453Y029512D01*
X009452Y029414D02*
X023397Y029414D01*
X023397Y029315D02*
X009411Y029315D01*
X009333Y029217D02*
X023397Y029217D01*
X018343Y031384D02*
X011693Y031384D01*
X011771Y031482D02*
X018096Y031482D01*
X017970Y031581D02*
X017628Y031581D01*
X017642Y031591D02*
X017692Y031641D01*
X017733Y031697D01*
X017765Y031760D01*
X017787Y031827D01*
X017796Y031883D01*
X017400Y031883D01*
X017400Y031980D01*
X017796Y031980D01*
X017787Y032036D01*
X017765Y032103D01*
X017733Y032166D01*
X017692Y032223D01*
X017642Y032273D01*
X017585Y032314D01*
X017523Y032346D01*
X017456Y032368D01*
X017400Y032376D01*
X017400Y031980D01*
X017303Y031980D01*
X017303Y031883D01*
X017400Y031883D01*
X017400Y031487D01*
X017456Y031496D01*
X017523Y031518D01*
X017585Y031550D01*
X017642Y031591D01*
X017720Y031679D02*
X017891Y031679D01*
X017851Y031778D02*
X017771Y031778D01*
X017795Y031876D02*
X017829Y031876D01*
X017829Y031975D02*
X017400Y031975D01*
X017303Y031975D02*
X011637Y031975D01*
X011745Y031876D02*
X016908Y031876D01*
X016906Y031883D02*
X016915Y031827D01*
X016937Y031760D01*
X016969Y031697D01*
X017010Y031641D01*
X017060Y031591D01*
X017117Y031550D01*
X017180Y031518D01*
X017247Y031496D01*
X017303Y031487D01*
X017303Y031883D01*
X016906Y031883D01*
X016931Y031778D02*
X011793Y031778D01*
X011813Y031679D02*
X016982Y031679D01*
X017074Y031581D02*
X011812Y031581D01*
X011199Y031384D02*
X010118Y031384D01*
X010062Y031975D02*
X011254Y031975D01*
X008713Y029906D02*
X005950Y029906D01*
X009926Y024390D02*
X010948Y024390D01*
X011046Y024292D02*
X010024Y024292D01*
X010123Y024193D02*
X011145Y024193D01*
X011243Y024095D02*
X010221Y024095D01*
X010320Y023996D02*
X011342Y023996D01*
X011440Y023898D02*
X010418Y023898D01*
X010517Y023799D02*
X011539Y023799D01*
X011637Y023701D02*
X010615Y023701D01*
X010714Y023602D02*
X011736Y023602D01*
X011834Y023504D02*
X010812Y023504D01*
X010911Y023405D02*
X011933Y023405D01*
X012031Y023307D02*
X011009Y023307D01*
X011108Y023208D02*
X012130Y023208D01*
X012228Y023110D02*
X011206Y023110D01*
X010849Y024489D02*
X010113Y024489D01*
X010197Y022026D02*
X004765Y022026D01*
X004863Y021928D02*
X010239Y021928D01*
X010338Y021829D02*
X004906Y021829D01*
X001319Y020943D02*
X000675Y020943D01*
X000675Y021041D02*
X001221Y021041D01*
X001122Y021140D02*
X000675Y021140D01*
X000675Y021238D02*
X001024Y021238D01*
X000925Y021337D02*
X000675Y021337D01*
X000675Y021435D02*
X000827Y021435D01*
X000728Y021534D02*
X000675Y021534D01*
X000675Y020844D02*
X001343Y020844D01*
X001343Y020746D02*
X000675Y020746D01*
X000675Y020647D02*
X001343Y020647D01*
X001343Y020549D02*
X000675Y020549D01*
X000675Y020450D02*
X001343Y020450D01*
X001343Y020352D02*
X000675Y020352D01*
X000675Y020253D02*
X001343Y020253D01*
X001343Y020155D02*
X000675Y020155D01*
X000675Y020056D02*
X001343Y020056D01*
X001343Y019958D02*
X000675Y019958D01*
X000675Y019859D02*
X001343Y019859D01*
X001343Y019761D02*
X000675Y019761D01*
X000675Y019662D02*
X001343Y019662D01*
X001343Y019564D02*
X000675Y019564D01*
X000675Y019465D02*
X001343Y019465D01*
X001343Y019367D02*
X000675Y019367D01*
X000675Y019268D02*
X001343Y019268D01*
X001343Y019170D02*
X000675Y019170D01*
X000675Y019071D02*
X001343Y019071D01*
X001343Y018973D02*
X000675Y018973D01*
X000675Y018874D02*
X001343Y018874D01*
X001343Y018776D02*
X000675Y018776D01*
X000675Y018677D02*
X001343Y018677D01*
X001343Y018579D02*
X000675Y018579D01*
X000675Y018480D02*
X001343Y018480D01*
X001343Y018382D02*
X000675Y018382D01*
X000675Y018283D02*
X001343Y018283D01*
X001343Y018185D02*
X000675Y018185D01*
X000675Y018086D02*
X001343Y018086D01*
X001343Y017988D02*
X000675Y017988D01*
X000675Y017889D02*
X001343Y017889D01*
X001343Y017791D02*
X000675Y017791D01*
X000675Y017692D02*
X001343Y017692D01*
X001343Y017594D02*
X000675Y017594D01*
X000675Y017495D02*
X001343Y017495D01*
X001343Y017397D02*
X000675Y017397D01*
X000675Y017298D02*
X001343Y017298D01*
X001343Y017200D02*
X000675Y017200D01*
X000675Y017101D02*
X001343Y017101D01*
X001343Y017003D02*
X000675Y017003D01*
X000675Y016904D02*
X001343Y016904D01*
X001343Y016806D02*
X000675Y016806D01*
X000675Y016707D02*
X001343Y016707D01*
X001343Y016609D02*
X000675Y016609D01*
X000675Y016510D02*
X001343Y016510D01*
X001343Y016412D02*
X000675Y016412D01*
X000675Y016313D02*
X001343Y016313D01*
X001343Y016215D02*
X000675Y016215D01*
X000675Y016116D02*
X001343Y016116D01*
X001343Y016018D02*
X000675Y016018D01*
X000675Y015919D02*
X001343Y015919D01*
X001343Y015821D02*
X000675Y015821D01*
X000675Y015722D02*
X001343Y015722D01*
X001343Y015624D02*
X000675Y015624D01*
X000675Y015525D02*
X001343Y015525D01*
X001343Y015427D02*
X000675Y015427D01*
X000675Y015328D02*
X001343Y015328D01*
X001343Y015230D02*
X000675Y015230D01*
X000675Y015131D02*
X001343Y015131D01*
X001343Y015033D02*
X000675Y015033D01*
X000675Y014934D02*
X001343Y014934D01*
X001343Y014836D02*
X000675Y014836D01*
X000675Y014737D02*
X001343Y014737D01*
X001343Y014639D02*
X000675Y014639D01*
X000675Y014540D02*
X001343Y014540D01*
X001343Y014442D02*
X000675Y014442D01*
X000675Y014343D02*
X001343Y014343D01*
X001343Y014245D02*
X000675Y014245D01*
X000675Y014146D02*
X001343Y014146D01*
X001343Y014048D02*
X000675Y014048D01*
X000675Y013949D02*
X001343Y013949D01*
X001343Y013851D02*
X000675Y013851D01*
X000675Y013752D02*
X001343Y013752D01*
X001343Y013654D02*
X000675Y013654D01*
X000675Y013555D02*
X001343Y013555D01*
X001343Y013457D02*
X000675Y013457D01*
X000675Y013358D02*
X001343Y013358D01*
X001343Y013260D02*
X000675Y013260D01*
X000675Y013161D02*
X001343Y013161D01*
X001343Y013063D02*
X000675Y013063D01*
X000675Y012964D02*
X001343Y012964D01*
X001343Y012866D02*
X000675Y012866D01*
X000675Y012767D02*
X001343Y012767D01*
X001343Y012669D02*
X000675Y012669D01*
X000675Y012570D02*
X001343Y012570D01*
X001343Y012472D02*
X000675Y012472D01*
X000675Y012373D02*
X001343Y012373D01*
X001343Y012275D02*
X000675Y012275D01*
X000675Y012176D02*
X001343Y012176D01*
X001343Y012078D02*
X000675Y012078D01*
X000675Y011979D02*
X001343Y011979D01*
X001343Y011881D02*
X000675Y011881D01*
X000675Y011782D02*
X001343Y011782D01*
X001359Y011684D02*
X000675Y011684D01*
X000675Y011585D02*
X001425Y011585D01*
X001523Y011487D02*
X000675Y011487D01*
X000675Y011388D02*
X001622Y011388D01*
X001720Y011290D02*
X000675Y011290D01*
X000675Y011191D02*
X001819Y011191D01*
X001917Y011093D02*
X001427Y011093D01*
X001683Y010994D02*
X002016Y010994D01*
X002114Y010896D02*
X001781Y010896D01*
X001880Y010797D02*
X002213Y010797D01*
X002311Y010699D02*
X001978Y010699D01*
X002077Y010600D02*
X002410Y010600D01*
X002508Y010502D02*
X002175Y010502D01*
X002274Y010403D02*
X002607Y010403D01*
X002705Y010305D02*
X002372Y010305D01*
X002471Y010206D02*
X002804Y010206D01*
X002902Y010108D02*
X002569Y010108D01*
X002668Y010009D02*
X003001Y010009D01*
X003099Y009911D02*
X002766Y009911D01*
X002865Y009812D02*
X003198Y009812D01*
X003296Y009714D02*
X002963Y009714D01*
X003062Y009615D02*
X003395Y009615D01*
X003493Y009517D02*
X003160Y009517D01*
X003259Y009418D02*
X003592Y009418D01*
X003690Y009320D02*
X003357Y009320D01*
X002987Y008926D02*
X000675Y008926D01*
X000675Y009024D02*
X002889Y009024D01*
X002790Y009123D02*
X000675Y009123D01*
X000675Y009221D02*
X002692Y009221D01*
X002593Y009320D02*
X000675Y009320D01*
X000675Y009418D02*
X002495Y009418D01*
X002396Y009517D02*
X000675Y009517D01*
X000675Y009615D02*
X002298Y009615D01*
X002199Y009714D02*
X000675Y009714D01*
X000675Y009812D02*
X002101Y009812D01*
X002002Y009911D02*
X000675Y009911D01*
X000675Y010009D02*
X001904Y010009D01*
X001805Y010108D02*
X000675Y010108D01*
X000675Y010206D02*
X001707Y010206D01*
X001608Y010305D02*
X000675Y010305D01*
X000675Y010403D02*
X001510Y010403D01*
X000978Y010502D02*
X000675Y010502D01*
X000675Y010600D02*
X000890Y010600D01*
X000850Y010699D02*
X000675Y010699D01*
X000675Y010797D02*
X000842Y010797D01*
X000855Y010896D02*
X000675Y010896D01*
X000675Y010994D02*
X000896Y010994D01*
X000992Y011093D02*
X000675Y011093D01*
X000675Y008827D02*
X003086Y008827D01*
X003184Y008729D02*
X000675Y008729D01*
X000675Y008630D02*
X003283Y008630D01*
X003381Y008532D02*
X000675Y008532D01*
X000675Y008433D02*
X003480Y008433D01*
X003578Y008335D02*
X000675Y008335D01*
X000675Y008236D02*
X003677Y008236D01*
X003775Y008138D02*
X000675Y008138D01*
X000675Y008039D02*
X003874Y008039D01*
X003972Y007940D02*
X000675Y007940D01*
X000675Y007842D02*
X004004Y007842D01*
X003992Y007743D02*
X000675Y007743D01*
X000675Y007645D02*
X004000Y007645D01*
X004041Y007546D02*
X000675Y007546D01*
X000675Y007448D02*
X004130Y007448D01*
X004588Y007448D02*
X004819Y007448D01*
X004730Y007546D02*
X004677Y007546D01*
X005055Y007349D02*
X000675Y007349D01*
X000675Y007251D02*
X005154Y007251D01*
X005252Y007152D02*
X000675Y007152D01*
X000675Y007054D02*
X005351Y007054D01*
X005449Y006955D02*
X000675Y006955D01*
X000675Y006857D02*
X005548Y006857D01*
X005646Y006758D02*
X000675Y006758D01*
X000675Y006660D02*
X005745Y006660D01*
X005843Y006561D02*
X000675Y006561D01*
X000675Y006463D02*
X005942Y006463D01*
X006040Y006364D02*
X000675Y006364D01*
X000675Y006266D02*
X002465Y006266D01*
X002686Y005967D02*
X001800Y005967D01*
X001505Y005672D01*
X001505Y004904D01*
X001643Y004766D01*
X004320Y004766D01*
X004218Y004493D02*
X000675Y004493D01*
X000675Y004591D02*
X001450Y004591D01*
X001351Y004690D02*
X000675Y004690D01*
X000675Y004788D02*
X001271Y004788D01*
X001245Y004887D02*
X000675Y004887D01*
X000675Y004985D02*
X001245Y004985D01*
X001245Y005084D02*
X000675Y005084D01*
X000675Y005182D02*
X001245Y005182D01*
X001245Y005281D02*
X000675Y005281D01*
X000675Y005379D02*
X001245Y005379D01*
X001245Y005478D02*
X000675Y005478D01*
X000675Y005576D02*
X001245Y005576D01*
X001245Y005675D02*
X000675Y005675D01*
X000675Y005773D02*
X001265Y005773D01*
X001337Y005872D02*
X000675Y005872D01*
X000675Y005970D02*
X001436Y005970D01*
X001534Y006069D02*
X000675Y006069D01*
X000675Y006167D02*
X001633Y006167D01*
X002095Y005377D02*
X002095Y005278D01*
X002371Y005003D01*
X001329Y004394D02*
X000675Y004394D01*
X000675Y004296D02*
X001129Y004296D01*
X000961Y004197D02*
X000675Y004197D01*
X000675Y004099D02*
X000863Y004099D01*
X000764Y004000D02*
X000675Y004000D01*
X000675Y003902D02*
X000685Y003902D01*
X003001Y006167D02*
X006166Y006167D01*
X006139Y006266D02*
X002907Y006266D01*
X003948Y008729D02*
X004060Y008729D01*
X004121Y008827D02*
X003850Y008827D01*
X005819Y007349D02*
X006501Y007349D01*
X006407Y007251D02*
X005918Y007251D01*
X006016Y007152D02*
X006366Y007152D01*
X006354Y007054D02*
X006115Y007054D01*
X006213Y006955D02*
X006363Y006955D01*
X006403Y006857D02*
X006312Y006857D01*
X006410Y006758D02*
X006493Y006758D01*
X006509Y006660D02*
X006729Y006660D01*
X006745Y006561D02*
X006828Y006561D01*
X006623Y003487D02*
X006544Y003487D01*
X006426Y002719D02*
X005776Y002069D01*
X006117Y001932D02*
X018158Y001932D01*
X017425Y002720D02*
X020970Y002720D01*
X020996Y002621D02*
X017326Y002621D01*
X017228Y002523D02*
X021043Y002523D01*
X021099Y002424D02*
X006499Y002424D01*
X006401Y002326D02*
X021156Y002326D01*
X021234Y002227D02*
X006302Y002227D01*
X006204Y002129D02*
X021333Y002129D01*
X021431Y002030D02*
X006144Y002030D01*
X010579Y003114D02*
X012874Y003114D01*
X012775Y003212D02*
X010689Y003212D01*
X010787Y003311D02*
X012677Y003311D01*
X012662Y003409D02*
X010862Y003409D01*
X010919Y003508D02*
X012662Y003508D01*
X012662Y003606D02*
X010976Y003606D01*
X011010Y003705D02*
X012662Y003705D01*
X012717Y003803D02*
X011036Y003803D01*
X011063Y003902D02*
X012816Y003902D01*
X012914Y004000D02*
X011072Y004000D01*
X011062Y004296D02*
X012357Y004296D01*
X012258Y004394D02*
X011035Y004394D01*
X011009Y004493D02*
X012182Y004493D01*
X012182Y004591D02*
X010974Y004591D01*
X010946Y006561D02*
X016495Y006561D01*
X016653Y005084D02*
X016658Y005084D01*
X016559Y004985D02*
X016555Y004985D01*
X016461Y004887D02*
X016456Y004887D01*
X016442Y004788D02*
X016382Y004788D01*
X016382Y004690D02*
X016442Y004690D01*
X016442Y004591D02*
X016382Y004591D01*
X016382Y004493D02*
X016442Y004493D01*
X016493Y004394D02*
X016331Y004394D01*
X016232Y004296D02*
X016592Y004296D01*
X016690Y004197D02*
X016134Y004197D01*
X016154Y004000D02*
X015590Y004000D01*
X015543Y004047D02*
X015121Y004047D01*
X014822Y003748D01*
X014822Y003326D01*
X015121Y003027D01*
X015543Y003027D01*
X015842Y003326D01*
X015842Y003748D01*
X015543Y004047D01*
X015610Y004197D02*
X015054Y004197D01*
X015152Y004296D02*
X015512Y004296D01*
X015413Y004394D02*
X015251Y004394D01*
X015302Y004493D02*
X015362Y004493D01*
X015362Y004591D02*
X015302Y004591D01*
X015302Y004690D02*
X015362Y004690D01*
X015362Y004788D02*
X015305Y004788D01*
X015074Y004000D02*
X014510Y004000D01*
X014608Y003902D02*
X014976Y003902D01*
X014877Y003803D02*
X014707Y003803D01*
X014762Y003705D02*
X014822Y003705D01*
X014822Y003606D02*
X014762Y003606D01*
X014762Y003508D02*
X014822Y003508D01*
X014822Y003409D02*
X014762Y003409D01*
X014747Y003311D02*
X014837Y003311D01*
X014935Y003212D02*
X014649Y003212D01*
X014550Y003114D02*
X015034Y003114D01*
X015630Y003114D02*
X016114Y003114D01*
X016015Y003212D02*
X015729Y003212D01*
X015827Y003311D02*
X015917Y003311D01*
X015902Y003409D02*
X015842Y003409D01*
X015842Y003508D02*
X015902Y003508D01*
X015902Y003606D02*
X015842Y003606D01*
X015842Y003705D02*
X015902Y003705D01*
X015957Y003803D02*
X015787Y003803D01*
X015688Y003902D02*
X016056Y003902D01*
X017523Y002818D02*
X020943Y002818D01*
X013954Y003114D02*
X013470Y003114D01*
X013569Y003212D02*
X013855Y003212D01*
X013757Y003311D02*
X013667Y003311D01*
X013682Y003409D02*
X013742Y003409D01*
X013742Y003508D02*
X013682Y003508D01*
X013682Y003606D02*
X013742Y003606D01*
X013742Y003705D02*
X013682Y003705D01*
X013627Y003803D02*
X013797Y003803D01*
X013896Y003902D02*
X013528Y003902D01*
X013253Y004394D02*
X013006Y004394D01*
X013082Y004493D02*
X013202Y004493D01*
X013202Y004591D02*
X013082Y004591D01*
X009103Y010305D02*
X008650Y010305D01*
X011076Y010502D02*
X012449Y010502D01*
X012351Y010600D02*
X011117Y010600D01*
X011382Y010699D02*
X012252Y010699D01*
X012154Y010797D02*
X011470Y010797D01*
X011510Y010896D02*
X012055Y010896D01*
X011957Y010994D02*
X011518Y010994D01*
X011677Y011093D02*
X011858Y011093D01*
X012627Y013152D02*
X021091Y013152D01*
X021028Y013457D02*
X020385Y013457D01*
X020484Y013555D02*
X021028Y013555D01*
X021028Y013654D02*
X020582Y013654D01*
X020681Y013752D02*
X021028Y013752D01*
X021028Y013851D02*
X020779Y013851D01*
X020845Y013916D02*
X020845Y013916D01*
X020878Y013949D02*
X021028Y013949D01*
X021028Y014048D02*
X020942Y014048D01*
X020958Y014146D02*
X021052Y014146D01*
X021127Y014245D02*
X020958Y014245D01*
X020958Y014343D02*
X021226Y014343D01*
X021324Y014442D02*
X020958Y014442D01*
X020958Y014540D02*
X021349Y014540D01*
X022086Y014836D02*
X022600Y014836D01*
X022630Y014737D02*
X022141Y014737D01*
X022240Y014639D02*
X022532Y014639D01*
X022433Y014540D02*
X022338Y014540D01*
X022353Y014442D02*
X022393Y014442D01*
X022793Y014442D02*
X022893Y014442D01*
X022893Y014540D02*
X022793Y014540D01*
X022793Y014639D02*
X022893Y014639D01*
X022893Y014737D02*
X022793Y014737D01*
X022502Y014934D02*
X022185Y014934D01*
X022283Y015033D02*
X022403Y015033D01*
X022432Y015624D02*
X022255Y015624D01*
X022156Y015722D02*
X022531Y015722D01*
X022629Y015821D02*
X022058Y015821D01*
X022793Y014146D02*
X022893Y014146D01*
X022893Y014048D02*
X022793Y014048D01*
X022793Y013949D02*
X022893Y013949D01*
X022645Y013752D02*
X022126Y013752D01*
X022225Y013654D02*
X022547Y013654D01*
X022448Y013555D02*
X022323Y013555D01*
X022353Y013457D02*
X022393Y013457D01*
X023140Y013654D02*
X023397Y013654D01*
X023397Y013555D02*
X023238Y013555D01*
X023293Y013457D02*
X023397Y013457D01*
X020438Y014836D02*
X006935Y014836D01*
X006837Y014934D02*
X020438Y014934D01*
X020438Y015033D02*
X012901Y015033D01*
X012987Y015131D02*
X020438Y015131D01*
X020438Y015230D02*
X013027Y015230D01*
X013034Y015328D02*
X020438Y015328D01*
X020438Y015427D02*
X013019Y015427D01*
X012978Y015525D02*
X020438Y015525D01*
X020438Y015624D02*
X012926Y015624D01*
X012926Y015722D02*
X020438Y015722D01*
X018144Y020943D02*
X017527Y020943D01*
X017683Y021041D02*
X017988Y021041D01*
X017898Y021140D02*
X017773Y021140D01*
X017814Y021238D02*
X017857Y021238D01*
X017870Y022223D02*
X017801Y022223D01*
X017750Y022322D02*
X017921Y022322D01*
X018019Y022420D02*
X017652Y022420D01*
X017453Y022519D02*
X018218Y022519D01*
X017400Y031581D02*
X017303Y031581D01*
X017303Y031679D02*
X017400Y031679D01*
X017400Y031778D02*
X017303Y031778D01*
X017303Y031876D02*
X017400Y031876D01*
X017400Y032073D02*
X017303Y032073D01*
X017303Y032172D02*
X017400Y032172D01*
X017400Y032270D02*
X017303Y032270D01*
X017303Y032369D02*
X017400Y032369D01*
X017449Y032369D02*
X018066Y032369D01*
X017957Y032270D02*
X017645Y032270D01*
X017729Y032172D02*
X017886Y032172D01*
X017845Y032073D02*
X017775Y032073D01*
X008729Y017266D02*
X008690Y017168D01*
X008611Y017089D01*
X012528Y013192D02*
X012627Y013152D01*
X000810Y029906D02*
X000675Y029906D01*
X000675Y030005D02*
X000916Y030005D01*
X000675Y030103D02*
X001607Y030103D01*
X001258Y030202D02*
X000675Y030202D01*
X000675Y030300D02*
X001088Y030300D01*
X000937Y030399D02*
X000675Y030399D01*
X000675Y030497D02*
X000839Y030497D01*
X000740Y030596D02*
X000675Y030596D01*
D19*
X004556Y021715D02*
X004556Y019629D01*
X004969Y019215D01*
X011879Y019215D01*
X012430Y018664D01*
X012430Y017818D01*
X008690Y017818D01*
D20*
X009871Y020928D02*
X011347Y020928D01*
X012824Y019451D01*
X015481Y019451D01*
X015580Y019353D01*
X015580Y020140D01*
X010954Y024766D01*
X009871Y024766D01*
X008690Y024766D01*
X008690Y025554D01*
X008690Y024766D02*
X004753Y024766D01*
X004261Y025258D01*
X004261Y026440D01*
X005048Y020140D02*
X005737Y019451D01*
X012824Y019451D01*
X015580Y011577D02*
X010757Y006755D01*
X007017Y006755D01*
X006721Y007050D01*
X006524Y006262D02*
X005048Y007739D01*
X004654Y008231D02*
X004359Y007936D01*
X004359Y007739D01*
X004359Y007936D02*
X001505Y010790D01*
X001209Y010790D01*
X004654Y008231D02*
X005442Y008231D01*
X005737Y007936D01*
X008887Y007936D01*
X010461Y009510D01*
X014792Y004657D02*
X015413Y005278D01*
X016072Y005278D01*
X018335Y007542D01*
X018335Y009018D01*
X018335Y009569D02*
X018373Y009571D01*
X018650Y009571D01*
X018729Y009493D01*
X018729Y007522D01*
X018709Y007522D01*
X015872Y004685D01*
X015872Y004657D01*
X011446Y031656D02*
X009871Y031656D01*
D21*
X007942Y028349D02*
X015737Y028349D01*
X019320Y024766D01*
X019320Y021731D01*
X019335Y021715D01*
D22*
X009083Y029491D02*
X005658Y029491D01*
X005580Y029569D01*
X005580Y030829D01*
X009083Y030869D02*
X009083Y029491D01*
M02*
