G75*
G70*
%OFA0B0*%
%FSLAX24Y24*%
%IPPOS*%
%LPD*%
%AMOC8*
5,1,8,0,0,1.08239X$1,22.5*
%
%ADD10C,0.1181*%
%ADD11C,0.0198*%
%ADD12R,0.0237X0.0552*%
%ADD13R,0.0552X0.0237*%
%ADD14R,0.0592X0.0671*%
%ADD15R,0.0671X0.0592*%
%ADD16R,0.0631X0.0474*%
%ADD17R,0.0474X0.0631*%
%ADD18R,0.0880X0.0340*%
%ADD19C,0.0600*%
%ADD20OC8,0.0680*%
%ADD21R,0.0946X0.0316*%
%ADD22R,0.1458X0.0592*%
%ADD23R,0.0297X0.0434*%
%ADD24R,0.0395X0.0631*%
%ADD25R,0.0513X0.0316*%
%ADD26R,0.0592X0.0946*%
%ADD27C,0.0680*%
%ADD28R,0.1025X0.0710*%
%ADD29C,0.2380*%
%ADD30C,0.2080*%
%ADD31R,0.0631X0.0710*%
%ADD32C,0.0674*%
%ADD33C,0.0513*%
%ADD34R,0.1064X0.0946*%
%ADD35R,0.0277X0.0867*%
%ADD36C,0.0434*%
%ADD37C,0.0785*%
D10*
X007331Y016282D03*
X011820Y011794D03*
D11*
X012066Y012562D02*
X011574Y012562D01*
X011574Y012758D02*
X012066Y012758D01*
X012066Y012955D02*
X011574Y012955D01*
X011574Y013152D02*
X012066Y013152D01*
X012066Y013349D02*
X011574Y013349D01*
X011574Y013546D02*
X012066Y013546D01*
X012066Y013743D02*
X011574Y013743D01*
X011574Y013940D02*
X012066Y013940D01*
X012066Y014136D02*
X011574Y014136D01*
X011574Y014333D02*
X012066Y014333D01*
X012066Y014530D02*
X011574Y014530D01*
X011574Y014727D02*
X012066Y014727D01*
X012066Y014924D02*
X011574Y014924D01*
X011574Y015121D02*
X012066Y015121D01*
X012066Y015318D02*
X011574Y015318D01*
X011574Y015514D02*
X012066Y015514D01*
X011052Y016036D02*
X011052Y016528D01*
X010855Y016528D02*
X010855Y016036D01*
X010658Y016036D02*
X010658Y016528D01*
X010461Y016528D02*
X010461Y016036D01*
X010265Y016036D02*
X010265Y016528D01*
X010068Y016528D02*
X010068Y016036D01*
X009871Y016036D02*
X009871Y016528D01*
X009674Y016528D02*
X009674Y016036D01*
X009477Y016036D02*
X009477Y016528D01*
X009280Y016528D02*
X009280Y016036D01*
X009083Y016036D02*
X009083Y016528D01*
X008887Y016528D02*
X008887Y016036D01*
X008690Y016036D02*
X008690Y016528D01*
X008493Y016528D02*
X008493Y016036D01*
X008296Y016036D02*
X008296Y016528D01*
X008099Y016528D02*
X008099Y016036D01*
X007577Y015514D02*
X007085Y015514D01*
X007085Y015318D02*
X007577Y015318D01*
X007577Y015121D02*
X007085Y015121D01*
X007085Y014924D02*
X007577Y014924D01*
X007577Y014727D02*
X007085Y014727D01*
X007085Y014530D02*
X007577Y014530D01*
X007577Y014333D02*
X007085Y014333D01*
X007085Y014136D02*
X007577Y014136D01*
X007577Y013940D02*
X007085Y013940D01*
X007085Y013743D02*
X007577Y013743D01*
X007577Y013546D02*
X007085Y013546D01*
X007085Y013349D02*
X007577Y013349D01*
X007577Y013152D02*
X007085Y013152D01*
X007085Y012955D02*
X007577Y012955D01*
X007577Y012758D02*
X007085Y012758D01*
X007085Y012562D02*
X007577Y012562D01*
X008099Y012040D02*
X008099Y011548D01*
X008296Y011548D02*
X008296Y012040D01*
X008493Y012040D02*
X008493Y011548D01*
X008690Y011548D02*
X008690Y012040D01*
X008887Y012040D02*
X008887Y011548D01*
X009083Y011548D02*
X009083Y012040D01*
X009280Y012040D02*
X009280Y011548D01*
X009477Y011548D02*
X009477Y012040D01*
X009674Y012040D02*
X009674Y011548D01*
X009871Y011548D02*
X009871Y012040D01*
X010068Y012040D02*
X010068Y011548D01*
X010265Y011548D02*
X010265Y012040D01*
X010461Y012040D02*
X010461Y011548D01*
X010658Y011548D02*
X010658Y012040D01*
X010855Y012040D02*
X010855Y011548D01*
X011052Y011548D02*
X011052Y012040D01*
D12*
X008020Y020318D03*
X007706Y020318D03*
X007391Y020318D03*
X007076Y020318D03*
X006761Y020318D03*
X006446Y020318D03*
X006131Y020318D03*
X005816Y020318D03*
X005816Y023703D03*
X006131Y023703D03*
X006446Y023703D03*
X006761Y023703D03*
X007076Y023703D03*
X007391Y023703D03*
X007706Y023703D03*
X008020Y023703D03*
D13*
X008611Y023113D03*
X008611Y022798D03*
X008611Y022483D03*
X008611Y022168D03*
X008611Y021853D03*
X008611Y021538D03*
X008611Y021223D03*
X008611Y020908D03*
X005225Y020908D03*
X005225Y021223D03*
X005225Y021538D03*
X005225Y021853D03*
X005225Y022168D03*
X005225Y022483D03*
X005225Y022798D03*
X005225Y023113D03*
D14*
X007430Y017778D03*
X008178Y017778D03*
X006603Y016597D03*
X006406Y015869D03*
X005855Y016597D03*
X005658Y015869D03*
X010875Y009904D03*
X011623Y009904D03*
X009064Y006991D03*
X008316Y006991D03*
X004209Y003774D03*
X003461Y003774D03*
X001580Y005081D03*
X000831Y005081D03*
X009497Y023881D03*
X010245Y023881D03*
X014320Y021420D03*
X015068Y021420D03*
X020127Y014333D03*
X020127Y013546D03*
X020875Y013546D03*
X020875Y014333D03*
X020875Y012758D03*
X020127Y012758D03*
X019654Y011814D03*
X018906Y011814D03*
X020127Y010987D03*
X020127Y010199D03*
X020875Y010199D03*
X020875Y010987D03*
X020875Y009412D03*
X020127Y009412D03*
X021898Y005278D03*
X022646Y005278D03*
X016839Y011577D03*
X016091Y011577D03*
D15*
X015580Y010770D03*
X015580Y010022D03*
X015580Y009195D03*
X015580Y008447D03*
X015580Y007621D03*
X015580Y006873D03*
X013316Y012778D03*
X013316Y013526D03*
X016072Y019373D03*
X016072Y020121D03*
X016957Y020121D03*
X016957Y019373D03*
X009280Y020258D03*
X009280Y021006D03*
X009280Y022325D03*
X009280Y023073D03*
X008060Y025258D03*
X008060Y026006D03*
X007312Y026066D03*
X007312Y026814D03*
X006485Y026814D03*
X006485Y026066D03*
X005737Y026066D03*
X005737Y026814D03*
X004950Y026814D03*
X004950Y026066D03*
X004556Y022975D03*
X004556Y022227D03*
X005524Y015195D03*
X005524Y014447D03*
X006997Y011794D03*
X006997Y011046D03*
X005910Y009495D03*
X005910Y008747D03*
X006957Y008605D03*
X006957Y007857D03*
X007706Y007857D03*
X007706Y008605D03*
X009005Y010026D03*
X009005Y010774D03*
X008316Y006302D03*
X008316Y005554D03*
X008394Y002896D03*
X008394Y002148D03*
X007686Y002148D03*
X007686Y002896D03*
X006977Y002896D03*
X006269Y002900D03*
X006269Y002152D03*
X006977Y002148D03*
X004064Y004510D03*
X004064Y005258D03*
X020835Y006971D03*
X020835Y007719D03*
X012233Y030495D03*
X012233Y031243D03*
X011446Y031243D03*
X011446Y030495D03*
X004556Y030495D03*
X004556Y031243D03*
X003769Y031243D03*
X003769Y030495D03*
X020304Y030888D03*
X020304Y031636D03*
D16*
X003280Y005168D03*
X003280Y004420D03*
X002414Y004794D03*
D17*
X003489Y002951D03*
X003863Y002085D03*
X004237Y002951D03*
X004871Y003054D03*
X005619Y003054D03*
X005245Y002188D03*
D18*
X005019Y003778D03*
X005019Y004278D03*
X005019Y004778D03*
X005019Y005278D03*
X005019Y005778D03*
X005019Y006278D03*
X005019Y006778D03*
X007439Y006778D03*
X007439Y006278D03*
X007439Y005778D03*
X007439Y005278D03*
X007439Y004778D03*
X007439Y004278D03*
X007439Y003778D03*
X016732Y007071D03*
X016732Y007571D03*
X016732Y008071D03*
X016732Y008571D03*
X016732Y009071D03*
X016732Y009571D03*
X016732Y010071D03*
X016732Y010571D03*
X019152Y010571D03*
X019152Y010071D03*
X019152Y009571D03*
X019152Y009071D03*
X019152Y008571D03*
X019152Y008071D03*
X019152Y007571D03*
X019152Y007071D03*
D19*
X010635Y020297D03*
X010635Y022197D03*
X005572Y012893D03*
X005572Y010993D03*
D20*
X012632Y004657D03*
X013172Y003537D03*
X013712Y004657D03*
X014252Y003537D03*
X014792Y004657D03*
X015332Y003537D03*
X015872Y004657D03*
X016412Y003537D03*
X016952Y004657D03*
X021843Y006314D03*
X021843Y007314D03*
X021843Y008314D03*
X021843Y009314D03*
X021843Y010314D03*
X021843Y011314D03*
X021843Y012314D03*
X021843Y013314D03*
X021843Y014314D03*
X021843Y015314D03*
X022843Y015314D03*
X022843Y014314D03*
X022843Y013314D03*
X022843Y012314D03*
X022843Y011314D03*
X022843Y010314D03*
X022843Y009314D03*
X022843Y008314D03*
X022843Y007314D03*
X022843Y006314D03*
D21*
X011682Y007579D03*
X011682Y008079D03*
X011682Y008579D03*
X011682Y009079D03*
X009635Y009079D03*
X009635Y008579D03*
X009635Y008079D03*
X009635Y007579D03*
X013375Y030512D03*
X013375Y031012D03*
X013375Y031512D03*
X013375Y032012D03*
X015422Y032012D03*
X015422Y031512D03*
X015422Y031012D03*
X015422Y030512D03*
D22*
X003391Y028485D03*
X003391Y027485D03*
X003391Y026485D03*
X003391Y025485D03*
X001391Y025985D03*
X001391Y026985D03*
X001391Y027985D03*
X001391Y024985D03*
X003391Y022186D03*
X003391Y021186D03*
X003391Y020186D03*
X003391Y019186D03*
X001391Y019686D03*
X001391Y020686D03*
X001391Y021686D03*
X001391Y018686D03*
X003391Y015886D03*
X003391Y014886D03*
X003391Y013886D03*
X003391Y012886D03*
X001391Y012386D03*
X001391Y013386D03*
X001391Y014386D03*
X001391Y015386D03*
X003391Y009587D03*
X003391Y008587D03*
X003391Y007587D03*
X003391Y006587D03*
X001391Y006087D03*
X001391Y007087D03*
X001391Y008087D03*
X001391Y009087D03*
D23*
X015697Y021205D03*
X016072Y021205D03*
X016447Y021205D03*
X016447Y022225D03*
X015697Y022225D03*
D24*
X018335Y020603D03*
X018335Y019481D03*
D25*
X018001Y020042D03*
X018670Y020042D03*
D26*
X021048Y022547D03*
X022048Y022547D03*
X023048Y022547D03*
X023048Y029347D03*
X022048Y029347D03*
X021048Y029347D03*
X014048Y029347D03*
X013048Y029347D03*
X012048Y029347D03*
X012048Y022547D03*
X013048Y022547D03*
X014048Y022547D03*
D27*
X017335Y022015D02*
X017335Y021415D01*
X018335Y021415D02*
X018335Y022015D01*
X019335Y022015D02*
X019335Y021415D01*
D28*
X014891Y020534D03*
X014891Y019353D03*
X008591Y009018D03*
X008591Y007837D03*
D29*
X001800Y003113D03*
X001800Y031459D03*
X022272Y031459D03*
X022272Y003113D03*
D30*
X019722Y004097D03*
X009862Y004097D03*
D31*
X012725Y006971D03*
X013611Y006971D03*
X014497Y006971D03*
X014497Y010278D03*
X012725Y010278D03*
D32*
X017351Y031932D03*
X018335Y031932D03*
D33*
X018965Y031144D03*
X018965Y031144D03*
D34*
X008965Y031971D03*
X008965Y029884D03*
X005658Y029884D03*
X005658Y031971D03*
D35*
X006682Y029786D03*
X006997Y029786D03*
X007312Y029786D03*
X007627Y029786D03*
X007942Y029786D03*
D36*
X008001Y030672D03*
X006623Y030672D03*
D37*
X021420Y019451D02*
X022125Y019451D01*
X022125Y017483D02*
X021420Y017483D01*
M02*
