M48
;DRILL file {Pcbnew (2012-01-19 BZR 3256)-stable} date 11/12/2012 13:12:44
;FORMAT={-:-/ absolute / metric / decimal}
FMAT,2
METRIC,TZ
T1C0.635
T2C0.813
T3C1.016
T4C1.410
T5C3.048
%
G90
G05
M71
T1
X3.561Y-61.613
X4.343Y-41.829
X4.501Y-31.458
X6.474Y-27.696
X6.688Y-34.630
X7.292Y-39.952
X12.004Y-38.923
X12.573Y-25.441
X13.505Y-32.103
X14.077Y-27.056
X14.567Y-33.320
X15.316Y-36.617
X15.662Y-42.408
X17.633Y-29.441
X18.430Y-48.001
X18.608Y-94.938
X19.030Y-40.391
X19.352Y-17.048
X20.089Y-27.455
X21.019Y-23.515
X21.072Y-25.464
X21.212Y-55.725
X21.369Y-64.447
X21.402Y-76.898
X22.207Y-56.619
X23.137Y-62.870
X23.429Y-59.535
X24.534Y-39.781
X26.396Y-77.475
X27.526Y-40.244
X27.948Y-71.356
X28.293Y-75.722
X28.301Y-65.664
X28.301Y-91.531
X29.174Y-25.047
X29.388Y-19.174
X29.571Y-36.962
X29.604Y-48.105
X29.670Y-76.990
X29.718Y-46.881
X30.061Y-88.626
X30.066Y-87.295
X30.358Y-78.207
X30.381Y-58.014
X31.161Y-79.329
X31.222Y-29.469
X31.222Y-41.882
X31.326Y-23.592
X31.405Y-17.912
X32.123Y-35.057
X32.626Y-25.852
X32.662Y-64.016
X32.918Y-53.779
X33.279Y-78.859
X33.434Y-90.528
X33.762Y-81.633
X33.988Y-77.955
X34.227Y-23.990
X34.801Y-85.136
X35.420Y-92.601
X35.436Y-25.484
X36.556Y-16.561
X38.166Y-19.627
X39.040Y-18.824
X39.395Y-15.949
X39.441Y-14.661
X40.239Y-65.410
X41.168Y-72.895
X41.262Y-20.404
X41.432Y-24.803
X41.432Y-45.715
X42.085Y-19.601
X42.255Y-70.173
X42.436Y-75.801
X42.906Y-78.745
X42.923Y-22.626
X42.974Y-73.152
X43.457Y-74.379
X43.868Y-23.480
X44.544Y-90.924
X45.441Y-68.750
X45.519Y-20.892
X45.827Y-50.935
X46.213Y-38.933
X46.406Y-34.696
X46.662Y-21.227
X47.257Y-15.725
X47.351Y-33.685
X47.795Y-76.091
X48.057Y-24.356
X48.496Y-81.849
X50.043Y-38.405
X50.350Y-34.033
X50.490Y-24.163
X50.526Y-85.090
X51.118Y-21.001
X51.158Y-35.395
X51.778Y-38.644
X51.946Y-37.485
X52.126Y-46.363
X52.581Y-43.525
X52.794Y-31.811
X53.155Y-86.627
X53.200Y-34.300
X53.673Y-80.767
X54.011Y-79.190
X54.300Y-32.850
X54.333Y-85.019
X54.353Y-29.535
X55.156Y-49.764
X56.241Y-100.048
X56.622Y-48.148
X57.440Y-37.587
X57.531Y-47.338
X58.456Y-86.652
X60.607Y-30.706
X61.156Y-28.283
X61.204Y-83.904
X61.227Y-21.267
X61.892Y-91.846
X62.197Y-88.555
X62.464Y-74.237
X64.115Y-18.138
X64.115Y-39.690
X65.860Y-77.130
X66.746Y-20.223
X66.993Y-67.003
X67.051Y-75.491
X69.136Y-99.449
X69.568Y-91.989
X69.660Y-68.052
X72.187Y-98.552
X73.383Y-95.557
X75.471Y-67.168
X76.779Y-88.311
X77.721Y-40.790
X77.721Y-54.171
X79.007Y-74.168
X79.319Y-86.680
X80.023Y-46.002
X80.975Y-71.570
X83.302Y-64.600
X85.451Y-67.249
X86.484Y-89.124
X88.087Y-80.714
X88.781Y-71.890
X90.500Y-45.088
X90.604Y-77.335
X90.764Y-65.750
X91.826Y-60.051
X91.986Y-55.115
X92.728Y-82.840
X92.979Y-67.140
X93.325Y-24.541
X96.050Y-89.855
T2
X22.205Y-69.982
X22.205Y-75.062
X24.483Y-55.999
X27.023Y-55.999
X31.981Y-55.999
X34.521Y-55.999
X34.795Y-31.834
X34.795Y-36.914
X36.429Y-85.730
X36.429Y-88.270
X43.795Y-85.730
X43.795Y-88.270
X49.383Y-57.282
X49.383Y-59.822
X49.383Y-62.362
X77.323Y-35.438
X82.657Y-25.319
X82.657Y-30.317
X84.943Y-35.438
X89.690Y-50.000
X97.252Y-40.752
X97.252Y-45.750
X97.310Y-50.000
X107.041Y-54.742
X107.041Y-57.282
X107.041Y-59.822
X107.041Y-62.362
X107.041Y-64.902
X107.041Y-67.442
X107.041Y-69.982
X110.343Y-54.742
X110.343Y-57.282
X110.343Y-59.822
X110.343Y-62.362
X110.343Y-64.902
X110.343Y-67.442
X110.343Y-69.982
T3
X2.393Y-58.806
X4.933Y-58.806
X7.473Y-58.806
X10.013Y-58.806
X12.553Y-58.806
X15.093Y-58.806
X17.633Y-58.806
X20.490Y-47.503
X20.490Y-50.424
X23.030Y-47.503
X23.030Y-50.424
X25.570Y-47.503
X25.570Y-50.424
X31.085Y-10.422
X31.085Y-101.577
X32.456Y-7.577
X32.482Y-104.422
X33.853Y-10.422
X33.853Y-101.577
X35.225Y-7.577
X35.250Y-104.422
X36.622Y-10.422
X36.622Y-101.577
X37.993Y-7.577
X38.019Y-104.422
X39.390Y-10.422
X39.390Y-101.577
X40.762Y-7.577
X40.787Y-104.422
X42.159Y-10.422
X42.159Y-101.577
X43.531Y-7.577
X43.556Y-104.422
X44.928Y-10.422
X44.928Y-101.577
X46.299Y-7.577
X46.325Y-104.422
X47.696Y-10.422
X47.696Y-101.577
X49.068Y-7.577
X49.093Y-104.422
X49.383Y-44.582
X49.383Y-47.122
X49.383Y-49.662
X49.383Y-52.202
X49.383Y-54.742
X49.383Y-64.902
X49.383Y-67.442
X49.383Y-69.982
X49.383Y-72.522
X49.383Y-75.062
X50.465Y-10.422
X50.465Y-101.577
X51.836Y-7.577
X51.862Y-104.422
X53.233Y-10.422
X53.233Y-101.577
X54.605Y-7.577
X54.630Y-104.422
X56.002Y-10.422
X56.002Y-101.577
X57.374Y-7.577
X57.399Y-104.422
X58.771Y-10.422
X58.771Y-101.577
X58.999Y-94.498
X58.999Y-96.500
X60.142Y-7.577
X60.168Y-104.422
X61.001Y-94.498
X61.001Y-96.500
X61.539Y-10.422
X61.539Y-101.577
X62.911Y-7.577
X62.936Y-104.422
X63.000Y-94.498
X63.000Y-96.500
X64.308Y-10.422
X64.308Y-101.577
X65.001Y-94.498
X65.001Y-96.500
X65.679Y-7.577
X65.705Y-104.422
X67.000Y-94.498
X67.000Y-96.500
X67.076Y-10.422
X67.076Y-101.577
X68.448Y-7.577
X68.473Y-104.422
X69.002Y-94.498
X69.002Y-96.500
X69.845Y-10.422
X69.845Y-101.577
X71.217Y-7.577
X71.242Y-104.422
X72.614Y-10.422
X72.614Y-101.577
X73.985Y-7.577
X74.011Y-104.422
X75.382Y-10.422
X75.382Y-101.577
X76.754Y-7.577
X76.779Y-104.422
X78.151Y-10.422
X78.151Y-101.577
X79.522Y-7.577
X79.548Y-104.422
X80.919Y-10.422
X80.919Y-101.577
X88.245Y-18.420
X92.210Y-31.999
X93.325Y-18.420
X97.290Y-31.999
X103.360Y-80.251
X107.041Y-42.042
X107.041Y-44.582
X107.041Y-47.122
X107.041Y-49.662
X107.041Y-52.202
X108.440Y-80.251
X110.343Y-42.042
X110.343Y-44.582
X110.343Y-47.122
X110.343Y-49.662
X110.343Y-52.202
T4
X5.001Y-63.500
X5.001Y-68.499
X5.050Y-73.500
X5.050Y-78.499
T5
X24.125Y-103.000
X24.379Y-8.999
X87.625Y-103.000
X87.879Y-8.999
T0
M30
