G04 (created by PCBNEW-RS274X (2012-01-19 BZR 3256)-stable) date 11/12/2012 13:12:31*
G01*
G70*
G90*
%MOIN*%
G04 Gerber Fmt 3.4, Leading zero omitted, Abs format*
%FSLAX34Y34*%
G04 APERTURE LIST*
%ADD10C,0.006000*%
%ADD11C,0.015000*%
G04 APERTURE END LIST*
G54D10*
G54D11*
X01250Y00000D02*
X01226Y-00242D01*
X01155Y-00476D01*
X01041Y-00691D01*
X00886Y-00880D01*
X00698Y-01036D01*
X00484Y-01152D01*
X00251Y-01224D01*
X00008Y-01249D01*
X-00234Y-01227D01*
X-00468Y-01158D01*
X-00684Y-01045D01*
X-00874Y-00893D01*
X-01031Y-00706D01*
X-01148Y-00492D01*
X-01222Y-00259D01*
X-01249Y-00017D01*
X-01229Y00225D01*
X-01162Y00460D01*
X-01050Y00677D01*
X-00899Y00868D01*
X-00713Y01026D01*
X-00500Y01145D01*
X-00268Y01220D01*
X-00026Y01249D01*
X00217Y01231D01*
X00452Y01165D01*
X00669Y01055D01*
X00862Y00905D01*
X01021Y00720D01*
X01141Y00508D01*
X01218Y00276D01*
X01249Y00034D01*
X01250Y00000D01*
X-02500Y00000D02*
X02500Y00000D01*
X00000Y02500D02*
X00000Y-02500D01*
X05512Y-03543D02*
X09055Y00000D01*
X05512Y-07087D02*
X05512Y-03543D01*
X04331Y-08268D02*
X05512Y-07087D01*
X03149Y-08268D02*
X04331Y-08268D01*
X00000Y-11417D02*
X03149Y-08268D01*
X00000Y-32677D02*
X00000Y-11417D01*
X03150Y-35827D02*
X00000Y-32677D01*
X04331Y-35827D02*
X03150Y-35827D01*
X05512Y-37008D02*
X04331Y-35827D01*
X05512Y-40551D02*
X05512Y-37008D01*
X09055Y-44094D02*
X05512Y-40551D01*
X35040Y-44094D02*
X09055Y-44094D01*
X38583Y-40551D02*
X35040Y-44094D01*
X38583Y-37007D02*
X38583Y-40551D01*
X39764Y-35826D02*
X38583Y-37007D01*
X40945Y-35826D02*
X39764Y-35826D01*
X44094Y-32677D02*
X40945Y-35826D01*
X44094Y-11417D02*
X44094Y-32677D01*
X40945Y-08268D02*
X44094Y-11417D01*
X39764Y-08268D02*
X40945Y-08268D01*
X38583Y-07087D02*
X39764Y-08268D01*
X38583Y-03543D02*
X38583Y-07087D01*
X35040Y00000D02*
X38583Y-03543D01*
X09055Y00000D02*
X35040Y00000D01*
M02*
