G04 (created by PCBNEW-RS274X (2012-01-19 BZR 3256)-stable) date 11/12/2012 13:12:31*
G01*
G70*
G90*
%MOIN*%
G04 Gerber Fmt 3.4, Leading zero omitted, Abs format*
%FSLAX34Y34*%
G04 APERTURE LIST*
%ADD10C,0.006000*%
%ADD11C,0.015000*%
%ADD12R,0.056000X0.056000*%
%ADD13R,0.040000X0.065000*%
%ADD14R,0.065000X0.040000*%
%ADD15R,0.055000X0.075000*%
%ADD16R,0.075000X0.055000*%
%ADD17R,0.080000X0.080000*%
%ADD18C,0.080000*%
%ADD19C,0.086000*%
%ADD20C,0.170000*%
%ADD21R,0.075000X0.075000*%
%ADD22C,0.075000*%
%ADD23R,0.090000X0.090000*%
%ADD24C,0.090000*%
%ADD25R,0.118400X0.039600*%
%ADD26R,0.118400X0.098700*%
%ADD27R,0.051500X0.029800*%
%ADD28R,0.051500X0.029900*%
%ADD29R,0.029800X0.051500*%
%ADD30R,0.029900X0.051500*%
%ADD31R,0.030700X0.089700*%
%ADD32R,0.089700X0.030700*%
%ADD33C,0.110600*%
%ADD34R,0.035000X0.070000*%
%ADD35R,0.070000X0.035000*%
G04 APERTURE END LIST*
G54D10*
G54D11*
X01250Y00000D02*
X01226Y-00242D01*
X01155Y-00476D01*
X01041Y-00691D01*
X00886Y-00880D01*
X00698Y-01036D01*
X00484Y-01152D01*
X00251Y-01224D01*
X00008Y-01249D01*
X-00234Y-01227D01*
X-00468Y-01158D01*
X-00684Y-01045D01*
X-00874Y-00893D01*
X-01031Y-00706D01*
X-01148Y-00492D01*
X-01222Y-00259D01*
X-01249Y-00017D01*
X-01229Y00225D01*
X-01162Y00460D01*
X-01050Y00677D01*
X-00899Y00868D01*
X-00713Y01026D01*
X-00500Y01145D01*
X-00268Y01220D01*
X-00026Y01249D01*
X00217Y01231D01*
X00452Y01165D01*
X00669Y01055D01*
X00862Y00905D01*
X01021Y00720D01*
X01141Y00508D01*
X01218Y00276D01*
X01249Y00034D01*
X01250Y00000D01*
X-02500Y00000D02*
X02500Y00000D01*
X00000Y02500D02*
X00000Y-02500D01*
X05512Y-03543D02*
X09055Y00000D01*
X05512Y-07087D02*
X05512Y-03543D01*
X04331Y-08268D02*
X05512Y-07087D01*
X03149Y-08268D02*
X04331Y-08268D01*
X00000Y-11417D02*
X03149Y-08268D01*
X00000Y-32677D02*
X00000Y-11417D01*
X03150Y-35827D02*
X00000Y-32677D01*
X04331Y-35827D02*
X03150Y-35827D01*
X05512Y-37008D02*
X04331Y-35827D01*
X05512Y-40551D02*
X05512Y-37008D01*
X09055Y-44094D02*
X05512Y-40551D01*
X35040Y-44094D02*
X09055Y-44094D01*
X38583Y-40551D02*
X35040Y-44094D01*
X38583Y-37007D02*
X38583Y-40551D01*
X39764Y-35826D02*
X38583Y-37007D01*
X40945Y-35826D02*
X39764Y-35826D01*
X44094Y-32677D02*
X40945Y-35826D01*
X44094Y-11417D02*
X44094Y-32677D01*
X40945Y-08268D02*
X44094Y-11417D01*
X39764Y-08268D02*
X40945Y-08268D01*
X38583Y-07087D02*
X39764Y-08268D01*
X38583Y-03543D02*
X38583Y-07087D01*
X35040Y00000D02*
X38583Y-03543D01*
X09055Y00000D02*
X35040Y00000D01*
G54D12*
X25292Y-26852D03*
X25992Y-26852D03*
X25642Y-27652D03*
X22592Y-26752D03*
X23292Y-26752D03*
X22942Y-27552D03*
X29792Y-31752D03*
X30492Y-31752D03*
X30142Y-32552D03*
X27092Y-31752D03*
X27792Y-31752D03*
X27442Y-32552D03*
X23692Y-23552D03*
X24392Y-23552D03*
X24042Y-24352D03*
X28192Y-28552D03*
X28892Y-28552D03*
X28542Y-29352D03*
G54D13*
X23342Y-06952D03*
X23342Y-09052D03*
X23842Y-06952D03*
X24342Y-06952D03*
X24842Y-06952D03*
X23842Y-09052D03*
X24342Y-09052D03*
X24842Y-09052D03*
G54D14*
X34692Y-34502D03*
X36792Y-34502D03*
X34692Y-34002D03*
X34692Y-33502D03*
X34692Y-33002D03*
X36792Y-34002D03*
X36792Y-33502D03*
X36792Y-33002D03*
G54D13*
X25392Y-34302D03*
X25392Y-32202D03*
X24892Y-34302D03*
X24392Y-34302D03*
X23892Y-34302D03*
X24892Y-32202D03*
X24392Y-32202D03*
X23892Y-32202D03*
X20892Y-33002D03*
X20892Y-30902D03*
X20392Y-33002D03*
X19892Y-33002D03*
X19392Y-33002D03*
X20392Y-30902D03*
X19892Y-30902D03*
X19392Y-30902D03*
X29792Y-38302D03*
X29792Y-36202D03*
X29292Y-38302D03*
X28792Y-38302D03*
X28292Y-38302D03*
X29292Y-36202D03*
X28792Y-36202D03*
X28292Y-36202D03*
X21392Y-36802D03*
X21392Y-34702D03*
X20892Y-36802D03*
X20392Y-36802D03*
X19892Y-36802D03*
X20892Y-34702D03*
X20392Y-34702D03*
X19892Y-34702D03*
X17492Y-38402D03*
X17492Y-36302D03*
X16992Y-38402D03*
X16492Y-38402D03*
X15992Y-38402D03*
X16992Y-36302D03*
X16492Y-36302D03*
X15992Y-36302D03*
X13092Y-38502D03*
X13092Y-36402D03*
X12592Y-38502D03*
X12092Y-38502D03*
X11592Y-38502D03*
X12592Y-36402D03*
X12092Y-36402D03*
X11592Y-36402D03*
G54D14*
X11292Y-33902D03*
X09192Y-33902D03*
X11292Y-34402D03*
X11292Y-34902D03*
X11292Y-35402D03*
X09192Y-34402D03*
X09192Y-34902D03*
X09192Y-35402D03*
G54D13*
X38821Y-23521D03*
X38821Y-21421D03*
X38321Y-23521D03*
X37821Y-23521D03*
X37321Y-23521D03*
X38321Y-21421D03*
X37821Y-21421D03*
X37321Y-21421D03*
X33892Y-18002D03*
X33892Y-15902D03*
X33392Y-18002D03*
X32892Y-18002D03*
X32392Y-18002D03*
X33392Y-15902D03*
X32892Y-15902D03*
X32392Y-15902D03*
G54D15*
X05493Y-14173D03*
X04743Y-14173D03*
G54D16*
X03937Y-15767D03*
X03937Y-16517D03*
X23042Y-33627D03*
X23042Y-32877D03*
G54D15*
X36117Y-32052D03*
X35367Y-32052D03*
X14317Y-11602D03*
X15067Y-11602D03*
X33517Y-38552D03*
X32767Y-38552D03*
G54D16*
X32042Y-34127D03*
X32042Y-33377D03*
X32942Y-34127D03*
X32942Y-33377D03*
X33842Y-32527D03*
X33842Y-31777D03*
X18542Y-31577D03*
X18542Y-32327D03*
G54D15*
X12867Y-13118D03*
X12117Y-13118D03*
X26567Y-35652D03*
X27317Y-35652D03*
G54D16*
X08324Y-16898D03*
X08324Y-17648D03*
X12205Y-18129D03*
X12205Y-18879D03*
X09112Y-16898D03*
X09112Y-17648D03*
X09899Y-16898D03*
X09899Y-17648D03*
G54D15*
X07517Y-08668D03*
X06767Y-08668D03*
G54D16*
X19042Y-35377D03*
X19042Y-36127D03*
G54D15*
X11400Y-23032D03*
X10650Y-23032D03*
G54D16*
X20342Y-06227D03*
X20342Y-05477D03*
X16142Y-32977D03*
X16142Y-33727D03*
X15242Y-32977D03*
X15242Y-33727D03*
X14942Y-06227D03*
X14942Y-05477D03*
X20842Y-07727D03*
X20842Y-06977D03*
G54D15*
X09617Y-28902D03*
X10367Y-28902D03*
X12317Y-25052D03*
X11567Y-25052D03*
G54D16*
X13842Y-32077D03*
X13842Y-32827D03*
G54D15*
X11867Y-24052D03*
X12617Y-24052D03*
G54D16*
X13642Y-24277D03*
X13642Y-25027D03*
X14642Y-24277D03*
X14642Y-25027D03*
G54D15*
X18317Y-25552D03*
X17567Y-25552D03*
X18317Y-26552D03*
X17567Y-26552D03*
X18317Y-28552D03*
X17567Y-28552D03*
X18317Y-29552D03*
X17567Y-29552D03*
X03722Y-18111D03*
X02972Y-18111D03*
X04116Y-18898D03*
X03366Y-18898D03*
G54D16*
X04725Y-15767D03*
X04725Y-16517D03*
G54D15*
X05100Y-13386D03*
X04350Y-13386D03*
G54D16*
X26942Y-25177D03*
X26942Y-25927D03*
X25142Y-28477D03*
X25142Y-29227D03*
G54D15*
X23667Y-22652D03*
X24417Y-22652D03*
G54D16*
X26042Y-25177D03*
X26042Y-25927D03*
X25142Y-25177D03*
X25142Y-25927D03*
X15142Y-37077D03*
X15142Y-37827D03*
X10442Y-37377D03*
X10442Y-38127D03*
G54D15*
X09867Y-36352D03*
X10617Y-36352D03*
G54D16*
X18942Y-14127D03*
X18942Y-14877D03*
X18092Y-14127D03*
X18092Y-14877D03*
G54D15*
X07817Y-25652D03*
X07067Y-25652D03*
X07817Y-24752D03*
X07067Y-24752D03*
G54D16*
X35942Y-28827D03*
X35942Y-28077D03*
G54D15*
X23217Y-11952D03*
X22467Y-11952D03*
X23217Y-16552D03*
X22467Y-16552D03*
X24867Y-12752D03*
X25617Y-12752D03*
G54D16*
X25142Y-16827D03*
X25142Y-16077D03*
X21642Y-09877D03*
X21642Y-10627D03*
G54D15*
X24817Y-09902D03*
X25567Y-09902D03*
G54D16*
X22542Y-09877D03*
X22542Y-10627D03*
G54D15*
X25717Y-07402D03*
X26467Y-07402D03*
X25717Y-05602D03*
X26467Y-05602D03*
X25717Y-06502D03*
X26467Y-06502D03*
X14352Y-23032D03*
X13602Y-23032D03*
G54D16*
X28542Y-31777D03*
X28542Y-32527D03*
X28542Y-33377D03*
X28542Y-34127D03*
X30642Y-33377D03*
X30642Y-34127D03*
X28542Y-30177D03*
X28542Y-30927D03*
G54D15*
X33517Y-20752D03*
X32767Y-20752D03*
X33517Y-19852D03*
X32767Y-19852D03*
X33517Y-18952D03*
X32767Y-18952D03*
G54D16*
X31442Y-30177D03*
X31442Y-30927D03*
G54D15*
X28167Y-26852D03*
X28917Y-26852D03*
G54D16*
X27442Y-33377D03*
X27442Y-34127D03*
X29642Y-33377D03*
X29642Y-34127D03*
X30542Y-30177D03*
X30542Y-30927D03*
G54D15*
X28167Y-27652D03*
X28917Y-27652D03*
G54D16*
X29642Y-30177D03*
X29642Y-30927D03*
X24042Y-26777D03*
X24042Y-27527D03*
X24042Y-28477D03*
X24042Y-29227D03*
G54D15*
X31517Y-17552D03*
X30767Y-17552D03*
X31517Y-16652D03*
X30767Y-16652D03*
G54D16*
X24042Y-25177D03*
X24042Y-25927D03*
X26242Y-28477D03*
X26242Y-29227D03*
G54D15*
X23667Y-21752D03*
X24417Y-21752D03*
G54D16*
X22942Y-28477D03*
X22942Y-29227D03*
X32542Y-28927D03*
X32542Y-28177D03*
X26242Y-33627D03*
X26242Y-32877D03*
X22142Y-33177D03*
X22142Y-33927D03*
G54D15*
X35367Y-31152D03*
X36117Y-31152D03*
X16517Y-11602D03*
X15767Y-11602D03*
G54D16*
X21842Y-32327D03*
X21842Y-31577D03*
X33842Y-34127D03*
X33842Y-33377D03*
G54D15*
X15255Y-14320D03*
X14505Y-14320D03*
X15255Y-12746D03*
X14505Y-12746D03*
G54D16*
X30642Y-37627D03*
X30642Y-36877D03*
X31542Y-37627D03*
X31542Y-36877D03*
X22242Y-36127D03*
X22242Y-35377D03*
G54D15*
X32017Y-18952D03*
X31267Y-18952D03*
X32817Y-14952D03*
X32067Y-14952D03*
X35067Y-10152D03*
X35817Y-10152D03*
X31267Y-19852D03*
X32017Y-19852D03*
X32017Y-20752D03*
X31267Y-20752D03*
G54D16*
X18342Y-37727D03*
X18342Y-36977D03*
X19242Y-38227D03*
X19242Y-37477D03*
X13942Y-37827D03*
X13942Y-37077D03*
G54D15*
X10617Y-33052D03*
X09867Y-33052D03*
G54D16*
X09542Y-38127D03*
X09542Y-37377D03*
G54D15*
X35367Y-35352D03*
X36117Y-35352D03*
X23217Y-15352D03*
X22467Y-15352D03*
G54D16*
X11742Y-26177D03*
X11742Y-26927D03*
X15342Y-26177D03*
X15342Y-26927D03*
X15342Y-31127D03*
X15342Y-30377D03*
X16242Y-31127D03*
X16242Y-30377D03*
G54D15*
X36989Y-24311D03*
X36239Y-24311D03*
X37777Y-20669D03*
X37027Y-20669D03*
G54D16*
X35630Y-16554D03*
X35630Y-17304D03*
G54D15*
X11167Y-07052D03*
X11917Y-07052D03*
X16767Y-07152D03*
X17517Y-07152D03*
X36239Y-25098D03*
X36989Y-25098D03*
X36989Y-25886D03*
X36239Y-25886D03*
X09917Y-31452D03*
X09167Y-31452D03*
X07167Y-28152D03*
X07917Y-28152D03*
X07167Y-29052D03*
X07917Y-29052D03*
G54D16*
X40942Y-17777D03*
X40942Y-18527D03*
X40942Y-20777D03*
X40942Y-21527D03*
X01181Y-19113D03*
X01181Y-19863D03*
X04725Y-20491D03*
X04725Y-21241D03*
X05512Y-20491D03*
X05512Y-21241D03*
G54D15*
X03365Y-22047D03*
X04115Y-22047D03*
G54D16*
X11042Y-14577D03*
X11042Y-15327D03*
X06892Y-14677D03*
X06892Y-15427D03*
X07025Y-11113D03*
X07025Y-10363D03*
X06242Y-11127D03*
X06242Y-10377D03*
G54D15*
X38466Y-25886D03*
X37716Y-25886D03*
X38466Y-25098D03*
X37716Y-25098D03*
X38466Y-24311D03*
X37716Y-24311D03*
X36517Y-22252D03*
X35767Y-22252D03*
G54D16*
X10642Y-06227D03*
X10642Y-05477D03*
X16242Y-06227D03*
X16242Y-05477D03*
G54D15*
X36517Y-23152D03*
X35767Y-23152D03*
G54D16*
X11542Y-06227D03*
X11542Y-05477D03*
X17142Y-06227D03*
X17142Y-05477D03*
X12442Y-05477D03*
X12442Y-06227D03*
X18042Y-05477D03*
X18042Y-06227D03*
G54D15*
X09917Y-30552D03*
X09167Y-30552D03*
G54D16*
X13342Y-07727D03*
X13342Y-06977D03*
X19242Y-06227D03*
X19242Y-05477D03*
X13842Y-06227D03*
X13842Y-05477D03*
X19842Y-07727D03*
X19842Y-06977D03*
X14442Y-07727D03*
X14442Y-06977D03*
X22492Y-07627D03*
X22492Y-08377D03*
G54D15*
X23717Y-06002D03*
X24467Y-06002D03*
X23317Y-09902D03*
X24067Y-09902D03*
G54D16*
X26042Y-16077D03*
X26042Y-16827D03*
G54D15*
X25617Y-11852D03*
X24867Y-11852D03*
X23217Y-19852D03*
X22467Y-19852D03*
G54D17*
X00942Y-23152D03*
G54D18*
X01942Y-23152D03*
X02942Y-23152D03*
X03942Y-23152D03*
X04942Y-23152D03*
G54D17*
X19442Y-25552D03*
G54D18*
X19442Y-26552D03*
X19442Y-27552D03*
X19442Y-28552D03*
X19442Y-29552D03*
G54D17*
X10067Y-18702D03*
G54D18*
X09067Y-18702D03*
X08067Y-18702D03*
G54D17*
X10067Y-19852D03*
G54D18*
X09067Y-19852D03*
X08067Y-19852D03*
G54D17*
X05942Y-23152D03*
G54D18*
X06942Y-23152D03*
G54D19*
X17242Y-33752D03*
X17242Y-34752D03*
X14342Y-33752D03*
X14342Y-34752D03*
X10639Y-22047D03*
X09639Y-22047D03*
X13591Y-22047D03*
X12591Y-22047D03*
G54D17*
X12238Y-04103D03*
G54D18*
X13328Y-04103D03*
X14418Y-04103D03*
X15508Y-04103D03*
X16598Y-04103D03*
X17688Y-04103D03*
X18778Y-04103D03*
X19868Y-04103D03*
X20958Y-04103D03*
G54D20*
X09598Y-03543D03*
X34598Y-03543D03*
G54D18*
X22048Y-04103D03*
X23138Y-04103D03*
X24228Y-04103D03*
X25318Y-04103D03*
X26408Y-04103D03*
X27498Y-04103D03*
X28588Y-04103D03*
X29678Y-04103D03*
X30768Y-04103D03*
X31858Y-04103D03*
X12778Y-02983D03*
X13868Y-02983D03*
X14958Y-02983D03*
X16048Y-02983D03*
X17138Y-02983D03*
X18228Y-02983D03*
X19318Y-02983D03*
X20408Y-02983D03*
X21498Y-02983D03*
X22588Y-02983D03*
X23678Y-02983D03*
X24768Y-02983D03*
X25858Y-02983D03*
X26948Y-02983D03*
X28038Y-02983D03*
X29128Y-02983D03*
X30218Y-02983D03*
X31308Y-02983D03*
G54D17*
X31858Y-39991D03*
G54D18*
X30768Y-39991D03*
X29678Y-39991D03*
X28588Y-39991D03*
X27498Y-39991D03*
X26408Y-39991D03*
X25318Y-39991D03*
X24228Y-39991D03*
X23138Y-39991D03*
G54D20*
X34498Y-40551D03*
X09498Y-40551D03*
G54D18*
X22048Y-39991D03*
X20958Y-39991D03*
X19868Y-39991D03*
X18778Y-39991D03*
X17688Y-39991D03*
X16598Y-39991D03*
X15508Y-39991D03*
X14418Y-39991D03*
X13328Y-39991D03*
X12238Y-39991D03*
X31318Y-41111D03*
X30228Y-41111D03*
X29138Y-41111D03*
X28048Y-41111D03*
X26958Y-41111D03*
X25868Y-41111D03*
X24778Y-41111D03*
X23688Y-41111D03*
X22598Y-41111D03*
X21508Y-41111D03*
X20418Y-41111D03*
X19328Y-41111D03*
X18238Y-41111D03*
X17148Y-41111D03*
X16058Y-41111D03*
X14968Y-41111D03*
X13878Y-41111D03*
X12788Y-41111D03*
G54D21*
X33442Y-13952D03*
G54D22*
X30442Y-13952D03*
G54D21*
X38311Y-19685D03*
G54D22*
X35311Y-19685D03*
G54D23*
X42693Y-31595D03*
G54D24*
X40693Y-31595D03*
G54D22*
X08742Y-29552D03*
X08742Y-27552D03*
X13699Y-12533D03*
X13699Y-14533D03*
G54D17*
X43442Y-16552D03*
G54D18*
X43442Y-17552D03*
X43442Y-18552D03*
X43442Y-19552D03*
X43442Y-20552D03*
X43442Y-21552D03*
X43442Y-22552D03*
X43442Y-23552D03*
X43442Y-24552D03*
X43442Y-25552D03*
X43442Y-26552D03*
X43442Y-27552D03*
G54D17*
X42142Y-16552D03*
G54D18*
X42142Y-17552D03*
X42142Y-18552D03*
X42142Y-19552D03*
X42142Y-20552D03*
X42142Y-21552D03*
X42142Y-22552D03*
X42142Y-23552D03*
X42142Y-24552D03*
X42142Y-25552D03*
X42142Y-26552D03*
X42142Y-27552D03*
X38288Y-18012D03*
X38288Y-16044D03*
X32542Y-11936D03*
X32542Y-09968D03*
G54D25*
X02854Y-14697D03*
X02854Y-14383D03*
X02854Y-15326D03*
G54D26*
X00690Y-16468D03*
X00690Y-12926D03*
X02854Y-16429D03*
X02854Y-12926D03*
G54D25*
X02854Y-15011D03*
X02854Y-14068D03*
G54D27*
X11929Y-29734D03*
G54D28*
X11929Y-29537D03*
X11929Y-29340D03*
X11929Y-29143D03*
G54D27*
X11929Y-28947D03*
X11929Y-28750D03*
X11929Y-28554D03*
X11929Y-28357D03*
G54D28*
X11929Y-28161D03*
X11929Y-27964D03*
X11929Y-27767D03*
G54D27*
X11929Y-27570D03*
G54D29*
X12460Y-27039D03*
G54D30*
X12657Y-27039D03*
X12854Y-27039D03*
X13051Y-27039D03*
G54D29*
X13247Y-27039D03*
X13444Y-27039D03*
X13640Y-27039D03*
X13837Y-27039D03*
G54D30*
X14033Y-27039D03*
X14230Y-27039D03*
X14427Y-27039D03*
G54D29*
X14624Y-27039D03*
G54D27*
X15155Y-29734D03*
G54D28*
X15155Y-29537D03*
X15155Y-29340D03*
X15155Y-29143D03*
G54D27*
X15155Y-28947D03*
X15155Y-28750D03*
X15155Y-28554D03*
X15155Y-28357D03*
G54D28*
X15155Y-28161D03*
X15155Y-27964D03*
X15155Y-27767D03*
G54D27*
X15155Y-27570D03*
G54D29*
X12460Y-30265D03*
G54D30*
X12657Y-30265D03*
X12854Y-30265D03*
X13051Y-30265D03*
G54D29*
X13247Y-30265D03*
X13444Y-30265D03*
X13640Y-30265D03*
X13837Y-30265D03*
G54D30*
X14033Y-30265D03*
X14230Y-30265D03*
X14427Y-30265D03*
G54D29*
X14624Y-30265D03*
G54D27*
X10331Y-12057D03*
G54D28*
X10331Y-12254D03*
X10331Y-12451D03*
X10331Y-12648D03*
G54D27*
X10331Y-12844D03*
X10331Y-13041D03*
X10331Y-13237D03*
X10331Y-13434D03*
G54D28*
X10331Y-13630D03*
X10331Y-13827D03*
X10331Y-14024D03*
G54D27*
X10331Y-14221D03*
G54D29*
X09800Y-14752D03*
G54D30*
X09603Y-14752D03*
X09406Y-14752D03*
X09209Y-14752D03*
G54D29*
X09013Y-14752D03*
X08816Y-14752D03*
X08620Y-14752D03*
X08423Y-14752D03*
G54D30*
X08227Y-14752D03*
X08030Y-14752D03*
X07833Y-14752D03*
G54D29*
X07636Y-14752D03*
G54D27*
X07105Y-12057D03*
G54D28*
X07105Y-12254D03*
X07105Y-12451D03*
X07105Y-12648D03*
G54D27*
X07105Y-12844D03*
X07105Y-13041D03*
X07105Y-13237D03*
X07105Y-13434D03*
G54D28*
X07105Y-13630D03*
X07105Y-13827D03*
X07105Y-14024D03*
G54D27*
X07105Y-14221D03*
G54D29*
X09800Y-11526D03*
G54D30*
X09603Y-11526D03*
X09406Y-11526D03*
X09209Y-11526D03*
G54D29*
X09013Y-11526D03*
X08816Y-11526D03*
X08620Y-11526D03*
X08423Y-11526D03*
G54D30*
X08227Y-11526D03*
X08030Y-11526D03*
X07833Y-11526D03*
G54D29*
X07636Y-11526D03*
G54D31*
X02913Y-21103D03*
X02599Y-21103D03*
X02284Y-21103D03*
X01969Y-21103D03*
X03228Y-21103D03*
X03543Y-21103D03*
G54D32*
X03780Y-20473D03*
G54D31*
X02599Y-19843D03*
X02913Y-19843D03*
X03228Y-19843D03*
X03543Y-19843D03*
X02284Y-19843D03*
X01969Y-19843D03*
G54D32*
X01732Y-20473D03*
G54D18*
X27166Y-37204D03*
X26378Y-37204D03*
X25591Y-37204D03*
X24803Y-37204D03*
X24016Y-37204D03*
X23228Y-37204D03*
X27166Y-37992D03*
X26378Y-37992D03*
X25591Y-37992D03*
X24803Y-37992D03*
X24016Y-37992D03*
X23228Y-37992D03*
G54D33*
X01969Y-26968D03*
X01969Y-25000D03*
X01988Y-30905D03*
X01988Y-28937D03*
G54D17*
X19442Y-17552D03*
G54D18*
X19442Y-18552D03*
X19442Y-19552D03*
X19442Y-20552D03*
X19442Y-21552D03*
X19442Y-22552D03*
X19442Y-23552D03*
X19442Y-24552D03*
G54D16*
X18242Y-18677D03*
X18242Y-19427D03*
X18242Y-20677D03*
X18242Y-21427D03*
X18242Y-22677D03*
X18242Y-23427D03*
G54D23*
X38303Y-12598D03*
G54D24*
X36303Y-12598D03*
G54D23*
X34742Y-07252D03*
G54D24*
X36742Y-07252D03*
G54D34*
X33858Y-29402D03*
X34114Y-29402D03*
X34370Y-29402D03*
X34626Y-29402D03*
X34626Y-27702D03*
X34370Y-27702D03*
X34114Y-27702D03*
X33858Y-27702D03*
G54D35*
X23692Y-14036D03*
X23692Y-13780D03*
X23692Y-13524D03*
X23692Y-13268D03*
X21992Y-13268D03*
X21992Y-13524D03*
X21992Y-13780D03*
X21992Y-14036D03*
X23692Y-18536D03*
X23692Y-18280D03*
X23692Y-18024D03*
X23692Y-17768D03*
X21992Y-17768D03*
X21992Y-18024D03*
X21992Y-18280D03*
X21992Y-18536D03*
M02*
