<?xml version="1.0" standalone="no"?>
<!DOCTYPE svg PUBLIC "-//W3C//DTD SVG 20010904//EN" 
"http://www.w3.org/TR/2001/REC-SVG-20010904/DTD/svg10.dtd"> 
<svg xmlns="http://www.w3.org/2000/svg" xmlns:xlink="http://www.w3.org/1999/xlink" 
    width="29.72cm" height="21.00cm" viewBox="0 0 11700 8267 "> 
<title>SVG Picture created as cable-power.svg </title>
<desc>Picture generated by wxSVG v0100 </desc>
<g style="fill:black; stroke:black; stroke-width:1">
</g>
<g style="fill:#000000; fill-opacity:0.0; stroke:#000000; stroke-opacity:1.00; stroke-linecap:round; stroke-linejoin:round; stroke-width:6" 
   transform="translate(0.00 0.00) scale(1.00 1.00)">
<path d="M4800 4100 L6300 4100" /> 
</g>
<g style="fill:#000000; fill-opacity:1.00; stroke:#000000; stroke-opacity:1.00; stroke-linecap:round; stroke-linejoin:round; stroke-width:0" 
   transform="translate(0.00 0.00) scale(1.00 1.00)">
<ellipse cx="6200" cy="4100" rx="16" ry="16"  /> 
</g>
<g style="fill:#000000; fill-opacity:1.00; stroke:#000000; stroke-opacity:1.00; stroke-linecap:round; stroke-linejoin:round; stroke-width:6" 
   transform="translate(0.00 0.00) scale(1.00 1.00)">
<path d="M6300 4000 L6200 4000" /> 
<path d="M6200 4000 L6200 4200" /> 
</g>
<g style="fill:#000000; fill-opacity:1.00; stroke:#000000; stroke-opacity:1.00; stroke-linecap:round; stroke-linejoin:round; stroke-width:0" 
   transform="translate(0.00 0.00) scale(1.00 1.00)">
<ellipse cx="6200" cy="3800" rx="16" ry="16"  /> 
</g>
<g style="fill:#000000; fill-opacity:1.00; stroke:#000000; stroke-opacity:1.00; stroke-linecap:round; stroke-linejoin:round; stroke-width:6" 
   transform="translate(0.00 0.00) scale(1.00 1.00)">
<path d="M6300 3900 L6200 3900" /> 
<path d="M6200 3900 L6200 3700" /> 
</g>
<g style="fill:#000000; fill-opacity:1.00; stroke:#000000; stroke-opacity:1.00; stroke-linecap:round; stroke-linejoin:round; stroke-width:0" 
   transform="translate(0.00 0.00) scale(1.00 1.00)">
<ellipse cx="4900" cy="4100" rx="16" ry="16"  /> 
</g>
<g style="fill:#000000; fill-opacity:1.00; stroke:#000000; stroke-opacity:1.00; stroke-linecap:round; stroke-linejoin:round; stroke-width:6" 
   transform="translate(0.00 0.00) scale(1.00 1.00)">
<path d="M4800 4000 L4900 4000" /> 
<path d="M4900 4000 L4900 4200" /> 
</g>
<g style="fill:#000000; fill-opacity:1.00; stroke:#000000; stroke-opacity:1.00; stroke-linecap:round; stroke-linejoin:round; stroke-width:0" 
   transform="translate(0.00 0.00) scale(1.00 1.00)">
<ellipse cx="4900" cy="3800" rx="16" ry="16"  /> 
</g>
<g style="fill:#000000; fill-opacity:1.00; stroke:#000000; stroke-opacity:1.00; stroke-linecap:round; stroke-linejoin:round; stroke-width:6" 
   transform="translate(0.00 0.00) scale(1.00 1.00)">
<path d="M4800 3900 L4900 3900" /> 
<path d="M4900 3900 L4900 3700" /> 
<path d="M4900 3700 L4800 3700" /> 
<path d="M4900 4200 L4800 4200" /> 
<path d="M6200 3700 L6300 3700" /> 
<path d="M6200 4200 L6300 4200" /> 
<path d="M6300 3800 L4800 3800" /> 
</g>
<g style="fill:#000000; fill-opacity:0.0; stroke:#000000; stroke-opacity:1.00; stroke-linecap:round; stroke-linejoin:round; stroke-width:6" 
   transform="translate(0.00 0.00) scale(1.00 1.00)">
<polygon style="fill-rule:evenodd; " 
points="4550,3650
4550,3650
4550,4250
4350,4250
4350,3650
" /> 
<ellipse cx="4585" cy="3700" rx="35" ry="35"  /> 
<path d="M4620 3700 L4800 3700" /> 
<path d="M4693 3684 L4658 3684" /> 
<g style = "stroke-linecap:round;" > 
<path d="M4658 3684 L4658 3684" /> 
</g><path d="M4676 3684 L4676 3624" /> 
<path d="M4676 3624 L4670 3633" /> 
<path d="M4670 3633 L4664 3639" /> 
<path d="M4664 3639 L4658 3641" /> 
<g style = "stroke-linecap:round;" > 
<path d="M4658 3641 L4658 3641" /> 
</g><ellipse cx="4585" cy="3800" rx="35" ry="35"  /> 
<path d="M4620 3800 L4800 3800" /> 
<path d="M4658 3730 L4661 3727" /> 
<path d="M4661 3727 L4667 3724" /> 
<path d="M4667 3724 L4681 3724" /> 
<path d="M4681 3724 L4687 3727" /> 
<path d="M4687 3727 L4690 3730" /> 
<path d="M4690 3730 L4693 3736" /> 
<path d="M4693 3736 L4693 3741" /> 
<path d="M4693 3741 L4690 3750" /> 
<path d="M4690 3750 L4656 3784" /> 
<path d="M4656 3784 L4693 3784" /> 
<g style = "stroke-linecap:round;" > 
<path d="M4693 3784 L4693 3784" /> 
</g><ellipse cx="4585" cy="3900" rx="35" ry="35"  /> 
<path d="M4620 3900 L4800 3900" /> 
<path d="M4656 3824 L4693 3824" /> 
<path d="M4693 3824 L4673 3847" /> 
<path d="M4673 3847 L4681 3847" /> 
<path d="M4681 3847 L4687 3850" /> 
<path d="M4687 3850 L4690 3853" /> 
<path d="M4690 3853 L4693 3859" /> 
<path d="M4693 3859 L4693 3873" /> 
<path d="M4693 3873 L4690 3879" /> 
<path d="M4690 3879 L4687 3881" /> 
<path d="M4687 3881 L4681 3884" /> 
<path d="M4681 3884 L4664 3884" /> 
<path d="M4664 3884 L4658 3881" /> 
<path d="M4658 3881 L4656 3879" /> 
<g style = "stroke-linecap:round;" > 
<path d="M4656 3879 L4656 3879" /> 
</g><ellipse cx="4585" cy="4000" rx="35" ry="35"  /> 
<path d="M4620 4000 L4800 4000" /> 
<path d="M4687 3944 L4687 3984" /> 
<g style = "stroke-linecap:round;" > 
<path d="M4687 3984 L4687 3984" /> 
</g><path d="M4673 3921 L4658 3964" /> 
<path d="M4658 3964 L4696 3964" /> 
<g style = "stroke-linecap:round;" > 
<path d="M4696 3964 L4696 3964" /> 
</g><ellipse cx="4585" cy="4100" rx="35" ry="35"  /> 
<path d="M4620 4100 L4800 4100" /> 
<path d="M4690 4024 L4661 4024" /> 
<path d="M4661 4024 L4658 4053" /> 
<path d="M4658 4053 L4661 4050" /> 
<path d="M4661 4050 L4667 4047" /> 
<path d="M4667 4047 L4681 4047" /> 
<path d="M4681 4047 L4687 4050" /> 
<path d="M4687 4050 L4690 4053" /> 
<path d="M4690 4053 L4693 4059" /> 
<path d="M4693 4059 L4693 4073" /> 
<path d="M4693 4073 L4690 4079" /> 
<path d="M4690 4079 L4687 4081" /> 
<path d="M4687 4081 L4681 4084" /> 
<path d="M4681 4084 L4667 4084" /> 
<path d="M4667 4084 L4661 4081" /> 
<path d="M4661 4081 L4658 4079" /> 
<g style = "stroke-linecap:round;" > 
<path d="M4658 4079 L4658 4079" /> 
</g><ellipse cx="4585" cy="4200" rx="35" ry="35"  /> 
<path d="M4620 4200 L4800 4200" /> 
<path d="M4687 4124 L4676 4124" /> 
<path d="M4676 4124 L4670 4127" /> 
<path d="M4670 4127 L4667 4130" /> 
<path d="M4667 4130 L4661 4139" /> 
<path d="M4661 4139 L4658 4150" /> 
<path d="M4658 4150 L4658 4173" /> 
<path d="M4658 4173 L4661 4179" /> 
<path d="M4661 4179 L4664 4181" /> 
<path d="M4664 4181 L4670 4184" /> 
<path d="M4670 4184 L4681 4184" /> 
<path d="M4681 4184 L4687 4181" /> 
<path d="M4687 4181 L4690 4179" /> 
<path d="M4690 4179 L4693 4173" /> 
<path d="M4693 4173 L4693 4159" /> 
<path d="M4693 4159 L4690 4153" /> 
<path d="M4690 4153 L4687 4150" /> 
<path d="M4687 4150 L4681 4147" /> 
<path d="M4681 4147 L4670 4147" /> 
<path d="M4670 4147 L4664 4150" /> 
<path d="M4664 4150 L4661 4153" /> 
<path d="M4661 4153 L4658 4159" /> 
<g style = "stroke-linecap:round;" > 
<path d="M4658 4159 L4658 4159" /> 
</g><path d="M4527 3990 L4467 3990" /> 
<path d="M4467 3990 L4467 3967" /> 
<path d="M4467 3967 L4470 3961" /> 
<path d="M4470 3961 L4473 3958" /> 
<path d="M4473 3958 L4479 3955" /> 
<path d="M4479 3955 L4487 3955" /> 
<path d="M4487 3955 L4493 3958" /> 
<path d="M4493 3958 L4496 3961" /> 
<path d="M4496 3961 L4499 3967" /> 
<path d="M4499 3967 L4499 3990" /> 
<g style = "stroke-linecap:round;" > 
<path d="M4499 3990 L4499 3990" /> 
</g><path d="M4522 3921 L4524 3918" /> 
<path d="M4524 3918 L4527 3921" /> 
<path d="M4527 3921 L4524 3924" /> 
<path d="M4524 3924 L4522 3921" /> 
<path d="M4522 3921 L4527 3921" /> 
<g style = "stroke-linecap:round;" > 
<path d="M4527 3921 L4527 3921" /> 
</g><path d="M4470 3933 L4467 3927" /> 
<path d="M4467 3927 L4467 3913" /> 
<path d="M4467 3913 L4470 3907" /> 
<path d="M4470 3907 L4476 3904" /> 
<path d="M4476 3904 L4482 3904" /> 
<path d="M4482 3904 L4487 3907" /> 
<path d="M4487 3907 L4490 3910" /> 
<path d="M4490 3910 L4493 3915" /> 
<path d="M4493 3915 L4496 3918" /> 
<path d="M4496 3918 L4502 3921" /> 
<path d="M4502 3921 L4504 3921" /> 
<g style = "stroke-linecap:round;" > 
<path d="M4504 3921 L4504 3921" /> 
</g><path d="M4422 4077 L4424 4080" /> 
<path d="M4424 4080 L4427 4089" /> 
<path d="M4427 4089 L4427 4095" /> 
<path d="M4427 4095 L4424 4103" /> 
<path d="M4424 4103 L4419 4109" /> 
<path d="M4419 4109 L4413 4112" /> 
<path d="M4413 4112 L4402 4115" /> 
<path d="M4402 4115 L4393 4115" /> 
<path d="M4393 4115 L4382 4112" /> 
<path d="M4382 4112 L4376 4109" /> 
<path d="M4376 4109 L4370 4103" /> 
<path d="M4370 4103 L4367 4095" /> 
<path d="M4367 4095 L4367 4089" /> 
<path d="M4367 4089 L4370 4080" /> 
<path d="M4370 4080 L4373 4077" /> 
<g style = "stroke-linecap:round;" > 
<path d="M4373 4077 L4373 4077" /> 
</g><path d="M4367 4040 L4367 4029" /> 
<path d="M4367 4029 L4370 4023" /> 
<path d="M4370 4023 L4376 4017" /> 
<path d="M4376 4017 L4387 4015" /> 
<path d="M4387 4015 L4407 4015" /> 
<path d="M4407 4015 L4419 4017" /> 
<path d="M4419 4017 L4424 4023" /> 
<path d="M4424 4023 L4427 4029" /> 
<path d="M4427 4029 L4427 4040" /> 
<path d="M4427 4040 L4424 4046" /> 
<path d="M4424 4046 L4419 4052" /> 
<path d="M4419 4052 L4407 4055" /> 
<path d="M4407 4055 L4387 4055" /> 
<path d="M4387 4055 L4376 4052" /> 
<path d="M4376 4052 L4370 4046" /> 
<path d="M4370 4046 L4367 4040" /> 
<path d="M4427 3989 L4367 3989" /> 
<path d="M4367 3989 L4427 3954" /> 
<path d="M4427 3954 L4367 3954" /> 
<g style = "stroke-linecap:round;" > 
<path d="M4367 3954 L4367 3954" /> 
</g><path d="M4427 3926 L4367 3926" /> 
<path d="M4367 3926 L4427 3891" /> 
<path d="M4427 3891 L4367 3891" /> 
<g style = "stroke-linecap:round;" > 
<path d="M4367 3891 L4367 3891" /> 
</g><path d="M4433 3877 L4433 3831" /> 
<g style = "stroke-linecap:round;" > 
<path d="M4433 3831 L4433 3831" /> 
</g><path d="M4367 3791 L4367 3802" /> 
<path d="M4367 3802 L4370 3808" /> 
<path d="M4370 3808 L4373 3811" /> 
<path d="M4373 3811 L4382 3817" /> 
<path d="M4382 3817 L4393 3820" /> 
<path d="M4393 3820 L4416 3820" /> 
<path d="M4416 3820 L4422 3817" /> 
<path d="M4422 3817 L4424 3814" /> 
<path d="M4424 3814 L4427 3808" /> 
<path d="M4427 3808 L4427 3797" /> 
<path d="M4427 3797 L4424 3791" /> 
<path d="M4424 3791 L4422 3788" /> 
<path d="M4422 3788 L4416 3785" /> 
<path d="M4416 3785 L4402 3785" /> 
<path d="M4402 3785 L4396 3788" /> 
<path d="M4396 3788 L4393 3791" /> 
<path d="M4393 3791 L4390 3797" /> 
<path d="M4390 3797 L4390 3808" /> 
<path d="M4390 3808 L4393 3814" /> 
<path d="M4393 3814 L4396 3817" /> 
<path d="M4396 3817 L4402 3820" /> 
<g style = "stroke-linecap:round;" > 
<path d="M4402 3820 L4402 3820" /> 
</g><polygon style="fill-rule:evenodd; " 
points="6550,3650
6550,3650
6550,4250
6750,4250
6750,3650
" /> 
<ellipse cx="6515" cy="3700" rx="35" ry="35"  /> 
<path d="M6480 3700 L6300 3700" /> 
<path d="M6443 3684 L6408 3684" /> 
<g style = "stroke-linecap:round;" > 
<path d="M6408 3684 L6408 3684" /> 
</g><path d="M6426 3684 L6426 3624" /> 
<path d="M6426 3624 L6420 3633" /> 
<path d="M6420 3633 L6414 3639" /> 
<path d="M6414 3639 L6408 3641" /> 
<g style = "stroke-linecap:round;" > 
<path d="M6408 3641 L6408 3641" /> 
</g><ellipse cx="6515" cy="3800" rx="35" ry="35"  /> 
<path d="M6480 3800 L6300 3800" /> 
<path d="M6408 3730 L6411 3727" /> 
<path d="M6411 3727 L6417 3724" /> 
<path d="M6417 3724 L6431 3724" /> 
<path d="M6431 3724 L6437 3727" /> 
<path d="M6437 3727 L6440 3730" /> 
<path d="M6440 3730 L6443 3736" /> 
<path d="M6443 3736 L6443 3741" /> 
<path d="M6443 3741 L6440 3750" /> 
<path d="M6440 3750 L6406 3784" /> 
<path d="M6406 3784 L6443 3784" /> 
<g style = "stroke-linecap:round;" > 
<path d="M6443 3784 L6443 3784" /> 
</g><ellipse cx="6515" cy="3900" rx="35" ry="35"  /> 
<path d="M6480 3900 L6300 3900" /> 
<path d="M6406 3824 L6443 3824" /> 
<path d="M6443 3824 L6423 3847" /> 
<path d="M6423 3847 L6431 3847" /> 
<path d="M6431 3847 L6437 3850" /> 
<path d="M6437 3850 L6440 3853" /> 
<path d="M6440 3853 L6443 3859" /> 
<path d="M6443 3859 L6443 3873" /> 
<path d="M6443 3873 L6440 3879" /> 
<path d="M6440 3879 L6437 3881" /> 
<path d="M6437 3881 L6431 3884" /> 
<path d="M6431 3884 L6414 3884" /> 
<path d="M6414 3884 L6408 3881" /> 
<path d="M6408 3881 L6406 3879" /> 
<g style = "stroke-linecap:round;" > 
<path d="M6406 3879 L6406 3879" /> 
</g><ellipse cx="6515" cy="4000" rx="35" ry="35"  /> 
<path d="M6480 4000 L6300 4000" /> 
<path d="M6437 3944 L6437 3984" /> 
<g style = "stroke-linecap:round;" > 
<path d="M6437 3984 L6437 3984" /> 
</g><path d="M6423 3921 L6408 3964" /> 
<path d="M6408 3964 L6446 3964" /> 
<g style = "stroke-linecap:round;" > 
<path d="M6446 3964 L6446 3964" /> 
</g><ellipse cx="6515" cy="4100" rx="35" ry="35"  /> 
<path d="M6480 4100 L6300 4100" /> 
<path d="M6440 4024 L6411 4024" /> 
<path d="M6411 4024 L6408 4053" /> 
<path d="M6408 4053 L6411 4050" /> 
<path d="M6411 4050 L6417 4047" /> 
<path d="M6417 4047 L6431 4047" /> 
<path d="M6431 4047 L6437 4050" /> 
<path d="M6437 4050 L6440 4053" /> 
<path d="M6440 4053 L6443 4059" /> 
<path d="M6443 4059 L6443 4073" /> 
<path d="M6443 4073 L6440 4079" /> 
<path d="M6440 4079 L6437 4081" /> 
<path d="M6437 4081 L6431 4084" /> 
<path d="M6431 4084 L6417 4084" /> 
<path d="M6417 4084 L6411 4081" /> 
<path d="M6411 4081 L6408 4079" /> 
<g style = "stroke-linecap:round;" > 
<path d="M6408 4079 L6408 4079" /> 
</g><ellipse cx="6515" cy="4200" rx="35" ry="35"  /> 
<path d="M6480 4200 L6300 4200" /> 
<path d="M6437 4124 L6426 4124" /> 
<path d="M6426 4124 L6420 4127" /> 
<path d="M6420 4127 L6417 4130" /> 
<path d="M6417 4130 L6411 4139" /> 
<path d="M6411 4139 L6408 4150" /> 
<path d="M6408 4150 L6408 4173" /> 
<path d="M6408 4173 L6411 4179" /> 
<path d="M6411 4179 L6414 4181" /> 
<path d="M6414 4181 L6420 4184" /> 
<path d="M6420 4184 L6431 4184" /> 
<path d="M6431 4184 L6437 4181" /> 
<path d="M6437 4181 L6440 4179" /> 
<path d="M6440 4179 L6443 4173" /> 
<path d="M6443 4173 L6443 4159" /> 
<path d="M6443 4159 L6440 4153" /> 
<path d="M6440 4153 L6437 4150" /> 
<path d="M6437 4150 L6431 4147" /> 
<path d="M6431 4147 L6420 4147" /> 
<path d="M6420 4147 L6414 4150" /> 
<path d="M6414 4150 L6411 4153" /> 
<path d="M6411 4153 L6408 4159" /> 
<g style = "stroke-linecap:round;" > 
<path d="M6408 4159 L6408 4159" /> 
</g><path d="M6621 3990 L6561 3990" /> 
<path d="M6561 3990 L6561 3967" /> 
<path d="M6561 3967 L6564 3961" /> 
<path d="M6564 3961 L6567 3958" /> 
<path d="M6567 3958 L6573 3955" /> 
<path d="M6573 3955 L6581 3955" /> 
<path d="M6581 3955 L6587 3958" /> 
<path d="M6587 3958 L6590 3961" /> 
<path d="M6590 3961 L6593 3967" /> 
<path d="M6593 3967 L6593 3990" /> 
<g style = "stroke-linecap:round;" > 
<path d="M6593 3990 L6593 3990" /> 
</g><path d="M6616 3921 L6618 3918" /> 
<path d="M6618 3918 L6621 3921" /> 
<path d="M6621 3921 L6618 3924" /> 
<path d="M6618 3924 L6616 3921" /> 
<path d="M6616 3921 L6621 3921" /> 
<g style = "stroke-linecap:round;" > 
<path d="M6621 3921 L6621 3921" /> 
</g><path d="M6564 3933 L6561 3927" /> 
<path d="M6561 3927 L6561 3913" /> 
<path d="M6561 3913 L6564 3907" /> 
<path d="M6564 3907 L6570 3904" /> 
<path d="M6570 3904 L6576 3904" /> 
<path d="M6576 3904 L6581 3907" /> 
<path d="M6581 3907 L6584 3910" /> 
<path d="M6584 3910 L6587 3915" /> 
<path d="M6587 3915 L6590 3918" /> 
<path d="M6590 3918 L6596 3921" /> 
<path d="M6596 3921 L6598 3921" /> 
<g style = "stroke-linecap:round;" > 
<path d="M6598 3921 L6598 3921" /> 
</g><path d="M6716 4077 L6718 4080" /> 
<path d="M6718 4080 L6721 4089" /> 
<path d="M6721 4089 L6721 4095" /> 
<path d="M6721 4095 L6718 4103" /> 
<path d="M6718 4103 L6713 4109" /> 
<path d="M6713 4109 L6707 4112" /> 
<path d="M6707 4112 L6696 4115" /> 
<path d="M6696 4115 L6687 4115" /> 
<path d="M6687 4115 L6676 4112" /> 
<path d="M6676 4112 L6670 4109" /> 
<path d="M6670 4109 L6664 4103" /> 
<path d="M6664 4103 L6661 4095" /> 
<path d="M6661 4095 L6661 4089" /> 
<path d="M6661 4089 L6664 4080" /> 
<path d="M6664 4080 L6667 4077" /> 
<g style = "stroke-linecap:round;" > 
<path d="M6667 4077 L6667 4077" /> 
</g><path d="M6661 4040 L6661 4029" /> 
<path d="M6661 4029 L6664 4023" /> 
<path d="M6664 4023 L6670 4017" /> 
<path d="M6670 4017 L6681 4015" /> 
<path d="M6681 4015 L6701 4015" /> 
<path d="M6701 4015 L6713 4017" /> 
<path d="M6713 4017 L6718 4023" /> 
<path d="M6718 4023 L6721 4029" /> 
<path d="M6721 4029 L6721 4040" /> 
<path d="M6721 4040 L6718 4046" /> 
<path d="M6718 4046 L6713 4052" /> 
<path d="M6713 4052 L6701 4055" /> 
<path d="M6701 4055 L6681 4055" /> 
<path d="M6681 4055 L6670 4052" /> 
<path d="M6670 4052 L6664 4046" /> 
<path d="M6664 4046 L6661 4040" /> 
<path d="M6721 3989 L6661 3989" /> 
<path d="M6661 3989 L6721 3954" /> 
<path d="M6721 3954 L6661 3954" /> 
<g style = "stroke-linecap:round;" > 
<path d="M6661 3954 L6661 3954" /> 
</g><path d="M6721 3926 L6661 3926" /> 
<path d="M6661 3926 L6721 3891" /> 
<path d="M6721 3891 L6661 3891" /> 
<g style = "stroke-linecap:round;" > 
<path d="M6661 3891 L6661 3891" /> 
</g><path d="M6727 3877 L6727 3831" /> 
<g style = "stroke-linecap:round;" > 
<path d="M6727 3831 L6727 3831" /> 
</g><path d="M6661 3791 L6661 3802" /> 
<path d="M6661 3802 L6664 3808" /> 
<path d="M6664 3808 L6667 3811" /> 
<path d="M6667 3811 L6676 3817" /> 
<path d="M6676 3817 L6687 3820" /> 
<path d="M6687 3820 L6710 3820" /> 
<path d="M6710 3820 L6716 3817" /> 
<path d="M6716 3817 L6718 3814" /> 
<path d="M6718 3814 L6721 3808" /> 
<path d="M6721 3808 L6721 3797" /> 
<path d="M6721 3797 L6718 3791" /> 
<path d="M6718 3791 L6716 3788" /> 
<path d="M6716 3788 L6710 3785" /> 
<path d="M6710 3785 L6696 3785" /> 
<path d="M6696 3785 L6690 3788" /> 
<path d="M6690 3788 L6687 3791" /> 
<path d="M6687 3791 L6684 3797" /> 
<path d="M6684 3797 L6684 3808" /> 
<path d="M6684 3808 L6687 3814" /> 
<path d="M6687 3814 L6690 3817" /> 
<path d="M6690 3817 L6696 3820" /> 
<g style = "stroke-linecap:round;" > 
<path d="M6696 3820 L6696 3820" /> 
</g></g> 
</svg> 
