G75*
G70*
%OFA0B0*%
%FSLAX24Y24*%
%IPPOS*%
%LPD*%
%AMOC8*
5,1,8,0,0,1.08239X$1,22.5*
%
%ADD10C,0.1084*%
%ADD11C,0.0595*%
%ADD12R,0.0710X0.0790*%
%ADD13R,0.1143X0.0710*%
%ADD14R,0.0710X0.0789*%
%ADD15OC8,0.0785*%
%ADD16C,0.0674*%
%ADD17C,0.0986*%
%ADD18C,0.2380*%
%ADD19C,0.0674*%
%ADD20R,0.0790X0.0710*%
%ADD21C,0.1080*%
%ADD22C,0.0476*%
D10*
X004087Y002862D03*
X005646Y002862D03*
X007206Y002862D03*
X008765Y002862D03*
X010568Y002862D03*
X012127Y002862D03*
X013914Y002862D03*
X015473Y002862D03*
X017261Y002862D03*
X018820Y002862D03*
X012686Y021957D03*
X011127Y021957D03*
X009568Y021957D03*
X008009Y021957D03*
X006450Y021957D03*
X004891Y021957D03*
D11*
X014843Y022217D03*
X014843Y021217D03*
X014843Y023217D03*
X020843Y022217D03*
X020843Y021217D03*
X020843Y015217D03*
X020843Y013217D03*
X014843Y013217D03*
X014843Y015217D03*
D12*
X012694Y018217D03*
X011575Y018217D03*
X011575Y019398D03*
X012694Y019398D03*
D13*
X022961Y021610D03*
X022961Y022713D03*
D14*
X016229Y010343D03*
X015127Y010343D03*
X015127Y008768D03*
X016229Y008768D03*
D15*
X018320Y009768D03*
X019320Y008768D03*
X020320Y007768D03*
X021320Y008768D03*
X020320Y009768D03*
X018320Y007768D03*
D16*
X021583Y005614D03*
X022568Y005614D03*
X023355Y005614D03*
X024339Y005614D03*
D17*
X025548Y004547D03*
X020375Y004547D03*
D18*
X001800Y002508D03*
X001800Y022508D03*
X026800Y022508D03*
X026800Y002508D03*
D19*
X026998Y012992D02*
X026405Y012992D01*
X026405Y013992D02*
X026998Y013992D01*
X026998Y016535D02*
X026405Y016535D01*
X026405Y017535D02*
X026998Y017535D01*
D20*
X027095Y019231D03*
X027095Y020351D03*
X025717Y020351D03*
X025717Y019231D03*
D21*
X024052Y020383D02*
X023052Y020383D01*
X023052Y011523D02*
X024052Y011523D01*
X012635Y007684D02*
X011635Y007684D01*
X009288Y007684D02*
X008288Y007684D01*
X005942Y007684D02*
X004942Y007684D01*
X002595Y007684D02*
X001595Y007684D01*
X001595Y016544D02*
X002595Y016544D01*
X004942Y016544D02*
X005942Y016544D01*
X008288Y016544D02*
X009288Y016544D01*
X011635Y016544D02*
X012635Y016544D01*
D22*
X009772Y019398D03*
X019024Y013295D03*
X019024Y012114D03*
X020206Y012114D03*
X020206Y010933D03*
X017253Y009161D03*
X017253Y008571D03*
X014497Y008374D03*
X014497Y009161D03*
M02*
