G75*
G70*
%OFA0B0*%
%FSLAX24Y24*%
%IPPOS*%
%LPD*%
%AMOC8*
5,1,8,0,0,1.08239X$1,22.5*
%
%ADD10C,0.1004*%
%ADD11C,0.0515*%
%ADD12R,0.0630X0.0710*%
%ADD13R,0.1063X0.0630*%
%ADD14R,0.0630X0.0709*%
%ADD15OC8,0.0705*%
%ADD16C,0.0594*%
%ADD17C,0.2300*%
%ADD18C,0.0594*%
%ADD19R,0.0710X0.0630*%
%ADD20C,0.1000*%
%ADD21C,0.0100*%
%ADD22C,0.0396*%
%ADD23C,0.0160*%
D10*
X004087Y002862D03*
X005646Y002862D03*
X007206Y002862D03*
X008765Y002862D03*
X010568Y002862D03*
X012127Y002862D03*
X013914Y002862D03*
X015473Y002862D03*
X017261Y002862D03*
X018820Y002862D03*
X012686Y021957D03*
X011127Y021957D03*
X009568Y021957D03*
X008009Y021957D03*
X006450Y021957D03*
X004891Y021957D03*
D11*
X014843Y022217D03*
X014843Y021217D03*
X014843Y023217D03*
X020843Y022217D03*
X020843Y021217D03*
X020843Y015217D03*
X020843Y013217D03*
X014843Y013217D03*
X014843Y015217D03*
D12*
X012694Y018217D03*
X011575Y018217D03*
X011575Y019398D03*
X012694Y019398D03*
D13*
X022961Y021610D03*
X022961Y022713D03*
D14*
X016229Y010343D03*
X015127Y010343D03*
X015127Y008768D03*
X016229Y008768D03*
D15*
X018320Y009768D03*
X019320Y008768D03*
X020320Y007768D03*
X021320Y008768D03*
X020320Y009768D03*
X018320Y007768D03*
D16*
X021583Y005614D03*
X022568Y005614D03*
X023355Y005614D03*
X024339Y005614D03*
D17*
X001800Y002508D03*
X001800Y022508D03*
X026800Y022508D03*
X026800Y002508D03*
D18*
X026998Y012992D02*
X026405Y012992D01*
X026405Y013992D02*
X026998Y013992D01*
X026998Y016535D02*
X026405Y016535D01*
X026405Y017535D02*
X026998Y017535D01*
D19*
X027095Y019231D03*
X027095Y020351D03*
X025717Y020351D03*
X025717Y019231D03*
D20*
X024052Y020383D02*
X023052Y020383D01*
X023052Y011523D02*
X024052Y011523D01*
X012635Y007684D02*
X011635Y007684D01*
X009288Y007684D02*
X008288Y007684D01*
X005942Y007684D02*
X004942Y007684D01*
X002595Y007684D02*
X001595Y007684D01*
X001595Y016544D02*
X002595Y016544D01*
X004942Y016544D02*
X005942Y016544D01*
X008288Y016544D02*
X009288Y016544D01*
X011635Y016544D02*
X012635Y016544D01*
D21*
X012185Y016555D02*
X014103Y016555D01*
X014103Y016457D02*
X013279Y016457D01*
X013284Y016494D02*
X012185Y016494D01*
X012185Y016594D01*
X013284Y016594D01*
X013274Y016671D01*
X013251Y016754D01*
X013219Y016832D01*
X013176Y016906D01*
X013124Y016974D01*
X013064Y017034D01*
X012997Y017086D01*
X012923Y017128D01*
X012844Y017161D01*
X012762Y017183D01*
X012677Y017194D01*
X012185Y017194D01*
X012185Y016594D01*
X012085Y016594D01*
X012085Y017194D01*
X011592Y017194D01*
X011508Y017183D01*
X011425Y017161D01*
X011347Y017128D01*
X011273Y017086D01*
X011205Y017034D01*
X011145Y016974D01*
X011093Y016906D01*
X011050Y016832D01*
X011018Y016754D01*
X010996Y016671D01*
X010986Y016594D01*
X012085Y016594D01*
X012085Y016494D01*
X012185Y016494D01*
X012185Y015894D01*
X012677Y015894D01*
X012762Y015905D01*
X012844Y015927D01*
X012923Y015960D01*
X012997Y016003D01*
X013064Y016054D01*
X013124Y016115D01*
X013176Y016182D01*
X013219Y016256D01*
X013251Y016335D01*
X013274Y016417D01*
X013284Y016494D01*
X013258Y016358D02*
X014103Y016358D01*
X014103Y016260D02*
X013220Y016260D01*
X013160Y016161D02*
X014103Y016161D01*
X014103Y016063D02*
X013073Y016063D01*
X012930Y015964D02*
X014103Y015964D01*
X014103Y015866D02*
X000970Y015866D01*
X000970Y015964D02*
X001299Y015964D01*
X001307Y015960D02*
X001386Y015927D01*
X001468Y015905D01*
X001553Y015894D01*
X002045Y015894D01*
X002045Y016494D01*
X002145Y016494D01*
X002145Y015894D01*
X002638Y015894D01*
X002722Y015905D01*
X002805Y015927D01*
X002883Y015960D01*
X002957Y016003D01*
X003025Y016054D01*
X003085Y016115D01*
X003137Y016182D01*
X003179Y016256D01*
X003212Y016335D01*
X003234Y016417D01*
X003244Y016494D01*
X002145Y016494D01*
X002145Y016594D01*
X002045Y016594D01*
X002045Y017194D01*
X001553Y017194D01*
X001468Y017183D01*
X001386Y017161D01*
X001307Y017128D01*
X001233Y017086D01*
X001166Y017034D01*
X001106Y016974D01*
X001054Y016906D01*
X001011Y016832D01*
X000978Y016754D01*
X000970Y016724D01*
X000970Y017429D01*
X004261Y017429D01*
X004261Y021789D01*
X004272Y021747D01*
X004305Y021668D01*
X004347Y021594D01*
X004399Y021526D01*
X004460Y021465D01*
X004528Y021413D01*
X004602Y021371D01*
X004681Y021338D01*
X004763Y021316D01*
X004841Y021306D01*
X004841Y021907D01*
X004941Y021907D01*
X004941Y022007D01*
X005542Y022007D01*
X005531Y022084D01*
X005509Y022167D01*
X005477Y022246D01*
X005434Y022320D01*
X005382Y022387D01*
X005321Y022448D01*
X005254Y022500D01*
X005180Y022543D01*
X005101Y022575D01*
X005018Y022598D01*
X004941Y022608D01*
X004941Y022007D01*
X004841Y022007D01*
X004841Y022608D01*
X004763Y022598D01*
X004681Y022575D01*
X004602Y022543D01*
X004528Y022500D01*
X004460Y022448D01*
X004399Y022387D01*
X004347Y022320D01*
X004305Y022246D01*
X004272Y022167D01*
X004261Y022125D01*
X004261Y022744D01*
X007213Y022744D01*
X007213Y017429D01*
X014103Y017429D01*
X014103Y010933D01*
X015481Y010933D01*
X015481Y010842D01*
X015478Y010842D01*
X015481Y010842D02*
X015461Y010847D01*
X015177Y010847D01*
X015177Y010393D01*
X015077Y010393D01*
X015077Y010847D01*
X014792Y010847D01*
X014754Y010837D01*
X014720Y010817D01*
X014692Y010789D01*
X014672Y010755D01*
X014662Y010717D01*
X014662Y010393D01*
X015077Y010393D01*
X015077Y010293D01*
X014662Y010293D01*
X014662Y009968D01*
X014672Y009930D01*
X014692Y009896D01*
X014720Y009868D01*
X014754Y009848D01*
X014792Y009838D01*
X015077Y009838D01*
X015077Y010293D01*
X015177Y010293D01*
X015177Y009838D01*
X015461Y009838D01*
X015481Y009843D01*
X015481Y009752D01*
X013119Y009752D01*
X013119Y015657D01*
X000970Y015657D01*
X000970Y016365D01*
X000978Y016335D01*
X001011Y016256D01*
X001054Y016182D01*
X001106Y016115D01*
X001166Y016054D01*
X001233Y016003D01*
X001307Y015960D01*
X001157Y016063D02*
X000970Y016063D01*
X000970Y016161D02*
X001070Y016161D01*
X001009Y016260D02*
X000970Y016260D01*
X000970Y016358D02*
X000972Y016358D01*
X000970Y016752D02*
X000978Y016752D01*
X000970Y016851D02*
X001022Y016851D01*
X000970Y016949D02*
X001087Y016949D01*
X001184Y017048D02*
X000970Y017048D01*
X000970Y017146D02*
X001351Y017146D01*
X000970Y017245D02*
X014103Y017245D01*
X014103Y017343D02*
X000970Y017343D01*
X002045Y017146D02*
X002145Y017146D01*
X002145Y017194D02*
X002145Y016594D01*
X003244Y016594D01*
X003234Y016671D01*
X003212Y016754D01*
X003179Y016832D01*
X003137Y016906D01*
X003085Y016974D01*
X003025Y017034D01*
X002957Y017086D01*
X002883Y017128D01*
X002805Y017161D01*
X002722Y017183D01*
X002638Y017194D01*
X002145Y017194D01*
X002145Y017048D02*
X002045Y017048D01*
X002045Y016949D02*
X002145Y016949D01*
X002145Y016851D02*
X002045Y016851D01*
X002045Y016752D02*
X002145Y016752D01*
X002145Y016654D02*
X002045Y016654D01*
X002145Y016555D02*
X005392Y016555D01*
X005392Y016594D02*
X005392Y016494D01*
X005492Y016494D01*
X005492Y016594D01*
X006591Y016594D01*
X006581Y016671D01*
X006559Y016754D01*
X006526Y016832D01*
X006483Y016906D01*
X006431Y016974D01*
X006371Y017034D01*
X006304Y017086D01*
X006230Y017128D01*
X006151Y017161D01*
X006069Y017183D01*
X005984Y017194D01*
X005492Y017194D01*
X005492Y016594D01*
X005392Y016594D01*
X005392Y017194D01*
X004899Y017194D01*
X004815Y017183D01*
X004732Y017161D01*
X004654Y017128D01*
X004580Y017086D01*
X004512Y017034D01*
X004452Y016974D01*
X004400Y016906D01*
X004358Y016832D01*
X004325Y016754D01*
X004303Y016671D01*
X004293Y016594D01*
X005392Y016594D01*
X005392Y016654D02*
X005492Y016654D01*
X005492Y016752D02*
X005392Y016752D01*
X005392Y016851D02*
X005492Y016851D01*
X005492Y016949D02*
X005392Y016949D01*
X005392Y017048D02*
X005492Y017048D01*
X005492Y017146D02*
X005392Y017146D01*
X004697Y017146D02*
X002840Y017146D01*
X003007Y017048D02*
X004530Y017048D01*
X004433Y016949D02*
X003104Y016949D01*
X003169Y016851D02*
X004368Y016851D01*
X004325Y016752D02*
X003212Y016752D01*
X003236Y016654D02*
X004301Y016654D01*
X004293Y016494D02*
X004303Y016417D01*
X004325Y016335D01*
X004358Y016256D01*
X004400Y016182D01*
X004452Y016115D01*
X004512Y016054D01*
X004580Y016003D01*
X004654Y015960D01*
X004732Y015927D01*
X004815Y015905D01*
X004899Y015894D01*
X005392Y015894D01*
X005392Y016494D01*
X004293Y016494D01*
X004298Y016457D02*
X003239Y016457D01*
X003218Y016358D02*
X004319Y016358D01*
X004356Y016260D02*
X003181Y016260D01*
X003121Y016161D02*
X004416Y016161D01*
X004504Y016063D02*
X003033Y016063D01*
X002891Y015964D02*
X004646Y015964D01*
X005392Y015964D02*
X005492Y015964D01*
X005492Y015894D02*
X005984Y015894D01*
X006069Y015905D01*
X006151Y015927D01*
X006230Y015960D01*
X006304Y016003D01*
X006371Y016054D01*
X006431Y016115D01*
X006483Y016182D01*
X006526Y016256D01*
X006559Y016335D01*
X006581Y016417D01*
X006591Y016494D01*
X005492Y016494D01*
X005492Y015894D01*
X005492Y016063D02*
X005392Y016063D01*
X005392Y016161D02*
X005492Y016161D01*
X005492Y016260D02*
X005392Y016260D01*
X005392Y016358D02*
X005492Y016358D01*
X005492Y016457D02*
X005392Y016457D01*
X005492Y016555D02*
X008738Y016555D01*
X008738Y016594D02*
X008738Y016494D01*
X008838Y016494D01*
X008838Y015894D01*
X009331Y015894D01*
X009415Y015905D01*
X009498Y015927D01*
X009576Y015960D01*
X009650Y016003D01*
X009718Y016054D01*
X009778Y016115D01*
X009830Y016182D01*
X009872Y016256D01*
X009905Y016335D01*
X009927Y016417D01*
X009937Y016494D01*
X008838Y016494D01*
X008838Y016594D01*
X008738Y016594D01*
X007639Y016594D01*
X007649Y016671D01*
X007671Y016754D01*
X007704Y016832D01*
X007747Y016906D01*
X007798Y016974D01*
X007859Y017034D01*
X007926Y017086D01*
X008000Y017128D01*
X008079Y017161D01*
X008161Y017183D01*
X008246Y017194D01*
X008738Y017194D01*
X008738Y016594D01*
X008738Y016654D02*
X008838Y016654D01*
X008838Y016594D02*
X008838Y017194D01*
X009331Y017194D01*
X009415Y017183D01*
X009498Y017161D01*
X009576Y017128D01*
X009650Y017086D01*
X009718Y017034D01*
X009778Y016974D01*
X009830Y016906D01*
X009872Y016832D01*
X009905Y016754D01*
X009927Y016671D01*
X009937Y016594D01*
X008838Y016594D01*
X008838Y016555D02*
X012085Y016555D01*
X012085Y016494D02*
X010986Y016494D01*
X010996Y016417D01*
X011018Y016335D01*
X011050Y016256D01*
X011093Y016182D01*
X011145Y016115D01*
X011205Y016054D01*
X011273Y016003D01*
X011347Y015960D01*
X011425Y015927D01*
X011508Y015905D01*
X011592Y015894D01*
X012085Y015894D01*
X012085Y016494D01*
X012085Y016457D02*
X012185Y016457D01*
X012185Y016358D02*
X012085Y016358D01*
X012085Y016260D02*
X012185Y016260D01*
X012185Y016161D02*
X012085Y016161D01*
X012085Y016063D02*
X012185Y016063D01*
X012185Y015964D02*
X012085Y015964D01*
X011339Y015964D02*
X009584Y015964D01*
X009726Y016063D02*
X011197Y016063D01*
X011109Y016161D02*
X009814Y016161D01*
X009874Y016260D02*
X011049Y016260D01*
X011011Y016358D02*
X009911Y016358D01*
X009932Y016457D02*
X010991Y016457D01*
X010993Y016654D02*
X009929Y016654D01*
X009905Y016752D02*
X011018Y016752D01*
X011061Y016851D02*
X009862Y016851D01*
X009797Y016949D02*
X011126Y016949D01*
X011223Y017048D02*
X009699Y017048D01*
X009533Y017146D02*
X011390Y017146D01*
X011544Y017429D02*
X011544Y018383D01*
X011575Y018217D01*
X012694Y018217D02*
X012694Y019398D01*
X013119Y019398D01*
X013709Y019988D01*
X013709Y022744D01*
X014182Y023217D01*
X014843Y023217D01*
X014666Y022744D02*
X014743Y022712D01*
X014944Y022712D01*
X015021Y022744D01*
X015481Y022744D01*
X015481Y023531D01*
X023979Y023531D01*
X024733Y022778D01*
X024733Y021611D01*
X025371Y020972D01*
X027630Y020972D01*
X027630Y020185D01*
X027600Y020185D01*
X027600Y020301D01*
X027145Y020301D01*
X027145Y020401D01*
X027045Y020401D01*
X027045Y020301D01*
X026590Y020301D01*
X026590Y020185D01*
X026222Y020185D01*
X026222Y020301D01*
X025767Y020301D01*
X025767Y020401D01*
X025667Y020401D01*
X025667Y020301D01*
X025212Y020301D01*
X025212Y020263D01*
X024696Y020779D01*
X024685Y020806D01*
X024475Y021016D01*
X024448Y021027D01*
X024143Y021333D01*
X024143Y022269D01*
X023864Y022547D01*
X023643Y022547D01*
X023643Y022663D01*
X023011Y022663D01*
X023011Y022763D01*
X022911Y022763D01*
X022911Y023178D01*
X022410Y023178D01*
X022372Y023167D01*
X022338Y023148D01*
X022310Y023120D01*
X022290Y023085D01*
X022280Y023047D01*
X022280Y022763D01*
X022911Y022763D01*
X022911Y022663D01*
X022280Y022663D01*
X022280Y022547D01*
X022174Y022547D01*
X022174Y023138D01*
X019812Y023138D01*
X019812Y020579D01*
X014103Y020579D01*
X014103Y022718D01*
X014129Y022744D01*
X014666Y022744D01*
X014687Y022594D02*
X014630Y022565D01*
X014578Y022527D01*
X014532Y022482D01*
X014495Y022430D01*
X014466Y022373D01*
X014446Y022312D01*
X014436Y022249D01*
X014436Y022245D01*
X014815Y022245D01*
X014815Y022624D01*
X014811Y022624D01*
X014748Y022614D01*
X014687Y022594D01*
X014628Y022564D02*
X014103Y022564D01*
X014103Y022662D02*
X019812Y022662D01*
X019812Y022564D02*
X015058Y022564D01*
X015057Y022565D02*
X015000Y022594D01*
X014939Y022614D01*
X014875Y022624D01*
X014872Y022624D01*
X014872Y022245D01*
X015251Y022245D01*
X015251Y022249D01*
X015241Y022312D01*
X015221Y022373D01*
X015192Y022430D01*
X015154Y022482D01*
X015109Y022527D01*
X015057Y022565D01*
X015166Y022465D02*
X019812Y022465D01*
X019812Y022367D02*
X015223Y022367D01*
X015248Y022268D02*
X019812Y022268D01*
X019812Y022170D02*
X015248Y022170D01*
X015251Y022184D02*
X015251Y022188D01*
X014872Y022188D01*
X014872Y022245D01*
X014815Y022245D01*
X014815Y022188D01*
X014872Y022188D01*
X014872Y021809D01*
X014875Y021809D01*
X014939Y021819D01*
X015000Y021839D01*
X015057Y021868D01*
X015109Y021906D01*
X015154Y021951D01*
X015192Y022003D01*
X015221Y022060D01*
X015241Y022121D01*
X015251Y022184D01*
X015225Y022071D02*
X019812Y022071D01*
X019812Y021973D02*
X015170Y021973D01*
X015066Y021874D02*
X019812Y021874D01*
X019812Y021776D02*
X014103Y021776D01*
X014103Y021874D02*
X014621Y021874D01*
X014630Y021868D02*
X014687Y021839D01*
X014748Y021819D01*
X014811Y021809D01*
X014815Y021809D01*
X014815Y022188D01*
X014436Y022188D01*
X014436Y022184D01*
X014446Y022121D01*
X014466Y022060D01*
X014495Y022003D01*
X014532Y021951D01*
X014578Y021906D01*
X014630Y021868D01*
X014517Y021973D02*
X014103Y021973D01*
X014103Y022071D02*
X014462Y022071D01*
X014438Y022170D02*
X014103Y022170D01*
X014103Y022268D02*
X014439Y022268D01*
X014464Y022367D02*
X014103Y022367D01*
X014103Y022465D02*
X014520Y022465D01*
X014815Y022465D02*
X014872Y022465D01*
X014872Y022367D02*
X014815Y022367D01*
X014815Y022268D02*
X014872Y022268D01*
X014872Y022170D02*
X014815Y022170D01*
X014815Y022071D02*
X014872Y022071D01*
X014872Y021973D02*
X014815Y021973D01*
X014815Y021874D02*
X014872Y021874D01*
X014875Y021624D02*
X014872Y021624D01*
X014872Y021245D01*
X015251Y021245D01*
X015251Y021249D01*
X015241Y021312D01*
X015221Y021373D01*
X015192Y021430D01*
X015154Y021482D01*
X015109Y021527D01*
X015057Y021565D01*
X015000Y021594D01*
X014939Y021614D01*
X014875Y021624D01*
X014872Y021579D02*
X014815Y021579D01*
X014815Y021624D02*
X014811Y021624D01*
X014748Y021614D01*
X014687Y021594D01*
X014630Y021565D01*
X014578Y021527D01*
X014532Y021482D01*
X014495Y021430D01*
X014466Y021373D01*
X014446Y021312D01*
X014436Y021249D01*
X014436Y021245D01*
X014815Y021245D01*
X014815Y021624D01*
X014815Y021480D02*
X014872Y021480D01*
X014872Y021382D02*
X014815Y021382D01*
X014815Y021283D02*
X014872Y021283D01*
X014872Y021245D02*
X014815Y021245D01*
X014815Y021188D01*
X014872Y021188D01*
X014872Y021245D01*
X014872Y021188D02*
X015251Y021188D01*
X015251Y021184D01*
X015241Y021121D01*
X015221Y021060D01*
X015192Y021003D01*
X015154Y020951D01*
X015109Y020906D01*
X015057Y020868D01*
X015000Y020839D01*
X014939Y020819D01*
X014875Y020809D01*
X014872Y020809D01*
X014872Y021188D01*
X014872Y021185D02*
X014815Y021185D01*
X014815Y021188D02*
X014815Y020809D01*
X014811Y020809D01*
X014748Y020819D01*
X014687Y020839D01*
X014630Y020868D01*
X014578Y020906D01*
X014532Y020951D01*
X014495Y021003D01*
X014466Y021060D01*
X014446Y021121D01*
X014436Y021184D01*
X014436Y021188D01*
X014815Y021188D01*
X014815Y021086D02*
X014872Y021086D01*
X014872Y020988D02*
X014815Y020988D01*
X014815Y020889D02*
X014872Y020889D01*
X015086Y020889D02*
X019812Y020889D01*
X019812Y020791D02*
X014103Y020791D01*
X014103Y020889D02*
X014600Y020889D01*
X014506Y020988D02*
X014103Y020988D01*
X014103Y021086D02*
X014457Y021086D01*
X014436Y021185D02*
X014103Y021185D01*
X014103Y021283D02*
X014441Y021283D01*
X014470Y021382D02*
X014103Y021382D01*
X014103Y021480D02*
X014531Y021480D01*
X014657Y021579D02*
X014103Y021579D01*
X014103Y021677D02*
X019812Y021677D01*
X019812Y021579D02*
X015030Y021579D01*
X015155Y021480D02*
X019812Y021480D01*
X019812Y021382D02*
X015216Y021382D01*
X015245Y021283D02*
X019812Y021283D01*
X019812Y021185D02*
X015251Y021185D01*
X015229Y021086D02*
X019812Y021086D01*
X019812Y020988D02*
X015181Y020988D01*
X014103Y020692D02*
X019812Y020692D01*
X019812Y020594D02*
X014103Y020594D01*
X014815Y022564D02*
X014872Y022564D01*
X015481Y022761D02*
X019812Y022761D01*
X019812Y022859D02*
X015481Y022859D01*
X015481Y022958D02*
X019812Y022958D01*
X019812Y023056D02*
X015481Y023056D01*
X015481Y023155D02*
X022350Y023155D01*
X022282Y023056D02*
X022174Y023056D01*
X022174Y022958D02*
X022280Y022958D01*
X022280Y022859D02*
X022174Y022859D01*
X022174Y022761D02*
X022911Y022761D01*
X022911Y022859D02*
X023011Y022859D01*
X023011Y022763D02*
X023011Y023178D01*
X023513Y023178D01*
X023551Y023167D01*
X023585Y023148D01*
X023613Y023120D01*
X023633Y023085D01*
X023643Y023047D01*
X023643Y022763D01*
X023011Y022763D01*
X023011Y022761D02*
X024733Y022761D01*
X024733Y022662D02*
X023643Y022662D01*
X023643Y022564D02*
X024733Y022564D01*
X024733Y022465D02*
X023946Y022465D01*
X024044Y022367D02*
X024733Y022367D01*
X024733Y022268D02*
X024143Y022268D01*
X024143Y022170D02*
X024733Y022170D01*
X024733Y022071D02*
X024143Y022071D01*
X024143Y021973D02*
X024733Y021973D01*
X024733Y021874D02*
X024143Y021874D01*
X024143Y021776D02*
X024733Y021776D01*
X024733Y021677D02*
X024143Y021677D01*
X024143Y021579D02*
X024765Y021579D01*
X024863Y021480D02*
X024143Y021480D01*
X024143Y021382D02*
X024962Y021382D01*
X025060Y021283D02*
X024192Y021283D01*
X024290Y021185D02*
X025159Y021185D01*
X025257Y021086D02*
X024389Y021086D01*
X024503Y020988D02*
X025356Y020988D01*
X025343Y020816D02*
X025305Y020806D01*
X025270Y020786D01*
X025242Y020758D01*
X025223Y020724D01*
X025212Y020686D01*
X025212Y020401D01*
X025667Y020401D01*
X025667Y020816D01*
X025343Y020816D01*
X025278Y020791D02*
X024691Y020791D01*
X024602Y020889D02*
X027630Y020889D01*
X027630Y020791D02*
X027534Y020791D01*
X027542Y020786D02*
X027508Y020806D01*
X027470Y020816D01*
X027145Y020816D01*
X027145Y020401D01*
X027600Y020401D01*
X027600Y020686D01*
X027590Y020724D01*
X027570Y020758D01*
X027542Y020786D01*
X027598Y020692D02*
X027630Y020692D01*
X027630Y020594D02*
X027600Y020594D01*
X027600Y020495D02*
X027630Y020495D01*
X027630Y020397D02*
X027145Y020397D01*
X027145Y020495D02*
X027045Y020495D01*
X027045Y020401D02*
X027045Y020816D01*
X026721Y020816D01*
X026682Y020806D01*
X026648Y020786D01*
X026620Y020758D01*
X026601Y020724D01*
X026590Y020686D01*
X026590Y020401D01*
X027045Y020401D01*
X027045Y020397D02*
X025767Y020397D01*
X025767Y020401D02*
X026222Y020401D01*
X026222Y020686D01*
X026212Y020724D01*
X026192Y020758D01*
X026164Y020786D01*
X026130Y020806D01*
X026092Y020816D01*
X025767Y020816D01*
X025767Y020401D01*
X025767Y020495D02*
X025667Y020495D01*
X025667Y020397D02*
X025078Y020397D01*
X024980Y020495D02*
X025212Y020495D01*
X025212Y020594D02*
X024881Y020594D01*
X024783Y020692D02*
X025214Y020692D01*
X025212Y020298D02*
X025177Y020298D01*
X025667Y020594D02*
X025767Y020594D01*
X025767Y020692D02*
X025667Y020692D01*
X025667Y020791D02*
X025767Y020791D01*
X026156Y020791D02*
X026656Y020791D01*
X026592Y020692D02*
X026220Y020692D01*
X026222Y020594D02*
X026590Y020594D01*
X026590Y020495D02*
X026222Y020495D01*
X026222Y020298D02*
X026590Y020298D01*
X026590Y020200D02*
X026222Y020200D01*
X026222Y019398D02*
X026590Y019398D01*
X026590Y019281D01*
X027045Y019281D01*
X027045Y019181D01*
X027145Y019181D01*
X027145Y018767D01*
X027470Y018767D01*
X027508Y018777D01*
X027542Y018797D01*
X027570Y018824D01*
X027590Y018859D01*
X027600Y018897D01*
X027600Y019181D01*
X027145Y019181D01*
X027145Y019281D01*
X027600Y019281D01*
X027600Y019398D01*
X027630Y019398D01*
X027630Y017035D01*
X027212Y017035D01*
X027107Y017079D01*
X026297Y017079D01*
X026191Y017035D01*
X025324Y017035D01*
X025324Y014476D01*
X027489Y014476D01*
X027489Y013492D01*
X027212Y013492D01*
X027107Y013536D01*
X026297Y013536D01*
X026191Y013492D01*
X024339Y013492D01*
X024339Y014575D01*
X020206Y014575D01*
X020206Y015657D01*
X024339Y015657D01*
X024339Y019398D01*
X025212Y019398D01*
X025212Y019281D01*
X025667Y019281D01*
X025667Y019181D01*
X025767Y019181D01*
X025767Y018767D01*
X026092Y018767D01*
X026130Y018777D01*
X026164Y018797D01*
X026192Y018824D01*
X026212Y018859D01*
X026222Y018897D01*
X026222Y019181D01*
X025767Y019181D01*
X025767Y019281D01*
X026222Y019281D01*
X026222Y019398D01*
X026222Y019313D02*
X026590Y019313D01*
X026590Y019181D02*
X026590Y018897D01*
X026601Y018859D01*
X026620Y018824D01*
X026648Y018797D01*
X026682Y018777D01*
X026721Y018767D01*
X027045Y018767D01*
X027045Y019181D01*
X026590Y019181D01*
X026590Y019116D02*
X026222Y019116D01*
X026222Y019018D02*
X026590Y019018D01*
X026590Y018919D02*
X026222Y018919D01*
X026189Y018821D02*
X026624Y018821D01*
X027045Y018821D02*
X027145Y018821D01*
X027145Y018919D02*
X027045Y018919D01*
X027045Y019018D02*
X027145Y019018D01*
X027145Y019116D02*
X027045Y019116D01*
X027045Y019215D02*
X025767Y019215D01*
X025767Y019116D02*
X025667Y019116D01*
X025667Y019181D02*
X025667Y018767D01*
X025343Y018767D01*
X025305Y018777D01*
X025270Y018797D01*
X025242Y018824D01*
X025223Y018859D01*
X025212Y018897D01*
X025212Y019181D01*
X025667Y019181D01*
X025667Y019215D02*
X024339Y019215D01*
X024339Y019313D02*
X025212Y019313D01*
X025212Y019116D02*
X024339Y019116D01*
X024339Y019018D02*
X025212Y019018D01*
X025212Y018919D02*
X024339Y018919D01*
X024339Y018821D02*
X025246Y018821D01*
X025667Y018821D02*
X025767Y018821D01*
X025767Y018919D02*
X025667Y018919D01*
X025667Y019018D02*
X025767Y019018D01*
X026233Y017950D02*
X026171Y017918D01*
X026114Y017876D01*
X026064Y017827D01*
X026023Y017770D01*
X025991Y017707D01*
X025969Y017640D01*
X025960Y017584D01*
X026653Y017584D01*
X026653Y017982D01*
X026370Y017982D01*
X026300Y017971D01*
X026233Y017950D01*
X026203Y017934D02*
X024339Y017934D01*
X024339Y017836D02*
X026073Y017836D01*
X026006Y017737D02*
X024339Y017737D01*
X024339Y017639D02*
X025969Y017639D01*
X025960Y017487D02*
X025969Y017431D01*
X025991Y017364D01*
X026023Y017301D01*
X026064Y017244D01*
X026114Y017195D01*
X026171Y017153D01*
X026233Y017121D01*
X026300Y017100D01*
X026370Y017089D01*
X026653Y017089D01*
X026653Y017487D01*
X025960Y017487D01*
X025967Y017442D02*
X024339Y017442D01*
X024339Y017540D02*
X026653Y017540D01*
X026653Y017584D02*
X026653Y017487D01*
X026750Y017487D01*
X026750Y017089D01*
X027034Y017089D01*
X027103Y017100D01*
X027170Y017121D01*
X027233Y017153D01*
X027290Y017195D01*
X027339Y017244D01*
X027381Y017301D01*
X027413Y017364D01*
X027434Y017431D01*
X027443Y017487D01*
X026750Y017487D01*
X026750Y017584D01*
X026653Y017584D01*
X026653Y017639D02*
X026750Y017639D01*
X026750Y017584D02*
X026750Y017982D01*
X027034Y017982D01*
X027103Y017971D01*
X027170Y017950D01*
X027233Y017918D01*
X027290Y017876D01*
X027339Y017827D01*
X027381Y017770D01*
X027413Y017707D01*
X027434Y017640D01*
X027443Y017584D01*
X026750Y017584D01*
X026750Y017540D02*
X027630Y017540D01*
X027630Y017442D02*
X027436Y017442D01*
X027402Y017343D02*
X027630Y017343D01*
X027630Y017245D02*
X027340Y017245D01*
X027219Y017146D02*
X027630Y017146D01*
X027630Y017048D02*
X027182Y017048D01*
X026750Y017146D02*
X026653Y017146D01*
X026653Y017245D02*
X026750Y017245D01*
X026750Y017343D02*
X026653Y017343D01*
X026653Y017442D02*
X026750Y017442D01*
X026750Y017737D02*
X026653Y017737D01*
X026653Y017836D02*
X026750Y017836D01*
X026750Y017934D02*
X026653Y017934D01*
X027200Y017934D02*
X027630Y017934D01*
X027630Y017836D02*
X027330Y017836D01*
X027397Y017737D02*
X027630Y017737D01*
X027630Y017639D02*
X027434Y017639D01*
X027630Y018033D02*
X024339Y018033D01*
X024339Y018131D02*
X027630Y018131D01*
X027630Y018230D02*
X024339Y018230D01*
X024339Y018328D02*
X027630Y018328D01*
X027630Y018427D02*
X024339Y018427D01*
X024339Y018525D02*
X027630Y018525D01*
X027630Y018624D02*
X024339Y018624D01*
X024339Y018722D02*
X027630Y018722D01*
X027630Y018821D02*
X027567Y018821D01*
X027600Y018919D02*
X027630Y018919D01*
X027630Y019018D02*
X027600Y019018D01*
X027600Y019116D02*
X027630Y019116D01*
X027630Y019215D02*
X027145Y019215D01*
X027600Y019313D02*
X027630Y019313D01*
X027600Y020200D02*
X027630Y020200D01*
X027630Y020298D02*
X027600Y020298D01*
X027145Y020594D02*
X027045Y020594D01*
X027045Y020692D02*
X027145Y020692D01*
X027145Y020791D02*
X027045Y020791D01*
X024652Y022859D02*
X023643Y022859D01*
X023643Y022958D02*
X024553Y022958D01*
X024455Y023056D02*
X023640Y023056D01*
X023572Y023155D02*
X024356Y023155D01*
X024258Y023253D02*
X015481Y023253D01*
X015481Y023352D02*
X024159Y023352D01*
X024061Y023450D02*
X015481Y023450D01*
X020206Y022744D02*
X021387Y022744D01*
X021387Y021760D01*
X022280Y021760D01*
X022280Y021660D01*
X022911Y021660D01*
X022911Y021560D01*
X022280Y021560D01*
X022280Y021276D01*
X022290Y021237D01*
X022310Y021203D01*
X022338Y021175D01*
X022372Y021155D01*
X022410Y021145D01*
X022911Y021145D01*
X022911Y021560D01*
X023011Y021560D01*
X023011Y021145D01*
X023513Y021145D01*
X023551Y021155D01*
X023585Y021175D01*
X023613Y021203D01*
X023633Y021237D01*
X023643Y021276D01*
X023643Y021560D01*
X023011Y021560D01*
X023011Y021660D01*
X023643Y021660D01*
X023643Y021760D01*
X023749Y021760D01*
X023749Y021093D01*
X022911Y021093D01*
X022650Y020985D01*
X022638Y020972D01*
X021387Y020972D01*
X021387Y016051D01*
X013709Y016051D01*
X013709Y017429D01*
X020206Y017429D01*
X020206Y022744D01*
X020206Y022662D02*
X021387Y022662D01*
X021387Y022564D02*
X021058Y022564D01*
X021057Y022565D02*
X021000Y022594D01*
X020939Y022614D01*
X020875Y022624D01*
X020872Y022624D01*
X020872Y022245D01*
X021251Y022245D01*
X021251Y022249D01*
X021241Y022312D01*
X021221Y022373D01*
X021192Y022430D01*
X021154Y022482D01*
X021109Y022527D01*
X021057Y022565D01*
X021166Y022465D02*
X021387Y022465D01*
X021387Y022367D02*
X021223Y022367D01*
X021248Y022268D02*
X021387Y022268D01*
X021387Y022170D02*
X021248Y022170D01*
X021251Y022184D02*
X021251Y022188D01*
X020872Y022188D01*
X020872Y022245D01*
X020815Y022245D01*
X020815Y022624D01*
X020811Y022624D01*
X020748Y022614D01*
X020687Y022594D01*
X020630Y022565D01*
X020578Y022527D01*
X020532Y022482D01*
X020495Y022430D01*
X020466Y022373D01*
X020446Y022312D01*
X020436Y022249D01*
X020436Y022245D01*
X020815Y022245D01*
X020815Y022188D01*
X020872Y022188D01*
X020872Y021809D01*
X020875Y021809D01*
X020939Y021819D01*
X021000Y021839D01*
X021057Y021868D01*
X021109Y021906D01*
X021154Y021951D01*
X021192Y022003D01*
X021221Y022060D01*
X021241Y022121D01*
X021251Y022184D01*
X021225Y022071D02*
X021387Y022071D01*
X021387Y021973D02*
X021170Y021973D01*
X021066Y021874D02*
X021387Y021874D01*
X021387Y021776D02*
X020206Y021776D01*
X020206Y021874D02*
X020621Y021874D01*
X020630Y021868D02*
X020687Y021839D01*
X020748Y021819D01*
X020811Y021809D01*
X020815Y021809D01*
X020815Y022188D01*
X020436Y022188D01*
X020436Y022184D01*
X020446Y022121D01*
X020466Y022060D01*
X020495Y022003D01*
X020532Y021951D01*
X020578Y021906D01*
X020630Y021868D01*
X020517Y021973D02*
X020206Y021973D01*
X020206Y022071D02*
X020462Y022071D01*
X020438Y022170D02*
X020206Y022170D01*
X020206Y022268D02*
X020439Y022268D01*
X020464Y022367D02*
X020206Y022367D01*
X020206Y022465D02*
X020520Y022465D01*
X020628Y022564D02*
X020206Y022564D01*
X020815Y022564D02*
X020872Y022564D01*
X020872Y022465D02*
X020815Y022465D01*
X020815Y022367D02*
X020872Y022367D01*
X020872Y022268D02*
X020815Y022268D01*
X020815Y022170D02*
X020872Y022170D01*
X020872Y022071D02*
X020815Y022071D01*
X020815Y021973D02*
X020872Y021973D01*
X020872Y021874D02*
X020815Y021874D01*
X020815Y021624D02*
X020811Y021624D01*
X020748Y021614D01*
X020687Y021594D01*
X020630Y021565D01*
X020578Y021527D01*
X020532Y021482D01*
X020495Y021430D01*
X020466Y021373D01*
X020446Y021312D01*
X020436Y021249D01*
X020436Y021245D01*
X020815Y021245D01*
X020815Y021624D01*
X020815Y021579D02*
X020872Y021579D01*
X020875Y021624D02*
X020872Y021624D01*
X020872Y021245D01*
X021251Y021245D01*
X021251Y021249D01*
X021241Y021312D01*
X021221Y021373D01*
X021192Y021430D01*
X021154Y021482D01*
X021109Y021527D01*
X021057Y021565D01*
X021000Y021594D01*
X020939Y021614D01*
X020875Y021624D01*
X020872Y021480D02*
X020815Y021480D01*
X020815Y021382D02*
X020872Y021382D01*
X020872Y021283D02*
X020815Y021283D01*
X020815Y021245D02*
X020872Y021245D01*
X020872Y021188D01*
X021251Y021188D01*
X021251Y021184D01*
X021241Y021121D01*
X021221Y021060D01*
X021192Y021003D01*
X021154Y020951D01*
X021109Y020906D01*
X021057Y020868D01*
X021000Y020839D01*
X020939Y020819D01*
X020875Y020809D01*
X020872Y020809D01*
X020872Y021188D01*
X020815Y021188D01*
X020815Y020809D01*
X020811Y020809D01*
X020748Y020819D01*
X020687Y020839D01*
X020630Y020868D01*
X020578Y020906D01*
X020532Y020951D01*
X020495Y021003D01*
X020466Y021060D01*
X020446Y021121D01*
X020436Y021184D01*
X020436Y021188D01*
X020815Y021188D01*
X020815Y021245D01*
X020815Y021185D02*
X020872Y021185D01*
X020872Y021086D02*
X020815Y021086D01*
X020815Y020988D02*
X020872Y020988D01*
X020872Y020889D02*
X020815Y020889D01*
X020600Y020889D02*
X020206Y020889D01*
X020206Y020791D02*
X021387Y020791D01*
X021387Y020889D02*
X021086Y020889D01*
X021181Y020988D02*
X022658Y020988D01*
X022895Y021086D02*
X021229Y021086D01*
X021251Y021185D02*
X022328Y021185D01*
X022280Y021283D02*
X021245Y021283D01*
X021216Y021382D02*
X022280Y021382D01*
X022280Y021480D02*
X021155Y021480D01*
X021030Y021579D02*
X022911Y021579D01*
X022911Y021480D02*
X023011Y021480D01*
X023011Y021382D02*
X022911Y021382D01*
X022911Y021283D02*
X023011Y021283D01*
X023011Y021185D02*
X022911Y021185D01*
X023011Y021579D02*
X023749Y021579D01*
X023749Y021677D02*
X023643Y021677D01*
X023643Y021480D02*
X023749Y021480D01*
X023749Y021382D02*
X023643Y021382D01*
X023643Y021283D02*
X023749Y021283D01*
X023749Y021185D02*
X023595Y021185D01*
X022280Y021677D02*
X020206Y021677D01*
X020206Y021579D02*
X020657Y021579D01*
X020531Y021480D02*
X020206Y021480D01*
X020206Y021382D02*
X020470Y021382D01*
X020441Y021283D02*
X020206Y021283D01*
X020206Y021185D02*
X020436Y021185D01*
X020457Y021086D02*
X020206Y021086D01*
X020206Y020988D02*
X020506Y020988D01*
X020206Y020692D02*
X021387Y020692D01*
X021387Y020594D02*
X020206Y020594D01*
X020206Y020495D02*
X021387Y020495D01*
X021387Y020397D02*
X020206Y020397D01*
X020206Y020298D02*
X021387Y020298D01*
X021387Y020200D02*
X020206Y020200D01*
X020206Y020101D02*
X021387Y020101D01*
X021387Y020003D02*
X020206Y020003D01*
X020206Y019904D02*
X021387Y019904D01*
X021387Y019806D02*
X020206Y019806D01*
X020206Y019707D02*
X021387Y019707D01*
X021387Y019609D02*
X020206Y019609D01*
X020206Y019510D02*
X021387Y019510D01*
X021387Y019412D02*
X020206Y019412D01*
X020206Y019313D02*
X021387Y019313D01*
X021387Y019215D02*
X020206Y019215D01*
X020206Y019116D02*
X021387Y019116D01*
X021387Y019018D02*
X020206Y019018D01*
X020206Y018919D02*
X021387Y018919D01*
X021387Y018821D02*
X020206Y018821D01*
X020206Y018722D02*
X021387Y018722D01*
X021387Y018624D02*
X020206Y018624D01*
X020206Y018525D02*
X021387Y018525D01*
X021387Y018427D02*
X020206Y018427D01*
X020206Y018328D02*
X021387Y018328D01*
X021387Y018230D02*
X020206Y018230D01*
X020206Y018131D02*
X021387Y018131D01*
X021387Y018033D02*
X020206Y018033D01*
X020206Y017934D02*
X021387Y017934D01*
X021387Y017836D02*
X020206Y017836D01*
X020206Y017737D02*
X021387Y017737D01*
X021387Y017639D02*
X020206Y017639D01*
X020206Y017540D02*
X021387Y017540D01*
X021387Y017442D02*
X020206Y017442D01*
X021387Y017343D02*
X013709Y017343D01*
X013709Y017245D02*
X021387Y017245D01*
X021387Y017146D02*
X013709Y017146D01*
X013709Y017048D02*
X021387Y017048D01*
X021387Y016949D02*
X013709Y016949D01*
X013709Y016851D02*
X021387Y016851D01*
X021387Y016752D02*
X013709Y016752D01*
X013709Y016654D02*
X021387Y016654D01*
X021387Y016555D02*
X013709Y016555D01*
X013709Y016457D02*
X021387Y016457D01*
X021387Y016358D02*
X013709Y016358D01*
X013709Y016260D02*
X021387Y016260D01*
X021387Y016161D02*
X013709Y016161D01*
X013709Y016063D02*
X021387Y016063D01*
X021057Y015565D02*
X021000Y015594D01*
X020939Y015614D01*
X020875Y015624D01*
X020872Y015624D01*
X020872Y015245D01*
X021251Y015245D01*
X021251Y015249D01*
X021241Y015312D01*
X021221Y015373D01*
X021192Y015430D01*
X021154Y015482D01*
X021109Y015527D01*
X021057Y015565D01*
X021046Y015570D02*
X025324Y015570D01*
X025324Y015472D02*
X021161Y015472D01*
X021221Y015373D02*
X025324Y015373D01*
X025324Y015275D02*
X021247Y015275D01*
X021251Y015188D02*
X020872Y015188D01*
X020872Y015245D01*
X020815Y015245D01*
X020815Y015624D01*
X020811Y015624D01*
X020748Y015614D01*
X020687Y015594D01*
X020630Y015565D01*
X020578Y015527D01*
X020532Y015482D01*
X020495Y015430D01*
X020466Y015373D01*
X020446Y015312D01*
X020436Y015249D01*
X020436Y015245D01*
X020815Y015245D01*
X020815Y015188D01*
X020872Y015188D01*
X020872Y014809D01*
X020875Y014809D01*
X020939Y014819D01*
X021000Y014839D01*
X021057Y014868D01*
X021109Y014906D01*
X021154Y014951D01*
X021192Y015003D01*
X021221Y015060D01*
X021241Y015121D01*
X021251Y015184D01*
X021251Y015188D01*
X021250Y015176D02*
X025324Y015176D01*
X025324Y015078D02*
X021227Y015078D01*
X021175Y014979D02*
X025324Y014979D01*
X025324Y014881D02*
X021075Y014881D01*
X020872Y014881D02*
X020815Y014881D01*
X020815Y014809D02*
X020815Y015188D01*
X020436Y015188D01*
X020436Y015184D01*
X020446Y015121D01*
X020466Y015060D01*
X020495Y015003D01*
X020532Y014951D01*
X020578Y014906D01*
X020630Y014868D01*
X020687Y014839D01*
X020748Y014819D01*
X020811Y014809D01*
X020815Y014809D01*
X020815Y014979D02*
X020872Y014979D01*
X020872Y015078D02*
X020815Y015078D01*
X020815Y015176D02*
X020872Y015176D01*
X020872Y015275D02*
X020815Y015275D01*
X020815Y015373D02*
X020872Y015373D01*
X020872Y015472D02*
X020815Y015472D01*
X020815Y015570D02*
X020872Y015570D01*
X020640Y015570D02*
X020206Y015570D01*
X020206Y015472D02*
X020525Y015472D01*
X020466Y015373D02*
X020206Y015373D01*
X020206Y015275D02*
X020440Y015275D01*
X020437Y015176D02*
X020206Y015176D01*
X020206Y015078D02*
X020460Y015078D01*
X020512Y014979D02*
X020206Y014979D01*
X020206Y014881D02*
X020612Y014881D01*
X020206Y014782D02*
X025324Y014782D01*
X025324Y014684D02*
X020206Y014684D01*
X020206Y014585D02*
X025324Y014585D01*
X025324Y014487D02*
X024339Y014487D01*
X024339Y014388D02*
X026198Y014388D01*
X026171Y014374D02*
X026114Y014333D01*
X026064Y014283D01*
X026023Y014226D01*
X025991Y014164D01*
X025969Y014097D01*
X025960Y014041D01*
X026653Y014041D01*
X026653Y014439D01*
X026370Y014439D01*
X026300Y014428D01*
X026233Y014406D01*
X026171Y014374D01*
X026071Y014290D02*
X024339Y014290D01*
X024339Y014191D02*
X026005Y014191D01*
X025968Y014093D02*
X024339Y014093D01*
X024339Y013994D02*
X026653Y013994D01*
X026653Y014041D02*
X026653Y013944D01*
X025960Y013944D01*
X025969Y013887D01*
X025991Y013821D01*
X026023Y013758D01*
X026064Y013701D01*
X026114Y013651D01*
X026171Y013610D01*
X026233Y013578D01*
X026300Y013556D01*
X026370Y013545D01*
X026653Y013545D01*
X026653Y013944D01*
X026750Y013944D01*
X026750Y014041D01*
X026653Y014041D01*
X026653Y014093D02*
X026750Y014093D01*
X026750Y014041D02*
X026750Y014439D01*
X027034Y014439D01*
X027103Y014428D01*
X027170Y014406D01*
X027233Y014374D01*
X027290Y014333D01*
X027339Y014283D01*
X027381Y014226D01*
X027413Y014164D01*
X027434Y014097D01*
X027443Y014041D01*
X026750Y014041D01*
X026750Y013994D02*
X027489Y013994D01*
X027443Y013944D02*
X026750Y013944D01*
X026750Y013545D01*
X027034Y013545D01*
X027103Y013556D01*
X027170Y013578D01*
X027233Y013610D01*
X027290Y013651D01*
X027339Y013701D01*
X027381Y013758D01*
X027413Y013821D01*
X027434Y013887D01*
X027443Y013944D01*
X027436Y013896D02*
X027489Y013896D01*
X027489Y013797D02*
X027401Y013797D01*
X027337Y013699D02*
X027489Y013699D01*
X027489Y013600D02*
X027214Y013600D01*
X027189Y013502D02*
X027489Y013502D01*
X027489Y014093D02*
X027435Y014093D01*
X027398Y014191D02*
X027489Y014191D01*
X027489Y014290D02*
X027333Y014290D01*
X027205Y014388D02*
X027489Y014388D01*
X026750Y014388D02*
X026653Y014388D01*
X026653Y014290D02*
X026750Y014290D01*
X026750Y014191D02*
X026653Y014191D01*
X026653Y013896D02*
X026750Y013896D01*
X026750Y013797D02*
X026653Y013797D01*
X026653Y013699D02*
X026750Y013699D01*
X026750Y013600D02*
X026653Y013600D01*
X026215Y013502D02*
X024339Y013502D01*
X024339Y013600D02*
X026189Y013600D01*
X026066Y013699D02*
X024339Y013699D01*
X024339Y013797D02*
X026002Y013797D01*
X025968Y013896D02*
X024339Y013896D01*
X024339Y015669D02*
X025324Y015669D01*
X025324Y015767D02*
X024339Y015767D01*
X024339Y015866D02*
X025324Y015866D01*
X025324Y015964D02*
X024339Y015964D01*
X024339Y016063D02*
X025324Y016063D01*
X025324Y016161D02*
X024339Y016161D01*
X024339Y016260D02*
X025324Y016260D01*
X025324Y016358D02*
X024339Y016358D01*
X024339Y016457D02*
X025324Y016457D01*
X025324Y016555D02*
X024339Y016555D01*
X024339Y016654D02*
X025324Y016654D01*
X025324Y016752D02*
X024339Y016752D01*
X024339Y016851D02*
X025324Y016851D01*
X025324Y016949D02*
X024339Y016949D01*
X024339Y017048D02*
X026221Y017048D01*
X026184Y017146D02*
X024339Y017146D01*
X024339Y017245D02*
X026063Y017245D01*
X026001Y017343D02*
X024339Y017343D01*
X021387Y013689D02*
X021387Y010047D01*
X020599Y009260D01*
X019812Y009260D01*
X019812Y011327D01*
X017056Y011327D01*
X017056Y009752D01*
X016269Y009752D01*
X016269Y010293D01*
X016279Y010293D01*
X016279Y010393D01*
X016269Y010393D01*
X016269Y013689D01*
X021387Y013689D01*
X021387Y013600D02*
X020981Y013600D01*
X021000Y013594D02*
X020939Y013614D01*
X020875Y013624D01*
X020872Y013624D01*
X020872Y013245D01*
X021251Y013245D01*
X021251Y013249D01*
X021241Y013312D01*
X021221Y013373D01*
X021192Y013430D01*
X021154Y013482D01*
X021109Y013527D01*
X021057Y013565D01*
X021000Y013594D01*
X020872Y013600D02*
X020815Y013600D01*
X020815Y013624D02*
X020811Y013624D01*
X020748Y013614D01*
X020687Y013594D01*
X020630Y013565D01*
X020578Y013527D01*
X020532Y013482D01*
X020495Y013430D01*
X020466Y013373D01*
X020446Y013312D01*
X020436Y013249D01*
X020436Y013245D01*
X020815Y013245D01*
X020815Y013624D01*
X020706Y013600D02*
X016269Y013600D01*
X016269Y013502D02*
X020552Y013502D01*
X020481Y013403D02*
X016269Y013403D01*
X016269Y013305D02*
X020445Y013305D01*
X020436Y013188D02*
X020436Y013184D01*
X020446Y013121D01*
X020466Y013060D01*
X020495Y013003D01*
X020532Y012951D01*
X020578Y012906D01*
X020630Y012868D01*
X020687Y012839D01*
X020748Y012819D01*
X020811Y012809D01*
X020815Y012809D01*
X020815Y013188D01*
X020872Y013188D01*
X020872Y013245D01*
X020815Y013245D01*
X020815Y013188D01*
X020436Y013188D01*
X020450Y013108D02*
X016269Y013108D01*
X016269Y013206D02*
X020815Y013206D01*
X020872Y013206D02*
X021387Y013206D01*
X021387Y013108D02*
X021236Y013108D01*
X021241Y013121D02*
X021251Y013184D01*
X021251Y013188D01*
X020872Y013188D01*
X020872Y012809D01*
X020875Y012809D01*
X020939Y012819D01*
X021000Y012839D01*
X021057Y012868D01*
X021109Y012906D01*
X021154Y012951D01*
X021192Y013003D01*
X021221Y013060D01*
X021241Y013121D01*
X021195Y013009D02*
X021387Y013009D01*
X021387Y012911D02*
X021114Y012911D01*
X020896Y012812D02*
X021387Y012812D01*
X021387Y012714D02*
X016269Y012714D01*
X016269Y012812D02*
X020790Y012812D01*
X020815Y012812D02*
X020872Y012812D01*
X020872Y012911D02*
X020815Y012911D01*
X020815Y013009D02*
X020872Y013009D01*
X020872Y013108D02*
X020815Y013108D01*
X020815Y013305D02*
X020872Y013305D01*
X020872Y013403D02*
X020815Y013403D01*
X020815Y013502D02*
X020872Y013502D01*
X021134Y013502D02*
X021387Y013502D01*
X021387Y013403D02*
X021205Y013403D01*
X021242Y013305D02*
X021387Y013305D01*
X021387Y012615D02*
X016269Y012615D01*
X016269Y012517D02*
X021387Y012517D01*
X021387Y012418D02*
X016269Y012418D01*
X016269Y012320D02*
X021387Y012320D01*
X021387Y012221D02*
X016269Y012221D01*
X016269Y012123D02*
X021387Y012123D01*
X021387Y012024D02*
X016269Y012024D01*
X016269Y011926D02*
X021387Y011926D01*
X021387Y011827D02*
X016269Y011827D01*
X016269Y011729D02*
X021387Y011729D01*
X021387Y011630D02*
X016269Y011630D01*
X016269Y011532D02*
X021387Y011532D01*
X021387Y011433D02*
X016269Y011433D01*
X016269Y011335D02*
X021387Y011335D01*
X021387Y011236D02*
X019812Y011236D01*
X019812Y011138D02*
X021387Y011138D01*
X021387Y011039D02*
X019812Y011039D01*
X019812Y010941D02*
X021387Y010941D01*
X021387Y010842D02*
X019812Y010842D01*
X019812Y010744D02*
X021387Y010744D01*
X021387Y010645D02*
X019812Y010645D01*
X019812Y010547D02*
X021387Y010547D01*
X021387Y010448D02*
X019812Y010448D01*
X019812Y010350D02*
X021387Y010350D01*
X021387Y010251D02*
X020547Y010251D01*
X020528Y010270D02*
X020370Y010270D01*
X020370Y009818D01*
X020822Y009818D01*
X020822Y009976D01*
X020528Y010270D01*
X020370Y010251D02*
X020270Y010251D01*
X020270Y010270D02*
X020270Y009818D01*
X020370Y009818D01*
X020370Y009718D01*
X020822Y009718D01*
X020822Y009560D01*
X020528Y009265D01*
X020370Y009265D01*
X020370Y009718D01*
X020270Y009718D01*
X020270Y009265D01*
X020112Y009265D01*
X019817Y009560D01*
X019817Y009718D01*
X020270Y009718D01*
X020270Y009818D01*
X019817Y009818D01*
X019817Y009976D01*
X020112Y010270D01*
X020270Y010270D01*
X020270Y010153D02*
X020370Y010153D01*
X020370Y010054D02*
X020270Y010054D01*
X020270Y009956D02*
X020370Y009956D01*
X020370Y009857D02*
X020270Y009857D01*
X020270Y009759D02*
X019812Y009759D01*
X019812Y009857D02*
X019817Y009857D01*
X019812Y009956D02*
X019817Y009956D01*
X019812Y010054D02*
X019896Y010054D01*
X019812Y010153D02*
X019994Y010153D01*
X020093Y010251D02*
X019812Y010251D01*
X019812Y009660D02*
X019817Y009660D01*
X019812Y009562D02*
X019817Y009562D01*
X019812Y009463D02*
X019913Y009463D01*
X020012Y009365D02*
X019812Y009365D01*
X019812Y009266D02*
X020110Y009266D01*
X020270Y009266D02*
X020370Y009266D01*
X020370Y009365D02*
X020270Y009365D01*
X020270Y009463D02*
X020370Y009463D01*
X020370Y009562D02*
X020270Y009562D01*
X020270Y009660D02*
X020370Y009660D01*
X020370Y009759D02*
X021098Y009759D01*
X021000Y009660D02*
X020822Y009660D01*
X020822Y009562D02*
X020901Y009562D01*
X020803Y009463D02*
X020726Y009463D01*
X020704Y009365D02*
X020627Y009365D01*
X020606Y009266D02*
X020529Y009266D01*
X020822Y009857D02*
X021197Y009857D01*
X021295Y009956D02*
X020822Y009956D01*
X020744Y010054D02*
X021387Y010054D01*
X021387Y010153D02*
X020645Y010153D01*
X018828Y010153D02*
X018645Y010153D01*
X018547Y010251D02*
X018828Y010251D01*
X018828Y010350D02*
X017450Y010350D01*
X017450Y010448D02*
X018828Y010448D01*
X018828Y010539D02*
X018828Y009379D01*
X017646Y008177D01*
X016269Y008177D01*
X016269Y008718D01*
X016279Y008718D01*
X016279Y008818D01*
X016269Y008818D01*
X016269Y009358D01*
X017450Y009358D01*
X017450Y010539D01*
X018828Y010539D01*
X018528Y010270D02*
X018370Y010270D01*
X018370Y009818D01*
X018822Y009818D01*
X018822Y009976D01*
X018528Y010270D01*
X018370Y010251D02*
X018270Y010251D01*
X018270Y010270D02*
X018270Y009818D01*
X018370Y009818D01*
X018370Y009718D01*
X018822Y009718D01*
X018822Y009560D01*
X018528Y009265D01*
X018370Y009265D01*
X018370Y009718D01*
X018270Y009718D01*
X018270Y009265D01*
X018112Y009265D01*
X017817Y009560D01*
X017817Y009718D01*
X018270Y009718D01*
X018270Y009818D01*
X017817Y009818D01*
X017817Y009976D01*
X018112Y010270D01*
X018270Y010270D01*
X018270Y010153D02*
X018370Y010153D01*
X018370Y010054D02*
X018270Y010054D01*
X018270Y009956D02*
X018370Y009956D01*
X018370Y009857D02*
X018270Y009857D01*
X018270Y009759D02*
X017450Y009759D01*
X017450Y009857D02*
X017817Y009857D01*
X017817Y009956D02*
X017450Y009956D01*
X017450Y010054D02*
X017896Y010054D01*
X017994Y010153D02*
X017450Y010153D01*
X017450Y010251D02*
X018093Y010251D01*
X018370Y009759D02*
X018828Y009759D01*
X018822Y009857D02*
X018828Y009857D01*
X018822Y009956D02*
X018828Y009956D01*
X018828Y010054D02*
X018744Y010054D01*
X018822Y009660D02*
X018828Y009660D01*
X018822Y009562D02*
X018828Y009562D01*
X018828Y009463D02*
X018726Y009463D01*
X018814Y009365D02*
X018627Y009365D01*
X018717Y009266D02*
X018529Y009266D01*
X018620Y009168D02*
X016687Y009168D01*
X016684Y009180D02*
X016664Y009214D01*
X016636Y009242D01*
X016602Y009262D01*
X016564Y009272D01*
X016279Y009272D01*
X016279Y008818D01*
X016694Y008818D01*
X016694Y009142D01*
X016684Y009180D01*
X016694Y009069D02*
X018523Y009069D01*
X018426Y008971D02*
X016694Y008971D01*
X016694Y008872D02*
X018330Y008872D01*
X018233Y008774D02*
X016279Y008774D01*
X016279Y008718D02*
X016694Y008718D01*
X016694Y008394D01*
X016684Y008355D01*
X016664Y008321D01*
X016636Y008293D01*
X016602Y008274D01*
X016564Y008263D01*
X016279Y008263D01*
X016279Y008718D01*
X016279Y008675D02*
X016269Y008675D01*
X016269Y008577D02*
X016279Y008577D01*
X016269Y008478D02*
X016279Y008478D01*
X016269Y008380D02*
X016279Y008380D01*
X016269Y008281D02*
X016279Y008281D01*
X016269Y008183D02*
X017652Y008183D01*
X017749Y008281D02*
X016615Y008281D01*
X016690Y008380D02*
X017846Y008380D01*
X017942Y008478D02*
X016694Y008478D01*
X016694Y008577D02*
X018039Y008577D01*
X018136Y008675D02*
X016694Y008675D01*
X016279Y008872D02*
X016269Y008872D01*
X016269Y008971D02*
X016279Y008971D01*
X016269Y009069D02*
X016279Y009069D01*
X016269Y009168D02*
X016279Y009168D01*
X016269Y009266D02*
X016279Y009266D01*
X016585Y009266D02*
X018110Y009266D01*
X018012Y009365D02*
X017450Y009365D01*
X017450Y009463D02*
X017913Y009463D01*
X017817Y009562D02*
X017450Y009562D01*
X017450Y009660D02*
X017817Y009660D01*
X018270Y009660D02*
X018370Y009660D01*
X018370Y009562D02*
X018270Y009562D01*
X018270Y009463D02*
X018370Y009463D01*
X018370Y009365D02*
X018270Y009365D01*
X018270Y009266D02*
X018370Y009266D01*
X017056Y009759D02*
X016269Y009759D01*
X016279Y009838D02*
X016564Y009838D01*
X016602Y009848D01*
X016636Y009868D01*
X016664Y009896D01*
X016684Y009930D01*
X016694Y009968D01*
X016694Y010293D01*
X016279Y010293D01*
X016279Y009838D01*
X016279Y009857D02*
X016269Y009857D01*
X016269Y009956D02*
X016279Y009956D01*
X016269Y010054D02*
X016279Y010054D01*
X016269Y010153D02*
X016279Y010153D01*
X016269Y010251D02*
X016279Y010251D01*
X016279Y010350D02*
X017056Y010350D01*
X017056Y010448D02*
X016694Y010448D01*
X016694Y010393D02*
X016694Y010717D01*
X016684Y010755D01*
X016664Y010789D01*
X016636Y010817D01*
X016602Y010837D01*
X016564Y010847D01*
X016279Y010847D01*
X016279Y010393D01*
X016694Y010393D01*
X016694Y010251D02*
X017056Y010251D01*
X017056Y010153D02*
X016694Y010153D01*
X016694Y010054D02*
X017056Y010054D01*
X017056Y009956D02*
X016691Y009956D01*
X016618Y009857D02*
X017056Y009857D01*
X016279Y010448D02*
X016269Y010448D01*
X016269Y010547D02*
X016279Y010547D01*
X016269Y010645D02*
X016279Y010645D01*
X016269Y010744D02*
X016279Y010744D01*
X016269Y010842D02*
X016279Y010842D01*
X016269Y010941D02*
X017056Y010941D01*
X017056Y011039D02*
X016269Y011039D01*
X016269Y011138D02*
X017056Y011138D01*
X017056Y011236D02*
X016269Y011236D01*
X016581Y010842D02*
X017056Y010842D01*
X017056Y010744D02*
X016687Y010744D01*
X016694Y010645D02*
X017056Y010645D01*
X017056Y010547D02*
X016694Y010547D01*
X015481Y009759D02*
X013119Y009759D01*
X013119Y009857D02*
X014738Y009857D01*
X014665Y009956D02*
X013119Y009956D01*
X013119Y010054D02*
X014662Y010054D01*
X014662Y010153D02*
X013119Y010153D01*
X013119Y010251D02*
X014662Y010251D01*
X014662Y010448D02*
X013119Y010448D01*
X013119Y010350D02*
X015077Y010350D01*
X015077Y010448D02*
X015177Y010448D01*
X015177Y010547D02*
X015077Y010547D01*
X015077Y010645D02*
X015177Y010645D01*
X015177Y010744D02*
X015077Y010744D01*
X015077Y010842D02*
X015177Y010842D01*
X014775Y010842D02*
X013119Y010842D01*
X013119Y010744D02*
X014669Y010744D01*
X014662Y010645D02*
X013119Y010645D01*
X013119Y010547D02*
X014662Y010547D01*
X015077Y010251D02*
X015177Y010251D01*
X015177Y010153D02*
X015077Y010153D01*
X015077Y010054D02*
X015177Y010054D01*
X015177Y009956D02*
X015077Y009956D01*
X015077Y009857D02*
X015177Y009857D01*
X015481Y009358D02*
X015481Y009267D01*
X015461Y009272D01*
X015177Y009272D01*
X015177Y008818D01*
X015077Y008818D01*
X015077Y009272D01*
X014792Y009272D01*
X014754Y009262D01*
X014720Y009242D01*
X014692Y009214D01*
X014672Y009180D01*
X014662Y009142D01*
X014662Y008818D01*
X015077Y008818D01*
X015077Y008718D01*
X014662Y008718D01*
X014662Y008394D01*
X014672Y008355D01*
X014692Y008321D01*
X014720Y008293D01*
X014754Y008274D01*
X014792Y008263D01*
X015077Y008263D01*
X015077Y008718D01*
X015177Y008718D01*
X015177Y008263D01*
X015461Y008263D01*
X015481Y008269D01*
X015481Y008177D01*
X014202Y008177D01*
X014202Y009358D01*
X015481Y009358D01*
X015177Y009266D02*
X015077Y009266D01*
X015077Y009168D02*
X015177Y009168D01*
X015177Y009069D02*
X015077Y009069D01*
X015077Y008971D02*
X015177Y008971D01*
X015177Y008872D02*
X015077Y008872D01*
X015077Y008774D02*
X014202Y008774D01*
X014202Y008872D02*
X014662Y008872D01*
X014662Y008971D02*
X014202Y008971D01*
X014202Y009069D02*
X014662Y009069D01*
X014669Y009168D02*
X014202Y009168D01*
X014202Y009266D02*
X014771Y009266D01*
X014662Y008675D02*
X014202Y008675D01*
X014202Y008577D02*
X014662Y008577D01*
X014662Y008478D02*
X014202Y008478D01*
X014202Y008380D02*
X014665Y008380D01*
X014740Y008281D02*
X014202Y008281D01*
X014202Y008183D02*
X015481Y008183D01*
X015177Y008281D02*
X015077Y008281D01*
X015077Y008380D02*
X015177Y008380D01*
X015177Y008478D02*
X015077Y008478D01*
X015077Y008577D02*
X015177Y008577D01*
X015177Y008675D02*
X015077Y008675D01*
X014103Y010941D02*
X013119Y010941D01*
X013119Y011039D02*
X014103Y011039D01*
X014103Y011138D02*
X013119Y011138D01*
X013119Y011236D02*
X014103Y011236D01*
X014103Y011335D02*
X013119Y011335D01*
X013119Y011433D02*
X014103Y011433D01*
X014103Y011532D02*
X013119Y011532D01*
X013119Y011630D02*
X014103Y011630D01*
X014103Y011729D02*
X013119Y011729D01*
X013119Y011827D02*
X014103Y011827D01*
X014103Y011926D02*
X013119Y011926D01*
X013119Y012024D02*
X014103Y012024D01*
X014103Y012123D02*
X013119Y012123D01*
X013119Y012221D02*
X014103Y012221D01*
X014103Y012320D02*
X013119Y012320D01*
X013119Y012418D02*
X014103Y012418D01*
X014103Y012517D02*
X013119Y012517D01*
X013119Y012615D02*
X014103Y012615D01*
X014103Y012714D02*
X013119Y012714D01*
X013119Y012812D02*
X014103Y012812D01*
X014103Y012911D02*
X013119Y012911D01*
X013119Y013009D02*
X014103Y013009D01*
X014103Y013108D02*
X013119Y013108D01*
X013119Y013206D02*
X014103Y013206D01*
X014103Y013305D02*
X013119Y013305D01*
X013119Y013403D02*
X014103Y013403D01*
X014103Y013502D02*
X013119Y013502D01*
X013119Y013600D02*
X014103Y013600D01*
X014103Y013699D02*
X013119Y013699D01*
X013119Y013797D02*
X014103Y013797D01*
X014103Y013896D02*
X013119Y013896D01*
X013119Y013994D02*
X014103Y013994D01*
X014103Y014093D02*
X013119Y014093D01*
X013119Y014191D02*
X014103Y014191D01*
X014103Y014290D02*
X013119Y014290D01*
X013119Y014388D02*
X014103Y014388D01*
X014103Y014487D02*
X013119Y014487D01*
X013119Y014585D02*
X014103Y014585D01*
X014103Y014684D02*
X013119Y014684D01*
X013119Y014782D02*
X014103Y014782D01*
X014103Y014881D02*
X013119Y014881D01*
X013119Y014979D02*
X014103Y014979D01*
X014103Y015078D02*
X013119Y015078D01*
X013119Y015176D02*
X014103Y015176D01*
X014103Y015275D02*
X013119Y015275D01*
X013119Y015373D02*
X014103Y015373D01*
X014103Y015472D02*
X013119Y015472D01*
X013119Y015570D02*
X014103Y015570D01*
X014103Y015669D02*
X000970Y015669D01*
X000970Y015767D02*
X014103Y015767D01*
X014103Y016654D02*
X013276Y016654D01*
X013252Y016752D02*
X014103Y016752D01*
X014103Y016851D02*
X013208Y016851D01*
X013143Y016949D02*
X014103Y016949D01*
X014103Y017048D02*
X013046Y017048D01*
X012879Y017146D02*
X014103Y017146D01*
X012185Y017146D02*
X012085Y017146D01*
X012085Y017048D02*
X012185Y017048D01*
X012185Y016949D02*
X012085Y016949D01*
X012085Y016851D02*
X012185Y016851D01*
X012185Y016752D02*
X012085Y016752D01*
X012085Y016654D02*
X012185Y016654D01*
X011575Y019398D02*
X009772Y019398D01*
X008838Y017146D02*
X008738Y017146D01*
X008738Y017048D02*
X008838Y017048D01*
X008838Y016949D02*
X008738Y016949D01*
X008738Y016851D02*
X008838Y016851D01*
X008838Y016752D02*
X008738Y016752D01*
X008738Y016494D02*
X007639Y016494D01*
X007649Y016417D01*
X007671Y016335D01*
X007704Y016256D01*
X007747Y016182D01*
X007798Y016115D01*
X007859Y016054D01*
X007926Y016003D01*
X008000Y015960D01*
X008079Y015927D01*
X008161Y015905D01*
X008246Y015894D01*
X008738Y015894D01*
X008738Y016494D01*
X008738Y016457D02*
X008838Y016457D01*
X008838Y016358D02*
X008738Y016358D01*
X008738Y016260D02*
X008838Y016260D01*
X008838Y016161D02*
X008738Y016161D01*
X008738Y016063D02*
X008838Y016063D01*
X008838Y015964D02*
X008738Y015964D01*
X007992Y015964D02*
X006238Y015964D01*
X006380Y016063D02*
X007850Y016063D01*
X007763Y016161D02*
X006467Y016161D01*
X006528Y016260D02*
X007702Y016260D01*
X007665Y016358D02*
X006565Y016358D01*
X006586Y016457D02*
X007644Y016457D01*
X007647Y016654D02*
X006583Y016654D01*
X006559Y016752D02*
X007671Y016752D01*
X007715Y016851D02*
X006515Y016851D01*
X006450Y016949D02*
X007780Y016949D01*
X007877Y017048D02*
X006353Y017048D01*
X006186Y017146D02*
X008044Y017146D01*
X007213Y017442D02*
X004261Y017442D01*
X004261Y017540D02*
X007213Y017540D01*
X007213Y017639D02*
X004261Y017639D01*
X004261Y017737D02*
X007213Y017737D01*
X007213Y017836D02*
X004261Y017836D01*
X004261Y017934D02*
X007213Y017934D01*
X007213Y018033D02*
X004261Y018033D01*
X004261Y018131D02*
X007213Y018131D01*
X007213Y018230D02*
X004261Y018230D01*
X004261Y018328D02*
X007213Y018328D01*
X007213Y018427D02*
X004261Y018427D01*
X004261Y018525D02*
X007213Y018525D01*
X007213Y018624D02*
X004261Y018624D01*
X004261Y018722D02*
X007213Y018722D01*
X007213Y018821D02*
X004261Y018821D01*
X004261Y018919D02*
X007213Y018919D01*
X007213Y019018D02*
X004261Y019018D01*
X004261Y019116D02*
X007213Y019116D01*
X007213Y019215D02*
X004261Y019215D01*
X004261Y019313D02*
X007213Y019313D01*
X007213Y019412D02*
X004261Y019412D01*
X004261Y019510D02*
X007213Y019510D01*
X007213Y019609D02*
X004261Y019609D01*
X004261Y019707D02*
X007213Y019707D01*
X007213Y019806D02*
X004261Y019806D01*
X004261Y019904D02*
X007213Y019904D01*
X007213Y020003D02*
X004261Y020003D01*
X004261Y020101D02*
X007213Y020101D01*
X007213Y020200D02*
X004261Y020200D01*
X004261Y020298D02*
X007213Y020298D01*
X007213Y020397D02*
X004261Y020397D01*
X004261Y020495D02*
X007213Y020495D01*
X007213Y020594D02*
X004261Y020594D01*
X004261Y020692D02*
X007213Y020692D01*
X007213Y020791D02*
X004261Y020791D01*
X004261Y020889D02*
X007213Y020889D01*
X007213Y020988D02*
X004261Y020988D01*
X004261Y021086D02*
X007213Y021086D01*
X007213Y021185D02*
X004261Y021185D01*
X004261Y021283D02*
X007213Y021283D01*
X007213Y021382D02*
X006758Y021382D01*
X006739Y021371D02*
X006813Y021413D01*
X006880Y021465D01*
X006941Y021526D01*
X006993Y021594D01*
X007036Y021668D01*
X007068Y021747D01*
X007090Y021829D01*
X007101Y021907D01*
X006500Y021907D01*
X006500Y022007D01*
X007101Y022007D01*
X007090Y022084D01*
X007068Y022167D01*
X007036Y022246D01*
X006993Y022320D01*
X006941Y022387D01*
X006880Y022448D01*
X006813Y022500D01*
X006739Y022543D01*
X006660Y022575D01*
X006577Y022598D01*
X006500Y022608D01*
X006500Y022007D01*
X006400Y022007D01*
X006400Y022608D01*
X006322Y022598D01*
X006240Y022575D01*
X006161Y022543D01*
X006087Y022500D01*
X006019Y022448D01*
X005958Y022387D01*
X005906Y022320D01*
X005864Y022246D01*
X005831Y022167D01*
X005809Y022084D01*
X005799Y022007D01*
X006400Y022007D01*
X006400Y021907D01*
X006500Y021907D01*
X006500Y021306D01*
X006577Y021316D01*
X006660Y021338D01*
X006739Y021371D01*
X006895Y021480D02*
X007213Y021480D01*
X007213Y021579D02*
X006982Y021579D01*
X007040Y021677D02*
X007213Y021677D01*
X007213Y021776D02*
X007076Y021776D01*
X007096Y021874D02*
X007213Y021874D01*
X007213Y021973D02*
X006500Y021973D01*
X006500Y022071D02*
X006400Y022071D01*
X006400Y021973D02*
X004941Y021973D01*
X004941Y021907D02*
X005542Y021907D01*
X005531Y021829D01*
X005509Y021747D01*
X005477Y021668D01*
X005434Y021594D01*
X005382Y021526D01*
X005321Y021465D01*
X005254Y021413D01*
X005180Y021371D01*
X005101Y021338D01*
X005018Y021316D01*
X004941Y021306D01*
X004941Y021907D01*
X004941Y021874D02*
X004841Y021874D01*
X004841Y021776D02*
X004941Y021776D01*
X004941Y021677D02*
X004841Y021677D01*
X004841Y021579D02*
X004941Y021579D01*
X004941Y021480D02*
X004841Y021480D01*
X004841Y021382D02*
X004941Y021382D01*
X005199Y021382D02*
X006141Y021382D01*
X006161Y021371D02*
X006240Y021338D01*
X006322Y021316D01*
X006400Y021306D01*
X006400Y021907D01*
X005799Y021907D01*
X005809Y021829D01*
X005831Y021747D01*
X005864Y021668D01*
X005906Y021594D01*
X005958Y021526D01*
X006019Y021465D01*
X006087Y021413D01*
X006161Y021371D01*
X006004Y021480D02*
X005336Y021480D01*
X005422Y021579D02*
X005918Y021579D01*
X005860Y021677D02*
X005481Y021677D01*
X005517Y021776D02*
X005823Y021776D01*
X005803Y021874D02*
X005537Y021874D01*
X005533Y022071D02*
X005807Y022071D01*
X005832Y022170D02*
X005508Y022170D01*
X005463Y022268D02*
X005877Y022268D01*
X005943Y022367D02*
X005398Y022367D01*
X005299Y022465D02*
X006042Y022465D01*
X006212Y022564D02*
X005128Y022564D01*
X004941Y022564D02*
X004841Y022564D01*
X004841Y022465D02*
X004941Y022465D01*
X004941Y022367D02*
X004841Y022367D01*
X004841Y022268D02*
X004941Y022268D01*
X004941Y022170D02*
X004841Y022170D01*
X004841Y022071D02*
X004941Y022071D01*
X004653Y022564D02*
X004261Y022564D01*
X004261Y022662D02*
X007213Y022662D01*
X007213Y022564D02*
X006687Y022564D01*
X006500Y022564D02*
X006400Y022564D01*
X006400Y022465D02*
X006500Y022465D01*
X006500Y022367D02*
X006400Y022367D01*
X006400Y022268D02*
X006500Y022268D01*
X006500Y022170D02*
X006400Y022170D01*
X006400Y021874D02*
X006500Y021874D01*
X006500Y021776D02*
X006400Y021776D01*
X006400Y021677D02*
X006500Y021677D01*
X006500Y021579D02*
X006400Y021579D01*
X006400Y021480D02*
X006500Y021480D01*
X006500Y021382D02*
X006400Y021382D01*
X007092Y022071D02*
X007213Y022071D01*
X007213Y022170D02*
X007067Y022170D01*
X007022Y022268D02*
X007213Y022268D01*
X007213Y022367D02*
X006957Y022367D01*
X006858Y022465D02*
X007213Y022465D01*
X004483Y022465D02*
X004261Y022465D01*
X004261Y022367D02*
X004384Y022367D01*
X004318Y022268D02*
X004261Y022268D01*
X004261Y022170D02*
X004273Y022170D01*
X004261Y021776D02*
X004264Y021776D01*
X004261Y021677D02*
X004301Y021677D01*
X004261Y021579D02*
X004359Y021579D01*
X004445Y021480D02*
X004261Y021480D01*
X004261Y021382D02*
X004582Y021382D01*
X002145Y016457D02*
X002045Y016457D01*
X002045Y016358D02*
X002145Y016358D01*
X002145Y016260D02*
X002045Y016260D01*
X002045Y016161D02*
X002145Y016161D01*
X002145Y016063D02*
X002045Y016063D01*
X002045Y015964D02*
X002145Y015964D01*
X016269Y013009D02*
X020492Y013009D01*
X020573Y012911D02*
X016269Y012911D01*
X019812Y008276D02*
X020775Y008276D01*
X021977Y007094D01*
X021977Y005826D01*
X021966Y005848D01*
X021924Y005905D01*
X021875Y005955D01*
X021818Y005996D01*
X021755Y006028D01*
X021688Y006050D01*
X021632Y006059D01*
X021632Y005663D01*
X021535Y005663D01*
X021535Y006059D01*
X021479Y006050D01*
X021412Y006028D01*
X021349Y005996D01*
X021292Y005955D01*
X021243Y005905D01*
X021201Y005848D01*
X021169Y005786D01*
X021148Y005719D01*
X021139Y005663D01*
X021535Y005663D01*
X021535Y005566D01*
X021139Y005566D01*
X021148Y005510D01*
X021169Y005443D01*
X021201Y005380D01*
X021243Y005323D01*
X021292Y005273D01*
X021349Y005232D01*
X021412Y005200D01*
X021479Y005178D01*
X021535Y005169D01*
X021535Y005566D01*
X021632Y005566D01*
X021632Y005169D01*
X021688Y005178D01*
X021755Y005200D01*
X021818Y005232D01*
X021875Y005273D01*
X021924Y005323D01*
X021966Y005380D01*
X021977Y005403D01*
X021977Y005028D01*
X021153Y005028D01*
X021140Y005059D01*
X020993Y005206D01*
X020993Y006483D01*
X020283Y007193D01*
X019812Y007193D01*
X019812Y008276D01*
X019812Y008183D02*
X020024Y008183D01*
X020112Y008270D02*
X019817Y007976D01*
X019817Y007818D01*
X020270Y007818D01*
X020270Y008270D01*
X020112Y008270D01*
X020270Y008183D02*
X020370Y008183D01*
X020370Y008270D02*
X020528Y008270D01*
X020822Y007976D01*
X020822Y007818D01*
X020370Y007818D01*
X020370Y007718D01*
X020822Y007718D01*
X020822Y007560D01*
X020528Y007265D01*
X020370Y007265D01*
X020370Y007718D01*
X020270Y007718D01*
X020270Y007265D01*
X020112Y007265D01*
X019817Y007560D01*
X019817Y007718D01*
X020270Y007718D01*
X020270Y007818D01*
X020370Y007818D01*
X020370Y008270D01*
X020370Y008084D02*
X020270Y008084D01*
X020270Y007986D02*
X020370Y007986D01*
X020370Y007887D02*
X020270Y007887D01*
X020270Y007789D02*
X019812Y007789D01*
X019812Y007887D02*
X019817Y007887D01*
X019812Y007986D02*
X019827Y007986D01*
X019812Y008084D02*
X019926Y008084D01*
X019817Y007690D02*
X019812Y007690D01*
X019812Y007592D02*
X019817Y007592D01*
X019812Y007493D02*
X019883Y007493D01*
X019812Y007395D02*
X019982Y007395D01*
X020080Y007296D02*
X019812Y007296D01*
X019812Y007198D02*
X021872Y007198D01*
X021772Y007296D02*
X020559Y007296D01*
X020657Y007395D02*
X021672Y007395D01*
X021571Y007493D02*
X020756Y007493D01*
X020822Y007592D02*
X021471Y007592D01*
X021371Y007690D02*
X020822Y007690D01*
X020822Y007887D02*
X021170Y007887D01*
X021271Y007789D02*
X020370Y007789D01*
X020370Y007690D02*
X020270Y007690D01*
X020270Y007592D02*
X020370Y007592D01*
X020370Y007493D02*
X020270Y007493D01*
X020270Y007395D02*
X020370Y007395D01*
X020370Y007296D02*
X020270Y007296D01*
X020377Y007099D02*
X021972Y007099D01*
X021977Y007001D02*
X020475Y007001D01*
X020574Y006902D02*
X021977Y006902D01*
X021977Y006804D02*
X020672Y006804D01*
X020771Y006705D02*
X021977Y006705D01*
X021977Y006607D02*
X020869Y006607D01*
X020968Y006508D02*
X021977Y006508D01*
X021977Y006410D02*
X020993Y006410D01*
X020993Y006311D02*
X021977Y006311D01*
X021977Y006213D02*
X020993Y006213D01*
X020993Y006114D02*
X021977Y006114D01*
X021977Y006016D02*
X021779Y006016D01*
X021632Y006016D02*
X021535Y006016D01*
X021535Y005917D02*
X021632Y005917D01*
X021632Y005819D02*
X021535Y005819D01*
X021535Y005720D02*
X021632Y005720D01*
X021535Y005622D02*
X020993Y005622D01*
X020993Y005720D02*
X021148Y005720D01*
X021186Y005819D02*
X020993Y005819D01*
X020993Y005917D02*
X021255Y005917D01*
X021387Y006016D02*
X020993Y006016D01*
X020993Y005523D02*
X021145Y005523D01*
X021178Y005425D02*
X020993Y005425D01*
X020993Y005326D02*
X021240Y005326D01*
X021357Y005228D02*
X020993Y005228D01*
X021069Y005129D02*
X021977Y005129D01*
X021977Y005031D02*
X021152Y005031D01*
X021535Y005228D02*
X021632Y005228D01*
X021632Y005326D02*
X021535Y005326D01*
X021535Y005425D02*
X021632Y005425D01*
X021632Y005523D02*
X021535Y005523D01*
X021809Y005228D02*
X021977Y005228D01*
X021977Y005326D02*
X021927Y005326D01*
X021912Y005917D02*
X021977Y005917D01*
X021070Y007986D02*
X020812Y007986D01*
X020714Y008084D02*
X020970Y008084D01*
X020870Y008183D02*
X020615Y008183D01*
X022174Y022564D02*
X022280Y022564D01*
X022280Y022662D02*
X022174Y022662D01*
X022911Y022958D02*
X023011Y022958D01*
X023011Y023056D02*
X022911Y023056D01*
X022911Y023155D02*
X023011Y023155D01*
D22*
X019024Y013295D03*
X019024Y012114D03*
X020206Y012114D03*
X020206Y010933D03*
X017253Y009161D03*
X017253Y008571D03*
X014497Y008374D03*
X014497Y009161D03*
X009772Y019398D03*
D23*
X009969Y008571D02*
X007607Y008571D01*
X007607Y006209D01*
X014182Y006209D01*
X014885Y005508D01*
X014891Y003838D01*
X014891Y002075D01*
X016072Y002075D01*
X016072Y005644D01*
X014917Y006799D01*
X009969Y006799D01*
X009969Y008571D01*
X009969Y008463D02*
X007607Y008463D01*
X007607Y008305D02*
X009969Y008305D01*
X009969Y008146D02*
X007607Y008146D01*
X007607Y007988D02*
X009969Y007988D01*
X009969Y007829D02*
X007607Y007829D01*
X007607Y007671D02*
X009969Y007671D01*
X009969Y007512D02*
X007607Y007512D01*
X007607Y007354D02*
X009969Y007354D01*
X009969Y007195D02*
X007607Y007195D01*
X007607Y007037D02*
X009969Y007037D01*
X009969Y006878D02*
X007607Y006878D01*
X007607Y006720D02*
X014996Y006720D01*
X015155Y006561D02*
X007607Y006561D01*
X007607Y006403D02*
X015313Y006403D01*
X015472Y006244D02*
X007607Y006244D01*
X006623Y006244D02*
X004261Y006244D01*
X004261Y006086D02*
X006623Y006086D01*
X006623Y005927D02*
X004261Y005927D01*
X004261Y005769D02*
X012725Y005769D01*
X012725Y005815D02*
X012725Y002075D01*
X011544Y002075D01*
X011544Y005224D01*
X004261Y005224D01*
X004261Y008571D01*
X006623Y008571D01*
X006623Y005815D01*
X012725Y005815D01*
X012725Y005610D02*
X004261Y005610D01*
X004261Y005452D02*
X012725Y005452D01*
X012725Y005293D02*
X004261Y005293D01*
X003276Y005293D02*
X001000Y005293D01*
X001000Y005135D02*
X003276Y005135D01*
X003276Y004976D02*
X001000Y004976D01*
X001000Y004818D02*
X009379Y004818D01*
X009379Y004831D02*
X009379Y002075D01*
X006623Y002075D01*
X006623Y004142D01*
X001000Y004142D01*
X001000Y008571D01*
X003276Y008571D01*
X003276Y004831D01*
X009379Y004831D01*
X009379Y004659D02*
X001000Y004659D01*
X001000Y004501D02*
X009379Y004501D01*
X009379Y004342D02*
X001000Y004342D01*
X001000Y004184D02*
X009379Y004184D01*
X009379Y004025D02*
X006623Y004025D01*
X006623Y003867D02*
X009379Y003867D01*
X009379Y003708D02*
X006623Y003708D01*
X006623Y003550D02*
X009379Y003550D01*
X009379Y003391D02*
X006623Y003391D01*
X006623Y003233D02*
X009379Y003233D01*
X009379Y003074D02*
X006623Y003074D01*
X006623Y002916D02*
X009379Y002916D01*
X009379Y002757D02*
X006623Y002757D01*
X006623Y002599D02*
X009379Y002599D01*
X009379Y002440D02*
X006623Y002440D01*
X006623Y002282D02*
X009379Y002282D01*
X009379Y002123D02*
X006623Y002123D01*
X003276Y005452D02*
X001000Y005452D01*
X001000Y005610D02*
X003276Y005610D01*
X003276Y005769D02*
X001000Y005769D01*
X001000Y005927D02*
X003276Y005927D01*
X003276Y006086D02*
X001000Y006086D01*
X001000Y006244D02*
X003276Y006244D01*
X003276Y006403D02*
X001000Y006403D01*
X001000Y006561D02*
X003276Y006561D01*
X003276Y006720D02*
X001000Y006720D01*
X001000Y006878D02*
X003276Y006878D01*
X003276Y007037D02*
X001000Y007037D01*
X001000Y007195D02*
X003276Y007195D01*
X003276Y007354D02*
X001000Y007354D01*
X001000Y007512D02*
X003276Y007512D01*
X003276Y007671D02*
X001000Y007671D01*
X001000Y007829D02*
X003276Y007829D01*
X003276Y007988D02*
X001000Y007988D01*
X001000Y008146D02*
X003276Y008146D01*
X003276Y008305D02*
X001000Y008305D01*
X001000Y008463D02*
X003276Y008463D01*
X004261Y008463D02*
X006623Y008463D01*
X006623Y008305D02*
X004261Y008305D01*
X004261Y008146D02*
X006623Y008146D01*
X006623Y007988D02*
X004261Y007988D01*
X004261Y007829D02*
X006623Y007829D01*
X006623Y007671D02*
X004261Y007671D01*
X004261Y007512D02*
X006623Y007512D01*
X006623Y007354D02*
X004261Y007354D01*
X004261Y007195D02*
X006623Y007195D01*
X006623Y007037D02*
X004261Y007037D01*
X004261Y006878D02*
X006623Y006878D01*
X006623Y006720D02*
X004261Y006720D01*
X004261Y006561D02*
X006623Y006561D01*
X006623Y006403D02*
X004261Y006403D01*
X010954Y007193D02*
X010954Y008571D01*
X013316Y008571D01*
X013316Y007783D01*
X016252Y007783D01*
X019418Y004634D01*
X019418Y002075D01*
X018237Y002075D01*
X018237Y004634D01*
X015662Y007193D01*
X010954Y007193D01*
X010954Y007195D02*
X016843Y007195D01*
X017002Y007037D02*
X015819Y007037D01*
X015978Y006878D02*
X017162Y006878D01*
X017321Y006720D02*
X016138Y006720D01*
X016297Y006561D02*
X017480Y006561D01*
X017640Y006403D02*
X016457Y006403D01*
X016616Y006244D02*
X017799Y006244D01*
X017958Y006086D02*
X016776Y006086D01*
X016935Y005927D02*
X018118Y005927D01*
X018277Y005769D02*
X017095Y005769D01*
X017254Y005610D02*
X018436Y005610D01*
X018596Y005452D02*
X017414Y005452D01*
X017573Y005293D02*
X018755Y005293D01*
X018914Y005135D02*
X017733Y005135D01*
X017892Y004976D02*
X019074Y004976D01*
X019233Y004818D02*
X018052Y004818D01*
X018211Y004659D02*
X019392Y004659D01*
X019418Y004501D02*
X018237Y004501D01*
X018237Y004342D02*
X019418Y004342D01*
X019418Y004184D02*
X018237Y004184D01*
X018237Y004025D02*
X019418Y004025D01*
X019418Y003867D02*
X018237Y003867D01*
X018237Y003708D02*
X019418Y003708D01*
X019418Y003550D02*
X018237Y003550D01*
X018237Y003391D02*
X019418Y003391D01*
X019418Y003233D02*
X018237Y003233D01*
X018237Y003074D02*
X019418Y003074D01*
X019418Y002916D02*
X018237Y002916D01*
X018237Y002757D02*
X019418Y002757D01*
X019418Y002599D02*
X018237Y002599D01*
X018237Y002440D02*
X019418Y002440D01*
X019418Y002282D02*
X018237Y002282D01*
X018237Y002123D02*
X019418Y002123D01*
X016072Y002123D02*
X014891Y002123D01*
X014891Y002282D02*
X016072Y002282D01*
X016072Y002440D02*
X014891Y002440D01*
X014891Y002599D02*
X016072Y002599D01*
X016072Y002757D02*
X014891Y002757D01*
X014891Y002916D02*
X016072Y002916D01*
X016072Y003074D02*
X014891Y003074D01*
X014891Y003233D02*
X016072Y003233D01*
X016072Y003391D02*
X014891Y003391D01*
X014891Y003550D02*
X016072Y003550D01*
X016072Y003708D02*
X014891Y003708D01*
X014890Y003867D02*
X016072Y003867D01*
X016072Y004025D02*
X014890Y004025D01*
X014889Y004184D02*
X016072Y004184D01*
X016072Y004342D02*
X014889Y004342D01*
X014888Y004501D02*
X016072Y004501D01*
X016072Y004659D02*
X014888Y004659D01*
X014887Y004818D02*
X016072Y004818D01*
X016072Y004976D02*
X014887Y004976D01*
X014886Y005135D02*
X016072Y005135D01*
X016072Y005293D02*
X014886Y005293D01*
X014885Y005452D02*
X016072Y005452D01*
X016072Y005610D02*
X014782Y005610D01*
X014623Y005769D02*
X015947Y005769D01*
X015789Y005927D02*
X014464Y005927D01*
X014305Y006086D02*
X015630Y006086D01*
X016683Y007354D02*
X010954Y007354D01*
X010954Y007512D02*
X016524Y007512D01*
X016365Y007671D02*
X010954Y007671D01*
X010954Y007829D02*
X013316Y007829D01*
X013316Y007988D02*
X010954Y007988D01*
X010954Y008146D02*
X013316Y008146D01*
X013316Y008305D02*
X010954Y008305D01*
X010954Y008463D02*
X013316Y008463D01*
X012725Y005135D02*
X011544Y005135D01*
X011544Y004976D02*
X012725Y004976D01*
X012725Y004818D02*
X011544Y004818D01*
X011544Y004659D02*
X012725Y004659D01*
X012725Y004501D02*
X011544Y004501D01*
X011544Y004342D02*
X012725Y004342D01*
X012725Y004184D02*
X011544Y004184D01*
X011544Y004025D02*
X012725Y004025D01*
X012725Y003867D02*
X011544Y003867D01*
X011544Y003708D02*
X012725Y003708D01*
X012725Y003550D02*
X011544Y003550D01*
X011544Y003391D02*
X012725Y003391D01*
X012725Y003233D02*
X011544Y003233D01*
X011544Y003074D02*
X012725Y003074D01*
X012725Y002916D02*
X011544Y002916D01*
X011544Y002757D02*
X012725Y002757D01*
X012725Y002599D02*
X011544Y002599D01*
X011544Y002440D02*
X012725Y002440D01*
X012725Y002282D02*
X011544Y002282D01*
X011544Y002123D02*
X012725Y002123D01*
M02*
