G75*
G70*
%OFA0B0*%
%FSLAX24Y24*%
%IPPOS*%
%LPD*%
%AMOC8*
5,1,8,0,0,1.08239X$1,22.5*
%
%ADD10C,0.0000*%
%ADD11C,0.0080*%
%ADD12C,0.0050*%
%ADD13C,0.0040*%
%ADD14C,0.0060*%
%ADD15C,0.0030*%
%ADD16C,0.0100*%
%ADD17C,0.0020*%
%ADD18R,0.0450X0.0250*%
%ADD19R,0.1600X0.0250*%
%ADD20R,0.0200X0.4000*%
%ADD21R,0.0050X0.1550*%
%ADD22R,0.0200X0.1900*%
D10*
X000520Y000697D02*
X000520Y024319D01*
X028080Y024319D01*
X028080Y000697D01*
X000520Y000697D01*
X019922Y004547D02*
X019924Y004589D01*
X019930Y004631D01*
X019940Y004673D01*
X019953Y004713D01*
X019971Y004752D01*
X019992Y004789D01*
X020016Y004823D01*
X020044Y004856D01*
X020074Y004886D01*
X020107Y004912D01*
X020142Y004936D01*
X020180Y004956D01*
X020219Y004972D01*
X020259Y004985D01*
X020301Y004994D01*
X020343Y004999D01*
X020386Y005000D01*
X020428Y004997D01*
X020470Y004990D01*
X020511Y004979D01*
X020551Y004964D01*
X020589Y004946D01*
X020626Y004924D01*
X020660Y004899D01*
X020692Y004871D01*
X020720Y004840D01*
X020746Y004806D01*
X020769Y004770D01*
X020788Y004733D01*
X020804Y004693D01*
X020816Y004652D01*
X020824Y004611D01*
X020828Y004568D01*
X020828Y004526D01*
X020824Y004483D01*
X020816Y004442D01*
X020804Y004401D01*
X020788Y004361D01*
X020769Y004324D01*
X020746Y004288D01*
X020720Y004254D01*
X020692Y004223D01*
X020660Y004195D01*
X020626Y004170D01*
X020589Y004148D01*
X020551Y004130D01*
X020511Y004115D01*
X020470Y004104D01*
X020428Y004097D01*
X020386Y004094D01*
X020343Y004095D01*
X020301Y004100D01*
X020259Y004109D01*
X020219Y004122D01*
X020180Y004138D01*
X020142Y004158D01*
X020107Y004182D01*
X020074Y004208D01*
X020044Y004238D01*
X020016Y004271D01*
X019992Y004305D01*
X019971Y004342D01*
X019953Y004381D01*
X019940Y004421D01*
X019930Y004463D01*
X019924Y004505D01*
X019922Y004547D01*
X025095Y004547D02*
X025097Y004589D01*
X025103Y004631D01*
X025113Y004673D01*
X025126Y004713D01*
X025144Y004752D01*
X025165Y004789D01*
X025189Y004823D01*
X025217Y004856D01*
X025247Y004886D01*
X025280Y004912D01*
X025315Y004936D01*
X025353Y004956D01*
X025392Y004972D01*
X025432Y004985D01*
X025474Y004994D01*
X025516Y004999D01*
X025559Y005000D01*
X025601Y004997D01*
X025643Y004990D01*
X025684Y004979D01*
X025724Y004964D01*
X025762Y004946D01*
X025799Y004924D01*
X025833Y004899D01*
X025865Y004871D01*
X025893Y004840D01*
X025919Y004806D01*
X025942Y004770D01*
X025961Y004733D01*
X025977Y004693D01*
X025989Y004652D01*
X025997Y004611D01*
X026001Y004568D01*
X026001Y004526D01*
X025997Y004483D01*
X025989Y004442D01*
X025977Y004401D01*
X025961Y004361D01*
X025942Y004324D01*
X025919Y004288D01*
X025893Y004254D01*
X025865Y004223D01*
X025833Y004195D01*
X025799Y004170D01*
X025762Y004148D01*
X025724Y004130D01*
X025684Y004115D01*
X025643Y004104D01*
X025601Y004097D01*
X025559Y004094D01*
X025516Y004095D01*
X025474Y004100D01*
X025432Y004109D01*
X025392Y004122D01*
X025353Y004138D01*
X025315Y004158D01*
X025280Y004182D01*
X025247Y004208D01*
X025217Y004238D01*
X025189Y004271D01*
X025165Y004305D01*
X025144Y004342D01*
X025126Y004381D01*
X025113Y004421D01*
X025103Y004463D01*
X025097Y004505D01*
X025095Y004547D01*
D11*
X025520Y005028D02*
X025520Y004043D01*
X026111Y004240D01*
X026111Y004831D01*
X025520Y005028D01*
X025520Y005972D01*
X020402Y005972D01*
X020402Y005028D01*
X019812Y004831D01*
X019812Y004240D01*
X020402Y004043D01*
X020402Y000618D01*
X020402Y000618D01*
X020520Y000618D01*
X020540Y000616D01*
X020560Y000611D01*
X020579Y000602D01*
X020596Y000590D01*
X020610Y000576D01*
X020622Y000559D01*
X020631Y000540D01*
X020636Y000520D01*
X020638Y000500D01*
X020639Y000500D02*
X025284Y000500D01*
X025286Y000520D01*
X025291Y000540D01*
X025300Y000559D01*
X025312Y000576D01*
X025326Y000590D01*
X025343Y000602D01*
X025362Y000611D01*
X025381Y000616D01*
X025402Y000618D01*
X025520Y000618D01*
X025520Y004043D01*
X024930Y003650D02*
X024536Y001287D01*
X024143Y001287D01*
X023749Y003650D01*
X022174Y003650D02*
X021780Y001287D01*
X021387Y001287D01*
X020993Y003650D01*
X020402Y004043D02*
X020402Y005028D01*
X019639Y004831D02*
X019639Y004043D01*
X019639Y000894D01*
X016442Y000894D01*
X016442Y004043D01*
X016442Y004831D01*
X019639Y004831D01*
X016292Y004831D02*
X016292Y004043D01*
X016292Y000894D01*
X013095Y000894D01*
X013095Y004043D01*
X013095Y004831D01*
X016292Y004831D01*
X012946Y004831D02*
X012946Y004043D01*
X012946Y000894D01*
X009749Y000894D01*
X009749Y004043D01*
X009749Y004831D01*
X012946Y004831D01*
X009583Y004831D02*
X009583Y004043D01*
X009583Y000894D01*
X003150Y000894D01*
X003150Y004043D01*
X003150Y004831D01*
X009583Y004831D01*
X001131Y002508D02*
X001133Y002559D01*
X001139Y002610D01*
X001149Y002660D01*
X001162Y002710D01*
X001180Y002758D01*
X001200Y002805D01*
X001225Y002850D01*
X001253Y002893D01*
X001284Y002934D01*
X001318Y002972D01*
X001355Y003007D01*
X001394Y003040D01*
X001436Y003070D01*
X001480Y003096D01*
X001526Y003118D01*
X001574Y003138D01*
X001623Y003153D01*
X001673Y003165D01*
X001723Y003173D01*
X001774Y003177D01*
X001826Y003177D01*
X001877Y003173D01*
X001927Y003165D01*
X001977Y003153D01*
X002026Y003138D01*
X002074Y003118D01*
X002120Y003096D01*
X002164Y003070D01*
X002206Y003040D01*
X002245Y003007D01*
X002282Y002972D01*
X002316Y002934D01*
X002347Y002893D01*
X002375Y002850D01*
X002400Y002805D01*
X002420Y002758D01*
X002438Y002710D01*
X002451Y002660D01*
X002461Y002610D01*
X002467Y002559D01*
X002469Y002508D01*
X002467Y002457D01*
X002461Y002406D01*
X002451Y002356D01*
X002438Y002306D01*
X002420Y002258D01*
X002400Y002211D01*
X002375Y002166D01*
X002347Y002123D01*
X002316Y002082D01*
X002282Y002044D01*
X002245Y002009D01*
X002206Y001976D01*
X002164Y001946D01*
X002120Y001920D01*
X002074Y001898D01*
X002026Y001878D01*
X001977Y001863D01*
X001927Y001851D01*
X001877Y001843D01*
X001826Y001839D01*
X001774Y001839D01*
X001723Y001843D01*
X001673Y001851D01*
X001623Y001863D01*
X001574Y001878D01*
X001526Y001898D01*
X001480Y001920D01*
X001436Y001946D01*
X001394Y001976D01*
X001355Y002009D01*
X001318Y002044D01*
X001284Y002082D01*
X001253Y002123D01*
X001225Y002166D01*
X001200Y002211D01*
X001180Y002258D01*
X001162Y002306D01*
X001149Y002356D01*
X001139Y002406D01*
X001133Y002457D01*
X001131Y002508D01*
X020206Y000500D02*
X020284Y000500D01*
X020304Y000502D01*
X020324Y000507D01*
X020343Y000516D01*
X020360Y000528D01*
X020374Y000542D01*
X020386Y000559D01*
X020395Y000578D01*
X020400Y000598D01*
X020402Y000618D01*
X025521Y000618D02*
X025523Y000598D01*
X025528Y000578D01*
X025537Y000559D01*
X025549Y000542D01*
X025563Y000528D01*
X025580Y000516D01*
X025599Y000507D01*
X025619Y000502D01*
X025639Y000500D01*
X025717Y000500D01*
X026131Y002508D02*
X026133Y002559D01*
X026139Y002610D01*
X026149Y002660D01*
X026162Y002710D01*
X026180Y002758D01*
X026200Y002805D01*
X026225Y002850D01*
X026253Y002893D01*
X026284Y002934D01*
X026318Y002972D01*
X026355Y003007D01*
X026394Y003040D01*
X026436Y003070D01*
X026480Y003096D01*
X026526Y003118D01*
X026574Y003138D01*
X026623Y003153D01*
X026673Y003165D01*
X026723Y003173D01*
X026774Y003177D01*
X026826Y003177D01*
X026877Y003173D01*
X026927Y003165D01*
X026977Y003153D01*
X027026Y003138D01*
X027074Y003118D01*
X027120Y003096D01*
X027164Y003070D01*
X027206Y003040D01*
X027245Y003007D01*
X027282Y002972D01*
X027316Y002934D01*
X027347Y002893D01*
X027375Y002850D01*
X027400Y002805D01*
X027420Y002758D01*
X027438Y002710D01*
X027451Y002660D01*
X027461Y002610D01*
X027467Y002559D01*
X027469Y002508D01*
X027467Y002457D01*
X027461Y002406D01*
X027451Y002356D01*
X027438Y002306D01*
X027420Y002258D01*
X027400Y002211D01*
X027375Y002166D01*
X027347Y002123D01*
X027316Y002082D01*
X027282Y002044D01*
X027245Y002009D01*
X027206Y001976D01*
X027164Y001946D01*
X027120Y001920D01*
X027074Y001898D01*
X027026Y001878D01*
X026977Y001863D01*
X026927Y001851D01*
X026877Y001843D01*
X026826Y001839D01*
X026774Y001839D01*
X026723Y001843D01*
X026673Y001851D01*
X026623Y001863D01*
X026574Y001878D01*
X026526Y001898D01*
X026480Y001920D01*
X026436Y001946D01*
X026394Y001976D01*
X026355Y002009D01*
X026318Y002044D01*
X026284Y002082D01*
X026253Y002123D01*
X026225Y002166D01*
X026200Y002211D01*
X026180Y002258D01*
X026162Y002306D01*
X026149Y002356D01*
X026139Y002406D01*
X026133Y002457D01*
X026131Y002508D01*
X013505Y019988D02*
X013505Y020776D01*
X013505Y023925D01*
X004072Y023925D01*
X004072Y020776D01*
X004072Y019988D01*
X013505Y019988D01*
X001131Y022508D02*
X001133Y022559D01*
X001139Y022610D01*
X001149Y022660D01*
X001162Y022710D01*
X001180Y022758D01*
X001200Y022805D01*
X001225Y022850D01*
X001253Y022893D01*
X001284Y022934D01*
X001318Y022972D01*
X001355Y023007D01*
X001394Y023040D01*
X001436Y023070D01*
X001480Y023096D01*
X001526Y023118D01*
X001574Y023138D01*
X001623Y023153D01*
X001673Y023165D01*
X001723Y023173D01*
X001774Y023177D01*
X001826Y023177D01*
X001877Y023173D01*
X001927Y023165D01*
X001977Y023153D01*
X002026Y023138D01*
X002074Y023118D01*
X002120Y023096D01*
X002164Y023070D01*
X002206Y023040D01*
X002245Y023007D01*
X002282Y022972D01*
X002316Y022934D01*
X002347Y022893D01*
X002375Y022850D01*
X002400Y022805D01*
X002420Y022758D01*
X002438Y022710D01*
X002451Y022660D01*
X002461Y022610D01*
X002467Y022559D01*
X002469Y022508D01*
X002467Y022457D01*
X002461Y022406D01*
X002451Y022356D01*
X002438Y022306D01*
X002420Y022258D01*
X002400Y022211D01*
X002375Y022166D01*
X002347Y022123D01*
X002316Y022082D01*
X002282Y022044D01*
X002245Y022009D01*
X002206Y021976D01*
X002164Y021946D01*
X002120Y021920D01*
X002074Y021898D01*
X002026Y021878D01*
X001977Y021863D01*
X001927Y021851D01*
X001877Y021843D01*
X001826Y021839D01*
X001774Y021839D01*
X001723Y021843D01*
X001673Y021851D01*
X001623Y021863D01*
X001574Y021878D01*
X001526Y021898D01*
X001480Y021920D01*
X001436Y021946D01*
X001394Y021976D01*
X001355Y022009D01*
X001318Y022044D01*
X001284Y022082D01*
X001253Y022123D01*
X001225Y022166D01*
X001200Y022211D01*
X001180Y022258D01*
X001162Y022306D01*
X001149Y022356D01*
X001139Y022406D01*
X001133Y022457D01*
X001131Y022508D01*
X026131Y022508D02*
X026133Y022559D01*
X026139Y022610D01*
X026149Y022660D01*
X026162Y022710D01*
X026180Y022758D01*
X026200Y022805D01*
X026225Y022850D01*
X026253Y022893D01*
X026284Y022934D01*
X026318Y022972D01*
X026355Y023007D01*
X026394Y023040D01*
X026436Y023070D01*
X026480Y023096D01*
X026526Y023118D01*
X026574Y023138D01*
X026623Y023153D01*
X026673Y023165D01*
X026723Y023173D01*
X026774Y023177D01*
X026826Y023177D01*
X026877Y023173D01*
X026927Y023165D01*
X026977Y023153D01*
X027026Y023138D01*
X027074Y023118D01*
X027120Y023096D01*
X027164Y023070D01*
X027206Y023040D01*
X027245Y023007D01*
X027282Y022972D01*
X027316Y022934D01*
X027347Y022893D01*
X027375Y022850D01*
X027400Y022805D01*
X027420Y022758D01*
X027438Y022710D01*
X027451Y022660D01*
X027461Y022610D01*
X027467Y022559D01*
X027469Y022508D01*
X027467Y022457D01*
X027461Y022406D01*
X027451Y022356D01*
X027438Y022306D01*
X027420Y022258D01*
X027400Y022211D01*
X027375Y022166D01*
X027347Y022123D01*
X027316Y022082D01*
X027282Y022044D01*
X027245Y022009D01*
X027206Y021976D01*
X027164Y021946D01*
X027120Y021920D01*
X027074Y021898D01*
X027026Y021878D01*
X026977Y021863D01*
X026927Y021851D01*
X026877Y021843D01*
X026826Y021839D01*
X026774Y021839D01*
X026723Y021843D01*
X026673Y021851D01*
X026623Y021863D01*
X026574Y021878D01*
X026526Y021898D01*
X026480Y021920D01*
X026436Y021946D01*
X026394Y021976D01*
X026355Y022009D01*
X026318Y022044D01*
X026284Y022082D01*
X026253Y022123D01*
X026225Y022166D01*
X026200Y022211D01*
X026180Y022258D01*
X026162Y022306D01*
X026149Y022356D01*
X026139Y022406D01*
X026133Y022457D01*
X026131Y022508D01*
D12*
X021843Y023504D02*
X021843Y011906D01*
X021843Y011929D02*
X021842Y011887D01*
X021838Y011844D01*
X021830Y011803D01*
X021819Y011762D01*
X021804Y011722D01*
X021787Y011684D01*
X021766Y011647D01*
X021742Y011612D01*
X021716Y011579D01*
X021686Y011548D01*
X021655Y011520D01*
X021621Y011495D01*
X021585Y011472D01*
X021547Y011453D01*
X021508Y011437D01*
X021468Y011424D01*
X021427Y011414D01*
X021385Y011408D01*
X021343Y011405D01*
X021343Y011406D02*
X014343Y011406D01*
X014343Y011405D02*
X014301Y011408D01*
X014259Y011414D01*
X014218Y011424D01*
X014178Y011437D01*
X014139Y011453D01*
X014101Y011472D01*
X014065Y011495D01*
X014031Y011520D01*
X014000Y011548D01*
X013970Y011579D01*
X013944Y011612D01*
X013920Y011647D01*
X013899Y011684D01*
X013882Y011722D01*
X013867Y011762D01*
X013856Y011803D01*
X013848Y011844D01*
X013844Y011887D01*
X013843Y011929D01*
X013843Y011906D02*
X013843Y023504D01*
X013845Y023548D01*
X013851Y023591D01*
X013860Y023633D01*
X013873Y023675D01*
X013890Y023715D01*
X013910Y023754D01*
X013933Y023791D01*
X013960Y023825D01*
X013989Y023858D01*
X014022Y023887D01*
X014056Y023914D01*
X014093Y023937D01*
X014132Y023957D01*
X014172Y023974D01*
X014214Y023987D01*
X014256Y023996D01*
X014299Y024002D01*
X014343Y024004D01*
X021343Y024004D01*
X021387Y024002D01*
X021430Y023996D01*
X021472Y023987D01*
X021514Y023974D01*
X021554Y023957D01*
X021593Y023937D01*
X021630Y023914D01*
X021664Y023887D01*
X021697Y023858D01*
X021726Y023825D01*
X021753Y023791D01*
X021776Y023754D01*
X021796Y023715D01*
X021813Y023675D01*
X021826Y023633D01*
X021835Y023591D01*
X021841Y023548D01*
X021843Y023504D01*
X013505Y020776D02*
X004072Y020776D01*
X005191Y017670D02*
X005491Y017670D01*
X005652Y017595D02*
X005727Y017670D01*
X005877Y017670D01*
X005952Y017595D01*
X005952Y017520D01*
X005877Y017445D01*
X005952Y017370D01*
X005952Y017295D01*
X005877Y017219D01*
X005727Y017219D01*
X005652Y017295D01*
X005802Y017445D02*
X005877Y017445D01*
X005341Y017445D02*
X005191Y017445D01*
X005191Y017670D02*
X005191Y017219D01*
X002605Y017219D02*
X002305Y017219D01*
X002605Y017520D01*
X002605Y017595D01*
X002530Y017670D01*
X002380Y017670D01*
X002305Y017595D01*
X002145Y017670D02*
X001845Y017670D01*
X001845Y017219D01*
X001845Y017445D02*
X001995Y017445D01*
X008341Y017445D02*
X008491Y017445D01*
X008341Y017670D02*
X008641Y017670D01*
X008801Y017445D02*
X009101Y017445D01*
X009026Y017670D02*
X009026Y017219D01*
X008801Y017445D02*
X009026Y017670D01*
X008341Y017670D02*
X008341Y017219D01*
X011884Y017219D02*
X011884Y017670D01*
X012184Y017670D01*
X012344Y017670D02*
X012344Y017445D01*
X012495Y017520D01*
X012570Y017520D01*
X012645Y017445D01*
X012645Y017295D01*
X012570Y017219D01*
X012420Y017219D01*
X012344Y017295D01*
X012034Y017445D02*
X011884Y017445D01*
X012344Y017670D02*
X012645Y017670D01*
X016945Y011643D02*
X016945Y011193D01*
X017245Y011193D01*
X017405Y011193D02*
X017705Y011193D01*
X017555Y011193D02*
X017555Y011643D01*
X017405Y011493D01*
X025280Y011438D02*
X025280Y011738D01*
X025355Y011738D01*
X025655Y011438D01*
X025730Y011438D01*
X025505Y011128D02*
X025505Y010978D01*
X025730Y010978D02*
X025280Y010978D01*
X025280Y011278D01*
X026317Y011868D02*
X026617Y012318D01*
X026778Y012318D02*
X027078Y012318D01*
X027078Y012243D01*
X026778Y011943D01*
X026778Y011868D01*
X026617Y011868D02*
X026317Y012318D01*
X026317Y015411D02*
X026617Y015861D01*
X026778Y015786D02*
X026778Y015711D01*
X026853Y015636D01*
X027003Y015636D01*
X027078Y015561D01*
X027078Y015486D01*
X027003Y015411D01*
X026853Y015411D01*
X026778Y015486D01*
X026778Y015561D01*
X026853Y015636D01*
X027003Y015636D02*
X027078Y015711D01*
X027078Y015786D01*
X027003Y015861D01*
X026853Y015861D01*
X026778Y015786D01*
X026617Y015411D02*
X026317Y015861D01*
X019639Y004043D02*
X016442Y004043D01*
X016292Y004043D02*
X013095Y004043D01*
X012946Y004043D02*
X009749Y004043D01*
X009583Y004043D02*
X003150Y004043D01*
D13*
X006281Y005138D02*
X006588Y005599D01*
X006741Y005522D02*
X006818Y005599D01*
X006971Y005599D01*
X007048Y005522D01*
X007048Y005445D01*
X006741Y005138D01*
X007048Y005138D01*
X006588Y005138D02*
X006281Y005599D01*
X011186Y005599D02*
X011493Y005138D01*
X011647Y005215D02*
X011723Y005138D01*
X011877Y005138D01*
X011953Y005215D01*
X011953Y005292D01*
X011877Y005368D01*
X011800Y005368D01*
X011877Y005368D02*
X011953Y005445D01*
X011953Y005522D01*
X011877Y005599D01*
X011723Y005599D01*
X011647Y005522D01*
X011493Y005599D02*
X011186Y005138D01*
X014336Y005138D02*
X014643Y005599D01*
X014796Y005368D02*
X015103Y005368D01*
X015026Y005138D02*
X015026Y005599D01*
X014796Y005368D01*
X014643Y005138D02*
X014336Y005599D01*
X017682Y005599D02*
X017989Y005138D01*
X018143Y005215D02*
X018219Y005138D01*
X018373Y005138D01*
X018450Y005215D01*
X018450Y005368D01*
X018373Y005445D01*
X018296Y005445D01*
X018143Y005368D01*
X018143Y005599D01*
X018450Y005599D01*
X017989Y005599D02*
X017682Y005138D01*
X014511Y008500D02*
X014357Y008500D01*
X014280Y008577D01*
X014127Y008577D02*
X014050Y008500D01*
X013897Y008500D01*
X013820Y008577D01*
X013820Y008884D01*
X013897Y008961D01*
X014050Y008961D01*
X014127Y008884D01*
X014280Y008884D02*
X014357Y008961D01*
X014511Y008961D01*
X014587Y008884D01*
X014587Y008807D01*
X014511Y008731D01*
X014587Y008654D01*
X014587Y008577D01*
X014511Y008500D01*
X014511Y008731D02*
X014434Y008731D01*
X014587Y010075D02*
X014280Y010075D01*
X014587Y010382D01*
X014587Y010459D01*
X014511Y010536D01*
X014357Y010536D01*
X014280Y010459D01*
X014127Y010459D02*
X014050Y010536D01*
X013897Y010536D01*
X013820Y010459D01*
X013820Y010152D01*
X013897Y010075D01*
X014050Y010075D01*
X014127Y010152D01*
X011044Y017949D02*
X010737Y017949D01*
X010584Y017949D02*
X010430Y018103D01*
X010507Y018103D02*
X010277Y018103D01*
X010277Y017949D02*
X010277Y018410D01*
X010507Y018410D01*
X010584Y018333D01*
X010584Y018179D01*
X010507Y018103D01*
X010737Y018256D02*
X010891Y018410D01*
X010891Y017949D01*
X011044Y019130D02*
X010737Y019130D01*
X011044Y019437D01*
X011044Y019514D01*
X010967Y019591D01*
X010814Y019591D01*
X010737Y019514D01*
X010584Y019514D02*
X010507Y019591D01*
X010277Y019591D01*
X010277Y019130D01*
X010277Y019284D02*
X010507Y019284D01*
X010584Y019360D01*
X010584Y019514D01*
X010430Y019284D02*
X010584Y019130D01*
X009426Y019311D02*
X009119Y019311D01*
X009272Y019311D02*
X009272Y019772D01*
X009119Y019618D01*
X008966Y019772D02*
X008659Y019311D01*
X008966Y019311D02*
X008659Y019772D01*
X021928Y021902D02*
X022005Y021825D01*
X022312Y021825D01*
X022388Y021902D01*
X022388Y022055D01*
X022312Y022132D01*
X022388Y022286D02*
X022388Y022592D01*
X022388Y022439D02*
X021928Y022439D01*
X022081Y022286D01*
X022005Y022132D02*
X021928Y022055D01*
X021928Y021902D01*
X022040Y023449D02*
X022040Y023910D01*
X022271Y023910D01*
X022347Y023833D01*
X022347Y023679D01*
X022271Y023603D01*
X022040Y023603D01*
X022501Y023449D02*
X022654Y023603D01*
X022808Y023449D01*
X022808Y023910D01*
X022961Y023833D02*
X022961Y023756D01*
X023038Y023679D01*
X023191Y023679D01*
X023268Y023603D01*
X023268Y023526D01*
X023191Y023449D01*
X023038Y023449D01*
X022961Y023526D01*
X022961Y023833D02*
X023038Y023910D01*
X023191Y023910D01*
X023268Y023833D01*
X023422Y023756D02*
X023575Y023910D01*
X023575Y023449D01*
X023422Y023449D02*
X023729Y023449D01*
X022501Y023449D02*
X022501Y023910D01*
X026345Y020079D02*
X026345Y019772D01*
X026115Y020002D01*
X026575Y020002D01*
X026575Y019618D02*
X026422Y019465D01*
X026422Y019542D02*
X026422Y019311D01*
X026575Y019311D02*
X026115Y019311D01*
X026115Y019542D01*
X026192Y019618D01*
X026345Y019618D01*
X026422Y019542D01*
X027493Y019542D02*
X027493Y019311D01*
X027953Y019311D01*
X027800Y019311D02*
X027800Y019542D01*
X027723Y019618D01*
X027570Y019618D01*
X027493Y019542D01*
X027570Y019772D02*
X027493Y019848D01*
X027493Y020002D01*
X027570Y020079D01*
X027646Y020079D01*
X027723Y020002D01*
X027800Y020079D01*
X027876Y020079D01*
X027953Y020002D01*
X027953Y019848D01*
X027876Y019772D01*
X027953Y019618D02*
X027800Y019465D01*
X027723Y019925D02*
X027723Y020002D01*
X026121Y003122D02*
X026044Y003122D01*
X025967Y003046D01*
X025967Y002816D01*
X026121Y002816D01*
X026197Y002892D01*
X026197Y003046D01*
X026121Y003122D01*
X025967Y002816D02*
X025814Y002969D01*
X025737Y003122D01*
X025737Y002662D02*
X026197Y002355D01*
X026197Y002662D02*
X025737Y002355D01*
D14*
X025450Y002508D02*
X025452Y002581D01*
X025458Y002654D01*
X025468Y002726D01*
X025482Y002798D01*
X025499Y002869D01*
X025521Y002939D01*
X025546Y003008D01*
X025575Y003075D01*
X025607Y003140D01*
X025643Y003204D01*
X025683Y003266D01*
X025725Y003325D01*
X025771Y003382D01*
X025820Y003436D01*
X025872Y003488D01*
X025926Y003537D01*
X025983Y003583D01*
X026042Y003625D01*
X026104Y003665D01*
X026168Y003701D01*
X026233Y003733D01*
X026300Y003762D01*
X026369Y003787D01*
X026439Y003809D01*
X026510Y003826D01*
X026582Y003840D01*
X026654Y003850D01*
X026727Y003856D01*
X026800Y003858D01*
X026873Y003856D01*
X026946Y003850D01*
X027018Y003840D01*
X027090Y003826D01*
X027161Y003809D01*
X027231Y003787D01*
X027300Y003762D01*
X027367Y003733D01*
X027432Y003701D01*
X027496Y003665D01*
X027558Y003625D01*
X027617Y003583D01*
X027674Y003537D01*
X027728Y003488D01*
X027780Y003436D01*
X027829Y003382D01*
X027875Y003325D01*
X027917Y003266D01*
X027957Y003204D01*
X027993Y003140D01*
X028025Y003075D01*
X028054Y003008D01*
X028079Y002939D01*
X028101Y002869D01*
X028118Y002798D01*
X028132Y002726D01*
X028142Y002654D01*
X028148Y002581D01*
X028150Y002508D01*
X028148Y002435D01*
X028142Y002362D01*
X028132Y002290D01*
X028118Y002218D01*
X028101Y002147D01*
X028079Y002077D01*
X028054Y002008D01*
X028025Y001941D01*
X027993Y001876D01*
X027957Y001812D01*
X027917Y001750D01*
X027875Y001691D01*
X027829Y001634D01*
X027780Y001580D01*
X027728Y001528D01*
X027674Y001479D01*
X027617Y001433D01*
X027558Y001391D01*
X027496Y001351D01*
X027432Y001315D01*
X027367Y001283D01*
X027300Y001254D01*
X027231Y001229D01*
X027161Y001207D01*
X027090Y001190D01*
X027018Y001176D01*
X026946Y001166D01*
X026873Y001160D01*
X026800Y001158D01*
X026727Y001160D01*
X026654Y001166D01*
X026582Y001176D01*
X026510Y001190D01*
X026439Y001207D01*
X026369Y001229D01*
X026300Y001254D01*
X026233Y001283D01*
X026168Y001315D01*
X026104Y001351D01*
X026042Y001391D01*
X025983Y001433D01*
X025926Y001479D01*
X025872Y001528D01*
X025820Y001580D01*
X025771Y001634D01*
X025725Y001691D01*
X025683Y001750D01*
X025643Y001812D01*
X025607Y001876D01*
X025575Y001941D01*
X025546Y002008D01*
X025521Y002077D01*
X025499Y002147D01*
X025482Y002218D01*
X025468Y002290D01*
X025458Y002362D01*
X025452Y002435D01*
X025450Y002508D01*
X021720Y006568D02*
X021720Y008418D01*
X021720Y009118D02*
X021720Y010968D01*
X016920Y010968D01*
X016920Y008868D01*
X017820Y008868D01*
X017820Y008668D01*
X016920Y008668D01*
X016920Y006568D01*
X021720Y006568D01*
X022002Y011003D02*
X022902Y011003D01*
X022552Y011703D02*
X022102Y011703D01*
X022102Y013703D01*
X022552Y013703D01*
X022552Y011703D01*
X022002Y011003D02*
X022002Y020903D01*
X022902Y020903D01*
X022752Y020453D02*
X022102Y020453D01*
X022102Y020203D01*
X022102Y018203D01*
X022552Y018203D01*
X022552Y020203D01*
X022302Y020203D01*
X022302Y020353D01*
X022752Y020353D01*
X022302Y020203D02*
X022102Y020203D01*
X024202Y020903D02*
X025102Y020903D01*
X025102Y011003D01*
X024202Y011003D01*
X024352Y011453D02*
X025002Y011453D01*
X025002Y011703D01*
X025002Y013703D01*
X024552Y013703D01*
X024552Y011703D01*
X024802Y011703D01*
X024802Y011553D01*
X024352Y011553D01*
X024802Y011703D02*
X025002Y011703D01*
X025002Y018203D02*
X024552Y018203D01*
X024552Y020203D01*
X025002Y020203D01*
X025002Y018203D01*
X025450Y022508D02*
X025452Y022581D01*
X025458Y022654D01*
X025468Y022726D01*
X025482Y022798D01*
X025499Y022869D01*
X025521Y022939D01*
X025546Y023008D01*
X025575Y023075D01*
X025607Y023140D01*
X025643Y023204D01*
X025683Y023266D01*
X025725Y023325D01*
X025771Y023382D01*
X025820Y023436D01*
X025872Y023488D01*
X025926Y023537D01*
X025983Y023583D01*
X026042Y023625D01*
X026104Y023665D01*
X026168Y023701D01*
X026233Y023733D01*
X026300Y023762D01*
X026369Y023787D01*
X026439Y023809D01*
X026510Y023826D01*
X026582Y023840D01*
X026654Y023850D01*
X026727Y023856D01*
X026800Y023858D01*
X026873Y023856D01*
X026946Y023850D01*
X027018Y023840D01*
X027090Y023826D01*
X027161Y023809D01*
X027231Y023787D01*
X027300Y023762D01*
X027367Y023733D01*
X027432Y023701D01*
X027496Y023665D01*
X027558Y023625D01*
X027617Y023583D01*
X027674Y023537D01*
X027728Y023488D01*
X027780Y023436D01*
X027829Y023382D01*
X027875Y023325D01*
X027917Y023266D01*
X027957Y023204D01*
X027993Y023140D01*
X028025Y023075D01*
X028054Y023008D01*
X028079Y022939D01*
X028101Y022869D01*
X028118Y022798D01*
X028132Y022726D01*
X028142Y022654D01*
X028148Y022581D01*
X028150Y022508D01*
X028148Y022435D01*
X028142Y022362D01*
X028132Y022290D01*
X028118Y022218D01*
X028101Y022147D01*
X028079Y022077D01*
X028054Y022008D01*
X028025Y021941D01*
X027993Y021876D01*
X027957Y021812D01*
X027917Y021750D01*
X027875Y021691D01*
X027829Y021634D01*
X027780Y021580D01*
X027728Y021528D01*
X027674Y021479D01*
X027617Y021433D01*
X027558Y021391D01*
X027496Y021351D01*
X027432Y021315D01*
X027367Y021283D01*
X027300Y021254D01*
X027231Y021229D01*
X027161Y021207D01*
X027090Y021190D01*
X027018Y021176D01*
X026946Y021166D01*
X026873Y021160D01*
X026800Y021158D01*
X026727Y021160D01*
X026654Y021166D01*
X026582Y021176D01*
X026510Y021190D01*
X026439Y021207D01*
X026369Y021229D01*
X026300Y021254D01*
X026233Y021283D01*
X026168Y021315D01*
X026104Y021351D01*
X026042Y021391D01*
X025983Y021433D01*
X025926Y021479D01*
X025872Y021528D01*
X025820Y021580D01*
X025771Y021634D01*
X025725Y021691D01*
X025683Y021750D01*
X025643Y021812D01*
X025607Y021876D01*
X025575Y021941D01*
X025546Y022008D01*
X025521Y022077D01*
X025499Y022147D01*
X025482Y022218D01*
X025468Y022290D01*
X025458Y022362D01*
X025452Y022435D01*
X025450Y022508D01*
X013685Y017064D02*
X012785Y017064D01*
X013135Y016364D02*
X013135Y014364D01*
X013585Y014364D01*
X013585Y016364D01*
X013135Y016364D01*
X013685Y017064D02*
X013685Y007164D01*
X012785Y007164D01*
X012935Y007614D02*
X013585Y007614D01*
X013585Y007864D01*
X013585Y009864D01*
X013135Y009864D01*
X013135Y007864D01*
X013385Y007864D01*
X013385Y007714D01*
X012935Y007714D01*
X013385Y007864D02*
X013585Y007864D01*
X011485Y007164D02*
X010585Y007164D01*
X010585Y017064D01*
X011485Y017064D01*
X011335Y016614D02*
X010685Y016614D01*
X010685Y016364D01*
X010685Y014364D01*
X011135Y014364D01*
X011135Y016364D01*
X010885Y016364D01*
X010885Y016514D01*
X011335Y016514D01*
X010885Y016364D02*
X010685Y016364D01*
X010238Y016364D02*
X009788Y016364D01*
X009788Y014364D01*
X010238Y014364D01*
X010238Y016364D01*
X010338Y017064D02*
X009438Y017064D01*
X010338Y017064D02*
X010338Y007164D01*
X009438Y007164D01*
X009588Y007614D02*
X010238Y007614D01*
X010238Y007864D01*
X010238Y009864D01*
X009788Y009864D01*
X009788Y007864D01*
X010038Y007864D01*
X010038Y007714D01*
X009588Y007714D01*
X010038Y007864D02*
X010238Y007864D01*
X010685Y007864D02*
X011135Y007864D01*
X011135Y009864D01*
X010685Y009864D01*
X010685Y007864D01*
X008138Y007164D02*
X007238Y007164D01*
X007238Y017064D01*
X008138Y017064D01*
X007988Y016614D02*
X007338Y016614D01*
X007338Y016364D01*
X007338Y014364D01*
X007788Y014364D01*
X007788Y016364D01*
X007538Y016364D01*
X007538Y016514D01*
X007988Y016514D01*
X007538Y016364D02*
X007338Y016364D01*
X006892Y016364D02*
X006442Y016364D01*
X006442Y014364D01*
X006892Y014364D01*
X006892Y016364D01*
X006992Y017064D02*
X006092Y017064D01*
X006992Y017064D02*
X006992Y007164D01*
X006092Y007164D01*
X006242Y007614D02*
X006892Y007614D01*
X006892Y007864D01*
X006892Y009864D01*
X006442Y009864D01*
X006442Y007864D01*
X006692Y007864D01*
X006692Y007714D01*
X006242Y007714D01*
X006692Y007864D02*
X006892Y007864D01*
X007338Y007864D02*
X007788Y007864D01*
X007788Y009864D01*
X007338Y009864D01*
X007338Y007864D01*
X004792Y007164D02*
X003892Y007164D01*
X003892Y017064D01*
X004792Y017064D01*
X004642Y016614D02*
X003992Y016614D01*
X003992Y016364D01*
X003992Y014364D01*
X004442Y014364D01*
X004442Y016364D01*
X004192Y016364D01*
X004192Y016514D01*
X004642Y016514D01*
X004192Y016364D02*
X003992Y016364D01*
X003545Y016364D02*
X003095Y016364D01*
X003095Y014364D01*
X003545Y014364D01*
X003545Y016364D01*
X003645Y017064D02*
X002745Y017064D01*
X003645Y017064D02*
X003645Y007164D01*
X002745Y007164D01*
X002895Y007614D02*
X003545Y007614D01*
X003545Y007864D01*
X003545Y009864D01*
X003095Y009864D01*
X003095Y007864D01*
X003345Y007864D01*
X003345Y007714D01*
X002895Y007714D01*
X003345Y007864D02*
X003545Y007864D01*
X003992Y007864D02*
X004442Y007864D01*
X004442Y009864D01*
X003992Y009864D01*
X003992Y007864D01*
X001445Y007164D02*
X000545Y007164D01*
X000545Y017064D01*
X001445Y017064D01*
X001295Y016614D02*
X000645Y016614D01*
X000645Y016364D01*
X000645Y014364D01*
X001095Y014364D01*
X001095Y016364D01*
X000845Y016364D01*
X000845Y016514D01*
X001295Y016514D01*
X000845Y016364D02*
X000645Y016364D01*
X000450Y022508D02*
X000452Y022581D01*
X000458Y022654D01*
X000468Y022726D01*
X000482Y022798D01*
X000499Y022869D01*
X000521Y022939D01*
X000546Y023008D01*
X000575Y023075D01*
X000607Y023140D01*
X000643Y023204D01*
X000683Y023266D01*
X000725Y023325D01*
X000771Y023382D01*
X000820Y023436D01*
X000872Y023488D01*
X000926Y023537D01*
X000983Y023583D01*
X001042Y023625D01*
X001104Y023665D01*
X001168Y023701D01*
X001233Y023733D01*
X001300Y023762D01*
X001369Y023787D01*
X001439Y023809D01*
X001510Y023826D01*
X001582Y023840D01*
X001654Y023850D01*
X001727Y023856D01*
X001800Y023858D01*
X001873Y023856D01*
X001946Y023850D01*
X002018Y023840D01*
X002090Y023826D01*
X002161Y023809D01*
X002231Y023787D01*
X002300Y023762D01*
X002367Y023733D01*
X002432Y023701D01*
X002496Y023665D01*
X002558Y023625D01*
X002617Y023583D01*
X002674Y023537D01*
X002728Y023488D01*
X002780Y023436D01*
X002829Y023382D01*
X002875Y023325D01*
X002917Y023266D01*
X002957Y023204D01*
X002993Y023140D01*
X003025Y023075D01*
X003054Y023008D01*
X003079Y022939D01*
X003101Y022869D01*
X003118Y022798D01*
X003132Y022726D01*
X003142Y022654D01*
X003148Y022581D01*
X003150Y022508D01*
X003148Y022435D01*
X003142Y022362D01*
X003132Y022290D01*
X003118Y022218D01*
X003101Y022147D01*
X003079Y022077D01*
X003054Y022008D01*
X003025Y021941D01*
X002993Y021876D01*
X002957Y021812D01*
X002917Y021750D01*
X002875Y021691D01*
X002829Y021634D01*
X002780Y021580D01*
X002728Y021528D01*
X002674Y021479D01*
X002617Y021433D01*
X002558Y021391D01*
X002496Y021351D01*
X002432Y021315D01*
X002367Y021283D01*
X002300Y021254D01*
X002231Y021229D01*
X002161Y021207D01*
X002090Y021190D01*
X002018Y021176D01*
X001946Y021166D01*
X001873Y021160D01*
X001800Y021158D01*
X001727Y021160D01*
X001654Y021166D01*
X001582Y021176D01*
X001510Y021190D01*
X001439Y021207D01*
X001369Y021229D01*
X001300Y021254D01*
X001233Y021283D01*
X001168Y021315D01*
X001104Y021351D01*
X001042Y021391D01*
X000983Y021433D01*
X000926Y021479D01*
X000872Y021528D01*
X000820Y021580D01*
X000771Y021634D01*
X000725Y021691D01*
X000683Y021750D01*
X000643Y021812D01*
X000607Y021876D01*
X000575Y021941D01*
X000546Y022008D01*
X000521Y022077D01*
X000499Y022147D01*
X000482Y022218D01*
X000468Y022290D01*
X000458Y022362D01*
X000452Y022435D01*
X000450Y022508D01*
X000645Y009864D02*
X001095Y009864D01*
X001095Y007864D01*
X000645Y007864D01*
X000645Y009864D01*
X000450Y002508D02*
X000452Y002581D01*
X000458Y002654D01*
X000468Y002726D01*
X000482Y002798D01*
X000499Y002869D01*
X000521Y002939D01*
X000546Y003008D01*
X000575Y003075D01*
X000607Y003140D01*
X000643Y003204D01*
X000683Y003266D01*
X000725Y003325D01*
X000771Y003382D01*
X000820Y003436D01*
X000872Y003488D01*
X000926Y003537D01*
X000983Y003583D01*
X001042Y003625D01*
X001104Y003665D01*
X001168Y003701D01*
X001233Y003733D01*
X001300Y003762D01*
X001369Y003787D01*
X001439Y003809D01*
X001510Y003826D01*
X001582Y003840D01*
X001654Y003850D01*
X001727Y003856D01*
X001800Y003858D01*
X001873Y003856D01*
X001946Y003850D01*
X002018Y003840D01*
X002090Y003826D01*
X002161Y003809D01*
X002231Y003787D01*
X002300Y003762D01*
X002367Y003733D01*
X002432Y003701D01*
X002496Y003665D01*
X002558Y003625D01*
X002617Y003583D01*
X002674Y003537D01*
X002728Y003488D01*
X002780Y003436D01*
X002829Y003382D01*
X002875Y003325D01*
X002917Y003266D01*
X002957Y003204D01*
X002993Y003140D01*
X003025Y003075D01*
X003054Y003008D01*
X003079Y002939D01*
X003101Y002869D01*
X003118Y002798D01*
X003132Y002726D01*
X003142Y002654D01*
X003148Y002581D01*
X003150Y002508D01*
X003148Y002435D01*
X003142Y002362D01*
X003132Y002290D01*
X003118Y002218D01*
X003101Y002147D01*
X003079Y002077D01*
X003054Y002008D01*
X003025Y001941D01*
X002993Y001876D01*
X002957Y001812D01*
X002917Y001750D01*
X002875Y001691D01*
X002829Y001634D01*
X002780Y001580D01*
X002728Y001528D01*
X002674Y001479D01*
X002617Y001433D01*
X002558Y001391D01*
X002496Y001351D01*
X002432Y001315D01*
X002367Y001283D01*
X002300Y001254D01*
X002231Y001229D01*
X002161Y001207D01*
X002090Y001190D01*
X002018Y001176D01*
X001946Y001166D01*
X001873Y001160D01*
X001800Y001158D01*
X001727Y001160D01*
X001654Y001166D01*
X001582Y001176D01*
X001510Y001190D01*
X001439Y001207D01*
X001369Y001229D01*
X001300Y001254D01*
X001233Y001283D01*
X001168Y001315D01*
X001104Y001351D01*
X001042Y001391D01*
X000983Y001433D01*
X000926Y001479D01*
X000872Y001528D01*
X000820Y001580D01*
X000771Y001634D01*
X000725Y001691D01*
X000683Y001750D01*
X000643Y001812D01*
X000607Y001876D01*
X000575Y001941D01*
X000546Y002008D01*
X000521Y002077D01*
X000499Y002147D01*
X000482Y002218D01*
X000468Y002290D01*
X000458Y002362D01*
X000452Y002435D01*
X000450Y002508D01*
D15*
X020976Y001012D02*
X020976Y000765D01*
X020976Y000950D02*
X021223Y000950D01*
X021223Y001012D02*
X021223Y000765D01*
X021345Y000765D02*
X021345Y001135D01*
X021468Y001012D01*
X021592Y001135D01*
X021592Y000765D01*
X021713Y000765D02*
X021713Y001135D01*
X021898Y001135D01*
X021960Y001074D01*
X021960Y000950D01*
X021898Y000888D01*
X021713Y000888D01*
X021223Y001012D02*
X021100Y001135D01*
X020976Y001012D01*
X022450Y001135D02*
X022697Y001135D01*
X022697Y001074D01*
X022450Y000827D01*
X022450Y000765D01*
X022818Y000827D02*
X022818Y000888D01*
X022880Y000950D01*
X023003Y000950D01*
X023065Y000888D01*
X023065Y000827D01*
X023003Y000765D01*
X022880Y000765D01*
X022818Y000827D01*
X022880Y000950D02*
X022818Y001012D01*
X022818Y001074D01*
X022880Y001135D01*
X023003Y001135D01*
X023065Y001074D01*
X023065Y001012D01*
X023003Y000950D01*
X023186Y000827D02*
X023186Y000765D01*
X023186Y000827D02*
X023433Y001074D01*
X023433Y001135D01*
X023186Y001135D01*
X023555Y000950D02*
X023740Y000950D01*
X023801Y000888D01*
X023801Y000827D01*
X023740Y000765D01*
X023616Y000765D01*
X023555Y000827D01*
X023555Y000950D01*
X023678Y001074D01*
X023801Y001135D01*
X023923Y001012D02*
X024046Y001135D01*
X024046Y000765D01*
X023923Y000765D02*
X024170Y000765D01*
X024291Y000827D02*
X024353Y000765D01*
X024476Y000765D01*
X024538Y000827D01*
X024538Y000888D01*
X024476Y000950D01*
X024291Y000950D01*
X024291Y000827D01*
X024291Y000950D02*
X024415Y001074D01*
X024538Y001135D01*
X024660Y000950D02*
X024906Y000950D01*
X025028Y001012D02*
X025151Y001135D01*
X025151Y000765D01*
X025028Y000765D02*
X025275Y000765D01*
D16*
X025452Y012492D02*
X026202Y012492D01*
X026202Y014492D01*
X027952Y014492D01*
X027952Y012492D01*
X026202Y012492D01*
X025452Y012492D02*
X025452Y014492D01*
X026202Y014492D01*
X026202Y016035D02*
X025452Y016035D01*
X025452Y018035D01*
X026202Y018035D01*
X026202Y016035D01*
X027952Y016035D01*
X027952Y018035D01*
X026202Y018035D01*
D17*
X024702Y017953D02*
X024702Y013953D01*
X023552Y013903D02*
X023552Y018003D01*
X022402Y017953D02*
X022402Y013953D01*
X013285Y014114D02*
X013285Y010114D01*
X012135Y010064D02*
X012135Y014164D01*
X010985Y014114D02*
X010985Y010114D01*
X009938Y010114D02*
X009938Y014114D01*
X008788Y014164D02*
X008788Y010064D01*
X007638Y010114D02*
X007638Y014114D01*
X006592Y014114D02*
X006592Y010114D01*
X005442Y010064D02*
X005442Y014164D01*
X004292Y014114D02*
X004292Y010114D01*
X003245Y010114D02*
X003245Y014114D01*
X002095Y014164D02*
X002095Y010064D01*
X000945Y010114D02*
X000945Y014114D01*
D18*
X001070Y014239D03*
X003120Y014239D03*
X004417Y014239D03*
X006467Y014239D03*
X007763Y014239D03*
X009813Y014239D03*
X011110Y014239D03*
X013160Y014239D03*
X013160Y009989D03*
X011110Y009989D03*
X009813Y009989D03*
X007763Y009989D03*
X006467Y009989D03*
X004417Y009989D03*
X003120Y009989D03*
X001070Y009989D03*
X022527Y013828D03*
X024577Y013828D03*
X024577Y018078D03*
X022527Y018078D03*
D19*
X023552Y018078D03*
X023552Y013828D03*
X012135Y014239D03*
X008788Y014239D03*
X005442Y014239D03*
X002095Y014239D03*
X002095Y009989D03*
X005442Y009989D03*
X008788Y009989D03*
X012135Y009989D03*
D20*
X013085Y012114D03*
X011185Y012114D03*
X009738Y012114D03*
X007838Y012114D03*
X006392Y012114D03*
X004492Y012114D03*
X003045Y012114D03*
X001145Y012114D03*
X022602Y015953D03*
X024502Y015953D03*
D21*
X024327Y018978D03*
X022777Y018978D03*
X022777Y012928D03*
X024327Y012928D03*
X012910Y015139D03*
X011360Y015139D03*
X009563Y015139D03*
X008013Y015139D03*
X006217Y015139D03*
X004667Y015139D03*
X002870Y015139D03*
X001320Y015139D03*
X001320Y009089D03*
X002870Y009089D03*
X004667Y009089D03*
X006217Y009089D03*
X008013Y009089D03*
X009563Y009089D03*
X011360Y009089D03*
X012910Y009089D03*
D22*
X013035Y008914D03*
X011235Y008914D03*
X009688Y008914D03*
X007888Y008914D03*
X006342Y008914D03*
X004542Y008914D03*
X002995Y008914D03*
X001195Y008914D03*
X001195Y015314D03*
X002995Y015314D03*
X004542Y015314D03*
X006342Y015314D03*
X007888Y015314D03*
X009688Y015314D03*
X011235Y015314D03*
X013035Y015314D03*
X022652Y012753D03*
X024452Y012753D03*
X024452Y019153D03*
X022652Y019153D03*
M02*
