<?xml version="1.0" standalone="no"?>
<!DOCTYPE svg PUBLIC "-//W3C//DTD SVG 20010904//EN" 
"http://www.w3.org/TR/2001/REC-SVG-20010904/DTD/svg10.dtd"> 
<svg xmlns="http://www.w3.org/2000/svg" xmlns:xlink="http://www.w3.org/1999/xlink" 
    width="29.72cm" height="21.00cm" viewBox="0 0 11700 8267 "> 
<title>SVG Picture created as cable-usb.svg </title>
<desc>Picture generated by wxSVG v0100 </desc>
<g style="fill:black; stroke:black; stroke-width:1">
</g>
<g style="fill:#000000; fill-opacity:0.0; stroke:#000000; stroke-opacity:1.00; stroke-linecap:round; stroke-linejoin:round; stroke-width:6" 
   transform="translate(0.00 0.00) scale(1.00 1.00)">
<path d="M5890 4034 L5890 3974" /> 
<g style = "stroke-linecap:round;" > 
<path d="M5890 3974 L5890 3974" /> 
</g><path d="M5890 4031 L5884 4034" /> 
<path d="M5884 4034 L5873 4034" /> 
<path d="M5873 4034 L5867 4031" /> 
<path d="M5867 4031 L5864 4029" /> 
<path d="M5864 4029 L5861 4023" /> 
<path d="M5861 4023 L5861 4006" /> 
<path d="M5861 4006 L5864 4000" /> 
<path d="M5864 4000 L5867 3997" /> 
<path d="M5867 3997 L5873 3994" /> 
<path d="M5873 3994 L5884 3994" /> 
<path d="M5884 3994 L5890 3997" /> 
<g style = "stroke-linecap:round;" > 
<path d="M5890 3997 L5890 3997" /> 
</g><path d="M5918 4011 L5964 4011" /> 
<g style = "stroke-linecap:round;" > 
<path d="M5964 4011 L5964 4011" /> 
</g><path d="M5941 4034 L5941 3989" /> 
<g style = "stroke-linecap:round;" > 
<path d="M5941 3989 L5941 3989" /> 
</g><path d="M5890 3834 L5890 3774" /> 
<g style = "stroke-linecap:round;" > 
<path d="M5890 3774 L5890 3774" /> 
</g><path d="M5890 3831 L5884 3834" /> 
<path d="M5884 3834 L5873 3834" /> 
<path d="M5873 3834 L5867 3831" /> 
<path d="M5867 3831 L5864 3829" /> 
<path d="M5864 3829 L5861 3823" /> 
<path d="M5861 3823 L5861 3806" /> 
<path d="M5861 3806 L5864 3800" /> 
<path d="M5864 3800 L5867 3797" /> 
<path d="M5867 3797 L5873 3794" /> 
<path d="M5873 3794 L5884 3794" /> 
<path d="M5884 3794 L5890 3797" /> 
<g style = "stroke-linecap:round;" > 
<path d="M5890 3797 L5890 3797" /> 
</g><path d="M5918 3811 L5964 3811" /> 
<g style = "stroke-linecap:round;" > 
<path d="M5964 3811 L5964 3811" /> 
</g><path d="M6250 4050 L5800 4050" /> 
</g>
<g style="fill:#000000; fill-opacity:1.00; stroke:#000000; stroke-opacity:1.00; stroke-linecap:round; stroke-linejoin:round; stroke-width:0" 
   transform="translate(0.00 0.00) scale(1.00 1.00)">
<ellipse cx="6000" cy="4650" rx="16" ry="16"  /> 
</g>
<g style="fill:#000000; fill-opacity:1.00; stroke:#000000; stroke-opacity:1.00; stroke-linecap:round; stroke-linejoin:round; stroke-width:6" 
   transform="translate(0.00 0.00) scale(1.00 1.00)">
<path d="M6000 4850 L6000 4450" /> 
<path d="M5200 4300 L5200 4100" /> 
<path d="M5200 4100 L4950 4100" /> 
<path d="M4950 4000 L5450 4000" /> 
<path d="M4950 3900 L5450 3900" /> 
<path d="M4950 3800 L5200 3800" /> 
<path d="M5200 3800 L5200 3600" /> 
<path d="M6250 3650 L6000 3650" /> 
<path d="M6000 3650 L6000 3450" /> 
<path d="M6000 4450 L6250 4450" /> 
<path d="M6000 4650 L6250 4650" /> 
<path d="M6250 3850 L5800 3850" /> 
</g>
<g style="fill:#000000; fill-opacity:0.0; stroke:#000000; stroke-opacity:1.00; stroke-linecap:round; stroke-linejoin:round; stroke-width:6" 
   transform="translate(0.00 0.00) scale(1.00 1.00)">
<path d="M5950 4850 L6000 4900" /> 
<path d="M6000 4900 L6050 4850" /> 
<path d="M6050 4850 L5950 4850" /> 
<ellipse cx="6000" cy="3400" rx="20" ry="20"  /> 
<path d="M6000 3450 L6000 3420" /> 
<path d="M6000 3420 L6000 3420" /> 
<g style = "stroke-linecap:round;" > 
<path d="M6000 3420 L6000 3420" /> 
</g></g>
<g style="fill:#000000; fill-opacity:0.0; stroke:#000000; stroke-opacity:1.00; stroke-linecap:round; stroke-linejoin:round; stroke-width:5" 
   transform="translate(0.00 0.00) scale(1.00 1.00)">
<path d="M5960 3330 L5970 3360" /> 
<path d="M5970 3360 L5980 3330" /> 
<g style = "stroke-linecap:round;" > 
<path d="M5980 3330 L5980 3330" /> 
</g><path d="M6007 3357 L6006 3359" /> 
<path d="M6006 3359 L6002 3360" /> 
<path d="M6002 3360 L5999 3360" /> 
<path d="M5999 3360 L5994 3359" /> 
<path d="M5994 3359 L5992 3356" /> 
<path d="M5992 3356 L5990 3353" /> 
<path d="M5990 3353 L5989 3347" /> 
<path d="M5989 3347 L5989 3343" /> 
<path d="M5989 3343 L5990 3337" /> 
<path d="M5990 3337 L5992 3334" /> 
<path d="M5992 3334 L5994 3332" /> 
<path d="M5994 3332 L5999 3330" /> 
<path d="M5999 3330 L6002 3330" /> 
<path d="M6002 3330 L6006 3332" /> 
<path d="M6006 3332 L6007 3333" /> 
<g style = "stroke-linecap:round;" > 
<path d="M6007 3333 L6007 3333" /> 
</g><path d="M6037 3357 L6036 3359" /> 
<path d="M6036 3359 L6032 3360" /> 
<path d="M6032 3360 L6029 3360" /> 
<path d="M6029 3360 L6024 3359" /> 
<path d="M6024 3359 L6022 3356" /> 
<path d="M6022 3356 L6020 3353" /> 
<path d="M6020 3353 L6019 3347" /> 
<path d="M6019 3347 L6019 3343" /> 
<path d="M6019 3343 L6020 3337" /> 
<path d="M6020 3337 L6022 3334" /> 
<path d="M6022 3334 L6024 3332" /> 
<path d="M6024 3332 L6029 3330" /> 
<path d="M6029 3330 L6032 3330" /> 
<path d="M6032 3330 L6036 3332" /> 
<path d="M6036 3332 L6037 3333" /> 
<g style = "stroke-linecap:round;" > 
<path d="M6037 3333 L6037 3333" /> 
</g></g>
<g style="fill:#000000; fill-opacity:0.0; stroke:#000000; stroke-opacity:1.00; stroke-linecap:round; stroke-linejoin:round; stroke-width:6" 
   transform="translate(0.00 0.00) scale(1.00 1.00)">
<path d="M5340 3984 L5340 3924" /> 
<g style = "stroke-linecap:round;" > 
<path d="M5340 3924 L5340 3924" /> 
</g><path d="M5340 3981 L5334 3984" /> 
<path d="M5334 3984 L5323 3984" /> 
<path d="M5323 3984 L5317 3981" /> 
<path d="M5317 3981 L5314 3979" /> 
<path d="M5314 3979 L5311 3973" /> 
<path d="M5311 3973 L5311 3956" /> 
<path d="M5311 3956 L5314 3950" /> 
<path d="M5314 3950 L5317 3947" /> 
<path d="M5317 3947 L5323 3944" /> 
<path d="M5323 3944 L5334 3944" /> 
<path d="M5334 3944 L5340 3947" /> 
<g style = "stroke-linecap:round;" > 
<path d="M5340 3947 L5340 3947" /> 
</g><path d="M5368 3961 L5414 3961" /> 
<g style = "stroke-linecap:round;" > 
<path d="M5414 3961 L5414 3961" /> 
</g><path d="M5391 3984 L5391 3939" /> 
<g style = "stroke-linecap:round;" > 
<path d="M5391 3939 L5391 3939" /> 
</g><path d="M5340 3884 L5340 3824" /> 
<g style = "stroke-linecap:round;" > 
<path d="M5340 3824 L5340 3824" /> 
</g><path d="M5340 3881 L5334 3884" /> 
<path d="M5334 3884 L5323 3884" /> 
<path d="M5323 3884 L5317 3881" /> 
<path d="M5317 3881 L5314 3879" /> 
<path d="M5314 3879 L5311 3873" /> 
<path d="M5311 3873 L5311 3856" /> 
<path d="M5311 3856 L5314 3850" /> 
<path d="M5314 3850 L5317 3847" /> 
<path d="M5317 3847 L5323 3844" /> 
<path d="M5323 3844 L5334 3844" /> 
<path d="M5334 3844 L5340 3847" /> 
<g style = "stroke-linecap:round;" > 
<path d="M5340 3847 L5340 3847" /> 
</g><path d="M5368 3861 L5414 3861" /> 
<g style = "stroke-linecap:round;" > 
<path d="M5414 3861 L5414 3861" /> 
</g><ellipse cx="5200" cy="3550" rx="20" ry="20"  /> 
<path d="M5200 3600 L5200 3570" /> 
<path d="M5200 3570 L5200 3570" /> 
<g style = "stroke-linecap:round;" > 
<path d="M5200 3570 L5200 3570" /> 
</g></g>
<g style="fill:#000000; fill-opacity:0.0; stroke:#000000; stroke-opacity:1.00; stroke-linecap:round; stroke-linejoin:round; stroke-width:5" 
   transform="translate(0.00 0.00) scale(1.00 1.00)">
<path d="M5160 3480 L5170 3510" /> 
<path d="M5170 3510 L5180 3480" /> 
<g style = "stroke-linecap:round;" > 
<path d="M5180 3480 L5180 3480" /> 
</g><path d="M5207 3507 L5206 3509" /> 
<path d="M5206 3509 L5202 3510" /> 
<path d="M5202 3510 L5199 3510" /> 
<path d="M5199 3510 L5194 3509" /> 
<path d="M5194 3509 L5192 3506" /> 
<path d="M5192 3506 L5190 3503" /> 
<path d="M5190 3503 L5189 3497" /> 
<path d="M5189 3497 L5189 3493" /> 
<path d="M5189 3493 L5190 3487" /> 
<path d="M5190 3487 L5192 3484" /> 
<path d="M5192 3484 L5194 3482" /> 
<path d="M5194 3482 L5199 3480" /> 
<path d="M5199 3480 L5202 3480" /> 
<path d="M5202 3480 L5206 3482" /> 
<path d="M5206 3482 L5207 3483" /> 
<g style = "stroke-linecap:round;" > 
<path d="M5207 3483 L5207 3483" /> 
</g><path d="M5237 3507 L5236 3509" /> 
<path d="M5236 3509 L5232 3510" /> 
<path d="M5232 3510 L5229 3510" /> 
<path d="M5229 3510 L5224 3509" /> 
<path d="M5224 3509 L5222 3506" /> 
<path d="M5222 3506 L5220 3503" /> 
<path d="M5220 3503 L5219 3497" /> 
<path d="M5219 3497 L5219 3493" /> 
<path d="M5219 3493 L5220 3487" /> 
<path d="M5220 3487 L5222 3484" /> 
<path d="M5222 3484 L5224 3482" /> 
<path d="M5224 3482 L5229 3480" /> 
<path d="M5229 3480 L5232 3480" /> 
<path d="M5232 3480 L5236 3482" /> 
<path d="M5236 3482 L5237 3483" /> 
<g style = "stroke-linecap:round;" > 
<path d="M5237 3483 L5237 3483" /> 
</g></g>
<g style="fill:#000000; fill-opacity:0.0; stroke:#000000; stroke-opacity:1.00; stroke-linecap:round; stroke-linejoin:round; stroke-width:6" 
   transform="translate(0.00 0.00) scale(1.00 1.00)">
<path d="M5150 4300 L5200 4350" /> 
<path d="M5200 4350 L5250 4300" /> 
<path d="M5250 4300 L5150 4300" /> 
</g>
<g style="fill:#000000; fill-opacity:0.0; stroke:#000000; stroke-opacity:1.00; stroke-linecap:round; stroke-linejoin:round; stroke-width:12" 
   transform="translate(0.00 0.00) scale(1.00 1.00)">
<path d="M4324 3914 L4324 3963" /> 
<path d="M4324 3963 L4327 3969" /> 
<path d="M4327 3969 L4330 3971" /> 
<path d="M4330 3971 L4336 3974" /> 
<path d="M4336 3974 L4347 3974" /> 
<path d="M4347 3974 L4353 3971" /> 
<path d="M4353 3971 L4356 3969" /> 
<path d="M4356 3969 L4359 3963" /> 
<path d="M4359 3963 L4359 3914" /> 
<g style = "stroke-linecap:round;" > 
<path d="M4359 3914 L4359 3914" /> 
</g><path d="M4384 3971 L4393 3974" /> 
<path d="M4393 3974 L4407 3974" /> 
<path d="M4407 3974 L4413 3971" /> 
<path d="M4413 3971 L4416 3969" /> 
<path d="M4416 3969 L4419 3963" /> 
<path d="M4419 3963 L4419 3957" /> 
<path d="M4419 3957 L4416 3951" /> 
<path d="M4416 3951 L4413 3949" /> 
<path d="M4413 3949 L4407 3946" /> 
<path d="M4407 3946 L4396 3943" /> 
<path d="M4396 3943 L4390 3940" /> 
<path d="M4390 3940 L4387 3937" /> 
<path d="M4387 3937 L4384 3931" /> 
<path d="M4384 3931 L4384 3926" /> 
<path d="M4384 3926 L4387 3920" /> 
<path d="M4387 3920 L4390 3917" /> 
<path d="M4390 3917 L4396 3914" /> 
<path d="M4396 3914 L4410 3914" /> 
<path d="M4410 3914 L4419 3917" /> 
<g style = "stroke-linecap:round;" > 
<path d="M4419 3917 L4419 3917" /> 
</g><path d="M4464 3943 L4473 3946" /> 
<path d="M4473 3946 L4476 3949" /> 
<path d="M4476 3949 L4479 3954" /> 
<path d="M4479 3954 L4479 3963" /> 
<path d="M4479 3963 L4476 3969" /> 
<path d="M4476 3969 L4473 3971" /> 
<path d="M4473 3971 L4467 3974" /> 
<path d="M4467 3974 L4444 3974" /> 
<path d="M4444 3974 L4444 3914" /> 
<path d="M4444 3914 L4464 3914" /> 
<path d="M4464 3914 L4470 3917" /> 
<path d="M4470 3917 L4473 3920" /> 
<path d="M4473 3920 L4476 3926" /> 
<path d="M4476 3926 L4476 3931" /> 
<path d="M4476 3931 L4473 3937" /> 
<path d="M4473 3937 L4470 3940" /> 
<path d="M4470 3940 L4464 3943" /> 
<path d="M4464 3943 L4444 3943" /> 
<g style = "stroke-linecap:round;" > 
<path d="M4444 3943 L4444 3943" /> 
</g></g>
<g style="fill:#000000; fill-opacity:0.0; stroke:#000000; stroke-opacity:1.00; stroke-linecap:round; stroke-linejoin:round; stroke-width:6" 
   transform="translate(0.00 0.00) scale(1.00 1.00)">
<polygon style="fill-rule:evenodd; " 
points="4750,3750
4750,3750
4750,4150
4150,4150
4150,3750
" /> 
<polygon style="fill-rule:evenodd; " 
points="4400,4000
4400,4000
4400,4100
4200,4100
4200,4000
" /> 
<polygon style="fill-rule:evenodd; " 
points="4400,3800
4400,3800
4400,3900
4200,3900
4200,3800
" /> 
<path d="M4750 3800 L4950 3800" /> 
<path d="M4572 3770 L4588 3820" /> 
<path d="M4588 3820 L4605 3770" /> 
<g style = "stroke-linecap:round;" > 
<path d="M4605 3770 L4605 3770" /> 
</g><path d="M4650 3815 L4648 3818" /> 
<path d="M4648 3818 L4641 3820" /> 
<path d="M4641 3820 L4636 3820" /> 
<path d="M4636 3820 L4629 3818" /> 
<path d="M4629 3818 L4624 3813" /> 
<path d="M4624 3813 L4622 3808" /> 
<path d="M4622 3808 L4620 3799" /> 
<path d="M4620 3799 L4620 3792" /> 
<path d="M4620 3792 L4622 3782" /> 
<path d="M4622 3782 L4624 3777" /> 
<path d="M4624 3777 L4629 3773" /> 
<path d="M4629 3773 L4636 3770" /> 
<path d="M4636 3770 L4641 3770" /> 
<path d="M4641 3770 L4648 3773" /> 
<path d="M4648 3773 L4650 3775" /> 
<g style = "stroke-linecap:round;" > 
<path d="M4650 3775 L4650 3775" /> 
</g><path d="M4700 3815 L4698 3818" /> 
<path d="M4698 3818 L4691 3820" /> 
<path d="M4691 3820 L4686 3820" /> 
<path d="M4686 3820 L4679 3818" /> 
<path d="M4679 3818 L4674 3813" /> 
<path d="M4674 3813 L4672 3808" /> 
<path d="M4672 3808 L4670 3799" /> 
<path d="M4670 3799 L4670 3792" /> 
<path d="M4670 3792 L4672 3782" /> 
<path d="M4672 3782 L4674 3777" /> 
<path d="M4674 3777 L4679 3773" /> 
<path d="M4679 3773 L4686 3770" /> 
<path d="M4686 3770 L4691 3770" /> 
<path d="M4691 3770 L4698 3773" /> 
<path d="M4698 3773 L4700 3775" /> 
<g style = "stroke-linecap:round;" > 
<path d="M4700 3775 L4700 3775" /> 
</g><path d="M4864 3785 L4836 3785" /> 
<g style = "stroke-linecap:round;" > 
<path d="M4836 3785 L4836 3785" /> 
</g><path d="M4850 3785 L4850 3735" /> 
<path d="M4850 3735 L4845 3742" /> 
<path d="M4845 3742 L4840 3747" /> 
<path d="M4840 3747 L4836 3750" /> 
<g style = "stroke-linecap:round;" > 
<path d="M4836 3750 L4836 3750" /> 
</g><path d="M4750 3900 L4950 3900" /> 
<path d="M4610 3920 L4610 3870" /> 
<path d="M4610 3870 L4622 3870" /> 
<path d="M4622 3870 L4629 3873" /> 
<path d="M4629 3873 L4634 3877" /> 
<path d="M4634 3877 L4636 3882" /> 
<path d="M4636 3882 L4638 3892" /> 
<path d="M4638 3892 L4638 3899" /> 
<path d="M4638 3899 L4636 3908" /> 
<path d="M4636 3908 L4634 3913" /> 
<path d="M4634 3913 L4629 3918" /> 
<path d="M4629 3918 L4622 3920" /> 
<path d="M4622 3920 L4610 3920" /> 
<path d="M4660 3901 L4698 3901" /> 
<g style = "stroke-linecap:round;" > 
<path d="M4698 3901 L4698 3901" /> 
</g><path d="M4836 3840 L4838 3838" /> 
<path d="M4838 3838 L4843 3835" /> 
<path d="M4843 3835 L4855 3835" /> 
<path d="M4855 3835 L4859 3838" /> 
<path d="M4859 3838 L4862 3840" /> 
<path d="M4862 3840 L4864 3845" /> 
<path d="M4864 3845 L4864 3850" /> 
<path d="M4864 3850 L4862 3857" /> 
<path d="M4862 3857 L4833 3885" /> 
<path d="M4833 3885 L4864 3885" /> 
<g style = "stroke-linecap:round;" > 
<path d="M4864 3885 L4864 3885" /> 
</g><path d="M4750 4000 L4950 4000" /> 
<path d="M4610 4020 L4610 3970" /> 
<path d="M4610 3970 L4622 3970" /> 
<path d="M4622 3970 L4629 3973" /> 
<path d="M4629 3973 L4634 3977" /> 
<path d="M4634 3977 L4636 3982" /> 
<path d="M4636 3982 L4638 3992" /> 
<path d="M4638 3992 L4638 3999" /> 
<path d="M4638 3999 L4636 4008" /> 
<path d="M4636 4008 L4634 4013" /> 
<path d="M4634 4013 L4629 4018" /> 
<path d="M4629 4018 L4622 4020" /> 
<path d="M4622 4020 L4610 4020" /> 
<path d="M4660 4001 L4698 4001" /> 
<g style = "stroke-linecap:round;" > 
<path d="M4698 4001 L4698 4001" /> 
</g><path d="M4679 4020 L4679 3982" /> 
<g style = "stroke-linecap:round;" > 
<path d="M4679 3982 L4679 3982" /> 
</g><path d="M4833 3935 L4864 3935" /> 
<path d="M4864 3935 L4847 3954" /> 
<path d="M4847 3954 L4855 3954" /> 
<path d="M4855 3954 L4859 3957" /> 
<path d="M4859 3957 L4862 3959" /> 
<path d="M4862 3959 L4864 3964" /> 
<path d="M4864 3964 L4864 3976" /> 
<path d="M4864 3976 L4862 3980" /> 
<path d="M4862 3980 L4859 3983" /> 
<path d="M4859 3983 L4855 3985" /> 
<path d="M4855 3985 L4840 3985" /> 
<path d="M4840 3985 L4836 3983" /> 
<path d="M4836 3983 L4833 3980" /> 
<g style = "stroke-linecap:round;" > 
<path d="M4833 3980 L4833 3980" /> 
</g><path d="M4750 4100 L4950 4100" /> 
<path d="M4596 4073 L4591 4070" /> 
<path d="M4591 4070 L4584 4070" /> 
<path d="M4584 4070 L4577 4073" /> 
<path d="M4577 4073 L4572 4077" /> 
<path d="M4572 4077 L4570 4082" /> 
<path d="M4570 4082 L4568 4092" /> 
<path d="M4568 4092 L4568 4099" /> 
<path d="M4568 4099 L4570 4108" /> 
<path d="M4570 4108 L4572 4113" /> 
<path d="M4572 4113 L4577 4118" /> 
<path d="M4577 4118 L4584 4120" /> 
<path d="M4584 4120 L4589 4120" /> 
<path d="M4589 4120 L4596 4118" /> 
<path d="M4596 4118 L4598 4115" /> 
<path d="M4598 4115 L4598 4099" /> 
<path d="M4598 4099 L4589 4099" /> 
<g style = "stroke-linecap:round;" > 
<path d="M4589 4099 L4589 4099" /> 
</g><path d="M4620 4120 L4620 4070" /> 
<path d="M4620 4070 L4648 4120" /> 
<path d="M4648 4120 L4648 4070" /> 
<g style = "stroke-linecap:round;" > 
<path d="M4648 4070 L4648 4070" /> 
</g><path d="M4672 4120 L4672 4070" /> 
<path d="M4672 4070 L4684 4070" /> 
<path d="M4684 4070 L4691 4073" /> 
<path d="M4691 4073 L4696 4077" /> 
<path d="M4696 4077 L4698 4082" /> 
<path d="M4698 4082 L4700 4092" /> 
<path d="M4700 4092 L4700 4099" /> 
<path d="M4700 4099 L4698 4108" /> 
<path d="M4698 4108 L4696 4113" /> 
<path d="M4696 4113 L4691 4118" /> 
<path d="M4691 4118 L4684 4120" /> 
<path d="M4684 4120 L4672 4120" /> 
<path d="M4859 4052 L4859 4085" /> 
<g style = "stroke-linecap:round;" > 
<path d="M4859 4085 L4859 4085" /> 
</g><path d="M4847 4033 L4836 4069" /> 
<path d="M4836 4069 L4866 4069" /> 
<g style = "stroke-linecap:round;" > 
<path d="M4866 4069 L4866 4069" /> 
</g><path d="M4432 3661 L4432 3704" /> 
<path d="M4432 3704 L4430 3713" /> 
<path d="M4430 3713 L4424 3718" /> 
<path d="M4424 3718 L4415 3721" /> 
<path d="M4415 3721 L4410 3721" /> 
<g style = "stroke-linecap:round;" > 
<path d="M4410 3721 L4410 3721" /> 
</g><path d="M4470 3716 L4473 3718" /> 
<path d="M4473 3718 L4470 3721" /> 
<path d="M4470 3721 L4467 3718" /> 
<path d="M4467 3718 L4470 3716" /> 
<path d="M4470 3716 L4470 3721" /> 
<g style = "stroke-linecap:round;" > 
<path d="M4470 3721 L4470 3721" /> 
</g><path d="M4458 3664 L4464 3661" /> 
<path d="M4464 3661 L4478 3661" /> 
<path d="M4478 3661 L4484 3664" /> 
<path d="M4484 3664 L4487 3670" /> 
<path d="M4487 3670 L4487 3676" /> 
<path d="M4487 3676 L4484 3681" /> 
<path d="M4484 3681 L4481 3684" /> 
<path d="M4481 3684 L4476 3687" /> 
<path d="M4476 3687 L4473 3690" /> 
<path d="M4473 3690 L4470 3696" /> 
<path d="M4470 3696 L4470 3698" /> 
<g style = "stroke-linecap:round;" > 
<path d="M4470 3698 L4470 3698" /> 
</g><path d="M7200 4150 A199.00 200.00 0.0 0 0 7400 4350 L7399 4150 z  " /> 
<path d="M7500 3900 A297.06 297.73 0.0 0 0 7200 4150 L7494 4197 z  " /> 
<polygon style="fill-rule:evenodd; " 
points="6550,3600
6550,3600
6550,4700
8250,4700
8250,3600
" /> 
<path d="M7700 4350 L7500 4450" /> 
<g style = "stroke-linecap:round;" > 
<path d="M7500 4450 L7500 4450" /> 
</g><path d="M7850 3900 L7650 4000" /> 
<g style = "stroke-linecap:round;" > 
<path d="M7650 4000 L7650 4000" /> 
</g><path d="M8150 4150 L7950 4250" /> 
<g style = "stroke-linecap:round;" > 
<path d="M7950 4250 L7950 4250" /> 
</g><path d="M6850 4150 L8150 4150" /> 
<path d="M8150 4150 L7950 4050" /> 
<g style = "stroke-linecap:round;" > 
<path d="M7950 4050 L7950 4050" /> 
</g><path d="M7400 4350 L7700 4350" /> 
<path d="M7700 4350 L7500 4250" /> 
<g style = "stroke-linecap:round;" > 
<path d="M7500 4250 L7500 4250" /> 
</g><path d="M7500 3900 L7850 3900" /> 
<path d="M7850 3900 L7650 3800" /> 
<g style = "stroke-linecap:round;" > 
<path d="M7650 3800 L7650 3800" /> 
</g><path d="M6550 4650 L6250 4650" /> 
<path d="M6600 4668 L6607 4670" /> 
<path d="M6607 4670 L6619 4670" /> 
<path d="M6619 4670 L6623 4668" /> 
<path d="M6623 4668 L6626 4665" /> 
<path d="M6626 4665 L6628 4661" /> 
<path d="M6628 4661 L6628 4656" /> 
<path d="M6628 4656 L6626 4651" /> 
<path d="M6626 4651 L6623 4649" /> 
<path d="M6623 4649 L6619 4646" /> 
<path d="M6619 4646 L6609 4644" /> 
<path d="M6609 4644 L6604 4642" /> 
<path d="M6604 4642 L6602 4639" /> 
<path d="M6602 4639 L6600 4635" /> 
<path d="M6600 4635 L6600 4630" /> 
<path d="M6600 4630 L6602 4625" /> 
<path d="M6602 4625 L6604 4623" /> 
<path d="M6604 4623 L6609 4620" /> 
<path d="M6609 4620 L6621 4620" /> 
<path d="M6621 4620 L6628 4623" /> 
<g style = "stroke-linecap:round;" > 
<path d="M6628 4623 L6628 4623" /> 
</g><path d="M6650 4670 L6650 4620" /> 
<g style = "stroke-linecap:round;" > 
<path d="M6650 4620 L6650 4620" /> 
</g><path d="M6671 4670 L6671 4644" /> 
<path d="M6671 4644 L6669 4639" /> 
<path d="M6669 4639 L6664 4637" /> 
<path d="M6664 4637 L6657 4637" /> 
<path d="M6657 4637 L6652 4639" /> 
<path d="M6652 4639 L6650 4642" /> 
<g style = "stroke-linecap:round;" > 
<path d="M6650 4642 L6650 4642" /> 
</g><path d="M6714 4668 L6709 4670" /> 
<path d="M6709 4670 L6700 4670" /> 
<path d="M6700 4670 L6695 4668" /> 
<path d="M6695 4668 L6693 4663" /> 
<path d="M6693 4663 L6693 4644" /> 
<path d="M6693 4644 L6695 4639" /> 
<path d="M6695 4639 L6700 4637" /> 
<path d="M6700 4637 L6709 4637" /> 
<path d="M6709 4637 L6714 4639" /> 
<path d="M6714 4639 L6716 4644" /> 
<path d="M6716 4644 L6716 4649" /> 
<path d="M6716 4649 L6693 4654" /> 
<g style = "stroke-linecap:round;" > 
<path d="M6693 4654 L6693 4654" /> 
</g><path d="M6745 4670 L6740 4668" /> 
<path d="M6740 4668 L6738 4663" /> 
<path d="M6738 4663 L6738 4620" /> 
<g style = "stroke-linecap:round;" > 
<path d="M6738 4620 L6738 4620" /> 
</g><path d="M6771 4670 L6766 4668" /> 
<path d="M6766 4668 L6764 4663" /> 
<path d="M6764 4663 L6764 4620" /> 
<g style = "stroke-linecap:round;" > 
<path d="M6764 4620 L6764 4620" /> 
</g><path d="M6397 4585 L6402 4585" /> 
<path d="M6402 4585 L6407 4588" /> 
<path d="M6407 4588 L6409 4590" /> 
<path d="M6409 4590 L6412 4595" /> 
<path d="M6412 4595 L6414 4604" /> 
<path d="M6414 4604 L6414 4616" /> 
<path d="M6414 4616 L6412 4626" /> 
<path d="M6412 4626 L6409 4630" /> 
<path d="M6409 4630 L6407 4633" /> 
<path d="M6407 4633 L6402 4635" /> 
<path d="M6402 4635 L6397 4635" /> 
<path d="M6397 4635 L6393 4633" /> 
<path d="M6393 4633 L6390 4630" /> 
<path d="M6390 4630 L6388 4626" /> 
<path d="M6388 4626 L6386 4616" /> 
<path d="M6386 4616 L6386 4604" /> 
<path d="M6386 4604 L6388 4595" /> 
<path d="M6388 4595 L6390 4590" /> 
<path d="M6390 4590 L6393 4588" /> 
<path d="M6393 4588 L6397 4585" /> 
<path d="M6550 3650 L6250 3650" /> 
<path d="M6595 3620 L6611 3670" /> 
<path d="M6611 3670 L6628 3620" /> 
<g style = "stroke-linecap:round;" > 
<path d="M6628 3620 L6628 3620" /> 
</g><path d="M6662 3644 L6669 3646" /> 
<path d="M6669 3646 L6671 3649" /> 
<path d="M6671 3649 L6673 3654" /> 
<path d="M6673 3654 L6673 3661" /> 
<path d="M6673 3661 L6671 3665" /> 
<path d="M6671 3665 L6669 3668" /> 
<path d="M6669 3668 L6664 3670" /> 
<path d="M6664 3670 L6645 3670" /> 
<path d="M6645 3670 L6645 3620" /> 
<path d="M6645 3620 L6662 3620" /> 
<path d="M6662 3620 L6666 3623" /> 
<path d="M6666 3623 L6669 3625" /> 
<path d="M6669 3625 L6671 3630" /> 
<path d="M6671 3630 L6671 3635" /> 
<path d="M6671 3635 L6669 3639" /> 
<path d="M6669 3639 L6666 3642" /> 
<path d="M6666 3642 L6662 3644" /> 
<path d="M6662 3644 L6645 3644" /> 
<g style = "stroke-linecap:round;" > 
<path d="M6645 3644 L6645 3644" /> 
</g><path d="M6716 3637 L6716 3670" /> 
<g style = "stroke-linecap:round;" > 
<path d="M6716 3670 L6716 3670" /> 
</g><path d="M6695 3637 L6695 3663" /> 
<path d="M6695 3663 L6697 3668" /> 
<path d="M6697 3668 L6702 3670" /> 
<path d="M6702 3670 L6709 3670" /> 
<path d="M6709 3670 L6714 3668" /> 
<path d="M6714 3668 L6716 3665" /> 
<g style = "stroke-linecap:round;" > 
<path d="M6716 3665 L6716 3665" /> 
</g><path d="M6738 3668 L6742 3670" /> 
<path d="M6742 3670 L6752 3670" /> 
<path d="M6752 3670 L6757 3668" /> 
<path d="M6757 3668 L6759 3663" /> 
<path d="M6759 3663 L6759 3661" /> 
<path d="M6759 3661 L6757 3656" /> 
<path d="M6757 3656 L6752 3654" /> 
<path d="M6752 3654 L6745 3654" /> 
<path d="M6745 3654 L6740 3651" /> 
<path d="M6740 3651 L6738 3646" /> 
<path d="M6738 3646 L6738 3644" /> 
<path d="M6738 3644 L6740 3639" /> 
<path d="M6740 3639 L6745 3637" /> 
<path d="M6745 3637 L6752 3637" /> 
<path d="M6752 3637 L6757 3639" /> 
<g style = "stroke-linecap:round;" > 
<path d="M6757 3639 L6757 3639" /> 
</g><path d="M6414 3635 L6386 3635" /> 
<g style = "stroke-linecap:round;" > 
<path d="M6386 3635 L6386 3635" /> 
</g><path d="M6400 3635 L6400 3585" /> 
<path d="M6400 3585 L6395 3592" /> 
<path d="M6395 3592 L6390 3597" /> 
<path d="M6390 3597 L6386 3600" /> 
<g style = "stroke-linecap:round;" > 
<path d="M6386 3600 L6386 3600" /> 
</g><path d="M6550 3850 L6250 3850" /> 
<path d="M6602 3870 L6602 3820" /> 
<path d="M6602 3820 L6614 3820" /> 
<path d="M6614 3820 L6621 3823" /> 
<path d="M6621 3823 L6626 3827" /> 
<path d="M6626 3827 L6628 3832" /> 
<path d="M6628 3832 L6630 3842" /> 
<path d="M6630 3842 L6630 3849" /> 
<path d="M6630 3849 L6628 3858" /> 
<path d="M6628 3858 L6626 3863" /> 
<path d="M6626 3863 L6621 3868" /> 
<path d="M6621 3868 L6614 3870" /> 
<path d="M6614 3870 L6602 3870" /> 
<path d="M6652 3851 L6690 3851" /> 
<g style = "stroke-linecap:round;" > 
<path d="M6690 3851 L6690 3851" /> 
</g><path d="M6386 3790 L6388 3788" /> 
<path d="M6388 3788 L6393 3785" /> 
<path d="M6393 3785 L6405 3785" /> 
<path d="M6405 3785 L6409 3788" /> 
<path d="M6409 3788 L6412 3790" /> 
<path d="M6412 3790 L6414 3795" /> 
<path d="M6414 3795 L6414 3800" /> 
<path d="M6414 3800 L6412 3807" /> 
<path d="M6412 3807 L6383 3835" /> 
<path d="M6383 3835 L6414 3835" /> 
<g style = "stroke-linecap:round;" > 
<path d="M6414 3835 L6414 3835" /> 
</g><path d="M6550 4050 L6250 4050" /> 
<path d="M6602 4070 L6602 4020" /> 
<path d="M6602 4020 L6614 4020" /> 
<path d="M6614 4020 L6621 4023" /> 
<path d="M6621 4023 L6626 4027" /> 
<path d="M6626 4027 L6628 4032" /> 
<path d="M6628 4032 L6630 4042" /> 
<path d="M6630 4042 L6630 4049" /> 
<path d="M6630 4049 L6628 4058" /> 
<path d="M6628 4058 L6626 4063" /> 
<path d="M6626 4063 L6621 4068" /> 
<path d="M6621 4068 L6614 4070" /> 
<path d="M6614 4070 L6602 4070" /> 
<path d="M6652 4051 L6690 4051" /> 
<g style = "stroke-linecap:round;" > 
<path d="M6690 4051 L6690 4051" /> 
</g><path d="M6671 4070 L6671 4032" /> 
<g style = "stroke-linecap:round;" > 
<path d="M6671 4032 L6671 4032" /> 
</g><path d="M6383 3985 L6414 3985" /> 
<path d="M6414 3985 L6397 4004" /> 
<path d="M6397 4004 L6405 4004" /> 
<path d="M6405 4004 L6409 4007" /> 
<path d="M6409 4007 L6412 4009" /> 
<path d="M6412 4009 L6414 4014" /> 
<path d="M6414 4014 L6414 4026" /> 
<path d="M6414 4026 L6412 4030" /> 
<path d="M6412 4030 L6409 4033" /> 
<path d="M6409 4033 L6405 4035" /> 
<path d="M6405 4035 L6390 4035" /> 
<path d="M6390 4035 L6386 4033" /> 
<path d="M6386 4033 L6383 4030" /> 
<g style = "stroke-linecap:round;" > 
<path d="M6383 4030 L6383 4030" /> 
</g><path d="M6550 4250 L6250 4250" /> 
<path d="M6602 4270 L6602 4220" /> 
<g style = "stroke-linecap:round;" > 
<path d="M6602 4220 L6602 4220" /> 
</g><path d="M6647 4270 L6647 4220" /> 
<g style = "stroke-linecap:round;" > 
<path d="M6647 4220 L6647 4220" /> 
</g><path d="M6647 4268 L6643 4270" /> 
<path d="M6643 4270 L6633 4270" /> 
<path d="M6633 4270 L6628 4268" /> 
<path d="M6628 4268 L6626 4265" /> 
<path d="M6626 4265 L6624 4261" /> 
<path d="M6624 4261 L6624 4246" /> 
<path d="M6624 4246 L6626 4242" /> 
<path d="M6626 4242 L6628 4239" /> 
<path d="M6628 4239 L6633 4237" /> 
<path d="M6633 4237 L6643 4237" /> 
<path d="M6643 4237 L6647 4239" /> 
<g style = "stroke-linecap:round;" > 
<path d="M6647 4239 L6647 4239" /> 
</g><path d="M6409 4202 L6409 4235" /> 
<g style = "stroke-linecap:round;" > 
<path d="M6409 4235 L6409 4235" /> 
</g><path d="M6397 4183 L6386 4219" /> 
<path d="M6386 4219 L6416 4219" /> 
<g style = "stroke-linecap:round;" > 
<path d="M6416 4219 L6416 4219" /> 
</g><path d="M6550 4450 L6250 4450" /> 
<path d="M6628 4423 L6623 4420" /> 
<path d="M6623 4420 L6616 4420" /> 
<path d="M6616 4420 L6609 4423" /> 
<path d="M6609 4423 L6604 4427" /> 
<path d="M6604 4427 L6602 4432" /> 
<path d="M6602 4432 L6600 4442" /> 
<path d="M6600 4442 L6600 4449" /> 
<path d="M6600 4449 L6602 4458" /> 
<path d="M6602 4458 L6604 4463" /> 
<path d="M6604 4463 L6609 4468" /> 
<path d="M6609 4468 L6616 4470" /> 
<path d="M6616 4470 L6621 4470" /> 
<path d="M6621 4470 L6628 4468" /> 
<path d="M6628 4468 L6630 4465" /> 
<path d="M6630 4465 L6630 4449" /> 
<path d="M6630 4449 L6621 4449" /> 
<g style = "stroke-linecap:round;" > 
<path d="M6621 4449 L6621 4449" /> 
</g><path d="M6652 4437 L6652 4470" /> 
<g style = "stroke-linecap:round;" > 
<path d="M6652 4470 L6652 4470" /> 
</g><path d="M6652 4442 L6654 4439" /> 
<path d="M6654 4439 L6659 4437" /> 
<path d="M6659 4437 L6666 4437" /> 
<path d="M6666 4437 L6671 4439" /> 
<path d="M6671 4439 L6673 4444" /> 
<path d="M6673 4444 L6673 4470" /> 
<g style = "stroke-linecap:round;" > 
<path d="M6673 4470 L6673 4470" /> 
</g><path d="M6718 4470 L6718 4420" /> 
<g style = "stroke-linecap:round;" > 
<path d="M6718 4420 L6718 4420" /> 
</g><path d="M6718 4468 L6714 4470" /> 
<path d="M6714 4470 L6704 4470" /> 
<path d="M6704 4470 L6699 4468" /> 
<path d="M6699 4468 L6697 4465" /> 
<path d="M6697 4465 L6695 4461" /> 
<path d="M6695 4461 L6695 4446" /> 
<path d="M6695 4446 L6697 4442" /> 
<path d="M6697 4442 L6699 4439" /> 
<path d="M6699 4439 L6704 4437" /> 
<path d="M6704 4437 L6714 4437" /> 
<path d="M6714 4437 L6718 4439" /> 
<g style = "stroke-linecap:round;" > 
<path d="M6718 4439 L6718 4439" /> 
</g><path d="M6412 4385 L6388 4385" /> 
<path d="M6388 4385 L6386 4409" /> 
<path d="M6386 4409 L6388 4407" /> 
<path d="M6388 4407 L6393 4404" /> 
<path d="M6393 4404 L6405 4404" /> 
<path d="M6405 4404 L6409 4407" /> 
<path d="M6409 4407 L6412 4409" /> 
<path d="M6412 4409 L6414 4414" /> 
<path d="M6414 4414 L6414 4426" /> 
<path d="M6414 4426 L6412 4430" /> 
<path d="M6412 4430 L6409 4433" /> 
<path d="M6409 4433 L6405 4435" /> 
<path d="M6405 4435 L6393 4435" /> 
<path d="M6393 4435 L6388 4433" /> 
<path d="M6388 4433 L6386 4430" /> 
<g style = "stroke-linecap:round;" > 
<path d="M6386 4430 L6386 4430" /> 
</g><path d="M7107 4511 L7107 4560" /> 
<path d="M7107 4560 L7110 4566" /> 
<path d="M7110 4566 L7113 4568" /> 
<path d="M7113 4568 L7119 4571" /> 
<path d="M7119 4571 L7130 4571" /> 
<path d="M7130 4571 L7136 4568" /> 
<path d="M7136 4568 L7139 4566" /> 
<path d="M7139 4566 L7142 4560" /> 
<path d="M7142 4560 L7142 4511" /> 
<g style = "stroke-linecap:round;" > 
<path d="M7142 4511 L7142 4511" /> 
</g><path d="M7179 4566 L7182 4568" /> 
<path d="M7182 4568 L7179 4571" /> 
<path d="M7179 4571 L7176 4568" /> 
<path d="M7176 4568 L7179 4566" /> 
<path d="M7179 4566 L7179 4571" /> 
<g style = "stroke-linecap:round;" > 
<path d="M7179 4571 L7179 4571" /> 
</g><path d="M7167 4514 L7173 4511" /> 
<path d="M7173 4511 L7187 4511" /> 
<path d="M7187 4511 L7193 4514" /> 
<path d="M7193 4514 L7196 4520" /> 
<path d="M7196 4520 L7196 4526" /> 
<path d="M7196 4526 L7193 4531" /> 
<path d="M7193 4531 L7190 4534" /> 
<path d="M7190 4534 L7185 4537" /> 
<path d="M7185 4537 L7182 4540" /> 
<path d="M7182 4540 L7179 4546" /> 
<path d="M7179 4546 L7179 4548" /> 
<g style = "stroke-linecap:round;" > 
<path d="M7179 4548 L7179 4548" /> 
</g><path d="M6875 3771 L6875 3711" /> 
<path d="M6875 3711 L6895 3754" /> 
<path d="M6895 3754 L6915 3711" /> 
<path d="M6915 3711 L6915 3771" /> 
<g style = "stroke-linecap:round;" > 
<path d="M6915 3771 L6915 3771" /> 
</g><path d="M6944 3771 L6944 3711" /> 
<g style = "stroke-linecap:round;" > 
<path d="M6944 3711 L6944 3711" /> 
</g><path d="M6973 3771 L6973 3711" /> 
<path d="M6973 3711 L7008 3771" /> 
<path d="M7008 3771 L7008 3711" /> 
<g style = "stroke-linecap:round;" > 
<path d="M7008 3711 L7008 3711" /> 
</g><path d="M7036 3771 L7036 3711" /> 
<g style = "stroke-linecap:round;" > 
<path d="M7036 3711 L7036 3711" /> 
</g><path d="M7065 3748 L7111 3748" /> 
<g style = "stroke-linecap:round;" > 
<path d="M7111 3748 L7111 3748" /> 
</g><path d="M7139 3711 L7139 3760" /> 
<path d="M7139 3760 L7142 3766" /> 
<path d="M7142 3766 L7145 3768" /> 
<path d="M7145 3768 L7151 3771" /> 
<path d="M7151 3771 L7162 3771" /> 
<path d="M7162 3771 L7168 3768" /> 
<path d="M7168 3768 L7171 3766" /> 
<path d="M7171 3766 L7174 3760" /> 
<path d="M7174 3760 L7174 3711" /> 
<g style = "stroke-linecap:round;" > 
<path d="M7174 3711 L7174 3711" /> 
</g><path d="M7199 3768 L7208 3771" /> 
<path d="M7208 3771 L7222 3771" /> 
<path d="M7222 3771 L7228 3768" /> 
<path d="M7228 3768 L7231 3766" /> 
<path d="M7231 3766 L7234 3760" /> 
<path d="M7234 3760 L7234 3754" /> 
<path d="M7234 3754 L7231 3748" /> 
<path d="M7231 3748 L7228 3746" /> 
<path d="M7228 3746 L7222 3743" /> 
<path d="M7222 3743 L7211 3740" /> 
<path d="M7211 3740 L7205 3737" /> 
<path d="M7205 3737 L7202 3734" /> 
<path d="M7202 3734 L7199 3728" /> 
<path d="M7199 3728 L7199 3723" /> 
<path d="M7199 3723 L7202 3717" /> 
<path d="M7202 3717 L7205 3714" /> 
<path d="M7205 3714 L7211 3711" /> 
<path d="M7211 3711 L7225 3711" /> 
<path d="M7225 3711 L7234 3714" /> 
<g style = "stroke-linecap:round;" > 
<path d="M7234 3714 L7234 3714" /> 
</g><path d="M7279 3740 L7288 3743" /> 
<path d="M7288 3743 L7291 3746" /> 
<path d="M7291 3746 L7294 3751" /> 
<path d="M7294 3751 L7294 3760" /> 
<path d="M7294 3760 L7291 3766" /> 
<path d="M7291 3766 L7288 3768" /> 
<path d="M7288 3768 L7282 3771" /> 
<path d="M7282 3771 L7259 3771" /> 
<path d="M7259 3771 L7259 3711" /> 
<path d="M7259 3711 L7279 3711" /> 
<path d="M7279 3711 L7285 3714" /> 
<path d="M7285 3714 L7288 3717" /> 
<path d="M7288 3717 L7291 3723" /> 
<path d="M7291 3723 L7291 3728" /> 
<path d="M7291 3728 L7288 3734" /> 
<path d="M7288 3734 L7285 3737" /> 
<path d="M7285 3737 L7279 3740" /> 
<path d="M7279 3740 L7259 3740" /> 
<g style = "stroke-linecap:round;" > 
<path d="M7259 3740 L7259 3740" /> 
</g><path d="M7319 3748 L7365 3748" /> 
<g style = "stroke-linecap:round;" > 
<path d="M7365 3748 L7365 3748" /> 
</g><path d="M7413 3740 L7422 3743" /> 
<path d="M7422 3743 L7425 3746" /> 
<path d="M7425 3746 L7428 3751" /> 
<path d="M7428 3751 L7428 3760" /> 
<path d="M7428 3760 L7425 3766" /> 
<path d="M7425 3766 L7422 3768" /> 
<path d="M7422 3768 L7416 3771" /> 
<path d="M7416 3771 L7393 3771" /> 
<path d="M7393 3771 L7393 3711" /> 
<path d="M7393 3711 L7413 3711" /> 
<path d="M7413 3711 L7419 3714" /> 
<path d="M7419 3714 L7422 3717" /> 
<path d="M7422 3717 L7425 3723" /> 
<path d="M7425 3723 L7425 3728" /> 
<path d="M7425 3728 L7422 3734" /> 
<path d="M7422 3734 L7419 3737" /> 
<path d="M7419 3737 L7413 3740" /> 
<path d="M7413 3740 L7393 3740" /> 
<g style = "stroke-linecap:round;" > 
<path d="M7393 3740 L7393 3740" /> 
</g></g> 
</svg> 
