<?xml version="1.0" standalone="no"?>
<!DOCTYPE svg PUBLIC "-//W3C//DTD SVG 20010904//EN" 
"http://www.w3.org/TR/2001/REC-SVG-20010904/DTD/svg10.dtd"> 
<svg xmlns="http://www.w3.org/2000/svg" xmlns:xlink="http://www.w3.org/1999/xlink" 
    width="29.72cm" height="21.00cm" viewBox="0 0 11700 8267 "> 
<title>SVG Picture created as cable-usb.svg </title>
<desc>Picture generated by wxSVG v0100 </desc>
<g style="fill:black; stroke:black; stroke-width:1">
</g>
<g style="fill:#000000; fill-opacity:0.0; stroke:#000000; stroke-opacity:1.00; stroke-linecap:round; stroke-linejoin:round; stroke-width:6" 
   transform="translate(0.00 0.00) scale(1.00 1.00)">
<path d="M5890 4034 L5890 3974" /> 
<g style = "stroke-linecap:round;" > 
<path d="M5890 3974 L5890 3974" /> 
</g><path d="M5890 4031 L5884 4034" /> 
<path d="M5884 4034 L5873 4034" /> 
<path d="M5873 4034 L5867 4031" /> 
<path d="M5867 4031 L5864 4029" /> 
<path d="M5864 4029 L5861 4023" /> 
<path d="M5861 4023 L5861 4006" /> 
<path d="M5861 4006 L5864 4000" /> 
<path d="M5864 4000 L5867 3997" /> 
<path d="M5867 3997 L5873 3994" /> 
<path d="M5873 3994 L5884 3994" /> 
<path d="M5884 3994 L5890 3997" /> 
<g style = "stroke-linecap:round;" > 
<path d="M5890 3997 L5890 3997" /> 
</g><path d="M5918 4011 L5964 4011" /> 
<g style = "stroke-linecap:round;" > 
<path d="M5964 4011 L5964 4011" /> 
</g><path d="M5941 4034 L5941 3989" /> 
<g style = "stroke-linecap:round;" > 
<path d="M5941 3989 L5941 3989" /> 
</g><path d="M5890 3834 L5890 3774" /> 
<g style = "stroke-linecap:round;" > 
<path d="M5890 3774 L5890 3774" /> 
</g><path d="M5890 3831 L5884 3834" /> 
<path d="M5884 3834 L5873 3834" /> 
<path d="M5873 3834 L5867 3831" /> 
<path d="M5867 3831 L5864 3829" /> 
<path d="M5864 3829 L5861 3823" /> 
<path d="M5861 3823 L5861 3806" /> 
<path d="M5861 3806 L5864 3800" /> 
<path d="M5864 3800 L5867 3797" /> 
<path d="M5867 3797 L5873 3794" /> 
<path d="M5873 3794 L5884 3794" /> 
<path d="M5884 3794 L5890 3797" /> 
<g style = "stroke-linecap:round;" > 
<path d="M5890 3797 L5890 3797" /> 
</g><path d="M5918 3811 L5964 3811" /> 
<g style = "stroke-linecap:round;" > 
<path d="M5964 3811 L5964 3811" /> 
</g><path d="M6250 4050 L5800 4050" /> 
</g>
<g style="fill:#000000; fill-opacity:1.00; stroke:#000000; stroke-opacity:1.00; stroke-linecap:round; stroke-linejoin:round; stroke-width:0" 
   transform="translate(0.00 0.00) scale(1.00 1.00)">
<ellipse cx="6000" cy="4650" rx="16" ry="16"  /> 
</g>
<g style="fill:#000000; fill-opacity:1.00; stroke:#000000; stroke-opacity:1.00; stroke-linecap:round; stroke-linejoin:round; stroke-width:6" 
   transform="translate(0.00 0.00) scale(1.00 1.00)">
<path d="M6000 4850 L6000 4450" /> 
<path d="M5200 4300 L5200 4100" /> 
<path d="M5200 4100 L4950 4100" /> 
<path d="M4950 4000 L5450 4000" /> 
<path d="M4950 3900 L5450 3900" /> 
<path d="M4950 3800 L5200 3800" /> 
<path d="M5200 3800 L5200 3600" /> 
<path d="M6250 3650 L6000 3650" /> 
<path d="M6000 3650 L6000 3450" /> 
<path d="M6000 4450 L6250 4450" /> 
<path d="M6000 4650 L6250 4650" /> 
<path d="M6250 3850 L5800 3850" /> 
</g>
<g style="fill:#000000; fill-opacity:0.0; stroke:#000000; stroke-opacity:1.00; stroke-linecap:round; stroke-linejoin:round; stroke-width:6" 
   transform="translate(0.00 0.00) scale(1.00 1.00)">
<path d="M5950 4850 L6000 4900" /> 
<path d="M6000 4900 L6050 4850" /> 
<path d="M6050 4850 L5950 4850" /> 
<ellipse cx="6000" cy="3400" rx="20" ry="20"  /> 
<path d="M6000 3450 L6000 3420" /> 
<path d="M6000 3420 L6000 3420" /> 
<g style = "stroke-linecap:round;" > 
<path d="M6000 3420 L6000 3420" /> 
</g></g>
<g style="fill:#000000; fill-opacity:0.0; stroke:#000000; stroke-opacity:1.00; stroke-linecap:round; stroke-linejoin:round; stroke-width:5" 
   transform="translate(0.00 0.00) scale(1.00 1.00)">
<path d="M5960 3330 L5970 3360" /> 
<path d="M5970 3360 L5980 3330" /> 
<g style = "stroke-linecap:round;" > 
<path d="M5980 3330 L5980 3330" /> 
</g><path d="M6007 3357 L6006 3359" /> 
<path d="M6006 3359 L6002 3360" /> 
<path d="M6002 3360 L5999 3360" /> 
<path d="M5999 3360 L5994 3359" /> 
<path d="M5994 3359 L5992 3356" /> 
<path d="M5992 3356 L5990 3353" /> 
<path d="M5990 3353 L5989 3347" /> 
<path d="M5989 3347 L5989 3343" /> 
<path d="M5989 3343 L5990 3337" /> 
<path d="M5990 3337 L5992 3334" /> 
<path d="M5992 3334 L5994 3332" /> 
<path d="M5994 3332 L5999 3330" /> 
<path d="M5999 3330 L6002 3330" /> 
<path d="M6002 3330 L6006 3332" /> 
<path d="M6006 3332 L6007 3333" /> 
<g style = "stroke-linecap:round;" > 
<path d="M6007 3333 L6007 3333" /> 
</g><path d="M6037 3357 L6036 3359" /> 
<path d="M6036 3359 L6032 3360" /> 
<path d="M6032 3360 L6029 3360" /> 
<path d="M6029 3360 L6024 3359" /> 
<path d="M6024 3359 L6022 3356" /> 
<path d="M6022 3356 L6020 3353" /> 
<path d="M6020 3353 L6019 3347" /> 
<path d="M6019 3347 L6019 3343" /> 
<path d="M6019 3343 L6020 3337" /> 
<path d="M6020 3337 L6022 3334" /> 
<path d="M6022 3334 L6024 3332" /> 
<path d="M6024 3332 L6029 3330" /> 
<path d="M6029 3330 L6032 3330" /> 
<path d="M6032 3330 L6036 3332" /> 
<path d="M6036 3332 L6037 3333" /> 
<g style = "stroke-linecap:round;" > 
<path d="M6037 3333 L6037 3333" /> 
</g></g>
<g style="fill:#000000; fill-opacity:0.0; stroke:#000000; stroke-opacity:1.00; stroke-linecap:round; stroke-linejoin:round; stroke-width:6" 
   transform="translate(0.00 0.00) scale(1.00 1.00)">
<path d="M5340 3984 L5340 3924" /> 
<g style = "stroke-linecap:round;" > 
<path d="M5340 3924 L5340 3924" /> 
</g><path d="M5340 3981 L5334 3984" /> 
<path d="M5334 3984 L5323 3984" /> 
<path d="M5323 3984 L5317 3981" /> 
<path d="M5317 3981 L5314 3979" /> 
<path d="M5314 3979 L5311 3973" /> 
<path d="M5311 3973 L5311 3956" /> 
<path d="M5311 3956 L5314 3950" /> 
<path d="M5314 3950 L5317 3947" /> 
<path d="M5317 3947 L5323 3944" /> 
<path d="M5323 3944 L5334 3944" /> 
<path d="M5334 3944 L5340 3947" /> 
<g style = "stroke-linecap:round;" > 
<path d="M5340 3947 L5340 3947" /> 
</g><path d="M5368 3961 L5414 3961" /> 
<g style = "stroke-linecap:round;" > 
<path d="M5414 3961 L5414 3961" /> 
</g><path d="M5391 3984 L5391 3939" /> 
<g style = "stroke-linecap:round;" > 
<path d="M5391 3939 L5391 3939" /> 
</g><path d="M5340 3884 L5340 3824" /> 
<g style = "stroke-linecap:round;" > 
<path d="M5340 3824 L5340 3824" /> 
</g><path d="M5340 3881 L5334 3884" /> 
<path d="M5334 3884 L5323 3884" /> 
<path d="M5323 3884 L5317 3881" /> 
<path d="M5317 3881 L5314 3879" /> 
<path d="M5314 3879 L5311 3873" /> 
<path d="M5311 3873 L5311 3856" /> 
<path d="M5311 3856 L5314 3850" /> 
<path d="M5314 3850 L5317 3847" /> 
<path d="M5317 3847 L5323 3844" /> 
<path d="M5323 3844 L5334 3844" /> 
<path d="M5334 3844 L5340 3847" /> 
<g style = "stroke-linecap:round;" > 
<path d="M5340 3847 L5340 3847" /> 
</g><path d="M5368 3861 L5414 3861" /> 
<g style = "stroke-linecap:round;" > 
<path d="M5414 3861 L5414 3861" /> 
</g><ellipse cx="5200" cy="3550" rx="20" ry="20"  /> 
<path d="M5200 3600 L5200 3570" /> 
<path d="M5200 3570 L5200 3570" /> 
<g style = "stroke-linecap:round;" > 
<path d="M5200 3570 L5200 3570" /> 
</g></g>
<g style="fill:#000000; fill-opacity:0.0; stroke:#000000; stroke-opacity:1.00; stroke-linecap:round; stroke-linejoin:round; stroke-width:5" 
   transform="translate(0.00 0.00) scale(1.00 1.00)">
<path d="M5160 3480 L5170 3510" /> 
<path d="M5170 3510 L5180 3480" /> 
<g style = "stroke-linecap:round;" > 
<path d="M5180 3480 L5180 3480" /> 
</g><path d="M5207 3507 L5206 3509" /> 
<path d="M5206 3509 L5202 3510" /> 
<path d="M5202 3510 L5199 3510" /> 
<path d="M5199 3510 L5194 3509" /> 
<path d="M5194 3509 L5192 3506" /> 
<path d="M5192 3506 L5190 3503" /> 
<path d="M5190 3503 L5189 3497" /> 
<path d="M5189 3497 L5189 3493" /> 
<path d="M5189 3493 L5190 3487" /> 
<path d="M5190 3487 L5192 3484" /> 
<path d="M5192 3484 L5194 3482" /> 
<path d="M5194 3482 L5199 3480" /> 
<path d="M5199 3480 L5202 3480" /> 
<path d="M5202 3480 L5206 3482" /> 
<path d="M5206 3482 L5207 3483" /> 
<g style = "stroke-linecap:round;" > 
<path d="M5207 3483 L5207 3483" /> 
</g><path d="M5237 3507 L5236 3509" /> 
<path d="M5236 3509 L5232 3510" /> 
<path d="M5232 3510 L5229 3510" /> 
<path d="M5229 3510 L5224 3509" /> 
<path d="M5224 3509 L5222 3506" /> 
<path d="M5222 3506 L5220 3503" /> 
<path d="M5220 3503 L5219 3497" /> 
<path d="M5219 3497 L5219 3493" /> 
<path d="M5219 3493 L5220 3487" /> 
<path d="M5220 3487 L5222 3484" /> 
<path d="M5222 3484 L5224 3482" /> 
<path d="M5224 3482 L5229 3480" /> 
<path d="M5229 3480 L5232 3480" /> 
<path d="M5232 3480 L5236 3482" /> 
<path d="M5236 3482 L5237 3483" /> 
<g style = "stroke-linecap:round;" > 
<path d="M5237 3483 L5237 3483" /> 
</g></g>
<g style="fill:#000000; fill-opacity:0.0; stroke:#000000; stroke-opacity:1.00; stroke-linecap:round; stroke-linejoin:round; stroke-width:6" 
   transform="translate(0.00 0.00) scale(1.00 1.00)">
<path d="M5150 4300 L5200 4350" /> 
<path d="M5200 4350 L5250 4300" /> 
<path d="M5250 4300 L5150 4300" /> 
</g>
<g style="fill:#000000; fill-opacity:0.0; stroke:#000000; stroke-opacity:1.00; stroke-linecap:round; stroke-linejoin:round; stroke-width:12" 
   transform="translate(0.00 0.00) scale(1.00 1.00)">
<path d="M4324 3914 L4324 3963" /> 
<path d="M4324 3963 L4327 3969" /> 
<path d="M4327 3969 L4330 3971" /> 
<path d="M4330 3971 L4336 3974" /> 
<path d="M4336 3974 L4347 3974" /> 
<path d="M4347 3974 L4353 3971" /> 
<path d="M4353 3971 L4356 3969" /> 
<path d="M4356 3969 L4359 3963" /> 
<path d="M4359 3963 L4359 3914" /> 
<g style = "stroke-linecap:round;" > 
<path d="M4359 3914 L4359 3914" /> 
</g><path d="M4384 3971 L4393 3974" /> 
<path d="M4393 3974 L4407 3974" /> 
<path d="M4407 3974 L4413 3971" /> 
<path d="M4413 3971 L4416 3969" /> 
<path d="M4416 3969 L4419 3963" /> 
<path d="M4419 3963 L4419 3957" /> 
<path d="M4419 3957 L4416 3951" /> 
<path d="M4416 3951 L4413 3949" /> 
<path d="M4413 3949 L4407 3946" /> 
<path d="M4407 3946 L4396 3943" /> 
<path d="M4396 3943 L4390 3940" /> 
<path d="M4390 3940 L4387 3937" /> 
<path d="M4387 3937 L4384 3931" /> 
<path d="M4384 3931 L4384 3926" /> 
<path d="M4384 3926 L4387 3920" /> 
<path d="M4387 3920 L4390 3917" /> 
<path d="M4390 3917 L4396 3914" /> 
<path d="M4396 3914 L4410 3914" /> 
<path d="M4410 3914 L4419 3917" /> 
<g style = "stroke-linecap:round;" > 
<path d="M4419 3917 L4419 3917" /> 
</g><path d="M4464 3943 L4473 3946" /> 
<path d="M4473 3946 L4476 3949" /> 
<path d="M4476 3949 L4479 3954" /> 
<path d="M4479 3954 L4479 3963" /> 
<path d="M4479 3963 L4476 3969" /> 
<path d="M4476 3969 L4473 3971" /> 
<path d="M4473 3971 L4467 3974" /> 
<path d="M4467 3974 L4444 3974" /> 
<path d="M4444 3974 L4444 3914" /> 
<path d="M4444 3914 L4464 3914" /> 
<path d="M4464 3914 L4470 3917" /> 
<path d="M4470 3917 L4473 3920" /> 
<path d="M4473 3920 L4476 3926" /> 
<path d="M4476 3926 L4476 3931" /> 
<path d="M4476 3931 L4473 3937" /> 
<path d="M4473 3937 L4470 3940" /> 
<path d="M4470 3940 L4464 3943" /> 
<path d="M4464 3943 L4444 3943" /> 
<g style = "stroke-linecap:round;" > 
<path d="M4444 3943 L4444 3943" /> 
</g></g>
<g style="fill:#000000; fill-opacity:0.0; stroke:#000000; stroke-opacity:1.00; stroke-linecap:round; stroke-linejoin:round; stroke-width:6" 
   transform="translate(0.00 0.00) scale(1.00 1.00)">
<polygon style="fill-rule:evenodd; " 
points="4750,3750
4750,3750
4750,4150
4150,4150
4150,3750
" /> 
<polygon style="fill-rule:evenodd; " 
points="4400,4000
4400,4000
4400,4100
4200,4100
4200,4000
" /> 
<polygon style="fill-rule:evenodd; " 
points="4400,3800
4400,3800
4400,3900
4200,3900
4200,3800
" /> 
<path d="M4750 3800 L4950 3800" /> 
<path d="M4572 3770 L4588 3820" /> 
<path d="M4588 3820 L4605 3770" /> 
<g style = "stroke-linecap:round;" > 
<path d="M4605 3770 L4605 3770" /> 
</g><path d="M4650 3815 L4648 3818" /> 
<path d="M4648 3818 L4641 3820" /> 
<path d="M4641 3820 L4636 3820" /> 
<path d="M4636 3820 L4629 3818" /> 
<path d="M4629 3818 L4624 3813" /> 
<path d="M4624 3813 L4622 3808" /> 
<path d="M4622 3808 L4620 3799" /> 
<path d="M4620 3799 L4620 3792" /> 
<path d="M4620 3792 L4622 3782" /> 
<path d="M4622 3782 L4624 3777" /> 
<path d="M4624 3777 L4629 3773" /> 
<path d="M4629 3773 L4636 3770" /> 
<path d="M4636 3770 L4641 3770" /> 
<path d="M4641 3770 L4648 3773" /> 
<path d="M4648 3773 L4650 3775" /> 
<g style = "stroke-linecap:round;" > 
<path d="M4650 3775 L4650 3775" /> 
</g><path d="M4700 3815 L4698 3818" /> 
<path d="M4698 3818 L4691 3820" /> 
<path d="M4691 3820 L4686 3820" /> 
<path d="M4686 3820 L4679 3818" /> 
<path d="M4679 3818 L4674 3813" /> 
<path d="M4674 3813 L4672 3808" /> 
<path d="M4672 3808 L4670 3799" /> 
<path d="M4670 3799 L4670 3792" /> 
<path d="M4670 3792 L4672 3782" /> 
<path d="M4672 3782 L4674 3777" /> 
<path d="M4674 3777 L4679 3773" /> 
<path d="M4679 3773 L4686 3770" /> 
<path d="M4686 3770 L4691 3770" /> 
<path d="M4691 3770 L4698 3773" /> 
<path d="M4698 3773 L4700 3775" /> 
<g style = "stroke-linecap:round;" > 
<path d="M4700 3775 L4700 3775" /> 
</g><path d="M4864 3785 L4836 3785" /> 
<g style = "stroke-linecap:round;" > 
<path d="M4836 3785 L4836 3785" /> 
</g><path d="M4850 3785 L4850 3735" /> 
<path d="M4850 3735 L4845 3742" /> 
<path d="M4845 3742 L4840 3747" /> 
<path d="M4840 3747 L4836 3750" /> 
<g style = "stroke-linecap:round;" > 
<path d="M4836 3750 L4836 3750" /> 
</g><path d="M4750 3900 L4950 3900" /> 
<path d="M4610 3920 L4610 3870" /> 
<path d="M4610 3870 L4622 3870" /> 
<path d="M4622 3870 L4629 3873" /> 
<path d="M4629 3873 L4634 3877" /> 
<path d="M4634 3877 L4636 3882" /> 
<path d="M4636 3882 L4638 3892" /> 
<path d="M4638 3892 L4638 3899" /> 
<path d="M4638 3899 L4636 3908" /> 
<path d="M4636 3908 L4634 3913" /> 
<path d="M4634 3913 L4629 3918" /> 
<path d="M4629 3918 L4622 3920" /> 
<path d="M4622 3920 L4610 3920" /> 
<path d="M4660 3901 L4698 3901" /> 
<g style = "stroke-linecap:round;" > 
<path d="M4698 3901 L4698 3901" /> 
</g><path d="M4836 3840 L4838 3838" /> 
<path d="M4838 3838 L4843 3835" /> 
<path d="M4843 3835 L4855 3835" /> 
<path d="M4855 3835 L4859 3838" /> 
<path d="M4859 3838 L4862 3840" /> 
<path d="M4862 3840 L4864 3845" /> 
<path d="M4864 3845 L4864 3850" /> 
<path d="M4864 3850 L4862 3857" /> 
<path d="M4862 3857 L4833 3885" /> 
<path d="M4833 3885 L4864 3885" /> 
<g style = "stroke-linecap:round;" > 
<path d="M4864 3885 L4864 3885" /> 
</g><path d="M4750 4000 L4950 4000" /> 
<path d="M4610 4020 L4610 3970" /> 
<path d="M4610 3970 L4622 3970" /> 
<path d="M4622 3970 L4629 3973" /> 
<path d="M4629 3973 L4634 3977" /> 
<path d="M4634 3977 L4636 3982" /> 
<path d="M4636 3982 L4638 3992" /> 
<path d="M4638 3992 L4638 3999" /> 
<path d="M4638 3999 L4636 4008" /> 
<path d="M4636 4008 L4634 4013" /> 
<path d="M4634 4013 L4629 4018" /> 
<path d="M4629 4018 L4622 4020" /> 
<path d="M4622 4020 L4610 4020" /> 
<path d="M4660 4001 L4698 4001" /> 
<g style = "stroke-linecap:round;" > 
<path d="M4698 4001 L4698 4001" /> 
</g><path d="M4679 4020 L4679 3982" /> 
<g style = "stroke-linecap:round;" > 
<path d="M4679 3982 L4679 3982" /> 
</g><path d="M4833 3935 L4864 3935" /> 
<path d="M4864 3935 L4847 3954" /> 
<path d="M4847 3954 L4855 3954" /> 
<path d="M4855 3954 L4859 3957" /> 
<path d="M4859 3957 L4862 3959" /> 
<path d="M4862 3959 L4864 3964" /> 
<path d="M4864 3964 L4864 3976" /> 
<path d="M4864 3976 L4862 3980" /> 
<path d="M4862 3980 L4859 3983" /> 
<path d="M4859 3983 L4855 3985" /> 
<path d="M4855 3985 L4840 3985" /> 
<path d="M4840 3985 L4836 3983" /> 
<path d="M4836 3983 L4833 3980" /> 
<g style = "stroke-linecap:round;" > 
<path d="M4833 3980 L4833 3980" /> 
</g><path d="M4750 4100 L4950 4100" /> 
<path d="M4596 4073 L4591 4070" /> 
<path d="M4591 4070 L4584 4070" /> 
<path d="M4584 4070 L4577 4073" /> 
<path d="M4577 4073 L4572 4077" /> 
<path d="M4572 4077 L4570 4082" /> 
<path d="M4570 4082 L4568 4092" /> 
<path d="M4568 4092 L4568 4099" /> 
<path d="M4568 4099 L4570 4108" /> 
<path d="M4570 4108 L4572 4113" /> 
<path d="M4572 4113 L4577 4118" /> 
<path d="M4577 4118 L4584 4120" /> 
<path d="M4584 4120 L4589 4120" /> 
<path d="M4589 4120 L4596 4118" /> 
<path d="M4596 4118 L4598 4115" /> 
<path d="M4598 4115 L4598 4099" /> 
<path d="M4598 4099 L4589 4099" /> 
<g style = "stroke-linecap:round;" > 
<path d="M4589 4099 L4589 4099" /> 
</g><path d="M4620 4120 L4620 4070" /> 
<path d="M4620 4070 L4648 4120" /> 
<path d="M4648 4120 L4648 4070" /> 
<g style = "stroke-linecap:round;" > 
<path d="M4648 4070 L4648 4070" /> 
</g><path d="M4672 4120 L4672 4070" /> 
<path d="M4672 4070 L4684 4070" /> 
<path d="M4684 4070 L4691 4073" /> 
<path d="M4691 4073 L4696 4077" /> 
<path d="M4696 4077 L4698 4082" /> 
<path d="M4698 4082 L4700 4092" /> 
<path d="M4700 4092 L4700 4099" /> 
<path d="M4700 4099 L4698 4108" /> 
<path d="M4698 4108 L4696 4113" /> 
<path d="M4696 4113 L4691 4118" /> 
<path d="M4691 4118 L4684 4120" /> 
<path d="M4684 4120 L4672 4120" /> 
<path d="M4859 4052 L4859 4085" /> 
<g style = "stroke-linecap:round;" > 
<path d="M4859 4085 L4859 4085" /> 
</g><path d="M4847 4033 L4836 4069" /> 
<path d="M4836 4069 L4866 4069" /> 
<g style = "stroke-linecap:round;" > 
<path d="M4866 4069 L4866 4069" /> 
</g><path d="M4429 3661 L4429 3704" /> 
<path d="M4429 3704 L4427 3713" /> 
<path d="M4427 3713 L4421 3718" /> 
<path d="M4421 3718 L4412 3721" /> 
<path d="M4412 3721 L4407 3721" /> 
<g style = "stroke-linecap:round;" > 
<path d="M4407 3721 L4407 3721" /> 
</g><path d="M4490 3721 L4455 3721" /> 
<g style = "stroke-linecap:round;" > 
<path d="M4455 3721 L4455 3721" /> 
</g><path d="M4473 3721 L4473 3661" /> 
<path d="M4473 3661 L4467 3670" /> 
<path d="M4467 3670 L4461 3676" /> 
<path d="M4461 3676 L4455 3678" /> 
<g style = "stroke-linecap:round;" > 
<path d="M4455 3678 L4455 3678" /> 
</g><path d="M7200 4150 A199.00 200.00 0.0 0 0 7400 4350 L7399 4150 z  " /> 
<path d="M7500 3900 A297.06 297.73 0.0 0 0 7200 4150 L7494 4197 z  " /> 
<polygon style="fill-rule:evenodd; " 
points="6550,3600
6550,3600
6550,4700
8250,4700
8250,3600
" /> 
<path d="M7700 4350 L7500 4450" /> 
<g style = "stroke-linecap:round;" > 
<path d="M7500 4450 L7500 4450" /> 
</g><path d="M7850 3900 L7650 4000" /> 
<g style = "stroke-linecap:round;" > 
<path d="M7650 4000 L7650 4000" /> 
</g><path d="M8150 4150 L7950 4250" /> 
<g style = "stroke-linecap:round;" > 
<path d="M7950 4250 L7950 4250" /> 
</g><path d="M6850 4150 L8150 4150" /> 
<path d="M8150 4150 L7950 4050" /> 
<g style = "stroke-linecap:round;" > 
<path d="M7950 4050 L7950 4050" /> 
</g><path d="M7400 4350 L7700 4350" /> 
<path d="M7700 4350 L7500 4250" /> 
<g style = "stroke-linecap:round;" > 
<path d="M7500 4250 L7500 4250" /> 
</g><path d="M7500 3900 L7850 3900" /> 
<path d="M7850 3900 L7650 3800" /> 
<g style = "stroke-linecap:round;" > 
<path d="M7650 3800 L7650 3800" /> 
</g><path d="M6550 4650 L6250 4650" /> 
<path d="M6600 4668 L6607 4670" /> 
<path d="M6607 4670 L6619 4670" /> 
<path d="M6619 4670 L6623 4668" /> 
<path d="M6623 4668 L6626 4665" /> 
<path d="M6626 4665 L6628 4661" /> 
<path d="M6628 4661 L6628 4656" /> 
<path d="M6628 4656 L6626 4651" /> 
<path d="M6626 4651 L6623 4649" /> 
<path d="M6623 4649 L6619 4646" /> 
<path d="M6619 4646 L6609 4644" /> 
<path d="M6609 4644 L6604 4642" /> 
<path d="M6604 4642 L6602 4639" /> 
<path d="M6602 4639 L6600 4635" /> 
<path d="M6600 4635 L6600 4630" /> 
<path d="M6600 4630 L6602 4625" /> 
<path d="M6602 4625 L6604 4623" /> 
<path d="M6604 4623 L6609 4620" /> 
<path d="M6609 4620 L6621 4620" /> 
<path d="M6621 4620 L6628 4623" /> 
<g style = "stroke-linecap:round;" > 
<path d="M6628 4623 L6628 4623" /> 
</g><path d="M6650 4670 L6650 4620" /> 
<g style = "stroke-linecap:round;" > 
<path d="M6650 4620 L6650 4620" /> 
</g><path d="M6671 4670 L6671 4644" /> 
<path d="M6671 4644 L6669 4639" /> 
<path d="M6669 4639 L6664 4637" /> 
<path d="M6664 4637 L6657 4637" /> 
<path d="M6657 4637 L6652 4639" /> 
<path d="M6652 4639 L6650 4642" /> 
<g style = "stroke-linecap:round;" > 
<path d="M6650 4642 L6650 4642" /> 
</g><path d="M6714 4668 L6709 4670" /> 
<path d="M6709 4670 L6700 4670" /> 
<path d="M6700 4670 L6695 4668" /> 
<path d="M6695 4668 L6693 4663" /> 
<path d="M6693 4663 L6693 4644" /> 
<path d="M6693 4644 L6695 4639" /> 
<path d="M6695 4639 L6700 4637" /> 
<path d="M6700 4637 L6709 4637" /> 
<path d="M6709 4637 L6714 4639" /> 
<path d="M6714 4639 L6716 4644" /> 
<path d="M6716 4644 L6716 4649" /> 
<path d="M6716 4649 L6693 4654" /> 
<g style = "stroke-linecap:round;" > 
<path d="M6693 4654 L6693 4654" /> 
</g><path d="M6745 4670 L6740 4668" /> 
<path d="M6740 4668 L6738 4663" /> 
<path d="M6738 4663 L6738 4620" /> 
<g style = "stroke-linecap:round;" > 
<path d="M6738 4620 L6738 4620" /> 
</g><path d="M6771 4670 L6766 4668" /> 
<path d="M6766 4668 L6764 4663" /> 
<path d="M6764 4663 L6764 4620" /> 
<g style = "stroke-linecap:round;" > 
<path d="M6764 4620 L6764 4620" /> 
</g><path d="M6397 4585 L6402 4585" /> 
<path d="M6402 4585 L6407 4588" /> 
<path d="M6407 4588 L6409 4590" /> 
<path d="M6409 4590 L6412 4595" /> 
<path d="M6412 4595 L6414 4604" /> 
<path d="M6414 4604 L6414 4616" /> 
<path d="M6414 4616 L6412 4626" /> 
<path d="M6412 4626 L6409 4630" /> 
<path d="M6409 4630 L6407 4633" /> 
<path d="M6407 4633 L6402 4635" /> 
<path d="M6402 4635 L6397 4635" /> 
<path d="M6397 4635 L6393 4633" /> 
<path d="M6393 4633 L6390 4630" /> 
<path d="M6390 4630 L6388 4626" /> 
<path d="M6388 4626 L6386 4616" /> 
<path d="M6386 4616 L6386 4604" /> 
<path d="M6386 4604 L6388 4595" /> 
<path d="M6388 4595 L6390 4590" /> 
<path d="M6390 4590 L6393 4588" /> 
<path d="M6393 4588 L6397 4585" /> 
<path d="M6550 3650 L6250 3650" /> 
<path d="M6595 3620 L6611 3670" /> 
<path d="M6611 3670 L6628 3620" /> 
<g style = "stroke-linecap:round;" > 
<path d="M6628 3620 L6628 3620" /> 
</g><path d="M6662 3644 L6669 3646" /> 
<path d="M6669 3646 L6671 3649" /> 
<path d="M6671 3649 L6673 3654" /> 
<path d="M6673 3654 L6673 3661" /> 
<path d="M6673 3661 L6671 3665" /> 
<path d="M6671 3665 L6669 3668" /> 
<path d="M6669 3668 L6664 3670" /> 
<path d="M6664 3670 L6645 3670" /> 
<path d="M6645 3670 L6645 3620" /> 
<path d="M6645 3620 L6662 3620" /> 
<path d="M6662 3620 L6666 3623" /> 
<path d="M6666 3623 L6669 3625" /> 
<path d="M6669 3625 L6671 3630" /> 
<path d="M6671 3630 L6671 3635" /> 
<path d="M6671 3635 L6669 3639" /> 
<path d="M6669 3639 L6666 3642" /> 
<path d="M6666 3642 L6662 3644" /> 
<path d="M6662 3644 L6645 3644" /> 
<g style = "stroke-linecap:round;" > 
<path d="M6645 3644 L6645 3644" /> 
</g><path d="M6716 3637 L6716 3670" /> 
<g style = "stroke-linecap:round;" > 
<path d="M6716 3670 L6716 3670" /> 
</g><path d="M6695 3637 L6695 3663" /> 
<path d="M6695 3663 L6697 3668" /> 
<path d="M6697 3668 L6702 3670" /> 
<path d="M6702 3670 L6709 3670" /> 
<path d="M6709 3670 L6714 3668" /> 
<path d="M6714 3668 L6716 3665" /> 
<g style = "stroke-linecap:round;" > 
<path d="M6716 3665 L6716 3665" /> 
</g><path d="M6738 3668 L6742 3670" /> 
<path d="M6742 3670 L6752 3670" /> 
<path d="M6752 3670 L6757 3668" /> 
<path d="M6757 3668 L6759 3663" /> 
<path d="M6759 3663 L6759 3661" /> 
<path d="M6759 3661 L6757 3656" /> 
<path d="M6757 3656 L6752 3654" /> 
<path d="M6752 3654 L6745 3654" /> 
<path d="M6745 3654 L6740 3651" /> 
<path d="M6740 3651 L6738 3646" /> 
<path d="M6738 3646 L6738 3644" /> 
<path d="M6738 3644 L6740 3639" /> 
<path d="M6740 3639 L6745 3637" /> 
<path d="M6745 3637 L6752 3637" /> 
<path d="M6752 3637 L6757 3639" /> 
<g style = "stroke-linecap:round;" > 
<path d="M6757 3639 L6757 3639" /> 
</g><path d="M6414 3635 L6386 3635" /> 
<g style = "stroke-linecap:round;" > 
<path d="M6386 3635 L6386 3635" /> 
</g><path d="M6400 3635 L6400 3585" /> 
<path d="M6400 3585 L6395 3592" /> 
<path d="M6395 3592 L6390 3597" /> 
<path d="M6390 3597 L6386 3600" /> 
<g style = "stroke-linecap:round;" > 
<path d="M6386 3600 L6386 3600" /> 
</g><path d="M6550 3850 L6250 3850" /> 
<path d="M6602 3870 L6602 3820" /> 
<path d="M6602 3820 L6614 3820" /> 
<path d="M6614 3820 L6621 3823" /> 
<path d="M6621 3823 L6626 3827" /> 
<path d="M6626 3827 L6628 3832" /> 
<path d="M6628 3832 L6630 3842" /> 
<path d="M6630 3842 L6630 3849" /> 
<path d="M6630 3849 L6628 3858" /> 
<path d="M6628 3858 L6626 3863" /> 
<path d="M6626 3863 L6621 3868" /> 
<path d="M6621 3868 L6614 3870" /> 
<path d="M6614 3870 L6602 3870" /> 
<path d="M6652 3851 L6690 3851" /> 
<g style = "stroke-linecap:round;" > 
<path d="M6690 3851 L6690 3851" /> 
</g><path d="M6386 3790 L6388 3788" /> 
<path d="M6388 3788 L6393 3785" /> 
<path d="M6393 3785 L6405 3785" /> 
<path d="M6405 3785 L6409 3788" /> 
<path d="M6409 3788 L6412 3790" /> 
<path d="M6412 3790 L6414 3795" /> 
<path d="M6414 3795 L6414 3800" /> 
<path d="M6414 3800 L6412 3807" /> 
<path d="M6412 3807 L6383 3835" /> 
<path d="M6383 3835 L6414 3835" /> 
<g style = "stroke-linecap:round;" > 
<path d="M6414 3835 L6414 3835" /> 
</g><path d="M6550 4050 L6250 4050" /> 
<path d="M6602 4070 L6602 4020" /> 
<path d="M6602 4020 L6614 4020" /> 
<path d="M6614 4020 L6621 4023" /> 
<path d="M6621 4023 L6626 4027" /> 
<path d="M6626 4027 L6628 4032" /> 
<path d="M6628 4032 L6630 4042" /> 
<path d="M6630 4042 L6630 4049" /> 
<path d="M6630 4049 L6628 4058" /> 
<path d="M6628 4058 L6626 4063" /> 
<path d="M6626 4063 L6621 4068" /> 
<path d="M6621 4068 L6614 4070" /> 
<path d="M6614 4070 L6602 4070" /> 
<path d="M6652 4051 L6690 4051" /> 
<g style = "stroke-linecap:round;" > 
<path d="M6690 4051 L6690 4051" /> 
</g><path d="M6671 4070 L6671 4032" /> 
<g style = "stroke-linecap:round;" > 
<path d="M6671 4032 L6671 4032" /> 
</g><path d="M6383 3985 L6414 3985" /> 
<path d="M6414 3985 L6397 4004" /> 
<path d="M6397 4004 L6405 4004" /> 
<path d="M6405 4004 L6409 4007" /> 
<path d="M6409 4007 L6412 4009" /> 
<path d="M6412 4009 L6414 4014" /> 
<path d="M6414 4014 L6414 4026" /> 
<path d="M6414 4026 L6412 4030" /> 
<path d="M6412 4030 L6409 4033" /> 
<path d="M6409 4033 L6405 4035" /> 
<path d="M6405 4035 L6390 4035" /> 
<path d="M6390 4035 L6386 4033" /> 
<path d="M6386 4033 L6383 4030" /> 
<g style = "stroke-linecap:round;" > 
<path d="M6383 4030 L6383 4030" /> 
</g><path d="M6550 4250 L6250 4250" /> 
<path d="M6602 4270 L6602 4220" /> 
<g style = "stroke-linecap:round;" > 
<path d="M6602 4220 L6602 4220" /> 
</g><path d="M6647 4270 L6647 4220" /> 
<g style = "stroke-linecap:round;" > 
<path d="M6647 4220 L6647 4220" /> 
</g><path d="M6647 4268 L6643 4270" /> 
<path d="M6643 4270 L6633 4270" /> 
<path d="M6633 4270 L6628 4268" /> 
<path d="M6628 4268 L6626 4265" /> 
<path d="M6626 4265 L6624 4261" /> 
<path d="M6624 4261 L6624 4246" /> 
<path d="M6624 4246 L6626 4242" /> 
<path d="M6626 4242 L6628 4239" /> 
<path d="M6628 4239 L6633 4237" /> 
<path d="M6633 4237 L6643 4237" /> 
<path d="M6643 4237 L6647 4239" /> 
<g style = "stroke-linecap:round;" > 
<path d="M6647 4239 L6647 4239" /> 
</g><path d="M6409 4202 L6409 4235" /> 
<g style = "stroke-linecap:round;" > 
<path d="M6409 4235 L6409 4235" /> 
</g><path d="M6397 4183 L6386 4219" /> 
<path d="M6386 4219 L6416 4219" /> 
<g style = "stroke-linecap:round;" > 
<path d="M6416 4219 L6416 4219" /> 
</g><path d="M6550 4450 L6250 4450" /> 
<path d="M6628 4423 L6623 4420" /> 
<path d="M6623 4420 L6616 4420" /> 
<path d="M6616 4420 L6609 4423" /> 
<path d="M6609 4423 L6604 4427" /> 
<path d="M6604 4427 L6602 4432" /> 
<path d="M6602 4432 L6600 4442" /> 
<path d="M6600 4442 L6600 4449" /> 
<path d="M6600 4449 L6602 4458" /> 
<path d="M6602 4458 L6604 4463" /> 
<path d="M6604 4463 L6609 4468" /> 
<path d="M6609 4468 L6616 4470" /> 
<path d="M6616 4470 L6621 4470" /> 
<path d="M6621 4470 L6628 4468" /> 
<path d="M6628 4468 L6630 4465" /> 
<path d="M6630 4465 L6630 4449" /> 
<path d="M6630 4449 L6621 4449" /> 
<g style = "stroke-linecap:round;" > 
<path d="M6621 4449 L6621 4449" /> 
</g><path d="M6652 4437 L6652 4470" /> 
<g style = "stroke-linecap:round;" > 
<path d="M6652 4470 L6652 4470" /> 
</g><path d="M6652 4442 L6654 4439" /> 
<path d="M6654 4439 L6659 4437" /> 
<path d="M6659 4437 L6666 4437" /> 
<path d="M6666 4437 L6671 4439" /> 
<path d="M6671 4439 L6673 4444" /> 
<path d="M6673 4444 L6673 4470" /> 
<g style = "stroke-linecap:round;" > 
<path d="M6673 4470 L6673 4470" /> 
</g><path d="M6718 4470 L6718 4420" /> 
<g style = "stroke-linecap:round;" > 
<path d="M6718 4420 L6718 4420" /> 
</g><path d="M6718 4468 L6714 4470" /> 
<path d="M6714 4470 L6704 4470" /> 
<path d="M6704 4470 L6699 4468" /> 
<path d="M6699 4468 L6697 4465" /> 
<path d="M6697 4465 L6695 4461" /> 
<path d="M6695 4461 L6695 4446" /> 
<path d="M6695 4446 L6697 4442" /> 
<path d="M6697 4442 L6699 4439" /> 
<path d="M6699 4439 L6704 4437" /> 
<path d="M6704 4437 L6714 4437" /> 
<path d="M6714 4437 L6718 4439" /> 
<g style = "stroke-linecap:round;" > 
<path d="M6718 4439 L6718 4439" /> 
</g><path d="M6412 4385 L6388 4385" /> 
<path d="M6388 4385 L6386 4409" /> 
<path d="M6386 4409 L6388 4407" /> 
<path d="M6388 4407 L6393 4404" /> 
<path d="M6393 4404 L6405 4404" /> 
<path d="M6405 4404 L6409 4407" /> 
<path d="M6409 4407 L6412 4409" /> 
<path d="M6412 4409 L6414 4414" /> 
<path d="M6414 4414 L6414 4426" /> 
<path d="M6414 4426 L6412 4430" /> 
<path d="M6412 4430 L6409 4433" /> 
<path d="M6409 4433 L6405 4435" /> 
<path d="M6405 4435 L6393 4435" /> 
<path d="M6393 4435 L6388 4433" /> 
<path d="M6388 4433 L6386 4430" /> 
<g style = "stroke-linecap:round;" > 
<path d="M6386 4430 L6386 4430" /> 
</g><path d="M7104 4511 L7104 4560" /> 
<path d="M7104 4560 L7107 4566" /> 
<path d="M7107 4566 L7110 4568" /> 
<path d="M7110 4568 L7116 4571" /> 
<path d="M7116 4571 L7127 4571" /> 
<path d="M7127 4571 L7133 4568" /> 
<path d="M7133 4568 L7136 4566" /> 
<path d="M7136 4566 L7139 4560" /> 
<path d="M7139 4560 L7139 4511" /> 
<g style = "stroke-linecap:round;" > 
<path d="M7139 4511 L7139 4511" /> 
</g><path d="M7199 4571 L7164 4571" /> 
<g style = "stroke-linecap:round;" > 
<path d="M7164 4571 L7164 4571" /> 
</g><path d="M7182 4571 L7182 4511" /> 
<path d="M7182 4511 L7176 4520" /> 
<path d="M7176 4520 L7170 4526" /> 
<path d="M7170 4526 L7164 4528" /> 
<g style = "stroke-linecap:round;" > 
<path d="M7164 4528 L7164 4528" /> 
</g><path d="M6875 3771 L6875 3711" /> 
<path d="M6875 3711 L6895 3754" /> 
<path d="M6895 3754 L6915 3711" /> 
<path d="M6915 3711 L6915 3771" /> 
<g style = "stroke-linecap:round;" > 
<path d="M6915 3771 L6915 3771" /> 
</g><path d="M6944 3771 L6944 3711" /> 
<g style = "stroke-linecap:round;" > 
<path d="M6944 3711 L6944 3711" /> 
</g><path d="M6973 3771 L6973 3711" /> 
<path d="M6973 3711 L7008 3771" /> 
<path d="M7008 3771 L7008 3711" /> 
<g style = "stroke-linecap:round;" > 
<path d="M7008 3711 L7008 3711" /> 
</g><path d="M7036 3771 L7036 3711" /> 
<g style = "stroke-linecap:round;" > 
<path d="M7036 3711 L7036 3711" /> 
</g><path d="M7065 3748 L7111 3748" /> 
<g style = "stroke-linecap:round;" > 
<path d="M7111 3748 L7111 3748" /> 
</g><path d="M7139 3711 L7139 3760" /> 
<path d="M7139 3760 L7142 3766" /> 
<path d="M7142 3766 L7145 3768" /> 
<path d="M7145 3768 L7151 3771" /> 
<path d="M7151 3771 L7162 3771" /> 
<path d="M7162 3771 L7168 3768" /> 
<path d="M7168 3768 L7171 3766" /> 
<path d="M7171 3766 L7174 3760" /> 
<path d="M7174 3760 L7174 3711" /> 
<g style = "stroke-linecap:round;" > 
<path d="M7174 3711 L7174 3711" /> 
</g><path d="M7199 3768 L7208 3771" /> 
<path d="M7208 3771 L7222 3771" /> 
<path d="M7222 3771 L7228 3768" /> 
<path d="M7228 3768 L7231 3766" /> 
<path d="M7231 3766 L7234 3760" /> 
<path d="M7234 3760 L7234 3754" /> 
<path d="M7234 3754 L7231 3748" /> 
<path d="M7231 3748 L7228 3746" /> 
<path d="M7228 3746 L7222 3743" /> 
<path d="M7222 3743 L7211 3740" /> 
<path d="M7211 3740 L7205 3737" /> 
<path d="M7205 3737 L7202 3734" /> 
<path d="M7202 3734 L7199 3728" /> 
<path d="M7199 3728 L7199 3723" /> 
<path d="M7199 3723 L7202 3717" /> 
<path d="M7202 3717 L7205 3714" /> 
<path d="M7205 3714 L7211 3711" /> 
<path d="M7211 3711 L7225 3711" /> 
<path d="M7225 3711 L7234 3714" /> 
<g style = "stroke-linecap:round;" > 
<path d="M7234 3714 L7234 3714" /> 
</g><path d="M7279 3740 L7288 3743" /> 
<path d="M7288 3743 L7291 3746" /> 
<path d="M7291 3746 L7294 3751" /> 
<path d="M7294 3751 L7294 3760" /> 
<path d="M7294 3760 L7291 3766" /> 
<path d="M7291 3766 L7288 3768" /> 
<path d="M7288 3768 L7282 3771" /> 
<path d="M7282 3771 L7259 3771" /> 
<path d="M7259 3771 L7259 3711" /> 
<path d="M7259 3711 L7279 3711" /> 
<path d="M7279 3711 L7285 3714" /> 
<path d="M7285 3714 L7288 3717" /> 
<path d="M7288 3717 L7291 3723" /> 
<path d="M7291 3723 L7291 3728" /> 
<path d="M7291 3728 L7288 3734" /> 
<path d="M7288 3734 L7285 3737" /> 
<path d="M7285 3737 L7279 3740" /> 
<path d="M7279 3740 L7259 3740" /> 
<g style = "stroke-linecap:round;" > 
<path d="M7259 3740 L7259 3740" /> 
</g><path d="M7319 3748 L7365 3748" /> 
<g style = "stroke-linecap:round;" > 
<path d="M7365 3748 L7365 3748" /> 
</g><path d="M7413 3740 L7422 3743" /> 
<path d="M7422 3743 L7425 3746" /> 
<path d="M7425 3746 L7428 3751" /> 
<path d="M7428 3751 L7428 3760" /> 
<path d="M7428 3760 L7425 3766" /> 
<path d="M7425 3766 L7422 3768" /> 
<path d="M7422 3768 L7416 3771" /> 
<path d="M7416 3771 L7393 3771" /> 
<path d="M7393 3771 L7393 3711" /> 
<path d="M7393 3711 L7413 3711" /> 
<path d="M7413 3711 L7419 3714" /> 
<path d="M7419 3714 L7422 3717" /> 
<path d="M7422 3717 L7425 3723" /> 
<path d="M7425 3723 L7425 3728" /> 
<path d="M7425 3728 L7422 3734" /> 
<path d="M7422 3734 L7419 3737" /> 
<path d="M7419 3737 L7413 3740" /> 
<path d="M7413 3740 L7393 3740" /> 
<g style = "stroke-linecap:round;" > 
<path d="M7393 3740 L7393 3740" /> 
</g><polygon style="fill-rule:evenodd; " 
points="400,400
400,400
400,7867
11300,7867
11300,400
" /> 
<polygon style="fill-rule:evenodd; " 
points="470,470
470,470
470,7797
11230,7797
11230,470
" /> 
<path d="M2580 400 L2580 470" /> 
<path d="M1504 455 L1476 455" /> 
<g style = "stroke-linecap:round;" > 
<path d="M1476 455 L1476 455" /> 
</g><path d="M1490 455 L1490 405" /> 
<path d="M1490 405 L1485 412" /> 
<path d="M1485 412 L1480 417" /> 
<path d="M1480 417 L1476 420" /> 
<g style = "stroke-linecap:round;" > 
<path d="M1476 420 L1476 420" /> 
</g><path d="M2580 7867 L2580 7797" /> 
<path d="M1504 7852 L1476 7852" /> 
<g style = "stroke-linecap:round;" > 
<path d="M1476 7852 L1476 7852" /> 
</g><path d="M1490 7852 L1490 7802" /> 
<path d="M1490 7802 L1485 7809" /> 
<path d="M1485 7809 L1480 7814" /> 
<path d="M1480 7814 L1476 7817" /> 
<g style = "stroke-linecap:round;" > 
<path d="M1476 7817 L1476 7817" /> 
</g><path d="M4760 400 L4760 470" /> 
<path d="M3656 410 L3658 408" /> 
<path d="M3658 408 L3663 405" /> 
<path d="M3663 405 L3675 405" /> 
<path d="M3675 405 L3679 408" /> 
<path d="M3679 408 L3682 410" /> 
<path d="M3682 410 L3684 415" /> 
<path d="M3684 415 L3684 420" /> 
<path d="M3684 420 L3682 427" /> 
<path d="M3682 427 L3653 455" /> 
<path d="M3653 455 L3684 455" /> 
<g style = "stroke-linecap:round;" > 
<path d="M3684 455 L3684 455" /> 
</g><path d="M4760 7867 L4760 7797" /> 
<path d="M3656 7807 L3658 7805" /> 
<path d="M3658 7805 L3663 7802" /> 
<path d="M3663 7802 L3675 7802" /> 
<path d="M3675 7802 L3679 7805" /> 
<path d="M3679 7805 L3682 7807" /> 
<path d="M3682 7807 L3684 7812" /> 
<path d="M3684 7812 L3684 7817" /> 
<path d="M3684 7817 L3682 7824" /> 
<path d="M3682 7824 L3653 7852" /> 
<path d="M3653 7852 L3684 7852" /> 
<g style = "stroke-linecap:round;" > 
<path d="M3684 7852 L3684 7852" /> 
</g><path d="M6940 400 L6940 470" /> 
<path d="M5833 405 L5864 405" /> 
<path d="M5864 405 L5847 424" /> 
<path d="M5847 424 L5855 424" /> 
<path d="M5855 424 L5859 427" /> 
<path d="M5859 427 L5862 429" /> 
<path d="M5862 429 L5864 434" /> 
<path d="M5864 434 L5864 446" /> 
<path d="M5864 446 L5862 450" /> 
<path d="M5862 450 L5859 453" /> 
<path d="M5859 453 L5855 455" /> 
<path d="M5855 455 L5840 455" /> 
<path d="M5840 455 L5836 453" /> 
<path d="M5836 453 L5833 450" /> 
<g style = "stroke-linecap:round;" > 
<path d="M5833 450 L5833 450" /> 
</g><path d="M6940 7867 L6940 7797" /> 
<path d="M5833 7802 L5864 7802" /> 
<path d="M5864 7802 L5847 7821" /> 
<path d="M5847 7821 L5855 7821" /> 
<path d="M5855 7821 L5859 7824" /> 
<path d="M5859 7824 L5862 7826" /> 
<path d="M5862 7826 L5864 7831" /> 
<path d="M5864 7831 L5864 7843" /> 
<path d="M5864 7843 L5862 7847" /> 
<path d="M5862 7847 L5859 7850" /> 
<path d="M5859 7850 L5855 7852" /> 
<path d="M5855 7852 L5840 7852" /> 
<path d="M5840 7852 L5836 7850" /> 
<path d="M5836 7850 L5833 7847" /> 
<g style = "stroke-linecap:round;" > 
<path d="M5833 7847 L5833 7847" /> 
</g><path d="M9120 400 L9120 470" /> 
<path d="M8039 422 L8039 455" /> 
<g style = "stroke-linecap:round;" > 
<path d="M8039 455 L8039 455" /> 
</g><path d="M8027 403 L8016 439" /> 
<path d="M8016 439 L8046 439" /> 
<g style = "stroke-linecap:round;" > 
<path d="M8046 439 L8046 439" /> 
</g><path d="M9120 7867 L9120 7797" /> 
<path d="M8039 7819 L8039 7852" /> 
<g style = "stroke-linecap:round;" > 
<path d="M8039 7852 L8039 7852" /> 
</g><path d="M8027 7800 L8016 7836" /> 
<path d="M8016 7836 L8046 7836" /> 
<g style = "stroke-linecap:round;" > 
<path d="M8046 7836 L8046 7836" /> 
</g><path d="M10222 405 L10198 405" /> 
<path d="M10198 405 L10196 429" /> 
<path d="M10196 429 L10198 427" /> 
<path d="M10198 427 L10203 424" /> 
<path d="M10203 424 L10215 424" /> 
<path d="M10215 424 L10219 427" /> 
<path d="M10219 427 L10222 429" /> 
<path d="M10222 429 L10224 434" /> 
<path d="M10224 434 L10224 446" /> 
<path d="M10224 446 L10222 450" /> 
<path d="M10222 450 L10219 453" /> 
<path d="M10219 453 L10215 455" /> 
<path d="M10215 455 L10203 455" /> 
<path d="M10203 455 L10198 453" /> 
<path d="M10198 453 L10196 450" /> 
<g style = "stroke-linecap:round;" > 
<path d="M10196 450 L10196 450" /> 
</g><path d="M10222 7802 L10198 7802" /> 
<path d="M10198 7802 L10196 7826" /> 
<path d="M10196 7826 L10198 7824" /> 
<path d="M10198 7824 L10203 7821" /> 
<path d="M10203 7821 L10215 7821" /> 
<path d="M10215 7821 L10219 7824" /> 
<path d="M10219 7824 L10222 7826" /> 
<path d="M10222 7826 L10224 7831" /> 
<path d="M10224 7831 L10224 7843" /> 
<path d="M10224 7843 L10222 7847" /> 
<path d="M10222 7847 L10219 7850" /> 
<path d="M10219 7850 L10215 7852" /> 
<path d="M10215 7852 L10203 7852" /> 
<path d="M10203 7852 L10198 7850" /> 
<path d="M10198 7850 L10196 7847" /> 
<g style = "stroke-linecap:round;" > 
<path d="M10196 7847 L10196 7847" /> 
</g><path d="M400 2889 L470 2889" /> 
<path d="M424 1651 L447 1651" /> 
<g style = "stroke-linecap:round;" > 
<path d="M447 1651 L447 1651" /> 
</g><path d="M419 1665 L435 1615" /> 
<path d="M435 1615 L452 1665" /> 
<g style = "stroke-linecap:round;" > 
<path d="M452 1665 L452 1665" /> 
</g><path d="M11300 2889 L11230 2889" /> 
<path d="M11254 1805 L11277 1805" /> 
<g style = "stroke-linecap:round;" > 
<path d="M11277 1805 L11277 1805" /> 
</g><path d="M11249 1819 L11265 1769" /> 
<path d="M11265 1769 L11282 1819" /> 
<g style = "stroke-linecap:round;" > 
<path d="M11282 1819 L11282 1819" /> 
</g><path d="M400 5378 L470 5378" /> 
<path d="M439 4128 L446 4130" /> 
<path d="M446 4130 L448 4133" /> 
<path d="M448 4133 L450 4138" /> 
<path d="M450 4138 L450 4145" /> 
<path d="M450 4145 L448 4149" /> 
<path d="M448 4149 L446 4152" /> 
<path d="M446 4152 L441 4154" /> 
<path d="M441 4154 L422 4154" /> 
<path d="M422 4154 L422 4104" /> 
<path d="M422 4104 L439 4104" /> 
<path d="M439 4104 L443 4107" /> 
<path d="M443 4107 L446 4109" /> 
<path d="M446 4109 L448 4114" /> 
<path d="M448 4114 L448 4119" /> 
<path d="M448 4119 L446 4123" /> 
<path d="M446 4123 L443 4126" /> 
<path d="M443 4126 L439 4128" /> 
<path d="M439 4128 L422 4128" /> 
<g style = "stroke-linecap:round;" > 
<path d="M422 4128 L422 4128" /> 
</g><path d="M11300 5378 L11230 5378" /> 
<path d="M11269 4282 L11276 4284" /> 
<path d="M11276 4284 L11278 4287" /> 
<path d="M11278 4287 L11280 4292" /> 
<path d="M11280 4292 L11280 4299" /> 
<path d="M11280 4299 L11278 4303" /> 
<path d="M11278 4303 L11276 4306" /> 
<path d="M11276 4306 L11271 4308" /> 
<path d="M11271 4308 L11252 4308" /> 
<path d="M11252 4308 L11252 4258" /> 
<path d="M11252 4258 L11269 4258" /> 
<path d="M11269 4258 L11273 4261" /> 
<path d="M11273 4261 L11276 4263" /> 
<path d="M11276 4263 L11278 4268" /> 
<path d="M11278 4268 L11278 4273" /> 
<path d="M11278 4273 L11276 4277" /> 
<path d="M11276 4277 L11273 4280" /> 
<path d="M11273 4280 L11269 4282" /> 
<path d="M11269 4282 L11252 4282" /> 
<g style = "stroke-linecap:round;" > 
<path d="M11252 4282 L11252 4282" /> 
</g><path d="M450 6638 L448 6641" /> 
<path d="M448 6641 L441 6643" /> 
<path d="M441 6643 L436 6643" /> 
<path d="M436 6643 L429 6641" /> 
<path d="M429 6641 L424 6636" /> 
<path d="M424 6636 L422 6631" /> 
<path d="M422 6631 L420 6622" /> 
<path d="M420 6622 L420 6615" /> 
<path d="M420 6615 L422 6605" /> 
<path d="M422 6605 L424 6600" /> 
<path d="M424 6600 L429 6596" /> 
<path d="M429 6596 L436 6593" /> 
<path d="M436 6593 L441 6593" /> 
<path d="M441 6593 L448 6596" /> 
<path d="M448 6596 L450 6598" /> 
<g style = "stroke-linecap:round;" > 
<path d="M450 6598 L450 6598" /> 
</g><path d="M11280 6792 L11278 6795" /> 
<path d="M11278 6795 L11271 6797" /> 
<path d="M11271 6797 L11266 6797" /> 
<path d="M11266 6797 L11259 6795" /> 
<path d="M11259 6795 L11254 6790" /> 
<path d="M11254 6790 L11252 6785" /> 
<path d="M11252 6785 L11250 6776" /> 
<path d="M11250 6776 L11250 6769" /> 
<path d="M11250 6769 L11252 6759" /> 
<path d="M11252 6759 L11254 6754" /> 
<path d="M11254 6754 L11259 6750" /> 
<path d="M11259 6750 L11266 6747" /> 
<path d="M11266 6747 L11271 6747" /> 
<path d="M11271 6747 L11278 6750" /> 
<path d="M11278 6750 L11280 6752" /> 
<g style = "stroke-linecap:round;" > 
<path d="M11280 6752 L11280 6752" /> 
</g><path d="M7944 7641 L7944 7581" /> 
<path d="M7944 7581 L7959 7581" /> 
<path d="M7959 7581 L7967 7584" /> 
<path d="M7967 7584 L7973 7590" /> 
<path d="M7973 7590 L7976 7596" /> 
<path d="M7976 7596 L7979 7607" /> 
<path d="M7979 7607 L7979 7616" /> 
<path d="M7979 7616 L7976 7627" /> 
<path d="M7976 7627 L7973 7633" /> 
<path d="M7973 7633 L7967 7638" /> 
<path d="M7967 7638 L7959 7641" /> 
<path d="M7959 7641 L7944 7641" /> 
<path d="M8030 7641 L8030 7610" /> 
<path d="M8030 7610 L8027 7604" /> 
<path d="M8027 7604 L8021 7601" /> 
<path d="M8021 7601 L8010 7601" /> 
<path d="M8010 7601 L8004 7604" /> 
<g style = "stroke-linecap:round;" > 
<path d="M8004 7604 L8004 7604" /> 
</g><path d="M8030 7638 L8024 7641" /> 
<path d="M8024 7641 L8010 7641" /> 
<path d="M8010 7641 L8004 7638" /> 
<path d="M8004 7638 L8001 7633" /> 
<path d="M8001 7633 L8001 7627" /> 
<path d="M8001 7627 L8004 7621" /> 
<path d="M8004 7621 L8010 7618" /> 
<path d="M8010 7618 L8024 7618" /> 
<path d="M8024 7618 L8030 7616" /> 
<g style = "stroke-linecap:round;" > 
<path d="M8030 7616 L8030 7616" /> 
</g><path d="M8050 7601 L8073 7601" /> 
<g style = "stroke-linecap:round;" > 
<path d="M8073 7601 L8073 7601" /> 
</g><path d="M8058 7581 L8058 7633" /> 
<path d="M8058 7633 L8061 7638" /> 
<path d="M8061 7638 L8067 7641" /> 
<path d="M8067 7641 L8073 7641" /> 
<g style = "stroke-linecap:round;" > 
<path d="M8073 7641 L8073 7641" /> 
</g><path d="M8115 7638 L8109 7641" /> 
<path d="M8109 7641 L8098 7641" /> 
<path d="M8098 7641 L8092 7638" /> 
<path d="M8092 7638 L8089 7633" /> 
<path d="M8089 7633 L8089 7610" /> 
<path d="M8089 7610 L8092 7604" /> 
<path d="M8092 7604 L8098 7601" /> 
<path d="M8098 7601 L8109 7601" /> 
<path d="M8109 7601 L8115 7604" /> 
<path d="M8115 7604 L8118 7610" /> 
<path d="M8118 7610 L8118 7616" /> 
<path d="M8118 7616 L8089 7621" /> 
<g style = "stroke-linecap:round;" > 
<path d="M8089 7621 L8089 7621" /> 
</g><path d="M8143 7636 L8146 7638" /> 
<path d="M8146 7638 L8143 7641" /> 
<path d="M8143 7641 L8140 7638" /> 
<path d="M8140 7638 L8143 7636" /> 
<path d="M8143 7636 L8143 7641" /> 
<g style = "stroke-linecap:round;" > 
<path d="M8143 7641 L8143 7641" /> 
</g><path d="M8143 7604 L8146 7607" /> 
<path d="M8146 7607 L8143 7610" /> 
<path d="M8143 7610 L8140 7607" /> 
<path d="M8140 7607 L8143 7604" /> 
<path d="M8143 7604 L8143 7610" /> 
<g style = "stroke-linecap:round;" > 
<path d="M8143 7610 L8143 7610" /> 
</g><path d="M8247 7581 L8218 7581" /> 
<path d="M8218 7581 L8215 7610" /> 
<path d="M8215 7610 L8218 7607" /> 
<path d="M8218 7607 L8224 7604" /> 
<path d="M8224 7604 L8238 7604" /> 
<path d="M8238 7604 L8244 7607" /> 
<path d="M8244 7607 L8247 7610" /> 
<path d="M8247 7610 L8250 7616" /> 
<path d="M8250 7616 L8250 7630" /> 
<path d="M8250 7630 L8247 7636" /> 
<path d="M8247 7636 L8244 7638" /> 
<path d="M8244 7638 L8238 7641" /> 
<path d="M8238 7641 L8224 7641" /> 
<path d="M8224 7641 L8218 7638" /> 
<path d="M8218 7638 L8215 7636" /> 
<g style = "stroke-linecap:round;" > 
<path d="M8215 7636 L8215 7636" /> 
</g><path d="M8318 7638 L8324 7641" /> 
<path d="M8324 7641 L8336 7641" /> 
<path d="M8336 7641 L8341 7638" /> 
<path d="M8341 7638 L8344 7633" /> 
<path d="M8344 7633 L8344 7630" /> 
<path d="M8344 7630 L8341 7624" /> 
<path d="M8341 7624 L8336 7621" /> 
<path d="M8336 7621 L8327 7621" /> 
<path d="M8327 7621 L8321 7618" /> 
<path d="M8321 7618 L8318 7613" /> 
<path d="M8318 7613 L8318 7610" /> 
<path d="M8318 7610 L8321 7604" /> 
<path d="M8321 7604 L8327 7601" /> 
<path d="M8327 7601 L8336 7601" /> 
<path d="M8336 7601 L8341 7604" /> 
<g style = "stroke-linecap:round;" > 
<path d="M8341 7604 L8341 7604" /> 
</g><path d="M8393 7638 L8387 7641" /> 
<path d="M8387 7641 L8376 7641" /> 
<path d="M8376 7641 L8370 7638" /> 
<path d="M8370 7638 L8367 7633" /> 
<path d="M8367 7633 L8367 7610" /> 
<path d="M8367 7610 L8370 7604" /> 
<path d="M8370 7604 L8376 7601" /> 
<path d="M8376 7601 L8387 7601" /> 
<path d="M8387 7601 L8393 7604" /> 
<path d="M8393 7604 L8396 7610" /> 
<path d="M8396 7610 L8396 7616" /> 
<path d="M8396 7616 L8367 7621" /> 
<g style = "stroke-linecap:round;" > 
<path d="M8367 7621 L8367 7621" /> 
</g><path d="M8421 7601 L8421 7661" /> 
<g style = "stroke-linecap:round;" > 
<path d="M8421 7661 L8421 7661" /> 
</g><path d="M8421 7604 L8427 7601" /> 
<path d="M8427 7601 L8438 7601" /> 
<path d="M8438 7601 L8444 7604" /> 
<path d="M8444 7604 L8447 7607" /> 
<path d="M8447 7607 L8450 7613" /> 
<path d="M8450 7613 L8450 7630" /> 
<path d="M8450 7630 L8447 7636" /> 
<path d="M8447 7636 L8444 7638" /> 
<path d="M8444 7638 L8438 7641" /> 
<path d="M8438 7641 L8427 7641" /> 
<path d="M8427 7641 L8421 7638" /> 
<g style = "stroke-linecap:round;" > 
<path d="M8421 7638 L8421 7638" /> 
</g><path d="M8518 7587 L8521 7584" /> 
<path d="M8521 7584 L8527 7581" /> 
<path d="M8527 7581 L8541 7581" /> 
<path d="M8541 7581 L8547 7584" /> 
<path d="M8547 7584 L8550 7587" /> 
<path d="M8550 7587 L8553 7593" /> 
<path d="M8553 7593 L8553 7598" /> 
<path d="M8553 7598 L8550 7607" /> 
<path d="M8550 7607 L8516 7641" /> 
<path d="M8516 7641 L8553 7641" /> 
<g style = "stroke-linecap:round;" > 
<path d="M8553 7641 L8553 7641" /> 
</g><path d="M8590 7581 L8595 7581" /> 
<path d="M8595 7581 L8601 7584" /> 
<path d="M8601 7584 L8604 7587" /> 
<path d="M8604 7587 L8607 7593" /> 
<path d="M8607 7593 L8610 7604" /> 
<path d="M8610 7604 L8610 7618" /> 
<path d="M8610 7618 L8607 7630" /> 
<path d="M8607 7630 L8604 7636" /> 
<path d="M8604 7636 L8601 7638" /> 
<path d="M8601 7638 L8595 7641" /> 
<path d="M8595 7641 L8590 7641" /> 
<path d="M8590 7641 L8584 7638" /> 
<path d="M8584 7638 L8581 7636" /> 
<path d="M8581 7636 L8578 7630" /> 
<path d="M8578 7630 L8575 7618" /> 
<path d="M8575 7618 L8575 7604" /> 
<path d="M8575 7604 L8578 7593" /> 
<path d="M8578 7593 L8581 7587" /> 
<path d="M8581 7587 L8584 7584" /> 
<path d="M8584 7584 L8590 7581" /> 
<path d="M8667 7641 L8632 7641" /> 
<g style = "stroke-linecap:round;" > 
<path d="M8632 7641 L8632 7641" /> 
</g><path d="M8650 7641 L8650 7581" /> 
<path d="M8650 7581 L8644 7590" /> 
<path d="M8644 7590 L8638 7596" /> 
<path d="M8638 7596 L8632 7598" /> 
<g style = "stroke-linecap:round;" > 
<path d="M8632 7598 L8632 7598" /> 
</g><path d="M8689 7587 L8692 7584" /> 
<path d="M8692 7584 L8698 7581" /> 
<path d="M8698 7581 L8712 7581" /> 
<path d="M8712 7581 L8718 7584" /> 
<path d="M8718 7584 L8721 7587" /> 
<path d="M8721 7587 L8724 7593" /> 
<path d="M8724 7593 L8724 7598" /> 
<path d="M8724 7598 L8721 7607" /> 
<path d="M8721 7607 L8687 7641" /> 
<path d="M8687 7641 L8724 7641" /> 
<g style = "stroke-linecap:round;" > 
<path d="M8724 7641 L8724 7641" /> 
</g><path d="M7104 7761 L7104 7701" /> 
<g style = "stroke-linecap:round;" > 
<path d="M7104 7701 L7104 7701" /> 
</g><path d="M7139 7761 L7113 7727" /> 
<g style = "stroke-linecap:round;" > 
<path d="M7113 7727 L7113 7727" /> 
</g><path d="M7139 7701 L7104 7736" /> 
<g style = "stroke-linecap:round;" > 
<path d="M7104 7736 L7104 7736" /> 
</g><path d="M7164 7761 L7164 7721" /> 
<g style = "stroke-linecap:round;" > 
<path d="M7164 7721 L7164 7721" /> 
</g><path d="M7164 7701 L7161 7704" /> 
<path d="M7161 7704 L7164 7707" /> 
<path d="M7164 7707 L7167 7704" /> 
<path d="M7167 7704 L7164 7701" /> 
<path d="M7164 7701 L7164 7707" /> 
<g style = "stroke-linecap:round;" > 
<path d="M7164 7707 L7164 7707" /> 
</g><path d="M7228 7756 L7225 7758" /> 
<path d="M7225 7758 L7216 7761" /> 
<path d="M7216 7761 L7210 7761" /> 
<path d="M7210 7761 L7202 7758" /> 
<path d="M7202 7758 L7196 7753" /> 
<path d="M7196 7753 L7193 7747" /> 
<path d="M7193 7747 L7190 7736" /> 
<path d="M7190 7736 L7190 7727" /> 
<path d="M7190 7727 L7193 7716" /> 
<path d="M7193 7716 L7196 7710" /> 
<path d="M7196 7710 L7202 7704" /> 
<path d="M7202 7704 L7210 7701" /> 
<path d="M7210 7701 L7216 7701" /> 
<path d="M7216 7701 L7225 7704" /> 
<path d="M7225 7704 L7228 7707" /> 
<g style = "stroke-linecap:round;" > 
<path d="M7228 7707 L7228 7707" /> 
</g><path d="M7279 7761 L7279 7730" /> 
<path d="M7279 7730 L7276 7724" /> 
<path d="M7276 7724 L7270 7721" /> 
<path d="M7270 7721 L7259 7721" /> 
<path d="M7259 7721 L7253 7724" /> 
<g style = "stroke-linecap:round;" > 
<path d="M7253 7724 L7253 7724" /> 
</g><path d="M7279 7758 L7273 7761" /> 
<path d="M7273 7761 L7259 7761" /> 
<path d="M7259 7761 L7253 7758" /> 
<path d="M7253 7758 L7250 7753" /> 
<path d="M7250 7753 L7250 7747" /> 
<path d="M7250 7747 L7253 7741" /> 
<path d="M7253 7741 L7259 7738" /> 
<path d="M7259 7738 L7273 7738" /> 
<path d="M7273 7738 L7279 7736" /> 
<g style = "stroke-linecap:round;" > 
<path d="M7279 7736 L7279 7736" /> 
</g><path d="M7333 7761 L7333 7701" /> 
<g style = "stroke-linecap:round;" > 
<path d="M7333 7701 L7333 7701" /> 
</g><path d="M7333 7758 L7327 7761" /> 
<path d="M7327 7761 L7316 7761" /> 
<path d="M7316 7761 L7310 7758" /> 
<path d="M7310 7758 L7307 7756" /> 
<path d="M7307 7756 L7304 7750" /> 
<path d="M7304 7750 L7304 7733" /> 
<path d="M7304 7733 L7307 7727" /> 
<path d="M7307 7727 L7310 7724" /> 
<path d="M7310 7724 L7316 7721" /> 
<path d="M7316 7721 L7327 7721" /> 
<path d="M7327 7721 L7333 7724" /> 
<g style = "stroke-linecap:round;" > 
<path d="M7333 7724 L7333 7724" /> 
</g><path d="M7407 7730 L7427 7730" /> 
<g style = "stroke-linecap:round;" > 
<path d="M7427 7730 L7427 7730" /> 
</g><path d="M7436 7761 L7407 7761" /> 
<path d="M7407 7761 L7407 7701" /> 
<path d="M7407 7701 L7436 7701" /> 
<g style = "stroke-linecap:round;" > 
<path d="M7436 7701 L7436 7701" /> 
</g><path d="M7461 7756 L7464 7758" /> 
<path d="M7464 7758 L7461 7761" /> 
<path d="M7461 7761 L7458 7758" /> 
<path d="M7458 7758 L7461 7756" /> 
<path d="M7461 7756 L7461 7761" /> 
<g style = "stroke-linecap:round;" > 
<path d="M7461 7761 L7461 7761" /> 
</g><path d="M7490 7761 L7490 7701" /> 
<path d="M7490 7701 L7505 7701" /> 
<path d="M7505 7701 L7513 7704" /> 
<path d="M7513 7704 L7519 7710" /> 
<path d="M7519 7710 L7522 7716" /> 
<path d="M7522 7716 L7525 7727" /> 
<path d="M7525 7727 L7525 7736" /> 
<path d="M7525 7736 L7522 7747" /> 
<path d="M7522 7747 L7519 7753" /> 
<path d="M7519 7753 L7513 7758" /> 
<path d="M7513 7758 L7505 7761" /> 
<path d="M7505 7761 L7490 7761" /> 
<path d="M7550 7756 L7553 7758" /> 
<path d="M7553 7758 L7550 7761" /> 
<path d="M7550 7761 L7547 7758" /> 
<path d="M7547 7758 L7550 7756" /> 
<path d="M7550 7756 L7550 7761" /> 
<g style = "stroke-linecap:round;" > 
<path d="M7550 7761 L7550 7761" /> 
</g><path d="M7576 7744 L7605 7744" /> 
<g style = "stroke-linecap:round;" > 
<path d="M7605 7744 L7605 7744" /> 
</g><path d="M7571 7761 L7591 7701" /> 
<path d="M7591 7701 L7611 7761" /> 
<g style = "stroke-linecap:round;" > 
<path d="M7611 7761 L7611 7761" /> 
</g><path d="M7630 7756 L7633 7758" /> 
<path d="M7633 7758 L7630 7761" /> 
<path d="M7630 7761 L7627 7758" /> 
<path d="M7627 7758 L7630 7756" /> 
<path d="M7630 7756 L7630 7761" /> 
<g style = "stroke-linecap:round;" > 
<path d="M7630 7761 L7630 7761" /> 
</g><path d="M7774 7758 L7768 7761" /> 
<path d="M7768 7761 L7757 7761" /> 
<path d="M7757 7761 L7751 7758" /> 
<path d="M7751 7758 L7748 7753" /> 
<path d="M7748 7753 L7748 7730" /> 
<path d="M7748 7730 L7751 7724" /> 
<path d="M7751 7724 L7757 7721" /> 
<path d="M7757 7721 L7768 7721" /> 
<path d="M7768 7721 L7774 7724" /> 
<path d="M7774 7724 L7777 7730" /> 
<path d="M7777 7730 L7777 7736" /> 
<path d="M7777 7736 L7748 7741" /> 
<g style = "stroke-linecap:round;" > 
<path d="M7748 7741 L7748 7741" /> 
</g><path d="M7825 7758 L7819 7761" /> 
<path d="M7819 7761 L7808 7761" /> 
<path d="M7808 7761 L7802 7758" /> 
<path d="M7802 7758 L7799 7753" /> 
<path d="M7799 7753 L7799 7730" /> 
<path d="M7799 7730 L7802 7724" /> 
<path d="M7802 7724 L7808 7721" /> 
<path d="M7808 7721 L7819 7721" /> 
<path d="M7819 7721 L7825 7724" /> 
<path d="M7825 7724 L7828 7730" /> 
<path d="M7828 7730 L7828 7736" /> 
<path d="M7828 7736 L7799 7741" /> 
<g style = "stroke-linecap:round;" > 
<path d="M7799 7741 L7799 7741" /> 
</g><path d="M7850 7758 L7856 7761" /> 
<path d="M7856 7761 L7868 7761" /> 
<path d="M7868 7761 L7873 7758" /> 
<path d="M7873 7758 L7876 7753" /> 
<path d="M7876 7753 L7876 7750" /> 
<path d="M7876 7750 L7873 7744" /> 
<path d="M7873 7744 L7868 7741" /> 
<path d="M7868 7741 L7859 7741" /> 
<path d="M7859 7741 L7853 7738" /> 
<path d="M7853 7738 L7850 7733" /> 
<path d="M7850 7733 L7850 7730" /> 
<path d="M7850 7730 L7853 7724" /> 
<path d="M7853 7724 L7859 7721" /> 
<path d="M7859 7721 L7868 7721" /> 
<path d="M7868 7721 L7873 7724" /> 
<g style = "stroke-linecap:round;" > 
<path d="M7873 7724 L7873 7724" /> 
</g><path d="M7928 7758 L7922 7761" /> 
<path d="M7922 7761 L7911 7761" /> 
<path d="M7911 7761 L7905 7758" /> 
<path d="M7905 7758 L7902 7756" /> 
<path d="M7902 7756 L7899 7750" /> 
<path d="M7899 7750 L7899 7733" /> 
<path d="M7899 7733 L7902 7727" /> 
<path d="M7902 7727 L7905 7724" /> 
<path d="M7905 7724 L7911 7721" /> 
<path d="M7911 7721 L7922 7721" /> 
<path d="M7922 7721 L7928 7724" /> 
<g style = "stroke-linecap:round;" > 
<path d="M7928 7724 L7928 7724" /> 
</g><path d="M7953 7761 L7953 7701" /> 
<g style = "stroke-linecap:round;" > 
<path d="M7953 7701 L7953 7701" /> 
</g><path d="M7979 7761 L7979 7730" /> 
<path d="M7979 7730 L7976 7724" /> 
<path d="M7976 7724 L7970 7721" /> 
<path d="M7970 7721 L7962 7721" /> 
<path d="M7962 7721 L7956 7724" /> 
<path d="M7956 7724 L7953 7727" /> 
<g style = "stroke-linecap:round;" > 
<path d="M7953 7727 L7953 7727" /> 
</g><path d="M8030 7758 L8024 7761" /> 
<path d="M8024 7761 L8013 7761" /> 
<path d="M8013 7761 L8007 7758" /> 
<path d="M8007 7758 L8004 7753" /> 
<path d="M8004 7753 L8004 7730" /> 
<path d="M8004 7730 L8007 7724" /> 
<path d="M8007 7724 L8013 7721" /> 
<path d="M8013 7721 L8024 7721" /> 
<path d="M8024 7721 L8030 7724" /> 
<path d="M8030 7724 L8033 7730" /> 
<path d="M8033 7730 L8033 7736" /> 
<path d="M8033 7736 L8004 7741" /> 
<g style = "stroke-linecap:round;" > 
<path d="M8004 7741 L8004 7741" /> 
</g><path d="M8058 7761 L8058 7721" /> 
<g style = "stroke-linecap:round;" > 
<path d="M8058 7721 L8058 7721" /> 
</g><path d="M8058 7727 L8061 7724" /> 
<path d="M8061 7724 L8067 7721" /> 
<path d="M8067 7721 L8075 7721" /> 
<path d="M8075 7721 L8081 7724" /> 
<path d="M8081 7724 L8084 7730" /> 
<path d="M8084 7730 L8084 7761" /> 
<g style = "stroke-linecap:round;" > 
<path d="M8084 7761 L8084 7761" /> 
</g><path d="M8084 7730 L8087 7724" /> 
<path d="M8087 7724 L8093 7721" /> 
<path d="M8093 7721 L8101 7721" /> 
<path d="M8101 7721 L8107 7724" /> 
<path d="M8107 7724 L8110 7730" /> 
<path d="M8110 7730 L8110 7761" /> 
<g style = "stroke-linecap:round;" > 
<path d="M8110 7761 L8110 7761" /> 
</g><path d="M8164 7761 L8164 7730" /> 
<path d="M8164 7730 L8161 7724" /> 
<path d="M8161 7724 L8155 7721" /> 
<path d="M8155 7721 L8144 7721" /> 
<path d="M8144 7721 L8138 7724" /> 
<g style = "stroke-linecap:round;" > 
<path d="M8138 7724 L8138 7724" /> 
</g><path d="M8164 7758 L8158 7761" /> 
<path d="M8158 7761 L8144 7761" /> 
<path d="M8144 7761 L8138 7758" /> 
<path d="M8138 7758 L8135 7753" /> 
<path d="M8135 7753 L8135 7747" /> 
<path d="M8135 7747 L8138 7741" /> 
<path d="M8138 7741 L8144 7738" /> 
<path d="M8144 7738 L8158 7738" /> 
<path d="M8158 7738 L8164 7736" /> 
<g style = "stroke-linecap:round;" > 
<path d="M8164 7736 L8164 7736" /> 
</g><path d="M8255 7784 L8253 7781" /> 
<path d="M8253 7781 L8247 7773" /> 
<path d="M8247 7773 L8244 7767" /> 
<path d="M8244 7767 L8241 7758" /> 
<path d="M8241 7758 L8238 7744" /> 
<path d="M8238 7744 L8238 7733" /> 
<path d="M8238 7733 L8241 7718" /> 
<path d="M8241 7718 L8244 7710" /> 
<path d="M8244 7710 L8247 7704" /> 
<path d="M8247 7704 L8253 7696" /> 
<path d="M8253 7696 L8255 7693" /> 
<g style = "stroke-linecap:round;" > 
<path d="M8255 7693 L8255 7693" /> 
</g><path d="M8275 7707 L8278 7704" /> 
<path d="M8278 7704 L8284 7701" /> 
<path d="M8284 7701 L8298 7701" /> 
<path d="M8298 7701 L8304 7704" /> 
<path d="M8304 7704 L8307 7707" /> 
<path d="M8307 7707 L8310 7713" /> 
<path d="M8310 7713 L8310 7718" /> 
<path d="M8310 7718 L8307 7727" /> 
<path d="M8307 7727 L8273 7761" /> 
<path d="M8273 7761 L8310 7761" /> 
<g style = "stroke-linecap:round;" > 
<path d="M8310 7761 L8310 7761" /> 
</g><path d="M8347 7701 L8352 7701" /> 
<path d="M8352 7701 L8358 7704" /> 
<path d="M8358 7704 L8361 7707" /> 
<path d="M8361 7707 L8364 7713" /> 
<path d="M8364 7713 L8367 7724" /> 
<path d="M8367 7724 L8367 7738" /> 
<path d="M8367 7738 L8364 7750" /> 
<path d="M8364 7750 L8361 7756" /> 
<path d="M8361 7756 L8358 7758" /> 
<path d="M8358 7758 L8352 7761" /> 
<path d="M8352 7761 L8347 7761" /> 
<path d="M8347 7761 L8341 7758" /> 
<path d="M8341 7758 L8338 7756" /> 
<path d="M8338 7756 L8335 7750" /> 
<path d="M8335 7750 L8332 7738" /> 
<path d="M8332 7738 L8332 7724" /> 
<path d="M8332 7724 L8335 7713" /> 
<path d="M8335 7713 L8338 7707" /> 
<path d="M8338 7707 L8341 7704" /> 
<path d="M8341 7704 L8347 7701" /> 
<path d="M8424 7761 L8389 7761" /> 
<g style = "stroke-linecap:round;" > 
<path d="M8389 7761 L8389 7761" /> 
</g><path d="M8407 7761 L8407 7701" /> 
<path d="M8407 7701 L8401 7710" /> 
<path d="M8401 7710 L8395 7716" /> 
<path d="M8395 7716 L8389 7718" /> 
<g style = "stroke-linecap:round;" > 
<path d="M8389 7718 L8389 7718" /> 
</g><path d="M8446 7707 L8449 7704" /> 
<path d="M8449 7704 L8455 7701" /> 
<path d="M8455 7701 L8469 7701" /> 
<path d="M8469 7701 L8475 7704" /> 
<path d="M8475 7704 L8478 7707" /> 
<path d="M8478 7707 L8481 7713" /> 
<path d="M8481 7713 L8481 7718" /> 
<path d="M8481 7718 L8478 7727" /> 
<path d="M8478 7727 L8444 7761" /> 
<path d="M8444 7761 L8481 7761" /> 
<g style = "stroke-linecap:round;" > 
<path d="M8481 7761 L8481 7761" /> 
</g><path d="M8506 7738 L8552 7738" /> 
<g style = "stroke-linecap:round;" > 
<path d="M8552 7738 L8552 7738" /> 
</g><path d="M8592 7701 L8597 7701" /> 
<path d="M8597 7701 L8603 7704" /> 
<path d="M8603 7704 L8606 7707" /> 
<path d="M8606 7707 L8609 7713" /> 
<path d="M8609 7713 L8612 7724" /> 
<path d="M8612 7724 L8612 7738" /> 
<path d="M8612 7738 L8609 7750" /> 
<path d="M8609 7750 L8606 7756" /> 
<path d="M8606 7756 L8603 7758" /> 
<path d="M8603 7758 L8597 7761" /> 
<path d="M8597 7761 L8592 7761" /> 
<path d="M8592 7761 L8586 7758" /> 
<path d="M8586 7758 L8583 7756" /> 
<path d="M8583 7756 L8580 7750" /> 
<path d="M8580 7750 L8577 7738" /> 
<path d="M8577 7738 L8577 7724" /> 
<path d="M8577 7724 L8580 7713" /> 
<path d="M8580 7713 L8583 7707" /> 
<path d="M8583 7707 L8586 7704" /> 
<path d="M8586 7704 L8592 7701" /> 
<path d="M8669 7761 L8634 7761" /> 
<g style = "stroke-linecap:round;" > 
<path d="M8634 7761 L8634 7761" /> 
</g><path d="M8652 7761 L8652 7701" /> 
<path d="M8652 7701 L8646 7710" /> 
<path d="M8646 7710 L8640 7716" /> 
<path d="M8640 7716 L8634 7718" /> 
<g style = "stroke-linecap:round;" > 
<path d="M8634 7718 L8634 7718" /> 
</g><path d="M8694 7738 L8740 7738" /> 
<g style = "stroke-linecap:round;" > 
<path d="M8740 7738 L8740 7738" /> 
</g><path d="M8800 7761 L8765 7761" /> 
<g style = "stroke-linecap:round;" > 
<path d="M8765 7761 L8765 7761" /> 
</g><path d="M8783 7761 L8783 7701" /> 
<path d="M8783 7701 L8777 7710" /> 
<path d="M8777 7710 L8771 7716" /> 
<path d="M8771 7716 L8765 7718" /> 
<g style = "stroke-linecap:round;" > 
<path d="M8765 7718 L8765 7718" /> 
</g><path d="M8828 7761 L8840 7761" /> 
<path d="M8840 7761 L8845 7758" /> 
<path d="M8845 7758 L8848 7756" /> 
<path d="M8848 7756 L8854 7747" /> 
<path d="M8854 7747 L8857 7736" /> 
<path d="M8857 7736 L8857 7713" /> 
<path d="M8857 7713 L8854 7707" /> 
<path d="M8854 7707 L8851 7704" /> 
<path d="M8851 7704 L8845 7701" /> 
<path d="M8845 7701 L8834 7701" /> 
<path d="M8834 7701 L8828 7704" /> 
<path d="M8828 7704 L8825 7707" /> 
<path d="M8825 7707 L8822 7713" /> 
<path d="M8822 7713 L8822 7727" /> 
<path d="M8822 7727 L8825 7733" /> 
<path d="M8825 7733 L8828 7736" /> 
<path d="M8828 7736 L8834 7738" /> 
<path d="M8834 7738 L8845 7738" /> 
<path d="M8845 7738 L8851 7736" /> 
<path d="M8851 7736 L8854 7733" /> 
<path d="M8854 7733 L8857 7727" /> 
<g style = "stroke-linecap:round;" > 
<path d="M8857 7727 L8857 7727" /> 
</g><path d="M8948 7730 L8957 7733" /> 
<path d="M8957 7733 L8960 7736" /> 
<path d="M8960 7736 L8963 7741" /> 
<path d="M8963 7741 L8963 7750" /> 
<path d="M8963 7750 L8960 7756" /> 
<path d="M8960 7756 L8957 7758" /> 
<path d="M8957 7758 L8951 7761" /> 
<path d="M8951 7761 L8928 7761" /> 
<path d="M8928 7761 L8928 7701" /> 
<path d="M8928 7701 L8948 7701" /> 
<path d="M8948 7701 L8954 7704" /> 
<path d="M8954 7704 L8957 7707" /> 
<path d="M8957 7707 L8960 7713" /> 
<path d="M8960 7713 L8960 7718" /> 
<path d="M8960 7718 L8957 7724" /> 
<path d="M8957 7724 L8954 7727" /> 
<path d="M8954 7727 L8948 7730" /> 
<path d="M8948 7730 L8928 7730" /> 
<g style = "stroke-linecap:round;" > 
<path d="M8928 7730 L8928 7730" /> 
</g><path d="M8983 7701 L9023 7701" /> 
<path d="M9023 7701 L8983 7761" /> 
<path d="M8983 7761 L9023 7761" /> 
<g style = "stroke-linecap:round;" > 
<path d="M9023 7761 L9023 7761" /> 
</g><path d="M9080 7761 L9060 7733" /> 
<g style = "stroke-linecap:round;" > 
<path d="M9060 7733 L9060 7733" /> 
</g><path d="M9045 7761 L9045 7701" /> 
<path d="M9045 7701 L9068 7701" /> 
<path d="M9068 7701 L9074 7704" /> 
<path d="M9074 7704 L9077 7707" /> 
<path d="M9077 7707 L9080 7713" /> 
<path d="M9080 7713 L9080 7721" /> 
<path d="M9080 7721 L9077 7727" /> 
<path d="M9077 7727 L9074 7730" /> 
<path d="M9074 7730 L9068 7733" /> 
<path d="M9068 7733 L9045 7733" /> 
<g style = "stroke-linecap:round;" > 
<path d="M9045 7733 L9045 7733" /> 
</g><path d="M9146 7701 L9183 7701" /> 
<path d="M9183 7701 L9163 7724" /> 
<path d="M9163 7724 L9171 7724" /> 
<path d="M9171 7724 L9177 7727" /> 
<path d="M9177 7727 L9180 7730" /> 
<path d="M9180 7730 L9183 7736" /> 
<path d="M9183 7736 L9183 7750" /> 
<path d="M9183 7750 L9180 7756" /> 
<path d="M9180 7756 L9177 7758" /> 
<path d="M9177 7758 L9171 7761" /> 
<path d="M9171 7761 L9154 7761" /> 
<path d="M9154 7761 L9148 7758" /> 
<path d="M9148 7758 L9146 7756" /> 
<g style = "stroke-linecap:round;" > 
<path d="M9146 7756 L9146 7756" /> 
</g><path d="M9205 7707 L9208 7704" /> 
<path d="M9208 7704 L9214 7701" /> 
<path d="M9214 7701 L9228 7701" /> 
<path d="M9228 7701 L9234 7704" /> 
<path d="M9234 7704 L9237 7707" /> 
<path d="M9237 7707 L9240 7713" /> 
<path d="M9240 7713 L9240 7718" /> 
<path d="M9240 7718 L9237 7727" /> 
<path d="M9237 7727 L9203 7761" /> 
<path d="M9203 7761 L9240 7761" /> 
<g style = "stroke-linecap:round;" > 
<path d="M9240 7761 L9240 7761" /> 
</g><path d="M9294 7701 L9265 7701" /> 
<path d="M9265 7701 L9262 7730" /> 
<path d="M9262 7730 L9265 7727" /> 
<path d="M9265 7727 L9271 7724" /> 
<path d="M9271 7724 L9285 7724" /> 
<path d="M9285 7724 L9291 7727" /> 
<path d="M9291 7727 L9294 7730" /> 
<path d="M9294 7730 L9297 7736" /> 
<path d="M9297 7736 L9297 7750" /> 
<path d="M9297 7750 L9294 7756" /> 
<path d="M9294 7756 L9291 7758" /> 
<path d="M9291 7758 L9285 7761" /> 
<path d="M9285 7761 L9271 7761" /> 
<path d="M9271 7761 L9265 7758" /> 
<path d="M9265 7758 L9262 7756" /> 
<g style = "stroke-linecap:round;" > 
<path d="M9262 7756 L9262 7756" /> 
</g><path d="M9348 7701 L9337 7701" /> 
<path d="M9337 7701 L9331 7704" /> 
<path d="M9331 7704 L9328 7707" /> 
<path d="M9328 7707 L9322 7716" /> 
<path d="M9322 7716 L9319 7727" /> 
<path d="M9319 7727 L9319 7750" /> 
<path d="M9319 7750 L9322 7756" /> 
<path d="M9322 7756 L9325 7758" /> 
<path d="M9325 7758 L9331 7761" /> 
<path d="M9331 7761 L9342 7761" /> 
<path d="M9342 7761 L9348 7758" /> 
<path d="M9348 7758 L9351 7756" /> 
<path d="M9351 7756 L9354 7750" /> 
<path d="M9354 7750 L9354 7736" /> 
<path d="M9354 7736 L9351 7730" /> 
<path d="M9351 7730 L9348 7727" /> 
<path d="M9348 7727 L9342 7724" /> 
<path d="M9342 7724 L9331 7724" /> 
<path d="M9331 7724 L9325 7727" /> 
<path d="M9325 7727 L9322 7730" /> 
<path d="M9322 7730 L9319 7736" /> 
<g style = "stroke-linecap:round;" > 
<path d="M9319 7736 L9319 7736" /> 
</g><path d="M9374 7784 L9376 7781" /> 
<path d="M9376 7781 L9382 7773" /> 
<path d="M9382 7773 L9385 7767" /> 
<path d="M9385 7767 L9388 7758" /> 
<path d="M9388 7758 L9391 7744" /> 
<path d="M9391 7744 L9391 7733" /> 
<path d="M9391 7733 L9388 7718" /> 
<path d="M9388 7718 L9385 7710" /> 
<path d="M9385 7710 L9382 7704" /> 
<path d="M9382 7704 L9376 7696" /> 
<path d="M9376 7696 L9374 7693" /> 
<g style = "stroke-linecap:round;" > 
<path d="M9374 7693 L9374 7693" /> 
</g><path d="M9419 7738 L9465 7738" /> 
<g style = "stroke-linecap:round;" > 
<path d="M9465 7738 L9465 7738" /> 
</g><path d="M9490 7758 L9496 7761" /> 
<path d="M9496 7761 L9508 7761" /> 
<path d="M9508 7761 L9513 7758" /> 
<path d="M9513 7758 L9516 7753" /> 
<path d="M9516 7753 L9516 7750" /> 
<path d="M9516 7750 L9513 7744" /> 
<path d="M9513 7744 L9508 7741" /> 
<path d="M9508 7741 L9499 7741" /> 
<path d="M9499 7741 L9493 7738" /> 
<path d="M9493 7738 L9490 7733" /> 
<path d="M9490 7733 L9490 7730" /> 
<path d="M9490 7730 L9493 7724" /> 
<path d="M9493 7724 L9499 7721" /> 
<path d="M9499 7721 L9508 7721" /> 
<path d="M9508 7721 L9513 7724" /> 
<g style = "stroke-linecap:round;" > 
<path d="M9513 7724 L9513 7724" /> 
</g><path d="M9534 7721 L9557 7721" /> 
<g style = "stroke-linecap:round;" > 
<path d="M9557 7721 L9557 7721" /> 
</g><path d="M9542 7701 L9542 7753" /> 
<path d="M9542 7753 L9545 7758" /> 
<path d="M9545 7758 L9551 7761" /> 
<path d="M9551 7761 L9557 7761" /> 
<g style = "stroke-linecap:round;" > 
<path d="M9557 7761 L9557 7761" /> 
</g><path d="M9602 7761 L9602 7730" /> 
<path d="M9602 7730 L9599 7724" /> 
<path d="M9599 7724 L9593 7721" /> 
<path d="M9593 7721 L9582 7721" /> 
<path d="M9582 7721 L9576 7724" /> 
<g style = "stroke-linecap:round;" > 
<path d="M9576 7724 L9576 7724" /> 
</g><path d="M9602 7758 L9596 7761" /> 
<path d="M9596 7761 L9582 7761" /> 
<path d="M9582 7761 L9576 7758" /> 
<path d="M9576 7758 L9573 7753" /> 
<path d="M9573 7753 L9573 7747" /> 
<path d="M9573 7747 L9576 7741" /> 
<path d="M9576 7741 L9582 7738" /> 
<path d="M9582 7738 L9596 7738" /> 
<path d="M9596 7738 L9602 7736" /> 
<g style = "stroke-linecap:round;" > 
<path d="M9602 7736 L9602 7736" /> 
</g><path d="M9630 7761 L9630 7701" /> 
<g style = "stroke-linecap:round;" > 
<path d="M9630 7701 L9630 7701" /> 
</g><path d="M9630 7724 L9636 7721" /> 
<path d="M9636 7721 L9647 7721" /> 
<path d="M9647 7721 L9653 7724" /> 
<path d="M9653 7724 L9656 7727" /> 
<path d="M9656 7727 L9659 7733" /> 
<path d="M9659 7733 L9659 7750" /> 
<path d="M9659 7750 L9656 7756" /> 
<path d="M9656 7756 L9653 7758" /> 
<path d="M9653 7758 L9647 7761" /> 
<path d="M9647 7761 L9636 7761" /> 
<path d="M9636 7761 L9630 7758" /> 
<g style = "stroke-linecap:round;" > 
<path d="M9630 7758 L9630 7758" /> 
</g><path d="M9693 7761 L9687 7758" /> 
<path d="M9687 7758 L9684 7753" /> 
<path d="M9684 7753 L9684 7701" /> 
<g style = "stroke-linecap:round;" > 
<path d="M9684 7701 L9684 7701" /> 
</g><path d="M9738 7758 L9732 7761" /> 
<path d="M9732 7761 L9721 7761" /> 
<path d="M9721 7761 L9715 7758" /> 
<path d="M9715 7758 L9712 7753" /> 
<path d="M9712 7753 L9712 7730" /> 
<path d="M9712 7730 L9715 7724" /> 
<path d="M9715 7724 L9721 7721" /> 
<path d="M9721 7721 L9732 7721" /> 
<path d="M9732 7721 L9738 7724" /> 
<path d="M9738 7724 L9741 7730" /> 
<path d="M9741 7730 L9741 7736" /> 
<path d="M9741 7736 L9712 7741" /> 
<g style = "stroke-linecap:round;" > 
<path d="M9712 7741 L9712 7741" /> 
</g></g>
<g style="fill:#000000; fill-opacity:0.0; stroke:#000000; stroke-opacity:1.00; stroke-linecap:round; stroke-linejoin:round; stroke-width:12" 
   transform="translate(0.00 0.00) scale(1.00 1.00)">
<path d="M10459 7641 L10439 7613" /> 
<g style = "stroke-linecap:round;" > 
<path d="M10439 7613 L10439 7613" /> 
</g><path d="M10424 7641 L10424 7581" /> 
<path d="M10424 7581 L10447 7581" /> 
<path d="M10447 7581 L10453 7584" /> 
<path d="M10453 7584 L10456 7587" /> 
<path d="M10456 7587 L10459 7593" /> 
<path d="M10459 7593 L10459 7601" /> 
<path d="M10459 7601 L10456 7607" /> 
<path d="M10456 7607 L10453 7610" /> 
<path d="M10453 7610 L10447 7613" /> 
<path d="M10447 7613 L10424 7613" /> 
<g style = "stroke-linecap:round;" > 
<path d="M10424 7613 L10424 7613" /> 
</g><path d="M10507 7638 L10501 7641" /> 
<path d="M10501 7641 L10490 7641" /> 
<path d="M10490 7641 L10484 7638" /> 
<path d="M10484 7638 L10481 7633" /> 
<path d="M10481 7633 L10481 7610" /> 
<path d="M10481 7610 L10484 7604" /> 
<path d="M10484 7604 L10490 7601" /> 
<path d="M10490 7601 L10501 7601" /> 
<path d="M10501 7601 L10507 7604" /> 
<path d="M10507 7604 L10510 7610" /> 
<path d="M10510 7610 L10510 7616" /> 
<path d="M10510 7616 L10481 7621" /> 
<g style = "stroke-linecap:round;" > 
<path d="M10481 7621 L10481 7621" /> 
</g><path d="M10530 7601 L10544 7641" /> 
<path d="M10544 7641 L10558 7601" /> 
<g style = "stroke-linecap:round;" > 
<path d="M10558 7601 L10558 7601" /> 
</g><path d="M10581 7636 L10584 7638" /> 
<path d="M10584 7638 L10581 7641" /> 
<path d="M10581 7641 L10578 7638" /> 
<path d="M10578 7638 L10581 7636" /> 
<path d="M10581 7636 L10581 7641" /> 
<g style = "stroke-linecap:round;" > 
<path d="M10581 7641 L10581 7641" /> 
</g><path d="M10581 7604 L10584 7607" /> 
<path d="M10584 7607 L10581 7610" /> 
<path d="M10581 7610 L10578 7607" /> 
<path d="M10578 7607 L10581 7604" /> 
<path d="M10581 7604 L10581 7610" /> 
<g style = "stroke-linecap:round;" > 
<path d="M10581 7610 L10581 7610" /> 
</g></g>
<g style="fill:#000000; fill-opacity:0.0; stroke:#000000; stroke-opacity:1.00; stroke-linecap:round; stroke-linejoin:round; stroke-width:6" 
   transform="translate(0.00 0.00) scale(1.00 1.00)">
<path d="M7101 7638 L7110 7641" /> 
<path d="M7110 7641 L7124 7641" /> 
<path d="M7124 7641 L7130 7638" /> 
<path d="M7130 7638 L7133 7636" /> 
<path d="M7133 7636 L7136 7630" /> 
<path d="M7136 7630 L7136 7624" /> 
<path d="M7136 7624 L7133 7618" /> 
<path d="M7133 7618 L7130 7616" /> 
<path d="M7130 7616 L7124 7613" /> 
<path d="M7124 7613 L7113 7610" /> 
<path d="M7113 7610 L7107 7607" /> 
<path d="M7107 7607 L7104 7604" /> 
<path d="M7104 7604 L7101 7598" /> 
<path d="M7101 7598 L7101 7593" /> 
<path d="M7101 7593 L7104 7587" /> 
<path d="M7104 7587 L7107 7584" /> 
<path d="M7107 7584 L7113 7581" /> 
<path d="M7113 7581 L7127 7581" /> 
<path d="M7127 7581 L7136 7584" /> 
<g style = "stroke-linecap:round;" > 
<path d="M7136 7584 L7136 7584" /> 
</g><path d="M7161 7641 L7161 7601" /> 
<g style = "stroke-linecap:round;" > 
<path d="M7161 7601 L7161 7601" /> 
</g><path d="M7161 7581 L7158 7584" /> 
<path d="M7158 7584 L7161 7587" /> 
<path d="M7161 7587 L7164 7584" /> 
<path d="M7164 7584 L7161 7581" /> 
<path d="M7161 7581 L7161 7587" /> 
<g style = "stroke-linecap:round;" > 
<path d="M7161 7587 L7161 7587" /> 
</g><path d="M7185 7601 L7216 7601" /> 
<path d="M7216 7601 L7185 7641" /> 
<path d="M7185 7641 L7216 7641" /> 
<g style = "stroke-linecap:round;" > 
<path d="M7216 7641 L7216 7641" /> 
</g><path d="M7262 7638 L7256 7641" /> 
<path d="M7256 7641 L7245 7641" /> 
<path d="M7245 7641 L7239 7638" /> 
<path d="M7239 7638 L7236 7633" /> 
<path d="M7236 7633 L7236 7610" /> 
<path d="M7236 7610 L7239 7604" /> 
<path d="M7239 7604 L7245 7601" /> 
<path d="M7245 7601 L7256 7601" /> 
<path d="M7256 7601 L7262 7604" /> 
<path d="M7262 7604 L7265 7610" /> 
<path d="M7265 7610 L7265 7616" /> 
<path d="M7265 7616 L7236 7621" /> 
<g style = "stroke-linecap:round;" > 
<path d="M7236 7621 L7236 7621" /> 
</g><path d="M7290 7636 L7293 7638" /> 
<path d="M7293 7638 L7290 7641" /> 
<path d="M7290 7641 L7287 7638" /> 
<path d="M7287 7638 L7290 7636" /> 
<path d="M7290 7636 L7290 7641" /> 
<g style = "stroke-linecap:round;" > 
<path d="M7290 7641 L7290 7641" /> 
</g><path d="M7290 7604 L7293 7607" /> 
<path d="M7293 7607 L7290 7610" /> 
<path d="M7290 7610 L7287 7607" /> 
<path d="M7287 7607 L7290 7604" /> 
<path d="M7290 7604 L7290 7610" /> 
<g style = "stroke-linecap:round;" > 
<path d="M7290 7610 L7290 7610" /> 
</g><path d="M7362 7624 L7391 7624" /> 
<g style = "stroke-linecap:round;" > 
<path d="M7391 7624 L7391 7624" /> 
</g><path d="M7357 7641 L7377 7581" /> 
<path d="M7377 7581 L7397 7641" /> 
<g style = "stroke-linecap:round;" > 
<path d="M7397 7641 L7397 7641" /> 
</g><path d="M7442 7601 L7442 7641" /> 
<g style = "stroke-linecap:round;" > 
<path d="M7442 7641 L7442 7641" /> 
</g><path d="M7428 7578 L7413 7621" /> 
<path d="M7413 7621 L7451 7621" /> 
<g style = "stroke-linecap:round;" > 
<path d="M7451 7621 L7451 7621" /> 
</g><path d="M10424 7761 L10424 7701" /> 
<g style = "stroke-linecap:round;" > 
<path d="M10424 7701 L10424 7701" /> 
</g><path d="M10479 7761 L10479 7701" /> 
<g style = "stroke-linecap:round;" > 
<path d="M10479 7701 L10479 7701" /> 
</g><path d="M10479 7758 L10473 7761" /> 
<path d="M10473 7761 L10462 7761" /> 
<path d="M10462 7761 L10456 7758" /> 
<path d="M10456 7758 L10453 7756" /> 
<path d="M10453 7756 L10450 7750" /> 
<path d="M10450 7750 L10450 7733" /> 
<path d="M10450 7733 L10453 7727" /> 
<path d="M10453 7727 L10456 7724" /> 
<path d="M10456 7724 L10462 7721" /> 
<path d="M10462 7721 L10473 7721" /> 
<path d="M10473 7721 L10479 7724" /> 
<g style = "stroke-linecap:round;" > 
<path d="M10479 7724 L10479 7724" /> 
</g><path d="M10507 7756 L10510 7758" /> 
<path d="M10510 7758 L10507 7761" /> 
<path d="M10507 7761 L10504 7758" /> 
<path d="M10504 7758 L10507 7756" /> 
<path d="M10507 7756 L10507 7761" /> 
<g style = "stroke-linecap:round;" > 
<path d="M10507 7761 L10507 7761" /> 
</g><path d="M10507 7724 L10510 7727" /> 
<path d="M10510 7727 L10507 7730" /> 
<path d="M10507 7730 L10504 7727" /> 
<path d="M10504 7727 L10507 7724" /> 
<path d="M10507 7724 L10507 7730" /> 
<g style = "stroke-linecap:round;" > 
<path d="M10507 7730 L10507 7730" /> 
</g><path d="M10614 7761 L10579 7761" /> 
<g style = "stroke-linecap:round;" > 
<path d="M10579 7761 L10579 7761" /> 
</g><path d="M10597 7761 L10597 7701" /> 
<path d="M10597 7701 L10591 7710" /> 
<path d="M10591 7710 L10585 7716" /> 
<path d="M10585 7716 L10579 7718" /> 
<g style = "stroke-linecap:round;" > 
<path d="M10579 7718 L10579 7718" /> 
</g><path d="M10682 7698 L10631 7776" /> 
<g style = "stroke-linecap:round;" > 
<path d="M10631 7776 L10631 7776" /> 
</g><path d="M10734 7761 L10699 7761" /> 
<g style = "stroke-linecap:round;" > 
<path d="M10699 7761 L10699 7761" /> 
</g><path d="M10717 7761 L10717 7701" /> 
<path d="M10717 7701 L10711 7710" /> 
<path d="M10711 7710 L10705 7716" /> 
<path d="M10705 7716 L10699 7718" /> 
<g style = "stroke-linecap:round;" > 
<path d="M10699 7718 L10699 7718" /> 
</g></g>
<g style="fill:#000000; fill-opacity:0.0; stroke:#000000; stroke-opacity:1.00; stroke-linecap:round; stroke-linejoin:round; stroke-width:12" 
   transform="translate(0.00 0.00) scale(1.00 1.00)">
<path d="M7096 7461 L7130 7461" /> 
<g style = "stroke-linecap:round;" > 
<path d="M7130 7461 L7130 7461" /> 
</g><path d="M7113 7521 L7113 7461" /> 
<g style = "stroke-linecap:round;" > 
<path d="M7113 7461 L7113 7461" /> 
</g><path d="M7150 7521 L7150 7481" /> 
<g style = "stroke-linecap:round;" > 
<path d="M7150 7481 L7150 7481" /> 
</g><path d="M7150 7461 L7147 7464" /> 
<path d="M7147 7464 L7150 7467" /> 
<path d="M7150 7467 L7153 7464" /> 
<path d="M7153 7464 L7150 7461" /> 
<path d="M7150 7461 L7150 7467" /> 
<g style = "stroke-linecap:round;" > 
<path d="M7150 7467 L7150 7467" /> 
</g><path d="M7171 7481 L7194 7481" /> 
<g style = "stroke-linecap:round;" > 
<path d="M7194 7481 L7194 7481" /> 
</g><path d="M7179 7461 L7179 7513" /> 
<path d="M7179 7513 L7182 7518" /> 
<path d="M7182 7518 L7188 7521" /> 
<path d="M7188 7521 L7194 7521" /> 
<g style = "stroke-linecap:round;" > 
<path d="M7194 7521 L7194 7521" /> 
</g><path d="M7222 7521 L7216 7518" /> 
<path d="M7216 7518 L7213 7513" /> 
<path d="M7213 7513 L7213 7461" /> 
<g style = "stroke-linecap:round;" > 
<path d="M7213 7461 L7213 7461" /> 
</g><path d="M7267 7518 L7261 7521" /> 
<path d="M7261 7521 L7250 7521" /> 
<path d="M7250 7521 L7244 7518" /> 
<path d="M7244 7518 L7241 7513" /> 
<path d="M7241 7513 L7241 7490" /> 
<path d="M7241 7490 L7244 7484" /> 
<path d="M7244 7484 L7250 7481" /> 
<path d="M7250 7481 L7261 7481" /> 
<path d="M7261 7481 L7267 7484" /> 
<path d="M7267 7484 L7270 7490" /> 
<path d="M7270 7490 L7270 7496" /> 
<path d="M7270 7496 L7241 7501" /> 
<g style = "stroke-linecap:round;" > 
<path d="M7241 7501 L7241 7501" /> 
</g><path d="M7295 7516 L7298 7518" /> 
<path d="M7298 7518 L7295 7521" /> 
<path d="M7295 7521 L7292 7518" /> 
<path d="M7292 7518 L7295 7516" /> 
<path d="M7295 7516 L7295 7521" /> 
<g style = "stroke-linecap:round;" > 
<path d="M7295 7521 L7295 7521" /> 
</g><path d="M7295 7484 L7298 7487" /> 
<path d="M7298 7487 L7295 7490" /> 
<path d="M7295 7490 L7292 7487" /> 
<path d="M7292 7487 L7295 7484" /> 
<path d="M7295 7484 L7295 7490" /> 
<g style = "stroke-linecap:round;" > 
<path d="M7295 7490 L7295 7490" /> 
</g></g>
<g style="fill:#000000; fill-opacity:0.0; stroke:#000000; stroke-opacity:1.00; stroke-linecap:round; stroke-linejoin:round; stroke-width:6" 
   transform="translate(0.00 0.00) scale(1.00 1.00)">
<path d="M7124 7250 L7104 7250" /> 
<g style = "stroke-linecap:round;" > 
<path d="M7104 7250 L7104 7250" /> 
</g><path d="M7104 7281 L7104 7221" /> 
<path d="M7104 7221 L7133 7221" /> 
<g style = "stroke-linecap:round;" > 
<path d="M7133 7221 L7133 7221" /> 
</g><path d="M7155 7281 L7155 7241" /> 
<g style = "stroke-linecap:round;" > 
<path d="M7155 7241 L7155 7241" /> 
</g><path d="M7155 7221 L7152 7224" /> 
<path d="M7152 7224 L7155 7227" /> 
<path d="M7155 7227 L7158 7224" /> 
<path d="M7158 7224 L7155 7221" /> 
<path d="M7155 7221 L7155 7227" /> 
<g style = "stroke-linecap:round;" > 
<path d="M7155 7227 L7155 7227" /> 
</g><path d="M7193 7281 L7187 7278" /> 
<path d="M7187 7278 L7184 7273" /> 
<path d="M7184 7273 L7184 7221" /> 
<g style = "stroke-linecap:round;" > 
<path d="M7184 7221 L7184 7221" /> 
</g><path d="M7238 7278 L7232 7281" /> 
<path d="M7232 7281 L7221 7281" /> 
<path d="M7221 7281 L7215 7278" /> 
<path d="M7215 7278 L7212 7273" /> 
<path d="M7212 7273 L7212 7250" /> 
<path d="M7212 7250 L7215 7244" /> 
<path d="M7215 7244 L7221 7241" /> 
<path d="M7221 7241 L7232 7241" /> 
<path d="M7232 7241 L7238 7244" /> 
<path d="M7238 7244 L7241 7250" /> 
<path d="M7241 7250 L7241 7256" /> 
<path d="M7241 7256 L7212 7261" /> 
<g style = "stroke-linecap:round;" > 
<path d="M7212 7261 L7212 7261" /> 
</g><path d="M7266 7276 L7269 7278" /> 
<path d="M7269 7278 L7266 7281" /> 
<path d="M7266 7281 L7263 7278" /> 
<path d="M7263 7278 L7266 7276" /> 
<path d="M7266 7276 L7266 7281" /> 
<g style = "stroke-linecap:round;" > 
<path d="M7266 7281 L7266 7281" /> 
</g><path d="M7266 7244 L7269 7247" /> 
<path d="M7269 7247 L7266 7250" /> 
<path d="M7266 7250 L7263 7247" /> 
<path d="M7263 7247 L7266 7244" /> 
<path d="M7266 7244 L7266 7250" /> 
<g style = "stroke-linecap:round;" > 
<path d="M7266 7250 L7266 7250" /> 
</g><path d="M7367 7278 L7361 7281" /> 
<path d="M7361 7281 L7350 7281" /> 
<path d="M7350 7281 L7344 7278" /> 
<path d="M7344 7278 L7341 7276" /> 
<path d="M7341 7276 L7338 7270" /> 
<path d="M7338 7270 L7338 7253" /> 
<path d="M7338 7253 L7341 7247" /> 
<path d="M7341 7247 L7344 7244" /> 
<path d="M7344 7244 L7350 7241" /> 
<path d="M7350 7241 L7361 7241" /> 
<path d="M7361 7241 L7367 7244" /> 
<g style = "stroke-linecap:round;" > 
<path d="M7367 7244 L7367 7244" /> 
</g><path d="M7418 7281 L7418 7250" /> 
<path d="M7418 7250 L7415 7244" /> 
<path d="M7415 7244 L7409 7241" /> 
<path d="M7409 7241 L7398 7241" /> 
<path d="M7398 7241 L7392 7244" /> 
<g style = "stroke-linecap:round;" > 
<path d="M7392 7244 L7392 7244" /> 
</g><path d="M7418 7278 L7412 7281" /> 
<path d="M7412 7281 L7398 7281" /> 
<path d="M7398 7281 L7392 7278" /> 
<path d="M7392 7278 L7389 7273" /> 
<path d="M7389 7273 L7389 7267" /> 
<path d="M7389 7267 L7392 7261" /> 
<path d="M7392 7261 L7398 7258" /> 
<path d="M7398 7258 L7412 7258" /> 
<path d="M7412 7258 L7418 7256" /> 
<g style = "stroke-linecap:round;" > 
<path d="M7418 7256 L7418 7256" /> 
</g><path d="M7446 7281 L7446 7221" /> 
<g style = "stroke-linecap:round;" > 
<path d="M7446 7221 L7446 7221" /> 
</g><path d="M7446 7244 L7452 7241" /> 
<path d="M7452 7241 L7463 7241" /> 
<path d="M7463 7241 L7469 7244" /> 
<path d="M7469 7244 L7472 7247" /> 
<path d="M7472 7247 L7475 7253" /> 
<path d="M7475 7253 L7475 7270" /> 
<path d="M7475 7270 L7472 7276" /> 
<path d="M7472 7276 L7469 7278" /> 
<path d="M7469 7278 L7463 7281" /> 
<path d="M7463 7281 L7452 7281" /> 
<path d="M7452 7281 L7446 7278" /> 
<g style = "stroke-linecap:round;" > 
<path d="M7446 7278 L7446 7278" /> 
</g><path d="M7509 7281 L7503 7278" /> 
<path d="M7503 7278 L7500 7273" /> 
<path d="M7500 7273 L7500 7221" /> 
<g style = "stroke-linecap:round;" > 
<path d="M7500 7221 L7500 7221" /> 
</g><path d="M7554 7278 L7548 7281" /> 
<path d="M7548 7281 L7537 7281" /> 
<path d="M7537 7281 L7531 7278" /> 
<path d="M7531 7278 L7528 7273" /> 
<path d="M7528 7273 L7528 7250" /> 
<path d="M7528 7250 L7531 7244" /> 
<path d="M7531 7244 L7537 7241" /> 
<path d="M7537 7241 L7548 7241" /> 
<path d="M7548 7241 L7554 7244" /> 
<path d="M7554 7244 L7557 7250" /> 
<path d="M7557 7250 L7557 7256" /> 
<path d="M7557 7256 L7528 7261" /> 
<g style = "stroke-linecap:round;" > 
<path d="M7528 7261 L7528 7261" /> 
</g><path d="M7582 7258 L7628 7258" /> 
<g style = "stroke-linecap:round;" > 
<path d="M7628 7258 L7628 7258" /> 
</g><path d="M7682 7241 L7682 7281" /> 
<g style = "stroke-linecap:round;" > 
<path d="M7682 7281 L7682 7281" /> 
</g><path d="M7656 7241 L7656 7273" /> 
<path d="M7656 7273 L7659 7278" /> 
<path d="M7659 7278 L7665 7281" /> 
<path d="M7665 7281 L7673 7281" /> 
<path d="M7673 7281 L7679 7278" /> 
<path d="M7679 7278 L7682 7276" /> 
<g style = "stroke-linecap:round;" > 
<path d="M7682 7276 L7682 7276" /> 
</g><path d="M7707 7278 L7713 7281" /> 
<path d="M7713 7281 L7725 7281" /> 
<path d="M7725 7281 L7730 7278" /> 
<path d="M7730 7278 L7733 7273" /> 
<path d="M7733 7273 L7733 7270" /> 
<path d="M7733 7270 L7730 7264" /> 
<path d="M7730 7264 L7725 7261" /> 
<path d="M7725 7261 L7716 7261" /> 
<path d="M7716 7261 L7710 7258" /> 
<path d="M7710 7258 L7707 7253" /> 
<path d="M7707 7253 L7707 7250" /> 
<path d="M7707 7250 L7710 7244" /> 
<path d="M7710 7244 L7716 7241" /> 
<path d="M7716 7241 L7725 7241" /> 
<path d="M7725 7241 L7730 7244" /> 
<g style = "stroke-linecap:round;" > 
<path d="M7730 7244 L7730 7244" /> 
</g><path d="M7759 7281 L7759 7221" /> 
<g style = "stroke-linecap:round;" > 
<path d="M7759 7221 L7759 7221" /> 
</g><path d="M7759 7244 L7765 7241" /> 
<path d="M7765 7241 L7776 7241" /> 
<path d="M7776 7241 L7782 7244" /> 
<path d="M7782 7244 L7785 7247" /> 
<path d="M7785 7247 L7788 7253" /> 
<path d="M7788 7253 L7788 7270" /> 
<path d="M7788 7270 L7785 7276" /> 
<path d="M7785 7276 L7782 7278" /> 
<path d="M7782 7278 L7776 7281" /> 
<path d="M7776 7281 L7765 7281" /> 
<path d="M7765 7281 L7759 7278" /> 
<g style = "stroke-linecap:round;" > 
<path d="M7759 7278 L7759 7278" /> 
</g><path d="M7813 7276 L7816 7278" /> 
<path d="M7816 7278 L7813 7281" /> 
<path d="M7813 7281 L7810 7278" /> 
<path d="M7810 7278 L7813 7276" /> 
<path d="M7813 7276 L7813 7281" /> 
<g style = "stroke-linecap:round;" > 
<path d="M7813 7281 L7813 7281" /> 
</g><path d="M7839 7278 L7845 7281" /> 
<path d="M7845 7281 L7857 7281" /> 
<path d="M7857 7281 L7862 7278" /> 
<path d="M7862 7278 L7865 7273" /> 
<path d="M7865 7273 L7865 7270" /> 
<path d="M7865 7270 L7862 7264" /> 
<path d="M7862 7264 L7857 7261" /> 
<path d="M7857 7261 L7848 7261" /> 
<path d="M7848 7261 L7842 7258" /> 
<path d="M7842 7258 L7839 7253" /> 
<path d="M7839 7253 L7839 7250" /> 
<path d="M7839 7250 L7842 7244" /> 
<path d="M7842 7244 L7848 7241" /> 
<path d="M7848 7241 L7857 7241" /> 
<path d="M7857 7241 L7862 7244" /> 
<g style = "stroke-linecap:round;" > 
<path d="M7862 7244 L7862 7244" /> 
</g><path d="M7917 7278 L7911 7281" /> 
<path d="M7911 7281 L7900 7281" /> 
<path d="M7900 7281 L7894 7278" /> 
<path d="M7894 7278 L7891 7276" /> 
<path d="M7891 7276 L7888 7270" /> 
<path d="M7888 7270 L7888 7253" /> 
<path d="M7888 7253 L7891 7247" /> 
<path d="M7891 7247 L7894 7244" /> 
<path d="M7894 7244 L7900 7241" /> 
<path d="M7900 7241 L7911 7241" /> 
<path d="M7911 7241 L7917 7244" /> 
<g style = "stroke-linecap:round;" > 
<path d="M7917 7244 L7917 7244" /> 
</g><path d="M7942 7281 L7942 7221" /> 
<g style = "stroke-linecap:round;" > 
<path d="M7942 7221 L7942 7221" /> 
</g><path d="M7968 7281 L7968 7250" /> 
<path d="M7968 7250 L7965 7244" /> 
<path d="M7965 7244 L7959 7241" /> 
<path d="M7959 7241 L7951 7241" /> 
<path d="M7951 7241 L7945 7244" /> 
<path d="M7945 7244 L7942 7247" /> 
<g style = "stroke-linecap:round;" > 
<path d="M7942 7247 L7942 7247" /> 
</g><path d="M7101 7398 L7110 7401" /> 
<path d="M7110 7401 L7124 7401" /> 
<path d="M7124 7401 L7130 7398" /> 
<path d="M7130 7398 L7133 7396" /> 
<path d="M7133 7396 L7136 7390" /> 
<path d="M7136 7390 L7136 7384" /> 
<path d="M7136 7384 L7133 7378" /> 
<path d="M7133 7378 L7130 7376" /> 
<path d="M7130 7376 L7124 7373" /> 
<path d="M7124 7373 L7113 7370" /> 
<path d="M7113 7370 L7107 7367" /> 
<path d="M7107 7367 L7104 7364" /> 
<path d="M7104 7364 L7101 7358" /> 
<path d="M7101 7358 L7101 7353" /> 
<path d="M7101 7353 L7104 7347" /> 
<path d="M7104 7347 L7107 7344" /> 
<path d="M7107 7344 L7113 7341" /> 
<path d="M7113 7341 L7127 7341" /> 
<path d="M7127 7341 L7136 7344" /> 
<g style = "stroke-linecap:round;" > 
<path d="M7136 7344 L7136 7344" /> 
</g><path d="M7161 7401 L7161 7341" /> 
<g style = "stroke-linecap:round;" > 
<path d="M7161 7341 L7161 7341" /> 
</g><path d="M7187 7401 L7187 7370" /> 
<path d="M7187 7370 L7184 7364" /> 
<path d="M7184 7364 L7178 7361" /> 
<path d="M7178 7361 L7170 7361" /> 
<path d="M7170 7361 L7164 7364" /> 
<path d="M7164 7364 L7161 7367" /> 
<g style = "stroke-linecap:round;" > 
<path d="M7161 7367 L7161 7367" /> 
</g><path d="M7238 7398 L7232 7401" /> 
<path d="M7232 7401 L7221 7401" /> 
<path d="M7221 7401 L7215 7398" /> 
<path d="M7215 7398 L7212 7393" /> 
<path d="M7212 7393 L7212 7370" /> 
<path d="M7212 7370 L7215 7364" /> 
<path d="M7215 7364 L7221 7361" /> 
<path d="M7221 7361 L7232 7361" /> 
<path d="M7232 7361 L7238 7364" /> 
<path d="M7238 7364 L7241 7370" /> 
<path d="M7241 7370 L7241 7376" /> 
<path d="M7241 7376 L7212 7381" /> 
<g style = "stroke-linecap:round;" > 
<path d="M7212 7381 L7212 7381" /> 
</g><path d="M7289 7398 L7283 7401" /> 
<path d="M7283 7401 L7272 7401" /> 
<path d="M7272 7401 L7266 7398" /> 
<path d="M7266 7398 L7263 7393" /> 
<path d="M7263 7393 L7263 7370" /> 
<path d="M7263 7370 L7266 7364" /> 
<path d="M7266 7364 L7272 7361" /> 
<path d="M7272 7361 L7283 7361" /> 
<path d="M7283 7361 L7289 7364" /> 
<path d="M7289 7364 L7292 7370" /> 
<path d="M7292 7370 L7292 7376" /> 
<path d="M7292 7376 L7263 7381" /> 
<g style = "stroke-linecap:round;" > 
<path d="M7263 7381 L7263 7381" /> 
</g><path d="M7309 7361 L7332 7361" /> 
<g style = "stroke-linecap:round;" > 
<path d="M7332 7361 L7332 7361" /> 
</g><path d="M7317 7341 L7317 7393" /> 
<path d="M7317 7393 L7320 7398" /> 
<path d="M7320 7398 L7326 7401" /> 
<path d="M7326 7401 L7332 7401" /> 
<g style = "stroke-linecap:round;" > 
<path d="M7332 7401 L7332 7401" /> 
</g><path d="M7351 7396 L7354 7398" /> 
<path d="M7354 7398 L7351 7401" /> 
<path d="M7351 7401 L7348 7398" /> 
<path d="M7348 7398 L7351 7396" /> 
<path d="M7351 7396 L7351 7401" /> 
<g style = "stroke-linecap:round;" > 
<path d="M7351 7401 L7351 7401" /> 
</g><path d="M7351 7364 L7354 7367" /> 
<path d="M7354 7367 L7351 7370" /> 
<path d="M7351 7370 L7348 7367" /> 
<path d="M7348 7367 L7351 7364" /> 
<path d="M7351 7364 L7351 7370" /> 
<g style = "stroke-linecap:round;" > 
<path d="M7351 7370 L7351 7370" /> 
</g><path d="M7469 7338 L7418 7416" /> 
<g style = "stroke-linecap:round;" > 
<path d="M7418 7416 L7418 7416" /> 
</g><path d="M7030 7197 L7030 7797" /> 
<path d="M7030 7197 L11230 7197" /> 
<path d="M7030 7197 L11230 7197" /> 
<path d="M7030 7437 L11230 7437" /> 
<path d="M10350 7557 L10350 7797" /> 
<path d="M7030 7677 L11230 7677" /> 
<path d="M7030 7557 L11230 7557" /> 
<path d="M7690 7557 L7690 7677" /> 
</g> 
</svg> 
