<?xml version="1.0" standalone="no"?>
<!DOCTYPE svg PUBLIC "-//W3C//DTD SVG 20010904//EN" 
"http://www.w3.org/TR/2001/REC-SVG-20010904/DTD/svg10.dtd"> 
<svg xmlns="http://www.w3.org/2000/svg" xmlns:xlink="http://www.w3.org/1999/xlink" 
    width="29.72cm" height="21.00cm" viewBox="0 0 11700 8267 "> 
<title>SVG Picture created as valve-power-input4.svg </title>
<desc>Picture generated by wxSVG v0100 </desc>
<g style="fill:black; stroke:black; stroke-width:1">
</g>
<g style="fill:#000000; fill-opacity:0.0; stroke:#00A000; stroke-opacity:1.00; stroke-linecap:round; stroke-linejoin:round; stroke-width:6" 
   transform="translate(0.00 0.00) scale(1.00 1.00)">
<path d="M5800 2300 L5800 2050" /> 
</g>
<g style="fill:#00A000; fill-opacity:1.00; stroke:#00A000; stroke-opacity:1.00; stroke-linecap:round; stroke-linejoin:round; stroke-width:0" 
   transform="translate(0.00 0.00) scale(1.00 1.00)">
<ellipse cx="5800" cy="3250" rx="16" ry="16"  /> 
</g>
<g style="fill:#00A000; fill-opacity:1.00; stroke:#00A000; stroke-opacity:1.00; stroke-linecap:round; stroke-linejoin:round; stroke-width:6" 
   transform="translate(0.00 0.00) scale(1.00 1.00)">
<path d="M5800 3250 L6250 3250" /> 
<path d="M4600 4500 L4600 4700" /> 
</g>
<g style="fill:#00A000; fill-opacity:1.00; stroke:#00A000; stroke-opacity:1.00; stroke-linecap:round; stroke-linejoin:round; stroke-width:0" 
   transform="translate(0.00 0.00) scale(1.00 1.00)">
<ellipse cx="4600" cy="3600" rx="16" ry="16"  /> 
</g>
<g style="fill:#00A000; fill-opacity:1.00; stroke:#00A000; stroke-opacity:1.00; stroke-linecap:round; stroke-linejoin:round; stroke-width:6" 
   transform="translate(0.00 0.00) scale(1.00 1.00)">
<path d="M3900 3600 L4800 3600" /> 
<path d="M5300 3600 L5500 3600" /> 
<path d="M4600 3600 L4600 4000" /> 
<path d="M5800 3800 L5800 4550" /> 
<path d="M5800 3400 L5800 2800" /> 
<path d="M6750 3250 L7150 3250" /> 
</g>
<g style="fill:#A00000; fill-opacity:0.0; stroke:#A00000; stroke-opacity:1.00; stroke-linecap:round; stroke-linejoin:round; stroke-width:6" 
   transform="translate(0.00 0.00) scale(1.00 1.00)">
<ellipse cx="5800" cy="1990" rx="20" ry="20"  /> 
<path d="M5800 2050 L5800 2010" /> 
<path d="M5800 2010 L5800 2010" /> 
<g style = "stroke-linecap:round;" > 
<path d="M5800 2010 L5800 2010" /> 
</g></g>
<g style="fill:#00A0A0; fill-opacity:0.0; stroke:#00A0A0; stroke-opacity:1.00; stroke-linecap:round; stroke-linejoin:round; stroke-width:5" 
   transform="translate(0.00 0.00) scale(1.00 1.00)">
<path d="M5760 1920 L5770 1950" /> 
<path d="M5770 1950 L5780 1920" /> 
<g style = "stroke-linecap:round;" > 
<path d="M5780 1920 L5780 1920" /> 
</g><path d="M5790 1950 L5790 1920" /> 
<path d="M5790 1920 L5797 1920" /> 
<path d="M5797 1920 L5802 1922" /> 
<path d="M5802 1922 L5804 1924" /> 
<path d="M5804 1924 L5806 1927" /> 
<path d="M5806 1927 L5807 1933" /> 
<path d="M5807 1933 L5807 1937" /> 
<path d="M5807 1937 L5806 1943" /> 
<path d="M5806 1943 L5804 1946" /> 
<path d="M5804 1946 L5802 1949" /> 
<path d="M5802 1949 L5797 1950" /> 
<path d="M5797 1950 L5790 1950" /> 
<path d="M5820 1950 L5820 1920" /> 
<path d="M5820 1920 L5827 1920" /> 
<path d="M5827 1920 L5832 1922" /> 
<path d="M5832 1922 L5834 1924" /> 
<path d="M5834 1924 L5836 1927" /> 
<path d="M5836 1927 L5837 1933" /> 
<path d="M5837 1933 L5837 1937" /> 
<path d="M5837 1937 L5836 1943" /> 
<path d="M5836 1943 L5834 1946" /> 
<path d="M5834 1946 L5832 1949" /> 
<path d="M5832 1949 L5827 1950" /> 
<path d="M5827 1950 L5820 1950" /> 
</g>
<g style="fill:#000000; fill-opacity:0.0; stroke:#A00000; stroke-opacity:1.00; stroke-linecap:round; stroke-linejoin:round; stroke-width:12" 
   transform="translate(0.00 0.00) scale(1.00 1.00)">
<polygon style="fill-rule:evenodd; " 
points="5760,2400
5760,2400
5760,2700
5840,2700
5840,2400
" /> 
</g>
<g style="fill:#000000; fill-opacity:0.0; stroke:#A00000; stroke-opacity:1.00; stroke-linecap:round; stroke-linejoin:round; stroke-width:6" 
   transform="translate(0.00 0.00) scale(1.00 1.00)">
<path d="M5800 2400 L5800 2300" /> 
<path d="M5800 2700 L5800 2800" /> 
</g>
<g style="fill:#00A0A0; fill-opacity:0.0; stroke:#00A0A0; stroke-opacity:1.00; stroke-linecap:round; stroke-linejoin:round; stroke-width:6" 
   transform="translate(0.00 0.00) scale(1.00 1.00)">
<path d="M5897 2583 L5873 2599" /> 
<g style = "stroke-linecap:round;" > 
<path d="M5873 2599 L5873 2599" /> 
</g><path d="M5897 2611 L5847 2611" /> 
<path d="M5847 2611 L5847 2592" /> 
<path d="M5847 2592 L5850 2587" /> 
<path d="M5850 2587 L5852 2585" /> 
<path d="M5852 2585 L5857 2583" /> 
<path d="M5857 2583 L5864 2583" /> 
<path d="M5864 2583 L5869 2585" /> 
<path d="M5869 2585 L5871 2587" /> 
<path d="M5871 2587 L5873 2592" /> 
<path d="M5873 2592 L5873 2611" /> 
<g style = "stroke-linecap:round;" > 
<path d="M5873 2611 L5873 2611" /> 
</g><path d="M5847 2540 L5847 2549" /> 
<path d="M5847 2549 L5850 2554" /> 
<path d="M5850 2554 L5852 2556" /> 
<path d="M5852 2556 L5859 2561" /> 
<path d="M5859 2561 L5869 2563" /> 
<path d="M5869 2563 L5888 2563" /> 
<path d="M5888 2563 L5892 2561" /> 
<path d="M5892 2561 L5895 2559" /> 
<path d="M5895 2559 L5897 2554" /> 
<path d="M5897 2554 L5897 2544" /> 
<path d="M5897 2544 L5895 2540" /> 
<path d="M5895 2540 L5892 2537" /> 
<path d="M5892 2537 L5888 2535" /> 
<path d="M5888 2535 L5876 2535" /> 
<path d="M5876 2535 L5871 2537" /> 
<path d="M5871 2537 L5869 2540" /> 
<path d="M5869 2540 L5866 2544" /> 
<path d="M5866 2544 L5866 2554" /> 
<path d="M5866 2554 L5869 2559" /> 
<path d="M5869 2559 L5871 2561" /> 
<path d="M5871 2561 L5876 2563" /> 
<g style = "stroke-linecap:round;" > 
<path d="M5876 2563 L5876 2563" /> 
</g><path d="M5897 2511 L5897 2501" /> 
<path d="M5897 2501 L5895 2496" /> 
<path d="M5895 2496 L5892 2494" /> 
<path d="M5892 2494 L5885 2489" /> 
<path d="M5885 2489 L5876 2487" /> 
<path d="M5876 2487 L5857 2487" /> 
<path d="M5857 2487 L5852 2489" /> 
<path d="M5852 2489 L5850 2492" /> 
<path d="M5850 2492 L5847 2496" /> 
<path d="M5847 2496 L5847 2506" /> 
<path d="M5847 2506 L5850 2511" /> 
<path d="M5850 2511 L5852 2513" /> 
<path d="M5852 2513 L5857 2515" /> 
<path d="M5857 2515 L5869 2515" /> 
<path d="M5869 2515 L5873 2513" /> 
<path d="M5873 2513 L5876 2511" /> 
<path d="M5876 2511 L5878 2506" /> 
<path d="M5878 2506 L5878 2496" /> 
<path d="M5878 2496 L5876 2492" /> 
<path d="M5876 2492 L5873 2489" /> 
<path d="M5873 2489 L5869 2487" /> 
<g style = "stroke-linecap:round;" > 
<path d="M5869 2487 L5869 2487" /> 
</g><path d="M5767 2611 L5767 2580" /> 
<path d="M5767 2580 L5786 2597" /> 
<path d="M5786 2597 L5786 2589" /> 
<path d="M5786 2589 L5789 2585" /> 
<path d="M5789 2585 L5791 2582" /> 
<path d="M5791 2582 L5796 2580" /> 
<path d="M5796 2580 L5808 2580" /> 
<path d="M5808 2580 L5812 2582" /> 
<path d="M5812 2582 L5815 2585" /> 
<path d="M5815 2585 L5817 2589" /> 
<path d="M5817 2589 L5817 2604" /> 
<path d="M5817 2604 L5815 2608" /> 
<path d="M5815 2608 L5812 2611" /> 
<g style = "stroke-linecap:round;" > 
<path d="M5812 2611 L5812 2611" /> 
</g><path d="M5767 2563 L5767 2532" /> 
<path d="M5767 2532 L5786 2549" /> 
<path d="M5786 2549 L5786 2541" /> 
<path d="M5786 2541 L5789 2537" /> 
<path d="M5789 2537 L5791 2534" /> 
<path d="M5791 2534 L5796 2532" /> 
<path d="M5796 2532 L5808 2532" /> 
<path d="M5808 2532 L5812 2534" /> 
<path d="M5812 2534 L5815 2537" /> 
<path d="M5815 2537 L5817 2541" /> 
<path d="M5817 2541 L5817 2556" /> 
<path d="M5817 2556 L5815 2560" /> 
<path d="M5815 2560 L5812 2563" /> 
<g style = "stroke-linecap:round;" > 
<path d="M5812 2563 L5812 2563" /> 
</g><path d="M5817 2510 L5767 2510" /> 
<g style = "stroke-linecap:round;" > 
<path d="M5767 2510 L5767 2510" /> 
</g><path d="M5798 2505 L5817 2491" /> 
<g style = "stroke-linecap:round;" > 
<path d="M5817 2491 L5817 2491" /> 
</g><path d="M5784 2491 L5803 2510" /> 
<g style = "stroke-linecap:round;" > 
<path d="M5803 2510 L5803 2510" /> 
</g></g>
<g style="fill:#808000; fill-opacity:0.0; stroke:#808000; stroke-opacity:1.00; stroke-linecap:round; stroke-linejoin:round; stroke-width:6" 
   transform="translate(0.00 0.00) scale(1.00 1.00)">
<path d="M7249 3274 L7243 3271" /> 
<path d="M7243 3271 L7240 3269" /> 
<path d="M7240 3269 L7237 3263" /> 
<path d="M7237 3263 L7237 3246" /> 
<path d="M7237 3246 L7240 3240" /> 
<path d="M7240 3240 L7243 3237" /> 
<path d="M7243 3237 L7249 3234" /> 
<path d="M7249 3234 L7257 3234" /> 
<path d="M7257 3234 L7263 3237" /> 
<path d="M7263 3237 L7266 3240" /> 
<path d="M7266 3240 L7269 3246" /> 
<path d="M7269 3246 L7269 3263" /> 
<path d="M7269 3263 L7266 3269" /> 
<path d="M7266 3269 L7263 3271" /> 
<path d="M7263 3271 L7257 3274" /> 
<path d="M7257 3274 L7249 3274" /> 
<path d="M7320 3234 L7320 3274" /> 
<g style = "stroke-linecap:round;" > 
<path d="M7320 3274 L7320 3274" /> 
</g><path d="M7294 3234 L7294 3266" /> 
<path d="M7294 3266 L7297 3271" /> 
<path d="M7297 3271 L7303 3274" /> 
<path d="M7303 3274 L7311 3274" /> 
<path d="M7311 3274 L7317 3271" /> 
<path d="M7317 3271 L7320 3269" /> 
<g style = "stroke-linecap:round;" > 
<path d="M7320 3269 L7320 3269" /> 
</g><path d="M7340 3234 L7363 3234" /> 
<g style = "stroke-linecap:round;" > 
<path d="M7363 3234 L7363 3234" /> 
</g><path d="M7348 3214 L7348 3266" /> 
<path d="M7348 3266 L7351 3271" /> 
<path d="M7351 3271 L7357 3274" /> 
<path d="M7357 3274 L7363 3274" /> 
<g style = "stroke-linecap:round;" > 
<path d="M7363 3274 L7363 3274" /> 
</g><path d="M7150 3250 L7180 3280" /> 
<path d="M7180 3280 L7210 3280" /> 
<path d="M7210 3280 L7210 3220" /> 
<path d="M7210 3220 L7180 3220" /> 
<path d="M7180 3220 L7150 3250" /> 
</g>
<g style="fill:#000000; fill-opacity:0.0; stroke:#A00000; stroke-opacity:1.00; stroke-linecap:round; stroke-linejoin:round; stroke-width:12" 
   transform="translate(0.00 0.00) scale(1.00 1.00)">
<polygon style="fill-rule:evenodd; " 
points="6350,3290
6350,3290
6350,3210
6650,3210
6650,3290
" /> 
</g>
<g style="fill:#000000; fill-opacity:0.0; stroke:#A00000; stroke-opacity:1.00; stroke-linecap:round; stroke-linejoin:round; stroke-width:6" 
   transform="translate(0.00 0.00) scale(1.00 1.00)">
<path d="M6350 3250 L6250 3250" /> 
<path d="M6650 3250 L6750 3250" /> 
</g>
<g style="fill:#00A0A0; fill-opacity:0.0; stroke:#00A0A0; stroke-opacity:1.00; stroke-linecap:round; stroke-linejoin:round; stroke-width:6" 
   transform="translate(0.00 0.00) scale(1.00 1.00)">
<path d="M6467 3193 L6451 3169" /> 
<g style = "stroke-linecap:round;" > 
<path d="M6451 3169 L6451 3169" /> 
</g><path d="M6439 3193 L6439 3143" /> 
<path d="M6439 3143 L6458 3143" /> 
<path d="M6458 3143 L6463 3146" /> 
<path d="M6463 3146 L6465 3148" /> 
<path d="M6465 3148 L6467 3153" /> 
<path d="M6467 3153 L6467 3160" /> 
<path d="M6467 3160 L6465 3165" /> 
<path d="M6465 3165 L6463 3167" /> 
<path d="M6463 3167 L6458 3169" /> 
<path d="M6458 3169 L6439 3169" /> 
<g style = "stroke-linecap:round;" > 
<path d="M6439 3169 L6439 3169" /> 
</g><path d="M6484 3143 L6517 3143" /> 
<path d="M6517 3143 L6496 3193" /> 
<g style = "stroke-linecap:round;" > 
<path d="M6496 3193 L6496 3193" /> 
</g><path d="M6546 3143 L6551 3143" /> 
<path d="M6551 3143 L6556 3146" /> 
<path d="M6556 3146 L6558 3148" /> 
<path d="M6558 3148 L6561 3153" /> 
<path d="M6561 3153 L6563 3162" /> 
<path d="M6563 3162 L6563 3174" /> 
<path d="M6563 3174 L6561 3184" /> 
<path d="M6561 3184 L6558 3188" /> 
<path d="M6558 3188 L6556 3191" /> 
<path d="M6556 3191 L6551 3193" /> 
<path d="M6551 3193 L6546 3193" /> 
<path d="M6546 3193 L6542 3191" /> 
<path d="M6542 3191 L6539 3188" /> 
<path d="M6539 3188 L6537 3184" /> 
<path d="M6537 3184 L6535 3174" /> 
<path d="M6535 3174 L6535 3162" /> 
<path d="M6535 3162 L6537 3153" /> 
<path d="M6537 3153 L6539 3148" /> 
<path d="M6539 3148 L6542 3146" /> 
<path d="M6542 3146 L6546 3143" /> 
<path d="M6442 3228 L6444 3226" /> 
<path d="M6444 3226 L6449 3223" /> 
<path d="M6449 3223 L6461 3223" /> 
<path d="M6461 3223 L6465 3226" /> 
<path d="M6465 3226 L6468 3228" /> 
<path d="M6468 3228 L6470 3233" /> 
<path d="M6470 3233 L6470 3238" /> 
<path d="M6470 3238 L6468 3245" /> 
<path d="M6468 3245 L6439 3273" /> 
<path d="M6439 3273 L6470 3273" /> 
<g style = "stroke-linecap:round;" > 
<path d="M6470 3273 L6470 3273" /> 
</g><path d="M6492 3273 L6492 3223" /> 
<g style = "stroke-linecap:round;" > 
<path d="M6492 3223 L6492 3223" /> 
</g><path d="M6497 3254 L6511 3273" /> 
<g style = "stroke-linecap:round;" > 
<path d="M6511 3273 L6511 3273" /> 
</g><path d="M6511 3240 L6492 3259" /> 
<g style = "stroke-linecap:round;" > 
<path d="M6492 3259 L6492 3259" /> 
</g><path d="M6553 3240 L6553 3273" /> 
<g style = "stroke-linecap:round;" > 
<path d="M6553 3273 L6553 3273" /> 
</g><path d="M6541 3221 L6530 3257" /> 
<path d="M6530 3257 L6560 3257" /> 
<g style = "stroke-linecap:round;" > 
<path d="M6560 3257 L6560 3257" /> 
</g></g>
<g style="fill:#A00000; fill-opacity:0.0; stroke:#A00000; stroke-opacity:1.00; stroke-linecap:round; stroke-linejoin:round; stroke-width:6" 
   transform="translate(0.00 0.00) scale(1.00 1.00)">
<path d="M4550 4700 L4600 4750" /> 
<path d="M4600 4750 L4650 4700" /> 
<path d="M4650 4700 L4550 4700" /> 
<path d="M5750 4550 L5800 4600" /> 
<path d="M5800 4600 L5850 4550" /> 
<path d="M5850 4550 L5750 4550" /> 
</g>
<g style="fill:#808000; fill-opacity:0.0; stroke:#808000; stroke-opacity:1.00; stroke-linecap:round; stroke-linejoin:round; stroke-width:6" 
   transform="translate(0.00 0.00) scale(1.00 1.00)">
<path d="M3521 3624 L3521 3584" /> 
<g style = "stroke-linecap:round;" > 
<path d="M3521 3584 L3521 3584" /> 
</g><path d="M3521 3564 L3518 3567" /> 
<path d="M3518 3567 L3521 3570" /> 
<path d="M3521 3570 L3524 3567" /> 
<path d="M3524 3567 L3521 3564" /> 
<path d="M3521 3564 L3521 3570" /> 
<g style = "stroke-linecap:round;" > 
<path d="M3521 3570 L3521 3570" /> 
</g><path d="M3550 3584 L3550 3624" /> 
<g style = "stroke-linecap:round;" > 
<path d="M3550 3624 L3550 3624" /> 
</g><path d="M3550 3590 L3553 3587" /> 
<path d="M3553 3587 L3559 3584" /> 
<path d="M3559 3584 L3567 3584" /> 
<path d="M3567 3584 L3573 3587" /> 
<path d="M3573 3587 L3576 3593" /> 
<path d="M3576 3593 L3576 3624" /> 
<g style = "stroke-linecap:round;" > 
<path d="M3576 3624 L3576 3624" /> 
</g><path d="M3604 3601 L3650 3601" /> 
<g style = "stroke-linecap:round;" > 
<path d="M3650 3601 L3650 3601" /> 
</g><path d="M3675 3570 L3678 3567" /> 
<path d="M3678 3567 L3684 3564" /> 
<path d="M3684 3564 L3698 3564" /> 
<path d="M3698 3564 L3704 3567" /> 
<path d="M3704 3567 L3707 3570" /> 
<path d="M3707 3570 L3710 3576" /> 
<path d="M3710 3576 L3710 3581" /> 
<path d="M3710 3581 L3707 3590" /> 
<path d="M3707 3590 L3673 3624" /> 
<path d="M3673 3624 L3710 3624" /> 
<g style = "stroke-linecap:round;" > 
<path d="M3710 3624 L3710 3624" /> 
</g><path d="M3761 3584 L3761 3624" /> 
<g style = "stroke-linecap:round;" > 
<path d="M3761 3624 L3761 3624" /> 
</g><path d="M3747 3561 L3732 3604" /> 
<path d="M3732 3604 L3770 3604" /> 
<g style = "stroke-linecap:round;" > 
<path d="M3770 3604 L3770 3604" /> 
</g><path d="M3787 3584 L3801 3624" /> 
<path d="M3801 3624 L3815 3584" /> 
<g style = "stroke-linecap:round;" > 
<path d="M3815 3584 L3815 3584" /> 
</g><path d="M3900 3600 L3870 3570" /> 
<path d="M3870 3570 L3840 3570" /> 
<path d="M3840 3570 L3840 3630" /> 
<path d="M3840 3630 L3870 3630" /> 
<path d="M3870 3630 L3900 3600" /> 
</g>
<g style="fill:#000000; fill-opacity:0.0; stroke:#A00000; stroke-opacity:1.00; stroke-linecap:round; stroke-linejoin:round; stroke-width:12" 
   transform="translate(0.00 0.00) scale(1.00 1.00)">
<polygon style="fill-rule:evenodd; " 
points="4900,3640
4900,3640
4900,3560
5200,3560
5200,3640
" /> 
</g>
<g style="fill:#000000; fill-opacity:0.0; stroke:#A00000; stroke-opacity:1.00; stroke-linecap:round; stroke-linejoin:round; stroke-width:6" 
   transform="translate(0.00 0.00) scale(1.00 1.00)">
<path d="M4900 3600 L4800 3600" /> 
<path d="M5200 3600 L5300 3600" /> 
</g>
<g style="fill:#00A0A0; fill-opacity:0.0; stroke:#00A0A0; stroke-opacity:1.00; stroke-linecap:round; stroke-linejoin:round; stroke-width:6" 
   transform="translate(0.00 0.00) scale(1.00 1.00)">
<path d="M5017 3543 L5001 3519" /> 
<g style = "stroke-linecap:round;" > 
<path d="M5001 3519 L5001 3519" /> 
</g><path d="M4989 3543 L4989 3493" /> 
<path d="M4989 3493 L5008 3493" /> 
<path d="M5008 3493 L5013 3496" /> 
<path d="M5013 3496 L5015 3498" /> 
<path d="M5015 3498 L5017 3503" /> 
<path d="M5017 3503 L5017 3510" /> 
<path d="M5017 3510 L5015 3515" /> 
<path d="M5015 3515 L5013 3517" /> 
<path d="M5013 3517 L5008 3519" /> 
<path d="M5008 3519 L4989 3519" /> 
<g style = "stroke-linecap:round;" > 
<path d="M4989 3519 L4989 3519" /> 
</g><path d="M5060 3493 L5051 3493" /> 
<path d="M5051 3493 L5046 3496" /> 
<path d="M5046 3496 L5044 3498" /> 
<path d="M5044 3498 L5039 3505" /> 
<path d="M5039 3505 L5037 3515" /> 
<path d="M5037 3515 L5037 3534" /> 
<path d="M5037 3534 L5039 3538" /> 
<path d="M5039 3538 L5041 3541" /> 
<path d="M5041 3541 L5046 3543" /> 
<path d="M5046 3543 L5056 3543" /> 
<path d="M5056 3543 L5060 3541" /> 
<path d="M5060 3541 L5063 3538" /> 
<path d="M5063 3538 L5065 3534" /> 
<path d="M5065 3534 L5065 3522" /> 
<path d="M5065 3522 L5063 3517" /> 
<path d="M5063 3517 L5060 3515" /> 
<path d="M5060 3515 L5056 3512" /> 
<path d="M5056 3512 L5046 3512" /> 
<path d="M5046 3512 L5041 3515" /> 
<path d="M5041 3515 L5039 3517" /> 
<path d="M5039 3517 L5037 3522" /> 
<g style = "stroke-linecap:round;" > 
<path d="M5037 3522 L5037 3522" /> 
</g><path d="M5094 3515 L5089 3512" /> 
<path d="M5089 3512 L5087 3510" /> 
<path d="M5087 3510 L5085 3505" /> 
<path d="M5085 3505 L5085 3503" /> 
<path d="M5085 3503 L5087 3498" /> 
<path d="M5087 3498 L5089 3496" /> 
<path d="M5089 3496 L5094 3493" /> 
<path d="M5094 3493 L5104 3493" /> 
<path d="M5104 3493 L5108 3496" /> 
<path d="M5108 3496 L5111 3498" /> 
<path d="M5111 3498 L5113 3503" /> 
<path d="M5113 3503 L5113 3505" /> 
<path d="M5113 3505 L5111 3510" /> 
<path d="M5111 3510 L5108 3512" /> 
<path d="M5108 3512 L5104 3515" /> 
<path d="M5104 3515 L5094 3515" /> 
<path d="M5094 3515 L5089 3517" /> 
<path d="M5089 3517 L5087 3519" /> 
<path d="M5087 3519 L5085 3524" /> 
<path d="M5085 3524 L5085 3534" /> 
<path d="M5085 3534 L5087 3538" /> 
<path d="M5087 3538 L5089 3541" /> 
<path d="M5089 3541 L5094 3543" /> 
<path d="M5094 3543 L5104 3543" /> 
<path d="M5104 3543 L5108 3541" /> 
<path d="M5108 3541 L5111 3538" /> 
<path d="M5111 3538 L5113 3534" /> 
<path d="M5113 3534 L5113 3524" /> 
<path d="M5113 3524 L5111 3519" /> 
<path d="M5111 3519 L5108 3517" /> 
<path d="M5108 3517 L5104 3515" /> 
<g style = "stroke-linecap:round;" > 
<path d="M5104 3515 L5104 3515" /> 
</g><path d="M4992 3578 L4994 3576" /> 
<path d="M4994 3576 L4999 3573" /> 
<path d="M4999 3573 L5011 3573" /> 
<path d="M5011 3573 L5015 3576" /> 
<path d="M5015 3576 L5018 3578" /> 
<path d="M5018 3578 L5020 3583" /> 
<path d="M5020 3583 L5020 3588" /> 
<path d="M5020 3588 L5018 3595" /> 
<path d="M5018 3595 L4989 3623" /> 
<path d="M4989 3623 L5020 3623" /> 
<g style = "stroke-linecap:round;" > 
<path d="M5020 3623 L5020 3623" /> 
</g><path d="M5042 3623 L5042 3573" /> 
<g style = "stroke-linecap:round;" > 
<path d="M5042 3573 L5042 3573" /> 
</g><path d="M5047 3604 L5061 3623" /> 
<g style = "stroke-linecap:round;" > 
<path d="M5061 3623 L5061 3623" /> 
</g><path d="M5061 3590 L5042 3609" /> 
<g style = "stroke-linecap:round;" > 
<path d="M5042 3609 L5042 3609" /> 
</g><path d="M5103 3590 L5103 3623" /> 
<g style = "stroke-linecap:round;" > 
<path d="M5103 3623 L5103 3623" /> 
</g><path d="M5091 3571 L5080 3607" /> 
<path d="M5080 3607 L5110 3607" /> 
<g style = "stroke-linecap:round;" > 
<path d="M5110 3607 L5110 3607" /> 
</g></g>
<g style="fill:#000000; fill-opacity:0.0; stroke:#A00000; stroke-opacity:1.00; stroke-linecap:round; stroke-linejoin:round; stroke-width:12" 
   transform="translate(0.00 0.00) scale(1.00 1.00)">
<polygon style="fill-rule:evenodd; " 
points="4560,4100
4560,4100
4560,4400
4640,4400
4640,4100
" /> 
</g>
<g style="fill:#000000; fill-opacity:0.0; stroke:#A00000; stroke-opacity:1.00; stroke-linecap:round; stroke-linejoin:round; stroke-width:6" 
   transform="translate(0.00 0.00) scale(1.00 1.00)">
<path d="M4600 4100 L4600 4000" /> 
<path d="M4600 4400 L4600 4500" /> 
</g>
<g style="fill:#00A0A0; fill-opacity:0.0; stroke:#00A0A0; stroke-opacity:1.00; stroke-linecap:round; stroke-linejoin:round; stroke-width:6" 
   transform="translate(0.00 0.00) scale(1.00 1.00)">
<path d="M4697 4283 L4673 4299" /> 
<g style = "stroke-linecap:round;" > 
<path d="M4673 4299 L4673 4299" /> 
</g><path d="M4697 4311 L4647 4311" /> 
<path d="M4647 4311 L4647 4292" /> 
<path d="M4647 4292 L4650 4287" /> 
<path d="M4650 4287 L4652 4285" /> 
<path d="M4652 4285 L4657 4283" /> 
<path d="M4657 4283 L4664 4283" /> 
<path d="M4664 4283 L4669 4285" /> 
<path d="M4669 4285 L4671 4287" /> 
<path d="M4671 4287 L4673 4292" /> 
<path d="M4673 4292 L4673 4311" /> 
<g style = "stroke-linecap:round;" > 
<path d="M4673 4311 L4673 4311" /> 
</g><path d="M4647 4240 L4647 4249" /> 
<path d="M4647 4249 L4650 4254" /> 
<path d="M4650 4254 L4652 4256" /> 
<path d="M4652 4256 L4659 4261" /> 
<path d="M4659 4261 L4669 4263" /> 
<path d="M4669 4263 L4688 4263" /> 
<path d="M4688 4263 L4692 4261" /> 
<path d="M4692 4261 L4695 4259" /> 
<path d="M4695 4259 L4697 4254" /> 
<path d="M4697 4254 L4697 4244" /> 
<path d="M4697 4244 L4695 4240" /> 
<path d="M4695 4240 L4692 4237" /> 
<path d="M4692 4237 L4688 4235" /> 
<path d="M4688 4235 L4676 4235" /> 
<path d="M4676 4235 L4671 4237" /> 
<path d="M4671 4237 L4669 4240" /> 
<path d="M4669 4240 L4666 4244" /> 
<path d="M4666 4244 L4666 4254" /> 
<path d="M4666 4254 L4669 4259" /> 
<path d="M4669 4259 L4671 4261" /> 
<path d="M4671 4261 L4676 4263" /> 
<g style = "stroke-linecap:round;" > 
<path d="M4676 4263 L4676 4263" /> 
</g><path d="M4647 4218 L4647 4185" /> 
<path d="M4647 4185 L4697 4206" /> 
<g style = "stroke-linecap:round;" > 
<path d="M4697 4206 L4697 4206" /> 
</g><path d="M4567 4311 L4567 4280" /> 
<path d="M4567 4280 L4586 4297" /> 
<path d="M4586 4297 L4586 4289" /> 
<path d="M4586 4289 L4589 4285" /> 
<path d="M4589 4285 L4591 4282" /> 
<path d="M4591 4282 L4596 4280" /> 
<path d="M4596 4280 L4608 4280" /> 
<path d="M4608 4280 L4612 4282" /> 
<path d="M4612 4282 L4615 4285" /> 
<path d="M4615 4285 L4617 4289" /> 
<path d="M4617 4289 L4617 4304" /> 
<path d="M4617 4304 L4615 4308" /> 
<path d="M4615 4308 L4612 4311" /> 
<g style = "stroke-linecap:round;" > 
<path d="M4612 4311 L4612 4311" /> 
</g><path d="M4567 4263 L4567 4232" /> 
<path d="M4567 4232 L4586 4249" /> 
<path d="M4586 4249 L4586 4241" /> 
<path d="M4586 4241 L4589 4237" /> 
<path d="M4589 4237 L4591 4234" /> 
<path d="M4591 4234 L4596 4232" /> 
<path d="M4596 4232 L4608 4232" /> 
<path d="M4608 4232 L4612 4234" /> 
<path d="M4612 4234 L4615 4237" /> 
<path d="M4615 4237 L4617 4241" /> 
<path d="M4617 4241 L4617 4256" /> 
<path d="M4617 4256 L4615 4260" /> 
<path d="M4615 4260 L4612 4263" /> 
<g style = "stroke-linecap:round;" > 
<path d="M4612 4263 L4612 4263" /> 
</g><path d="M4617 4210 L4567 4210" /> 
<g style = "stroke-linecap:round;" > 
<path d="M4567 4210 L4567 4210" /> 
</g><path d="M4598 4205 L4617 4191" /> 
<g style = "stroke-linecap:round;" > 
<path d="M4617 4191 L4617 4191" /> 
</g><path d="M4584 4191 L4603 4210" /> 
<g style = "stroke-linecap:round;" > 
<path d="M4603 4210 L4603 4210" /> 
</g></g>
<g style="fill:#A00000; fill-opacity:0.0; stroke:#A00000; stroke-opacity:1.00; stroke-linecap:round; stroke-linejoin:round; stroke-width:10" 
   transform="translate(0.00 0.00) scale(1.00 1.00)">
<ellipse cx="5750" cy="3600" rx="111" ry="111"  /> 
</g>
<g style="fill:#A00000; fill-opacity:0.0; stroke:#A00000; stroke-opacity:1.00; stroke-linecap:round; stroke-linejoin:round; stroke-width:6" 
   transform="translate(0.00 0.00) scale(1.00 1.00)">
<path d="M5700 3600 L5800 3500" /> 
<g style = "stroke-linecap:round;" > 
<path d="M5800 3500 L5800 3500" /> 
</g></g>
<g style="fill:#A00000; fill-opacity:0.0; stroke:#A00000; stroke-opacity:1.00; stroke-linecap:round; stroke-linejoin:round; stroke-width:10" 
   transform="translate(0.00 0.00) scale(1.00 1.00)">
<path d="M5700 3525 L5700 3675" /> 
<path d="M5700 3675 L5700 3675" /> 
<g style = "stroke-linecap:round;" > 
<path d="M5700 3675 L5700 3675" /> 
</g></g>
<g style="fill:#A00000; fill-opacity:0.0; stroke:#A00000; stroke-opacity:1.00; stroke-linecap:round; stroke-linejoin:round; stroke-width:6" 
   transform="translate(0.00 0.00) scale(1.00 1.00)">
<path d="M5750 3650 L5700 3600" /> 
<path d="M5700 3600 L5700 3600" /> 
<g style = "stroke-linecap:round;" > 
<path d="M5700 3600 L5700 3600" /> 
</g><path d="M5790 3690 L5800 3700" /> 
<path d="M5800 3700 L5800 3700" /> 
<g style = "stroke-linecap:round;" > 
<path d="M5800 3700 L5800 3700" /> 
</g></g>
<g style="fill:#A00000; fill-opacity:1.00; stroke:#A00000; stroke-opacity:1.00; stroke-linecap:round; stroke-linejoin:round; stroke-width:6" 
   transform="translate(0.00 0.00) scale(1.00 1.00)">
<polygon style="fill-rule:evenodd; " 
points="5790,3690
5790,3690
5770,3630
5730,3670
5790,3690
" /> 
<path d="M5800 3700 L5800 3800" /> 
</g>
<g style="fill:#00A0A0; fill-opacity:0.0; stroke:#00A0A0; stroke-opacity:1.00; stroke-linecap:round; stroke-linejoin:round; stroke-width:6" 
   transform="translate(0.00 0.00) scale(1.00 1.00)">
<path d="M5765 3758 L5765 3745" /> 
<g style = "stroke-linecap:round;" > 
<path d="M5765 3745 L5765 3745" /> 
</g><path d="M5786 3739 L5786 3758" /> 
<path d="M5786 3758 L5746 3758" /> 
<path d="M5746 3758 L5746 3739" /> 
<g style = "stroke-linecap:round;" > 
<path d="M5746 3739 L5746 3739" /> 
</g></g>
<g style="fill:#A00000; fill-opacity:0.0; stroke:#A00000; stroke-opacity:1.00; stroke-linecap:round; stroke-linejoin:round; stroke-width:6" 
   transform="translate(0.00 0.00) scale(1.00 1.00)">
<path d="M5846 3739 L5846 3761" /> 
<g style = "stroke-linecap:round;" > 
<path d="M5846 3761 L5846 3761" /> 
</g><path d="M5846 3750 L5806 3750" /> 
<path d="M5806 3750 L5812 3754" /> 
<path d="M5812 3754 L5816 3758" /> 
<path d="M5816 3758 L5818 3761" /> 
<g style = "stroke-linecap:round;" > 
<path d="M5818 3761 L5818 3761" /> 
</g><path d="M5700 3600 L5500 3600" /> 
</g>
<g style="fill:#00A0A0; fill-opacity:0.0; stroke:#00A0A0; stroke-opacity:1.00; stroke-linecap:round; stroke-linejoin:round; stroke-width:6" 
   transform="translate(0.00 0.00) scale(1.00 1.00)">
<path d="M5603 3565 L5609 3567" /> 
<path d="M5609 3567 L5610 3569" /> 
<path d="M5610 3569 L5612 3573" /> 
<path d="M5612 3573 L5612 3579" /> 
<path d="M5612 3579 L5610 3582" /> 
<path d="M5610 3582 L5609 3584" /> 
<path d="M5609 3584 L5605 3586" /> 
<path d="M5605 3586 L5590 3586" /> 
<path d="M5590 3586 L5590 3546" /> 
<path d="M5590 3546 L5603 3546" /> 
<path d="M5603 3546 L5607 3548" /> 
<path d="M5607 3548 L5609 3550" /> 
<path d="M5609 3550 L5610 3554" /> 
<path d="M5610 3554 L5610 3558" /> 
<path d="M5610 3558 L5609 3561" /> 
<path d="M5609 3561 L5607 3563" /> 
<path d="M5607 3563 L5603 3565" /> 
<path d="M5603 3565 L5590 3565" /> 
<g style = "stroke-linecap:round;" > 
<path d="M5590 3565 L5590 3565" /> 
</g></g>
<g style="fill:#A00000; fill-opacity:0.0; stroke:#A00000; stroke-opacity:1.00; stroke-linecap:round; stroke-linejoin:round; stroke-width:6" 
   transform="translate(0.00 0.00) scale(1.00 1.00)">
<path d="M5589 3610 L5591 3608" /> 
<path d="M5591 3608 L5594 3606" /> 
<path d="M5594 3606 L5604 3606" /> 
<path d="M5604 3606 L5608 3608" /> 
<path d="M5608 3608 L5610 3610" /> 
<path d="M5610 3610 L5611 3614" /> 
<path d="M5611 3614 L5611 3618" /> 
<path d="M5611 3618 L5610 3623" /> 
<path d="M5610 3623 L5587 3646" /> 
<path d="M5587 3646 L5611 3646" /> 
<g style = "stroke-linecap:round;" > 
<path d="M5611 3646 L5611 3646" /> 
</g><path d="M5800 3500 L5800 3400" /> 
</g>
<g style="fill:#00A0A0; fill-opacity:0.0; stroke:#00A0A0; stroke-opacity:1.00; stroke-linecap:round; stroke-linejoin:round; stroke-width:6" 
   transform="translate(0.00 0.00) scale(1.00 1.00)">
<path d="M5782 3438 L5784 3440" /> 
<path d="M5784 3440 L5786 3445" /> 
<path d="M5786 3445 L5786 3449" /> 
<path d="M5786 3449 L5784 3455" /> 
<path d="M5784 3455 L5780 3459" /> 
<path d="M5780 3459 L5777 3460" /> 
<path d="M5777 3460 L5769 3462" /> 
<path d="M5769 3462 L5763 3462" /> 
<path d="M5763 3462 L5756 3460" /> 
<path d="M5756 3460 L5752 3459" /> 
<path d="M5752 3459 L5748 3455" /> 
<path d="M5748 3455 L5746 3449" /> 
<path d="M5746 3449 L5746 3445" /> 
<path d="M5746 3445 L5748 3440" /> 
<path d="M5748 3440 L5750 3438" /> 
<g style = "stroke-linecap:round;" > 
<path d="M5750 3438 L5750 3438" /> 
</g></g>
<g style="fill:#A00000; fill-opacity:0.0; stroke:#A00000; stroke-opacity:1.00; stroke-linecap:round; stroke-linejoin:round; stroke-width:6" 
   transform="translate(0.00 0.00) scale(1.00 1.00)">
<path d="M5806 3463 L5806 3439" /> 
<path d="M5806 3439 L5821 3452" /> 
<path d="M5821 3452 L5821 3446" /> 
<path d="M5821 3446 L5823 3442" /> 
<path d="M5823 3442 L5825 3440" /> 
<path d="M5825 3440 L5829 3439" /> 
<path d="M5829 3439 L5839 3439" /> 
<path d="M5839 3439 L5842 3440" /> 
<path d="M5842 3440 L5844 3442" /> 
<path d="M5844 3442 L5846 3446" /> 
<path d="M5846 3446 L5846 3458" /> 
<path d="M5846 3458 L5844 3461" /> 
<path d="M5844 3461 L5842 3463" /> 
<g style = "stroke-linecap:round;" > 
<path d="M5842 3463 L5842 3463" /> 
</g></g>
<g style="fill:#00A0A0; fill-opacity:0.0; stroke:#00A0A0; stroke-opacity:1.00; stroke-linecap:round; stroke-linejoin:round; stroke-width:6" 
   transform="translate(0.00 0.00) scale(1.00 1.00)">
<path d="M5597 3772 L5592 3770" /> 
<path d="M5592 3770 L5588 3765" /> 
<path d="M5588 3765 L5581 3758" /> 
<path d="M5581 3758 L5576 3755" /> 
<path d="M5576 3755 L5571 3755" /> 
<g style = "stroke-linecap:round;" > 
<path d="M5571 3755 L5571 3755" /> 
</g><path d="M5573 3767 L5569 3765" /> 
<path d="M5569 3765 L5564 3760" /> 
<path d="M5564 3760 L5562 3751" /> 
<path d="M5562 3751 L5562 3734" /> 
<path d="M5562 3734 L5564 3724" /> 
<path d="M5564 3724 L5569 3720" /> 
<path d="M5569 3720 L5573 3717" /> 
<path d="M5573 3717 L5583 3717" /> 
<path d="M5583 3717 L5588 3720" /> 
<path d="M5588 3720 L5592 3724" /> 
<path d="M5592 3724 L5595 3734" /> 
<path d="M5595 3734 L5595 3751" /> 
<path d="M5595 3751 L5592 3760" /> 
<path d="M5592 3760 L5588 3765" /> 
<path d="M5588 3765 L5583 3767" /> 
<path d="M5583 3767 L5573 3767" /> 
<path d="M5642 3767 L5614 3767" /> 
<g style = "stroke-linecap:round;" > 
<path d="M5614 3767 L5614 3767" /> 
</g><path d="M5628 3767 L5628 3717" /> 
<path d="M5628 3717 L5623 3724" /> 
<path d="M5623 3724 L5618 3729" /> 
<path d="M5618 3729 L5614 3732" /> 
<g style = "stroke-linecap:round;" > 
<path d="M5614 3732 L5614 3732" /> 
</g><path d="M5666 3767 L5676 3767" /> 
<path d="M5676 3767 L5681 3765" /> 
<path d="M5681 3765 L5683 3762" /> 
<path d="M5683 3762 L5688 3755" /> 
<path d="M5688 3755 L5690 3746" /> 
<path d="M5690 3746 L5690 3727" /> 
<path d="M5690 3727 L5688 3722" /> 
<path d="M5688 3722 L5685 3720" /> 
<path d="M5685 3720 L5681 3717" /> 
<path d="M5681 3717 L5671 3717" /> 
<path d="M5671 3717 L5666 3720" /> 
<path d="M5666 3720 L5664 3722" /> 
<path d="M5664 3722 L5662 3727" /> 
<path d="M5662 3727 L5662 3739" /> 
<path d="M5662 3739 L5664 3743" /> 
<path d="M5664 3743 L5666 3746" /> 
<path d="M5666 3746 L5671 3748" /> 
<path d="M5671 3748 L5681 3748" /> 
<path d="M5681 3748 L5685 3746" /> 
<path d="M5685 3746 L5688 3743" /> 
<path d="M5688 3743 L5690 3739" /> 
<g style = "stroke-linecap:round;" > 
<path d="M5690 3739 L5690 3739" /> 
</g><path d="M5480 3467 L5480 3417" /> 
<g style = "stroke-linecap:round;" > 
<path d="M5480 3417 L5480 3417" /> 
</g><path d="M5480 3436 L5485 3434" /> 
<path d="M5485 3434 L5494 3434" /> 
<path d="M5494 3434 L5499 3436" /> 
<path d="M5499 3436 L5501 3439" /> 
<path d="M5501 3439 L5504 3443" /> 
<path d="M5504 3443 L5504 3458" /> 
<path d="M5504 3458 L5501 3462" /> 
<path d="M5501 3462 L5499 3465" /> 
<path d="M5499 3465 L5494 3467" /> 
<path d="M5494 3467 L5485 3467" /> 
<path d="M5485 3467 L5480 3465" /> 
<g style = "stroke-linecap:round;" > 
<path d="M5480 3465 L5480 3465" /> 
</g><path d="M5546 3465 L5542 3467" /> 
<path d="M5542 3467 L5532 3467" /> 
<path d="M5532 3467 L5527 3465" /> 
<path d="M5527 3465 L5525 3462" /> 
<path d="M5525 3462 L5523 3458" /> 
<path d="M5523 3458 L5523 3443" /> 
<path d="M5523 3443 L5525 3439" /> 
<path d="M5525 3439 L5527 3436" /> 
<path d="M5527 3436 L5532 3434" /> 
<path d="M5532 3434 L5542 3434" /> 
<path d="M5542 3434 L5546 3436" /> 
<g style = "stroke-linecap:round;" > 
<path d="M5546 3436 L5546 3436" /> 
</g><path d="M5575 3439 L5570 3436" /> 
<path d="M5570 3436 L5568 3434" /> 
<path d="M5568 3434 L5566 3429" /> 
<path d="M5566 3429 L5566 3427" /> 
<path d="M5566 3427 L5568 3422" /> 
<path d="M5568 3422 L5570 3420" /> 
<path d="M5570 3420 L5575 3417" /> 
<path d="M5575 3417 L5585 3417" /> 
<path d="M5585 3417 L5589 3420" /> 
<path d="M5589 3420 L5592 3422" /> 
<path d="M5592 3422 L5594 3427" /> 
<path d="M5594 3427 L5594 3429" /> 
<path d="M5594 3429 L5592 3434" /> 
<path d="M5592 3434 L5589 3436" /> 
<path d="M5589 3436 L5585 3439" /> 
<path d="M5585 3439 L5575 3439" /> 
<path d="M5575 3439 L5570 3441" /> 
<path d="M5570 3441 L5568 3443" /> 
<path d="M5568 3443 L5566 3448" /> 
<path d="M5566 3448 L5566 3458" /> 
<path d="M5566 3458 L5568 3462" /> 
<path d="M5568 3462 L5570 3465" /> 
<path d="M5570 3465 L5575 3467" /> 
<path d="M5575 3467 L5585 3467" /> 
<path d="M5585 3467 L5589 3465" /> 
<path d="M5589 3465 L5592 3462" /> 
<path d="M5592 3462 L5594 3458" /> 
<path d="M5594 3458 L5594 3448" /> 
<path d="M5594 3448 L5592 3443" /> 
<path d="M5592 3443 L5589 3441" /> 
<path d="M5589 3441 L5585 3439" /> 
<g style = "stroke-linecap:round;" > 
<path d="M5585 3439 L5585 3439" /> 
</g><path d="M5637 3434 L5637 3467" /> 
<g style = "stroke-linecap:round;" > 
<path d="M5637 3467 L5637 3467" /> 
</g><path d="M5625 3415 L5614 3451" /> 
<path d="M5614 3451 L5644 3451" /> 
<g style = "stroke-linecap:round;" > 
<path d="M5644 3451 L5644 3451" /> 
</g><path d="M5659 3417 L5692 3417" /> 
<path d="M5692 3417 L5671 3467" /> 
<g style = "stroke-linecap:round;" > 
<path d="M5671 3467 L5671 3467" /> 
</g></g>
<g style="fill:#000000; fill-opacity:0.0; stroke:#A00000; stroke-opacity:1.00; stroke-linecap:round; stroke-linejoin:round; stroke-width:6" 
   transform="translate(0.00 0.00) scale(1.00 1.00)">
<polygon style="fill-rule:evenodd; " 
points="400,400
400,400
400,7867
11300,7867
11300,400
" /> 
<polygon style="fill-rule:evenodd; " 
points="470,470
470,470
470,7797
11230,7797
11230,470
" /> 
<path d="M2580 400 L2580 470" /> 
</g>
<g style="fill:#A00000; fill-opacity:0.0; stroke:#A00000; stroke-opacity:1.00; stroke-linecap:round; stroke-linejoin:round; stroke-width:6" 
   transform="translate(0.00 0.00) scale(1.00 1.00)">
<path d="M1504 455 L1476 455" /> 
<g style = "stroke-linecap:round;" > 
<path d="M1476 455 L1476 455" /> 
</g><path d="M1490 455 L1490 405" /> 
<path d="M1490 405 L1485 412" /> 
<path d="M1485 412 L1480 417" /> 
<path d="M1480 417 L1476 420" /> 
<g style = "stroke-linecap:round;" > 
<path d="M1476 420 L1476 420" /> 
</g><path d="M2580 7867 L2580 7797" /> 
<path d="M1504 7852 L1476 7852" /> 
<g style = "stroke-linecap:round;" > 
<path d="M1476 7852 L1476 7852" /> 
</g><path d="M1490 7852 L1490 7802" /> 
<path d="M1490 7802 L1485 7809" /> 
<path d="M1485 7809 L1480 7814" /> 
<path d="M1480 7814 L1476 7817" /> 
<g style = "stroke-linecap:round;" > 
<path d="M1476 7817 L1476 7817" /> 
</g><path d="M4760 400 L4760 470" /> 
<path d="M3656 410 L3658 408" /> 
<path d="M3658 408 L3663 405" /> 
<path d="M3663 405 L3675 405" /> 
<path d="M3675 405 L3679 408" /> 
<path d="M3679 408 L3682 410" /> 
<path d="M3682 410 L3684 415" /> 
<path d="M3684 415 L3684 420" /> 
<path d="M3684 420 L3682 427" /> 
<path d="M3682 427 L3653 455" /> 
<path d="M3653 455 L3684 455" /> 
<g style = "stroke-linecap:round;" > 
<path d="M3684 455 L3684 455" /> 
</g><path d="M4760 7867 L4760 7797" /> 
<path d="M3656 7807 L3658 7805" /> 
<path d="M3658 7805 L3663 7802" /> 
<path d="M3663 7802 L3675 7802" /> 
<path d="M3675 7802 L3679 7805" /> 
<path d="M3679 7805 L3682 7807" /> 
<path d="M3682 7807 L3684 7812" /> 
<path d="M3684 7812 L3684 7817" /> 
<path d="M3684 7817 L3682 7824" /> 
<path d="M3682 7824 L3653 7852" /> 
<path d="M3653 7852 L3684 7852" /> 
<g style = "stroke-linecap:round;" > 
<path d="M3684 7852 L3684 7852" /> 
</g><path d="M6940 400 L6940 470" /> 
<path d="M5833 405 L5864 405" /> 
<path d="M5864 405 L5847 424" /> 
<path d="M5847 424 L5855 424" /> 
<path d="M5855 424 L5859 427" /> 
<path d="M5859 427 L5862 429" /> 
<path d="M5862 429 L5864 434" /> 
<path d="M5864 434 L5864 446" /> 
<path d="M5864 446 L5862 450" /> 
<path d="M5862 450 L5859 453" /> 
<path d="M5859 453 L5855 455" /> 
<path d="M5855 455 L5840 455" /> 
<path d="M5840 455 L5836 453" /> 
<path d="M5836 453 L5833 450" /> 
<g style = "stroke-linecap:round;" > 
<path d="M5833 450 L5833 450" /> 
</g><path d="M6940 7867 L6940 7797" /> 
<path d="M5833 7802 L5864 7802" /> 
<path d="M5864 7802 L5847 7821" /> 
<path d="M5847 7821 L5855 7821" /> 
<path d="M5855 7821 L5859 7824" /> 
<path d="M5859 7824 L5862 7826" /> 
<path d="M5862 7826 L5864 7831" /> 
<path d="M5864 7831 L5864 7843" /> 
<path d="M5864 7843 L5862 7847" /> 
<path d="M5862 7847 L5859 7850" /> 
<path d="M5859 7850 L5855 7852" /> 
<path d="M5855 7852 L5840 7852" /> 
<path d="M5840 7852 L5836 7850" /> 
<path d="M5836 7850 L5833 7847" /> 
<g style = "stroke-linecap:round;" > 
<path d="M5833 7847 L5833 7847" /> 
</g><path d="M9120 400 L9120 470" /> 
<path d="M8039 422 L8039 455" /> 
<g style = "stroke-linecap:round;" > 
<path d="M8039 455 L8039 455" /> 
</g><path d="M8027 403 L8016 439" /> 
<path d="M8016 439 L8046 439" /> 
<g style = "stroke-linecap:round;" > 
<path d="M8046 439 L8046 439" /> 
</g><path d="M9120 7867 L9120 7797" /> 
<path d="M8039 7819 L8039 7852" /> 
<g style = "stroke-linecap:round;" > 
<path d="M8039 7852 L8039 7852" /> 
</g><path d="M8027 7800 L8016 7836" /> 
<path d="M8016 7836 L8046 7836" /> 
<g style = "stroke-linecap:round;" > 
<path d="M8046 7836 L8046 7836" /> 
</g><path d="M10222 405 L10198 405" /> 
<path d="M10198 405 L10196 429" /> 
<path d="M10196 429 L10198 427" /> 
<path d="M10198 427 L10203 424" /> 
<path d="M10203 424 L10215 424" /> 
<path d="M10215 424 L10219 427" /> 
<path d="M10219 427 L10222 429" /> 
<path d="M10222 429 L10224 434" /> 
<path d="M10224 434 L10224 446" /> 
<path d="M10224 446 L10222 450" /> 
<path d="M10222 450 L10219 453" /> 
<path d="M10219 453 L10215 455" /> 
<path d="M10215 455 L10203 455" /> 
<path d="M10203 455 L10198 453" /> 
<path d="M10198 453 L10196 450" /> 
<g style = "stroke-linecap:round;" > 
<path d="M10196 450 L10196 450" /> 
</g><path d="M10222 7802 L10198 7802" /> 
<path d="M10198 7802 L10196 7826" /> 
<path d="M10196 7826 L10198 7824" /> 
<path d="M10198 7824 L10203 7821" /> 
<path d="M10203 7821 L10215 7821" /> 
<path d="M10215 7821 L10219 7824" /> 
<path d="M10219 7824 L10222 7826" /> 
<path d="M10222 7826 L10224 7831" /> 
<path d="M10224 7831 L10224 7843" /> 
<path d="M10224 7843 L10222 7847" /> 
<path d="M10222 7847 L10219 7850" /> 
<path d="M10219 7850 L10215 7852" /> 
<path d="M10215 7852 L10203 7852" /> 
<path d="M10203 7852 L10198 7850" /> 
<path d="M10198 7850 L10196 7847" /> 
<g style = "stroke-linecap:round;" > 
<path d="M10196 7847 L10196 7847" /> 
</g><path d="M400 2889 L470 2889" /> 
<path d="M424 1651 L447 1651" /> 
<g style = "stroke-linecap:round;" > 
<path d="M447 1651 L447 1651" /> 
</g><path d="M419 1665 L435 1615" /> 
<path d="M435 1615 L452 1665" /> 
<g style = "stroke-linecap:round;" > 
<path d="M452 1665 L452 1665" /> 
</g><path d="M11300 2889 L11230 2889" /> 
<path d="M11254 1805 L11277 1805" /> 
<g style = "stroke-linecap:round;" > 
<path d="M11277 1805 L11277 1805" /> 
</g><path d="M11249 1819 L11265 1769" /> 
<path d="M11265 1769 L11282 1819" /> 
<g style = "stroke-linecap:round;" > 
<path d="M11282 1819 L11282 1819" /> 
</g><path d="M400 5378 L470 5378" /> 
<path d="M439 4128 L446 4130" /> 
<path d="M446 4130 L448 4133" /> 
<path d="M448 4133 L450 4138" /> 
<path d="M450 4138 L450 4145" /> 
<path d="M450 4145 L448 4149" /> 
<path d="M448 4149 L446 4152" /> 
<path d="M446 4152 L441 4154" /> 
<path d="M441 4154 L422 4154" /> 
<path d="M422 4154 L422 4104" /> 
<path d="M422 4104 L439 4104" /> 
<path d="M439 4104 L443 4107" /> 
<path d="M443 4107 L446 4109" /> 
<path d="M446 4109 L448 4114" /> 
<path d="M448 4114 L448 4119" /> 
<path d="M448 4119 L446 4123" /> 
<path d="M446 4123 L443 4126" /> 
<path d="M443 4126 L439 4128" /> 
<path d="M439 4128 L422 4128" /> 
<g style = "stroke-linecap:round;" > 
<path d="M422 4128 L422 4128" /> 
</g><path d="M11300 5378 L11230 5378" /> 
<path d="M11269 4282 L11276 4284" /> 
<path d="M11276 4284 L11278 4287" /> 
<path d="M11278 4287 L11280 4292" /> 
<path d="M11280 4292 L11280 4299" /> 
<path d="M11280 4299 L11278 4303" /> 
<path d="M11278 4303 L11276 4306" /> 
<path d="M11276 4306 L11271 4308" /> 
<path d="M11271 4308 L11252 4308" /> 
<path d="M11252 4308 L11252 4258" /> 
<path d="M11252 4258 L11269 4258" /> 
<path d="M11269 4258 L11273 4261" /> 
<path d="M11273 4261 L11276 4263" /> 
<path d="M11276 4263 L11278 4268" /> 
<path d="M11278 4268 L11278 4273" /> 
<path d="M11278 4273 L11276 4277" /> 
<path d="M11276 4277 L11273 4280" /> 
<path d="M11273 4280 L11269 4282" /> 
<path d="M11269 4282 L11252 4282" /> 
<g style = "stroke-linecap:round;" > 
<path d="M11252 4282 L11252 4282" /> 
</g><path d="M450 6638 L448 6641" /> 
<path d="M448 6641 L441 6643" /> 
<path d="M441 6643 L436 6643" /> 
<path d="M436 6643 L429 6641" /> 
<path d="M429 6641 L424 6636" /> 
<path d="M424 6636 L422 6631" /> 
<path d="M422 6631 L420 6622" /> 
<path d="M420 6622 L420 6615" /> 
<path d="M420 6615 L422 6605" /> 
<path d="M422 6605 L424 6600" /> 
<path d="M424 6600 L429 6596" /> 
<path d="M429 6596 L436 6593" /> 
<path d="M436 6593 L441 6593" /> 
<path d="M441 6593 L448 6596" /> 
<path d="M448 6596 L450 6598" /> 
<g style = "stroke-linecap:round;" > 
<path d="M450 6598 L450 6598" /> 
</g><path d="M11280 6792 L11278 6795" /> 
<path d="M11278 6795 L11271 6797" /> 
<path d="M11271 6797 L11266 6797" /> 
<path d="M11266 6797 L11259 6795" /> 
<path d="M11259 6795 L11254 6790" /> 
<path d="M11254 6790 L11252 6785" /> 
<path d="M11252 6785 L11250 6776" /> 
<path d="M11250 6776 L11250 6769" /> 
<path d="M11250 6769 L11252 6759" /> 
<path d="M11252 6759 L11254 6754" /> 
<path d="M11254 6754 L11259 6750" /> 
<path d="M11259 6750 L11266 6747" /> 
<path d="M11266 6747 L11271 6747" /> 
<path d="M11271 6747 L11278 6750" /> 
<path d="M11278 6750 L11280 6752" /> 
<g style = "stroke-linecap:round;" > 
<path d="M11280 6752 L11280 6752" /> 
</g><path d="M7944 7641 L7944 7581" /> 
<path d="M7944 7581 L7959 7581" /> 
<path d="M7959 7581 L7967 7584" /> 
<path d="M7967 7584 L7973 7590" /> 
<path d="M7973 7590 L7976 7596" /> 
<path d="M7976 7596 L7979 7607" /> 
<path d="M7979 7607 L7979 7616" /> 
<path d="M7979 7616 L7976 7627" /> 
<path d="M7976 7627 L7973 7633" /> 
<path d="M7973 7633 L7967 7638" /> 
<path d="M7967 7638 L7959 7641" /> 
<path d="M7959 7641 L7944 7641" /> 
<path d="M8030 7641 L8030 7610" /> 
<path d="M8030 7610 L8027 7604" /> 
<path d="M8027 7604 L8021 7601" /> 
<path d="M8021 7601 L8010 7601" /> 
<path d="M8010 7601 L8004 7604" /> 
<g style = "stroke-linecap:round;" > 
<path d="M8004 7604 L8004 7604" /> 
</g><path d="M8030 7638 L8024 7641" /> 
<path d="M8024 7641 L8010 7641" /> 
<path d="M8010 7641 L8004 7638" /> 
<path d="M8004 7638 L8001 7633" /> 
<path d="M8001 7633 L8001 7627" /> 
<path d="M8001 7627 L8004 7621" /> 
<path d="M8004 7621 L8010 7618" /> 
<path d="M8010 7618 L8024 7618" /> 
<path d="M8024 7618 L8030 7616" /> 
<g style = "stroke-linecap:round;" > 
<path d="M8030 7616 L8030 7616" /> 
</g><path d="M8050 7601 L8073 7601" /> 
<g style = "stroke-linecap:round;" > 
<path d="M8073 7601 L8073 7601" /> 
</g><path d="M8058 7581 L8058 7633" /> 
<path d="M8058 7633 L8061 7638" /> 
<path d="M8061 7638 L8067 7641" /> 
<path d="M8067 7641 L8073 7641" /> 
<g style = "stroke-linecap:round;" > 
<path d="M8073 7641 L8073 7641" /> 
</g><path d="M8115 7638 L8109 7641" /> 
<path d="M8109 7641 L8098 7641" /> 
<path d="M8098 7641 L8092 7638" /> 
<path d="M8092 7638 L8089 7633" /> 
<path d="M8089 7633 L8089 7610" /> 
<path d="M8089 7610 L8092 7604" /> 
<path d="M8092 7604 L8098 7601" /> 
<path d="M8098 7601 L8109 7601" /> 
<path d="M8109 7601 L8115 7604" /> 
<path d="M8115 7604 L8118 7610" /> 
<path d="M8118 7610 L8118 7616" /> 
<path d="M8118 7616 L8089 7621" /> 
<g style = "stroke-linecap:round;" > 
<path d="M8089 7621 L8089 7621" /> 
</g><path d="M8143 7636 L8146 7638" /> 
<path d="M8146 7638 L8143 7641" /> 
<path d="M8143 7641 L8140 7638" /> 
<path d="M8140 7638 L8143 7636" /> 
<path d="M8143 7636 L8143 7641" /> 
<g style = "stroke-linecap:round;" > 
<path d="M8143 7641 L8143 7641" /> 
</g><path d="M8143 7604 L8146 7607" /> 
<path d="M8146 7607 L8143 7610" /> 
<path d="M8143 7610 L8140 7607" /> 
<path d="M8140 7607 L8143 7604" /> 
<path d="M8143 7604 L8143 7610" /> 
<g style = "stroke-linecap:round;" > 
<path d="M8143 7610 L8143 7610" /> 
</g><path d="M8215 7587 L8218 7584" /> 
<path d="M8218 7584 L8224 7581" /> 
<path d="M8224 7581 L8238 7581" /> 
<path d="M8238 7581 L8244 7584" /> 
<path d="M8244 7584 L8247 7587" /> 
<path d="M8247 7587 L8250 7593" /> 
<path d="M8250 7593 L8250 7598" /> 
<path d="M8250 7598 L8247 7607" /> 
<path d="M8247 7607 L8213 7641" /> 
<path d="M8213 7641 L8250 7641" /> 
<g style = "stroke-linecap:round;" > 
<path d="M8250 7641 L8250 7641" /> 
</g><path d="M8287 7581 L8292 7581" /> 
<path d="M8292 7581 L8298 7584" /> 
<path d="M8298 7584 L8301 7587" /> 
<path d="M8301 7587 L8304 7593" /> 
<path d="M8304 7593 L8307 7604" /> 
<path d="M8307 7604 L8307 7618" /> 
<path d="M8307 7618 L8304 7630" /> 
<path d="M8304 7630 L8301 7636" /> 
<path d="M8301 7636 L8298 7638" /> 
<path d="M8298 7638 L8292 7641" /> 
<path d="M8292 7641 L8287 7641" /> 
<path d="M8287 7641 L8281 7638" /> 
<path d="M8281 7638 L8278 7636" /> 
<path d="M8278 7636 L8275 7630" /> 
<path d="M8275 7630 L8272 7618" /> 
<path d="M8272 7618 L8272 7604" /> 
<path d="M8272 7604 L8275 7593" /> 
<path d="M8275 7593 L8278 7587" /> 
<path d="M8278 7587 L8281 7584" /> 
<path d="M8281 7584 L8287 7581" /> 
<path d="M8378 7601 L8378 7653" /> 
<path d="M8378 7653 L8375 7658" /> 
<path d="M8375 7658 L8370 7661" /> 
<path d="M8370 7661 L8367 7661" /> 
<g style = "stroke-linecap:round;" > 
<path d="M8367 7661 L8367 7661" /> 
</g><path d="M8378 7581 L8375 7584" /> 
<path d="M8375 7584 L8378 7587" /> 
<path d="M8378 7587 L8381 7584" /> 
<path d="M8381 7584 L8378 7581" /> 
<path d="M8378 7581 L8378 7587" /> 
<g style = "stroke-linecap:round;" > 
<path d="M8378 7587 L8378 7587" /> 
</g><path d="M8433 7601 L8433 7641" /> 
<g style = "stroke-linecap:round;" > 
<path d="M8433 7641 L8433 7641" /> 
</g><path d="M8407 7601 L8407 7633" /> 
<path d="M8407 7633 L8410 7638" /> 
<path d="M8410 7638 L8416 7641" /> 
<path d="M8416 7641 L8424 7641" /> 
<path d="M8424 7641 L8430 7638" /> 
<path d="M8430 7638 L8433 7636" /> 
<g style = "stroke-linecap:round;" > 
<path d="M8433 7636 L8433 7636" /> 
</g><path d="M8461 7601 L8461 7641" /> 
<g style = "stroke-linecap:round;" > 
<path d="M8461 7641 L8461 7641" /> 
</g><path d="M8461 7607 L8464 7604" /> 
<path d="M8464 7604 L8470 7601" /> 
<path d="M8470 7601 L8478 7601" /> 
<path d="M8478 7601 L8484 7604" /> 
<path d="M8484 7604 L8487 7610" /> 
<path d="M8487 7610 L8487 7641" /> 
<g style = "stroke-linecap:round;" > 
<path d="M8487 7641 L8487 7641" /> 
</g><path d="M8558 7587 L8561 7584" /> 
<path d="M8561 7584 L8567 7581" /> 
<path d="M8567 7581 L8581 7581" /> 
<path d="M8581 7581 L8587 7584" /> 
<path d="M8587 7584 L8590 7587" /> 
<path d="M8590 7587 L8593 7593" /> 
<path d="M8593 7593 L8593 7598" /> 
<path d="M8593 7598 L8590 7607" /> 
<path d="M8590 7607 L8556 7641" /> 
<path d="M8556 7641 L8593 7641" /> 
<g style = "stroke-linecap:round;" > 
<path d="M8593 7641 L8593 7641" /> 
</g><path d="M8630 7581 L8635 7581" /> 
<path d="M8635 7581 L8641 7584" /> 
<path d="M8641 7584 L8644 7587" /> 
<path d="M8644 7587 L8647 7593" /> 
<path d="M8647 7593 L8650 7604" /> 
<path d="M8650 7604 L8650 7618" /> 
<path d="M8650 7618 L8647 7630" /> 
<path d="M8647 7630 L8644 7636" /> 
<path d="M8644 7636 L8641 7638" /> 
<path d="M8641 7638 L8635 7641" /> 
<path d="M8635 7641 L8630 7641" /> 
<path d="M8630 7641 L8624 7638" /> 
<path d="M8624 7638 L8621 7636" /> 
<path d="M8621 7636 L8618 7630" /> 
<path d="M8618 7630 L8615 7618" /> 
<path d="M8615 7618 L8615 7604" /> 
<path d="M8615 7604 L8618 7593" /> 
<path d="M8618 7593 L8621 7587" /> 
<path d="M8621 7587 L8624 7584" /> 
<path d="M8624 7584 L8630 7581" /> 
<path d="M8707 7641 L8672 7641" /> 
<g style = "stroke-linecap:round;" > 
<path d="M8672 7641 L8672 7641" /> 
</g><path d="M8690 7641 L8690 7581" /> 
<path d="M8690 7581 L8684 7590" /> 
<path d="M8684 7590 L8678 7596" /> 
<path d="M8678 7596 L8672 7598" /> 
<g style = "stroke-linecap:round;" > 
<path d="M8672 7598 L8672 7598" /> 
</g><path d="M8729 7587 L8732 7584" /> 
<path d="M8732 7584 L8738 7581" /> 
<path d="M8738 7581 L8752 7581" /> 
<path d="M8752 7581 L8758 7584" /> 
<path d="M8758 7584 L8761 7587" /> 
<path d="M8761 7587 L8764 7593" /> 
<path d="M8764 7593 L8764 7598" /> 
<path d="M8764 7598 L8761 7607" /> 
<path d="M8761 7607 L8727 7641" /> 
<path d="M8727 7641 L8764 7641" /> 
<g style = "stroke-linecap:round;" > 
<path d="M8764 7641 L8764 7641" /> 
</g><path d="M7104 7761 L7104 7701" /> 
<g style = "stroke-linecap:round;" > 
<path d="M7104 7701 L7104 7701" /> 
</g><path d="M7139 7761 L7113 7727" /> 
<g style = "stroke-linecap:round;" > 
<path d="M7113 7727 L7113 7727" /> 
</g><path d="M7139 7701 L7104 7736" /> 
<g style = "stroke-linecap:round;" > 
<path d="M7104 7736 L7104 7736" /> 
</g><path d="M7164 7761 L7164 7721" /> 
<g style = "stroke-linecap:round;" > 
<path d="M7164 7721 L7164 7721" /> 
</g><path d="M7164 7701 L7161 7704" /> 
<path d="M7161 7704 L7164 7707" /> 
<path d="M7164 7707 L7167 7704" /> 
<path d="M7167 7704 L7164 7701" /> 
<path d="M7164 7701 L7164 7707" /> 
<g style = "stroke-linecap:round;" > 
<path d="M7164 7707 L7164 7707" /> 
</g><path d="M7228 7756 L7225 7758" /> 
<path d="M7225 7758 L7216 7761" /> 
<path d="M7216 7761 L7210 7761" /> 
<path d="M7210 7761 L7202 7758" /> 
<path d="M7202 7758 L7196 7753" /> 
<path d="M7196 7753 L7193 7747" /> 
<path d="M7193 7747 L7190 7736" /> 
<path d="M7190 7736 L7190 7727" /> 
<path d="M7190 7727 L7193 7716" /> 
<path d="M7193 7716 L7196 7710" /> 
<path d="M7196 7710 L7202 7704" /> 
<path d="M7202 7704 L7210 7701" /> 
<path d="M7210 7701 L7216 7701" /> 
<path d="M7216 7701 L7225 7704" /> 
<path d="M7225 7704 L7228 7707" /> 
<g style = "stroke-linecap:round;" > 
<path d="M7228 7707 L7228 7707" /> 
</g><path d="M7279 7761 L7279 7730" /> 
<path d="M7279 7730 L7276 7724" /> 
<path d="M7276 7724 L7270 7721" /> 
<path d="M7270 7721 L7259 7721" /> 
<path d="M7259 7721 L7253 7724" /> 
<g style = "stroke-linecap:round;" > 
<path d="M7253 7724 L7253 7724" /> 
</g><path d="M7279 7758 L7273 7761" /> 
<path d="M7273 7761 L7259 7761" /> 
<path d="M7259 7761 L7253 7758" /> 
<path d="M7253 7758 L7250 7753" /> 
<path d="M7250 7753 L7250 7747" /> 
<path d="M7250 7747 L7253 7741" /> 
<path d="M7253 7741 L7259 7738" /> 
<path d="M7259 7738 L7273 7738" /> 
<path d="M7273 7738 L7279 7736" /> 
<g style = "stroke-linecap:round;" > 
<path d="M7279 7736 L7279 7736" /> 
</g><path d="M7333 7761 L7333 7701" /> 
<g style = "stroke-linecap:round;" > 
<path d="M7333 7701 L7333 7701" /> 
</g><path d="M7333 7758 L7327 7761" /> 
<path d="M7327 7761 L7316 7761" /> 
<path d="M7316 7761 L7310 7758" /> 
<path d="M7310 7758 L7307 7756" /> 
<path d="M7307 7756 L7304 7750" /> 
<path d="M7304 7750 L7304 7733" /> 
<path d="M7304 7733 L7307 7727" /> 
<path d="M7307 7727 L7310 7724" /> 
<path d="M7310 7724 L7316 7721" /> 
<path d="M7316 7721 L7327 7721" /> 
<path d="M7327 7721 L7333 7724" /> 
<g style = "stroke-linecap:round;" > 
<path d="M7333 7724 L7333 7724" /> 
</g><path d="M7407 7730 L7427 7730" /> 
<g style = "stroke-linecap:round;" > 
<path d="M7427 7730 L7427 7730" /> 
</g><path d="M7436 7761 L7407 7761" /> 
<path d="M7407 7761 L7407 7701" /> 
<path d="M7407 7701 L7436 7701" /> 
<g style = "stroke-linecap:round;" > 
<path d="M7436 7701 L7436 7701" /> 
</g><path d="M7461 7756 L7464 7758" /> 
<path d="M7464 7758 L7461 7761" /> 
<path d="M7461 7761 L7458 7758" /> 
<path d="M7458 7758 L7461 7756" /> 
<path d="M7461 7756 L7461 7761" /> 
<g style = "stroke-linecap:round;" > 
<path d="M7461 7761 L7461 7761" /> 
</g><path d="M7490 7761 L7490 7701" /> 
<path d="M7490 7701 L7505 7701" /> 
<path d="M7505 7701 L7513 7704" /> 
<path d="M7513 7704 L7519 7710" /> 
<path d="M7519 7710 L7522 7716" /> 
<path d="M7522 7716 L7525 7727" /> 
<path d="M7525 7727 L7525 7736" /> 
<path d="M7525 7736 L7522 7747" /> 
<path d="M7522 7747 L7519 7753" /> 
<path d="M7519 7753 L7513 7758" /> 
<path d="M7513 7758 L7505 7761" /> 
<path d="M7505 7761 L7490 7761" /> 
<path d="M7550 7756 L7553 7758" /> 
<path d="M7553 7758 L7550 7761" /> 
<path d="M7550 7761 L7547 7758" /> 
<path d="M7547 7758 L7550 7756" /> 
<path d="M7550 7756 L7550 7761" /> 
<g style = "stroke-linecap:round;" > 
<path d="M7550 7761 L7550 7761" /> 
</g><path d="M7576 7744 L7605 7744" /> 
<g style = "stroke-linecap:round;" > 
<path d="M7605 7744 L7605 7744" /> 
</g><path d="M7571 7761 L7591 7701" /> 
<path d="M7591 7701 L7611 7761" /> 
<g style = "stroke-linecap:round;" > 
<path d="M7611 7761 L7611 7761" /> 
</g><path d="M7630 7756 L7633 7758" /> 
<path d="M7633 7758 L7630 7761" /> 
<path d="M7630 7761 L7627 7758" /> 
<path d="M7627 7758 L7630 7756" /> 
<path d="M7630 7756 L7630 7761" /> 
<g style = "stroke-linecap:round;" > 
<path d="M7630 7761 L7630 7761" /> 
</g><path d="M7774 7758 L7768 7761" /> 
<path d="M7768 7761 L7757 7761" /> 
<path d="M7757 7761 L7751 7758" /> 
<path d="M7751 7758 L7748 7753" /> 
<path d="M7748 7753 L7748 7730" /> 
<path d="M7748 7730 L7751 7724" /> 
<path d="M7751 7724 L7757 7721" /> 
<path d="M7757 7721 L7768 7721" /> 
<path d="M7768 7721 L7774 7724" /> 
<path d="M7774 7724 L7777 7730" /> 
<path d="M7777 7730 L7777 7736" /> 
<path d="M7777 7736 L7748 7741" /> 
<g style = "stroke-linecap:round;" > 
<path d="M7748 7741 L7748 7741" /> 
</g><path d="M7825 7758 L7819 7761" /> 
<path d="M7819 7761 L7808 7761" /> 
<path d="M7808 7761 L7802 7758" /> 
<path d="M7802 7758 L7799 7753" /> 
<path d="M7799 7753 L7799 7730" /> 
<path d="M7799 7730 L7802 7724" /> 
<path d="M7802 7724 L7808 7721" /> 
<path d="M7808 7721 L7819 7721" /> 
<path d="M7819 7721 L7825 7724" /> 
<path d="M7825 7724 L7828 7730" /> 
<path d="M7828 7730 L7828 7736" /> 
<path d="M7828 7736 L7799 7741" /> 
<g style = "stroke-linecap:round;" > 
<path d="M7799 7741 L7799 7741" /> 
</g><path d="M7850 7758 L7856 7761" /> 
<path d="M7856 7761 L7868 7761" /> 
<path d="M7868 7761 L7873 7758" /> 
<path d="M7873 7758 L7876 7753" /> 
<path d="M7876 7753 L7876 7750" /> 
<path d="M7876 7750 L7873 7744" /> 
<path d="M7873 7744 L7868 7741" /> 
<path d="M7868 7741 L7859 7741" /> 
<path d="M7859 7741 L7853 7738" /> 
<path d="M7853 7738 L7850 7733" /> 
<path d="M7850 7733 L7850 7730" /> 
<path d="M7850 7730 L7853 7724" /> 
<path d="M7853 7724 L7859 7721" /> 
<path d="M7859 7721 L7868 7721" /> 
<path d="M7868 7721 L7873 7724" /> 
<g style = "stroke-linecap:round;" > 
<path d="M7873 7724 L7873 7724" /> 
</g><path d="M7928 7758 L7922 7761" /> 
<path d="M7922 7761 L7911 7761" /> 
<path d="M7911 7761 L7905 7758" /> 
<path d="M7905 7758 L7902 7756" /> 
<path d="M7902 7756 L7899 7750" /> 
<path d="M7899 7750 L7899 7733" /> 
<path d="M7899 7733 L7902 7727" /> 
<path d="M7902 7727 L7905 7724" /> 
<path d="M7905 7724 L7911 7721" /> 
<path d="M7911 7721 L7922 7721" /> 
<path d="M7922 7721 L7928 7724" /> 
<g style = "stroke-linecap:round;" > 
<path d="M7928 7724 L7928 7724" /> 
</g><path d="M7953 7761 L7953 7701" /> 
<g style = "stroke-linecap:round;" > 
<path d="M7953 7701 L7953 7701" /> 
</g><path d="M7979 7761 L7979 7730" /> 
<path d="M7979 7730 L7976 7724" /> 
<path d="M7976 7724 L7970 7721" /> 
<path d="M7970 7721 L7962 7721" /> 
<path d="M7962 7721 L7956 7724" /> 
<path d="M7956 7724 L7953 7727" /> 
<g style = "stroke-linecap:round;" > 
<path d="M7953 7727 L7953 7727" /> 
</g><path d="M8030 7758 L8024 7761" /> 
<path d="M8024 7761 L8013 7761" /> 
<path d="M8013 7761 L8007 7758" /> 
<path d="M8007 7758 L8004 7753" /> 
<path d="M8004 7753 L8004 7730" /> 
<path d="M8004 7730 L8007 7724" /> 
<path d="M8007 7724 L8013 7721" /> 
<path d="M8013 7721 L8024 7721" /> 
<path d="M8024 7721 L8030 7724" /> 
<path d="M8030 7724 L8033 7730" /> 
<path d="M8033 7730 L8033 7736" /> 
<path d="M8033 7736 L8004 7741" /> 
<g style = "stroke-linecap:round;" > 
<path d="M8004 7741 L8004 7741" /> 
</g><path d="M8058 7761 L8058 7721" /> 
<g style = "stroke-linecap:round;" > 
<path d="M8058 7721 L8058 7721" /> 
</g><path d="M8058 7727 L8061 7724" /> 
<path d="M8061 7724 L8067 7721" /> 
<path d="M8067 7721 L8075 7721" /> 
<path d="M8075 7721 L8081 7724" /> 
<path d="M8081 7724 L8084 7730" /> 
<path d="M8084 7730 L8084 7761" /> 
<g style = "stroke-linecap:round;" > 
<path d="M8084 7761 L8084 7761" /> 
</g><path d="M8084 7730 L8087 7724" /> 
<path d="M8087 7724 L8093 7721" /> 
<path d="M8093 7721 L8101 7721" /> 
<path d="M8101 7721 L8107 7724" /> 
<path d="M8107 7724 L8110 7730" /> 
<path d="M8110 7730 L8110 7761" /> 
<g style = "stroke-linecap:round;" > 
<path d="M8110 7761 L8110 7761" /> 
</g><path d="M8164 7761 L8164 7730" /> 
<path d="M8164 7730 L8161 7724" /> 
<path d="M8161 7724 L8155 7721" /> 
<path d="M8155 7721 L8144 7721" /> 
<path d="M8144 7721 L8138 7724" /> 
<g style = "stroke-linecap:round;" > 
<path d="M8138 7724 L8138 7724" /> 
</g><path d="M8164 7758 L8158 7761" /> 
<path d="M8158 7761 L8144 7761" /> 
<path d="M8144 7761 L8138 7758" /> 
<path d="M8138 7758 L8135 7753" /> 
<path d="M8135 7753 L8135 7747" /> 
<path d="M8135 7747 L8138 7741" /> 
<path d="M8138 7741 L8144 7738" /> 
<path d="M8144 7738 L8158 7738" /> 
<path d="M8158 7738 L8164 7736" /> 
<g style = "stroke-linecap:round;" > 
<path d="M8164 7736 L8164 7736" /> 
</g><path d="M8255 7784 L8253 7781" /> 
<path d="M8253 7781 L8247 7773" /> 
<path d="M8247 7773 L8244 7767" /> 
<path d="M8244 7767 L8241 7758" /> 
<path d="M8241 7758 L8238 7744" /> 
<path d="M8238 7744 L8238 7733" /> 
<path d="M8238 7733 L8241 7718" /> 
<path d="M8241 7718 L8244 7710" /> 
<path d="M8244 7710 L8247 7704" /> 
<path d="M8247 7704 L8253 7696" /> 
<path d="M8253 7696 L8255 7693" /> 
<g style = "stroke-linecap:round;" > 
<path d="M8255 7693 L8255 7693" /> 
</g><path d="M8275 7707 L8278 7704" /> 
<path d="M8278 7704 L8284 7701" /> 
<path d="M8284 7701 L8298 7701" /> 
<path d="M8298 7701 L8304 7704" /> 
<path d="M8304 7704 L8307 7707" /> 
<path d="M8307 7707 L8310 7713" /> 
<path d="M8310 7713 L8310 7718" /> 
<path d="M8310 7718 L8307 7727" /> 
<path d="M8307 7727 L8273 7761" /> 
<path d="M8273 7761 L8310 7761" /> 
<g style = "stroke-linecap:round;" > 
<path d="M8310 7761 L8310 7761" /> 
</g><path d="M8347 7701 L8352 7701" /> 
<path d="M8352 7701 L8358 7704" /> 
<path d="M8358 7704 L8361 7707" /> 
<path d="M8361 7707 L8364 7713" /> 
<path d="M8364 7713 L8367 7724" /> 
<path d="M8367 7724 L8367 7738" /> 
<path d="M8367 7738 L8364 7750" /> 
<path d="M8364 7750 L8361 7756" /> 
<path d="M8361 7756 L8358 7758" /> 
<path d="M8358 7758 L8352 7761" /> 
<path d="M8352 7761 L8347 7761" /> 
<path d="M8347 7761 L8341 7758" /> 
<path d="M8341 7758 L8338 7756" /> 
<path d="M8338 7756 L8335 7750" /> 
<path d="M8335 7750 L8332 7738" /> 
<path d="M8332 7738 L8332 7724" /> 
<path d="M8332 7724 L8335 7713" /> 
<path d="M8335 7713 L8338 7707" /> 
<path d="M8338 7707 L8341 7704" /> 
<path d="M8341 7704 L8347 7701" /> 
<path d="M8424 7761 L8389 7761" /> 
<g style = "stroke-linecap:round;" > 
<path d="M8389 7761 L8389 7761" /> 
</g><path d="M8407 7761 L8407 7701" /> 
<path d="M8407 7701 L8401 7710" /> 
<path d="M8401 7710 L8395 7716" /> 
<path d="M8395 7716 L8389 7718" /> 
<g style = "stroke-linecap:round;" > 
<path d="M8389 7718 L8389 7718" /> 
</g><path d="M8446 7707 L8449 7704" /> 
<path d="M8449 7704 L8455 7701" /> 
<path d="M8455 7701 L8469 7701" /> 
<path d="M8469 7701 L8475 7704" /> 
<path d="M8475 7704 L8478 7707" /> 
<path d="M8478 7707 L8481 7713" /> 
<path d="M8481 7713 L8481 7718" /> 
<path d="M8481 7718 L8478 7727" /> 
<path d="M8478 7727 L8444 7761" /> 
<path d="M8444 7761 L8481 7761" /> 
<g style = "stroke-linecap:round;" > 
<path d="M8481 7761 L8481 7761" /> 
</g><path d="M8506 7738 L8552 7738" /> 
<g style = "stroke-linecap:round;" > 
<path d="M8552 7738 L8552 7738" /> 
</g><path d="M8592 7701 L8597 7701" /> 
<path d="M8597 7701 L8603 7704" /> 
<path d="M8603 7704 L8606 7707" /> 
<path d="M8606 7707 L8609 7713" /> 
<path d="M8609 7713 L8612 7724" /> 
<path d="M8612 7724 L8612 7738" /> 
<path d="M8612 7738 L8609 7750" /> 
<path d="M8609 7750 L8606 7756" /> 
<path d="M8606 7756 L8603 7758" /> 
<path d="M8603 7758 L8597 7761" /> 
<path d="M8597 7761 L8592 7761" /> 
<path d="M8592 7761 L8586 7758" /> 
<path d="M8586 7758 L8583 7756" /> 
<path d="M8583 7756 L8580 7750" /> 
<path d="M8580 7750 L8577 7738" /> 
<path d="M8577 7738 L8577 7724" /> 
<path d="M8577 7724 L8580 7713" /> 
<path d="M8580 7713 L8583 7707" /> 
<path d="M8583 7707 L8586 7704" /> 
<path d="M8586 7704 L8592 7701" /> 
<path d="M8669 7761 L8634 7761" /> 
<g style = "stroke-linecap:round;" > 
<path d="M8634 7761 L8634 7761" /> 
</g><path d="M8652 7761 L8652 7701" /> 
<path d="M8652 7701 L8646 7710" /> 
<path d="M8646 7710 L8640 7716" /> 
<path d="M8640 7716 L8634 7718" /> 
<g style = "stroke-linecap:round;" > 
<path d="M8634 7718 L8634 7718" /> 
</g><path d="M8694 7738 L8740 7738" /> 
<g style = "stroke-linecap:round;" > 
<path d="M8740 7738 L8740 7738" /> 
</g><path d="M8800 7761 L8765 7761" /> 
<g style = "stroke-linecap:round;" > 
<path d="M8765 7761 L8765 7761" /> 
</g><path d="M8783 7761 L8783 7701" /> 
<path d="M8783 7701 L8777 7710" /> 
<path d="M8777 7710 L8771 7716" /> 
<path d="M8771 7716 L8765 7718" /> 
<g style = "stroke-linecap:round;" > 
<path d="M8765 7718 L8765 7718" /> 
</g><path d="M8828 7761 L8840 7761" /> 
<path d="M8840 7761 L8845 7758" /> 
<path d="M8845 7758 L8848 7756" /> 
<path d="M8848 7756 L8854 7747" /> 
<path d="M8854 7747 L8857 7736" /> 
<path d="M8857 7736 L8857 7713" /> 
<path d="M8857 7713 L8854 7707" /> 
<path d="M8854 7707 L8851 7704" /> 
<path d="M8851 7704 L8845 7701" /> 
<path d="M8845 7701 L8834 7701" /> 
<path d="M8834 7701 L8828 7704" /> 
<path d="M8828 7704 L8825 7707" /> 
<path d="M8825 7707 L8822 7713" /> 
<path d="M8822 7713 L8822 7727" /> 
<path d="M8822 7727 L8825 7733" /> 
<path d="M8825 7733 L8828 7736" /> 
<path d="M8828 7736 L8834 7738" /> 
<path d="M8834 7738 L8845 7738" /> 
<path d="M8845 7738 L8851 7736" /> 
<path d="M8851 7736 L8854 7733" /> 
<path d="M8854 7733 L8857 7727" /> 
<g style = "stroke-linecap:round;" > 
<path d="M8857 7727 L8857 7727" /> 
</g><path d="M8948 7730 L8957 7733" /> 
<path d="M8957 7733 L8960 7736" /> 
<path d="M8960 7736 L8963 7741" /> 
<path d="M8963 7741 L8963 7750" /> 
<path d="M8963 7750 L8960 7756" /> 
<path d="M8960 7756 L8957 7758" /> 
<path d="M8957 7758 L8951 7761" /> 
<path d="M8951 7761 L8928 7761" /> 
<path d="M8928 7761 L8928 7701" /> 
<path d="M8928 7701 L8948 7701" /> 
<path d="M8948 7701 L8954 7704" /> 
<path d="M8954 7704 L8957 7707" /> 
<path d="M8957 7707 L8960 7713" /> 
<path d="M8960 7713 L8960 7718" /> 
<path d="M8960 7718 L8957 7724" /> 
<path d="M8957 7724 L8954 7727" /> 
<path d="M8954 7727 L8948 7730" /> 
<path d="M8948 7730 L8928 7730" /> 
<g style = "stroke-linecap:round;" > 
<path d="M8928 7730 L8928 7730" /> 
</g><path d="M8983 7701 L9023 7701" /> 
<path d="M9023 7701 L8983 7761" /> 
<path d="M8983 7761 L9023 7761" /> 
<g style = "stroke-linecap:round;" > 
<path d="M9023 7761 L9023 7761" /> 
</g><path d="M9080 7761 L9060 7733" /> 
<g style = "stroke-linecap:round;" > 
<path d="M9060 7733 L9060 7733" /> 
</g><path d="M9045 7761 L9045 7701" /> 
<path d="M9045 7701 L9068 7701" /> 
<path d="M9068 7701 L9074 7704" /> 
<path d="M9074 7704 L9077 7707" /> 
<path d="M9077 7707 L9080 7713" /> 
<path d="M9080 7713 L9080 7721" /> 
<path d="M9080 7721 L9077 7727" /> 
<path d="M9077 7727 L9074 7730" /> 
<path d="M9074 7730 L9068 7733" /> 
<path d="M9068 7733 L9045 7733" /> 
<g style = "stroke-linecap:round;" > 
<path d="M9045 7733 L9045 7733" /> 
</g><path d="M9146 7701 L9183 7701" /> 
<path d="M9183 7701 L9163 7724" /> 
<path d="M9163 7724 L9171 7724" /> 
<path d="M9171 7724 L9177 7727" /> 
<path d="M9177 7727 L9180 7730" /> 
<path d="M9180 7730 L9183 7736" /> 
<path d="M9183 7736 L9183 7750" /> 
<path d="M9183 7750 L9180 7756" /> 
<path d="M9180 7756 L9177 7758" /> 
<path d="M9177 7758 L9171 7761" /> 
<path d="M9171 7761 L9154 7761" /> 
<path d="M9154 7761 L9148 7758" /> 
<path d="M9148 7758 L9146 7756" /> 
<g style = "stroke-linecap:round;" > 
<path d="M9146 7756 L9146 7756" /> 
</g><path d="M9205 7707 L9208 7704" /> 
<path d="M9208 7704 L9214 7701" /> 
<path d="M9214 7701 L9228 7701" /> 
<path d="M9228 7701 L9234 7704" /> 
<path d="M9234 7704 L9237 7707" /> 
<path d="M9237 7707 L9240 7713" /> 
<path d="M9240 7713 L9240 7718" /> 
<path d="M9240 7718 L9237 7727" /> 
<path d="M9237 7727 L9203 7761" /> 
<path d="M9203 7761 L9240 7761" /> 
<g style = "stroke-linecap:round;" > 
<path d="M9240 7761 L9240 7761" /> 
</g><path d="M9294 7701 L9265 7701" /> 
<path d="M9265 7701 L9262 7730" /> 
<path d="M9262 7730 L9265 7727" /> 
<path d="M9265 7727 L9271 7724" /> 
<path d="M9271 7724 L9285 7724" /> 
<path d="M9285 7724 L9291 7727" /> 
<path d="M9291 7727 L9294 7730" /> 
<path d="M9294 7730 L9297 7736" /> 
<path d="M9297 7736 L9297 7750" /> 
<path d="M9297 7750 L9294 7756" /> 
<path d="M9294 7756 L9291 7758" /> 
<path d="M9291 7758 L9285 7761" /> 
<path d="M9285 7761 L9271 7761" /> 
<path d="M9271 7761 L9265 7758" /> 
<path d="M9265 7758 L9262 7756" /> 
<g style = "stroke-linecap:round;" > 
<path d="M9262 7756 L9262 7756" /> 
</g><path d="M9348 7701 L9337 7701" /> 
<path d="M9337 7701 L9331 7704" /> 
<path d="M9331 7704 L9328 7707" /> 
<path d="M9328 7707 L9322 7716" /> 
<path d="M9322 7716 L9319 7727" /> 
<path d="M9319 7727 L9319 7750" /> 
<path d="M9319 7750 L9322 7756" /> 
<path d="M9322 7756 L9325 7758" /> 
<path d="M9325 7758 L9331 7761" /> 
<path d="M9331 7761 L9342 7761" /> 
<path d="M9342 7761 L9348 7758" /> 
<path d="M9348 7758 L9351 7756" /> 
<path d="M9351 7756 L9354 7750" /> 
<path d="M9354 7750 L9354 7736" /> 
<path d="M9354 7736 L9351 7730" /> 
<path d="M9351 7730 L9348 7727" /> 
<path d="M9348 7727 L9342 7724" /> 
<path d="M9342 7724 L9331 7724" /> 
<path d="M9331 7724 L9325 7727" /> 
<path d="M9325 7727 L9322 7730" /> 
<path d="M9322 7730 L9319 7736" /> 
<g style = "stroke-linecap:round;" > 
<path d="M9319 7736 L9319 7736" /> 
</g><path d="M9374 7784 L9376 7781" /> 
<path d="M9376 7781 L9382 7773" /> 
<path d="M9382 7773 L9385 7767" /> 
<path d="M9385 7767 L9388 7758" /> 
<path d="M9388 7758 L9391 7744" /> 
<path d="M9391 7744 L9391 7733" /> 
<path d="M9391 7733 L9388 7718" /> 
<path d="M9388 7718 L9385 7710" /> 
<path d="M9385 7710 L9382 7704" /> 
<path d="M9382 7704 L9376 7696" /> 
<path d="M9376 7696 L9374 7693" /> 
<g style = "stroke-linecap:round;" > 
<path d="M9374 7693 L9374 7693" /> 
</g><path d="M9419 7738 L9465 7738" /> 
<g style = "stroke-linecap:round;" > 
<path d="M9465 7738 L9465 7738" /> 
</g><path d="M9490 7758 L9496 7761" /> 
<path d="M9496 7761 L9508 7761" /> 
<path d="M9508 7761 L9513 7758" /> 
<path d="M9513 7758 L9516 7753" /> 
<path d="M9516 7753 L9516 7750" /> 
<path d="M9516 7750 L9513 7744" /> 
<path d="M9513 7744 L9508 7741" /> 
<path d="M9508 7741 L9499 7741" /> 
<path d="M9499 7741 L9493 7738" /> 
<path d="M9493 7738 L9490 7733" /> 
<path d="M9490 7733 L9490 7730" /> 
<path d="M9490 7730 L9493 7724" /> 
<path d="M9493 7724 L9499 7721" /> 
<path d="M9499 7721 L9508 7721" /> 
<path d="M9508 7721 L9513 7724" /> 
<g style = "stroke-linecap:round;" > 
<path d="M9513 7724 L9513 7724" /> 
</g><path d="M9534 7721 L9557 7721" /> 
<g style = "stroke-linecap:round;" > 
<path d="M9557 7721 L9557 7721" /> 
</g><path d="M9542 7701 L9542 7753" /> 
<path d="M9542 7753 L9545 7758" /> 
<path d="M9545 7758 L9551 7761" /> 
<path d="M9551 7761 L9557 7761" /> 
<g style = "stroke-linecap:round;" > 
<path d="M9557 7761 L9557 7761" /> 
</g><path d="M9602 7761 L9602 7730" /> 
<path d="M9602 7730 L9599 7724" /> 
<path d="M9599 7724 L9593 7721" /> 
<path d="M9593 7721 L9582 7721" /> 
<path d="M9582 7721 L9576 7724" /> 
<g style = "stroke-linecap:round;" > 
<path d="M9576 7724 L9576 7724" /> 
</g><path d="M9602 7758 L9596 7761" /> 
<path d="M9596 7761 L9582 7761" /> 
<path d="M9582 7761 L9576 7758" /> 
<path d="M9576 7758 L9573 7753" /> 
<path d="M9573 7753 L9573 7747" /> 
<path d="M9573 7747 L9576 7741" /> 
<path d="M9576 7741 L9582 7738" /> 
<path d="M9582 7738 L9596 7738" /> 
<path d="M9596 7738 L9602 7736" /> 
<g style = "stroke-linecap:round;" > 
<path d="M9602 7736 L9602 7736" /> 
</g><path d="M9630 7761 L9630 7701" /> 
<g style = "stroke-linecap:round;" > 
<path d="M9630 7701 L9630 7701" /> 
</g><path d="M9630 7724 L9636 7721" /> 
<path d="M9636 7721 L9647 7721" /> 
<path d="M9647 7721 L9653 7724" /> 
<path d="M9653 7724 L9656 7727" /> 
<path d="M9656 7727 L9659 7733" /> 
<path d="M9659 7733 L9659 7750" /> 
<path d="M9659 7750 L9656 7756" /> 
<path d="M9656 7756 L9653 7758" /> 
<path d="M9653 7758 L9647 7761" /> 
<path d="M9647 7761 L9636 7761" /> 
<path d="M9636 7761 L9630 7758" /> 
<g style = "stroke-linecap:round;" > 
<path d="M9630 7758 L9630 7758" /> 
</g><path d="M9693 7761 L9687 7758" /> 
<path d="M9687 7758 L9684 7753" /> 
<path d="M9684 7753 L9684 7701" /> 
<g style = "stroke-linecap:round;" > 
<path d="M9684 7701 L9684 7701" /> 
</g><path d="M9738 7758 L9732 7761" /> 
<path d="M9732 7761 L9721 7761" /> 
<path d="M9721 7761 L9715 7758" /> 
<path d="M9715 7758 L9712 7753" /> 
<path d="M9712 7753 L9712 7730" /> 
<path d="M9712 7730 L9715 7724" /> 
<path d="M9715 7724 L9721 7721" /> 
<path d="M9721 7721 L9732 7721" /> 
<path d="M9732 7721 L9738 7724" /> 
<path d="M9738 7724 L9741 7730" /> 
<path d="M9741 7730 L9741 7736" /> 
<path d="M9741 7736 L9712 7741" /> 
<g style = "stroke-linecap:round;" > 
<path d="M9712 7741 L9712 7741" /> 
</g></g>
<g style="fill:#A00000; fill-opacity:0.0; stroke:#A00000; stroke-opacity:1.00; stroke-linecap:round; stroke-linejoin:round; stroke-width:12" 
   transform="translate(0.00 0.00) scale(1.00 1.00)">
<path d="M10459 7641 L10439 7613" /> 
<g style = "stroke-linecap:round;" > 
<path d="M10439 7613 L10439 7613" /> 
</g><path d="M10424 7641 L10424 7581" /> 
<path d="M10424 7581 L10447 7581" /> 
<path d="M10447 7581 L10453 7584" /> 
<path d="M10453 7584 L10456 7587" /> 
<path d="M10456 7587 L10459 7593" /> 
<path d="M10459 7593 L10459 7601" /> 
<path d="M10459 7601 L10456 7607" /> 
<path d="M10456 7607 L10453 7610" /> 
<path d="M10453 7610 L10447 7613" /> 
<path d="M10447 7613 L10424 7613" /> 
<g style = "stroke-linecap:round;" > 
<path d="M10424 7613 L10424 7613" /> 
</g><path d="M10507 7638 L10501 7641" /> 
<path d="M10501 7641 L10490 7641" /> 
<path d="M10490 7641 L10484 7638" /> 
<path d="M10484 7638 L10481 7633" /> 
<path d="M10481 7633 L10481 7610" /> 
<path d="M10481 7610 L10484 7604" /> 
<path d="M10484 7604 L10490 7601" /> 
<path d="M10490 7601 L10501 7601" /> 
<path d="M10501 7601 L10507 7604" /> 
<path d="M10507 7604 L10510 7610" /> 
<path d="M10510 7610 L10510 7616" /> 
<path d="M10510 7616 L10481 7621" /> 
<g style = "stroke-linecap:round;" > 
<path d="M10481 7621 L10481 7621" /> 
</g><path d="M10530 7601 L10544 7641" /> 
<path d="M10544 7641 L10558 7601" /> 
<g style = "stroke-linecap:round;" > 
<path d="M10558 7601 L10558 7601" /> 
</g><path d="M10581 7636 L10584 7638" /> 
<path d="M10584 7638 L10581 7641" /> 
<path d="M10581 7641 L10578 7638" /> 
<path d="M10578 7638 L10581 7636" /> 
<path d="M10581 7636 L10581 7641" /> 
<g style = "stroke-linecap:round;" > 
<path d="M10581 7641 L10581 7641" /> 
</g><path d="M10581 7604 L10584 7607" /> 
<path d="M10584 7607 L10581 7610" /> 
<path d="M10581 7610 L10578 7607" /> 
<path d="M10578 7607 L10581 7604" /> 
<path d="M10581 7604 L10581 7610" /> 
<g style = "stroke-linecap:round;" > 
<path d="M10581 7610 L10581 7610" /> 
</g></g>
<g style="fill:#A00000; fill-opacity:0.0; stroke:#A00000; stroke-opacity:1.00; stroke-linecap:round; stroke-linejoin:round; stroke-width:6" 
   transform="translate(0.00 0.00) scale(1.00 1.00)">
<path d="M7101 7638 L7110 7641" /> 
<path d="M7110 7641 L7124 7641" /> 
<path d="M7124 7641 L7130 7638" /> 
<path d="M7130 7638 L7133 7636" /> 
<path d="M7133 7636 L7136 7630" /> 
<path d="M7136 7630 L7136 7624" /> 
<path d="M7136 7624 L7133 7618" /> 
<path d="M7133 7618 L7130 7616" /> 
<path d="M7130 7616 L7124 7613" /> 
<path d="M7124 7613 L7113 7610" /> 
<path d="M7113 7610 L7107 7607" /> 
<path d="M7107 7607 L7104 7604" /> 
<path d="M7104 7604 L7101 7598" /> 
<path d="M7101 7598 L7101 7593" /> 
<path d="M7101 7593 L7104 7587" /> 
<path d="M7104 7587 L7107 7584" /> 
<path d="M7107 7584 L7113 7581" /> 
<path d="M7113 7581 L7127 7581" /> 
<path d="M7127 7581 L7136 7584" /> 
<g style = "stroke-linecap:round;" > 
<path d="M7136 7584 L7136 7584" /> 
</g><path d="M7161 7641 L7161 7601" /> 
<g style = "stroke-linecap:round;" > 
<path d="M7161 7601 L7161 7601" /> 
</g><path d="M7161 7581 L7158 7584" /> 
<path d="M7158 7584 L7161 7587" /> 
<path d="M7161 7587 L7164 7584" /> 
<path d="M7164 7584 L7161 7581" /> 
<path d="M7161 7581 L7161 7587" /> 
<g style = "stroke-linecap:round;" > 
<path d="M7161 7587 L7161 7587" /> 
</g><path d="M7185 7601 L7216 7601" /> 
<path d="M7216 7601 L7185 7641" /> 
<path d="M7185 7641 L7216 7641" /> 
<g style = "stroke-linecap:round;" > 
<path d="M7216 7641 L7216 7641" /> 
</g><path d="M7262 7638 L7256 7641" /> 
<path d="M7256 7641 L7245 7641" /> 
<path d="M7245 7641 L7239 7638" /> 
<path d="M7239 7638 L7236 7633" /> 
<path d="M7236 7633 L7236 7610" /> 
<path d="M7236 7610 L7239 7604" /> 
<path d="M7239 7604 L7245 7601" /> 
<path d="M7245 7601 L7256 7601" /> 
<path d="M7256 7601 L7262 7604" /> 
<path d="M7262 7604 L7265 7610" /> 
<path d="M7265 7610 L7265 7616" /> 
<path d="M7265 7616 L7236 7621" /> 
<g style = "stroke-linecap:round;" > 
<path d="M7236 7621 L7236 7621" /> 
</g><path d="M7290 7636 L7293 7638" /> 
<path d="M7293 7638 L7290 7641" /> 
<path d="M7290 7641 L7287 7638" /> 
<path d="M7287 7638 L7290 7636" /> 
<path d="M7290 7636 L7290 7641" /> 
<g style = "stroke-linecap:round;" > 
<path d="M7290 7641 L7290 7641" /> 
</g><path d="M7290 7604 L7293 7607" /> 
<path d="M7293 7607 L7290 7610" /> 
<path d="M7290 7610 L7287 7607" /> 
<path d="M7287 7607 L7290 7604" /> 
<path d="M7290 7604 L7290 7610" /> 
<g style = "stroke-linecap:round;" > 
<path d="M7290 7610 L7290 7610" /> 
</g><path d="M7362 7624 L7391 7624" /> 
<g style = "stroke-linecap:round;" > 
<path d="M7391 7624 L7391 7624" /> 
</g><path d="M7357 7641 L7377 7581" /> 
<path d="M7377 7581 L7397 7641" /> 
<g style = "stroke-linecap:round;" > 
<path d="M7397 7641 L7397 7641" /> 
</g><path d="M7442 7601 L7442 7641" /> 
<g style = "stroke-linecap:round;" > 
<path d="M7442 7641 L7442 7641" /> 
</g><path d="M7428 7578 L7413 7621" /> 
<path d="M7413 7621 L7451 7621" /> 
<g style = "stroke-linecap:round;" > 
<path d="M7451 7621 L7451 7621" /> 
</g><path d="M10424 7761 L10424 7701" /> 
<g style = "stroke-linecap:round;" > 
<path d="M10424 7701 L10424 7701" /> 
</g><path d="M10479 7761 L10479 7701" /> 
<g style = "stroke-linecap:round;" > 
<path d="M10479 7701 L10479 7701" /> 
</g><path d="M10479 7758 L10473 7761" /> 
<path d="M10473 7761 L10462 7761" /> 
<path d="M10462 7761 L10456 7758" /> 
<path d="M10456 7758 L10453 7756" /> 
<path d="M10453 7756 L10450 7750" /> 
<path d="M10450 7750 L10450 7733" /> 
<path d="M10450 7733 L10453 7727" /> 
<path d="M10453 7727 L10456 7724" /> 
<path d="M10456 7724 L10462 7721" /> 
<path d="M10462 7721 L10473 7721" /> 
<path d="M10473 7721 L10479 7724" /> 
<g style = "stroke-linecap:round;" > 
<path d="M10479 7724 L10479 7724" /> 
</g><path d="M10507 7756 L10510 7758" /> 
<path d="M10510 7758 L10507 7761" /> 
<path d="M10507 7761 L10504 7758" /> 
<path d="M10504 7758 L10507 7756" /> 
<path d="M10507 7756 L10507 7761" /> 
<g style = "stroke-linecap:round;" > 
<path d="M10507 7761 L10507 7761" /> 
</g><path d="M10507 7724 L10510 7727" /> 
<path d="M10510 7727 L10507 7730" /> 
<path d="M10507 7730 L10504 7727" /> 
<path d="M10504 7727 L10507 7724" /> 
<path d="M10507 7724 L10507 7730" /> 
<g style = "stroke-linecap:round;" > 
<path d="M10507 7730 L10507 7730" /> 
</g><path d="M10614 7761 L10579 7761" /> 
<g style = "stroke-linecap:round;" > 
<path d="M10579 7761 L10579 7761" /> 
</g><path d="M10597 7761 L10597 7701" /> 
<path d="M10597 7701 L10591 7710" /> 
<path d="M10591 7710 L10585 7716" /> 
<path d="M10585 7716 L10579 7718" /> 
<g style = "stroke-linecap:round;" > 
<path d="M10579 7718 L10579 7718" /> 
</g><path d="M10665 7701 L10654 7701" /> 
<path d="M10654 7701 L10648 7704" /> 
<path d="M10648 7704 L10645 7707" /> 
<path d="M10645 7707 L10639 7716" /> 
<path d="M10639 7716 L10636 7727" /> 
<path d="M10636 7727 L10636 7750" /> 
<path d="M10636 7750 L10639 7756" /> 
<path d="M10639 7756 L10642 7758" /> 
<path d="M10642 7758 L10648 7761" /> 
<path d="M10648 7761 L10659 7761" /> 
<path d="M10659 7761 L10665 7758" /> 
<path d="M10665 7758 L10668 7756" /> 
<path d="M10668 7756 L10671 7750" /> 
<path d="M10671 7750 L10671 7736" /> 
<path d="M10671 7736 L10668 7730" /> 
<path d="M10668 7730 L10665 7727" /> 
<path d="M10665 7727 L10659 7724" /> 
<path d="M10659 7724 L10648 7724" /> 
<path d="M10648 7724 L10642 7727" /> 
<path d="M10642 7727 L10639 7730" /> 
<path d="M10639 7730 L10636 7736" /> 
<g style = "stroke-linecap:round;" > 
<path d="M10636 7736 L10636 7736" /> 
</g><path d="M10739 7698 L10688 7776" /> 
<g style = "stroke-linecap:round;" > 
<path d="M10688 7776 L10688 7776" /> 
</g><path d="M10791 7761 L10756 7761" /> 
<g style = "stroke-linecap:round;" > 
<path d="M10756 7761 L10756 7761" /> 
</g><path d="M10774 7761 L10774 7701" /> 
<path d="M10774 7701 L10768 7710" /> 
<path d="M10768 7710 L10762 7716" /> 
<path d="M10762 7716 L10756 7718" /> 
<g style = "stroke-linecap:round;" > 
<path d="M10756 7718 L10756 7718" /> 
</g><path d="M10811 7701 L10851 7701" /> 
<path d="M10851 7701 L10825 7761" /> 
<g style = "stroke-linecap:round;" > 
<path d="M10825 7761 L10825 7761" /> 
</g></g>
<g style="fill:#A00000; fill-opacity:0.0; stroke:#A00000; stroke-opacity:1.00; stroke-linecap:round; stroke-linejoin:round; stroke-width:12" 
   transform="translate(0.00 0.00) scale(1.00 1.00)">
<path d="M7096 7461 L7130 7461" /> 
<g style = "stroke-linecap:round;" > 
<path d="M7130 7461 L7130 7461" /> 
</g><path d="M7113 7521 L7113 7461" /> 
<g style = "stroke-linecap:round;" > 
<path d="M7113 7461 L7113 7461" /> 
</g><path d="M7150 7521 L7150 7481" /> 
<g style = "stroke-linecap:round;" > 
<path d="M7150 7481 L7150 7481" /> 
</g><path d="M7150 7461 L7147 7464" /> 
<path d="M7147 7464 L7150 7467" /> 
<path d="M7150 7467 L7153 7464" /> 
<path d="M7153 7464 L7150 7461" /> 
<path d="M7150 7461 L7150 7467" /> 
<g style = "stroke-linecap:round;" > 
<path d="M7150 7467 L7150 7467" /> 
</g><path d="M7171 7481 L7194 7481" /> 
<g style = "stroke-linecap:round;" > 
<path d="M7194 7481 L7194 7481" /> 
</g><path d="M7179 7461 L7179 7513" /> 
<path d="M7179 7513 L7182 7518" /> 
<path d="M7182 7518 L7188 7521" /> 
<path d="M7188 7521 L7194 7521" /> 
<g style = "stroke-linecap:round;" > 
<path d="M7194 7521 L7194 7521" /> 
</g><path d="M7222 7521 L7216 7518" /> 
<path d="M7216 7518 L7213 7513" /> 
<path d="M7213 7513 L7213 7461" /> 
<g style = "stroke-linecap:round;" > 
<path d="M7213 7461 L7213 7461" /> 
</g><path d="M7267 7518 L7261 7521" /> 
<path d="M7261 7521 L7250 7521" /> 
<path d="M7250 7521 L7244 7518" /> 
<path d="M7244 7518 L7241 7513" /> 
<path d="M7241 7513 L7241 7490" /> 
<path d="M7241 7490 L7244 7484" /> 
<path d="M7244 7484 L7250 7481" /> 
<path d="M7250 7481 L7261 7481" /> 
<path d="M7261 7481 L7267 7484" /> 
<path d="M7267 7484 L7270 7490" /> 
<path d="M7270 7490 L7270 7496" /> 
<path d="M7270 7496 L7241 7501" /> 
<g style = "stroke-linecap:round;" > 
<path d="M7241 7501 L7241 7501" /> 
</g><path d="M7295 7516 L7298 7518" /> 
<path d="M7298 7518 L7295 7521" /> 
<path d="M7295 7521 L7292 7518" /> 
<path d="M7292 7518 L7295 7516" /> 
<path d="M7295 7516 L7295 7521" /> 
<g style = "stroke-linecap:round;" > 
<path d="M7295 7521 L7295 7521" /> 
</g><path d="M7295 7484 L7298 7487" /> 
<path d="M7298 7487 L7295 7490" /> 
<path d="M7295 7490 L7292 7487" /> 
<path d="M7292 7487 L7295 7484" /> 
<path d="M7295 7484 L7295 7490" /> 
<g style = "stroke-linecap:round;" > 
<path d="M7295 7490 L7295 7490" /> 
</g></g>
<g style="fill:#A00000; fill-opacity:0.0; stroke:#A00000; stroke-opacity:1.00; stroke-linecap:round; stroke-linejoin:round; stroke-width:6" 
   transform="translate(0.00 0.00) scale(1.00 1.00)">
<path d="M7124 7250 L7104 7250" /> 
<g style = "stroke-linecap:round;" > 
<path d="M7104 7250 L7104 7250" /> 
</g><path d="M7104 7281 L7104 7221" /> 
<path d="M7104 7221 L7133 7221" /> 
<g style = "stroke-linecap:round;" > 
<path d="M7133 7221 L7133 7221" /> 
</g><path d="M7155 7281 L7155 7241" /> 
<g style = "stroke-linecap:round;" > 
<path d="M7155 7241 L7155 7241" /> 
</g><path d="M7155 7221 L7152 7224" /> 
<path d="M7152 7224 L7155 7227" /> 
<path d="M7155 7227 L7158 7224" /> 
<path d="M7158 7224 L7155 7221" /> 
<path d="M7155 7221 L7155 7227" /> 
<g style = "stroke-linecap:round;" > 
<path d="M7155 7227 L7155 7227" /> 
</g><path d="M7193 7281 L7187 7278" /> 
<path d="M7187 7278 L7184 7273" /> 
<path d="M7184 7273 L7184 7221" /> 
<g style = "stroke-linecap:round;" > 
<path d="M7184 7221 L7184 7221" /> 
</g><path d="M7238 7278 L7232 7281" /> 
<path d="M7232 7281 L7221 7281" /> 
<path d="M7221 7281 L7215 7278" /> 
<path d="M7215 7278 L7212 7273" /> 
<path d="M7212 7273 L7212 7250" /> 
<path d="M7212 7250 L7215 7244" /> 
<path d="M7215 7244 L7221 7241" /> 
<path d="M7221 7241 L7232 7241" /> 
<path d="M7232 7241 L7238 7244" /> 
<path d="M7238 7244 L7241 7250" /> 
<path d="M7241 7250 L7241 7256" /> 
<path d="M7241 7256 L7212 7261" /> 
<g style = "stroke-linecap:round;" > 
<path d="M7212 7261 L7212 7261" /> 
</g><path d="M7266 7276 L7269 7278" /> 
<path d="M7269 7278 L7266 7281" /> 
<path d="M7266 7281 L7263 7278" /> 
<path d="M7263 7278 L7266 7276" /> 
<path d="M7266 7276 L7266 7281" /> 
<g style = "stroke-linecap:round;" > 
<path d="M7266 7281 L7266 7281" /> 
</g><path d="M7266 7244 L7269 7247" /> 
<path d="M7269 7247 L7266 7250" /> 
<path d="M7266 7250 L7263 7247" /> 
<path d="M7263 7247 L7266 7244" /> 
<path d="M7266 7244 L7266 7250" /> 
<g style = "stroke-linecap:round;" > 
<path d="M7266 7250 L7266 7250" /> 
</g><path d="M7341 7281 L7341 7241" /> 
<g style = "stroke-linecap:round;" > 
<path d="M7341 7241 L7341 7241" /> 
</g><path d="M7341 7221 L7338 7224" /> 
<path d="M7338 7224 L7341 7227" /> 
<path d="M7341 7227 L7344 7224" /> 
<path d="M7344 7224 L7341 7221" /> 
<path d="M7341 7221 L7341 7227" /> 
<g style = "stroke-linecap:round;" > 
<path d="M7341 7227 L7341 7227" /> 
</g><path d="M7370 7241 L7370 7281" /> 
<g style = "stroke-linecap:round;" > 
<path d="M7370 7281 L7370 7281" /> 
</g><path d="M7370 7247 L7373 7244" /> 
<path d="M7373 7244 L7379 7241" /> 
<path d="M7379 7241 L7387 7241" /> 
<path d="M7387 7241 L7393 7244" /> 
<path d="M7393 7244 L7396 7250" /> 
<path d="M7396 7250 L7396 7281" /> 
<g style = "stroke-linecap:round;" > 
<path d="M7396 7281 L7396 7281" /> 
</g><path d="M7424 7241 L7424 7301" /> 
<g style = "stroke-linecap:round;" > 
<path d="M7424 7301 L7424 7301" /> 
</g><path d="M7424 7244 L7430 7241" /> 
<path d="M7430 7241 L7441 7241" /> 
<path d="M7441 7241 L7447 7244" /> 
<path d="M7447 7244 L7450 7247" /> 
<path d="M7450 7247 L7453 7253" /> 
<path d="M7453 7253 L7453 7270" /> 
<path d="M7453 7270 L7450 7276" /> 
<path d="M7450 7276 L7447 7278" /> 
<path d="M7447 7278 L7441 7281" /> 
<path d="M7441 7281 L7430 7281" /> 
<path d="M7430 7281 L7424 7278" /> 
<g style = "stroke-linecap:round;" > 
<path d="M7424 7278 L7424 7278" /> 
</g><path d="M7504 7241 L7504 7281" /> 
<g style = "stroke-linecap:round;" > 
<path d="M7504 7281 L7504 7281" /> 
</g><path d="M7478 7241 L7478 7273" /> 
<path d="M7478 7273 L7481 7278" /> 
<path d="M7481 7278 L7487 7281" /> 
<path d="M7487 7281 L7495 7281" /> 
<path d="M7495 7281 L7501 7278" /> 
<path d="M7501 7278 L7504 7276" /> 
<g style = "stroke-linecap:round;" > 
<path d="M7504 7276 L7504 7276" /> 
</g><path d="M7524 7241 L7547 7241" /> 
<g style = "stroke-linecap:round;" > 
<path d="M7547 7241 L7547 7241" /> 
</g><path d="M7532 7221 L7532 7273" /> 
<path d="M7532 7273 L7535 7278" /> 
<path d="M7535 7278 L7541 7281" /> 
<path d="M7541 7281 L7547 7281" /> 
<g style = "stroke-linecap:round;" > 
<path d="M7547 7281 L7547 7281" /> 
</g><path d="M7566 7276 L7569 7278" /> 
<path d="M7569 7278 L7566 7281" /> 
<path d="M7566 7281 L7563 7278" /> 
<path d="M7563 7278 L7566 7276" /> 
<path d="M7566 7276 L7566 7281" /> 
<g style = "stroke-linecap:round;" > 
<path d="M7566 7281 L7566 7281" /> 
</g><path d="M7592 7278 L7598 7281" /> 
<path d="M7598 7281 L7610 7281" /> 
<path d="M7610 7281 L7615 7278" /> 
<path d="M7615 7278 L7618 7273" /> 
<path d="M7618 7273 L7618 7270" /> 
<path d="M7618 7270 L7615 7264" /> 
<path d="M7615 7264 L7610 7261" /> 
<path d="M7610 7261 L7601 7261" /> 
<path d="M7601 7261 L7595 7258" /> 
<path d="M7595 7258 L7592 7253" /> 
<path d="M7592 7253 L7592 7250" /> 
<path d="M7592 7250 L7595 7244" /> 
<path d="M7595 7244 L7601 7241" /> 
<path d="M7601 7241 L7610 7241" /> 
<path d="M7610 7241 L7615 7244" /> 
<g style = "stroke-linecap:round;" > 
<path d="M7615 7244 L7615 7244" /> 
</g><path d="M7670 7278 L7664 7281" /> 
<path d="M7664 7281 L7653 7281" /> 
<path d="M7653 7281 L7647 7278" /> 
<path d="M7647 7278 L7644 7276" /> 
<path d="M7644 7276 L7641 7270" /> 
<path d="M7641 7270 L7641 7253" /> 
<path d="M7641 7253 L7644 7247" /> 
<path d="M7644 7247 L7647 7244" /> 
<path d="M7647 7244 L7653 7241" /> 
<path d="M7653 7241 L7664 7241" /> 
<path d="M7664 7241 L7670 7244" /> 
<g style = "stroke-linecap:round;" > 
<path d="M7670 7244 L7670 7244" /> 
</g><path d="M7695 7281 L7695 7221" /> 
<g style = "stroke-linecap:round;" > 
<path d="M7695 7221 L7695 7221" /> 
</g><path d="M7721 7281 L7721 7250" /> 
<path d="M7721 7250 L7718 7244" /> 
<path d="M7718 7244 L7712 7241" /> 
<path d="M7712 7241 L7704 7241" /> 
<path d="M7704 7241 L7698 7244" /> 
<path d="M7698 7244 L7695 7247" /> 
<g style = "stroke-linecap:round;" > 
<path d="M7695 7247 L7695 7247" /> 
</g><path d="M7101 7398 L7110 7401" /> 
<path d="M7110 7401 L7124 7401" /> 
<path d="M7124 7401 L7130 7398" /> 
<path d="M7130 7398 L7133 7396" /> 
<path d="M7133 7396 L7136 7390" /> 
<path d="M7136 7390 L7136 7384" /> 
<path d="M7136 7384 L7133 7378" /> 
<path d="M7133 7378 L7130 7376" /> 
<path d="M7130 7376 L7124 7373" /> 
<path d="M7124 7373 L7113 7370" /> 
<path d="M7113 7370 L7107 7367" /> 
<path d="M7107 7367 L7104 7364" /> 
<path d="M7104 7364 L7101 7358" /> 
<path d="M7101 7358 L7101 7353" /> 
<path d="M7101 7353 L7104 7347" /> 
<path d="M7104 7347 L7107 7344" /> 
<path d="M7107 7344 L7113 7341" /> 
<path d="M7113 7341 L7127 7341" /> 
<path d="M7127 7341 L7136 7344" /> 
<g style = "stroke-linecap:round;" > 
<path d="M7136 7344 L7136 7344" /> 
</g><path d="M7161 7401 L7161 7341" /> 
<g style = "stroke-linecap:round;" > 
<path d="M7161 7341 L7161 7341" /> 
</g><path d="M7187 7401 L7187 7370" /> 
<path d="M7187 7370 L7184 7364" /> 
<path d="M7184 7364 L7178 7361" /> 
<path d="M7178 7361 L7170 7361" /> 
<path d="M7170 7361 L7164 7364" /> 
<path d="M7164 7364 L7161 7367" /> 
<g style = "stroke-linecap:round;" > 
<path d="M7161 7367 L7161 7367" /> 
</g><path d="M7238 7398 L7232 7401" /> 
<path d="M7232 7401 L7221 7401" /> 
<path d="M7221 7401 L7215 7398" /> 
<path d="M7215 7398 L7212 7393" /> 
<path d="M7212 7393 L7212 7370" /> 
<path d="M7212 7370 L7215 7364" /> 
<path d="M7215 7364 L7221 7361" /> 
<path d="M7221 7361 L7232 7361" /> 
<path d="M7232 7361 L7238 7364" /> 
<path d="M7238 7364 L7241 7370" /> 
<path d="M7241 7370 L7241 7376" /> 
<path d="M7241 7376 L7212 7381" /> 
<g style = "stroke-linecap:round;" > 
<path d="M7212 7381 L7212 7381" /> 
</g><path d="M7289 7398 L7283 7401" /> 
<path d="M7283 7401 L7272 7401" /> 
<path d="M7272 7401 L7266 7398" /> 
<path d="M7266 7398 L7263 7393" /> 
<path d="M7263 7393 L7263 7370" /> 
<path d="M7263 7370 L7266 7364" /> 
<path d="M7266 7364 L7272 7361" /> 
<path d="M7272 7361 L7283 7361" /> 
<path d="M7283 7361 L7289 7364" /> 
<path d="M7289 7364 L7292 7370" /> 
<path d="M7292 7370 L7292 7376" /> 
<path d="M7292 7376 L7263 7381" /> 
<g style = "stroke-linecap:round;" > 
<path d="M7263 7381 L7263 7381" /> 
</g><path d="M7309 7361 L7332 7361" /> 
<g style = "stroke-linecap:round;" > 
<path d="M7332 7361 L7332 7361" /> 
</g><path d="M7317 7341 L7317 7393" /> 
<path d="M7317 7393 L7320 7398" /> 
<path d="M7320 7398 L7326 7401" /> 
<path d="M7326 7401 L7332 7401" /> 
<g style = "stroke-linecap:round;" > 
<path d="M7332 7401 L7332 7401" /> 
</g><path d="M7351 7396 L7354 7398" /> 
<path d="M7354 7398 L7351 7401" /> 
<path d="M7351 7401 L7348 7398" /> 
<path d="M7348 7398 L7351 7396" /> 
<path d="M7351 7396 L7351 7401" /> 
<g style = "stroke-linecap:round;" > 
<path d="M7351 7401 L7351 7401" /> 
</g><path d="M7351 7364 L7354 7367" /> 
<path d="M7354 7367 L7351 7370" /> 
<path d="M7351 7370 L7348 7367" /> 
<path d="M7348 7367 L7351 7364" /> 
<path d="M7351 7364 L7351 7370" /> 
<g style = "stroke-linecap:round;" > 
<path d="M7351 7370 L7351 7370" /> 
</g><path d="M7469 7338 L7418 7416" /> 
<g style = "stroke-linecap:round;" > 
<path d="M7418 7416 L7418 7416" /> 
</g><path d="M7489 7401 L7489 7361" /> 
<g style = "stroke-linecap:round;" > 
<path d="M7489 7361 L7489 7361" /> 
</g><path d="M7489 7341 L7486 7344" /> 
<path d="M7486 7344 L7489 7347" /> 
<path d="M7489 7347 L7492 7344" /> 
<path d="M7492 7344 L7489 7341" /> 
<path d="M7489 7341 L7489 7347" /> 
<g style = "stroke-linecap:round;" > 
<path d="M7489 7347 L7489 7347" /> 
</g><path d="M7518 7361 L7518 7401" /> 
<g style = "stroke-linecap:round;" > 
<path d="M7518 7401 L7518 7401" /> 
</g><path d="M7518 7367 L7521 7364" /> 
<path d="M7521 7364 L7527 7361" /> 
<path d="M7527 7361 L7535 7361" /> 
<path d="M7535 7361 L7541 7364" /> 
<path d="M7541 7364 L7544 7370" /> 
<path d="M7544 7370 L7544 7401" /> 
<g style = "stroke-linecap:round;" > 
<path d="M7544 7401 L7544 7401" /> 
</g><path d="M7572 7361 L7572 7421" /> 
<g style = "stroke-linecap:round;" > 
<path d="M7572 7421 L7572 7421" /> 
</g><path d="M7572 7364 L7578 7361" /> 
<path d="M7578 7361 L7589 7361" /> 
<path d="M7589 7361 L7595 7364" /> 
<path d="M7595 7364 L7598 7367" /> 
<path d="M7598 7367 L7601 7373" /> 
<path d="M7601 7373 L7601 7390" /> 
<path d="M7601 7390 L7598 7396" /> 
<path d="M7598 7396 L7595 7398" /> 
<path d="M7595 7398 L7589 7401" /> 
<path d="M7589 7401 L7578 7401" /> 
<path d="M7578 7401 L7572 7398" /> 
<g style = "stroke-linecap:round;" > 
<path d="M7572 7398 L7572 7398" /> 
</g><path d="M7652 7361 L7652 7401" /> 
<g style = "stroke-linecap:round;" > 
<path d="M7652 7401 L7652 7401" /> 
</g><path d="M7626 7361 L7626 7393" /> 
<path d="M7626 7393 L7629 7398" /> 
<path d="M7629 7398 L7635 7401" /> 
<path d="M7635 7401 L7643 7401" /> 
<path d="M7643 7401 L7649 7398" /> 
<path d="M7649 7398 L7652 7396" /> 
<g style = "stroke-linecap:round;" > 
<path d="M7652 7396 L7652 7396" /> 
</g><path d="M7672 7361 L7695 7361" /> 
<g style = "stroke-linecap:round;" > 
<path d="M7695 7361 L7695 7361" /> 
</g><path d="M7680 7341 L7680 7393" /> 
<path d="M7680 7393 L7683 7398" /> 
<path d="M7683 7398 L7689 7401" /> 
<path d="M7689 7401 L7695 7401" /> 
<g style = "stroke-linecap:round;" > 
<path d="M7695 7401 L7695 7401" /> 
</g><path d="M7740 7361 L7740 7401" /> 
<g style = "stroke-linecap:round;" > 
<path d="M7740 7401 L7740 7401" /> 
</g><path d="M7726 7338 L7711 7381" /> 
<path d="M7711 7381 L7749 7381" /> 
<g style = "stroke-linecap:round;" > 
<path d="M7749 7381 L7749 7381" /> 
</g><path d="M7814 7338 L7763 7416" /> 
<g style = "stroke-linecap:round;" > 
<path d="M7763 7416 L7763 7416" /> 
</g><path d="M7030 7197 L7030 7797" /> 
<path d="M7030 7197 L11230 7197" /> 
<path d="M7030 7197 L11230 7197" /> 
<path d="M7030 7437 L11230 7437" /> 
<path d="M10350 7557 L10350 7797" /> 
<path d="M7030 7677 L11230 7677" /> 
<path d="M7030 7557 L11230 7557" /> 
<path d="M7690 7557 L7690 7677" /> 
</g> 
</svg> 
