<?xml version="1.0" standalone="no"?>
<!DOCTYPE svg PUBLIC "-//W3C//DTD SVG 20010904//EN" 
"http://www.w3.org/TR/2001/REC-SVG-20010904/DTD/svg10.dtd"> 
<svg xmlns="http://www.w3.org/2000/svg" xmlns:xlink="http://www.w3.org/1999/xlink" 
    width="29.72cm" height="21.00cm" viewBox="0 0 11700 8267 "> 
<title>SVG Picture created as valve-power-input3.svg </title>
<desc>Picture generated by wxSVG v0100 </desc>
<g style="fill:black; stroke:black; stroke-width:1">
</g>
<g style="fill:#FFFFFF; fill-opacity:1.00; stroke:#000000; stroke-opacity:1.00; stroke-linecap:round; stroke-linejoin:round; stroke-width:6" 
   transform="translate(0.00 0.00) scale(1.00 1.00)">
<path d="M5800 2300 L5800 2050" /> 
</g>
<g style="fill:#000000; fill-opacity:1.00; stroke:#000000; stroke-opacity:1.00; stroke-linecap:round; stroke-linejoin:round; stroke-width:0" 
   transform="translate(0.00 0.00) scale(1.00 1.00)">
<ellipse cx="5800" cy="3250" rx="16" ry="16"  /> 
</g>
<g style="fill:#000000; fill-opacity:1.00; stroke:#000000; stroke-opacity:1.00; stroke-linecap:round; stroke-linejoin:round; stroke-width:6" 
   transform="translate(0.00 0.00) scale(1.00 1.00)">
<path d="M5800 3250 L6250 3250" /> 
<path d="M4600 4500 L4600 4700" /> 
</g>
<g style="fill:#000000; fill-opacity:1.00; stroke:#000000; stroke-opacity:1.00; stroke-linecap:round; stroke-linejoin:round; stroke-width:0" 
   transform="translate(0.00 0.00) scale(1.00 1.00)">
<ellipse cx="4600" cy="3600" rx="16" ry="16"  /> 
</g>
<g style="fill:#000000; fill-opacity:1.00; stroke:#000000; stroke-opacity:1.00; stroke-linecap:round; stroke-linejoin:round; stroke-width:6" 
   transform="translate(0.00 0.00) scale(1.00 1.00)">
<path d="M3900 3600 L4800 3600" /> 
<path d="M5300 3600 L5500 3600" /> 
<path d="M4600 3600 L4600 4000" /> 
<path d="M5800 3800 L5800 4550" /> 
<path d="M5800 3400 L5800 2800" /> 
<path d="M6750 3250 L7150 3250" /> 
</g>
<g style="fill:#000000; fill-opacity:0.0; stroke:#000000; stroke-opacity:1.00; stroke-linecap:round; stroke-linejoin:round; stroke-width:6" 
   transform="translate(0.00 0.00) scale(1.00 1.00)">
<ellipse cx="5800" cy="1990" rx="20" ry="20"  /> 
<path d="M5800 2050 L5800 2010" /> 
<path d="M5800 2010 L5800 2010" /> 
<g style = "stroke-linecap:round;" > 
<path d="M5800 2010 L5800 2010" /> 
</g></g>
<g style="fill:#000000; fill-opacity:0.0; stroke:#000000; stroke-opacity:1.00; stroke-linecap:round; stroke-linejoin:round; stroke-width:5" 
   transform="translate(0.00 0.00) scale(1.00 1.00)">
<path d="M5760 1920 L5770 1950" /> 
<path d="M5770 1950 L5780 1920" /> 
<g style = "stroke-linecap:round;" > 
<path d="M5780 1920 L5780 1920" /> 
</g><path d="M5790 1950 L5790 1920" /> 
<path d="M5790 1920 L5797 1920" /> 
<path d="M5797 1920 L5802 1922" /> 
<path d="M5802 1922 L5804 1924" /> 
<path d="M5804 1924 L5806 1927" /> 
<path d="M5806 1927 L5807 1933" /> 
<path d="M5807 1933 L5807 1937" /> 
<path d="M5807 1937 L5806 1943" /> 
<path d="M5806 1943 L5804 1946" /> 
<path d="M5804 1946 L5802 1949" /> 
<path d="M5802 1949 L5797 1950" /> 
<path d="M5797 1950 L5790 1950" /> 
<path d="M5820 1950 L5820 1920" /> 
<path d="M5820 1920 L5827 1920" /> 
<path d="M5827 1920 L5832 1922" /> 
<path d="M5832 1922 L5834 1924" /> 
<path d="M5834 1924 L5836 1927" /> 
<path d="M5836 1927 L5837 1933" /> 
<path d="M5837 1933 L5837 1937" /> 
<path d="M5837 1937 L5836 1943" /> 
<path d="M5836 1943 L5834 1946" /> 
<path d="M5834 1946 L5832 1949" /> 
<path d="M5832 1949 L5827 1950" /> 
<path d="M5827 1950 L5820 1950" /> 
</g>
<g style="fill:#000000; fill-opacity:0.0; stroke:#000000; stroke-opacity:1.00; stroke-linecap:round; stroke-linejoin:round; stroke-width:12" 
   transform="translate(0.00 0.00) scale(1.00 1.00)">
<polygon style="fill-rule:evenodd; " 
points="5760,2400
5760,2400
5760,2700
5840,2700
5840,2400
" /> 
</g>
<g style="fill:#000000; fill-opacity:0.0; stroke:#000000; stroke-opacity:1.00; stroke-linecap:round; stroke-linejoin:round; stroke-width:6" 
   transform="translate(0.00 0.00) scale(1.00 1.00)">
<path d="M5800 2400 L5800 2300" /> 
<path d="M5800 2700 L5800 2800" /> 
<path d="M5897 2583 L5873 2599" /> 
<g style = "stroke-linecap:round;" > 
<path d="M5873 2599 L5873 2599" /> 
</g><path d="M5897 2611 L5847 2611" /> 
<path d="M5847 2611 L5847 2592" /> 
<path d="M5847 2592 L5850 2587" /> 
<path d="M5850 2587 L5852 2585" /> 
<path d="M5852 2585 L5857 2583" /> 
<path d="M5857 2583 L5864 2583" /> 
<path d="M5864 2583 L5869 2585" /> 
<path d="M5869 2585 L5871 2587" /> 
<path d="M5871 2587 L5873 2592" /> 
<path d="M5873 2592 L5873 2611" /> 
<g style = "stroke-linecap:round;" > 
<path d="M5873 2611 L5873 2611" /> 
</g><path d="M5847 2566 L5847 2533" /> 
<path d="M5847 2533 L5897 2554" /> 
<g style = "stroke-linecap:round;" > 
<path d="M5897 2554 L5897 2554" /> 
</g><path d="M5847 2518 L5847 2487" /> 
<path d="M5847 2487 L5866 2504" /> 
<path d="M5866 2504 L5866 2496" /> 
<path d="M5866 2496 L5869 2492" /> 
<path d="M5869 2492 L5871 2489" /> 
<path d="M5871 2489 L5876 2487" /> 
<path d="M5876 2487 L5888 2487" /> 
<path d="M5888 2487 L5892 2489" /> 
<path d="M5892 2489 L5895 2492" /> 
<path d="M5895 2492 L5897 2496" /> 
<path d="M5897 2496 L5897 2511" /> 
<path d="M5897 2511 L5895 2515" /> 
<path d="M5895 2515 L5892 2518" /> 
<g style = "stroke-linecap:round;" > 
<path d="M5892 2518 L5892 2518" /> 
</g><path d="M5767 2611 L5767 2580" /> 
<path d="M5767 2580 L5786 2597" /> 
<path d="M5786 2597 L5786 2589" /> 
<path d="M5786 2589 L5789 2585" /> 
<path d="M5789 2585 L5791 2582" /> 
<path d="M5791 2582 L5796 2580" /> 
<path d="M5796 2580 L5808 2580" /> 
<path d="M5808 2580 L5812 2582" /> 
<path d="M5812 2582 L5815 2585" /> 
<path d="M5815 2585 L5817 2589" /> 
<path d="M5817 2589 L5817 2604" /> 
<path d="M5817 2604 L5815 2608" /> 
<path d="M5815 2608 L5812 2611" /> 
<g style = "stroke-linecap:round;" > 
<path d="M5812 2611 L5812 2611" /> 
</g><path d="M5767 2563 L5767 2532" /> 
<path d="M5767 2532 L5786 2549" /> 
<path d="M5786 2549 L5786 2541" /> 
<path d="M5786 2541 L5789 2537" /> 
<path d="M5789 2537 L5791 2534" /> 
<path d="M5791 2534 L5796 2532" /> 
<path d="M5796 2532 L5808 2532" /> 
<path d="M5808 2532 L5812 2534" /> 
<path d="M5812 2534 L5815 2537" /> 
<path d="M5815 2537 L5817 2541" /> 
<path d="M5817 2541 L5817 2556" /> 
<path d="M5817 2556 L5815 2560" /> 
<path d="M5815 2560 L5812 2563" /> 
<g style = "stroke-linecap:round;" > 
<path d="M5812 2563 L5812 2563" /> 
</g><path d="M5817 2510 L5767 2510" /> 
<g style = "stroke-linecap:round;" > 
<path d="M5767 2510 L5767 2510" /> 
</g><path d="M5798 2505 L5817 2491" /> 
<g style = "stroke-linecap:round;" > 
<path d="M5817 2491 L5817 2491" /> 
</g><path d="M5784 2491 L5803 2510" /> 
<g style = "stroke-linecap:round;" > 
<path d="M5803 2510 L5803 2510" /> 
</g><path d="M7249 3274 L7243 3271" /> 
<path d="M7243 3271 L7240 3269" /> 
<path d="M7240 3269 L7237 3263" /> 
<path d="M7237 3263 L7237 3246" /> 
<path d="M7237 3246 L7240 3240" /> 
<path d="M7240 3240 L7243 3237" /> 
<path d="M7243 3237 L7249 3234" /> 
<path d="M7249 3234 L7257 3234" /> 
<path d="M7257 3234 L7263 3237" /> 
<path d="M7263 3237 L7266 3240" /> 
<path d="M7266 3240 L7269 3246" /> 
<path d="M7269 3246 L7269 3263" /> 
<path d="M7269 3263 L7266 3269" /> 
<path d="M7266 3269 L7263 3271" /> 
<path d="M7263 3271 L7257 3274" /> 
<path d="M7257 3274 L7249 3274" /> 
<path d="M7320 3234 L7320 3274" /> 
<g style = "stroke-linecap:round;" > 
<path d="M7320 3274 L7320 3274" /> 
</g><path d="M7294 3234 L7294 3266" /> 
<path d="M7294 3266 L7297 3271" /> 
<path d="M7297 3271 L7303 3274" /> 
<path d="M7303 3274 L7311 3274" /> 
<path d="M7311 3274 L7317 3271" /> 
<path d="M7317 3271 L7320 3269" /> 
<g style = "stroke-linecap:round;" > 
<path d="M7320 3269 L7320 3269" /> 
</g><path d="M7340 3234 L7363 3234" /> 
<g style = "stroke-linecap:round;" > 
<path d="M7363 3234 L7363 3234" /> 
</g><path d="M7348 3214 L7348 3266" /> 
<path d="M7348 3266 L7351 3271" /> 
<path d="M7351 3271 L7357 3274" /> 
<path d="M7357 3274 L7363 3274" /> 
<g style = "stroke-linecap:round;" > 
<path d="M7363 3274 L7363 3274" /> 
</g><path d="M7150 3250 L7180 3280" /> 
<path d="M7180 3280 L7210 3280" /> 
<path d="M7210 3280 L7210 3220" /> 
<path d="M7210 3220 L7180 3220" /> 
<path d="M7180 3220 L7150 3250" /> 
</g>
<g style="fill:#000000; fill-opacity:0.0; stroke:#000000; stroke-opacity:1.00; stroke-linecap:round; stroke-linejoin:round; stroke-width:12" 
   transform="translate(0.00 0.00) scale(1.00 1.00)">
<polygon style="fill-rule:evenodd; " 
points="6350,3290
6350,3290
6350,3210
6650,3210
6650,3290
" /> 
</g>
<g style="fill:#000000; fill-opacity:0.0; stroke:#000000; stroke-opacity:1.00; stroke-linecap:round; stroke-linejoin:round; stroke-width:6" 
   transform="translate(0.00 0.00) scale(1.00 1.00)">
<path d="M6350 3250 L6250 3250" /> 
<path d="M6650 3250 L6750 3250" /> 
<path d="M6467 3193 L6451 3169" /> 
<g style = "stroke-linecap:round;" > 
<path d="M6451 3169 L6451 3169" /> 
</g><path d="M6439 3193 L6439 3143" /> 
<path d="M6439 3143 L6458 3143" /> 
<path d="M6458 3143 L6463 3146" /> 
<path d="M6463 3146 L6465 3148" /> 
<path d="M6465 3148 L6467 3153" /> 
<path d="M6467 3153 L6467 3160" /> 
<path d="M6467 3160 L6465 3165" /> 
<path d="M6465 3165 L6463 3167" /> 
<path d="M6463 3167 L6458 3169" /> 
<path d="M6458 3169 L6439 3169" /> 
<g style = "stroke-linecap:round;" > 
<path d="M6439 3169 L6439 3169" /> 
</g><path d="M6484 3143 L6517 3143" /> 
<path d="M6517 3143 L6496 3193" /> 
<g style = "stroke-linecap:round;" > 
<path d="M6496 3193 L6496 3193" /> 
</g><path d="M6558 3160 L6558 3193" /> 
<g style = "stroke-linecap:round;" > 
<path d="M6558 3193 L6558 3193" /> 
</g><path d="M6546 3141 L6535 3177" /> 
<path d="M6535 3177 L6565 3177" /> 
<g style = "stroke-linecap:round;" > 
<path d="M6565 3177 L6565 3177" /> 
</g><path d="M6442 3228 L6444 3226" /> 
<path d="M6444 3226 L6449 3223" /> 
<path d="M6449 3223 L6461 3223" /> 
<path d="M6461 3223 L6465 3226" /> 
<path d="M6465 3226 L6468 3228" /> 
<path d="M6468 3228 L6470 3233" /> 
<path d="M6470 3233 L6470 3238" /> 
<path d="M6470 3238 L6468 3245" /> 
<path d="M6468 3245 L6439 3273" /> 
<path d="M6439 3273 L6470 3273" /> 
<g style = "stroke-linecap:round;" > 
<path d="M6470 3273 L6470 3273" /> 
</g><path d="M6492 3273 L6492 3223" /> 
<g style = "stroke-linecap:round;" > 
<path d="M6492 3223 L6492 3223" /> 
</g><path d="M6497 3254 L6511 3273" /> 
<g style = "stroke-linecap:round;" > 
<path d="M6511 3273 L6511 3273" /> 
</g><path d="M6511 3240 L6492 3259" /> 
<g style = "stroke-linecap:round;" > 
<path d="M6492 3259 L6492 3259" /> 
</g><path d="M6553 3240 L6553 3273" /> 
<g style = "stroke-linecap:round;" > 
<path d="M6553 3273 L6553 3273" /> 
</g><path d="M6541 3221 L6530 3257" /> 
<path d="M6530 3257 L6560 3257" /> 
<g style = "stroke-linecap:round;" > 
<path d="M6560 3257 L6560 3257" /> 
</g><path d="M4550 4700 L4600 4750" /> 
<path d="M4600 4750 L4650 4700" /> 
<path d="M4650 4700 L4550 4700" /> 
<path d="M5750 4550 L5800 4600" /> 
<path d="M5800 4600 L5850 4550" /> 
<path d="M5850 4550 L5750 4550" /> 
<path d="M3521 3624 L3521 3584" /> 
<g style = "stroke-linecap:round;" > 
<path d="M3521 3584 L3521 3584" /> 
</g><path d="M3521 3564 L3518 3567" /> 
<path d="M3518 3567 L3521 3570" /> 
<path d="M3521 3570 L3524 3567" /> 
<path d="M3524 3567 L3521 3564" /> 
<path d="M3521 3564 L3521 3570" /> 
<g style = "stroke-linecap:round;" > 
<path d="M3521 3570 L3521 3570" /> 
</g><path d="M3550 3584 L3550 3624" /> 
<g style = "stroke-linecap:round;" > 
<path d="M3550 3624 L3550 3624" /> 
</g><path d="M3550 3590 L3553 3587" /> 
<path d="M3553 3587 L3559 3584" /> 
<path d="M3559 3584 L3567 3584" /> 
<path d="M3567 3584 L3573 3587" /> 
<path d="M3573 3587 L3576 3593" /> 
<path d="M3576 3593 L3576 3624" /> 
<g style = "stroke-linecap:round;" > 
<path d="M3576 3624 L3576 3624" /> 
</g><path d="M3604 3601 L3650 3601" /> 
<g style = "stroke-linecap:round;" > 
<path d="M3650 3601 L3650 3601" /> 
</g><path d="M3675 3570 L3678 3567" /> 
<path d="M3678 3567 L3684 3564" /> 
<path d="M3684 3564 L3698 3564" /> 
<path d="M3698 3564 L3704 3567" /> 
<path d="M3704 3567 L3707 3570" /> 
<path d="M3707 3570 L3710 3576" /> 
<path d="M3710 3576 L3710 3581" /> 
<path d="M3710 3581 L3707 3590" /> 
<path d="M3707 3590 L3673 3624" /> 
<path d="M3673 3624 L3710 3624" /> 
<g style = "stroke-linecap:round;" > 
<path d="M3710 3624 L3710 3624" /> 
</g><path d="M3761 3584 L3761 3624" /> 
<g style = "stroke-linecap:round;" > 
<path d="M3761 3624 L3761 3624" /> 
</g><path d="M3747 3561 L3732 3604" /> 
<path d="M3732 3604 L3770 3604" /> 
<g style = "stroke-linecap:round;" > 
<path d="M3770 3604 L3770 3604" /> 
</g><path d="M3787 3584 L3801 3624" /> 
<path d="M3801 3624 L3815 3584" /> 
<g style = "stroke-linecap:round;" > 
<path d="M3815 3584 L3815 3584" /> 
</g><path d="M3900 3600 L3870 3570" /> 
<path d="M3870 3570 L3840 3570" /> 
<path d="M3840 3570 L3840 3630" /> 
<path d="M3840 3630 L3870 3630" /> 
<path d="M3870 3630 L3900 3600" /> 
</g>
<g style="fill:#000000; fill-opacity:0.0; stroke:#000000; stroke-opacity:1.00; stroke-linecap:round; stroke-linejoin:round; stroke-width:12" 
   transform="translate(0.00 0.00) scale(1.00 1.00)">
<polygon style="fill-rule:evenodd; " 
points="4900,3640
4900,3640
4900,3560
5200,3560
5200,3640
" /> 
</g>
<g style="fill:#000000; fill-opacity:0.0; stroke:#000000; stroke-opacity:1.00; stroke-linecap:round; stroke-linejoin:round; stroke-width:6" 
   transform="translate(0.00 0.00) scale(1.00 1.00)">
<path d="M4900 3600 L4800 3600" /> 
<path d="M5200 3600 L5300 3600" /> 
<path d="M5017 3543 L5001 3519" /> 
<g style = "stroke-linecap:round;" > 
<path d="M5001 3519 L5001 3519" /> 
</g><path d="M4989 3543 L4989 3493" /> 
<path d="M4989 3493 L5008 3493" /> 
<path d="M5008 3493 L5013 3496" /> 
<path d="M5013 3496 L5015 3498" /> 
<path d="M5015 3498 L5017 3503" /> 
<path d="M5017 3503 L5017 3510" /> 
<path d="M5017 3510 L5015 3515" /> 
<path d="M5015 3515 L5013 3517" /> 
<path d="M5013 3517 L5008 3519" /> 
<path d="M5008 3519 L4989 3519" /> 
<g style = "stroke-linecap:round;" > 
<path d="M4989 3519 L4989 3519" /> 
</g><path d="M5034 3493 L5067 3493" /> 
<path d="M5067 3493 L5046 3543" /> 
<g style = "stroke-linecap:round;" > 
<path d="M5046 3543 L5046 3543" /> 
</g><path d="M5085 3498 L5087 3496" /> 
<path d="M5087 3496 L5092 3493" /> 
<path d="M5092 3493 L5104 3493" /> 
<path d="M5104 3493 L5108 3496" /> 
<path d="M5108 3496 L5111 3498" /> 
<path d="M5111 3498 L5113 3503" /> 
<path d="M5113 3503 L5113 3508" /> 
<path d="M5113 3508 L5111 3515" /> 
<path d="M5111 3515 L5082 3543" /> 
<path d="M5082 3543 L5113 3543" /> 
<g style = "stroke-linecap:round;" > 
<path d="M5113 3543 L5113 3543" /> 
</g><path d="M4992 3578 L4994 3576" /> 
<path d="M4994 3576 L4999 3573" /> 
<path d="M4999 3573 L5011 3573" /> 
<path d="M5011 3573 L5015 3576" /> 
<path d="M5015 3576 L5018 3578" /> 
<path d="M5018 3578 L5020 3583" /> 
<path d="M5020 3583 L5020 3588" /> 
<path d="M5020 3588 L5018 3595" /> 
<path d="M5018 3595 L4989 3623" /> 
<path d="M4989 3623 L5020 3623" /> 
<g style = "stroke-linecap:round;" > 
<path d="M5020 3623 L5020 3623" /> 
</g><path d="M5042 3623 L5042 3573" /> 
<g style = "stroke-linecap:round;" > 
<path d="M5042 3573 L5042 3573" /> 
</g><path d="M5047 3604 L5061 3623" /> 
<g style = "stroke-linecap:round;" > 
<path d="M5061 3623 L5061 3623" /> 
</g><path d="M5061 3590 L5042 3609" /> 
<g style = "stroke-linecap:round;" > 
<path d="M5042 3609 L5042 3609" /> 
</g><path d="M5103 3590 L5103 3623" /> 
<g style = "stroke-linecap:round;" > 
<path d="M5103 3623 L5103 3623" /> 
</g><path d="M5091 3571 L5080 3607" /> 
<path d="M5080 3607 L5110 3607" /> 
<g style = "stroke-linecap:round;" > 
<path d="M5110 3607 L5110 3607" /> 
</g></g>
<g style="fill:#000000; fill-opacity:0.0; stroke:#000000; stroke-opacity:1.00; stroke-linecap:round; stroke-linejoin:round; stroke-width:12" 
   transform="translate(0.00 0.00) scale(1.00 1.00)">
<polygon style="fill-rule:evenodd; " 
points="4560,4100
4560,4100
4560,4400
4640,4400
4640,4100
" /> 
</g>
<g style="fill:#000000; fill-opacity:0.0; stroke:#000000; stroke-opacity:1.00; stroke-linecap:round; stroke-linejoin:round; stroke-width:6" 
   transform="translate(0.00 0.00) scale(1.00 1.00)">
<path d="M4600 4100 L4600 4000" /> 
<path d="M4600 4400 L4600 4500" /> 
<path d="M4697 4283 L4673 4299" /> 
<g style = "stroke-linecap:round;" > 
<path d="M4673 4299 L4673 4299" /> 
</g><path d="M4697 4311 L4647 4311" /> 
<path d="M4647 4311 L4647 4292" /> 
<path d="M4647 4292 L4650 4287" /> 
<path d="M4650 4287 L4652 4285" /> 
<path d="M4652 4285 L4657 4283" /> 
<path d="M4657 4283 L4664 4283" /> 
<path d="M4664 4283 L4669 4285" /> 
<path d="M4669 4285 L4671 4287" /> 
<path d="M4671 4287 L4673 4292" /> 
<path d="M4673 4292 L4673 4311" /> 
<g style = "stroke-linecap:round;" > 
<path d="M4673 4311 L4673 4311" /> 
</g><path d="M4647 4266 L4647 4233" /> 
<path d="M4647 4233 L4697 4254" /> 
<g style = "stroke-linecap:round;" > 
<path d="M4697 4254 L4697 4254" /> 
</g><path d="M4697 4187 L4697 4215" /> 
<g style = "stroke-linecap:round;" > 
<path d="M4697 4215 L4697 4215" /> 
</g><path d="M4697 4201 L4647 4201" /> 
<path d="M4647 4201 L4654 4206" /> 
<path d="M4654 4206 L4659 4211" /> 
<path d="M4659 4211 L4662 4215" /> 
<g style = "stroke-linecap:round;" > 
<path d="M4662 4215 L4662 4215" /> 
</g><path d="M4567 4311 L4567 4280" /> 
<path d="M4567 4280 L4586 4297" /> 
<path d="M4586 4297 L4586 4289" /> 
<path d="M4586 4289 L4589 4285" /> 
<path d="M4589 4285 L4591 4282" /> 
<path d="M4591 4282 L4596 4280" /> 
<path d="M4596 4280 L4608 4280" /> 
<path d="M4608 4280 L4612 4282" /> 
<path d="M4612 4282 L4615 4285" /> 
<path d="M4615 4285 L4617 4289" /> 
<path d="M4617 4289 L4617 4304" /> 
<path d="M4617 4304 L4615 4308" /> 
<path d="M4615 4308 L4612 4311" /> 
<g style = "stroke-linecap:round;" > 
<path d="M4612 4311 L4612 4311" /> 
</g><path d="M4567 4263 L4567 4232" /> 
<path d="M4567 4232 L4586 4249" /> 
<path d="M4586 4249 L4586 4241" /> 
<path d="M4586 4241 L4589 4237" /> 
<path d="M4589 4237 L4591 4234" /> 
<path d="M4591 4234 L4596 4232" /> 
<path d="M4596 4232 L4608 4232" /> 
<path d="M4608 4232 L4612 4234" /> 
<path d="M4612 4234 L4615 4237" /> 
<path d="M4615 4237 L4617 4241" /> 
<path d="M4617 4241 L4617 4256" /> 
<path d="M4617 4256 L4615 4260" /> 
<path d="M4615 4260 L4612 4263" /> 
<g style = "stroke-linecap:round;" > 
<path d="M4612 4263 L4612 4263" /> 
</g><path d="M4617 4210 L4567 4210" /> 
<g style = "stroke-linecap:round;" > 
<path d="M4567 4210 L4567 4210" /> 
</g><path d="M4598 4205 L4617 4191" /> 
<g style = "stroke-linecap:round;" > 
<path d="M4617 4191 L4617 4191" /> 
</g><path d="M4584 4191 L4603 4210" /> 
<g style = "stroke-linecap:round;" > 
<path d="M4603 4210 L4603 4210" /> 
</g></g>
<g style="fill:#000000; fill-opacity:0.0; stroke:#000000; stroke-opacity:1.00; stroke-linecap:round; stroke-linejoin:round; stroke-width:10" 
   transform="translate(0.00 0.00) scale(1.00 1.00)">
<ellipse cx="5750" cy="3600" rx="111" ry="111"  /> 
</g>
<g style="fill:#000000; fill-opacity:0.0; stroke:#000000; stroke-opacity:1.00; stroke-linecap:round; stroke-linejoin:round; stroke-width:6" 
   transform="translate(0.00 0.00) scale(1.00 1.00)">
<path d="M5700 3600 L5800 3500" /> 
<g style = "stroke-linecap:round;" > 
<path d="M5800 3500 L5800 3500" /> 
</g></g>
<g style="fill:#000000; fill-opacity:0.0; stroke:#000000; stroke-opacity:1.00; stroke-linecap:round; stroke-linejoin:round; stroke-width:10" 
   transform="translate(0.00 0.00) scale(1.00 1.00)">
<path d="M5700 3525 L5700 3675" /> 
<path d="M5700 3675 L5700 3675" /> 
<g style = "stroke-linecap:round;" > 
<path d="M5700 3675 L5700 3675" /> 
</g></g>
<g style="fill:#000000; fill-opacity:0.0; stroke:#000000; stroke-opacity:1.00; stroke-linecap:round; stroke-linejoin:round; stroke-width:6" 
   transform="translate(0.00 0.00) scale(1.00 1.00)">
<path d="M5750 3650 L5700 3600" /> 
<path d="M5700 3600 L5700 3600" /> 
<g style = "stroke-linecap:round;" > 
<path d="M5700 3600 L5700 3600" /> 
</g><path d="M5790 3690 L5800 3700" /> 
<path d="M5800 3700 L5800 3700" /> 
<g style = "stroke-linecap:round;" > 
<path d="M5800 3700 L5800 3700" /> 
</g></g>
<g style="fill:#000000; fill-opacity:1.00; stroke:#000000; stroke-opacity:1.00; stroke-linecap:round; stroke-linejoin:round; stroke-width:6" 
   transform="translate(0.00 0.00) scale(1.00 1.00)">
<polygon style="fill-rule:evenodd; " 
points="5790,3690
5790,3690
5770,3630
5730,3670
5790,3690
" /> 
<path d="M5800 3700 L5800 3800" /> 
</g>
<g style="fill:#000000; fill-opacity:0.0; stroke:#000000; stroke-opacity:1.00; stroke-linecap:round; stroke-linejoin:round; stroke-width:6" 
   transform="translate(0.00 0.00) scale(1.00 1.00)">
<path d="M5765 3758 L5765 3745" /> 
<g style = "stroke-linecap:round;" > 
<path d="M5765 3745 L5765 3745" /> 
</g><path d="M5786 3739 L5786 3758" /> 
<path d="M5786 3758 L5746 3758" /> 
<path d="M5746 3758 L5746 3739" /> 
<g style = "stroke-linecap:round;" > 
<path d="M5746 3739 L5746 3739" /> 
</g><path d="M5846 3739 L5846 3761" /> 
<g style = "stroke-linecap:round;" > 
<path d="M5846 3761 L5846 3761" /> 
</g><path d="M5846 3750 L5806 3750" /> 
<path d="M5806 3750 L5812 3754" /> 
<path d="M5812 3754 L5816 3758" /> 
<path d="M5816 3758 L5818 3761" /> 
<g style = "stroke-linecap:round;" > 
<path d="M5818 3761 L5818 3761" /> 
</g><path d="M5700 3600 L5500 3600" /> 
<path d="M5603 3565 L5609 3567" /> 
<path d="M5609 3567 L5610 3569" /> 
<path d="M5610 3569 L5612 3573" /> 
<path d="M5612 3573 L5612 3579" /> 
<path d="M5612 3579 L5610 3582" /> 
<path d="M5610 3582 L5609 3584" /> 
<path d="M5609 3584 L5605 3586" /> 
<path d="M5605 3586 L5590 3586" /> 
<path d="M5590 3586 L5590 3546" /> 
<path d="M5590 3546 L5603 3546" /> 
<path d="M5603 3546 L5607 3548" /> 
<path d="M5607 3548 L5609 3550" /> 
<path d="M5609 3550 L5610 3554" /> 
<path d="M5610 3554 L5610 3558" /> 
<path d="M5610 3558 L5609 3561" /> 
<path d="M5609 3561 L5607 3563" /> 
<path d="M5607 3563 L5603 3565" /> 
<path d="M5603 3565 L5590 3565" /> 
<g style = "stroke-linecap:round;" > 
<path d="M5590 3565 L5590 3565" /> 
</g><path d="M5589 3610 L5591 3608" /> 
<path d="M5591 3608 L5594 3606" /> 
<path d="M5594 3606 L5604 3606" /> 
<path d="M5604 3606 L5608 3608" /> 
<path d="M5608 3608 L5610 3610" /> 
<path d="M5610 3610 L5611 3614" /> 
<path d="M5611 3614 L5611 3618" /> 
<path d="M5611 3618 L5610 3623" /> 
<path d="M5610 3623 L5587 3646" /> 
<path d="M5587 3646 L5611 3646" /> 
<g style = "stroke-linecap:round;" > 
<path d="M5611 3646 L5611 3646" /> 
</g><path d="M5800 3500 L5800 3400" /> 
<path d="M5782 3438 L5784 3440" /> 
<path d="M5784 3440 L5786 3445" /> 
<path d="M5786 3445 L5786 3449" /> 
<path d="M5786 3449 L5784 3455" /> 
<path d="M5784 3455 L5780 3459" /> 
<path d="M5780 3459 L5777 3460" /> 
<path d="M5777 3460 L5769 3462" /> 
<path d="M5769 3462 L5763 3462" /> 
<path d="M5763 3462 L5756 3460" /> 
<path d="M5756 3460 L5752 3459" /> 
<path d="M5752 3459 L5748 3455" /> 
<path d="M5748 3455 L5746 3449" /> 
<path d="M5746 3449 L5746 3445" /> 
<path d="M5746 3445 L5748 3440" /> 
<path d="M5748 3440 L5750 3438" /> 
<g style = "stroke-linecap:round;" > 
<path d="M5750 3438 L5750 3438" /> 
</g><path d="M5806 3463 L5806 3439" /> 
<path d="M5806 3439 L5821 3452" /> 
<path d="M5821 3452 L5821 3446" /> 
<path d="M5821 3446 L5823 3442" /> 
<path d="M5823 3442 L5825 3440" /> 
<path d="M5825 3440 L5829 3439" /> 
<path d="M5829 3439 L5839 3439" /> 
<path d="M5839 3439 L5842 3440" /> 
<path d="M5842 3440 L5844 3442" /> 
<path d="M5844 3442 L5846 3446" /> 
<path d="M5846 3446 L5846 3458" /> 
<path d="M5846 3458 L5844 3461" /> 
<path d="M5844 3461 L5842 3463" /> 
<g style = "stroke-linecap:round;" > 
<path d="M5842 3463 L5842 3463" /> 
</g><path d="M5597 3772 L5592 3770" /> 
<path d="M5592 3770 L5588 3765" /> 
<path d="M5588 3765 L5581 3758" /> 
<path d="M5581 3758 L5576 3755" /> 
<path d="M5576 3755 L5571 3755" /> 
<g style = "stroke-linecap:round;" > 
<path d="M5571 3755 L5571 3755" /> 
</g><path d="M5573 3767 L5569 3765" /> 
<path d="M5569 3765 L5564 3760" /> 
<path d="M5564 3760 L5562 3751" /> 
<path d="M5562 3751 L5562 3734" /> 
<path d="M5562 3734 L5564 3724" /> 
<path d="M5564 3724 L5569 3720" /> 
<path d="M5569 3720 L5573 3717" /> 
<path d="M5573 3717 L5583 3717" /> 
<path d="M5583 3717 L5588 3720" /> 
<path d="M5588 3720 L5592 3724" /> 
<path d="M5592 3724 L5595 3734" /> 
<path d="M5595 3734 L5595 3751" /> 
<path d="M5595 3751 L5592 3760" /> 
<path d="M5592 3760 L5588 3765" /> 
<path d="M5588 3765 L5583 3767" /> 
<path d="M5583 3767 L5573 3767" /> 
<path d="M5614 3722 L5616 3720" /> 
<path d="M5616 3720 L5621 3717" /> 
<path d="M5621 3717 L5633 3717" /> 
<path d="M5633 3717 L5637 3720" /> 
<path d="M5637 3720 L5640 3722" /> 
<path d="M5640 3722 L5642 3727" /> 
<path d="M5642 3727 L5642 3732" /> 
<path d="M5642 3732 L5640 3739" /> 
<path d="M5640 3739 L5611 3767" /> 
<path d="M5611 3767 L5642 3767" /> 
<g style = "stroke-linecap:round;" > 
<path d="M5642 3767 L5642 3767" /> 
</g><path d="M5673 3717 L5678 3717" /> 
<path d="M5678 3717 L5683 3720" /> 
<path d="M5683 3720 L5685 3722" /> 
<path d="M5685 3722 L5688 3727" /> 
<path d="M5688 3727 L5690 3736" /> 
<path d="M5690 3736 L5690 3748" /> 
<path d="M5690 3748 L5688 3758" /> 
<path d="M5688 3758 L5685 3762" /> 
<path d="M5685 3762 L5683 3765" /> 
<path d="M5683 3765 L5678 3767" /> 
<path d="M5678 3767 L5673 3767" /> 
<path d="M5673 3767 L5669 3765" /> 
<path d="M5669 3765 L5666 3762" /> 
<path d="M5666 3762 L5664 3758" /> 
<path d="M5664 3758 L5662 3748" /> 
<path d="M5662 3748 L5662 3736" /> 
<path d="M5662 3736 L5664 3727" /> 
<path d="M5664 3727 L5666 3722" /> 
<path d="M5666 3722 L5669 3720" /> 
<path d="M5669 3720 L5673 3717" /> 
<path d="M5480 3467 L5480 3417" /> 
<g style = "stroke-linecap:round;" > 
<path d="M5480 3417 L5480 3417" /> 
</g><path d="M5480 3436 L5485 3434" /> 
<path d="M5485 3434 L5494 3434" /> 
<path d="M5494 3434 L5499 3436" /> 
<path d="M5499 3436 L5501 3439" /> 
<path d="M5501 3439 L5504 3443" /> 
<path d="M5504 3443 L5504 3458" /> 
<path d="M5504 3458 L5501 3462" /> 
<path d="M5501 3462 L5499 3465" /> 
<path d="M5499 3465 L5494 3467" /> 
<path d="M5494 3467 L5485 3467" /> 
<path d="M5485 3467 L5480 3465" /> 
<g style = "stroke-linecap:round;" > 
<path d="M5480 3465 L5480 3465" /> 
</g><path d="M5546 3465 L5542 3467" /> 
<path d="M5542 3467 L5532 3467" /> 
<path d="M5532 3467 L5527 3465" /> 
<path d="M5527 3465 L5525 3462" /> 
<path d="M5525 3462 L5523 3458" /> 
<path d="M5523 3458 L5523 3443" /> 
<path d="M5523 3443 L5525 3439" /> 
<path d="M5525 3439 L5527 3436" /> 
<path d="M5527 3436 L5532 3434" /> 
<path d="M5532 3434 L5542 3434" /> 
<path d="M5542 3434 L5546 3436" /> 
<g style = "stroke-linecap:round;" > 
<path d="M5546 3436 L5546 3436" /> 
</g><path d="M5575 3439 L5570 3436" /> 
<path d="M5570 3436 L5568 3434" /> 
<path d="M5568 3434 L5566 3429" /> 
<path d="M5566 3429 L5566 3427" /> 
<path d="M5566 3427 L5568 3422" /> 
<path d="M5568 3422 L5570 3420" /> 
<path d="M5570 3420 L5575 3417" /> 
<path d="M5575 3417 L5585 3417" /> 
<path d="M5585 3417 L5589 3420" /> 
<path d="M5589 3420 L5592 3422" /> 
<path d="M5592 3422 L5594 3427" /> 
<path d="M5594 3427 L5594 3429" /> 
<path d="M5594 3429 L5592 3434" /> 
<path d="M5592 3434 L5589 3436" /> 
<path d="M5589 3436 L5585 3439" /> 
<path d="M5585 3439 L5575 3439" /> 
<path d="M5575 3439 L5570 3441" /> 
<path d="M5570 3441 L5568 3443" /> 
<path d="M5568 3443 L5566 3448" /> 
<path d="M5566 3448 L5566 3458" /> 
<path d="M5566 3458 L5568 3462" /> 
<path d="M5568 3462 L5570 3465" /> 
<path d="M5570 3465 L5575 3467" /> 
<path d="M5575 3467 L5585 3467" /> 
<path d="M5585 3467 L5589 3465" /> 
<path d="M5589 3465 L5592 3462" /> 
<path d="M5592 3462 L5594 3458" /> 
<path d="M5594 3458 L5594 3448" /> 
<path d="M5594 3448 L5592 3443" /> 
<path d="M5592 3443 L5589 3441" /> 
<path d="M5589 3441 L5585 3439" /> 
<g style = "stroke-linecap:round;" > 
<path d="M5585 3439 L5585 3439" /> 
</g><path d="M5637 3434 L5637 3467" /> 
<g style = "stroke-linecap:round;" > 
<path d="M5637 3467 L5637 3467" /> 
</g><path d="M5625 3415 L5614 3451" /> 
<path d="M5614 3451 L5644 3451" /> 
<g style = "stroke-linecap:round;" > 
<path d="M5644 3451 L5644 3451" /> 
</g><path d="M5659 3417 L5692 3417" /> 
<path d="M5692 3417 L5671 3467" /> 
<g style = "stroke-linecap:round;" > 
<path d="M5671 3467 L5671 3467" /> 
</g></g> 
</svg> 
