<?xml version="1.0" standalone="no"?>
<!DOCTYPE svg PUBLIC "-//W3C//DTD SVG 20010904//EN" 
"http://www.w3.org/TR/2001/REC-SVG-20010904/DTD/svg10.dtd"> 
<svg xmlns="http://www.w3.org/2000/svg" xmlns:xlink="http://www.w3.org/1999/xlink" 
    width="29.72cm" height="21.00cm" viewBox="0 0 117000 82670 "> 
<title>SVG Picture created as valve-hm-Back.svg </title>
<desc>Picture generated by wxSVG v0100 </desc>
<g style="fill:black; stroke:black; stroke-width:1">
</g>
<g style="fill:#000000; fill-opacity:0.0; stroke:#000000; stroke-opacity:1.00; stroke-linecap:round; stroke-linejoin:round; stroke-width:150" 
   transform="translate(0.00 0.00) scale(1.00 1.00)">
<path d="M48250 33750 L70950 33750" /> 
<path d="M48250 49300 L48250 33750" /> 
<path d="M70950 49300 L48250 49300" /> 
<path d="M70950 33750 L70950 49300" /> 
</g>
<g style="fill:#000000; fill-opacity:1.00; stroke:#000000; stroke-opacity:1.00; stroke-linecap:round; stroke-linejoin:round; stroke-width:0" 
   transform="translate(0.00 0.00) scale(1.00 1.00)">
<ellipse cx="66200" cy="38550" rx="590" ry="590"  /> 
</g>
<g style="fill:#000000; fill-opacity:1.00; stroke:#000000; stroke-opacity:1.00; stroke-linecap:round; stroke-linejoin:round; stroke-width:394" 
   transform="translate(0.00 0.00) scale(1.00 1.00)">
<path d="M66300 38450 L66200 38550" /> 
<path d="M68450 38450 L66300 38450" /> 
<path d="M69800 39800 L68450 38450" /> 
<path d="M69800 41850 L69800 39800" /> 
<path d="M69300 42350 L69800 41850" /> 
</g>
<g style="fill:#000000; fill-opacity:1.00; stroke:#000000; stroke-opacity:1.00; stroke-linecap:round; stroke-linejoin:round; stroke-width:0" 
   transform="translate(0.00 0.00) scale(1.00 1.00)">
<ellipse cx="66975" cy="42250" rx="590" ry="590"  /> 
</g>
<g style="fill:#000000; fill-opacity:1.00; stroke:#000000; stroke-opacity:1.00; stroke-linecap:round; stroke-linejoin:round; stroke-width:394" 
   transform="translate(0.00 0.00) scale(1.00 1.00)">
<path d="M67075 42350 L66975 42250" /> 
<path d="M69300 42350 L67075 42350" /> 
<path d="M57500 35875 L59625 35875" /> 
<path d="M60100 35750 L60900 34950" /> 
<path d="M60900 34950 L61975 34950" /> 
<path d="M61975 34950 L63500 36475" /> 
<path d="M63500 36475 L68800 36475" /> 
</g>
<g style="fill:#000000; fill-opacity:1.00; stroke:#000000; stroke-opacity:1.00; stroke-linecap:round; stroke-linejoin:round; stroke-width:0" 
   transform="translate(0.00 0.00) scale(1.00 1.00)">
<ellipse cx="68800" cy="36475" rx="590" ry="590"  /> 
</g>
<g style="fill:#000000; fill-opacity:1.00; stroke:#000000; stroke-opacity:1.00; stroke-linecap:round; stroke-linejoin:round; stroke-width:394" 
   transform="translate(0.00 0.00) scale(1.00 1.00)">
<path d="M59750 35750 L60100 35750" /> 
</g>
<g style="fill:#000000; fill-opacity:1.00; stroke:#000000; stroke-opacity:1.00; stroke-linecap:round; stroke-linejoin:round; stroke-width:0" 
   transform="translate(0.00 0.00) scale(1.00 1.00)">
<ellipse cx="53950" cy="42725" rx="590" ry="590"  /> 
</g>
<g style="fill:#000000; fill-opacity:1.00; stroke:#000000; stroke-opacity:1.00; stroke-linecap:round; stroke-linejoin:round; stroke-width:394" 
   transform="translate(0.00 0.00) scale(1.00 1.00)">
<path d="M53950 42725 L53925 42750" /> 
<path d="M53925 42750 L52875 42750" /> 
</g>
<g style="fill:#000000; fill-opacity:1.00; stroke:#000000; stroke-opacity:1.00; stroke-linecap:round; stroke-linejoin:round; stroke-width:0" 
   transform="translate(0.00 0.00) scale(1.00 1.00)">
<ellipse cx="59750" cy="35750" rx="590" ry="590"  /> 
</g>
<g style="fill:#000000; fill-opacity:1.00; stroke:#000000; stroke-opacity:1.00; stroke-linecap:round; stroke-linejoin:round; stroke-width:394" 
   transform="translate(0.00 0.00) scale(1.00 1.00)">
<path d="M59625 35875 L59750 35750" /> 
</g>
<g style="fill:#000000; fill-opacity:1.00; stroke:#000000; stroke-opacity:1.00; stroke-linecap:round; stroke-linejoin:round; stroke-width:0" 
   transform="translate(0.00 0.00) scale(1.00 1.00)">
<ellipse cx="68625" cy="46150" rx="590" ry="590"  /> 
</g>
<g style="fill:#000000; fill-opacity:1.00; stroke:#000000; stroke-opacity:1.00; stroke-linecap:round; stroke-linejoin:round; stroke-width:394" 
   transform="translate(0.00 0.00) scale(1.00 1.00)">
<path d="M68625 46150 L68575 46200" /> 
<path d="M68575 46200 L53625 46200" /> 
<path d="M53625 46200 L52875 45450" /> 
<path d="M52875 45450 L52875 42750" /> 
</g>
<g style="fill:#000000; fill-opacity:1.00; stroke:#000000; stroke-opacity:1.00; stroke-linecap:round; stroke-linejoin:round; stroke-width:0" 
   transform="translate(0.00 0.00) scale(1.00 1.00)">
<ellipse cx="57500" cy="35875" rx="590" ry="590"  /> 
</g>
<g style="fill:#000000; fill-opacity:1.00; stroke:#000000; stroke-opacity:1.00; stroke-linecap:round; stroke-linejoin:round; stroke-width:394" 
   transform="translate(0.00 0.00) scale(1.00 1.00)">
<path d="M55700 35875 L57500 35875" /> 
<path d="M52875 42750 L52875 38700" /> 
<path d="M52875 38700 L55700 35875" /> 
<path d="M66600 37575 L65775 37575" /> 
<path d="M63350 44950 L54650 44950" /> 
</g>
<g style="fill:#000000; fill-opacity:1.00; stroke:#000000; stroke-opacity:1.00; stroke-linecap:round; stroke-linejoin:round; stroke-width:0" 
   transform="translate(0.00 0.00) scale(1.00 1.00)">
<ellipse cx="54225" cy="44525" rx="590" ry="590"  /> 
</g>
<g style="fill:#000000; fill-opacity:1.00; stroke:#000000; stroke-opacity:1.00; stroke-linecap:round; stroke-linejoin:round; stroke-width:394" 
   transform="translate(0.00 0.00) scale(1.00 1.00)">
<path d="M54650 44950 L54225 44525" /> 
<path d="M64600 39250 L64600 43700" /> 
</g>
<g style="fill:#000000; fill-opacity:1.00; stroke:#000000; stroke-opacity:1.00; stroke-linecap:round; stroke-linejoin:round; stroke-width:0" 
   transform="translate(0.00 0.00) scale(1.00 1.00)">
<ellipse cx="63350" cy="44950" rx="590" ry="590"  /> 
</g>
<g style="fill:#000000; fill-opacity:1.00; stroke:#000000; stroke-opacity:1.00; stroke-linecap:round; stroke-linejoin:round; stroke-width:394" 
   transform="translate(0.00 0.00) scale(1.00 1.00)">
<path d="M64600 43700 L63350 44950" /> 
<path d="M59725 37575 L57350 37575" /> 
</g>
<g style="fill:#000000; fill-opacity:1.00; stroke:#000000; stroke-opacity:1.00; stroke-linecap:round; stroke-linejoin:round; stroke-width:0" 
   transform="translate(0.00 0.00) scale(1.00 1.00)">
<ellipse cx="57175" cy="37750" rx="590" ry="590"  /> 
</g>
<g style="fill:#000000; fill-opacity:1.00; stroke:#000000; stroke-opacity:1.00; stroke-linecap:round; stroke-linejoin:round; stroke-width:394" 
   transform="translate(0.00 0.00) scale(1.00 1.00)">
<path d="M57350 37575 L57175 37750" /> 
<path d="M59725 37575 L59700 37575" /> 
</g>
<g style="fill:#000000; fill-opacity:1.00; stroke:#000000; stroke-opacity:1.00; stroke-linecap:round; stroke-linejoin:round; stroke-width:0" 
   transform="translate(0.00 0.00) scale(1.00 1.00)">
<ellipse cx="58625" cy="38650" rx="590" ry="590"  /> 
</g>
<g style="fill:#000000; fill-opacity:1.00; stroke:#000000; stroke-opacity:1.00; stroke-linecap:round; stroke-linejoin:round; stroke-width:394" 
   transform="translate(0.00 0.00) scale(1.00 1.00)">
<path d="M59700 37575 L58625 38650" /> 
<path d="M65775 37575 L63125 37575" /> 
</g>
<g style="fill:#000000; fill-opacity:1.00; stroke:#000000; stroke-opacity:1.00; stroke-linecap:round; stroke-linejoin:round; stroke-width:0" 
   transform="translate(0.00 0.00) scale(1.00 1.00)">
<ellipse cx="61600" cy="36050" rx="590" ry="590"  /> 
</g>
<g style="fill:#000000; fill-opacity:1.00; stroke:#000000; stroke-opacity:1.00; stroke-linecap:round; stroke-linejoin:round; stroke-width:394" 
   transform="translate(0.00 0.00) scale(1.00 1.00)">
<path d="M63125 37575 L61600 36050" /> 
<path d="M70075 46075 L70075 42500" /> 
</g>
<g style="fill:#000000; fill-opacity:1.00; stroke:#000000; stroke-opacity:1.00; stroke-linecap:round; stroke-linejoin:round; stroke-width:0" 
   transform="translate(0.00 0.00) scale(1.00 1.00)">
<ellipse cx="64600" cy="39250" rx="590" ry="590"  /> 
<ellipse cx="70075" cy="46075" rx="590" ry="590"  /> 
</g>
<g style="fill:#000000; fill-opacity:1.00; stroke:#000000; stroke-opacity:1.00; stroke-linecap:round; stroke-linejoin:round; stroke-width:394" 
   transform="translate(0.00 0.00) scale(1.00 1.00)">
<path d="M64600 38750 L64600 39250" /> 
<path d="M65775 37575 L64600 38750" /> 
<path d="M66825 37800 L66600 37575" /> 
<path d="M68725 37800 L66825 37800" /> 
<path d="M70425 39500 L68725 37800" /> 
<path d="M70425 42150 L70425 39500" /> 
<path d="M70075 42500 L70425 42150" /> 
<path d="M63125 37575 L59725 37575" /> 
</g>
<g style="fill:#000000; fill-opacity:1.00; stroke:#000000; stroke-opacity:1.00; stroke-linecap:round; stroke-linejoin:round; stroke-width:100" 
   transform="translate(0.00 0.00) scale(1.00 1.00)">
<path d="M70625 48975 L70625 48975" /> 
<path d="M48575 48975 L70625 48975" /> 
<path d="M48575 34075 L48575 48975" /> 
<path d="M63619 34075 L48575 34075" /> 
<path d="M63591 34081 L63619 34075" /> 
<path d="M63502 34322 L63591 34081" /> 
<path d="M63512 34578 L63502 34322" /> 
<path d="M63591 34769 L63512 34578" /> 
<path d="M63710 34794 L63591 34769" /> 
<path d="M64044 34460 L63710 34794" /> 
<path d="M64079 34425 L64044 34460" /> 
<path d="M64150 34354 L64079 34425" /> 
<path d="M64221 34425 L64150 34354" /> 
<path d="M64256 34460 L64221 34425" /> 
<path d="M64590 34794 L64256 34460" /> 
<path d="M64709 34769 L64590 34794" /> 
<path d="M64798 34528 L64709 34769" /> 
<path d="M64788 34272 L64798 34528" /> 
<path d="M64709 34081 L64788 34272" /> 
<path d="M64680 34075 L64709 34081" /> 
<path d="M66024 34075 L64680 34075" /> 
<path d="M65952 34272 L66024 34075" /> 
<path d="M65962 34528 L65952 34272" /> 
<path d="M66041 34719 L65962 34528" /> 
<path d="M66160 34744 L66041 34719" /> 
<path d="M66494 34410 L66160 34744" /> 
<path d="M66529 34375 L66494 34410" /> 
<path d="M66600 34304 L66529 34375" /> 
<path d="M66671 34375 L66600 34304" /> 
<path d="M66706 34410 L66671 34375" /> 
<path d="M67040 34744 L66706 34410" /> 
<path d="M67159 34719 L67040 34744" /> 
<path d="M67248 34478 L67159 34719" /> 
<path d="M67238 34222 L67248 34478" /> 
<path d="M67177 34075 L67238 34222" /> 
<path d="M68608 34075 L67177 34075" /> 
<path d="M68527 34297 L68608 34075" /> 
<path d="M68537 34553 L68527 34297" /> 
<path d="M68616 34744 L68537 34553" /> 
<path d="M68735 34769 L68616 34744" /> 
<path d="M69069 34435 L68735 34769" /> 
<path d="M69104 34400 L69069 34435" /> 
<path d="M69175 34329 L69104 34400" /> 
<path d="M69246 34400 L69175 34329" /> 
<path d="M69281 34435 L69246 34400" /> 
<path d="M69615 34769 L69281 34435" /> 
<path d="M69734 34744 L69615 34769" /> 
<path d="M69823 34503 L69734 34744" /> 
<path d="M69813 34247 L69823 34503" /> 
<path d="M69741 34075 L69813 34247" /> 
<path d="M70625 34075 L69741 34075" /> 
<path d="M70625 39068 L70625 34075" /> 
<path d="M69755 38198 L70625 39068" /> 
<path d="M69755 35516 L69755 38198" /> 
<path d="M69755 35285 L69755 35516" /> 
<path d="M69667 35072 L69755 35285" /> 
<path d="M69525 34930 L69667 35072" /> 
<path d="M69544 34840 L69525 34930" /> 
<path d="M69175 34471 L69544 34840" /> 
<path d="M68806 34840 L69175 34471" /> 
<path d="M68824 34930 L68806 34840" /> 
<path d="M68684 35071 L68824 34930" /> 
<path d="M68595 35284 L68684 35071" /> 
<path d="M68595 35515 L68595 35284" /> 
<path d="M68683 35728 L68595 35515" /> 
<path d="M68846 35891 L68683 35728" /> 
<path d="M69059 35980 L68846 35891" /> 
<path d="M69290 35980 L69059 35980" /> 
<path d="M69503 35892 L69290 35980" /> 
<path d="M69666 35729 L69503 35892" /> 
<path d="M69755 35516 L69666 35729" /> 
<path d="M69755 38198 L69755 35516" /> 
<path d="M69041 37484 L69755 38198" /> 
<path d="M68896 37387 L69041 37484" /> 
<path d="M68725 37353 L68896 37387" /> 
<path d="M67180 37353 L68725 37353" /> 
<path d="M67180 35491 L67180 37353" /> 
<path d="M67180 35260 L67180 35491" /> 
<path d="M67092 35047 L67180 35260" /> 
<path d="M66950 34905 L67092 35047" /> 
<path d="M66969 34815 L66950 34905" /> 
<path d="M66600 34446 L66969 34815" /> 
<path d="M66231 34815 L66600 34446" /> 
<path d="M66249 34905 L66231 34815" /> 
<path d="M66109 35046 L66249 34905" /> 
<path d="M66020 35259 L66109 35046" /> 
<path d="M66020 35490 L66020 35259" /> 
<path d="M66108 35703 L66020 35490" /> 
<path d="M66271 35866 L66108 35703" /> 
<path d="M66484 35955 L66271 35866" /> 
<path d="M66715 35955 L66484 35955" /> 
<path d="M66928 35867 L66715 35955" /> 
<path d="M67091 35704 L66928 35867" /> 
<path d="M67180 35491 L67091 35704" /> 
<path d="M67180 37353 L67180 35491" /> 
<path d="M67010 37353 L67180 37353" /> 
<path d="M66916 37259 L67010 37353" /> 
<path d="M66771 37162 L66916 37259" /> 
<path d="M66600 37128 L66771 37162" /> 
<path d="M65775 37128 L66600 37128" /> 
<path d="M64730 37128 L65775 37128" /> 
<path d="M64730 35541 L64730 37128" /> 
<path d="M64730 35310 L64730 35541" /> 
<path d="M64642 35097 L64730 35310" /> 
<path d="M64500 34955 L64642 35097" /> 
<path d="M64519 34865 L64500 34955" /> 
<path d="M64150 34496 L64519 34865" /> 
<path d="M63781 34865 L64150 34496" /> 
<path d="M63799 34955 L63781 34865" /> 
<path d="M63659 35096 L63799 34955" /> 
<path d="M63570 35309 L63659 35096" /> 
<path d="M63570 35540 L63570 35309" /> 
<path d="M63658 35753 L63570 35540" /> 
<path d="M63821 35916 L63658 35753" /> 
<path d="M64034 36005 L63821 35916" /> 
<path d="M64265 36005 L64034 36005" /> 
<path d="M64478 35917 L64265 36005" /> 
<path d="M64641 35754 L64478 35917" /> 
<path d="M64730 35541 L64641 35754" /> 
<path d="M64730 37128 L64730 35541" /> 
<path d="M63310 37128 L64730 37128" /> 
<path d="M62428 36245 L63310 37128" /> 
<path d="M62440 36218 L62428 36245" /> 
<path d="M62440 35884 L62440 36218" /> 
<path d="M62313 35575 L62440 35884" /> 
<path d="M62077 35339 L62313 35575" /> 
<path d="M61768 35210 L62077 35339" /> 
<path d="M61434 35210 L61768 35210" /> 
<path d="M61125 35337 L61434 35210" /> 
<path d="M60889 35573 L61125 35337" /> 
<path d="M60760 35882 L60889 35573" /> 
<path d="M60760 36216 L60760 35882" /> 
<path d="M60887 36525 L60760 36216" /> 
<path d="M61123 36761 L60887 36525" /> 
<path d="M61432 36890 L61123 36761" /> 
<path d="M61766 36890 L61432 36890" /> 
<path d="M61795 36877 L61766 36890" /> 
<path d="M62045 37128 L61795 36877" /> 
<path d="M59725 37128 L62045 37128" /> 
<path d="M59700 37128 L59725 37128" /> 
<path d="M57741 37128 L59700 37128" /> 
<path d="M57652 37039 L57741 37128" /> 
<path d="M57343 36910 L57652 37039" /> 
<path d="M57009 36910 L57343 36910" /> 
<path d="M56700 37037 L57009 36910" /> 
<path d="M56464 37273 L56700 37037" /> 
<path d="M56335 37582 L56464 37273" /> 
<path d="M56335 37916 L56335 37582" /> 
<path d="M56462 38225 L56335 37916" /> 
<path d="M56698 38461 L56462 38225" /> 
<path d="M57007 38590 L56698 38461" /> 
<path d="M57341 38590 L57007 38590" /> 
<path d="M57650 38463 L57341 38590" /> 
<path d="M57886 38227 L57650 38463" /> 
<path d="M57971 38022 L57886 38227" /> 
<path d="M58065 38022 L57971 38022" /> 
<path d="M57914 38173 L58065 38022" /> 
<path d="M57785 38482 L57914 38173" /> 
<path d="M57785 38816 L57785 38482" /> 
<path d="M57912 39125 L57785 38816" /> 
<path d="M58148 39361 L57912 39125" /> 
<path d="M58457 39490 L58148 39361" /> 
<path d="M58791 39490 L58457 39490" /> 
<path d="M59100 39363 L58791 39490" /> 
<path d="M59336 39127 L59100 39363" /> 
<path d="M59465 38818 L59336 39127" /> 
<path d="M59465 38484 L59465 38818" /> 
<path d="M59452 38454 L59465 38484" /> 
<path d="M59885 38022 L59452 38454" /> 
<path d="M63125 38022 L59885 38022" /> 
<path d="M64695 38022 L63125 38022" /> 
<path d="M64284 38434 L64695 38022" /> 
<path d="M64249 38485 L64284 38434" /> 
<path d="M64125 38537 L64249 38485" /> 
<path d="M63889 38773 L64125 38537" /> 
<path d="M63760 39082 L63889 38773" /> 
<path d="M63760 39416 L63760 39082" /> 
<path d="M63887 39725 L63760 39416" /> 
<path d="M64123 39961 L63887 39725" /> 
<path d="M64153 39973 L64123 39961" /> 
<path d="M64153 43514 L64153 39973" /> 
<path d="M63545 44121 L64153 43514" /> 
<path d="M63518 44110 L63545 44121" /> 
<path d="M63184 44110 L63518 44110" /> 
<path d="M62875 44237 L63184 44110" /> 
<path d="M62639 44473 L62875 44237" /> 
<path d="M62626 44503 L62639 44473" /> 
<path d="M55065 44503 L62626 44503" /> 
<path d="M55065 44359 L55065 44503" /> 
<path d="M54938 44050 L55065 44359" /> 
<path d="M54702 43814 L54938 44050" /> 
<path d="M54393 43685 L54702 43814" /> 
<path d="M54059 43685 L54393 43685" /> 
<path d="M53750 43812 L54059 43685" /> 
<path d="M53514 44048 L53750 43812" /> 
<path d="M53385 44357 L53514 44048" /> 
<path d="M53385 44691 L53385 44357" /> 
<path d="M53512 45000 L53385 44691" /> 
<path d="M53748 45236 L53512 45000" /> 
<path d="M54057 45365 L53748 45236" /> 
<path d="M54391 45365 L54057 45365" /> 
<path d="M54447 45341 L54391 45365" /> 
<path d="M54479 45363 L54447 45341" /> 
<path d="M54650 45397 L54479 45363" /> 
<path d="M62625 45397 L54650 45397" /> 
<path d="M62637 45425 L62625 45397" /> 
<path d="M62873 45661 L62637 45425" /> 
<path d="M63182 45790 L62873 45661" /> 
<path d="M63516 45790 L63182 45790" /> 
<path d="M63825 45663 L63516 45790" /> 
<path d="M64061 45427 L63825 45663" /> 
<path d="M64190 45118 L64061 45427" /> 
<path d="M64190 44784 L64190 45118" /> 
<path d="M64177 44754 L64190 44784" /> 
<path d="M64916 44017 L64177 44754" /> 
<path d="M64916 44016 L64916 44017" /> 
<path d="M64980 43920 L64916 44016" /> 
<path d="M65012 43872 L64980 43920" /> 
<path d="M65013 43871 L65012 43872" /> 
<path d="M65046 43701 L65013 43871" /> 
<path d="M65047 43700 L65046 43701" /> 
<path d="M65047 39974 L65047 43700" /> 
<path d="M65075 39963 L65047 39974" /> 
<path d="M65311 39727 L65075 39963" /> 
<path d="M65440 39418 L65311 39727" /> 
<path d="M65440 39084 L65440 39418" /> 
<path d="M65313 38775 L65440 39084" /> 
<path d="M65260 38722 L65313 38775" /> 
<path d="M65360 38622 L65260 38722" /> 
<path d="M65360 38716 L65360 38622" /> 
<path d="M65487 39025 L65360 38716" /> 
<path d="M65723 39261 L65487 39025" /> 
<path d="M66032 39390 L65723 39261" /> 
<path d="M66366 39390 L66032 39390" /> 
<path d="M66675 39263 L66366 39390" /> 
<path d="M66911 39027 L66675 39263" /> 
<path d="M66965 38897 L66911 39027" /> 
<path d="M68265 38897 L66965 38897" /> 
<path d="M69353 39985 L68265 38897" /> 
<path d="M69353 41665 L69353 39985" /> 
<path d="M69115 41903 L69353 41665" /> 
<path d="M67740 41903 L69115 41903" /> 
<path d="M67688 41775 L67740 41903" /> 
<path d="M67452 41539 L67688 41775" /> 
<path d="M67143 41410 L67452 41539" /> 
<path d="M66809 41410 L67143 41410" /> 
<path d="M66500 41537 L66809 41410" /> 
<path d="M66264 41773 L66500 41537" /> 
<path d="M66135 42082 L66264 41773" /> 
<path d="M66135 42416 L66135 42082" /> 
<path d="M66262 42725 L66135 42416" /> 
<path d="M66498 42961 L66262 42725" /> 
<path d="M66807 43090 L66498 42961" /> 
<path d="M67141 43090 L66807 43090" /> 
<path d="M67450 42963 L67141 43090" /> 
<path d="M67616 42797 L67450 42963" /> 
<path d="M69300 42797 L67616 42797" /> 
<path d="M69471 42763 L69300 42797" /> 
<path d="M69616 42666 L69471 42763" /> 
<path d="M69628 42654 L69616 42666" /> 
<path d="M69628 45350 L69628 42654" /> 
<path d="M69600 45362 L69628 45350" /> 
<path d="M69364 45598 L69600 45362" /> 
<path d="M69235 45907 L69364 45598" /> 
<path d="M69235 46241 L69235 45907" /> 
<path d="M69362 46550 L69235 46241" /> 
<path d="M69598 46786 L69362 46550" /> 
<path d="M69907 46915 L69598 46786" /> 
<path d="M70241 46915 L69907 46915" /> 
<path d="M70550 46788 L70241 46915" /> 
<path d="M70625 46713 L70550 46788" /> 
<path d="M70625 48975 L70625 46713" /> 
</g>
<g style="fill:#000000; fill-opacity:1.00; stroke:#000000; stroke-opacity:1.00; stroke-linecap:round; stroke-linejoin:round; stroke-width:0" 
   transform="translate(0.00 0.00) scale(1.00 1.00)">
<polygon style="fill-rule:evenodd; " 
points="63591,34081
63502,34322
63512,34578
63591,34769
63710,34794
64044,34460
64079,34425
64150,34354
64221,34425
64256,34460
64590,34794
64709,34769
64798,34528
64788,34272
64709,34081
64680,34075
66024,34075
65952,34272
65962,34528
66041,34719
66160,34744
66494,34410
66529,34375
66600,34304
66671,34375
66706,34410
67040,34744
67159,34719
67248,34478
67238,34222
67177,34075
68608,34075
68527,34297
68537,34553
68616,34744
68735,34769
69069,34435
69104,34400
69175,34329
69246,34400
69281,34435
69615,34769
69734,34744
69823,34503
69813,34247
69741,34075
70625,34075
70625,39068
69755,38198
69755,35516
69755,35285
69667,35072
69525,34930
69544,34840
69175,34471
68806,34840
68824,34930
68684,35071
68595,35284
68595,35515
68683,35728
68846,35891
69059,35980
69290,35980
69503,35892
69666,35729
69755,35516
69755,38198
69041,37484
68896,37387
68725,37353
67180,37353
67180,35491
67180,35260
67092,35047
66950,34905
66969,34815
66600,34446
66231,34815
66249,34905
66109,35046
66020,35259
66020,35490
66108,35703
66271,35866
66484,35955
66715,35955
66928,35867
67091,35704
67180,35491
67180,37353
67010,37353
66916,37259
66771,37162
66600,37128
65775,37128
64730,37128
64730,35541
64730,35310
64642,35097
64500,34955
64519,34865
64150,34496
63781,34865
63799,34955
63659,35096
63570,35309
63570,35540
63658,35753
63821,35916
64034,36005
64265,36005
64478,35917
64641,35754
64730,35541
64730,37128
63310,37128
62428,36245
62440,36218
62440,35884
62313,35575
62077,35339
61768,35210
61434,35210
61125,35337
60889,35573
60760,35882
60760,36216
60887,36525
61123,36761
61432,36890
61766,36890
61795,36877
62045,37128
59725,37128
59700,37128
57741,37128
57652,37039
57343,36910
57009,36910
56700,37037
56464,37273
56335,37582
56335,37916
56462,38225
56698,38461
57007,38590
57341,38590
57650,38463
57886,38227
57971,38022
58065,38022
57914,38173
57785,38482
57785,38816
57912,39125
58148,39361
58457,39490
58791,39490
59100,39363
59336,39127
59465,38818
59465,38484
59452,38454
59885,38022
63125,38022
64695,38022
64284,38434
64249,38485
64125,38537
63889,38773
63760,39082
63760,39416
63887,39725
64123,39961
64153,39973
64153,43514
63545,44121
63518,44110
63184,44110
62875,44237
62639,44473
62626,44503
55065,44503
55065,44359
54938,44050
54702,43814
54393,43685
54059,43685
53750,43812
53514,44048
53385,44357
53385,44691
53512,45000
53748,45236
54057,45365
54391,45365
54447,45341
54479,45363
54650,45397
62625,45397
62637,45425
62873,45661
63182,45790
63516,45790
63825,45663
64061,45427
64190,45118
64190,44784
64177,44754
64916,44017
64916,44016
64980,43920
65012,43872
65013,43871
65046,43701
65047,43700
65047,39974
65075,39963
65311,39727
65440,39418
65440,39084
65313,38775
65260,38722
65360,38622
65360,38716
65487,39025
65723,39261
66032,39390
66366,39390
66675,39263
66911,39027
66965,38897
68265,38897
69353,39985
69353,41665
69115,41903
67740,41903
67688,41775
67452,41539
67143,41410
66809,41410
66500,41537
66264,41773
66135,42082
66135,42416
66262,42725
66498,42961
66807,43090
67141,43090
67450,42963
67616,42797
69300,42797
69471,42763
69616,42666
69628,42654
69628,45350
69600,45362
69364,45598
69235,45907
69235,46241
69362,46550
69598,46786
69907,46915
70241,46915
70550,46788
70625,46713
70625,48975
70625,48975
48575,48975
48575,34075
63619,34075
" /> 
<ellipse cx="69175" cy="35400" rx="330" ry="330"  /> 
</g>
<g style="fill:#FFFFFF; fill-opacity:1.00; stroke:#808000; stroke-opacity:1.00; stroke-linecap:round; stroke-linejoin:round; stroke-width:0" 
   transform="translate(0.00 0.00) scale(1.00 1.00)">
<ellipse cx="69175" cy="35400" rx="160" ry="160"  /> 
</g>
<g style="fill:#000000; fill-opacity:1.00; stroke:#000000; stroke-opacity:1.00; stroke-linecap:round; stroke-linejoin:round; stroke-width:0" 
   transform="translate(0.00 0.00) scale(1.00 1.00)">
<ellipse cx="69175" cy="34400" rx="330" ry="330"  /> 
</g>
<g style="fill:#FFFFFF; fill-opacity:1.00; stroke:#808000; stroke-opacity:1.00; stroke-linecap:round; stroke-linejoin:round; stroke-width:0" 
   transform="translate(0.00 0.00) scale(1.00 1.00)">
<ellipse cx="69175" cy="34400" rx="160" ry="160"  /> 
</g>
<g style="fill:#000000; fill-opacity:1.00; stroke:#000000; stroke-opacity:1.00; stroke-linecap:round; stroke-linejoin:round; stroke-width:0" 
   transform="translate(0.00 0.00) scale(1.00 1.00)">
<ellipse cx="66600" cy="35375" rx="330" ry="330"  /> 
</g>
<g style="fill:#FFFFFF; fill-opacity:1.00; stroke:#808000; stroke-opacity:1.00; stroke-linecap:round; stroke-linejoin:round; stroke-width:0" 
   transform="translate(0.00 0.00) scale(1.00 1.00)">
<ellipse cx="66600" cy="35375" rx="160" ry="160"  /> 
</g>
<g style="fill:#000000; fill-opacity:1.00; stroke:#000000; stroke-opacity:1.00; stroke-linecap:round; stroke-linejoin:round; stroke-width:0" 
   transform="translate(0.00 0.00) scale(1.00 1.00)">
<ellipse cx="66600" cy="34375" rx="330" ry="330"  /> 
</g>
<g style="fill:#FFFFFF; fill-opacity:1.00; stroke:#808000; stroke-opacity:1.00; stroke-linecap:round; stroke-linejoin:round; stroke-width:0" 
   transform="translate(0.00 0.00) scale(1.00 1.00)">
<ellipse cx="66600" cy="34375" rx="160" ry="160"  /> 
</g>
<g style="fill:#000000; fill-opacity:1.00; stroke:#000000; stroke-opacity:1.00; stroke-linecap:round; stroke-linejoin:round; stroke-width:0" 
   transform="translate(0.00 0.00) scale(1.00 1.00)">
<ellipse cx="64150" cy="35425" rx="330" ry="330"  /> 
</g>
<g style="fill:#FFFFFF; fill-opacity:1.00; stroke:#808000; stroke-opacity:1.00; stroke-linecap:round; stroke-linejoin:round; stroke-width:0" 
   transform="translate(0.00 0.00) scale(1.00 1.00)">
<ellipse cx="64150" cy="35425" rx="160" ry="160"  /> 
</g>
<g style="fill:#000000; fill-opacity:1.00; stroke:#000000; stroke-opacity:1.00; stroke-linecap:round; stroke-linejoin:round; stroke-width:0" 
   transform="translate(0.00 0.00) scale(1.00 1.00)">
<ellipse cx="64150" cy="34425" rx="330" ry="330"  /> 
</g>
<g style="fill:#FFFFFF; fill-opacity:1.00; stroke:#808000; stroke-opacity:1.00; stroke-linecap:round; stroke-linejoin:round; stroke-width:0" 
   transform="translate(0.00 0.00) scale(1.00 1.00)">
<ellipse cx="64150" cy="34425" rx="160" ry="160"  /> 
</g>
<g style="fill:#FFFFFF; fill-opacity:1.00; stroke:#FFFFFF; stroke-opacity:1.00; stroke-linecap:round; stroke-linejoin:round; stroke-width:0" 
   transform="translate(0.00 0.00) scale(1.00 1.00)">
<ellipse cx="66200" cy="38550" rx="29" ry="29"  /> 
<ellipse cx="66975" cy="42250" rx="29" ry="29"  /> 
<ellipse cx="68800" cy="36475" rx="29" ry="29"  /> 
<ellipse cx="53950" cy="42725" rx="29" ry="29"  /> 
<ellipse cx="59750" cy="35750" rx="29" ry="29"  /> 
<ellipse cx="68625" cy="46150" rx="29" ry="29"  /> 
<ellipse cx="57500" cy="35875" rx="29" ry="29"  /> 
<ellipse cx="54225" cy="44525" rx="29" ry="29"  /> 
<ellipse cx="63350" cy="44950" rx="29" ry="29"  /> 
<ellipse cx="57175" cy="37750" rx="29" ry="29"  /> 
<ellipse cx="58625" cy="38650" rx="29" ry="29"  /> 
<ellipse cx="61600" cy="36050" rx="29" ry="29"  /> 
<ellipse cx="64600" cy="39250" rx="29" ry="29"  /> 
<ellipse cx="70075" cy="46075" rx="29" ry="29"  /> 
</g> 
</svg> 
