<?xml version="1.0" standalone="no"?>
<!DOCTYPE svg PUBLIC "-//W3C//DTD SVG 20010904//EN" 
"http://www.w3.org/TR/2001/REC-SVG-20010904/DTD/svg10.dtd"> 
<svg xmlns="http://www.w3.org/2000/svg" xmlns:xlink="http://www.w3.org/1999/xlink" 
    width="29.72cm" height="21.00cm" viewBox="0 0 11700 8267 "> 
<title>SVG Picture created as cable-i2c.svg </title>
<desc>Picture generated by wxSVG v0100 </desc>
<g style="fill:black; stroke:black; stroke-width:1">
</g>
<g style="fill:#000000; fill-opacity:0.0; stroke:#000000; stroke-opacity:1.00; stroke-linecap:round; stroke-linejoin:round; stroke-width:6" 
   transform="translate(0.00 0.00) scale(1.00 1.00)">
<polygon style="fill-rule:evenodd; " 
points="4250,2250
4250,2250
4250,2550
4050,2550
4050,2250
" /> 
<ellipse cx="4285" cy="2300" rx="35" ry="35"  /> 
<path d="M4320 2300 L4500 2300" /> 
<path d="M4393 2284 L4358 2284" /> 
<g style = "stroke-linecap:round;" > 
<path d="M4358 2284 L4358 2284" /> 
</g><path d="M4376 2284 L4376 2224" /> 
<path d="M4376 2224 L4370 2233" /> 
<path d="M4370 2233 L4364 2239" /> 
<path d="M4364 2239 L4358 2241" /> 
<g style = "stroke-linecap:round;" > 
<path d="M4358 2241 L4358 2241" /> 
</g><ellipse cx="4285" cy="2500" rx="35" ry="35"  /> 
<path d="M4320 2500 L4500 2500" /> 
<path d="M4358 2430 L4361 2427" /> 
<path d="M4361 2427 L4367 2424" /> 
<path d="M4367 2424 L4381 2424" /> 
<path d="M4381 2424 L4387 2427" /> 
<path d="M4387 2427 L4390 2430" /> 
<path d="M4390 2430 L4393 2436" /> 
<path d="M4393 2436 L4393 2441" /> 
<path d="M4393 2441 L4390 2450" /> 
<path d="M4390 2450 L4356 2484" /> 
<path d="M4356 2484 L4393 2484" /> 
<g style = "stroke-linecap:round;" > 
<path d="M4393 2484 L4393 2484" /> 
</g><path d="M4219 2427 L4179 2427" /> 
<path d="M4179 2427 L4179 2412" /> 
<path d="M4179 2412 L4181 2408" /> 
<path d="M4181 2408 L4183 2407" /> 
<path d="M4183 2407 L4187 2405" /> 
<path d="M4187 2405 L4193 2405" /> 
<path d="M4193 2405 L4196 2407" /> 
<path d="M4196 2407 L4198 2408" /> 
<path d="M4198 2408 L4200 2412" /> 
<path d="M4200 2412 L4200 2427" /> 
<g style = "stroke-linecap:round;" > 
<path d="M4200 2427 L4200 2427" /> 
</g><path d="M4215 2382 L4217 2380" /> 
<path d="M4217 2380 L4219 2382" /> 
<path d="M4219 2382 L4217 2384" /> 
<path d="M4217 2384 L4215 2382" /> 
<path d="M4215 2382 L4219 2382" /> 
<g style = "stroke-linecap:round;" > 
<path d="M4219 2382 L4219 2382" /> 
</g><path d="M4181 2389 L4179 2386" /> 
<path d="M4179 2386 L4179 2376" /> 
<path d="M4179 2376 L4181 2372" /> 
<path d="M4181 2372 L4185 2370" /> 
<path d="M4185 2370 L4189 2370" /> 
<path d="M4189 2370 L4193 2372" /> 
<path d="M4193 2372 L4194 2374" /> 
<path d="M4194 2374 L4196 2378" /> 
<path d="M4196 2378 L4198 2380" /> 
<path d="M4198 2380 L4202 2382" /> 
<path d="M4202 2382 L4204 2382" /> 
<g style = "stroke-linecap:round;" > 
<path d="M4204 2382 L4204 2382" /> 
</g><path d="M4115 2485 L4117 2487" /> 
<path d="M4117 2487 L4119 2492" /> 
<path d="M4119 2492 L4119 2496" /> 
<path d="M4119 2496 L4117 2502" /> 
<path d="M4117 2502 L4113 2506" /> 
<path d="M4113 2506 L4110 2507" /> 
<path d="M4110 2507 L4102 2509" /> 
<path d="M4102 2509 L4096 2509" /> 
<path d="M4096 2509 L4089 2507" /> 
<path d="M4089 2507 L4085 2506" /> 
<path d="M4085 2506 L4081 2502" /> 
<path d="M4081 2502 L4079 2496" /> 
<path d="M4079 2496 L4079 2492" /> 
<path d="M4079 2492 L4081 2487" /> 
<path d="M4081 2487 L4083 2485" /> 
<g style = "stroke-linecap:round;" > 
<path d="M4083 2485 L4083 2485" /> 
</g><path d="M4079 2460 L4079 2452" /> 
<path d="M4079 2452 L4081 2448" /> 
<path d="M4081 2448 L4085 2445" /> 
<path d="M4085 2445 L4093 2443" /> 
<path d="M4093 2443 L4106 2443" /> 
<path d="M4106 2443 L4113 2445" /> 
<path d="M4113 2445 L4117 2448" /> 
<path d="M4117 2448 L4119 2452" /> 
<path d="M4119 2452 L4119 2460" /> 
<path d="M4119 2460 L4117 2464" /> 
<path d="M4117 2464 L4113 2467" /> 
<path d="M4113 2467 L4106 2469" /> 
<path d="M4106 2469 L4093 2469" /> 
<path d="M4093 2469 L4085 2467" /> 
<path d="M4085 2467 L4081 2464" /> 
<path d="M4081 2464 L4079 2460" /> 
<path d="M4119 2425 L4079 2425" /> 
<path d="M4079 2425 L4119 2403" /> 
<path d="M4119 2403 L4079 2403" /> 
<g style = "stroke-linecap:round;" > 
<path d="M4079 2403 L4079 2403" /> 
</g><path d="M4119 2383 L4079 2383" /> 
<path d="M4079 2383 L4119 2361" /> 
<path d="M4119 2361 L4079 2361" /> 
<g style = "stroke-linecap:round;" > 
<path d="M4079 2361 L4079 2361" /> 
</g><path d="M4123 2351 L4123 2321" /> 
<g style = "stroke-linecap:round;" > 
<path d="M4123 2321 L4123 2321" /> 
</g><path d="M4083 2313 L4081 2311" /> 
<path d="M4081 2311 L4079 2308" /> 
<path d="M4079 2308 L4079 2298" /> 
<path d="M4079 2298 L4081 2294" /> 
<path d="M4081 2294 L4083 2292" /> 
<path d="M4083 2292 L4087 2291" /> 
<path d="M4087 2291 L4091 2291" /> 
<path d="M4091 2291 L4096 2292" /> 
<path d="M4096 2292 L4119 2315" /> 
<path d="M4119 2315 L4119 2291" /> 
<g style = "stroke-linecap:round;" > 
<path d="M4119 2291 L4119 2291" /> 
</g><path d="M4500 2300 L4800 2300" /> 
<path d="M4500 2500 L4800 2500" /> 
<path d="M4661 2281 L4667 2284" /> 
<path d="M4667 2284 L4679 2284" /> 
<path d="M4679 2284 L4684 2281" /> 
<path d="M4684 2281 L4687 2276" /> 
<path d="M4687 2276 L4687 2273" /> 
<path d="M4687 2273 L4684 2267" /> 
<path d="M4684 2267 L4679 2264" /> 
<path d="M4679 2264 L4670 2264" /> 
<path d="M4670 2264 L4664 2261" /> 
<path d="M4664 2261 L4661 2256" /> 
<path d="M4661 2256 L4661 2253" /> 
<path d="M4661 2253 L4664 2247" /> 
<path d="M4664 2247 L4670 2244" /> 
<path d="M4670 2244 L4679 2244" /> 
<path d="M4679 2244 L4684 2247" /> 
<g style = "stroke-linecap:round;" > 
<path d="M4684 2247 L4684 2247" /> 
</g><path d="M4739 2281 L4733 2284" /> 
<path d="M4733 2284 L4722 2284" /> 
<path d="M4722 2284 L4716 2281" /> 
<path d="M4716 2281 L4713 2279" /> 
<path d="M4713 2279 L4710 2273" /> 
<path d="M4710 2273 L4710 2256" /> 
<path d="M4710 2256 L4713 2250" /> 
<path d="M4713 2250 L4716 2247" /> 
<path d="M4716 2247 L4722 2244" /> 
<path d="M4722 2244 L4733 2244" /> 
<path d="M4733 2244 L4739 2247" /> 
<g style = "stroke-linecap:round;" > 
<path d="M4739 2247 L4739 2247" /> 
</g><path d="M4773 2284 L4767 2281" /> 
<path d="M4767 2281 L4764 2276" /> 
<path d="M4764 2276 L4764 2224" /> 
<g style = "stroke-linecap:round;" > 
<path d="M4764 2224 L4764 2224" /> 
</g><path d="M4661 2481 L4667 2484" /> 
<path d="M4667 2484 L4679 2484" /> 
<path d="M4679 2484 L4684 2481" /> 
<path d="M4684 2481 L4687 2476" /> 
<path d="M4687 2476 L4687 2473" /> 
<path d="M4687 2473 L4684 2467" /> 
<path d="M4684 2467 L4679 2464" /> 
<path d="M4679 2464 L4670 2464" /> 
<path d="M4670 2464 L4664 2461" /> 
<path d="M4664 2461 L4661 2456" /> 
<path d="M4661 2456 L4661 2453" /> 
<path d="M4661 2453 L4664 2447" /> 
<path d="M4664 2447 L4670 2444" /> 
<path d="M4670 2444 L4679 2444" /> 
<path d="M4679 2444 L4684 2447" /> 
<g style = "stroke-linecap:round;" > 
<path d="M4684 2447 L4684 2447" /> 
</g><path d="M4739 2484 L4739 2424" /> 
<g style = "stroke-linecap:round;" > 
<path d="M4739 2424 L4739 2424" /> 
</g><path d="M4739 2481 L4733 2484" /> 
<path d="M4733 2484 L4722 2484" /> 
<path d="M4722 2484 L4716 2481" /> 
<path d="M4716 2481 L4713 2479" /> 
<path d="M4713 2479 L4710 2473" /> 
<path d="M4710 2473 L4710 2456" /> 
<path d="M4710 2456 L4713 2450" /> 
<path d="M4713 2450 L4716 2447" /> 
<path d="M4716 2447 L4722 2444" /> 
<path d="M4722 2444 L4733 2444" /> 
<path d="M4733 2444 L4739 2447" /> 
<g style = "stroke-linecap:round;" > 
<path d="M4739 2447 L4739 2447" /> 
</g><path d="M4793 2484 L4793 2453" /> 
<path d="M4793 2453 L4790 2447" /> 
<path d="M4790 2447 L4784 2444" /> 
<path d="M4784 2444 L4773 2444" /> 
<path d="M4773 2444 L4767 2447" /> 
<g style = "stroke-linecap:round;" > 
<path d="M4767 2447 L4767 2447" /> 
</g><path d="M4793 2481 L4787 2484" /> 
<path d="M4787 2484 L4773 2484" /> 
<path d="M4773 2484 L4767 2481" /> 
<path d="M4767 2481 L4764 2476" /> 
<path d="M4764 2476 L4764 2470" /> 
<path d="M4764 2470 L4767 2464" /> 
<path d="M4767 2464 L4773 2461" /> 
<path d="M4773 2461 L4787 2461" /> 
<path d="M4787 2461 L4793 2459" /> 
<g style = "stroke-linecap:round;" > 
<path d="M4793 2459 L4793 2459" /> 
</g><path d="M4661 2981 L4667 2984" /> 
<path d="M4667 2984 L4679 2984" /> 
<path d="M4679 2984 L4684 2981" /> 
<path d="M4684 2981 L4687 2976" /> 
<path d="M4687 2976 L4687 2973" /> 
<path d="M4687 2973 L4684 2967" /> 
<path d="M4684 2967 L4679 2964" /> 
<path d="M4679 2964 L4670 2964" /> 
<path d="M4670 2964 L4664 2961" /> 
<path d="M4664 2961 L4661 2956" /> 
<path d="M4661 2956 L4661 2953" /> 
<path d="M4661 2953 L4664 2947" /> 
<path d="M4664 2947 L4670 2944" /> 
<path d="M4670 2944 L4679 2944" /> 
<path d="M4679 2944 L4684 2947" /> 
<g style = "stroke-linecap:round;" > 
<path d="M4684 2947 L4684 2947" /> 
</g><path d="M4739 2984 L4739 2924" /> 
<g style = "stroke-linecap:round;" > 
<path d="M4739 2924 L4739 2924" /> 
</g><path d="M4739 2981 L4733 2984" /> 
<path d="M4733 2984 L4722 2984" /> 
<path d="M4722 2984 L4716 2981" /> 
<path d="M4716 2981 L4713 2979" /> 
<path d="M4713 2979 L4710 2973" /> 
<path d="M4710 2973 L4710 2956" /> 
<path d="M4710 2956 L4713 2950" /> 
<path d="M4713 2950 L4716 2947" /> 
<path d="M4716 2947 L4722 2944" /> 
<path d="M4722 2944 L4733 2944" /> 
<path d="M4733 2944 L4739 2947" /> 
<g style = "stroke-linecap:round;" > 
<path d="M4739 2947 L4739 2947" /> 
</g><path d="M4793 2984 L4793 2953" /> 
<path d="M4793 2953 L4790 2947" /> 
<path d="M4790 2947 L4784 2944" /> 
<path d="M4784 2944 L4773 2944" /> 
<path d="M4773 2944 L4767 2947" /> 
<g style = "stroke-linecap:round;" > 
<path d="M4767 2947 L4767 2947" /> 
</g><path d="M4793 2981 L4787 2984" /> 
<path d="M4787 2984 L4773 2984" /> 
<path d="M4773 2984 L4767 2981" /> 
<path d="M4767 2981 L4764 2976" /> 
<path d="M4764 2976 L4764 2970" /> 
<path d="M4764 2970 L4767 2964" /> 
<path d="M4767 2964 L4773 2961" /> 
<path d="M4773 2961 L4787 2961" /> 
<path d="M4787 2961 L4793 2959" /> 
<g style = "stroke-linecap:round;" > 
<path d="M4793 2959 L4793 2959" /> 
</g><path d="M4661 2781 L4667 2784" /> 
<path d="M4667 2784 L4679 2784" /> 
<path d="M4679 2784 L4684 2781" /> 
<path d="M4684 2781 L4687 2776" /> 
<path d="M4687 2776 L4687 2773" /> 
<path d="M4687 2773 L4684 2767" /> 
<path d="M4684 2767 L4679 2764" /> 
<path d="M4679 2764 L4670 2764" /> 
<path d="M4670 2764 L4664 2761" /> 
<path d="M4664 2761 L4661 2756" /> 
<path d="M4661 2756 L4661 2753" /> 
<path d="M4661 2753 L4664 2747" /> 
<path d="M4664 2747 L4670 2744" /> 
<path d="M4670 2744 L4679 2744" /> 
<path d="M4679 2744 L4684 2747" /> 
<g style = "stroke-linecap:round;" > 
<path d="M4684 2747 L4684 2747" /> 
</g><path d="M4739 2781 L4733 2784" /> 
<path d="M4733 2784 L4722 2784" /> 
<path d="M4722 2784 L4716 2781" /> 
<path d="M4716 2781 L4713 2779" /> 
<path d="M4713 2779 L4710 2773" /> 
<path d="M4710 2773 L4710 2756" /> 
<path d="M4710 2756 L4713 2750" /> 
<path d="M4713 2750 L4716 2747" /> 
<path d="M4716 2747 L4722 2744" /> 
<path d="M4722 2744 L4733 2744" /> 
<path d="M4733 2744 L4739 2747" /> 
<g style = "stroke-linecap:round;" > 
<path d="M4739 2747 L4739 2747" /> 
</g><path d="M4773 2784 L4767 2781" /> 
<path d="M4767 2781 L4764 2776" /> 
<path d="M4764 2776 L4764 2724" /> 
<g style = "stroke-linecap:round;" > 
<path d="M4764 2724 L4764 2724" /> 
</g><path d="M4500 3000 L4800 3000" /> 
<path d="M4500 2800 L4800 2800" /> 
<polygon style="fill-rule:evenodd; " 
points="4250,2750
4250,2750
4250,3050
4050,3050
4050,2750
" /> 
<ellipse cx="4285" cy="2800" rx="35" ry="35"  /> 
<path d="M4320 2800 L4500 2800" /> 
<path d="M4393 2784 L4358 2784" /> 
<g style = "stroke-linecap:round;" > 
<path d="M4358 2784 L4358 2784" /> 
</g><path d="M4376 2784 L4376 2724" /> 
<path d="M4376 2724 L4370 2733" /> 
<path d="M4370 2733 L4364 2739" /> 
<path d="M4364 2739 L4358 2741" /> 
<g style = "stroke-linecap:round;" > 
<path d="M4358 2741 L4358 2741" /> 
</g><ellipse cx="4285" cy="3000" rx="35" ry="35"  /> 
<path d="M4320 3000 L4500 3000" /> 
<path d="M4358 2930 L4361 2927" /> 
<path d="M4361 2927 L4367 2924" /> 
<path d="M4367 2924 L4381 2924" /> 
<path d="M4381 2924 L4387 2927" /> 
<path d="M4387 2927 L4390 2930" /> 
<path d="M4390 2930 L4393 2936" /> 
<path d="M4393 2936 L4393 2941" /> 
<path d="M4393 2941 L4390 2950" /> 
<path d="M4390 2950 L4356 2984" /> 
<path d="M4356 2984 L4393 2984" /> 
<g style = "stroke-linecap:round;" > 
<path d="M4393 2984 L4393 2984" /> 
</g><path d="M4219 2927 L4179 2927" /> 
<path d="M4179 2927 L4179 2912" /> 
<path d="M4179 2912 L4181 2908" /> 
<path d="M4181 2908 L4183 2907" /> 
<path d="M4183 2907 L4187 2905" /> 
<path d="M4187 2905 L4193 2905" /> 
<path d="M4193 2905 L4196 2907" /> 
<path d="M4196 2907 L4198 2908" /> 
<path d="M4198 2908 L4200 2912" /> 
<path d="M4200 2912 L4200 2927" /> 
<g style = "stroke-linecap:round;" > 
<path d="M4200 2927 L4200 2927" /> 
</g><path d="M4215 2882 L4217 2880" /> 
<path d="M4217 2880 L4219 2882" /> 
<path d="M4219 2882 L4217 2884" /> 
<path d="M4217 2884 L4215 2882" /> 
<path d="M4215 2882 L4219 2882" /> 
<g style = "stroke-linecap:round;" > 
<path d="M4219 2882 L4219 2882" /> 
</g><path d="M4181 2889 L4179 2886" /> 
<path d="M4179 2886 L4179 2876" /> 
<path d="M4179 2876 L4181 2872" /> 
<path d="M4181 2872 L4185 2870" /> 
<path d="M4185 2870 L4189 2870" /> 
<path d="M4189 2870 L4193 2872" /> 
<path d="M4193 2872 L4194 2874" /> 
<path d="M4194 2874 L4196 2878" /> 
<path d="M4196 2878 L4198 2880" /> 
<path d="M4198 2880 L4202 2882" /> 
<path d="M4202 2882 L4204 2882" /> 
<g style = "stroke-linecap:round;" > 
<path d="M4204 2882 L4204 2882" /> 
</g><path d="M4115 2985 L4117 2987" /> 
<path d="M4117 2987 L4119 2992" /> 
<path d="M4119 2992 L4119 2996" /> 
<path d="M4119 2996 L4117 3002" /> 
<path d="M4117 3002 L4113 3006" /> 
<path d="M4113 3006 L4110 3007" /> 
<path d="M4110 3007 L4102 3009" /> 
<path d="M4102 3009 L4096 3009" /> 
<path d="M4096 3009 L4089 3007" /> 
<path d="M4089 3007 L4085 3006" /> 
<path d="M4085 3006 L4081 3002" /> 
<path d="M4081 3002 L4079 2996" /> 
<path d="M4079 2996 L4079 2992" /> 
<path d="M4079 2992 L4081 2987" /> 
<path d="M4081 2987 L4083 2985" /> 
<g style = "stroke-linecap:round;" > 
<path d="M4083 2985 L4083 2985" /> 
</g><path d="M4079 2960 L4079 2952" /> 
<path d="M4079 2952 L4081 2948" /> 
<path d="M4081 2948 L4085 2945" /> 
<path d="M4085 2945 L4093 2943" /> 
<path d="M4093 2943 L4106 2943" /> 
<path d="M4106 2943 L4113 2945" /> 
<path d="M4113 2945 L4117 2948" /> 
<path d="M4117 2948 L4119 2952" /> 
<path d="M4119 2952 L4119 2960" /> 
<path d="M4119 2960 L4117 2964" /> 
<path d="M4117 2964 L4113 2967" /> 
<path d="M4113 2967 L4106 2969" /> 
<path d="M4106 2969 L4093 2969" /> 
<path d="M4093 2969 L4085 2967" /> 
<path d="M4085 2967 L4081 2964" /> 
<path d="M4081 2964 L4079 2960" /> 
<path d="M4119 2925 L4079 2925" /> 
<path d="M4079 2925 L4119 2903" /> 
<path d="M4119 2903 L4079 2903" /> 
<g style = "stroke-linecap:round;" > 
<path d="M4079 2903 L4079 2903" /> 
</g><path d="M4119 2883 L4079 2883" /> 
<path d="M4079 2883 L4119 2861" /> 
<path d="M4119 2861 L4079 2861" /> 
<g style = "stroke-linecap:round;" > 
<path d="M4079 2861 L4079 2861" /> 
</g><path d="M4123 2851 L4123 2821" /> 
<g style = "stroke-linecap:round;" > 
<path d="M4123 2821 L4123 2821" /> 
</g><path d="M4083 2813 L4081 2811" /> 
<path d="M4081 2811 L4079 2808" /> 
<path d="M4079 2808 L4079 2798" /> 
<path d="M4079 2798 L4081 2794" /> 
<path d="M4081 2794 L4083 2792" /> 
<path d="M4083 2792 L4087 2791" /> 
<path d="M4087 2791 L4091 2791" /> 
<path d="M4091 2791 L4096 2792" /> 
<path d="M4096 2792 L4119 2815" /> 
<path d="M4119 2815 L4119 2791" /> 
<g style = "stroke-linecap:round;" > 
<path d="M4119 2791 L4119 2791" /> 
</g><polygon style="fill-rule:evenodd; " 
points="4250,4250
4250,4250
4250,4550
4050,4550
4050,4250
" /> 
<ellipse cx="4285" cy="4300" rx="35" ry="35"  /> 
<path d="M4320 4300 L4500 4300" /> 
<path d="M4393 4284 L4358 4284" /> 
<g style = "stroke-linecap:round;" > 
<path d="M4358 4284 L4358 4284" /> 
</g><path d="M4376 4284 L4376 4224" /> 
<path d="M4376 4224 L4370 4233" /> 
<path d="M4370 4233 L4364 4239" /> 
<path d="M4364 4239 L4358 4241" /> 
<g style = "stroke-linecap:round;" > 
<path d="M4358 4241 L4358 4241" /> 
</g><ellipse cx="4285" cy="4500" rx="35" ry="35"  /> 
<path d="M4320 4500 L4500 4500" /> 
<path d="M4358 4430 L4361 4427" /> 
<path d="M4361 4427 L4367 4424" /> 
<path d="M4367 4424 L4381 4424" /> 
<path d="M4381 4424 L4387 4427" /> 
<path d="M4387 4427 L4390 4430" /> 
<path d="M4390 4430 L4393 4436" /> 
<path d="M4393 4436 L4393 4441" /> 
<path d="M4393 4441 L4390 4450" /> 
<path d="M4390 4450 L4356 4484" /> 
<path d="M4356 4484 L4393 4484" /> 
<g style = "stroke-linecap:round;" > 
<path d="M4393 4484 L4393 4484" /> 
</g><path d="M4219 4427 L4179 4427" /> 
<path d="M4179 4427 L4179 4412" /> 
<path d="M4179 4412 L4181 4408" /> 
<path d="M4181 4408 L4183 4407" /> 
<path d="M4183 4407 L4187 4405" /> 
<path d="M4187 4405 L4193 4405" /> 
<path d="M4193 4405 L4196 4407" /> 
<path d="M4196 4407 L4198 4408" /> 
<path d="M4198 4408 L4200 4412" /> 
<path d="M4200 4412 L4200 4427" /> 
<g style = "stroke-linecap:round;" > 
<path d="M4200 4427 L4200 4427" /> 
</g><path d="M4215 4382 L4217 4380" /> 
<path d="M4217 4380 L4219 4382" /> 
<path d="M4219 4382 L4217 4384" /> 
<path d="M4217 4384 L4215 4382" /> 
<path d="M4215 4382 L4219 4382" /> 
<g style = "stroke-linecap:round;" > 
<path d="M4219 4382 L4219 4382" /> 
</g><path d="M4181 4389 L4179 4386" /> 
<path d="M4179 4386 L4179 4376" /> 
<path d="M4179 4376 L4181 4372" /> 
<path d="M4181 4372 L4185 4370" /> 
<path d="M4185 4370 L4189 4370" /> 
<path d="M4189 4370 L4193 4372" /> 
<path d="M4193 4372 L4194 4374" /> 
<path d="M4194 4374 L4196 4378" /> 
<path d="M4196 4378 L4198 4380" /> 
<path d="M4198 4380 L4202 4382" /> 
<path d="M4202 4382 L4204 4382" /> 
<g style = "stroke-linecap:round;" > 
<path d="M4204 4382 L4204 4382" /> 
</g><path d="M4115 4485 L4117 4487" /> 
<path d="M4117 4487 L4119 4492" /> 
<path d="M4119 4492 L4119 4496" /> 
<path d="M4119 4496 L4117 4502" /> 
<path d="M4117 4502 L4113 4506" /> 
<path d="M4113 4506 L4110 4507" /> 
<path d="M4110 4507 L4102 4509" /> 
<path d="M4102 4509 L4096 4509" /> 
<path d="M4096 4509 L4089 4507" /> 
<path d="M4089 4507 L4085 4506" /> 
<path d="M4085 4506 L4081 4502" /> 
<path d="M4081 4502 L4079 4496" /> 
<path d="M4079 4496 L4079 4492" /> 
<path d="M4079 4492 L4081 4487" /> 
<path d="M4081 4487 L4083 4485" /> 
<g style = "stroke-linecap:round;" > 
<path d="M4083 4485 L4083 4485" /> 
</g><path d="M4079 4460 L4079 4452" /> 
<path d="M4079 4452 L4081 4448" /> 
<path d="M4081 4448 L4085 4445" /> 
<path d="M4085 4445 L4093 4443" /> 
<path d="M4093 4443 L4106 4443" /> 
<path d="M4106 4443 L4113 4445" /> 
<path d="M4113 4445 L4117 4448" /> 
<path d="M4117 4448 L4119 4452" /> 
<path d="M4119 4452 L4119 4460" /> 
<path d="M4119 4460 L4117 4464" /> 
<path d="M4117 4464 L4113 4467" /> 
<path d="M4113 4467 L4106 4469" /> 
<path d="M4106 4469 L4093 4469" /> 
<path d="M4093 4469 L4085 4467" /> 
<path d="M4085 4467 L4081 4464" /> 
<path d="M4081 4464 L4079 4460" /> 
<path d="M4119 4425 L4079 4425" /> 
<path d="M4079 4425 L4119 4403" /> 
<path d="M4119 4403 L4079 4403" /> 
<g style = "stroke-linecap:round;" > 
<path d="M4079 4403 L4079 4403" /> 
</g><path d="M4119 4383 L4079 4383" /> 
<path d="M4079 4383 L4119 4361" /> 
<path d="M4119 4361 L4079 4361" /> 
<g style = "stroke-linecap:round;" > 
<path d="M4079 4361 L4079 4361" /> 
</g><path d="M4123 4351 L4123 4321" /> 
<g style = "stroke-linecap:round;" > 
<path d="M4123 4321 L4123 4321" /> 
</g><path d="M4083 4313 L4081 4311" /> 
<path d="M4081 4311 L4079 4308" /> 
<path d="M4079 4308 L4079 4298" /> 
<path d="M4079 4298 L4081 4294" /> 
<path d="M4081 4294 L4083 4292" /> 
<path d="M4083 4292 L4087 4291" /> 
<path d="M4087 4291 L4091 4291" /> 
<path d="M4091 4291 L4096 4292" /> 
<path d="M4096 4292 L4119 4315" /> 
<path d="M4119 4315 L4119 4291" /> 
<g style = "stroke-linecap:round;" > 
<path d="M4119 4291 L4119 4291" /> 
</g><path d="M4500 4300 L4800 4300" /> 
<path d="M4500 4500 L4800 4500" /> 
<path d="M4661 4281 L4667 4284" /> 
<path d="M4667 4284 L4679 4284" /> 
<path d="M4679 4284 L4684 4281" /> 
<path d="M4684 4281 L4687 4276" /> 
<path d="M4687 4276 L4687 4273" /> 
<path d="M4687 4273 L4684 4267" /> 
<path d="M4684 4267 L4679 4264" /> 
<path d="M4679 4264 L4670 4264" /> 
<path d="M4670 4264 L4664 4261" /> 
<path d="M4664 4261 L4661 4256" /> 
<path d="M4661 4256 L4661 4253" /> 
<path d="M4661 4253 L4664 4247" /> 
<path d="M4664 4247 L4670 4244" /> 
<path d="M4670 4244 L4679 4244" /> 
<path d="M4679 4244 L4684 4247" /> 
<g style = "stroke-linecap:round;" > 
<path d="M4684 4247 L4684 4247" /> 
</g><path d="M4739 4281 L4733 4284" /> 
<path d="M4733 4284 L4722 4284" /> 
<path d="M4722 4284 L4716 4281" /> 
<path d="M4716 4281 L4713 4279" /> 
<path d="M4713 4279 L4710 4273" /> 
<path d="M4710 4273 L4710 4256" /> 
<path d="M4710 4256 L4713 4250" /> 
<path d="M4713 4250 L4716 4247" /> 
<path d="M4716 4247 L4722 4244" /> 
<path d="M4722 4244 L4733 4244" /> 
<path d="M4733 4244 L4739 4247" /> 
<g style = "stroke-linecap:round;" > 
<path d="M4739 4247 L4739 4247" /> 
</g><path d="M4773 4284 L4767 4281" /> 
<path d="M4767 4281 L4764 4276" /> 
<path d="M4764 4276 L4764 4224" /> 
<g style = "stroke-linecap:round;" > 
<path d="M4764 4224 L4764 4224" /> 
</g><path d="M4661 4481 L4667 4484" /> 
<path d="M4667 4484 L4679 4484" /> 
<path d="M4679 4484 L4684 4481" /> 
<path d="M4684 4481 L4687 4476" /> 
<path d="M4687 4476 L4687 4473" /> 
<path d="M4687 4473 L4684 4467" /> 
<path d="M4684 4467 L4679 4464" /> 
<path d="M4679 4464 L4670 4464" /> 
<path d="M4670 4464 L4664 4461" /> 
<path d="M4664 4461 L4661 4456" /> 
<path d="M4661 4456 L4661 4453" /> 
<path d="M4661 4453 L4664 4447" /> 
<path d="M4664 4447 L4670 4444" /> 
<path d="M4670 4444 L4679 4444" /> 
<path d="M4679 4444 L4684 4447" /> 
<g style = "stroke-linecap:round;" > 
<path d="M4684 4447 L4684 4447" /> 
</g><path d="M4739 4484 L4739 4424" /> 
<g style = "stroke-linecap:round;" > 
<path d="M4739 4424 L4739 4424" /> 
</g><path d="M4739 4481 L4733 4484" /> 
<path d="M4733 4484 L4722 4484" /> 
<path d="M4722 4484 L4716 4481" /> 
<path d="M4716 4481 L4713 4479" /> 
<path d="M4713 4479 L4710 4473" /> 
<path d="M4710 4473 L4710 4456" /> 
<path d="M4710 4456 L4713 4450" /> 
<path d="M4713 4450 L4716 4447" /> 
<path d="M4716 4447 L4722 4444" /> 
<path d="M4722 4444 L4733 4444" /> 
<path d="M4733 4444 L4739 4447" /> 
<g style = "stroke-linecap:round;" > 
<path d="M4739 4447 L4739 4447" /> 
</g><path d="M4793 4484 L4793 4453" /> 
<path d="M4793 4453 L4790 4447" /> 
<path d="M4790 4447 L4784 4444" /> 
<path d="M4784 4444 L4773 4444" /> 
<path d="M4773 4444 L4767 4447" /> 
<g style = "stroke-linecap:round;" > 
<path d="M4767 4447 L4767 4447" /> 
</g><path d="M4793 4481 L4787 4484" /> 
<path d="M4787 4484 L4773 4484" /> 
<path d="M4773 4484 L4767 4481" /> 
<path d="M4767 4481 L4764 4476" /> 
<path d="M4764 4476 L4764 4470" /> 
<path d="M4764 4470 L4767 4464" /> 
<path d="M4767 4464 L4773 4461" /> 
<path d="M4773 4461 L4787 4461" /> 
<path d="M4787 4461 L4793 4459" /> 
<g style = "stroke-linecap:round;" > 
<path d="M4793 4459 L4793 4459" /> 
</g><path d="M4661 4981 L4667 4984" /> 
<path d="M4667 4984 L4679 4984" /> 
<path d="M4679 4984 L4684 4981" /> 
<path d="M4684 4981 L4687 4976" /> 
<path d="M4687 4976 L4687 4973" /> 
<path d="M4687 4973 L4684 4967" /> 
<path d="M4684 4967 L4679 4964" /> 
<path d="M4679 4964 L4670 4964" /> 
<path d="M4670 4964 L4664 4961" /> 
<path d="M4664 4961 L4661 4956" /> 
<path d="M4661 4956 L4661 4953" /> 
<path d="M4661 4953 L4664 4947" /> 
<path d="M4664 4947 L4670 4944" /> 
<path d="M4670 4944 L4679 4944" /> 
<path d="M4679 4944 L4684 4947" /> 
<g style = "stroke-linecap:round;" > 
<path d="M4684 4947 L4684 4947" /> 
</g><path d="M4739 4984 L4739 4924" /> 
<g style = "stroke-linecap:round;" > 
<path d="M4739 4924 L4739 4924" /> 
</g><path d="M4739 4981 L4733 4984" /> 
<path d="M4733 4984 L4722 4984" /> 
<path d="M4722 4984 L4716 4981" /> 
<path d="M4716 4981 L4713 4979" /> 
<path d="M4713 4979 L4710 4973" /> 
<path d="M4710 4973 L4710 4956" /> 
<path d="M4710 4956 L4713 4950" /> 
<path d="M4713 4950 L4716 4947" /> 
<path d="M4716 4947 L4722 4944" /> 
<path d="M4722 4944 L4733 4944" /> 
<path d="M4733 4944 L4739 4947" /> 
<g style = "stroke-linecap:round;" > 
<path d="M4739 4947 L4739 4947" /> 
</g><path d="M4793 4984 L4793 4953" /> 
<path d="M4793 4953 L4790 4947" /> 
<path d="M4790 4947 L4784 4944" /> 
<path d="M4784 4944 L4773 4944" /> 
<path d="M4773 4944 L4767 4947" /> 
<g style = "stroke-linecap:round;" > 
<path d="M4767 4947 L4767 4947" /> 
</g><path d="M4793 4981 L4787 4984" /> 
<path d="M4787 4984 L4773 4984" /> 
<path d="M4773 4984 L4767 4981" /> 
<path d="M4767 4981 L4764 4976" /> 
<path d="M4764 4976 L4764 4970" /> 
<path d="M4764 4970 L4767 4964" /> 
<path d="M4767 4964 L4773 4961" /> 
<path d="M4773 4961 L4787 4961" /> 
<path d="M4787 4961 L4793 4959" /> 
<g style = "stroke-linecap:round;" > 
<path d="M4793 4959 L4793 4959" /> 
</g><path d="M4661 4781 L4667 4784" /> 
<path d="M4667 4784 L4679 4784" /> 
<path d="M4679 4784 L4684 4781" /> 
<path d="M4684 4781 L4687 4776" /> 
<path d="M4687 4776 L4687 4773" /> 
<path d="M4687 4773 L4684 4767" /> 
<path d="M4684 4767 L4679 4764" /> 
<path d="M4679 4764 L4670 4764" /> 
<path d="M4670 4764 L4664 4761" /> 
<path d="M4664 4761 L4661 4756" /> 
<path d="M4661 4756 L4661 4753" /> 
<path d="M4661 4753 L4664 4747" /> 
<path d="M4664 4747 L4670 4744" /> 
<path d="M4670 4744 L4679 4744" /> 
<path d="M4679 4744 L4684 4747" /> 
<g style = "stroke-linecap:round;" > 
<path d="M4684 4747 L4684 4747" /> 
</g><path d="M4739 4781 L4733 4784" /> 
<path d="M4733 4784 L4722 4784" /> 
<path d="M4722 4784 L4716 4781" /> 
<path d="M4716 4781 L4713 4779" /> 
<path d="M4713 4779 L4710 4773" /> 
<path d="M4710 4773 L4710 4756" /> 
<path d="M4710 4756 L4713 4750" /> 
<path d="M4713 4750 L4716 4747" /> 
<path d="M4716 4747 L4722 4744" /> 
<path d="M4722 4744 L4733 4744" /> 
<path d="M4733 4744 L4739 4747" /> 
<g style = "stroke-linecap:round;" > 
<path d="M4739 4747 L4739 4747" /> 
</g><path d="M4773 4784 L4767 4781" /> 
<path d="M4767 4781 L4764 4776" /> 
<path d="M4764 4776 L4764 4724" /> 
<g style = "stroke-linecap:round;" > 
<path d="M4764 4724 L4764 4724" /> 
</g><path d="M4500 5000 L4800 5000" /> 
<path d="M4500 4800 L4800 4800" /> 
<polygon style="fill-rule:evenodd; " 
points="4250,4750
4250,4750
4250,5050
4050,5050
4050,4750
" /> 
<ellipse cx="4285" cy="4800" rx="35" ry="35"  /> 
<path d="M4320 4800 L4500 4800" /> 
<path d="M4393 4784 L4358 4784" /> 
<g style = "stroke-linecap:round;" > 
<path d="M4358 4784 L4358 4784" /> 
</g><path d="M4376 4784 L4376 4724" /> 
<path d="M4376 4724 L4370 4733" /> 
<path d="M4370 4733 L4364 4739" /> 
<path d="M4364 4739 L4358 4741" /> 
<g style = "stroke-linecap:round;" > 
<path d="M4358 4741 L4358 4741" /> 
</g><ellipse cx="4285" cy="5000" rx="35" ry="35"  /> 
<path d="M4320 5000 L4500 5000" /> 
<path d="M4358 4930 L4361 4927" /> 
<path d="M4361 4927 L4367 4924" /> 
<path d="M4367 4924 L4381 4924" /> 
<path d="M4381 4924 L4387 4927" /> 
<path d="M4387 4927 L4390 4930" /> 
<path d="M4390 4930 L4393 4936" /> 
<path d="M4393 4936 L4393 4941" /> 
<path d="M4393 4941 L4390 4950" /> 
<path d="M4390 4950 L4356 4984" /> 
<path d="M4356 4984 L4393 4984" /> 
<g style = "stroke-linecap:round;" > 
<path d="M4393 4984 L4393 4984" /> 
</g><path d="M4219 4927 L4179 4927" /> 
<path d="M4179 4927 L4179 4912" /> 
<path d="M4179 4912 L4181 4908" /> 
<path d="M4181 4908 L4183 4907" /> 
<path d="M4183 4907 L4187 4905" /> 
<path d="M4187 4905 L4193 4905" /> 
<path d="M4193 4905 L4196 4907" /> 
<path d="M4196 4907 L4198 4908" /> 
<path d="M4198 4908 L4200 4912" /> 
<path d="M4200 4912 L4200 4927" /> 
<g style = "stroke-linecap:round;" > 
<path d="M4200 4927 L4200 4927" /> 
</g><path d="M4215 4882 L4217 4880" /> 
<path d="M4217 4880 L4219 4882" /> 
<path d="M4219 4882 L4217 4884" /> 
<path d="M4217 4884 L4215 4882" /> 
<path d="M4215 4882 L4219 4882" /> 
<g style = "stroke-linecap:round;" > 
<path d="M4219 4882 L4219 4882" /> 
</g><path d="M4181 4889 L4179 4886" /> 
<path d="M4179 4886 L4179 4876" /> 
<path d="M4179 4876 L4181 4872" /> 
<path d="M4181 4872 L4185 4870" /> 
<path d="M4185 4870 L4189 4870" /> 
<path d="M4189 4870 L4193 4872" /> 
<path d="M4193 4872 L4194 4874" /> 
<path d="M4194 4874 L4196 4878" /> 
<path d="M4196 4878 L4198 4880" /> 
<path d="M4198 4880 L4202 4882" /> 
<path d="M4202 4882 L4204 4882" /> 
<g style = "stroke-linecap:round;" > 
<path d="M4204 4882 L4204 4882" /> 
</g><path d="M4115 4985 L4117 4987" /> 
<path d="M4117 4987 L4119 4992" /> 
<path d="M4119 4992 L4119 4996" /> 
<path d="M4119 4996 L4117 5002" /> 
<path d="M4117 5002 L4113 5006" /> 
<path d="M4113 5006 L4110 5007" /> 
<path d="M4110 5007 L4102 5009" /> 
<path d="M4102 5009 L4096 5009" /> 
<path d="M4096 5009 L4089 5007" /> 
<path d="M4089 5007 L4085 5006" /> 
<path d="M4085 5006 L4081 5002" /> 
<path d="M4081 5002 L4079 4996" /> 
<path d="M4079 4996 L4079 4992" /> 
<path d="M4079 4992 L4081 4987" /> 
<path d="M4081 4987 L4083 4985" /> 
<g style = "stroke-linecap:round;" > 
<path d="M4083 4985 L4083 4985" /> 
</g><path d="M4079 4960 L4079 4952" /> 
<path d="M4079 4952 L4081 4948" /> 
<path d="M4081 4948 L4085 4945" /> 
<path d="M4085 4945 L4093 4943" /> 
<path d="M4093 4943 L4106 4943" /> 
<path d="M4106 4943 L4113 4945" /> 
<path d="M4113 4945 L4117 4948" /> 
<path d="M4117 4948 L4119 4952" /> 
<path d="M4119 4952 L4119 4960" /> 
<path d="M4119 4960 L4117 4964" /> 
<path d="M4117 4964 L4113 4967" /> 
<path d="M4113 4967 L4106 4969" /> 
<path d="M4106 4969 L4093 4969" /> 
<path d="M4093 4969 L4085 4967" /> 
<path d="M4085 4967 L4081 4964" /> 
<path d="M4081 4964 L4079 4960" /> 
<path d="M4119 4925 L4079 4925" /> 
<path d="M4079 4925 L4119 4903" /> 
<path d="M4119 4903 L4079 4903" /> 
<g style = "stroke-linecap:round;" > 
<path d="M4079 4903 L4079 4903" /> 
</g><path d="M4119 4883 L4079 4883" /> 
<path d="M4079 4883 L4119 4861" /> 
<path d="M4119 4861 L4079 4861" /> 
<g style = "stroke-linecap:round;" > 
<path d="M4079 4861 L4079 4861" /> 
</g><path d="M4123 4851 L4123 4821" /> 
<g style = "stroke-linecap:round;" > 
<path d="M4123 4821 L4123 4821" /> 
</g><path d="M4083 4813 L4081 4811" /> 
<path d="M4081 4811 L4079 4808" /> 
<path d="M4079 4808 L4079 4798" /> 
<path d="M4079 4798 L4081 4794" /> 
<path d="M4081 4794 L4083 4792" /> 
<path d="M4083 4792 L4087 4791" /> 
<path d="M4087 4791 L4091 4791" /> 
<path d="M4091 4791 L4096 4792" /> 
<path d="M4096 4792 L4119 4815" /> 
<path d="M4119 4815 L4119 4791" /> 
<g style = "stroke-linecap:round;" > 
<path d="M4119 4791 L4119 4791" /> 
</g><polygon style="fill-rule:evenodd; " 
points="4250,3750
4250,3750
4250,4050
4050,4050
4050,3750
" /> 
<ellipse cx="4285" cy="3800" rx="35" ry="35"  /> 
<path d="M4320 3800 L4500 3800" /> 
<path d="M4393 3784 L4358 3784" /> 
<g style = "stroke-linecap:round;" > 
<path d="M4358 3784 L4358 3784" /> 
</g><path d="M4376 3784 L4376 3724" /> 
<path d="M4376 3724 L4370 3733" /> 
<path d="M4370 3733 L4364 3739" /> 
<path d="M4364 3739 L4358 3741" /> 
<g style = "stroke-linecap:round;" > 
<path d="M4358 3741 L4358 3741" /> 
</g><ellipse cx="4285" cy="4000" rx="35" ry="35"  /> 
<path d="M4320 4000 L4500 4000" /> 
<path d="M4358 3930 L4361 3927" /> 
<path d="M4361 3927 L4367 3924" /> 
<path d="M4367 3924 L4381 3924" /> 
<path d="M4381 3924 L4387 3927" /> 
<path d="M4387 3927 L4390 3930" /> 
<path d="M4390 3930 L4393 3936" /> 
<path d="M4393 3936 L4393 3941" /> 
<path d="M4393 3941 L4390 3950" /> 
<path d="M4390 3950 L4356 3984" /> 
<path d="M4356 3984 L4393 3984" /> 
<g style = "stroke-linecap:round;" > 
<path d="M4393 3984 L4393 3984" /> 
</g><path d="M4219 3927 L4179 3927" /> 
<path d="M4179 3927 L4179 3912" /> 
<path d="M4179 3912 L4181 3908" /> 
<path d="M4181 3908 L4183 3907" /> 
<path d="M4183 3907 L4187 3905" /> 
<path d="M4187 3905 L4193 3905" /> 
<path d="M4193 3905 L4196 3907" /> 
<path d="M4196 3907 L4198 3908" /> 
<path d="M4198 3908 L4200 3912" /> 
<path d="M4200 3912 L4200 3927" /> 
<g style = "stroke-linecap:round;" > 
<path d="M4200 3927 L4200 3927" /> 
</g><path d="M4215 3882 L4217 3880" /> 
<path d="M4217 3880 L4219 3882" /> 
<path d="M4219 3882 L4217 3884" /> 
<path d="M4217 3884 L4215 3882" /> 
<path d="M4215 3882 L4219 3882" /> 
<g style = "stroke-linecap:round;" > 
<path d="M4219 3882 L4219 3882" /> 
</g><path d="M4181 3889 L4179 3886" /> 
<path d="M4179 3886 L4179 3876" /> 
<path d="M4179 3876 L4181 3872" /> 
<path d="M4181 3872 L4185 3870" /> 
<path d="M4185 3870 L4189 3870" /> 
<path d="M4189 3870 L4193 3872" /> 
<path d="M4193 3872 L4194 3874" /> 
<path d="M4194 3874 L4196 3878" /> 
<path d="M4196 3878 L4198 3880" /> 
<path d="M4198 3880 L4202 3882" /> 
<path d="M4202 3882 L4204 3882" /> 
<g style = "stroke-linecap:round;" > 
<path d="M4204 3882 L4204 3882" /> 
</g><path d="M4115 3985 L4117 3987" /> 
<path d="M4117 3987 L4119 3992" /> 
<path d="M4119 3992 L4119 3996" /> 
<path d="M4119 3996 L4117 4002" /> 
<path d="M4117 4002 L4113 4006" /> 
<path d="M4113 4006 L4110 4007" /> 
<path d="M4110 4007 L4102 4009" /> 
<path d="M4102 4009 L4096 4009" /> 
<path d="M4096 4009 L4089 4007" /> 
<path d="M4089 4007 L4085 4006" /> 
<path d="M4085 4006 L4081 4002" /> 
<path d="M4081 4002 L4079 3996" /> 
<path d="M4079 3996 L4079 3992" /> 
<path d="M4079 3992 L4081 3987" /> 
<path d="M4081 3987 L4083 3985" /> 
<g style = "stroke-linecap:round;" > 
<path d="M4083 3985 L4083 3985" /> 
</g><path d="M4079 3960 L4079 3952" /> 
<path d="M4079 3952 L4081 3948" /> 
<path d="M4081 3948 L4085 3945" /> 
<path d="M4085 3945 L4093 3943" /> 
<path d="M4093 3943 L4106 3943" /> 
<path d="M4106 3943 L4113 3945" /> 
<path d="M4113 3945 L4117 3948" /> 
<path d="M4117 3948 L4119 3952" /> 
<path d="M4119 3952 L4119 3960" /> 
<path d="M4119 3960 L4117 3964" /> 
<path d="M4117 3964 L4113 3967" /> 
<path d="M4113 3967 L4106 3969" /> 
<path d="M4106 3969 L4093 3969" /> 
<path d="M4093 3969 L4085 3967" /> 
<path d="M4085 3967 L4081 3964" /> 
<path d="M4081 3964 L4079 3960" /> 
<path d="M4119 3925 L4079 3925" /> 
<path d="M4079 3925 L4119 3903" /> 
<path d="M4119 3903 L4079 3903" /> 
<g style = "stroke-linecap:round;" > 
<path d="M4079 3903 L4079 3903" /> 
</g><path d="M4119 3883 L4079 3883" /> 
<path d="M4079 3883 L4119 3861" /> 
<path d="M4119 3861 L4079 3861" /> 
<g style = "stroke-linecap:round;" > 
<path d="M4079 3861 L4079 3861" /> 
</g><path d="M4123 3851 L4123 3821" /> 
<g style = "stroke-linecap:round;" > 
<path d="M4123 3821 L4123 3821" /> 
</g><path d="M4083 3813 L4081 3811" /> 
<path d="M4081 3811 L4079 3808" /> 
<path d="M4079 3808 L4079 3798" /> 
<path d="M4079 3798 L4081 3794" /> 
<path d="M4081 3794 L4083 3792" /> 
<path d="M4083 3792 L4087 3791" /> 
<path d="M4087 3791 L4091 3791" /> 
<path d="M4091 3791 L4096 3792" /> 
<path d="M4096 3792 L4119 3815" /> 
<path d="M4119 3815 L4119 3791" /> 
<g style = "stroke-linecap:round;" > 
<path d="M4119 3791 L4119 3791" /> 
</g><path d="M4500 3800 L4800 3800" /> 
<path d="M4500 4000 L4800 4000" /> 
<path d="M4661 3781 L4667 3784" /> 
<path d="M4667 3784 L4679 3784" /> 
<path d="M4679 3784 L4684 3781" /> 
<path d="M4684 3781 L4687 3776" /> 
<path d="M4687 3776 L4687 3773" /> 
<path d="M4687 3773 L4684 3767" /> 
<path d="M4684 3767 L4679 3764" /> 
<path d="M4679 3764 L4670 3764" /> 
<path d="M4670 3764 L4664 3761" /> 
<path d="M4664 3761 L4661 3756" /> 
<path d="M4661 3756 L4661 3753" /> 
<path d="M4661 3753 L4664 3747" /> 
<path d="M4664 3747 L4670 3744" /> 
<path d="M4670 3744 L4679 3744" /> 
<path d="M4679 3744 L4684 3747" /> 
<g style = "stroke-linecap:round;" > 
<path d="M4684 3747 L4684 3747" /> 
</g><path d="M4739 3781 L4733 3784" /> 
<path d="M4733 3784 L4722 3784" /> 
<path d="M4722 3784 L4716 3781" /> 
<path d="M4716 3781 L4713 3779" /> 
<path d="M4713 3779 L4710 3773" /> 
<path d="M4710 3773 L4710 3756" /> 
<path d="M4710 3756 L4713 3750" /> 
<path d="M4713 3750 L4716 3747" /> 
<path d="M4716 3747 L4722 3744" /> 
<path d="M4722 3744 L4733 3744" /> 
<path d="M4733 3744 L4739 3747" /> 
<g style = "stroke-linecap:round;" > 
<path d="M4739 3747 L4739 3747" /> 
</g><path d="M4773 3784 L4767 3781" /> 
<path d="M4767 3781 L4764 3776" /> 
<path d="M4764 3776 L4764 3724" /> 
<g style = "stroke-linecap:round;" > 
<path d="M4764 3724 L4764 3724" /> 
</g><path d="M4661 3981 L4667 3984" /> 
<path d="M4667 3984 L4679 3984" /> 
<path d="M4679 3984 L4684 3981" /> 
<path d="M4684 3981 L4687 3976" /> 
<path d="M4687 3976 L4687 3973" /> 
<path d="M4687 3973 L4684 3967" /> 
<path d="M4684 3967 L4679 3964" /> 
<path d="M4679 3964 L4670 3964" /> 
<path d="M4670 3964 L4664 3961" /> 
<path d="M4664 3961 L4661 3956" /> 
<path d="M4661 3956 L4661 3953" /> 
<path d="M4661 3953 L4664 3947" /> 
<path d="M4664 3947 L4670 3944" /> 
<path d="M4670 3944 L4679 3944" /> 
<path d="M4679 3944 L4684 3947" /> 
<g style = "stroke-linecap:round;" > 
<path d="M4684 3947 L4684 3947" /> 
</g><path d="M4739 3984 L4739 3924" /> 
<g style = "stroke-linecap:round;" > 
<path d="M4739 3924 L4739 3924" /> 
</g><path d="M4739 3981 L4733 3984" /> 
<path d="M4733 3984 L4722 3984" /> 
<path d="M4722 3984 L4716 3981" /> 
<path d="M4716 3981 L4713 3979" /> 
<path d="M4713 3979 L4710 3973" /> 
<path d="M4710 3973 L4710 3956" /> 
<path d="M4710 3956 L4713 3950" /> 
<path d="M4713 3950 L4716 3947" /> 
<path d="M4716 3947 L4722 3944" /> 
<path d="M4722 3944 L4733 3944" /> 
<path d="M4733 3944 L4739 3947" /> 
<g style = "stroke-linecap:round;" > 
<path d="M4739 3947 L4739 3947" /> 
</g><path d="M4793 3984 L4793 3953" /> 
<path d="M4793 3953 L4790 3947" /> 
<path d="M4790 3947 L4784 3944" /> 
<path d="M4784 3944 L4773 3944" /> 
<path d="M4773 3944 L4767 3947" /> 
<g style = "stroke-linecap:round;" > 
<path d="M4767 3947 L4767 3947" /> 
</g><path d="M4793 3981 L4787 3984" /> 
<path d="M4787 3984 L4773 3984" /> 
<path d="M4773 3984 L4767 3981" /> 
<path d="M4767 3981 L4764 3976" /> 
<path d="M4764 3976 L4764 3970" /> 
<path d="M4764 3970 L4767 3964" /> 
<path d="M4767 3964 L4773 3961" /> 
<path d="M4773 3961 L4787 3961" /> 
<path d="M4787 3961 L4793 3959" /> 
<g style = "stroke-linecap:round;" > 
<path d="M4793 3959 L4793 3959" /> 
</g><path d="M4661 3481 L4667 3484" /> 
<path d="M4667 3484 L4679 3484" /> 
<path d="M4679 3484 L4684 3481" /> 
<path d="M4684 3481 L4687 3476" /> 
<path d="M4687 3476 L4687 3473" /> 
<path d="M4687 3473 L4684 3467" /> 
<path d="M4684 3467 L4679 3464" /> 
<path d="M4679 3464 L4670 3464" /> 
<path d="M4670 3464 L4664 3461" /> 
<path d="M4664 3461 L4661 3456" /> 
<path d="M4661 3456 L4661 3453" /> 
<path d="M4661 3453 L4664 3447" /> 
<path d="M4664 3447 L4670 3444" /> 
<path d="M4670 3444 L4679 3444" /> 
<path d="M4679 3444 L4684 3447" /> 
<g style = "stroke-linecap:round;" > 
<path d="M4684 3447 L4684 3447" /> 
</g><path d="M4739 3484 L4739 3424" /> 
<g style = "stroke-linecap:round;" > 
<path d="M4739 3424 L4739 3424" /> 
</g><path d="M4739 3481 L4733 3484" /> 
<path d="M4733 3484 L4722 3484" /> 
<path d="M4722 3484 L4716 3481" /> 
<path d="M4716 3481 L4713 3479" /> 
<path d="M4713 3479 L4710 3473" /> 
<path d="M4710 3473 L4710 3456" /> 
<path d="M4710 3456 L4713 3450" /> 
<path d="M4713 3450 L4716 3447" /> 
<path d="M4716 3447 L4722 3444" /> 
<path d="M4722 3444 L4733 3444" /> 
<path d="M4733 3444 L4739 3447" /> 
<g style = "stroke-linecap:round;" > 
<path d="M4739 3447 L4739 3447" /> 
</g><path d="M4793 3484 L4793 3453" /> 
<path d="M4793 3453 L4790 3447" /> 
<path d="M4790 3447 L4784 3444" /> 
<path d="M4784 3444 L4773 3444" /> 
<path d="M4773 3444 L4767 3447" /> 
<g style = "stroke-linecap:round;" > 
<path d="M4767 3447 L4767 3447" /> 
</g><path d="M4793 3481 L4787 3484" /> 
<path d="M4787 3484 L4773 3484" /> 
<path d="M4773 3484 L4767 3481" /> 
<path d="M4767 3481 L4764 3476" /> 
<path d="M4764 3476 L4764 3470" /> 
<path d="M4764 3470 L4767 3464" /> 
<path d="M4767 3464 L4773 3461" /> 
<path d="M4773 3461 L4787 3461" /> 
<path d="M4787 3461 L4793 3459" /> 
<g style = "stroke-linecap:round;" > 
<path d="M4793 3459 L4793 3459" /> 
</g><path d="M4661 3281 L4667 3284" /> 
<path d="M4667 3284 L4679 3284" /> 
<path d="M4679 3284 L4684 3281" /> 
<path d="M4684 3281 L4687 3276" /> 
<path d="M4687 3276 L4687 3273" /> 
<path d="M4687 3273 L4684 3267" /> 
<path d="M4684 3267 L4679 3264" /> 
<path d="M4679 3264 L4670 3264" /> 
<path d="M4670 3264 L4664 3261" /> 
<path d="M4664 3261 L4661 3256" /> 
<path d="M4661 3256 L4661 3253" /> 
<path d="M4661 3253 L4664 3247" /> 
<path d="M4664 3247 L4670 3244" /> 
<path d="M4670 3244 L4679 3244" /> 
<path d="M4679 3244 L4684 3247" /> 
<g style = "stroke-linecap:round;" > 
<path d="M4684 3247 L4684 3247" /> 
</g><path d="M4739 3281 L4733 3284" /> 
<path d="M4733 3284 L4722 3284" /> 
<path d="M4722 3284 L4716 3281" /> 
<path d="M4716 3281 L4713 3279" /> 
<path d="M4713 3279 L4710 3273" /> 
<path d="M4710 3273 L4710 3256" /> 
<path d="M4710 3256 L4713 3250" /> 
<path d="M4713 3250 L4716 3247" /> 
<path d="M4716 3247 L4722 3244" /> 
<path d="M4722 3244 L4733 3244" /> 
<path d="M4733 3244 L4739 3247" /> 
<g style = "stroke-linecap:round;" > 
<path d="M4739 3247 L4739 3247" /> 
</g><path d="M4773 3284 L4767 3281" /> 
<path d="M4767 3281 L4764 3276" /> 
<path d="M4764 3276 L4764 3224" /> 
<g style = "stroke-linecap:round;" > 
<path d="M4764 3224 L4764 3224" /> 
</g><path d="M4500 3500 L4800 3500" /> 
<path d="M4500 3300 L4800 3300" /> 
<polygon style="fill-rule:evenodd; " 
points="4250,3250
4250,3250
4250,3550
4050,3550
4050,3250
" /> 
<ellipse cx="4285" cy="3300" rx="35" ry="35"  /> 
<path d="M4320 3300 L4500 3300" /> 
<path d="M4393 3284 L4358 3284" /> 
<g style = "stroke-linecap:round;" > 
<path d="M4358 3284 L4358 3284" /> 
</g><path d="M4376 3284 L4376 3224" /> 
<path d="M4376 3224 L4370 3233" /> 
<path d="M4370 3233 L4364 3239" /> 
<path d="M4364 3239 L4358 3241" /> 
<g style = "stroke-linecap:round;" > 
<path d="M4358 3241 L4358 3241" /> 
</g><ellipse cx="4285" cy="3500" rx="35" ry="35"  /> 
<path d="M4320 3500 L4500 3500" /> 
<path d="M4358 3430 L4361 3427" /> 
<path d="M4361 3427 L4367 3424" /> 
<path d="M4367 3424 L4381 3424" /> 
<path d="M4381 3424 L4387 3427" /> 
<path d="M4387 3427 L4390 3430" /> 
<path d="M4390 3430 L4393 3436" /> 
<path d="M4393 3436 L4393 3441" /> 
<path d="M4393 3441 L4390 3450" /> 
<path d="M4390 3450 L4356 3484" /> 
<path d="M4356 3484 L4393 3484" /> 
<g style = "stroke-linecap:round;" > 
<path d="M4393 3484 L4393 3484" /> 
</g><path d="M4219 3427 L4179 3427" /> 
<path d="M4179 3427 L4179 3412" /> 
<path d="M4179 3412 L4181 3408" /> 
<path d="M4181 3408 L4183 3407" /> 
<path d="M4183 3407 L4187 3405" /> 
<path d="M4187 3405 L4193 3405" /> 
<path d="M4193 3405 L4196 3407" /> 
<path d="M4196 3407 L4198 3408" /> 
<path d="M4198 3408 L4200 3412" /> 
<path d="M4200 3412 L4200 3427" /> 
<g style = "stroke-linecap:round;" > 
<path d="M4200 3427 L4200 3427" /> 
</g><path d="M4215 3382 L4217 3380" /> 
<path d="M4217 3380 L4219 3382" /> 
<path d="M4219 3382 L4217 3384" /> 
<path d="M4217 3384 L4215 3382" /> 
<path d="M4215 3382 L4219 3382" /> 
<g style = "stroke-linecap:round;" > 
<path d="M4219 3382 L4219 3382" /> 
</g><path d="M4181 3389 L4179 3386" /> 
<path d="M4179 3386 L4179 3376" /> 
<path d="M4179 3376 L4181 3372" /> 
<path d="M4181 3372 L4185 3370" /> 
<path d="M4185 3370 L4189 3370" /> 
<path d="M4189 3370 L4193 3372" /> 
<path d="M4193 3372 L4194 3374" /> 
<path d="M4194 3374 L4196 3378" /> 
<path d="M4196 3378 L4198 3380" /> 
<path d="M4198 3380 L4202 3382" /> 
<path d="M4202 3382 L4204 3382" /> 
<g style = "stroke-linecap:round;" > 
<path d="M4204 3382 L4204 3382" /> 
</g><path d="M4115 3485 L4117 3487" /> 
<path d="M4117 3487 L4119 3492" /> 
<path d="M4119 3492 L4119 3496" /> 
<path d="M4119 3496 L4117 3502" /> 
<path d="M4117 3502 L4113 3506" /> 
<path d="M4113 3506 L4110 3507" /> 
<path d="M4110 3507 L4102 3509" /> 
<path d="M4102 3509 L4096 3509" /> 
<path d="M4096 3509 L4089 3507" /> 
<path d="M4089 3507 L4085 3506" /> 
<path d="M4085 3506 L4081 3502" /> 
<path d="M4081 3502 L4079 3496" /> 
<path d="M4079 3496 L4079 3492" /> 
<path d="M4079 3492 L4081 3487" /> 
<path d="M4081 3487 L4083 3485" /> 
<g style = "stroke-linecap:round;" > 
<path d="M4083 3485 L4083 3485" /> 
</g><path d="M4079 3460 L4079 3452" /> 
<path d="M4079 3452 L4081 3448" /> 
<path d="M4081 3448 L4085 3445" /> 
<path d="M4085 3445 L4093 3443" /> 
<path d="M4093 3443 L4106 3443" /> 
<path d="M4106 3443 L4113 3445" /> 
<path d="M4113 3445 L4117 3448" /> 
<path d="M4117 3448 L4119 3452" /> 
<path d="M4119 3452 L4119 3460" /> 
<path d="M4119 3460 L4117 3464" /> 
<path d="M4117 3464 L4113 3467" /> 
<path d="M4113 3467 L4106 3469" /> 
<path d="M4106 3469 L4093 3469" /> 
<path d="M4093 3469 L4085 3467" /> 
<path d="M4085 3467 L4081 3464" /> 
<path d="M4081 3464 L4079 3460" /> 
<path d="M4119 3425 L4079 3425" /> 
<path d="M4079 3425 L4119 3403" /> 
<path d="M4119 3403 L4079 3403" /> 
<g style = "stroke-linecap:round;" > 
<path d="M4079 3403 L4079 3403" /> 
</g><path d="M4119 3383 L4079 3383" /> 
<path d="M4079 3383 L4119 3361" /> 
<path d="M4119 3361 L4079 3361" /> 
<g style = "stroke-linecap:round;" > 
<path d="M4079 3361 L4079 3361" /> 
</g><path d="M4123 3351 L4123 3321" /> 
<g style = "stroke-linecap:round;" > 
<path d="M4123 3321 L4123 3321" /> 
</g><path d="M4083 3313 L4081 3311" /> 
<path d="M4081 3311 L4079 3308" /> 
<path d="M4079 3308 L4079 3298" /> 
<path d="M4079 3298 L4081 3294" /> 
<path d="M4081 3294 L4083 3292" /> 
<path d="M4083 3292 L4087 3291" /> 
<path d="M4087 3291 L4091 3291" /> 
<path d="M4091 3291 L4096 3292" /> 
<path d="M4096 3292 L4119 3315" /> 
<path d="M4119 3315 L4119 3291" /> 
<g style = "stroke-linecap:round;" > 
<path d="M4119 3291 L4119 3291" /> 
</g></g> 
</svg> 
