G75*
G70*
%OFA0B0*%
%FSLAX24Y24*%
%IPPOS*%
%LPD*%
%AMOC8*
5,1,8,0,0,1.08239X$1,22.5*
%
%ADD10C,0.0000*%
%ADD11C,0.0040*%
%ADD12C,0.0060*%
%ADD13C,0.0160*%
%ADD14C,0.0080*%
%ADD15C,0.0050*%
%ADD16C,0.0020*%
%ADD17R,0.0450X0.0250*%
%ADD18R,0.1600X0.0250*%
%ADD19R,0.0200X0.4000*%
%ADD20R,0.0050X0.1550*%
%ADD21R,0.0200X0.1900*%
%ADD22C,0.0070*%
%ADD23C,0.0120*%
D10*
X000764Y000324D02*
X000764Y028276D01*
X040921Y028276D01*
X040921Y000324D01*
X000764Y000324D01*
X004228Y003670D02*
X004230Y003699D01*
X004236Y003727D01*
X004245Y003755D01*
X004258Y003781D01*
X004275Y003804D01*
X004294Y003826D01*
X004316Y003845D01*
X004341Y003860D01*
X004367Y003873D01*
X004395Y003881D01*
X004423Y003886D01*
X004452Y003887D01*
X004481Y003884D01*
X004509Y003877D01*
X004536Y003867D01*
X004562Y003853D01*
X004585Y003836D01*
X004606Y003816D01*
X004624Y003793D01*
X004639Y003768D01*
X004650Y003741D01*
X004658Y003713D01*
X004662Y003684D01*
X004662Y003656D01*
X004658Y003627D01*
X004650Y003599D01*
X004639Y003572D01*
X004624Y003547D01*
X004606Y003524D01*
X004585Y003504D01*
X004562Y003487D01*
X004536Y003473D01*
X004509Y003463D01*
X004481Y003456D01*
X004452Y003453D01*
X004423Y003454D01*
X004395Y003459D01*
X004367Y003467D01*
X004341Y003480D01*
X004316Y003495D01*
X004294Y003514D01*
X004275Y003536D01*
X004258Y003559D01*
X004245Y003585D01*
X004236Y003613D01*
X004230Y003641D01*
X004228Y003670D01*
X012511Y005993D02*
X012513Y006026D01*
X012519Y006058D01*
X012528Y006089D01*
X012541Y006119D01*
X012558Y006147D01*
X012578Y006173D01*
X012601Y006197D01*
X012626Y006217D01*
X012654Y006235D01*
X012683Y006249D01*
X012714Y006259D01*
X012746Y006266D01*
X012779Y006269D01*
X012812Y006268D01*
X012844Y006263D01*
X012875Y006254D01*
X012906Y006242D01*
X012934Y006226D01*
X012961Y006207D01*
X012985Y006185D01*
X013006Y006160D01*
X013025Y006133D01*
X013040Y006104D01*
X013051Y006074D01*
X013059Y006042D01*
X013063Y006009D01*
X013063Y005977D01*
X013059Y005944D01*
X013051Y005912D01*
X013040Y005882D01*
X013025Y005853D01*
X013006Y005826D01*
X012985Y005801D01*
X012961Y005779D01*
X012934Y005760D01*
X012906Y005744D01*
X012875Y005732D01*
X012844Y005723D01*
X012812Y005718D01*
X012779Y005717D01*
X012746Y005720D01*
X012714Y005727D01*
X012683Y005737D01*
X012654Y005751D01*
X012626Y005769D01*
X012601Y005789D01*
X012578Y005813D01*
X012558Y005839D01*
X012541Y005867D01*
X012528Y005897D01*
X012519Y005928D01*
X012513Y005960D01*
X012511Y005993D01*
X018417Y005993D02*
X018419Y006026D01*
X018425Y006058D01*
X018434Y006089D01*
X018447Y006119D01*
X018464Y006147D01*
X018484Y006173D01*
X018507Y006197D01*
X018532Y006217D01*
X018560Y006235D01*
X018589Y006249D01*
X018620Y006259D01*
X018652Y006266D01*
X018685Y006269D01*
X018718Y006268D01*
X018750Y006263D01*
X018781Y006254D01*
X018812Y006242D01*
X018840Y006226D01*
X018867Y006207D01*
X018891Y006185D01*
X018912Y006160D01*
X018931Y006133D01*
X018946Y006104D01*
X018957Y006074D01*
X018965Y006042D01*
X018969Y006009D01*
X018969Y005977D01*
X018965Y005944D01*
X018957Y005912D01*
X018946Y005882D01*
X018931Y005853D01*
X018912Y005826D01*
X018891Y005801D01*
X018867Y005779D01*
X018840Y005760D01*
X018812Y005744D01*
X018781Y005732D01*
X018750Y005723D01*
X018718Y005718D01*
X018685Y005717D01*
X018652Y005720D01*
X018620Y005727D01*
X018589Y005737D01*
X018560Y005751D01*
X018532Y005769D01*
X018507Y005789D01*
X018484Y005813D01*
X018464Y005839D01*
X018447Y005867D01*
X018434Y005897D01*
X018425Y005928D01*
X018419Y005960D01*
X018417Y005993D01*
X024322Y005993D02*
X024324Y006026D01*
X024330Y006058D01*
X024339Y006089D01*
X024352Y006119D01*
X024369Y006147D01*
X024389Y006173D01*
X024412Y006197D01*
X024437Y006217D01*
X024465Y006235D01*
X024494Y006249D01*
X024525Y006259D01*
X024557Y006266D01*
X024590Y006269D01*
X024623Y006268D01*
X024655Y006263D01*
X024686Y006254D01*
X024717Y006242D01*
X024745Y006226D01*
X024772Y006207D01*
X024796Y006185D01*
X024817Y006160D01*
X024836Y006133D01*
X024851Y006104D01*
X024862Y006074D01*
X024870Y006042D01*
X024874Y006009D01*
X024874Y005977D01*
X024870Y005944D01*
X024862Y005912D01*
X024851Y005882D01*
X024836Y005853D01*
X024817Y005826D01*
X024796Y005801D01*
X024772Y005779D01*
X024745Y005760D01*
X024717Y005744D01*
X024686Y005732D01*
X024655Y005723D01*
X024623Y005718D01*
X024590Y005717D01*
X024557Y005720D01*
X024525Y005727D01*
X024494Y005737D01*
X024465Y005751D01*
X024437Y005769D01*
X024412Y005789D01*
X024389Y005813D01*
X024369Y005839D01*
X024352Y005867D01*
X024339Y005897D01*
X024330Y005928D01*
X024324Y005960D01*
X024322Y005993D01*
D11*
X026374Y006643D02*
X026681Y007103D01*
X026835Y007103D02*
X027065Y007103D01*
X027142Y007026D01*
X027142Y006873D01*
X027065Y006796D01*
X026835Y006796D01*
X026835Y006643D02*
X026835Y007103D01*
X026374Y007103D02*
X026681Y006643D01*
X027295Y006720D02*
X027295Y006873D01*
X027525Y006873D01*
X027602Y006796D01*
X027602Y006720D01*
X027525Y006643D01*
X027372Y006643D01*
X027295Y006720D01*
X027295Y006873D02*
X027449Y007026D01*
X027602Y007103D01*
X030625Y008005D02*
X030625Y008465D01*
X030855Y008465D01*
X030932Y008389D01*
X030932Y008235D01*
X030855Y008159D01*
X030625Y008159D01*
X030778Y008159D02*
X030932Y008005D01*
X031085Y008235D02*
X031392Y008235D01*
X031315Y008005D02*
X031315Y008465D01*
X031085Y008235D01*
X032120Y008444D02*
X032427Y008444D01*
X032274Y008444D02*
X032274Y007983D01*
X032581Y007983D02*
X032888Y008290D01*
X032888Y008367D01*
X032811Y008444D01*
X032658Y008444D01*
X032581Y008367D01*
X032581Y007983D02*
X032888Y007983D01*
X033789Y008509D02*
X033789Y008739D01*
X033866Y008816D01*
X034020Y008816D01*
X034096Y008739D01*
X034096Y008509D01*
X034096Y008662D02*
X034250Y008816D01*
X034173Y008969D02*
X034250Y009046D01*
X034250Y009200D01*
X034173Y009276D01*
X034096Y009276D01*
X034020Y009200D01*
X034020Y009123D01*
X034020Y009200D02*
X033943Y009276D01*
X033866Y009276D01*
X033789Y009200D01*
X033789Y009046D01*
X033866Y008969D01*
X033789Y008509D02*
X034250Y008509D01*
X035512Y008877D02*
X035588Y008800D01*
X035895Y008800D01*
X035972Y008877D01*
X035972Y009031D01*
X035895Y009107D01*
X035972Y009261D02*
X035972Y009568D01*
X035972Y009414D02*
X035512Y009414D01*
X035665Y009261D01*
X035588Y009107D02*
X035512Y009031D01*
X035512Y008877D01*
X035449Y009909D02*
X035449Y010139D01*
X035372Y010216D01*
X035218Y010216D01*
X035142Y010139D01*
X035142Y009909D01*
X035602Y009909D01*
X035449Y010063D02*
X035602Y010216D01*
X035602Y010369D02*
X035295Y010676D01*
X035218Y010676D01*
X035142Y010600D01*
X035142Y010446D01*
X035218Y010369D01*
X035602Y010369D02*
X035602Y010676D01*
X035823Y010974D02*
X036130Y011434D01*
X036284Y011434D02*
X036514Y011434D01*
X036590Y011357D01*
X036590Y011204D01*
X036514Y011127D01*
X036284Y011127D01*
X036284Y010974D02*
X036284Y011434D01*
X035823Y011434D02*
X036130Y010974D01*
X036744Y011050D02*
X036744Y011127D01*
X036821Y011204D01*
X036974Y011204D01*
X037051Y011127D01*
X037051Y011050D01*
X036974Y010974D01*
X036821Y010974D01*
X036744Y011050D01*
X036821Y011204D02*
X036744Y011280D01*
X036744Y011357D01*
X036821Y011434D01*
X036974Y011434D01*
X037051Y011357D01*
X037051Y011280D01*
X036974Y011204D01*
X033085Y011133D02*
X032778Y011133D01*
X032931Y011133D02*
X032931Y011593D01*
X032778Y011440D01*
X032624Y011593D02*
X032317Y011593D01*
X032471Y011593D02*
X032471Y011133D01*
X031239Y010040D02*
X031239Y009580D01*
X031392Y009580D02*
X031085Y009580D01*
X030932Y009580D02*
X030778Y009733D01*
X030855Y009733D02*
X030625Y009733D01*
X030625Y009580D02*
X030625Y010040D01*
X030855Y010040D01*
X030932Y009964D01*
X030932Y009810D01*
X030855Y009733D01*
X031085Y009887D02*
X031239Y010040D01*
X033855Y007300D02*
X034162Y006840D01*
X034315Y006840D02*
X034315Y007300D01*
X034545Y007300D01*
X034622Y007223D01*
X034622Y007070D01*
X034545Y006993D01*
X034315Y006993D01*
X034162Y007300D02*
X033855Y006840D01*
X034775Y006916D02*
X034852Y006840D01*
X035006Y006840D01*
X035082Y006916D01*
X035082Y006993D01*
X035006Y007070D01*
X034929Y007070D01*
X035006Y007070D02*
X035082Y007147D01*
X035082Y007223D01*
X035006Y007300D01*
X034852Y007300D01*
X034775Y007223D01*
X038116Y005869D02*
X038423Y005409D01*
X038577Y005409D02*
X038577Y005869D01*
X038807Y005869D01*
X038884Y005792D01*
X038884Y005639D01*
X038807Y005562D01*
X038577Y005562D01*
X038423Y005869D02*
X038116Y005409D01*
X039037Y005485D02*
X039114Y005409D01*
X039267Y005409D01*
X039344Y005485D01*
X039344Y005792D01*
X039267Y005869D01*
X039114Y005869D01*
X039037Y005792D01*
X039037Y005716D01*
X039114Y005639D01*
X039344Y005639D01*
X022090Y006720D02*
X022014Y006643D01*
X021860Y006643D01*
X021783Y006720D01*
X021783Y006873D02*
X021937Y006950D01*
X022014Y006950D01*
X022090Y006873D01*
X022090Y006720D01*
X021783Y006873D02*
X021783Y007103D01*
X022090Y007103D01*
X021630Y007026D02*
X021630Y006873D01*
X021553Y006796D01*
X021323Y006796D01*
X021323Y006643D02*
X021323Y007103D01*
X021553Y007103D01*
X021630Y007026D01*
X021169Y007103D02*
X020863Y006643D01*
X021169Y006643D02*
X020863Y007103D01*
X016578Y006873D02*
X016272Y006873D01*
X016502Y007103D01*
X016502Y006643D01*
X016118Y006873D02*
X016041Y006796D01*
X015811Y006796D01*
X015811Y006643D02*
X015811Y007103D01*
X016041Y007103D01*
X016118Y007026D01*
X016118Y006873D01*
X015658Y006643D02*
X015351Y007103D01*
X015658Y007103D02*
X015351Y006643D01*
X008114Y007233D02*
X007807Y007233D01*
X008114Y007540D01*
X008114Y007617D01*
X008037Y007694D01*
X007884Y007694D01*
X007807Y007617D01*
X007653Y007617D02*
X007653Y007464D01*
X007577Y007387D01*
X007347Y007387D01*
X007347Y007233D02*
X007347Y007694D01*
X007577Y007694D01*
X007653Y007617D01*
X007193Y007694D02*
X006886Y007233D01*
X007193Y007233D02*
X006886Y007694D01*
X003433Y006119D02*
X003433Y005659D01*
X003586Y005659D02*
X003279Y005659D01*
X003126Y005889D02*
X003049Y005812D01*
X002819Y005812D01*
X002819Y005659D02*
X002819Y006119D01*
X003049Y006119D01*
X003126Y006042D01*
X003126Y005889D01*
X003279Y005966D02*
X003433Y006119D01*
X002666Y006119D02*
X002359Y005659D01*
X002666Y005659D02*
X002359Y006119D01*
X004721Y010974D02*
X005028Y011434D01*
X005181Y011434D02*
X005411Y011434D01*
X005488Y011357D01*
X005488Y011204D01*
X005411Y011127D01*
X005181Y011127D01*
X005181Y010974D02*
X005181Y011434D01*
X004721Y011434D02*
X005028Y010974D01*
X005642Y010974D02*
X005642Y011050D01*
X005949Y011357D01*
X005949Y011434D01*
X005642Y011434D01*
X013215Y025103D02*
X013368Y025103D01*
X013445Y025180D01*
X013445Y025564D01*
X013599Y025487D02*
X013675Y025564D01*
X013829Y025564D01*
X013905Y025487D01*
X013905Y025410D01*
X013599Y025103D01*
X013905Y025103D01*
X013215Y025103D02*
X013138Y025180D01*
X013138Y025564D01*
X022587Y025564D02*
X022587Y025180D01*
X022664Y025103D01*
X022817Y025103D01*
X022894Y025180D01*
X022894Y025564D01*
X023047Y025410D02*
X023201Y025564D01*
X023201Y025103D01*
X023354Y025103D02*
X023047Y025103D01*
D12*
X028535Y024565D02*
X030035Y024565D01*
X029885Y024115D02*
X029235Y024115D01*
X029235Y023865D01*
X029235Y021865D01*
X029685Y021865D01*
X029685Y023865D01*
X029435Y023865D01*
X029435Y024015D01*
X029885Y024015D01*
X029435Y023865D02*
X029235Y023865D01*
X028535Y024565D02*
X028535Y014665D01*
X030035Y014665D01*
X029685Y015365D02*
X029235Y015365D01*
X029235Y017365D01*
X029685Y017365D01*
X029685Y015365D01*
X031335Y014665D02*
X032835Y014665D01*
X032835Y024565D01*
X031335Y024565D01*
X031685Y023865D02*
X031685Y021865D01*
X032135Y021865D01*
X032135Y023865D01*
X031685Y023865D01*
X033274Y021467D02*
X033274Y020826D01*
X033701Y020826D01*
X033504Y017726D02*
X033504Y017086D01*
X033077Y017726D01*
X033077Y017086D01*
X032135Y017365D02*
X031685Y017365D01*
X031685Y015365D01*
X031935Y015365D01*
X031935Y015215D01*
X031485Y015215D01*
X031485Y015115D02*
X032135Y015115D01*
X032135Y015365D01*
X032135Y017365D01*
X032135Y015365D02*
X031935Y015365D01*
X038893Y023976D02*
X039106Y023976D01*
X039213Y024082D01*
X039213Y024509D01*
X039106Y024616D01*
X038893Y024616D01*
X038786Y024509D01*
X038786Y024082D01*
X038893Y023976D01*
X039430Y024082D02*
X039537Y023976D01*
X039751Y023976D01*
X039858Y024082D01*
X039858Y024616D01*
X040075Y024616D02*
X040502Y024616D01*
X040289Y024616D02*
X040289Y023976D01*
X039430Y024082D02*
X039430Y024616D01*
X029493Y026800D02*
X029495Y026873D01*
X029501Y026946D01*
X029511Y027018D01*
X029525Y027090D01*
X029542Y027161D01*
X029564Y027231D01*
X029589Y027300D01*
X029618Y027367D01*
X029650Y027432D01*
X029686Y027496D01*
X029726Y027558D01*
X029768Y027617D01*
X029814Y027674D01*
X029863Y027728D01*
X029915Y027780D01*
X029969Y027829D01*
X030026Y027875D01*
X030085Y027917D01*
X030147Y027957D01*
X030211Y027993D01*
X030276Y028025D01*
X030343Y028054D01*
X030412Y028079D01*
X030482Y028101D01*
X030553Y028118D01*
X030625Y028132D01*
X030697Y028142D01*
X030770Y028148D01*
X030843Y028150D01*
X030916Y028148D01*
X030989Y028142D01*
X031061Y028132D01*
X031133Y028118D01*
X031204Y028101D01*
X031274Y028079D01*
X031343Y028054D01*
X031410Y028025D01*
X031475Y027993D01*
X031539Y027957D01*
X031601Y027917D01*
X031660Y027875D01*
X031717Y027829D01*
X031771Y027780D01*
X031823Y027728D01*
X031872Y027674D01*
X031918Y027617D01*
X031960Y027558D01*
X032000Y027496D01*
X032036Y027432D01*
X032068Y027367D01*
X032097Y027300D01*
X032122Y027231D01*
X032144Y027161D01*
X032161Y027090D01*
X032175Y027018D01*
X032185Y026946D01*
X032191Y026873D01*
X032193Y026800D01*
X032191Y026727D01*
X032185Y026654D01*
X032175Y026582D01*
X032161Y026510D01*
X032144Y026439D01*
X032122Y026369D01*
X032097Y026300D01*
X032068Y026233D01*
X032036Y026168D01*
X032000Y026104D01*
X031960Y026042D01*
X031918Y025983D01*
X031872Y025926D01*
X031823Y025872D01*
X031771Y025820D01*
X031717Y025771D01*
X031660Y025725D01*
X031601Y025683D01*
X031539Y025643D01*
X031475Y025607D01*
X031410Y025575D01*
X031343Y025546D01*
X031274Y025521D01*
X031204Y025499D01*
X031133Y025482D01*
X031061Y025468D01*
X030989Y025458D01*
X030916Y025452D01*
X030843Y025450D01*
X030770Y025452D01*
X030697Y025458D01*
X030625Y025468D01*
X030553Y025482D01*
X030482Y025499D01*
X030412Y025521D01*
X030343Y025546D01*
X030276Y025575D01*
X030211Y025607D01*
X030147Y025643D01*
X030085Y025683D01*
X030026Y025725D01*
X029969Y025771D01*
X029915Y025820D01*
X029863Y025872D01*
X029814Y025926D01*
X029768Y025983D01*
X029726Y026042D01*
X029686Y026104D01*
X029650Y026168D01*
X029618Y026233D01*
X029589Y026300D01*
X029564Y026369D01*
X029542Y026439D01*
X029525Y026510D01*
X029511Y026582D01*
X029501Y026654D01*
X029495Y026727D01*
X029493Y026800D01*
X009493Y026800D02*
X009495Y026873D01*
X009501Y026946D01*
X009511Y027018D01*
X009525Y027090D01*
X009542Y027161D01*
X009564Y027231D01*
X009589Y027300D01*
X009618Y027367D01*
X009650Y027432D01*
X009686Y027496D01*
X009726Y027558D01*
X009768Y027617D01*
X009814Y027674D01*
X009863Y027728D01*
X009915Y027780D01*
X009969Y027829D01*
X010026Y027875D01*
X010085Y027917D01*
X010147Y027957D01*
X010211Y027993D01*
X010276Y028025D01*
X010343Y028054D01*
X010412Y028079D01*
X010482Y028101D01*
X010553Y028118D01*
X010625Y028132D01*
X010697Y028142D01*
X010770Y028148D01*
X010843Y028150D01*
X010916Y028148D01*
X010989Y028142D01*
X011061Y028132D01*
X011133Y028118D01*
X011204Y028101D01*
X011274Y028079D01*
X011343Y028054D01*
X011410Y028025D01*
X011475Y027993D01*
X011539Y027957D01*
X011601Y027917D01*
X011660Y027875D01*
X011717Y027829D01*
X011771Y027780D01*
X011823Y027728D01*
X011872Y027674D01*
X011918Y027617D01*
X011960Y027558D01*
X012000Y027496D01*
X012036Y027432D01*
X012068Y027367D01*
X012097Y027300D01*
X012122Y027231D01*
X012144Y027161D01*
X012161Y027090D01*
X012175Y027018D01*
X012185Y026946D01*
X012191Y026873D01*
X012193Y026800D01*
X012191Y026727D01*
X012185Y026654D01*
X012175Y026582D01*
X012161Y026510D01*
X012144Y026439D01*
X012122Y026369D01*
X012097Y026300D01*
X012068Y026233D01*
X012036Y026168D01*
X012000Y026104D01*
X011960Y026042D01*
X011918Y025983D01*
X011872Y025926D01*
X011823Y025872D01*
X011771Y025820D01*
X011717Y025771D01*
X011660Y025725D01*
X011601Y025683D01*
X011539Y025643D01*
X011475Y025607D01*
X011410Y025575D01*
X011343Y025546D01*
X011274Y025521D01*
X011204Y025499D01*
X011133Y025482D01*
X011061Y025468D01*
X010989Y025458D01*
X010916Y025452D01*
X010843Y025450D01*
X010770Y025452D01*
X010697Y025458D01*
X010625Y025468D01*
X010553Y025482D01*
X010482Y025499D01*
X010412Y025521D01*
X010343Y025546D01*
X010276Y025575D01*
X010211Y025607D01*
X010147Y025643D01*
X010085Y025683D01*
X010026Y025725D01*
X009969Y025771D01*
X009915Y025820D01*
X009863Y025872D01*
X009814Y025926D01*
X009768Y025983D01*
X009726Y026042D01*
X009686Y026104D01*
X009650Y026168D01*
X009618Y026233D01*
X009589Y026300D01*
X009564Y026369D01*
X009542Y026439D01*
X009525Y026510D01*
X009511Y026582D01*
X009501Y026654D01*
X009495Y026727D01*
X009493Y026800D01*
X002832Y024616D02*
X002832Y023976D01*
X002405Y024616D01*
X002405Y023976D01*
X002188Y023976D02*
X001975Y023976D01*
X002082Y023976D02*
X002082Y024616D01*
X002188Y024616D02*
X001975Y024616D01*
X008077Y021663D02*
X008077Y021023D01*
X008504Y021023D01*
X008504Y017530D02*
X008504Y016889D01*
X008077Y017530D01*
X008077Y016889D01*
X009493Y001800D02*
X009495Y001873D01*
X009501Y001946D01*
X009511Y002018D01*
X009525Y002090D01*
X009542Y002161D01*
X009564Y002231D01*
X009589Y002300D01*
X009618Y002367D01*
X009650Y002432D01*
X009686Y002496D01*
X009726Y002558D01*
X009768Y002617D01*
X009814Y002674D01*
X009863Y002728D01*
X009915Y002780D01*
X009969Y002829D01*
X010026Y002875D01*
X010085Y002917D01*
X010147Y002957D01*
X010211Y002993D01*
X010276Y003025D01*
X010343Y003054D01*
X010412Y003079D01*
X010482Y003101D01*
X010553Y003118D01*
X010625Y003132D01*
X010697Y003142D01*
X010770Y003148D01*
X010843Y003150D01*
X010916Y003148D01*
X010989Y003142D01*
X011061Y003132D01*
X011133Y003118D01*
X011204Y003101D01*
X011274Y003079D01*
X011343Y003054D01*
X011410Y003025D01*
X011475Y002993D01*
X011539Y002957D01*
X011601Y002917D01*
X011660Y002875D01*
X011717Y002829D01*
X011771Y002780D01*
X011823Y002728D01*
X011872Y002674D01*
X011918Y002617D01*
X011960Y002558D01*
X012000Y002496D01*
X012036Y002432D01*
X012068Y002367D01*
X012097Y002300D01*
X012122Y002231D01*
X012144Y002161D01*
X012161Y002090D01*
X012175Y002018D01*
X012185Y001946D01*
X012191Y001873D01*
X012193Y001800D01*
X012191Y001727D01*
X012185Y001654D01*
X012175Y001582D01*
X012161Y001510D01*
X012144Y001439D01*
X012122Y001369D01*
X012097Y001300D01*
X012068Y001233D01*
X012036Y001168D01*
X012000Y001104D01*
X011960Y001042D01*
X011918Y000983D01*
X011872Y000926D01*
X011823Y000872D01*
X011771Y000820D01*
X011717Y000771D01*
X011660Y000725D01*
X011601Y000683D01*
X011539Y000643D01*
X011475Y000607D01*
X011410Y000575D01*
X011343Y000546D01*
X011274Y000521D01*
X011204Y000499D01*
X011133Y000482D01*
X011061Y000468D01*
X010989Y000458D01*
X010916Y000452D01*
X010843Y000450D01*
X010770Y000452D01*
X010697Y000458D01*
X010625Y000468D01*
X010553Y000482D01*
X010482Y000499D01*
X010412Y000521D01*
X010343Y000546D01*
X010276Y000575D01*
X010211Y000607D01*
X010147Y000643D01*
X010085Y000683D01*
X010026Y000725D01*
X009969Y000771D01*
X009915Y000820D01*
X009863Y000872D01*
X009814Y000926D01*
X009768Y000983D01*
X009726Y001042D01*
X009686Y001104D01*
X009650Y001168D01*
X009618Y001233D01*
X009589Y001300D01*
X009564Y001369D01*
X009542Y001439D01*
X009525Y001510D01*
X009511Y001582D01*
X009501Y001654D01*
X009495Y001727D01*
X009493Y001800D01*
X029493Y001800D02*
X029495Y001873D01*
X029501Y001946D01*
X029511Y002018D01*
X029525Y002090D01*
X029542Y002161D01*
X029564Y002231D01*
X029589Y002300D01*
X029618Y002367D01*
X029650Y002432D01*
X029686Y002496D01*
X029726Y002558D01*
X029768Y002617D01*
X029814Y002674D01*
X029863Y002728D01*
X029915Y002780D01*
X029969Y002829D01*
X030026Y002875D01*
X030085Y002917D01*
X030147Y002957D01*
X030211Y002993D01*
X030276Y003025D01*
X030343Y003054D01*
X030412Y003079D01*
X030482Y003101D01*
X030553Y003118D01*
X030625Y003132D01*
X030697Y003142D01*
X030770Y003148D01*
X030843Y003150D01*
X030916Y003148D01*
X030989Y003142D01*
X031061Y003132D01*
X031133Y003118D01*
X031204Y003101D01*
X031274Y003079D01*
X031343Y003054D01*
X031410Y003025D01*
X031475Y002993D01*
X031539Y002957D01*
X031601Y002917D01*
X031660Y002875D01*
X031717Y002829D01*
X031771Y002780D01*
X031823Y002728D01*
X031872Y002674D01*
X031918Y002617D01*
X031960Y002558D01*
X032000Y002496D01*
X032036Y002432D01*
X032068Y002367D01*
X032097Y002300D01*
X032122Y002231D01*
X032144Y002161D01*
X032161Y002090D01*
X032175Y002018D01*
X032185Y001946D01*
X032191Y001873D01*
X032193Y001800D01*
X032191Y001727D01*
X032185Y001654D01*
X032175Y001582D01*
X032161Y001510D01*
X032144Y001439D01*
X032122Y001369D01*
X032097Y001300D01*
X032068Y001233D01*
X032036Y001168D01*
X032000Y001104D01*
X031960Y001042D01*
X031918Y000983D01*
X031872Y000926D01*
X031823Y000872D01*
X031771Y000820D01*
X031717Y000771D01*
X031660Y000725D01*
X031601Y000683D01*
X031539Y000643D01*
X031475Y000607D01*
X031410Y000575D01*
X031343Y000546D01*
X031274Y000521D01*
X031204Y000499D01*
X031133Y000482D01*
X031061Y000468D01*
X030989Y000458D01*
X030916Y000452D01*
X030843Y000450D01*
X030770Y000452D01*
X030697Y000458D01*
X030625Y000468D01*
X030553Y000482D01*
X030482Y000499D01*
X030412Y000521D01*
X030343Y000546D01*
X030276Y000575D01*
X030211Y000607D01*
X030147Y000643D01*
X030085Y000683D01*
X030026Y000725D01*
X029969Y000771D01*
X029915Y000820D01*
X029863Y000872D01*
X029814Y000926D01*
X029768Y000983D01*
X029726Y001042D01*
X029686Y001104D01*
X029650Y001168D01*
X029618Y001233D01*
X029589Y001300D01*
X029564Y001369D01*
X029542Y001439D01*
X029525Y001510D01*
X029511Y001582D01*
X029501Y001654D01*
X029495Y001727D01*
X029493Y001800D01*
D13*
X032663Y012278D02*
X033038Y012278D01*
X033225Y012591D02*
X032850Y012591D01*
X032475Y012591D01*
X032225Y012966D02*
X032850Y012966D01*
X033475Y012966D01*
X032850Y012966D02*
X032850Y013528D01*
X032850Y013513D02*
X033835Y013513D01*
X034032Y025324D02*
X029307Y025324D01*
X029307Y028276D01*
X032260Y026898D02*
X033047Y026898D01*
X033047Y026914D02*
X033047Y026352D01*
X033672Y026352D01*
X033422Y025977D02*
X033047Y025977D01*
X032672Y025977D01*
X032860Y025664D02*
X033235Y025664D01*
X034032Y025324D02*
X034032Y028276D01*
X033047Y026352D02*
X032422Y026352D01*
X009066Y012966D02*
X008441Y012966D01*
X008441Y013528D01*
X008441Y013513D02*
X007850Y013513D01*
X007816Y012966D02*
X008441Y012966D01*
X008441Y012591D02*
X008066Y012591D01*
X008441Y012591D02*
X008816Y012591D01*
X008628Y012278D02*
X008253Y012278D01*
D14*
X007850Y011544D02*
X000764Y011544D01*
X000764Y012135D01*
X007063Y012135D01*
X007063Y015284D01*
X000764Y015284D01*
X000764Y015875D01*
X007063Y015875D01*
X007063Y019024D01*
X000764Y019024D01*
X000764Y019615D01*
X007063Y019615D01*
X007063Y022765D01*
X000764Y022765D01*
X000764Y019615D01*
X000764Y019024D01*
X000764Y015875D01*
X000764Y015284D01*
X000764Y012135D01*
X002874Y012790D02*
X003258Y013614D01*
X002366Y014030D01*
X002532Y014387D01*
X003424Y013971D01*
X003809Y014796D01*
X004166Y014629D01*
X003781Y013805D01*
X004673Y013389D01*
X004507Y013032D01*
X003615Y013448D01*
X003230Y012623D01*
X002874Y012790D01*
X002339Y013709D02*
X002341Y013778D01*
X002347Y013846D01*
X002357Y013914D01*
X002371Y013981D01*
X002389Y014048D01*
X002410Y014113D01*
X002436Y014177D01*
X002465Y014239D01*
X002497Y014299D01*
X002533Y014358D01*
X002573Y014414D01*
X002615Y014468D01*
X002661Y014519D01*
X002710Y014568D01*
X002761Y014614D01*
X002815Y014656D01*
X002871Y014696D01*
X002929Y014732D01*
X002990Y014764D01*
X003052Y014793D01*
X003116Y014819D01*
X003181Y014840D01*
X003248Y014858D01*
X003315Y014872D01*
X003383Y014882D01*
X003451Y014888D01*
X003520Y014890D01*
X003589Y014888D01*
X003657Y014882D01*
X003725Y014872D01*
X003792Y014858D01*
X003859Y014840D01*
X003924Y014819D01*
X003988Y014793D01*
X004050Y014764D01*
X004110Y014732D01*
X004169Y014696D01*
X004225Y014656D01*
X004279Y014614D01*
X004330Y014568D01*
X004379Y014519D01*
X004425Y014468D01*
X004467Y014414D01*
X004507Y014358D01*
X004543Y014299D01*
X004575Y014239D01*
X004604Y014177D01*
X004630Y014113D01*
X004651Y014048D01*
X004669Y013981D01*
X004683Y013914D01*
X004693Y013846D01*
X004699Y013778D01*
X004701Y013709D01*
X004699Y013640D01*
X004693Y013572D01*
X004683Y013504D01*
X004669Y013437D01*
X004651Y013370D01*
X004630Y013305D01*
X004604Y013241D01*
X004575Y013179D01*
X004543Y013118D01*
X004507Y013060D01*
X004467Y013004D01*
X004425Y012950D01*
X004379Y012899D01*
X004330Y012850D01*
X004279Y012804D01*
X004225Y012762D01*
X004169Y012722D01*
X004111Y012686D01*
X004050Y012654D01*
X003988Y012625D01*
X003924Y012599D01*
X003859Y012578D01*
X003792Y012560D01*
X003725Y012546D01*
X003657Y012536D01*
X003589Y012530D01*
X003520Y012528D01*
X003451Y012530D01*
X003383Y012536D01*
X003315Y012546D01*
X003248Y012560D01*
X003181Y012578D01*
X003116Y012599D01*
X003052Y012625D01*
X002990Y012654D01*
X002929Y012686D01*
X002871Y012722D01*
X002815Y012762D01*
X002761Y012804D01*
X002710Y012850D01*
X002661Y012899D01*
X002615Y012950D01*
X002573Y013004D01*
X002533Y013060D01*
X002497Y013118D01*
X002465Y013179D01*
X002436Y013241D01*
X002410Y013305D01*
X002389Y013370D01*
X002371Y013437D01*
X002357Y013504D01*
X002347Y013572D01*
X002341Y013640D01*
X002339Y013709D01*
X003227Y016364D02*
X003306Y017271D01*
X002326Y017356D01*
X002360Y017749D01*
X003341Y017663D01*
X003420Y018569D01*
X003812Y018535D01*
X003733Y017629D01*
X004713Y017543D01*
X004679Y017151D01*
X003699Y017236D01*
X003619Y016330D01*
X003227Y016364D01*
X002339Y017450D02*
X002341Y017519D01*
X002347Y017587D01*
X002357Y017655D01*
X002371Y017722D01*
X002389Y017789D01*
X002410Y017854D01*
X002436Y017918D01*
X002465Y017980D01*
X002497Y018040D01*
X002533Y018099D01*
X002573Y018155D01*
X002615Y018209D01*
X002661Y018260D01*
X002710Y018309D01*
X002761Y018355D01*
X002815Y018397D01*
X002871Y018437D01*
X002929Y018473D01*
X002990Y018505D01*
X003052Y018534D01*
X003116Y018560D01*
X003181Y018581D01*
X003248Y018599D01*
X003315Y018613D01*
X003383Y018623D01*
X003451Y018629D01*
X003520Y018631D01*
X003589Y018629D01*
X003657Y018623D01*
X003725Y018613D01*
X003792Y018599D01*
X003859Y018581D01*
X003924Y018560D01*
X003988Y018534D01*
X004050Y018505D01*
X004110Y018473D01*
X004169Y018437D01*
X004225Y018397D01*
X004279Y018355D01*
X004330Y018309D01*
X004379Y018260D01*
X004425Y018209D01*
X004467Y018155D01*
X004507Y018099D01*
X004543Y018040D01*
X004575Y017980D01*
X004604Y017918D01*
X004630Y017854D01*
X004651Y017789D01*
X004669Y017722D01*
X004683Y017655D01*
X004693Y017587D01*
X004699Y017519D01*
X004701Y017450D01*
X004699Y017381D01*
X004693Y017313D01*
X004683Y017245D01*
X004669Y017178D01*
X004651Y017111D01*
X004630Y017046D01*
X004604Y016982D01*
X004575Y016920D01*
X004543Y016859D01*
X004507Y016801D01*
X004467Y016745D01*
X004425Y016691D01*
X004379Y016640D01*
X004330Y016591D01*
X004279Y016545D01*
X004225Y016503D01*
X004169Y016463D01*
X004111Y016427D01*
X004050Y016395D01*
X003988Y016366D01*
X003924Y016340D01*
X003859Y016319D01*
X003792Y016301D01*
X003725Y016287D01*
X003657Y016277D01*
X003589Y016271D01*
X003520Y016269D01*
X003451Y016271D01*
X003383Y016277D01*
X003315Y016287D01*
X003248Y016301D01*
X003181Y016319D01*
X003116Y016340D01*
X003052Y016366D01*
X002990Y016395D01*
X002929Y016427D01*
X002871Y016463D01*
X002815Y016503D01*
X002761Y016545D01*
X002710Y016591D01*
X002661Y016640D01*
X002615Y016691D01*
X002573Y016745D01*
X002533Y016801D01*
X002497Y016859D01*
X002465Y016920D01*
X002436Y016982D01*
X002410Y017046D01*
X002389Y017111D01*
X002371Y017178D01*
X002357Y017245D01*
X002347Y017313D01*
X002341Y017381D01*
X002339Y017450D01*
X003809Y020104D02*
X003424Y020928D01*
X002532Y020512D01*
X002366Y020869D01*
X003258Y021285D01*
X002874Y022109D01*
X003230Y022276D01*
X003615Y021451D01*
X004507Y021867D01*
X004673Y021511D01*
X003781Y021095D01*
X004166Y020270D01*
X003809Y020104D01*
X002339Y021190D02*
X002341Y021259D01*
X002347Y021327D01*
X002357Y021395D01*
X002371Y021462D01*
X002389Y021529D01*
X002410Y021594D01*
X002436Y021658D01*
X002465Y021720D01*
X002497Y021780D01*
X002533Y021839D01*
X002573Y021895D01*
X002615Y021949D01*
X002661Y022000D01*
X002710Y022049D01*
X002761Y022095D01*
X002815Y022137D01*
X002871Y022177D01*
X002929Y022213D01*
X002990Y022245D01*
X003052Y022274D01*
X003116Y022300D01*
X003181Y022321D01*
X003248Y022339D01*
X003315Y022353D01*
X003383Y022363D01*
X003451Y022369D01*
X003520Y022371D01*
X003589Y022369D01*
X003657Y022363D01*
X003725Y022353D01*
X003792Y022339D01*
X003859Y022321D01*
X003924Y022300D01*
X003988Y022274D01*
X004050Y022245D01*
X004110Y022213D01*
X004169Y022177D01*
X004225Y022137D01*
X004279Y022095D01*
X004330Y022049D01*
X004379Y022000D01*
X004425Y021949D01*
X004467Y021895D01*
X004507Y021839D01*
X004543Y021780D01*
X004575Y021720D01*
X004604Y021658D01*
X004630Y021594D01*
X004651Y021529D01*
X004669Y021462D01*
X004683Y021395D01*
X004693Y021327D01*
X004699Y021259D01*
X004701Y021190D01*
X004699Y021121D01*
X004693Y021053D01*
X004683Y020985D01*
X004669Y020918D01*
X004651Y020851D01*
X004630Y020786D01*
X004604Y020722D01*
X004575Y020660D01*
X004543Y020599D01*
X004507Y020541D01*
X004467Y020485D01*
X004425Y020431D01*
X004379Y020380D01*
X004330Y020331D01*
X004279Y020285D01*
X004225Y020243D01*
X004169Y020203D01*
X004111Y020167D01*
X004050Y020135D01*
X003988Y020106D01*
X003924Y020080D01*
X003859Y020059D01*
X003792Y020041D01*
X003725Y020027D01*
X003657Y020017D01*
X003589Y020011D01*
X003520Y020009D01*
X003451Y020011D01*
X003383Y020017D01*
X003315Y020027D01*
X003248Y020041D01*
X003181Y020059D01*
X003116Y020080D01*
X003052Y020106D01*
X002990Y020135D01*
X002929Y020167D01*
X002871Y020203D01*
X002815Y020243D01*
X002761Y020285D01*
X002710Y020331D01*
X002661Y020380D01*
X002615Y020431D01*
X002573Y020485D01*
X002533Y020541D01*
X002497Y020599D01*
X002465Y020660D01*
X002436Y020722D01*
X002410Y020786D01*
X002389Y020851D01*
X002371Y020918D01*
X002357Y020985D01*
X002347Y021053D01*
X002341Y021121D01*
X002339Y021190D01*
X000764Y022765D02*
X000764Y023355D01*
X007850Y023355D01*
X007850Y011544D01*
X009835Y006820D02*
X005079Y006820D01*
X005079Y003670D01*
X005079Y002883D01*
X009835Y002883D01*
X009835Y003670D01*
X009835Y006820D01*
X012220Y006387D02*
X012220Y004969D01*
X012220Y004654D01*
X012220Y002489D01*
X017654Y002489D01*
X017654Y006387D01*
X016496Y006387D01*
X013378Y006387D01*
X012220Y006387D01*
X018126Y006387D02*
X018126Y004969D01*
X018126Y004654D01*
X018126Y002489D01*
X023559Y002489D01*
X023559Y006387D01*
X022402Y006387D01*
X019283Y006387D01*
X018126Y006387D01*
X024032Y006387D02*
X024032Y004969D01*
X024032Y004654D01*
X024032Y002489D01*
X029465Y002489D01*
X029465Y006387D01*
X028307Y006387D01*
X025189Y006387D01*
X024032Y006387D01*
X032047Y006623D02*
X032047Y003473D01*
X032047Y002686D01*
X036803Y002686D01*
X036803Y003473D01*
X036803Y006623D01*
X032047Y006623D01*
X037811Y006032D02*
X037811Y010757D01*
X038165Y010757D01*
X038165Y010442D01*
X039346Y010442D01*
X039346Y010757D01*
X039701Y010757D01*
X039701Y006032D01*
X037811Y006032D01*
X037969Y006347D02*
X037969Y010442D01*
X038165Y010442D01*
X039346Y010442D02*
X039543Y010442D01*
X039543Y006347D01*
X037969Y006347D01*
X030174Y001800D02*
X030176Y001851D01*
X030182Y001902D01*
X030192Y001952D01*
X030205Y002002D01*
X030223Y002050D01*
X030243Y002097D01*
X030268Y002142D01*
X030296Y002185D01*
X030327Y002226D01*
X030361Y002264D01*
X030398Y002299D01*
X030437Y002332D01*
X030479Y002362D01*
X030523Y002388D01*
X030569Y002410D01*
X030617Y002430D01*
X030666Y002445D01*
X030716Y002457D01*
X030766Y002465D01*
X030817Y002469D01*
X030869Y002469D01*
X030920Y002465D01*
X030970Y002457D01*
X031020Y002445D01*
X031069Y002430D01*
X031117Y002410D01*
X031163Y002388D01*
X031207Y002362D01*
X031249Y002332D01*
X031288Y002299D01*
X031325Y002264D01*
X031359Y002226D01*
X031390Y002185D01*
X031418Y002142D01*
X031443Y002097D01*
X031463Y002050D01*
X031481Y002002D01*
X031494Y001952D01*
X031504Y001902D01*
X031510Y001851D01*
X031512Y001800D01*
X031510Y001749D01*
X031504Y001698D01*
X031494Y001648D01*
X031481Y001598D01*
X031463Y001550D01*
X031443Y001503D01*
X031418Y001458D01*
X031390Y001415D01*
X031359Y001374D01*
X031325Y001336D01*
X031288Y001301D01*
X031249Y001268D01*
X031207Y001238D01*
X031163Y001212D01*
X031117Y001190D01*
X031069Y001170D01*
X031020Y001155D01*
X030970Y001143D01*
X030920Y001135D01*
X030869Y001131D01*
X030817Y001131D01*
X030766Y001135D01*
X030716Y001143D01*
X030666Y001155D01*
X030617Y001170D01*
X030569Y001190D01*
X030523Y001212D01*
X030479Y001238D01*
X030437Y001268D01*
X030398Y001301D01*
X030361Y001336D01*
X030327Y001374D01*
X030296Y001415D01*
X030268Y001458D01*
X030243Y001503D01*
X030223Y001550D01*
X030205Y001598D01*
X030192Y001648D01*
X030182Y001698D01*
X030176Y001749D01*
X030174Y001800D01*
X033835Y011544D02*
X040921Y011544D01*
X040921Y012135D01*
X034622Y012135D01*
X034622Y015284D01*
X040921Y015284D01*
X040921Y015875D01*
X034622Y015875D01*
X034622Y019024D01*
X040921Y019024D01*
X040921Y019615D01*
X034622Y019615D01*
X034622Y022765D01*
X040921Y022765D01*
X040921Y023355D01*
X033835Y023355D01*
X033835Y011544D01*
X037178Y013032D02*
X038070Y013448D01*
X038455Y012623D01*
X038811Y012790D01*
X038427Y013614D01*
X039319Y014030D01*
X039153Y014387D01*
X038261Y013971D01*
X037876Y014796D01*
X037519Y014629D01*
X037904Y013805D01*
X037012Y013389D01*
X037178Y013032D01*
X036984Y013709D02*
X036986Y013778D01*
X036992Y013846D01*
X037002Y013914D01*
X037016Y013981D01*
X037034Y014048D01*
X037055Y014113D01*
X037081Y014177D01*
X037110Y014239D01*
X037142Y014299D01*
X037178Y014358D01*
X037218Y014414D01*
X037260Y014468D01*
X037306Y014519D01*
X037355Y014568D01*
X037406Y014614D01*
X037460Y014656D01*
X037516Y014696D01*
X037574Y014732D01*
X037635Y014764D01*
X037697Y014793D01*
X037761Y014819D01*
X037826Y014840D01*
X037893Y014858D01*
X037960Y014872D01*
X038028Y014882D01*
X038096Y014888D01*
X038165Y014890D01*
X038234Y014888D01*
X038302Y014882D01*
X038370Y014872D01*
X038437Y014858D01*
X038504Y014840D01*
X038569Y014819D01*
X038633Y014793D01*
X038695Y014764D01*
X038755Y014732D01*
X038814Y014696D01*
X038870Y014656D01*
X038924Y014614D01*
X038975Y014568D01*
X039024Y014519D01*
X039070Y014468D01*
X039112Y014414D01*
X039152Y014358D01*
X039188Y014299D01*
X039220Y014239D01*
X039249Y014177D01*
X039275Y014113D01*
X039296Y014048D01*
X039314Y013981D01*
X039328Y013914D01*
X039338Y013846D01*
X039344Y013778D01*
X039346Y013709D01*
X039344Y013640D01*
X039338Y013572D01*
X039328Y013504D01*
X039314Y013437D01*
X039296Y013370D01*
X039275Y013305D01*
X039249Y013241D01*
X039220Y013179D01*
X039188Y013118D01*
X039152Y013060D01*
X039112Y013004D01*
X039070Y012950D01*
X039024Y012899D01*
X038975Y012850D01*
X038924Y012804D01*
X038870Y012762D01*
X038814Y012722D01*
X038756Y012686D01*
X038695Y012654D01*
X038633Y012625D01*
X038569Y012599D01*
X038504Y012578D01*
X038437Y012560D01*
X038370Y012546D01*
X038302Y012536D01*
X038234Y012530D01*
X038165Y012528D01*
X038096Y012530D01*
X038028Y012536D01*
X037960Y012546D01*
X037893Y012560D01*
X037826Y012578D01*
X037761Y012599D01*
X037697Y012625D01*
X037635Y012654D01*
X037574Y012686D01*
X037516Y012722D01*
X037460Y012762D01*
X037406Y012804D01*
X037355Y012850D01*
X037306Y012899D01*
X037260Y012950D01*
X037218Y013004D01*
X037178Y013060D01*
X037142Y013118D01*
X037110Y013179D01*
X037081Y013241D01*
X037055Y013305D01*
X037034Y013370D01*
X037016Y013437D01*
X037002Y013504D01*
X036992Y013572D01*
X036986Y013640D01*
X036984Y013709D01*
X040921Y012135D02*
X040921Y015284D01*
X040921Y015875D01*
X040921Y019024D01*
X040921Y019615D01*
X040921Y022765D01*
X038811Y022109D02*
X038427Y021285D01*
X039319Y020869D01*
X039153Y020512D01*
X038261Y020928D01*
X037876Y020104D01*
X037519Y020270D01*
X037904Y021095D01*
X037012Y021511D01*
X037178Y021867D01*
X038070Y021451D01*
X038455Y022276D01*
X038811Y022109D01*
X036984Y021190D02*
X036986Y021259D01*
X036992Y021327D01*
X037002Y021395D01*
X037016Y021462D01*
X037034Y021529D01*
X037055Y021594D01*
X037081Y021658D01*
X037110Y021720D01*
X037142Y021780D01*
X037178Y021839D01*
X037218Y021895D01*
X037260Y021949D01*
X037306Y022000D01*
X037355Y022049D01*
X037406Y022095D01*
X037460Y022137D01*
X037516Y022177D01*
X037574Y022213D01*
X037635Y022245D01*
X037697Y022274D01*
X037761Y022300D01*
X037826Y022321D01*
X037893Y022339D01*
X037960Y022353D01*
X038028Y022363D01*
X038096Y022369D01*
X038165Y022371D01*
X038234Y022369D01*
X038302Y022363D01*
X038370Y022353D01*
X038437Y022339D01*
X038504Y022321D01*
X038569Y022300D01*
X038633Y022274D01*
X038695Y022245D01*
X038755Y022213D01*
X038814Y022177D01*
X038870Y022137D01*
X038924Y022095D01*
X038975Y022049D01*
X039024Y022000D01*
X039070Y021949D01*
X039112Y021895D01*
X039152Y021839D01*
X039188Y021780D01*
X039220Y021720D01*
X039249Y021658D01*
X039275Y021594D01*
X039296Y021529D01*
X039314Y021462D01*
X039328Y021395D01*
X039338Y021327D01*
X039344Y021259D01*
X039346Y021190D01*
X039344Y021121D01*
X039338Y021053D01*
X039328Y020985D01*
X039314Y020918D01*
X039296Y020851D01*
X039275Y020786D01*
X039249Y020722D01*
X039220Y020660D01*
X039188Y020599D01*
X039152Y020541D01*
X039112Y020485D01*
X039070Y020431D01*
X039024Y020380D01*
X038975Y020331D01*
X038924Y020285D01*
X038870Y020243D01*
X038814Y020203D01*
X038756Y020167D01*
X038695Y020135D01*
X038633Y020106D01*
X038569Y020080D01*
X038504Y020059D01*
X038437Y020041D01*
X038370Y020027D01*
X038302Y020017D01*
X038234Y020011D01*
X038165Y020009D01*
X038096Y020011D01*
X038028Y020017D01*
X037960Y020027D01*
X037893Y020041D01*
X037826Y020059D01*
X037761Y020080D01*
X037697Y020106D01*
X037635Y020135D01*
X037574Y020167D01*
X037516Y020203D01*
X037460Y020243D01*
X037406Y020285D01*
X037355Y020331D01*
X037306Y020380D01*
X037260Y020431D01*
X037218Y020485D01*
X037178Y020541D01*
X037142Y020599D01*
X037110Y020660D01*
X037081Y020722D01*
X037055Y020786D01*
X037034Y020851D01*
X037016Y020918D01*
X037002Y020985D01*
X036992Y021053D01*
X036986Y021121D01*
X036984Y021190D01*
X038066Y018569D02*
X038458Y018535D01*
X038379Y017629D01*
X039359Y017543D01*
X039325Y017151D01*
X038344Y017236D01*
X038265Y016330D01*
X037873Y016364D01*
X037952Y017271D01*
X036972Y017356D01*
X037006Y017749D01*
X037986Y017663D01*
X038066Y018569D01*
X036984Y017450D02*
X036986Y017519D01*
X036992Y017587D01*
X037002Y017655D01*
X037016Y017722D01*
X037034Y017789D01*
X037055Y017854D01*
X037081Y017918D01*
X037110Y017980D01*
X037142Y018040D01*
X037178Y018099D01*
X037218Y018155D01*
X037260Y018209D01*
X037306Y018260D01*
X037355Y018309D01*
X037406Y018355D01*
X037460Y018397D01*
X037516Y018437D01*
X037574Y018473D01*
X037635Y018505D01*
X037697Y018534D01*
X037761Y018560D01*
X037826Y018581D01*
X037893Y018599D01*
X037960Y018613D01*
X038028Y018623D01*
X038096Y018629D01*
X038165Y018631D01*
X038234Y018629D01*
X038302Y018623D01*
X038370Y018613D01*
X038437Y018599D01*
X038504Y018581D01*
X038569Y018560D01*
X038633Y018534D01*
X038695Y018505D01*
X038755Y018473D01*
X038814Y018437D01*
X038870Y018397D01*
X038924Y018355D01*
X038975Y018309D01*
X039024Y018260D01*
X039070Y018209D01*
X039112Y018155D01*
X039152Y018099D01*
X039188Y018040D01*
X039220Y017980D01*
X039249Y017918D01*
X039275Y017854D01*
X039296Y017789D01*
X039314Y017722D01*
X039328Y017655D01*
X039338Y017587D01*
X039344Y017519D01*
X039346Y017450D01*
X039344Y017381D01*
X039338Y017313D01*
X039328Y017245D01*
X039314Y017178D01*
X039296Y017111D01*
X039275Y017046D01*
X039249Y016982D01*
X039220Y016920D01*
X039188Y016859D01*
X039152Y016801D01*
X039112Y016745D01*
X039070Y016691D01*
X039024Y016640D01*
X038975Y016591D01*
X038924Y016545D01*
X038870Y016503D01*
X038814Y016463D01*
X038756Y016427D01*
X038695Y016395D01*
X038633Y016366D01*
X038569Y016340D01*
X038504Y016319D01*
X038437Y016301D01*
X038370Y016287D01*
X038302Y016277D01*
X038234Y016271D01*
X038165Y016269D01*
X038096Y016271D01*
X038028Y016277D01*
X037960Y016287D01*
X037893Y016301D01*
X037826Y016319D01*
X037761Y016340D01*
X037697Y016366D01*
X037635Y016395D01*
X037574Y016427D01*
X037516Y016463D01*
X037460Y016503D01*
X037406Y016545D01*
X037355Y016591D01*
X037306Y016640D01*
X037260Y016691D01*
X037218Y016745D01*
X037178Y016801D01*
X037142Y016859D01*
X037110Y016920D01*
X037081Y016982D01*
X037055Y017046D01*
X037034Y017111D01*
X037016Y017178D01*
X037002Y017245D01*
X036992Y017313D01*
X036986Y017381D01*
X036984Y017450D01*
X030174Y026800D02*
X030176Y026851D01*
X030182Y026902D01*
X030192Y026952D01*
X030205Y027002D01*
X030223Y027050D01*
X030243Y027097D01*
X030268Y027142D01*
X030296Y027185D01*
X030327Y027226D01*
X030361Y027264D01*
X030398Y027299D01*
X030437Y027332D01*
X030479Y027362D01*
X030523Y027388D01*
X030569Y027410D01*
X030617Y027430D01*
X030666Y027445D01*
X030716Y027457D01*
X030766Y027465D01*
X030817Y027469D01*
X030869Y027469D01*
X030920Y027465D01*
X030970Y027457D01*
X031020Y027445D01*
X031069Y027430D01*
X031117Y027410D01*
X031163Y027388D01*
X031207Y027362D01*
X031249Y027332D01*
X031288Y027299D01*
X031325Y027264D01*
X031359Y027226D01*
X031390Y027185D01*
X031418Y027142D01*
X031443Y027097D01*
X031463Y027050D01*
X031481Y027002D01*
X031494Y026952D01*
X031504Y026902D01*
X031510Y026851D01*
X031512Y026800D01*
X031510Y026749D01*
X031504Y026698D01*
X031494Y026648D01*
X031481Y026598D01*
X031463Y026550D01*
X031443Y026503D01*
X031418Y026458D01*
X031390Y026415D01*
X031359Y026374D01*
X031325Y026336D01*
X031288Y026301D01*
X031249Y026268D01*
X031207Y026238D01*
X031163Y026212D01*
X031117Y026190D01*
X031069Y026170D01*
X031020Y026155D01*
X030970Y026143D01*
X030920Y026135D01*
X030869Y026131D01*
X030817Y026131D01*
X030766Y026135D01*
X030716Y026143D01*
X030666Y026155D01*
X030617Y026170D01*
X030569Y026190D01*
X030523Y026212D01*
X030479Y026238D01*
X030437Y026268D01*
X030398Y026301D01*
X030361Y026336D01*
X030327Y026374D01*
X030296Y026415D01*
X030268Y026458D01*
X030243Y026503D01*
X030223Y026550D01*
X030205Y026598D01*
X030192Y026648D01*
X030182Y026698D01*
X030176Y026749D01*
X030174Y026800D01*
X010174Y026800D02*
X010176Y026851D01*
X010182Y026902D01*
X010192Y026952D01*
X010205Y027002D01*
X010223Y027050D01*
X010243Y027097D01*
X010268Y027142D01*
X010296Y027185D01*
X010327Y027226D01*
X010361Y027264D01*
X010398Y027299D01*
X010437Y027332D01*
X010479Y027362D01*
X010523Y027388D01*
X010569Y027410D01*
X010617Y027430D01*
X010666Y027445D01*
X010716Y027457D01*
X010766Y027465D01*
X010817Y027469D01*
X010869Y027469D01*
X010920Y027465D01*
X010970Y027457D01*
X011020Y027445D01*
X011069Y027430D01*
X011117Y027410D01*
X011163Y027388D01*
X011207Y027362D01*
X011249Y027332D01*
X011288Y027299D01*
X011325Y027264D01*
X011359Y027226D01*
X011390Y027185D01*
X011418Y027142D01*
X011443Y027097D01*
X011463Y027050D01*
X011481Y027002D01*
X011494Y026952D01*
X011504Y026902D01*
X011510Y026851D01*
X011512Y026800D01*
X011510Y026749D01*
X011504Y026698D01*
X011494Y026648D01*
X011481Y026598D01*
X011463Y026550D01*
X011443Y026503D01*
X011418Y026458D01*
X011390Y026415D01*
X011359Y026374D01*
X011325Y026336D01*
X011288Y026301D01*
X011249Y026268D01*
X011207Y026238D01*
X011163Y026212D01*
X011117Y026190D01*
X011069Y026170D01*
X011020Y026155D01*
X010970Y026143D01*
X010920Y026135D01*
X010869Y026131D01*
X010817Y026131D01*
X010766Y026135D01*
X010716Y026143D01*
X010666Y026155D01*
X010617Y026170D01*
X010569Y026190D01*
X010523Y026212D01*
X010479Y026238D01*
X010437Y026268D01*
X010398Y026301D01*
X010361Y026336D01*
X010327Y026374D01*
X010296Y026415D01*
X010268Y026458D01*
X010243Y026503D01*
X010223Y026550D01*
X010205Y026598D01*
X010192Y026648D01*
X010182Y026698D01*
X010176Y026749D01*
X010174Y026800D01*
X004799Y005383D02*
X003815Y005383D01*
X001862Y005383D01*
X000862Y005383D01*
X000862Y005009D01*
X000862Y004792D01*
X000862Y003119D01*
X004799Y003119D01*
X004799Y004792D01*
X004799Y005009D01*
X004799Y005383D01*
X010174Y001800D02*
X010176Y001851D01*
X010182Y001902D01*
X010192Y001952D01*
X010205Y002002D01*
X010223Y002050D01*
X010243Y002097D01*
X010268Y002142D01*
X010296Y002185D01*
X010327Y002226D01*
X010361Y002264D01*
X010398Y002299D01*
X010437Y002332D01*
X010479Y002362D01*
X010523Y002388D01*
X010569Y002410D01*
X010617Y002430D01*
X010666Y002445D01*
X010716Y002457D01*
X010766Y002465D01*
X010817Y002469D01*
X010869Y002469D01*
X010920Y002465D01*
X010970Y002457D01*
X011020Y002445D01*
X011069Y002430D01*
X011117Y002410D01*
X011163Y002388D01*
X011207Y002362D01*
X011249Y002332D01*
X011288Y002299D01*
X011325Y002264D01*
X011359Y002226D01*
X011390Y002185D01*
X011418Y002142D01*
X011443Y002097D01*
X011463Y002050D01*
X011481Y002002D01*
X011494Y001952D01*
X011504Y001902D01*
X011510Y001851D01*
X011512Y001800D01*
X011510Y001749D01*
X011504Y001698D01*
X011494Y001648D01*
X011481Y001598D01*
X011463Y001550D01*
X011443Y001503D01*
X011418Y001458D01*
X011390Y001415D01*
X011359Y001374D01*
X011325Y001336D01*
X011288Y001301D01*
X011249Y001268D01*
X011207Y001238D01*
X011163Y001212D01*
X011117Y001190D01*
X011069Y001170D01*
X011020Y001155D01*
X010970Y001143D01*
X010920Y001135D01*
X010869Y001131D01*
X010817Y001131D01*
X010766Y001135D01*
X010716Y001143D01*
X010666Y001155D01*
X010617Y001170D01*
X010569Y001190D01*
X010523Y001212D01*
X010479Y001238D01*
X010437Y001268D01*
X010398Y001301D01*
X010361Y001336D01*
X010327Y001374D01*
X010296Y001415D01*
X010268Y001458D01*
X010243Y001503D01*
X010223Y001550D01*
X010205Y001598D01*
X010192Y001648D01*
X010182Y001698D01*
X010176Y001749D01*
X010174Y001800D01*
D15*
X007707Y002005D02*
X007394Y001505D01*
X007269Y001755D01*
X006894Y000942D01*
X007269Y001442D01*
X007394Y001130D01*
X007707Y002005D01*
X007695Y001973D02*
X007687Y001973D01*
X007678Y001924D02*
X007656Y001924D01*
X007661Y001876D02*
X007626Y001876D01*
X007643Y001827D02*
X007596Y001827D01*
X007626Y001779D02*
X007565Y001779D01*
X007535Y001730D02*
X007609Y001730D01*
X007591Y001682D02*
X007505Y001682D01*
X007474Y001633D02*
X007574Y001633D01*
X007557Y001585D02*
X007444Y001585D01*
X007414Y001536D02*
X007539Y001536D01*
X007522Y001488D02*
X007146Y001488D01*
X007168Y001536D02*
X007378Y001536D01*
X007354Y001585D02*
X007191Y001585D01*
X007213Y001633D02*
X007330Y001633D01*
X007306Y001682D02*
X007235Y001682D01*
X007258Y001730D02*
X007281Y001730D01*
X007270Y001439D02*
X007505Y001439D01*
X007487Y001391D02*
X007290Y001391D01*
X007309Y001342D02*
X007470Y001342D01*
X007453Y001294D02*
X007329Y001294D01*
X007348Y001245D02*
X007435Y001245D01*
X007418Y001197D02*
X007367Y001197D01*
X007387Y001148D02*
X007401Y001148D01*
X007158Y001294D02*
X007056Y001294D01*
X007079Y001342D02*
X007194Y001342D01*
X007230Y001391D02*
X007101Y001391D01*
X007124Y001439D02*
X007267Y001439D01*
X007121Y001245D02*
X007034Y001245D01*
X007012Y001197D02*
X007085Y001197D01*
X007049Y001148D02*
X006989Y001148D01*
X006967Y001100D02*
X007012Y001100D01*
X006976Y001051D02*
X006944Y001051D01*
X006940Y001003D02*
X006922Y001003D01*
X006903Y000954D02*
X006900Y000954D01*
X003081Y002005D02*
X002768Y001505D01*
X002643Y001755D01*
X002268Y000942D01*
X002643Y001442D01*
X002768Y001130D01*
X003081Y002005D01*
X003069Y001973D02*
X003061Y001973D01*
X003052Y001924D02*
X003030Y001924D01*
X003035Y001876D02*
X003000Y001876D01*
X003017Y001827D02*
X002970Y001827D01*
X003000Y001779D02*
X002939Y001779D01*
X002909Y001730D02*
X002983Y001730D01*
X002965Y001682D02*
X002879Y001682D01*
X002848Y001633D02*
X002948Y001633D01*
X002931Y001585D02*
X002818Y001585D01*
X002788Y001536D02*
X002913Y001536D01*
X002896Y001488D02*
X002520Y001488D01*
X002542Y001536D02*
X002753Y001536D01*
X002728Y001585D02*
X002565Y001585D01*
X002587Y001633D02*
X002704Y001633D01*
X002680Y001682D02*
X002609Y001682D01*
X002632Y001730D02*
X002656Y001730D01*
X002644Y001439D02*
X002879Y001439D01*
X002861Y001391D02*
X002664Y001391D01*
X002683Y001342D02*
X002844Y001342D01*
X002827Y001294D02*
X002703Y001294D01*
X002722Y001245D02*
X002809Y001245D01*
X002792Y001197D02*
X002741Y001197D01*
X002761Y001148D02*
X002775Y001148D01*
X002532Y001294D02*
X002430Y001294D01*
X002453Y001342D02*
X002568Y001342D01*
X002604Y001391D02*
X002475Y001391D01*
X002498Y001439D02*
X002641Y001439D01*
X002495Y001245D02*
X002408Y001245D01*
X002386Y001197D02*
X002459Y001197D01*
X002423Y001148D02*
X002363Y001148D01*
X002341Y001100D02*
X002386Y001100D01*
X002350Y001051D02*
X002318Y001051D01*
X002314Y001003D02*
X002296Y001003D01*
X002277Y000954D02*
X002274Y000954D01*
X005079Y003670D02*
X009835Y003670D01*
X012220Y004654D02*
X012457Y004654D01*
X012457Y004969D01*
X012220Y004969D01*
X013378Y006032D02*
X014157Y006032D01*
X014157Y006213D01*
X015724Y006213D01*
X015724Y006032D01*
X016496Y006032D01*
X016496Y006387D01*
X015724Y006032D02*
X014157Y006032D01*
X013378Y006032D02*
X013378Y006387D01*
X017409Y004969D02*
X017409Y004654D01*
X017646Y004654D01*
X017646Y004969D02*
X017409Y004969D01*
X018126Y004969D02*
X018362Y004969D01*
X018362Y004654D01*
X018126Y004654D01*
X019283Y006032D02*
X020063Y006032D01*
X020063Y006213D01*
X021630Y006213D01*
X021630Y006032D01*
X022402Y006032D01*
X022402Y006387D01*
X021630Y006032D02*
X020063Y006032D01*
X019283Y006032D02*
X019283Y006387D01*
X018677Y007607D02*
X027693Y007607D01*
X027693Y007608D02*
X027715Y007610D01*
X027737Y007614D01*
X027758Y007622D01*
X027778Y007633D01*
X027796Y007646D01*
X027812Y007662D01*
X027825Y007680D01*
X027836Y007700D01*
X027844Y007721D01*
X027848Y007743D01*
X027850Y007765D01*
X027850Y009024D01*
X027851Y009025D02*
X027852Y009053D01*
X027850Y009081D01*
X027844Y009108D01*
X027835Y009135D01*
X027822Y009160D01*
X027807Y009183D01*
X027788Y009204D01*
X027767Y009223D01*
X027744Y009239D01*
X027719Y009252D01*
X027693Y009261D01*
X027685Y009269D02*
X022146Y009479D01*
X022142Y009457D02*
X022115Y009461D01*
X022088Y009469D01*
X022063Y009479D01*
X022039Y009493D01*
X022018Y009510D01*
X021998Y009530D01*
X021981Y009551D01*
X021967Y009575D01*
X021957Y009600D01*
X021949Y009627D01*
X021945Y009654D01*
X021949Y009650D02*
X021949Y010650D01*
X021945Y010638D02*
X021955Y010661D01*
X021967Y010683D01*
X021983Y010702D01*
X022001Y010719D01*
X022022Y010733D01*
X022044Y010745D01*
X022068Y010753D01*
X022092Y010758D01*
X022117Y010759D01*
X022142Y010757D01*
X022146Y010769D02*
X027713Y010993D01*
X027693Y010993D02*
X027721Y010994D01*
X027748Y010999D01*
X027774Y011008D01*
X027798Y011020D01*
X027820Y011036D01*
X027841Y011054D01*
X027858Y011076D01*
X027872Y011099D01*
X027883Y011124D01*
X027890Y011150D01*
X027890Y011859D01*
X027886Y011886D01*
X027878Y011913D01*
X027868Y011938D01*
X027854Y011962D01*
X027837Y011983D01*
X027817Y012003D01*
X027796Y012020D01*
X027772Y012034D01*
X027747Y012044D01*
X027720Y012052D01*
X027693Y012056D01*
X027713Y012072D02*
X022146Y012269D01*
X022142Y012252D02*
X022115Y012256D01*
X022088Y012264D01*
X022063Y012274D01*
X022039Y012288D01*
X022018Y012305D01*
X021998Y012325D01*
X021981Y012346D01*
X021967Y012370D01*
X021957Y012395D01*
X021949Y012422D01*
X021945Y012449D01*
X021949Y012414D02*
X021949Y020083D01*
X021945Y020088D02*
X021949Y020115D01*
X021957Y020142D01*
X021967Y020167D01*
X021981Y020191D01*
X021998Y020212D01*
X022018Y020232D01*
X022039Y020249D01*
X022063Y020263D01*
X022088Y020273D01*
X022115Y020281D01*
X022142Y020285D01*
X022146Y020269D02*
X027713Y020465D01*
X027693Y020481D02*
X027720Y020485D01*
X027747Y020493D01*
X027772Y020503D01*
X027796Y020517D01*
X027817Y020534D01*
X027837Y020554D01*
X027854Y020575D01*
X027868Y020599D01*
X027878Y020624D01*
X027886Y020651D01*
X027890Y020678D01*
X027890Y021387D01*
X027883Y021413D01*
X027872Y021438D01*
X027858Y021461D01*
X027841Y021483D01*
X027820Y021501D01*
X027798Y021517D01*
X027774Y021529D01*
X027748Y021538D01*
X027721Y021543D01*
X027693Y021544D01*
X027713Y021544D02*
X022146Y021769D01*
X022142Y021780D02*
X022117Y021778D01*
X022092Y021779D01*
X022068Y021784D01*
X022044Y021792D01*
X022022Y021804D01*
X022001Y021818D01*
X021983Y021835D01*
X021967Y021854D01*
X021955Y021876D01*
X021945Y021899D01*
X021949Y021887D02*
X021949Y022887D01*
X021945Y022883D02*
X021949Y022910D01*
X021957Y022937D01*
X021967Y022962D01*
X021981Y022986D01*
X021998Y023007D01*
X022018Y023027D01*
X022039Y023044D01*
X022063Y023058D01*
X022088Y023068D01*
X022115Y023076D01*
X022142Y023080D01*
X022146Y023058D02*
X027685Y023269D01*
X027693Y023276D02*
X027719Y023285D01*
X027744Y023298D01*
X027767Y023314D01*
X027788Y023333D01*
X027807Y023354D01*
X027822Y023377D01*
X027835Y023402D01*
X027844Y023429D01*
X027850Y023456D01*
X027852Y023484D01*
X027851Y023512D01*
X027850Y023513D02*
X027850Y024772D01*
X027848Y024794D01*
X027844Y024816D01*
X027836Y024837D01*
X027825Y024857D01*
X027812Y024875D01*
X027796Y024891D01*
X027778Y024904D01*
X027758Y024915D01*
X027737Y024923D01*
X027715Y024927D01*
X027693Y024929D01*
X027693Y024930D02*
X018677Y024930D01*
X018677Y007607D01*
X018205Y007765D02*
X018205Y009024D01*
X018205Y009025D02*
X018206Y009053D01*
X018204Y009081D01*
X018198Y009108D01*
X018189Y009135D01*
X018176Y009160D01*
X018161Y009183D01*
X018142Y009204D01*
X018121Y009223D01*
X018098Y009239D01*
X018073Y009252D01*
X018047Y009261D01*
X018039Y009269D02*
X012500Y009479D01*
X012496Y009457D02*
X012469Y009461D01*
X012442Y009469D01*
X012417Y009479D01*
X012393Y009493D01*
X012372Y009510D01*
X012352Y009530D01*
X012335Y009551D01*
X012321Y009575D01*
X012311Y009600D01*
X012303Y009627D01*
X012299Y009654D01*
X012303Y009650D02*
X012303Y010650D01*
X012299Y010638D02*
X012309Y010661D01*
X012321Y010683D01*
X012337Y010702D01*
X012355Y010719D01*
X012376Y010733D01*
X012398Y010745D01*
X012422Y010753D01*
X012446Y010758D01*
X012471Y010759D01*
X012496Y010757D01*
X012500Y010769D02*
X018067Y010993D01*
X018047Y010993D02*
X018072Y010994D01*
X018097Y010998D01*
X018121Y011005D01*
X018143Y011016D01*
X018164Y011028D01*
X018184Y011044D01*
X018201Y011062D01*
X018216Y011082D01*
X018228Y011103D01*
X018238Y011126D01*
X018244Y011150D01*
X018244Y011859D01*
X018240Y011886D01*
X018232Y011913D01*
X018222Y011938D01*
X018208Y011962D01*
X018191Y011983D01*
X018171Y012003D01*
X018150Y012020D01*
X018126Y012034D01*
X018101Y012044D01*
X018074Y012052D01*
X018047Y012056D01*
X018067Y012072D02*
X012500Y012269D01*
X012496Y012252D02*
X012469Y012256D01*
X012442Y012264D01*
X012417Y012274D01*
X012393Y012288D01*
X012372Y012305D01*
X012352Y012325D01*
X012335Y012346D01*
X012321Y012370D01*
X012311Y012395D01*
X012303Y012422D01*
X012299Y012449D01*
X012303Y012414D02*
X012303Y020083D01*
X012299Y020088D02*
X012303Y020115D01*
X012311Y020142D01*
X012321Y020167D01*
X012335Y020191D01*
X012352Y020212D01*
X012372Y020232D01*
X012393Y020249D01*
X012417Y020263D01*
X012442Y020273D01*
X012469Y020281D01*
X012496Y020285D01*
X012500Y020269D02*
X018067Y020465D01*
X018047Y020481D02*
X018074Y020485D01*
X018101Y020493D01*
X018126Y020503D01*
X018150Y020517D01*
X018171Y020534D01*
X018191Y020554D01*
X018208Y020575D01*
X018222Y020599D01*
X018232Y020624D01*
X018240Y020651D01*
X018244Y020678D01*
X018244Y021387D01*
X018238Y021411D01*
X018228Y021434D01*
X018216Y021455D01*
X018201Y021475D01*
X018184Y021493D01*
X018164Y021509D01*
X018143Y021521D01*
X018121Y021532D01*
X018097Y021539D01*
X018072Y021543D01*
X018047Y021544D01*
X018067Y021544D02*
X012500Y021769D01*
X012496Y021780D02*
X012471Y021778D01*
X012446Y021779D01*
X012422Y021784D01*
X012398Y021792D01*
X012376Y021804D01*
X012355Y021818D01*
X012337Y021835D01*
X012321Y021854D01*
X012309Y021876D01*
X012299Y021899D01*
X012303Y021887D02*
X012303Y022887D01*
X012299Y022883D02*
X012303Y022910D01*
X012311Y022937D01*
X012321Y022962D01*
X012335Y022986D01*
X012352Y023007D01*
X012372Y023027D01*
X012393Y023044D01*
X012417Y023058D01*
X012442Y023068D01*
X012469Y023076D01*
X012496Y023080D01*
X012500Y023058D02*
X018039Y023269D01*
X018047Y023276D02*
X018073Y023285D01*
X018098Y023298D01*
X018121Y023314D01*
X018142Y023333D01*
X018161Y023354D01*
X018176Y023377D01*
X018189Y023402D01*
X018198Y023429D01*
X018204Y023456D01*
X018206Y023484D01*
X018205Y023512D01*
X018205Y023513D02*
X018205Y024772D01*
X018204Y024772D02*
X018202Y024794D01*
X018198Y024816D01*
X018190Y024837D01*
X018179Y024857D01*
X018166Y024875D01*
X018150Y024891D01*
X018132Y024904D01*
X018112Y024915D01*
X018091Y024923D01*
X018069Y024927D01*
X018047Y024929D01*
X018047Y024930D02*
X009032Y024930D01*
X009032Y007607D01*
X018047Y007607D01*
X018047Y007608D02*
X018069Y007610D01*
X018091Y007614D01*
X018112Y007622D01*
X018132Y007633D01*
X018150Y007646D01*
X018166Y007662D01*
X018179Y007680D01*
X018190Y007700D01*
X018198Y007721D01*
X018202Y007743D01*
X018204Y007765D01*
X023315Y004969D02*
X023315Y004654D01*
X023551Y004654D01*
X023551Y004969D02*
X023315Y004969D01*
X024032Y004969D02*
X024268Y004969D01*
X024268Y004654D01*
X024032Y004654D01*
X025189Y006032D02*
X025969Y006032D01*
X025969Y006213D01*
X027535Y006213D01*
X027535Y006032D01*
X028307Y006032D01*
X028307Y006387D01*
X027535Y006032D02*
X025969Y006032D01*
X025189Y006032D02*
X025189Y006387D01*
X029220Y004969D02*
X029220Y004654D01*
X029457Y004654D01*
X029457Y004969D02*
X029220Y004969D01*
X032047Y003473D02*
X036803Y003473D01*
X034872Y001709D02*
X034560Y001209D01*
X034435Y001459D01*
X034060Y000647D01*
X034435Y001147D01*
X034560Y000834D01*
X034872Y001709D01*
X034862Y001682D02*
X034855Y001682D01*
X034845Y001633D02*
X034824Y001633D01*
X034827Y001585D02*
X034794Y001585D01*
X034810Y001536D02*
X034764Y001536D01*
X034793Y001488D02*
X034733Y001488D01*
X034703Y001439D02*
X034776Y001439D01*
X034758Y001391D02*
X034673Y001391D01*
X034642Y001342D02*
X034741Y001342D01*
X034724Y001294D02*
X034612Y001294D01*
X034582Y001245D02*
X034706Y001245D01*
X034689Y001197D02*
X034313Y001197D01*
X034336Y001245D02*
X034542Y001245D01*
X034517Y001294D02*
X034358Y001294D01*
X034380Y001342D02*
X034493Y001342D01*
X034469Y001391D02*
X034403Y001391D01*
X034425Y001439D02*
X034445Y001439D01*
X034291Y001148D02*
X034672Y001148D01*
X034654Y001100D02*
X034453Y001100D01*
X034473Y001051D02*
X034637Y001051D01*
X034620Y001003D02*
X034492Y001003D01*
X034512Y000954D02*
X034602Y000954D01*
X034585Y000906D02*
X034531Y000906D01*
X034550Y000857D02*
X034568Y000857D01*
X034326Y001003D02*
X034224Y001003D01*
X034246Y001051D02*
X034363Y001051D01*
X034399Y001100D02*
X034268Y001100D01*
X034290Y000954D02*
X034201Y000954D01*
X034179Y000906D02*
X034254Y000906D01*
X034217Y000857D02*
X034157Y000857D01*
X034134Y000809D02*
X034181Y000809D01*
X034144Y000760D02*
X034112Y000760D01*
X034108Y000712D02*
X034089Y000712D01*
X034072Y000663D02*
X034067Y000663D01*
X026998Y001660D02*
X026686Y001160D01*
X026561Y001410D01*
X026186Y000598D01*
X026561Y001098D01*
X026686Y000785D01*
X026998Y001660D01*
X026988Y001633D02*
X026981Y001633D01*
X026971Y001585D02*
X026951Y001585D01*
X026954Y001536D02*
X026920Y001536D01*
X026936Y001488D02*
X026890Y001488D01*
X026919Y001439D02*
X026860Y001439D01*
X026830Y001391D02*
X026902Y001391D01*
X026884Y001342D02*
X026799Y001342D01*
X026769Y001294D02*
X026867Y001294D01*
X026850Y001245D02*
X026739Y001245D01*
X026708Y001197D02*
X026832Y001197D01*
X026815Y001148D02*
X026440Y001148D01*
X026462Y001197D02*
X026667Y001197D01*
X026643Y001245D02*
X026484Y001245D01*
X026507Y001294D02*
X026619Y001294D01*
X026595Y001342D02*
X026529Y001342D01*
X026551Y001391D02*
X026570Y001391D01*
X026417Y001100D02*
X026798Y001100D01*
X026780Y001051D02*
X026579Y001051D01*
X026599Y001003D02*
X026763Y001003D01*
X026746Y000954D02*
X026618Y000954D01*
X026637Y000906D02*
X026729Y000906D01*
X026711Y000857D02*
X026657Y000857D01*
X026676Y000809D02*
X026694Y000809D01*
X026453Y000954D02*
X026350Y000954D01*
X026328Y000906D02*
X026416Y000906D01*
X026380Y000857D02*
X026305Y000857D01*
X026283Y000809D02*
X026344Y000809D01*
X026307Y000760D02*
X026260Y000760D01*
X026271Y000712D02*
X026238Y000712D01*
X026235Y000663D02*
X026216Y000663D01*
X026198Y000615D02*
X026193Y000615D01*
X026372Y001003D02*
X026489Y001003D01*
X026526Y001051D02*
X026395Y001051D01*
X021093Y001660D02*
X020780Y000785D01*
X020655Y001098D01*
X020280Y000598D01*
X020655Y001410D01*
X020780Y001160D01*
X021093Y001660D01*
X021083Y001633D02*
X021076Y001633D01*
X021066Y001585D02*
X021045Y001585D01*
X021048Y001536D02*
X021015Y001536D01*
X021031Y001488D02*
X020985Y001488D01*
X021014Y001439D02*
X020954Y001439D01*
X020924Y001391D02*
X020996Y001391D01*
X020979Y001342D02*
X020894Y001342D01*
X020863Y001294D02*
X020962Y001294D01*
X020944Y001245D02*
X020833Y001245D01*
X020803Y001197D02*
X020927Y001197D01*
X020910Y001148D02*
X020534Y001148D01*
X020512Y001100D02*
X020892Y001100D01*
X020875Y001051D02*
X020674Y001051D01*
X020693Y001003D02*
X020858Y001003D01*
X020840Y000954D02*
X020712Y000954D01*
X020732Y000906D02*
X020823Y000906D01*
X020806Y000857D02*
X020751Y000857D01*
X020771Y000809D02*
X020788Y000809D01*
X020547Y000954D02*
X020445Y000954D01*
X020467Y001003D02*
X020584Y001003D01*
X020620Y001051D02*
X020489Y001051D01*
X020511Y000906D02*
X020422Y000906D01*
X020400Y000857D02*
X020475Y000857D01*
X020438Y000809D02*
X020377Y000809D01*
X020355Y000760D02*
X020402Y000760D01*
X020365Y000712D02*
X020333Y000712D01*
X020329Y000663D02*
X020310Y000663D01*
X020293Y000615D02*
X020288Y000615D01*
X020556Y001197D02*
X020762Y001197D01*
X020738Y001245D02*
X020579Y001245D01*
X020601Y001294D02*
X020713Y001294D01*
X020689Y001342D02*
X020624Y001342D01*
X020646Y001391D02*
X020665Y001391D01*
X015187Y001660D02*
X014875Y000785D01*
X014750Y001098D01*
X014375Y000598D01*
X014750Y001410D01*
X014875Y001160D01*
X015187Y001660D01*
X015177Y001633D02*
X015170Y001633D01*
X015160Y001585D02*
X015140Y001585D01*
X015143Y001536D02*
X015109Y001536D01*
X015125Y001488D02*
X015079Y001488D01*
X015108Y001439D02*
X015049Y001439D01*
X015019Y001391D02*
X015091Y001391D01*
X015073Y001342D02*
X014988Y001342D01*
X014958Y001294D02*
X015056Y001294D01*
X015039Y001245D02*
X014928Y001245D01*
X014897Y001197D02*
X015021Y001197D01*
X015004Y001148D02*
X014629Y001148D01*
X014651Y001197D02*
X014856Y001197D01*
X014832Y001245D02*
X014673Y001245D01*
X014696Y001294D02*
X014808Y001294D01*
X014784Y001342D02*
X014718Y001342D01*
X014740Y001391D02*
X014759Y001391D01*
X014606Y001100D02*
X014987Y001100D01*
X014969Y001051D02*
X014768Y001051D01*
X014788Y001003D02*
X014952Y001003D01*
X014935Y000954D02*
X014807Y000954D01*
X014826Y000906D02*
X014917Y000906D01*
X014900Y000857D02*
X014846Y000857D01*
X014865Y000809D02*
X014883Y000809D01*
X014642Y000954D02*
X014539Y000954D01*
X014517Y000906D02*
X014605Y000906D01*
X014569Y000857D02*
X014494Y000857D01*
X014472Y000809D02*
X014533Y000809D01*
X014496Y000760D02*
X014449Y000760D01*
X014460Y000712D02*
X014427Y000712D01*
X014424Y000663D02*
X014405Y000663D01*
X014387Y000615D02*
X014382Y000615D01*
X014561Y001003D02*
X014678Y001003D01*
X014715Y001051D02*
X014584Y001051D01*
X004799Y004792D02*
X004681Y004792D01*
X004681Y005009D01*
X004799Y005009D01*
X003815Y005245D02*
X001862Y005245D01*
X001862Y005383D01*
X000980Y005009D02*
X000862Y005009D01*
X000980Y005009D02*
X000980Y004792D01*
X000862Y004792D01*
X003815Y005245D02*
X003815Y005383D01*
X004335Y023974D02*
X004710Y024786D01*
X004835Y024536D01*
X005148Y025036D01*
X004835Y024161D01*
X004710Y024474D01*
X004335Y023974D01*
X004343Y023992D02*
X004349Y023992D01*
X004366Y024040D02*
X004385Y024040D01*
X004388Y024089D02*
X004421Y024089D01*
X004411Y024137D02*
X004458Y024137D01*
X004433Y024186D02*
X004494Y024186D01*
X004531Y024234D02*
X004455Y024234D01*
X004478Y024283D02*
X004567Y024283D01*
X004603Y024331D02*
X004500Y024331D01*
X004523Y024380D02*
X004640Y024380D01*
X004676Y024428D02*
X004545Y024428D01*
X004567Y024477D02*
X004948Y024477D01*
X004965Y024525D02*
X004590Y024525D01*
X004612Y024574D02*
X004816Y024574D01*
X004859Y024574D02*
X004982Y024574D01*
X005000Y024622D02*
X004889Y024622D01*
X004919Y024671D02*
X005017Y024671D01*
X005034Y024719D02*
X004950Y024719D01*
X004980Y024768D02*
X005052Y024768D01*
X005069Y024816D02*
X005010Y024816D01*
X005040Y024865D02*
X005086Y024865D01*
X005071Y024913D02*
X005104Y024913D01*
X005101Y024962D02*
X005121Y024962D01*
X005131Y025010D02*
X005138Y025010D01*
X004719Y024768D02*
X004702Y024768D01*
X004679Y024719D02*
X004744Y024719D01*
X004768Y024671D02*
X004657Y024671D01*
X004634Y024622D02*
X004792Y024622D01*
X004728Y024428D02*
X004930Y024428D01*
X004913Y024380D02*
X004748Y024380D01*
X004767Y024331D02*
X004896Y024331D01*
X004879Y024283D02*
X004787Y024283D01*
X004806Y024234D02*
X004861Y024234D01*
X004844Y024186D02*
X004825Y024186D01*
X036225Y023974D02*
X036600Y024786D01*
X036725Y024536D01*
X037037Y025036D01*
X036725Y024161D01*
X036600Y024474D01*
X036225Y023974D01*
X036233Y023992D02*
X036238Y023992D01*
X036256Y024040D02*
X036275Y024040D01*
X036278Y024089D02*
X036311Y024089D01*
X036300Y024137D02*
X036348Y024137D01*
X036323Y024186D02*
X036384Y024186D01*
X036420Y024234D02*
X036345Y024234D01*
X036368Y024283D02*
X036457Y024283D01*
X036493Y024331D02*
X036390Y024331D01*
X036412Y024380D02*
X036529Y024380D01*
X036566Y024428D02*
X036435Y024428D01*
X036457Y024477D02*
X036838Y024477D01*
X036855Y024525D02*
X036479Y024525D01*
X036502Y024574D02*
X036706Y024574D01*
X036748Y024574D02*
X036872Y024574D01*
X036890Y024622D02*
X036779Y024622D01*
X036809Y024671D02*
X036907Y024671D01*
X036924Y024719D02*
X036839Y024719D01*
X036870Y024768D02*
X036942Y024768D01*
X036959Y024816D02*
X036900Y024816D01*
X036930Y024865D02*
X036976Y024865D01*
X036961Y024913D02*
X036993Y024913D01*
X036991Y024962D02*
X037011Y024962D01*
X037021Y025010D02*
X037028Y025010D01*
X036609Y024768D02*
X036591Y024768D01*
X036569Y024719D02*
X036633Y024719D01*
X036658Y024671D02*
X036547Y024671D01*
X036524Y024622D02*
X036682Y024622D01*
X036618Y024428D02*
X036820Y024428D01*
X036803Y024380D02*
X036638Y024380D01*
X036657Y024331D02*
X036786Y024331D01*
X036768Y024283D02*
X036676Y024283D01*
X036696Y024234D02*
X036751Y024234D01*
X036734Y024186D02*
X036715Y024186D01*
D16*
X031835Y021615D02*
X031835Y017615D01*
X030685Y017565D02*
X030685Y021665D01*
X029535Y021615D02*
X029535Y017615D01*
D17*
X029660Y017490D03*
X031710Y017490D03*
X031710Y021740D03*
X029660Y021740D03*
D18*
X030685Y021740D03*
X030685Y017490D03*
D19*
X029735Y019615D03*
X031635Y019615D03*
D20*
X031460Y016590D03*
X029910Y016590D03*
X029910Y022640D03*
X031460Y022640D03*
D21*
X031585Y022815D03*
X029785Y022815D03*
X029785Y016415D03*
X031585Y016415D03*
D22*
X031313Y024721D02*
X030892Y024721D01*
X031102Y024721D02*
X031102Y025351D01*
X030892Y025141D01*
X030668Y025351D02*
X030248Y025351D01*
X030248Y024721D01*
X030248Y025036D02*
X030458Y025036D01*
D23*
X035537Y023786D02*
X036787Y025786D01*
X038037Y023786D01*
X035537Y023786D01*
X006148Y023786D02*
X003648Y023786D01*
X004898Y025786D01*
X006148Y023786D01*
X007457Y002755D02*
X006207Y000755D01*
X008707Y000755D01*
X007457Y002755D01*
X004081Y000755D02*
X001581Y000755D01*
X002831Y002755D01*
X004081Y000755D01*
X013687Y000410D02*
X014937Y002410D01*
X016187Y000410D01*
X013687Y000410D01*
X019593Y000410D02*
X020843Y002410D01*
X022093Y000410D01*
X019593Y000410D01*
X025498Y000410D02*
X026748Y002410D01*
X027998Y000410D01*
X025498Y000410D01*
X033372Y000459D02*
X034622Y002459D01*
X035872Y000459D01*
X033372Y000459D01*
M02*
