G04 (created by PCBNEW-RS274X (2012-01-19 BZR 3256)-stable) date Fri 19 Oct 2012 08:46:26 AM MSK*
G01*
G70*
G90*
%MOIN*%
G04 Gerber Fmt 3.4, Leading zero omitted, Abs format*
%FSLAX34Y34*%
G04 APERTURE LIST*
%ADD10C,0.006000*%
%ADD11R,0.070000X0.040000*%
%ADD12R,0.075000X0.055000*%
%ADD13R,0.080000X0.080000*%
%ADD14C,0.080000*%
%ADD15C,0.170000*%
%ADD16C,0.075000*%
%ADD17R,0.040000X0.065000*%
%ADD18R,0.055000X0.075000*%
%ADD19R,0.075000X0.075000*%
%ADD20R,0.090000X0.090000*%
%ADD21C,0.090000*%
G04 APERTURE END LIST*
G54D10*
G54D11*
X60220Y-29710D03*
X60220Y-30210D03*
X60220Y-30710D03*
X60220Y-31210D03*
X60220Y-31710D03*
X60220Y-32210D03*
X60220Y-32710D03*
X60220Y-33210D03*
X60220Y-33710D03*
X60220Y-34210D03*
X56420Y-34210D03*
X56420Y-33710D03*
X56420Y-33210D03*
X56420Y-32710D03*
X56420Y-32210D03*
X56420Y-31710D03*
X56420Y-31210D03*
X56420Y-30710D03*
X56420Y-30210D03*
X56420Y-29710D03*
X62640Y-42610D03*
X62640Y-42110D03*
X62640Y-41610D03*
X62640Y-41110D03*
X62640Y-40610D03*
X62640Y-40110D03*
X62640Y-39610D03*
X62640Y-39110D03*
X62640Y-38610D03*
X62640Y-38110D03*
X66440Y-38110D03*
X66440Y-38610D03*
X66440Y-39110D03*
X66440Y-39610D03*
X66440Y-40110D03*
X66440Y-40610D03*
X66440Y-41110D03*
X66440Y-41610D03*
X66440Y-42110D03*
X66440Y-42610D03*
X67420Y-29710D03*
X67420Y-30210D03*
X67420Y-30710D03*
X67420Y-31210D03*
X67420Y-31710D03*
X67420Y-32210D03*
X67420Y-32710D03*
X67420Y-33210D03*
X67420Y-33710D03*
X67420Y-34210D03*
X63620Y-34210D03*
X63620Y-33710D03*
X63620Y-33210D03*
X63620Y-32710D03*
X63620Y-32210D03*
X63620Y-31710D03*
X63620Y-31210D03*
X63620Y-30710D03*
X63620Y-30210D03*
X63620Y-29710D03*
X54160Y-25570D03*
X54160Y-26070D03*
X54160Y-26570D03*
X54160Y-27070D03*
X54160Y-27570D03*
X54160Y-28070D03*
X54160Y-28570D03*
X54160Y-29070D03*
X54160Y-29570D03*
X54160Y-30070D03*
X50360Y-30070D03*
X50360Y-29570D03*
X50360Y-29070D03*
X50360Y-28570D03*
X50360Y-28070D03*
X50360Y-27570D03*
X50360Y-27070D03*
X50360Y-26570D03*
X50360Y-26070D03*
X50360Y-25570D03*
G54D12*
X44700Y-35945D03*
X44700Y-36695D03*
X43700Y-35945D03*
X43700Y-36695D03*
X42700Y-35925D03*
X42700Y-36675D03*
G54D13*
X40355Y-42660D03*
G54D14*
X41355Y-42660D03*
X42355Y-42660D03*
X43355Y-42660D03*
X44355Y-42660D03*
G54D13*
X46883Y-23001D03*
G54D14*
X47973Y-23001D03*
X49063Y-23001D03*
X50153Y-23001D03*
X51243Y-23001D03*
X52333Y-23001D03*
X53423Y-23001D03*
X54513Y-23001D03*
X55603Y-23001D03*
G54D15*
X44243Y-22441D03*
X69243Y-22441D03*
G54D14*
X56693Y-23001D03*
X57783Y-23001D03*
X58873Y-23001D03*
X59963Y-23001D03*
X61053Y-23001D03*
X62143Y-23001D03*
X63233Y-23001D03*
X64323Y-23001D03*
X65413Y-23001D03*
X66503Y-23001D03*
X47423Y-21881D03*
X48513Y-21881D03*
X49603Y-21881D03*
X50693Y-21881D03*
X51783Y-21881D03*
X52873Y-21881D03*
X53963Y-21881D03*
X55053Y-21881D03*
X56143Y-21881D03*
X57233Y-21881D03*
X58323Y-21881D03*
X59413Y-21881D03*
X60503Y-21881D03*
X61593Y-21881D03*
X62683Y-21881D03*
X63773Y-21881D03*
X64863Y-21881D03*
X65953Y-21881D03*
G54D13*
X66503Y-58889D03*
G54D14*
X65413Y-58889D03*
X64323Y-58889D03*
X63233Y-58889D03*
X62143Y-58889D03*
X61053Y-58889D03*
X59963Y-58889D03*
X58873Y-58889D03*
X57783Y-58889D03*
G54D15*
X69143Y-59449D03*
X44143Y-59449D03*
G54D14*
X56693Y-58889D03*
X55603Y-58889D03*
X54513Y-58889D03*
X53423Y-58889D03*
X52333Y-58889D03*
X51243Y-58889D03*
X50153Y-58889D03*
X49063Y-58889D03*
X47973Y-58889D03*
X46883Y-58889D03*
X65963Y-60009D03*
X64873Y-60009D03*
X63783Y-60009D03*
X62693Y-60009D03*
X61603Y-60009D03*
X60513Y-60009D03*
X59423Y-60009D03*
X58333Y-60009D03*
X57243Y-60009D03*
X56153Y-60009D03*
X55063Y-60009D03*
X53973Y-60009D03*
X52883Y-60009D03*
X51793Y-60009D03*
X50703Y-60009D03*
X49613Y-60009D03*
X48523Y-60009D03*
X47433Y-60009D03*
G54D13*
X45355Y-42660D03*
G54D14*
X46355Y-42660D03*
X47355Y-42660D03*
X48355Y-42660D03*
X49355Y-42660D03*
X50355Y-42660D03*
X51355Y-42660D03*
X52355Y-42660D03*
G54D15*
X37775Y-38950D03*
X37775Y-48950D03*
G54D13*
X38775Y-46150D03*
G54D14*
X38775Y-45050D03*
X38775Y-44000D03*
X38775Y-42900D03*
X38775Y-41800D03*
X37775Y-45600D03*
X37775Y-44500D03*
X37775Y-43450D03*
X37775Y-42350D03*
G54D16*
X47703Y-32170D03*
X47703Y-34170D03*
G54D17*
X74550Y-40390D03*
X74550Y-42490D03*
X74050Y-40390D03*
X73550Y-40390D03*
X73050Y-40390D03*
X74050Y-42490D03*
X73550Y-42490D03*
X73050Y-42490D03*
G54D18*
X72275Y-41040D03*
X71525Y-41040D03*
X72275Y-41840D03*
X71525Y-41840D03*
X74375Y-39640D03*
X73625Y-39640D03*
X74375Y-38860D03*
X73625Y-38860D03*
X74375Y-38080D03*
X73625Y-38080D03*
G54D12*
X72720Y-44775D03*
X72720Y-44025D03*
G54D18*
X73475Y-43260D03*
X72725Y-43260D03*
X72995Y-39640D03*
X72245Y-39640D03*
G54D14*
X74304Y-34160D03*
X72336Y-34160D03*
X74464Y-46440D03*
X72496Y-46440D03*
G54D19*
X74320Y-43780D03*
G54D16*
X71320Y-43780D03*
G54D19*
X74320Y-36840D03*
G54D16*
X71320Y-36840D03*
G54D20*
X71540Y-50800D03*
G54D21*
X73540Y-50800D03*
G54D20*
X73360Y-29780D03*
G54D21*
X71360Y-29780D03*
G54D13*
X44700Y-38760D03*
G54D14*
X43700Y-38760D03*
X42700Y-38760D03*
G54D13*
X44700Y-37600D03*
G54D14*
X43700Y-37600D03*
X42700Y-37600D03*
G54D20*
X77780Y-48860D03*
G54D21*
X75780Y-48860D03*
G54D13*
X76800Y-35450D03*
G54D14*
X76800Y-36450D03*
X76800Y-37450D03*
X76800Y-38450D03*
X76800Y-39450D03*
X76800Y-40450D03*
X76800Y-41450D03*
X76800Y-42450D03*
X76800Y-43450D03*
X76800Y-44450D03*
X76800Y-45450D03*
X76800Y-46450D03*
G54D13*
X78075Y-35450D03*
G54D14*
X78075Y-36450D03*
X78075Y-37450D03*
X78075Y-38450D03*
X78075Y-39450D03*
X78075Y-40450D03*
X78075Y-41450D03*
X78075Y-42450D03*
X78075Y-43450D03*
X78075Y-44450D03*
X78075Y-45450D03*
X78075Y-46450D03*
G54D18*
X72245Y-38860D03*
X72995Y-38860D03*
X72995Y-38080D03*
X72245Y-38080D03*
G54D21*
X43507Y-50728D03*
X44507Y-50728D03*
G54D20*
X45507Y-50728D03*
M02*
