M48
;DRILL file {Pcbnew (2012-01-19 BZR 3256)-stable} date Fri 19 Oct 2012 08:47:47 AM MSK
;FORMAT={-:-/ absolute / metric / decimal}
FMAT,2
METRIC,TZ
T1C0.635
T2C0.813
T3C1.016
T4C3.000
T5C3.048
%
G90
G05
M71
T1
X97.485Y-83.515
X100.025Y-89.916
X102.514Y-82.194
X102.514Y-87.833
X102.514Y-97.130
X102.514Y-102.057
X102.601Y-119.200
X102.601Y-120.701
X103.734Y-87.427
X103.734Y-97.130
X103.784Y-102.006
X105.093Y-88.646
X105.308Y-83.566
X105.410Y-90.297
X105.410Y-97.346
X105.982Y-101.664
X106.680Y-91.377
X106.680Y-97.219
X107.696Y-75.374
X107.950Y-101.981
X108.395Y-89.853
X112.301Y-114.600
X112.471Y-72.339
X113.894Y-75.387
X114.099Y-112.799
X115.951Y-91.123
X117.246Y-88.087
X117.391Y-61.387
X118.021Y-63.071
X119.278Y-101.498
X119.799Y-115.400
X120.091Y-139.649
X122.225Y-93.167
X122.326Y-84.328
X122.746Y-78.486
X123.241Y-92.253
X124.562Y-92.253
X124.605Y-70.947
X124.968Y-101.600
X125.933Y-92.253
X126.035Y-139.598
X126.136Y-102.311
X126.594Y-128.524
X126.949Y-89.459
X127.406Y-102.108
X127.508Y-92.253
X128.199Y-113.101
X128.422Y-89.764
X129.134Y-131.775
X129.273Y-67.627
X129.327Y-64.341
X129.692Y-89.256
X130.200Y-141.884
X130.251Y-101.651
X130.251Y-130.353
X131.572Y-138.836
X131.623Y-91.999
X131.623Y-126.848
X131.623Y-130.353
X131.724Y-77.673
X132.131Y-93.320
X132.446Y-72.855
X132.479Y-54.013
X132.639Y-91.034
X132.944Y-94.437
X133.083Y-65.232
X133.845Y-60.475
X133.858Y-50.683
X133.909Y-91.694
X134.315Y-139.802
X134.417Y-118.567
X134.676Y-73.993
X134.722Y-82.042
X134.722Y-115.062
X135.057Y-54.191
X135.128Y-126.644
X135.179Y-96.926
X135.585Y-116.586
X135.636Y-82.855
X136.086Y-53.221
X136.172Y-76.576
X136.195Y-80.366
X136.218Y-73.924
X136.246Y-94.183
X136.500Y-83.769
X136.500Y-127.051
X137.058Y-81.483
X137.363Y-130.454
X137.516Y-104.496
X137.599Y-61.996
X137.922Y-82.550
X137.973Y-120.650
X138.735Y-105.562
X138.930Y-66.324
X138.989Y-130.048
X139.090Y-110.592
X139.192Y-64.973
X139.598Y-86.817
X140.259Y-105.816
X140.310Y-119.228
X140.360Y-107.188
X140.360Y-120.650
X140.564Y-110.592
X141.122Y-108.102
X141.376Y-86.868
X141.427Y-138.989
X141.630Y-119.583
X142.240Y-110.592
X142.494Y-108.306
X143.002Y-119.532
X143.002Y-123.858
X143.022Y-116.322
X143.596Y-63.188
X143.764Y-110.592
X143.916Y-108.458
X144.374Y-119.532
X144.496Y-60.157
X144.648Y-84.353
X144.750Y-63.114
X144.932Y-91.846
X145.034Y-93.980
X145.034Y-95.352
X145.184Y-125.532
X145.613Y-67.488
X145.621Y-73.838
X145.948Y-92.862
X146.355Y-90.475
X146.558Y-78.689
X147.066Y-117.754
X147.320Y-91.491
X147.320Y-112.370
X147.361Y-63.795
X148.184Y-92.405
X148.415Y-76.175
X148.493Y-57.168
X148.692Y-95.555
X149.098Y-93.370
X149.149Y-120.752
X149.200Y-106.832
X149.238Y-81.003
X149.606Y-96.368
X149.718Y-100.820
X150.002Y-64.059
X150.063Y-94.285
X150.063Y-107.798
X150.439Y-83.571
X150.470Y-97.180
X150.622Y-135.382
X150.749Y-116.393
X150.754Y-59.616
X150.922Y-57.112
X150.927Y-95.148
X150.927Y-139.802
X150.947Y-89.225
X150.978Y-78.537
X150.978Y-120.345
X151.028Y-85.649
X151.232Y-76.352
X151.282Y-74.473
X151.333Y-102.814
X151.333Y-119.177
X151.602Y-84.145
X151.689Y-131.318
X151.795Y-99.939
X151.968Y-108.778
X151.971Y-105.689
X152.298Y-95.047
X152.298Y-133.706
X152.354Y-116.335
X152.535Y-60.432
X152.603Y-119.177
X153.342Y-65.245
X153.690Y-60.927
X153.924Y-119.177
X154.102Y-135.875
X154.534Y-75.438
X154.554Y-73.332
X154.856Y-79.248
X155.004Y-99.886
X155.296Y-96.571
X155.326Y-67.374
X155.341Y-85.499
X155.575Y-100.902
X156.108Y-97.485
X156.159Y-110.795
X157.124Y-79.045
X157.226Y-77.673
X157.434Y-97.191
X157.531Y-110.998
X157.886Y-117.856
X157.912Y-130.739
X158.077Y-116.083
X158.140Y-112.370
X158.293Y-110.033
X158.598Y-139.294
X158.750Y-90.729
X159.182Y-130.802
X159.309Y-75.235
X159.461Y-86.868
X159.779Y-82.685
X159.868Y-109.322
X160.223Y-84.577
X160.759Y-52.644
X160.782Y-73.355
X160.972Y-104.394
X161.239Y-109.474
X161.493Y-96.799
X161.562Y-99.339
X161.585Y-106.078
X162.245Y-63.063
X162.281Y-113.962
X162.509Y-109.372
X162.560Y-126.238
X162.674Y-119.515
X162.941Y-77.081
X163.479Y-87.752
X163.767Y-76.073
X163.881Y-110.439
X163.916Y-85.491
X164.290Y-72.936
X164.313Y-67.645
X164.998Y-108.712
X165.191Y-77.495
X165.227Y-130.810
X165.303Y-110.439
X165.611Y-119.677
X166.058Y-53.624
X166.167Y-108.763
X166.929Y-110.490
X167.081Y-98.095
X167.162Y-75.811
X167.188Y-79.858
X167.312Y-114.793
X167.323Y-129.984
X167.907Y-85.867
X167.960Y-68.171
X168.351Y-117.856
X168.712Y-83.259
X168.758Y-110.437
X169.245Y-64.648
X169.400Y-66.759
X169.642Y-112.903
X169.713Y-82.146
X169.791Y-87.978
X169.901Y-83.419
X169.906Y-77.198
X170.429Y-64.991
X170.434Y-96.825
X170.444Y-91.641
X170.447Y-114.384
X170.739Y-100.914
X170.866Y-98.539
X171.191Y-88.468
X171.768Y-128.928
X171.958Y-111.247
X171.983Y-63.190
X172.657Y-132.525
X172.938Y-66.411
X173.025Y-75.438
X173.264Y-64.783
X173.863Y-71.135
X173.980Y-74.071
X174.102Y-78.262
X174.462Y-62.522
X174.551Y-85.964
X176.474Y-52.664
X176.863Y-76.350
X177.076Y-62.652
X178.133Y-98.717
X178.351Y-80.076
X178.387Y-83.259
X178.389Y-91.699
X178.694Y-88.791
X179.009Y-86.855
X179.743Y-84.074
X180.035Y-104.191
X180.297Y-61.069
X180.848Y-100.736
X181.841Y-61.435
X181.851Y-62.667
X182.263Y-86.444
X182.964Y-59.159
X190.551Y-105.105
X190.754Y-106.223
X192.684Y-108.610
X193.040Y-106.324
X193.091Y-107.645
T2
X105.562Y-57.455
X105.562Y-59.995
X105.562Y-64.211
X105.562Y-66.751
X105.562Y-71.069
X105.562Y-73.609
X121.166Y-81.712
X121.166Y-86.792
X127.902Y-108.356
X130.442Y-108.356
X132.982Y-108.356
X181.153Y-93.574
X181.153Y-111.201
X183.733Y-86.766
X184.140Y-117.958
X188.732Y-86.766
X188.773Y-93.574
X188.773Y-111.201
X189.139Y-117.958
X195.072Y-102.743
X195.072Y-105.283
X195.072Y-107.823
X195.072Y-110.363
X195.072Y-112.903
X195.072Y-115.443
X195.072Y-117.983
X198.311Y-102.743
X198.311Y-105.283
X198.311Y-107.823
X198.311Y-110.363
X198.311Y-112.903
X198.311Y-115.443
X198.311Y-117.983
T3
X95.949Y-107.569
X95.949Y-110.363
X95.949Y-113.030
X95.949Y-115.824
X98.489Y-106.172
X98.489Y-108.966
X98.489Y-111.760
X98.489Y-114.427
X98.489Y-117.221
X102.502Y-108.356
X105.042Y-108.356
X107.582Y-108.356
X108.458Y-95.504
X108.458Y-98.450
X110.122Y-108.356
X110.508Y-128.849
X110.998Y-95.504
X110.998Y-98.450
X112.662Y-108.356
X113.048Y-128.849
X113.538Y-95.504
X113.538Y-98.450
X115.202Y-108.356
X115.588Y-128.849
X117.742Y-108.356
X119.083Y-58.423
X119.083Y-149.578
X120.282Y-108.356
X120.454Y-55.578
X120.480Y-152.423
X121.851Y-58.423
X121.851Y-149.578
X122.822Y-108.356
X123.223Y-55.578
X123.248Y-152.423
X124.620Y-58.423
X124.620Y-149.578
X125.362Y-108.356
X125.992Y-55.578
X126.017Y-152.423
X127.389Y-58.423
X127.389Y-149.578
X128.760Y-55.578
X128.786Y-152.423
X130.157Y-58.423
X130.157Y-149.578
X131.529Y-55.578
X131.554Y-152.423
X132.926Y-58.423
X132.926Y-149.578
X134.297Y-55.578
X134.323Y-152.423
X135.694Y-58.423
X135.694Y-149.578
X137.066Y-55.578
X137.091Y-152.423
X138.463Y-58.423
X138.463Y-149.578
X139.835Y-55.578
X139.860Y-152.423
X141.232Y-58.423
X141.232Y-149.578
X142.603Y-55.578
X142.629Y-152.423
X144.000Y-58.423
X144.000Y-149.578
X145.372Y-55.578
X145.397Y-152.423
X146.769Y-58.423
X146.769Y-149.578
X148.140Y-55.578
X148.166Y-152.423
X149.537Y-58.423
X149.537Y-149.578
X150.909Y-55.578
X150.934Y-152.423
X152.306Y-58.423
X152.306Y-149.578
X153.678Y-55.578
X153.703Y-152.423
X155.075Y-58.423
X155.075Y-149.578
X156.446Y-55.578
X156.472Y-152.423
X157.843Y-58.423
X157.843Y-149.578
X159.215Y-55.578
X159.240Y-152.423
X160.612Y-58.423
X160.612Y-149.578
X161.983Y-55.578
X162.009Y-152.423
X163.380Y-58.423
X163.380Y-149.578
X164.752Y-55.578
X164.777Y-152.423
X166.149Y-58.423
X166.149Y-149.578
X167.521Y-55.578
X167.546Y-152.423
X168.918Y-58.423
X168.918Y-149.578
X181.254Y-75.641
X181.712Y-129.032
X186.334Y-75.641
X186.792Y-129.032
X192.481Y-124.104
X195.072Y-90.043
X195.072Y-92.583
X195.072Y-95.123
X195.072Y-97.663
X195.072Y-100.203
X197.561Y-124.104
X198.311Y-90.043
X198.311Y-92.583
X198.311Y-95.123
X198.311Y-97.663
X198.311Y-100.203
T4
X95.001Y-75.999
X95.001Y-132.001
X192.999Y-75.999
X192.999Y-132.001
T5
X95.949Y-98.933
X95.949Y-124.333
X112.123Y-151.000
X112.377Y-57.000
X175.623Y-151.000
X175.877Y-57.000
T0
M30
