G04 (created by PCBNEW-RS274X (2012-01-19 BZR 3256)-stable) date Fri 19 Oct 2012 08:46:26 AM MSK*
G01*
G70*
G90*
%MOIN*%
G04 Gerber Fmt 3.4, Leading zero omitted, Abs format*
%FSLAX34Y34*%
G04 APERTURE LIST*
%ADD10C,0.006000*%
%ADD11C,0.015000*%
G04 APERTURE END LIST*
G54D10*
G54D11*
X69685Y-62992D02*
X56693Y-62992D01*
X73228Y-59449D02*
X69685Y-62992D01*
X73228Y-55905D02*
X73228Y-59449D01*
X74409Y-54724D02*
X73228Y-55905D01*
X74803Y-54724D02*
X74409Y-54724D01*
X75591Y-54724D02*
X74803Y-54724D01*
X78740Y-51575D02*
X75591Y-54724D01*
X78740Y-30314D02*
X78740Y-51575D01*
X75591Y-27165D02*
X78740Y-30314D01*
X74409Y-27165D02*
X75591Y-27165D01*
X73228Y-25984D02*
X74409Y-27165D01*
X73228Y-22441D02*
X73228Y-25984D01*
X69685Y-18898D02*
X73228Y-22441D01*
X43700Y-18898D02*
X69685Y-18898D01*
X40157Y-22441D02*
X43700Y-18898D01*
X40157Y-25985D02*
X40157Y-22441D01*
X38976Y-27166D02*
X40157Y-25985D01*
X37795Y-27166D02*
X38976Y-27166D01*
X34646Y-30315D02*
X37795Y-27166D01*
X34646Y-51575D02*
X34646Y-30315D01*
X37795Y-54724D02*
X34646Y-51575D01*
X38976Y-54724D02*
X37795Y-54724D01*
X40158Y-55906D02*
X38976Y-54724D01*
X40158Y-59449D02*
X40158Y-55906D01*
X43701Y-62992D02*
X40158Y-59449D01*
X56693Y-62992D02*
X43701Y-62992D01*
M02*
