G04 (created by PCBNEW-RS274X (2012-01-19 BZR 3256)-stable) date Fri 19 Oct 2012 08:46:26 AM MSK*
G01*
G70*
G90*
%MOIN*%
G04 Gerber Fmt 3.4, Leading zero omitted, Abs format*
%FSLAX34Y34*%
G04 APERTURE LIST*
%ADD10C,0.006000*%
%ADD11R,0.050000X0.020000*%
%ADD12R,0.055000X0.035000*%
%ADD13R,0.060000X0.060000*%
%ADD14C,0.060000*%
%ADD15C,0.066000*%
%ADD16C,0.150000*%
%ADD17C,0.055000*%
%ADD18R,0.020000X0.045000*%
%ADD19R,0.035000X0.055000*%
%ADD20R,0.055000X0.055000*%
%ADD21R,0.070000X0.070000*%
%ADD22C,0.070000*%
%ADD23C,0.252000*%
%ADD24C,0.035000*%
%ADD25C,0.023600*%
%ADD26C,0.039400*%
%ADD27C,0.010000*%
%ADD28C,0.015800*%
%ADD29C,0.008000*%
%ADD30C,0.015700*%
%ADD31C,0.019800*%
%ADD32C,0.019700*%
G04 APERTURE END LIST*
G54D10*
G54D11*
X60220Y-29710D03*
X60220Y-30210D03*
X60220Y-30710D03*
X60220Y-31210D03*
X60220Y-31710D03*
X60220Y-32210D03*
X60220Y-32710D03*
X60220Y-33210D03*
X60220Y-33710D03*
X60220Y-34210D03*
X56420Y-34210D03*
X56420Y-33710D03*
X56420Y-33210D03*
X56420Y-32710D03*
X56420Y-32210D03*
X56420Y-31710D03*
X56420Y-31210D03*
X56420Y-30710D03*
X56420Y-30210D03*
X56420Y-29710D03*
X62640Y-42610D03*
X62640Y-42110D03*
X62640Y-41610D03*
X62640Y-41110D03*
X62640Y-40610D03*
X62640Y-40110D03*
X62640Y-39610D03*
X62640Y-39110D03*
X62640Y-38610D03*
X62640Y-38110D03*
X66440Y-38110D03*
X66440Y-38610D03*
X66440Y-39110D03*
X66440Y-39610D03*
X66440Y-40110D03*
X66440Y-40610D03*
X66440Y-41110D03*
X66440Y-41610D03*
X66440Y-42110D03*
X66440Y-42610D03*
X67420Y-29710D03*
X67420Y-30210D03*
X67420Y-30710D03*
X67420Y-31210D03*
X67420Y-31710D03*
X67420Y-32210D03*
X67420Y-32710D03*
X67420Y-33210D03*
X67420Y-33710D03*
X67420Y-34210D03*
X63620Y-34210D03*
X63620Y-33710D03*
X63620Y-33210D03*
X63620Y-32710D03*
X63620Y-32210D03*
X63620Y-31710D03*
X63620Y-31210D03*
X63620Y-30710D03*
X63620Y-30210D03*
X63620Y-29710D03*
X54160Y-25570D03*
X54160Y-26070D03*
X54160Y-26570D03*
X54160Y-27070D03*
X54160Y-27570D03*
X54160Y-28070D03*
X54160Y-28570D03*
X54160Y-29070D03*
X54160Y-29570D03*
X54160Y-30070D03*
X50360Y-30070D03*
X50360Y-29570D03*
X50360Y-29070D03*
X50360Y-28570D03*
X50360Y-28070D03*
X50360Y-27570D03*
X50360Y-27070D03*
X50360Y-26570D03*
X50360Y-26070D03*
X50360Y-25570D03*
G54D12*
X44700Y-35945D03*
X44700Y-36695D03*
X43700Y-35945D03*
X43700Y-36695D03*
X42700Y-35925D03*
X42700Y-36675D03*
G54D13*
X40355Y-42660D03*
G54D14*
X41355Y-42660D03*
X42355Y-42660D03*
X43355Y-42660D03*
X44355Y-42660D03*
G54D15*
X41560Y-23620D03*
X41560Y-22620D03*
X41560Y-26280D03*
X41560Y-25280D03*
X41560Y-28980D03*
X41560Y-27980D03*
G54D13*
X46883Y-23001D03*
G54D14*
X47973Y-23001D03*
X49063Y-23001D03*
X50153Y-23001D03*
X51243Y-23001D03*
X52333Y-23001D03*
X53423Y-23001D03*
X54513Y-23001D03*
X55603Y-23001D03*
G54D16*
X44243Y-22441D03*
X69243Y-22441D03*
G54D14*
X56693Y-23001D03*
X57783Y-23001D03*
X58873Y-23001D03*
X59963Y-23001D03*
X61053Y-23001D03*
X62143Y-23001D03*
X63233Y-23001D03*
X64323Y-23001D03*
X65413Y-23001D03*
X66503Y-23001D03*
X47423Y-21881D03*
X48513Y-21881D03*
X49603Y-21881D03*
X50693Y-21881D03*
X51783Y-21881D03*
X52873Y-21881D03*
X53963Y-21881D03*
X55053Y-21881D03*
X56143Y-21881D03*
X57233Y-21881D03*
X58323Y-21881D03*
X59413Y-21881D03*
X60503Y-21881D03*
X61593Y-21881D03*
X62683Y-21881D03*
X63773Y-21881D03*
X64863Y-21881D03*
X65953Y-21881D03*
G54D13*
X66503Y-58889D03*
G54D14*
X65413Y-58889D03*
X64323Y-58889D03*
X63233Y-58889D03*
X62143Y-58889D03*
X61053Y-58889D03*
X59963Y-58889D03*
X58873Y-58889D03*
X57783Y-58889D03*
G54D16*
X69143Y-59449D03*
X44143Y-59449D03*
G54D14*
X56693Y-58889D03*
X55603Y-58889D03*
X54513Y-58889D03*
X53423Y-58889D03*
X52333Y-58889D03*
X51243Y-58889D03*
X50153Y-58889D03*
X49063Y-58889D03*
X47973Y-58889D03*
X46883Y-58889D03*
X65963Y-60009D03*
X64873Y-60009D03*
X63783Y-60009D03*
X62693Y-60009D03*
X61603Y-60009D03*
X60513Y-60009D03*
X59423Y-60009D03*
X58333Y-60009D03*
X57243Y-60009D03*
X56153Y-60009D03*
X55063Y-60009D03*
X53973Y-60009D03*
X52883Y-60009D03*
X51793Y-60009D03*
X50703Y-60009D03*
X49613Y-60009D03*
X48523Y-60009D03*
X47433Y-60009D03*
G54D13*
X45355Y-42660D03*
G54D14*
X46355Y-42660D03*
X47355Y-42660D03*
X48355Y-42660D03*
X49355Y-42660D03*
X50355Y-42660D03*
X51355Y-42660D03*
X52355Y-42660D03*
G54D16*
X37775Y-38950D03*
X37775Y-48950D03*
G54D13*
X38775Y-46150D03*
G54D14*
X38775Y-45050D03*
X38775Y-44000D03*
X38775Y-42900D03*
X38775Y-41800D03*
X37775Y-45600D03*
X37775Y-44500D03*
X37775Y-43450D03*
X37775Y-42350D03*
G54D17*
X47703Y-32170D03*
X47703Y-34170D03*
G54D18*
X74550Y-40390D03*
X74550Y-42490D03*
X74050Y-40390D03*
X73550Y-40390D03*
X73050Y-40390D03*
X74050Y-42490D03*
X73550Y-42490D03*
X73050Y-42490D03*
G54D19*
X72275Y-41040D03*
X71525Y-41040D03*
X72275Y-41840D03*
X71525Y-41840D03*
X74375Y-39640D03*
X73625Y-39640D03*
X74375Y-38860D03*
X73625Y-38860D03*
X74375Y-38080D03*
X73625Y-38080D03*
G54D12*
X72720Y-44775D03*
X72720Y-44025D03*
G54D19*
X73475Y-43260D03*
X72725Y-43260D03*
X72995Y-39640D03*
X72245Y-39640D03*
G54D14*
X74304Y-34160D03*
X72336Y-34160D03*
X74464Y-46440D03*
X72496Y-46440D03*
G54D20*
X74320Y-43780D03*
G54D17*
X71320Y-43780D03*
G54D20*
X74320Y-36840D03*
G54D17*
X71320Y-36840D03*
G54D21*
X71540Y-50800D03*
G54D22*
X73540Y-50800D03*
G54D21*
X73360Y-29780D03*
G54D22*
X71360Y-29780D03*
G54D13*
X44700Y-38760D03*
G54D14*
X43700Y-38760D03*
X42700Y-38760D03*
G54D13*
X44700Y-37600D03*
G54D14*
X43700Y-37600D03*
X42700Y-37600D03*
G54D21*
X77780Y-48860D03*
G54D22*
X75780Y-48860D03*
G54D13*
X76800Y-35450D03*
G54D14*
X76800Y-36450D03*
X76800Y-37450D03*
X76800Y-38450D03*
X76800Y-39450D03*
X76800Y-40450D03*
X76800Y-41450D03*
X76800Y-42450D03*
X76800Y-43450D03*
X76800Y-44450D03*
X76800Y-45450D03*
X76800Y-46450D03*
G54D13*
X78075Y-35450D03*
G54D14*
X78075Y-36450D03*
X78075Y-37450D03*
X78075Y-38450D03*
X78075Y-39450D03*
X78075Y-40450D03*
X78075Y-41450D03*
X78075Y-42450D03*
X78075Y-43450D03*
X78075Y-44450D03*
X78075Y-45450D03*
X78075Y-46450D03*
G54D19*
X72245Y-38860D03*
X72995Y-38860D03*
X72995Y-38080D03*
X72245Y-38080D03*
G54D22*
X43507Y-50728D03*
X44507Y-50728D03*
G54D21*
X45507Y-50728D03*
G54D23*
X75984Y-29921D03*
X37402Y-29921D03*
X37402Y-51969D03*
X75984Y-51969D03*
G54D24*
X47165Y-45433D03*
X63580Y-38110D03*
X52144Y-28683D03*
X49057Y-27932D03*
X68214Y-25505D03*
X53022Y-29131D03*
X75020Y-41380D03*
X75100Y-41820D03*
X53611Y-30148D03*
X59830Y-42826D03*
X59982Y-45801D03*
X65822Y-31440D03*
X65812Y-29847D03*
X68721Y-33844D03*
X65036Y-30510D03*
X66440Y-43479D03*
X58431Y-29990D03*
X64475Y-29950D03*
X76000Y-41860D03*
X76020Y-42380D03*
X52695Y-23809D03*
X68544Y-30812D03*
X63890Y-44867D03*
X67105Y-45033D03*
X50916Y-25331D03*
X75860Y-42760D03*
X39380Y-35400D03*
X38380Y-32880D03*
X49840Y-50600D03*
X50560Y-35340D03*
X59300Y-53300D03*
X54620Y-41560D03*
X52020Y-36740D03*
X59960Y-52640D03*
X52920Y-46680D03*
X51800Y-54660D03*
X54140Y-41140D03*
X53740Y-50020D03*
X51820Y-36220D03*
X53380Y-45900D03*
X51060Y-35140D03*
X54720Y-51200D03*
X65875Y-51175D03*
X67625Y-50759D03*
X70231Y-32779D03*
X71595Y-24672D03*
X70232Y-36102D03*
X70476Y-34195D03*
X62235Y-45702D03*
X62670Y-51497D03*
X69715Y-24666D03*
X71591Y-24187D03*
X51860Y-30580D03*
X54800Y-25580D03*
X60840Y-29700D03*
X63480Y-43100D03*
X44280Y-28480D03*
X44840Y-29680D03*
X68120Y-29700D03*
X67100Y-38120D03*
X62780Y-34200D03*
X55660Y-34200D03*
X58720Y-47540D03*
X55260Y-47500D03*
X59440Y-47380D03*
X54320Y-47500D03*
X50200Y-36320D03*
X49580Y-36320D03*
X55560Y-42560D03*
X55340Y-43540D03*
X57620Y-35620D03*
X57060Y-36160D03*
X57700Y-30980D03*
X54960Y-34180D03*
X55260Y-42200D03*
X54760Y-43540D03*
X66847Y-34637D03*
X55240Y-46940D03*
X57159Y-49422D03*
X66105Y-33806D03*
X64045Y-47053D03*
X66422Y-32779D03*
X66892Y-30393D03*
X59350Y-45824D03*
X55760Y-47080D03*
X64534Y-33658D03*
X65201Y-47117D03*
X56300Y-48763D03*
X56308Y-45796D03*
X65871Y-45194D03*
X64362Y-34548D03*
X64150Y-30347D03*
X56300Y-47060D03*
X67104Y-36079D03*
X67398Y-34830D03*
X61460Y-38380D03*
X62500Y-35720D03*
X56840Y-47060D03*
X61250Y-39725D03*
X61140Y-38020D03*
X61025Y-39325D03*
X59240Y-38260D03*
X59960Y-37420D03*
X61860Y-31120D03*
X62720Y-29620D03*
X58900Y-37940D03*
X59420Y-37460D03*
X61900Y-30580D03*
X63300Y-28880D03*
X58540Y-37620D03*
X59080Y-37120D03*
X49040Y-36320D03*
X59580Y-46920D03*
X58740Y-42060D03*
X59080Y-42440D03*
X60080Y-46920D03*
X62940Y-43040D03*
X63980Y-43060D03*
X61480Y-43620D03*
X60600Y-46920D03*
X65720Y-43500D03*
X65780Y-38620D03*
X65080Y-43480D03*
X65420Y-42820D03*
X64960Y-42800D03*
X64520Y-43480D03*
X62320Y-43320D03*
X62020Y-43700D03*
X48520Y-36320D03*
X53040Y-32300D03*
X49200Y-40000D03*
X52220Y-35840D03*
X53620Y-31640D03*
X53400Y-32620D03*
X53960Y-32080D03*
X52720Y-36100D03*
X49660Y-40280D03*
X54300Y-32500D03*
X50160Y-40200D03*
X53740Y-32980D03*
X53640Y-37080D03*
X58000Y-36020D03*
X57460Y-36560D03*
X59560Y-29320D03*
X59540Y-30060D03*
X56660Y-42700D03*
X57100Y-37540D03*
X58700Y-36760D03*
X56600Y-43540D03*
X59460Y-33720D03*
X58340Y-36380D03*
X57100Y-37000D03*
X56000Y-43540D03*
X56100Y-42640D03*
X59440Y-30920D03*
X40840Y-34420D03*
X41460Y-32900D03*
X40860Y-40160D03*
X40840Y-38240D03*
X40394Y-47520D03*
X40394Y-46929D03*
X53629Y-29104D03*
X46465Y-24831D03*
X52395Y-25682D03*
X54697Y-26112D03*
X53577Y-20953D03*
X62905Y-32553D03*
X59228Y-32902D03*
X61158Y-33661D03*
X65377Y-21112D03*
X56948Y-33210D03*
X66632Y-25452D03*
X68450Y-28006D03*
X70217Y-31526D03*
X66890Y-32842D03*
X71757Y-34033D03*
X69478Y-20734D03*
X70352Y-34957D03*
X63080Y-33298D03*
X68086Y-26146D03*
X66816Y-32341D03*
X69631Y-30059D03*
X68496Y-29162D03*
X60508Y-23987D03*
X64681Y-28715D03*
X64690Y-26632D03*
X50895Y-26625D03*
X60967Y-31200D03*
X59056Y-25220D03*
X59418Y-22485D03*
X59762Y-39346D03*
X59428Y-35128D03*
X59352Y-23471D03*
X58944Y-39693D03*
X59831Y-41610D03*
X70765Y-33100D03*
X68686Y-24615D03*
X70983Y-24043D03*
X61982Y-38264D03*
X72033Y-23291D03*
X67710Y-24878D03*
X63616Y-41763D03*
X67270Y-38795D03*
X66788Y-44450D03*
X67220Y-39730D03*
X63607Y-39110D03*
X57328Y-26570D03*
X54173Y-24408D03*
X56988Y-24848D03*
X57331Y-29070D03*
X56534Y-24877D03*
X60053Y-23792D03*
X61152Y-26525D03*
X58462Y-22507D03*
X60371Y-25687D03*
X52700Y-19954D03*
X63291Y-20726D03*
X60848Y-28871D03*
X52157Y-21265D03*
X66693Y-26283D03*
X66126Y-26839D03*
X63876Y-24828D03*
X67098Y-25587D03*
X58016Y-25116D03*
X58755Y-31891D03*
X53172Y-21335D03*
X59686Y-33128D03*
X46217Y-24168D03*
X56888Y-23684D03*
X42675Y-35375D03*
X42000Y-38275D03*
X42000Y-35975D03*
X42500Y-40150D03*
X41725Y-40025D03*
X41500Y-38325D03*
X40360Y-32360D03*
X40360Y-40180D03*
X40360Y-38240D03*
X40360Y-34580D03*
X46960Y-39960D03*
X53200Y-49860D03*
X53040Y-45300D03*
X50840Y-51880D03*
X54080Y-51360D03*
X49980Y-35220D03*
X51820Y-51320D03*
X52340Y-37180D03*
X51820Y-49940D03*
X55220Y-41660D03*
X64000Y-49700D03*
X65050Y-51500D03*
X67975Y-52175D03*
X62440Y-54840D03*
X63375Y-41100D03*
X70880Y-41020D03*
X59580Y-40478D03*
X41500Y-35550D03*
X48160Y-33200D03*
X47280Y-54980D03*
X62260Y-44240D03*
X55680Y-54720D03*
X52880Y-55040D03*
X59720Y-51700D03*
X48120Y-36680D03*
X58000Y-44240D03*
X49620Y-54960D03*
X59420Y-55040D03*
X45650Y-35875D03*
X44921Y-44409D03*
X44213Y-45118D03*
X66280Y-46400D03*
X46160Y-34680D03*
X53220Y-38160D03*
X48325Y-30900D03*
X41375Y-34900D03*
X71200Y-39660D03*
X51280Y-40020D03*
X57900Y-46360D03*
X62160Y-46400D03*
X42400Y-29675D03*
X51280Y-51320D03*
X50472Y-44528D03*
X51260Y-55860D03*
X70131Y-38865D03*
X67700Y-43798D03*
X62170Y-51472D03*
X60670Y-53494D03*
G54D25*
X44507Y-50728D02*
X44507Y-48719D01*
X44606Y-45433D02*
X47165Y-45433D01*
X44173Y-45866D02*
X44606Y-45433D01*
X44173Y-48385D02*
X44173Y-45866D01*
X44507Y-48719D02*
X44173Y-48385D01*
X67420Y-34210D02*
X67891Y-34210D01*
X53611Y-30148D02*
X53689Y-30070D01*
X67891Y-34210D02*
X67891Y-37185D01*
X53022Y-29131D02*
X52574Y-28683D01*
X70083Y-31922D02*
X70382Y-31922D01*
X64863Y-21881D02*
X65953Y-21881D01*
X63580Y-37128D02*
X66498Y-34210D01*
X54809Y-33770D02*
X54809Y-31130D01*
X68106Y-25397D02*
X68106Y-24713D01*
X66313Y-23760D02*
X65953Y-23400D01*
X60220Y-34210D02*
X59749Y-34210D01*
X59312Y-34647D02*
X54796Y-34647D01*
X54160Y-30481D02*
X54160Y-30070D01*
X54412Y-34263D02*
X54412Y-34167D01*
X72995Y-39640D02*
X73085Y-39640D01*
X54003Y-30070D02*
X53689Y-30070D01*
X54160Y-30070D02*
X54017Y-30070D01*
X72555Y-40170D02*
X73085Y-39640D01*
X54003Y-30070D02*
X54017Y-30070D01*
X71986Y-29277D02*
X68214Y-25505D01*
X67153Y-23760D02*
X66313Y-23760D01*
X59749Y-34210D02*
X59312Y-34647D01*
X54796Y-34647D02*
X54412Y-34263D01*
X65953Y-23400D02*
X65953Y-21881D01*
X71986Y-30318D02*
X71986Y-29277D01*
X39833Y-31673D02*
X39833Y-43992D01*
X68214Y-25505D02*
X68106Y-25397D01*
X68106Y-24713D02*
X67153Y-23760D01*
X54412Y-34167D02*
X54809Y-33770D01*
X70876Y-40170D02*
X72555Y-40170D01*
X73085Y-39640D02*
X73625Y-39640D01*
X63580Y-38110D02*
X63580Y-37128D01*
X67420Y-34210D02*
X66949Y-34210D01*
X63580Y-38110D02*
X62640Y-38110D01*
X52574Y-28683D02*
X52144Y-28683D01*
X39833Y-43992D02*
X38775Y-45050D01*
X73550Y-40390D02*
X73550Y-40070D01*
G54D26*
X75100Y-41820D02*
X75020Y-41380D01*
X75020Y-41380D02*
X73880Y-41380D01*
X73550Y-41050D02*
X73550Y-40390D01*
G54D25*
X73550Y-40070D02*
X73625Y-39995D01*
X73625Y-39640D02*
X73625Y-38860D01*
G54D26*
X73880Y-41380D02*
X73550Y-41050D01*
G54D25*
X49057Y-27932D02*
X43574Y-27932D01*
X67891Y-37185D02*
X70876Y-40170D01*
X70382Y-31922D02*
X71986Y-30318D01*
X67891Y-34210D02*
X67891Y-34114D01*
X67891Y-34114D02*
X70083Y-31922D01*
X73625Y-39995D02*
X73625Y-39640D01*
G54D26*
X77780Y-48860D02*
X77780Y-48260D01*
G54D25*
X73625Y-38860D02*
X73625Y-38080D01*
X66498Y-34210D02*
X66949Y-34210D01*
X54809Y-31130D02*
X54160Y-30481D01*
X43574Y-27932D02*
X39833Y-31673D01*
G54D26*
X77780Y-48260D02*
X76800Y-47280D01*
X76800Y-47280D02*
X76800Y-46450D01*
G54D25*
X45512Y-54606D02*
X45507Y-54601D01*
X45512Y-59213D02*
X45512Y-54606D01*
X47441Y-61142D02*
X45512Y-59213D01*
X66181Y-61142D02*
X47441Y-61142D01*
X67795Y-59528D02*
X66181Y-61142D01*
X67795Y-58623D02*
X67795Y-59528D01*
X69370Y-57048D02*
X67795Y-58623D01*
X69370Y-55512D02*
X69370Y-57048D01*
X71540Y-53342D02*
X69370Y-55512D01*
X52901Y-23603D02*
X52901Y-22661D01*
X68721Y-33844D02*
X68974Y-33591D01*
X65036Y-30510D02*
X65036Y-30654D01*
X55574Y-21345D02*
X55574Y-22097D01*
X59830Y-45649D02*
X59830Y-42826D01*
X76456Y-33591D02*
X77438Y-34573D01*
X59982Y-45801D02*
X59830Y-45649D01*
X77438Y-37813D02*
X78075Y-38450D01*
X77438Y-34573D02*
X77438Y-37813D01*
X65835Y-44716D02*
X64041Y-44716D01*
X66440Y-42610D02*
X66440Y-43479D01*
X65036Y-30654D02*
X65822Y-31440D01*
X52695Y-23809D02*
X52901Y-23603D01*
X71540Y-50800D02*
X71540Y-53342D01*
X45507Y-54601D02*
X45507Y-50728D01*
X53441Y-21650D02*
X53746Y-21345D01*
X65835Y-44084D02*
X65835Y-44716D01*
X66440Y-43479D02*
X65835Y-44084D01*
X50831Y-25416D02*
X50916Y-25331D01*
X69015Y-30341D02*
X69015Y-29056D01*
X56211Y-24382D02*
X57082Y-24382D01*
X62924Y-21345D02*
X55574Y-21345D01*
X55082Y-22589D02*
X55082Y-23253D01*
X69015Y-29056D02*
X68361Y-28402D01*
X57082Y-24382D02*
X57620Y-24920D01*
X55082Y-23253D02*
X56211Y-24382D01*
X68250Y-28402D02*
X63754Y-23906D01*
X63754Y-22751D02*
X63238Y-22235D01*
X55574Y-22097D02*
X55082Y-22589D01*
X68361Y-28402D02*
X68250Y-28402D01*
X63238Y-21659D02*
X62924Y-21345D01*
X63754Y-23906D02*
X63754Y-22751D01*
X68544Y-30812D02*
X69015Y-30341D01*
X63238Y-22235D02*
X63238Y-21659D01*
X53441Y-22121D02*
X53441Y-21650D01*
X52901Y-22661D02*
X53441Y-22121D01*
X53746Y-21345D02*
X55574Y-21345D01*
X58083Y-29642D02*
X58431Y-29990D01*
X57728Y-29642D02*
X58083Y-29642D01*
X57660Y-29710D02*
X57728Y-29642D01*
X56891Y-29710D02*
X57660Y-29710D01*
X66494Y-44716D02*
X66811Y-45033D01*
X65835Y-44716D02*
X66494Y-44716D01*
X57728Y-25388D02*
X57728Y-29642D01*
X57620Y-25280D02*
X57728Y-25388D01*
X57620Y-24920D02*
X57620Y-25280D01*
X68974Y-33591D02*
X76456Y-33591D01*
G54D27*
X71575Y-44775D02*
X72720Y-44775D01*
X70840Y-43020D02*
X70840Y-44040D01*
X71525Y-41840D02*
X71525Y-42335D01*
G54D25*
X76000Y-41860D02*
X76020Y-42380D01*
X72720Y-45220D02*
X72720Y-44775D01*
X72496Y-45444D02*
X72720Y-45220D01*
X56420Y-29710D02*
X56891Y-29710D01*
X50831Y-25570D02*
X50831Y-25416D01*
X64041Y-44716D02*
X63890Y-44867D01*
X72496Y-46440D02*
X72496Y-45444D01*
G54D27*
X71525Y-42335D02*
X70840Y-43020D01*
G54D25*
X66811Y-45033D02*
X67105Y-45033D01*
G54D26*
X72496Y-48464D02*
X72496Y-47020D01*
X71540Y-49420D02*
X72496Y-48464D01*
G54D25*
X50360Y-25570D02*
X50831Y-25570D01*
G54D26*
X72496Y-47020D02*
X72496Y-46440D01*
G54D25*
X74720Y-47000D02*
X72800Y-47000D01*
X72800Y-47000D02*
X72780Y-47020D01*
X75080Y-46640D02*
X74720Y-47000D01*
X75080Y-43240D02*
X75080Y-46640D01*
X75500Y-42820D02*
X75080Y-43240D01*
X75860Y-42760D02*
X75500Y-42820D01*
X72780Y-47020D02*
X72496Y-47020D01*
X76020Y-42380D02*
X75580Y-42800D01*
X75580Y-42800D02*
X75860Y-42760D01*
G54D26*
X71540Y-50800D02*
X71540Y-49420D01*
G54D25*
X64235Y-29710D02*
X64475Y-29950D01*
X63620Y-29710D02*
X64235Y-29710D01*
G54D27*
X70840Y-44040D02*
X71575Y-44775D01*
G54D28*
X36800Y-35400D02*
X36460Y-35060D01*
X36460Y-35060D02*
X36460Y-33260D01*
X39380Y-35400D02*
X36800Y-35400D01*
X36460Y-33260D02*
X36840Y-32880D01*
X36840Y-32880D02*
X38380Y-32880D01*
G54D27*
X59300Y-53300D02*
X59960Y-52640D01*
X54620Y-41560D02*
X54520Y-41660D01*
X53980Y-45880D02*
X53180Y-46680D01*
X53180Y-46680D02*
X52920Y-46680D01*
X53980Y-43220D02*
X53980Y-45880D01*
X54520Y-42680D02*
X53980Y-43220D01*
X54520Y-41660D02*
X54520Y-42680D01*
X51900Y-54560D02*
X51800Y-54660D01*
X50560Y-35340D02*
X51320Y-36100D01*
X51820Y-36740D02*
X52020Y-36740D01*
X51320Y-36240D02*
X51820Y-36740D01*
X51320Y-36100D02*
X51320Y-36240D01*
X50360Y-51120D02*
X50360Y-52040D01*
X51260Y-52940D02*
X51380Y-52940D01*
X51900Y-53460D02*
X51900Y-54560D01*
X50360Y-52040D02*
X51260Y-52940D01*
X49840Y-50600D02*
X50360Y-51120D01*
X51380Y-52940D02*
X51900Y-53460D01*
X51820Y-36220D02*
X51060Y-35460D01*
X54140Y-41140D02*
X54140Y-42580D01*
X51060Y-35460D02*
X51060Y-35140D01*
X54720Y-51200D02*
X53740Y-50220D01*
X53740Y-50220D02*
X53740Y-50020D01*
X53620Y-44160D02*
X53620Y-45660D01*
X53700Y-44080D02*
X53620Y-44160D01*
X53620Y-45660D02*
X53380Y-45900D01*
X54140Y-42580D02*
X53700Y-43020D01*
X53700Y-43020D02*
X53700Y-44080D01*
G54D29*
X66291Y-50759D02*
X67625Y-50759D01*
X65875Y-51175D02*
X66291Y-50759D01*
X72385Y-25462D02*
X71595Y-24672D01*
X70033Y-34638D02*
X70033Y-35903D01*
X70476Y-34195D02*
X70033Y-34638D01*
X72385Y-30625D02*
X72385Y-25462D01*
X62670Y-46137D02*
X62235Y-45702D01*
X70231Y-32779D02*
X72385Y-30625D01*
X62670Y-51497D02*
X62670Y-46137D01*
X70033Y-35903D02*
X70232Y-36102D01*
X66479Y-21430D02*
X69715Y-24666D01*
X64406Y-21689D02*
X64665Y-21430D01*
X64665Y-21430D02*
X66479Y-21430D01*
X64406Y-22331D02*
X64406Y-21689D01*
X65076Y-23001D02*
X64406Y-22331D01*
X65413Y-23001D02*
X65076Y-23001D01*
X66764Y-23001D02*
X66503Y-23001D01*
X71591Y-24187D02*
X70026Y-25752D01*
X70026Y-25752D02*
X68965Y-25752D01*
X68367Y-25154D02*
X68367Y-24604D01*
X68965Y-25752D02*
X68367Y-25154D01*
X68367Y-24604D02*
X66764Y-23001D01*
G54D27*
X67090Y-38110D02*
X66440Y-38110D01*
X44280Y-29120D02*
X44280Y-28480D01*
X44840Y-29680D02*
X44280Y-29120D01*
X62780Y-34200D02*
X62790Y-34210D01*
X62790Y-34210D02*
X63620Y-34210D01*
X49490Y-30070D02*
X50360Y-30070D01*
X60840Y-29700D02*
X60830Y-29710D01*
X60830Y-29710D02*
X60220Y-29710D01*
X44840Y-29680D02*
X49100Y-29680D01*
X49100Y-29680D02*
X49490Y-30070D01*
X67100Y-38120D02*
X67090Y-38110D01*
X55670Y-34210D02*
X56420Y-34210D01*
X50360Y-30070D02*
X51350Y-30070D01*
X51350Y-30070D02*
X51860Y-30580D01*
X55660Y-34200D02*
X55670Y-34210D01*
X68110Y-29710D02*
X67420Y-29710D01*
X54790Y-25570D02*
X54160Y-25570D01*
X54800Y-25580D02*
X54790Y-25570D01*
X62650Y-42600D02*
X62640Y-42610D01*
X63480Y-43100D02*
X62980Y-42600D01*
X62980Y-42600D02*
X62650Y-42600D01*
X68120Y-29700D02*
X68110Y-29710D01*
X58720Y-47540D02*
X58880Y-47380D01*
X54320Y-47500D02*
X55260Y-47500D01*
X58880Y-47380D02*
X59440Y-47380D01*
X49500Y-35540D02*
X49500Y-34620D01*
G54D29*
X49710Y-34410D02*
X49710Y-33965D01*
X49710Y-33965D02*
X51725Y-31950D01*
G54D27*
X49500Y-34620D02*
X49710Y-34410D01*
X50200Y-36240D02*
X49500Y-35540D01*
G54D29*
X51725Y-31950D02*
X52025Y-31950D01*
G54D27*
X50200Y-36320D02*
X50200Y-36240D01*
G54D29*
X52025Y-31950D02*
X52900Y-31075D01*
G54D27*
X53430Y-29570D02*
X54160Y-29570D01*
G54D29*
X52900Y-31075D02*
X52900Y-30100D01*
X52900Y-30100D02*
X53430Y-29570D01*
G54D27*
X51700Y-27160D02*
X52790Y-26070D01*
X52790Y-26070D02*
X54160Y-26070D01*
X51560Y-31720D02*
X51575Y-31720D01*
G54D29*
X52675Y-30975D02*
X52675Y-29755D01*
G54D27*
X49120Y-34160D02*
X51560Y-31720D01*
G54D29*
X52675Y-29755D02*
X51700Y-28780D01*
G54D27*
X49580Y-36320D02*
X49580Y-36200D01*
G54D29*
X51575Y-31720D02*
X51930Y-31720D01*
G54D27*
X51700Y-28780D02*
X51700Y-27160D01*
X49580Y-36200D02*
X49120Y-35740D01*
G54D29*
X51930Y-31720D02*
X52675Y-30975D01*
G54D27*
X49120Y-35740D02*
X49120Y-34160D01*
X57600Y-35620D02*
X57620Y-35620D01*
X55340Y-43540D02*
X55340Y-42680D01*
X57060Y-36160D02*
X57600Y-35620D01*
X57700Y-30980D02*
X57700Y-30840D01*
X57070Y-30210D02*
X56420Y-30210D01*
X55460Y-42560D02*
X55560Y-42560D01*
X57700Y-30840D02*
X57070Y-30210D01*
X55340Y-42680D02*
X55460Y-42560D01*
X55100Y-42360D02*
X55260Y-42200D01*
X55410Y-33710D02*
X56420Y-33710D01*
X54760Y-43540D02*
X54760Y-43160D01*
X54760Y-43160D02*
X55100Y-42820D01*
X54960Y-34160D02*
X55410Y-33710D01*
X54960Y-34180D02*
X54960Y-34160D01*
X55100Y-42820D02*
X55100Y-42360D01*
G54D29*
X64045Y-45497D02*
X62714Y-44166D01*
X66847Y-35355D02*
X66847Y-34637D01*
X67420Y-33710D02*
X66201Y-33710D01*
X62246Y-42452D02*
X62345Y-42353D01*
X62949Y-42353D02*
X63034Y-42268D01*
X62345Y-42353D02*
X62949Y-42353D01*
X55574Y-46606D02*
X56838Y-46606D01*
X62345Y-38853D02*
X63349Y-38853D01*
X62184Y-39014D02*
X62345Y-38853D01*
X63034Y-42268D02*
X63034Y-41888D01*
X62268Y-41866D02*
X62184Y-41782D01*
X63034Y-41888D02*
X63012Y-41866D01*
X62184Y-41782D02*
X62184Y-39014D01*
X62714Y-43263D02*
X62246Y-42795D01*
X62246Y-42795D02*
X62246Y-42452D01*
X56838Y-46606D02*
X57159Y-46927D01*
X66201Y-33710D02*
X66105Y-33806D01*
X63012Y-41866D02*
X62268Y-41866D01*
X63349Y-38853D02*
X66847Y-35355D01*
X55240Y-46940D02*
X55574Y-46606D01*
X64045Y-47053D02*
X64045Y-45497D01*
X62714Y-44166D02*
X62714Y-43263D01*
X57159Y-46927D02*
X57159Y-49422D01*
X60096Y-46139D02*
X60416Y-45819D01*
X67420Y-30210D02*
X67027Y-30210D01*
X60667Y-40322D02*
X60667Y-37987D01*
X61944Y-37417D02*
X66422Y-32939D01*
X66422Y-32939D02*
X66422Y-32779D01*
X60416Y-42675D02*
X59381Y-41640D01*
X59381Y-41608D02*
X60667Y-40322D01*
X59665Y-46139D02*
X60096Y-46139D01*
X59381Y-41640D02*
X59381Y-41608D01*
X66892Y-30393D02*
X67027Y-30258D01*
X59350Y-45824D02*
X59665Y-46139D01*
X60416Y-45819D02*
X60416Y-42675D01*
X60667Y-37987D02*
X61237Y-37417D01*
X61237Y-37417D02*
X61944Y-37417D01*
X67027Y-30258D02*
X67027Y-30210D01*
X64362Y-34548D02*
X64362Y-33830D01*
X56300Y-47060D02*
X56300Y-48763D01*
X67398Y-35785D02*
X67398Y-34830D01*
X67104Y-36079D02*
X67398Y-35785D01*
X64362Y-33830D02*
X64534Y-33658D01*
X65201Y-47117D02*
X65871Y-46447D01*
X63620Y-30210D02*
X64013Y-30210D01*
X64150Y-30347D02*
X64013Y-30210D01*
X65871Y-46447D02*
X65871Y-45194D01*
X62500Y-35720D02*
X62240Y-35460D01*
X62240Y-35460D02*
X62240Y-34220D01*
X61250Y-39075D02*
X61350Y-39175D01*
X61350Y-39625D02*
X61250Y-39725D01*
X61250Y-38600D02*
X61250Y-39075D01*
X61350Y-39175D02*
X61350Y-39625D01*
X61460Y-38380D02*
X61460Y-38390D01*
X62240Y-34220D02*
X62750Y-33710D01*
X62750Y-33710D02*
X63620Y-33710D01*
X61460Y-38390D02*
X61250Y-38600D01*
X61020Y-38960D02*
X61020Y-38140D01*
X61020Y-38140D02*
X61140Y-38020D01*
X61025Y-39325D02*
X61020Y-38960D01*
G54D27*
X59240Y-38260D02*
X59960Y-37540D01*
X59960Y-37540D02*
X59960Y-37420D01*
X62720Y-30080D02*
X62720Y-29620D01*
X62300Y-30500D02*
X62720Y-30080D01*
X62300Y-30680D02*
X62300Y-30500D01*
X61860Y-31120D02*
X62300Y-30680D01*
X58900Y-37940D02*
X59380Y-37460D01*
X59380Y-37460D02*
X59420Y-37460D01*
X59040Y-37120D02*
X59080Y-37120D01*
X62380Y-29480D02*
X62980Y-28880D01*
X61900Y-30580D02*
X62380Y-30100D01*
X62380Y-30100D02*
X62380Y-29480D01*
X58540Y-37620D02*
X59040Y-37120D01*
X62980Y-28880D02*
X63300Y-28880D01*
X49040Y-36320D02*
X49040Y-36260D01*
X49040Y-36260D02*
X48660Y-35880D01*
X51240Y-28920D02*
X51240Y-26240D01*
X48660Y-35880D02*
X48660Y-33960D01*
X51380Y-31240D02*
X52080Y-31240D01*
X52460Y-30140D02*
X51240Y-28920D01*
X51070Y-26070D02*
X50360Y-26070D01*
X52460Y-30860D02*
X52460Y-30140D01*
X48660Y-33960D02*
X51380Y-31240D01*
X52080Y-31240D02*
X52460Y-30860D01*
X51240Y-26240D02*
X51070Y-26070D01*
G54D29*
X58580Y-45920D02*
X58580Y-42220D01*
X59580Y-46920D02*
X58580Y-45920D01*
X58580Y-42220D02*
X58740Y-42060D01*
X60080Y-46920D02*
X59420Y-46260D01*
X59420Y-46260D02*
X59260Y-46260D01*
X59260Y-46260D02*
X58820Y-45820D01*
X58820Y-42700D02*
X59080Y-42440D01*
X58820Y-45820D02*
X58820Y-42700D01*
X63600Y-43440D02*
X63980Y-43060D01*
X60600Y-46920D02*
X60600Y-44500D01*
X62940Y-43040D02*
X63260Y-43360D01*
X63360Y-43440D02*
X63600Y-43440D01*
X63280Y-43360D02*
X63360Y-43440D01*
X63260Y-43360D02*
X63280Y-43360D01*
X60600Y-44500D02*
X61480Y-43620D01*
X65900Y-42260D02*
X66050Y-42110D01*
X65720Y-43500D02*
X65900Y-43320D01*
X65900Y-43320D02*
X65900Y-42260D01*
X66050Y-42110D02*
X66440Y-42110D01*
X65080Y-43480D02*
X65420Y-43140D01*
X65790Y-38610D02*
X66440Y-38610D01*
X65420Y-43140D02*
X65420Y-42820D01*
X65780Y-38620D02*
X65790Y-38610D01*
X64520Y-43480D02*
X64960Y-43040D01*
X64960Y-43040D02*
X64960Y-42800D01*
X62150Y-42110D02*
X62640Y-42110D01*
X62060Y-43060D02*
X62060Y-42200D01*
X62320Y-43320D02*
X62060Y-43060D01*
X62060Y-42200D02*
X62150Y-42110D01*
X61820Y-40080D02*
X62000Y-39900D01*
X61820Y-41940D02*
X61820Y-40080D01*
X61780Y-43460D02*
X61780Y-41980D01*
X62190Y-38610D02*
X62640Y-38610D01*
X61780Y-41980D02*
X61820Y-41940D01*
X62020Y-43700D02*
X61780Y-43460D01*
X62000Y-39900D02*
X62000Y-38800D01*
X62000Y-38800D02*
X62190Y-38610D01*
G54D27*
X48520Y-36320D02*
X48360Y-36160D01*
X51180Y-31020D02*
X51960Y-31020D01*
X48360Y-33840D02*
X51180Y-31020D01*
X51960Y-31020D02*
X52220Y-30760D01*
X51350Y-29570D02*
X50360Y-29570D01*
X52220Y-30760D02*
X52220Y-30440D01*
X48360Y-36160D02*
X48360Y-33840D01*
X52220Y-30440D02*
X51350Y-29570D01*
X49200Y-40000D02*
X49200Y-38700D01*
X53040Y-32300D02*
X53620Y-31720D01*
X52300Y-37760D02*
X52720Y-37340D01*
X52720Y-36700D02*
X52220Y-36200D01*
X52720Y-37340D02*
X52720Y-36700D01*
X52220Y-36200D02*
X52220Y-35840D01*
X49200Y-38700D02*
X50140Y-37760D01*
X53620Y-31720D02*
X53620Y-31640D01*
X50140Y-37760D02*
X52300Y-37760D01*
X53940Y-32080D02*
X53960Y-32080D01*
X49660Y-40280D02*
X49660Y-38680D01*
X53400Y-32620D02*
X53940Y-32080D01*
X49660Y-38680D02*
X50320Y-38020D01*
X52420Y-38020D02*
X53000Y-37440D01*
X50320Y-38020D02*
X52420Y-38020D01*
X53000Y-37440D02*
X53000Y-36380D01*
X53000Y-36380D02*
X52720Y-36100D01*
X53740Y-32980D02*
X54220Y-32500D01*
X54220Y-32500D02*
X54300Y-32500D01*
X53340Y-37380D02*
X53640Y-37080D01*
X53340Y-37520D02*
X53340Y-37380D01*
X50160Y-38680D02*
X50540Y-38300D01*
X50160Y-40200D02*
X50160Y-38680D01*
X52560Y-38300D02*
X53340Y-37520D01*
X50540Y-38300D02*
X52560Y-38300D01*
X58000Y-36020D02*
X57460Y-36560D01*
X59540Y-29340D02*
X59540Y-30060D01*
X59560Y-29320D02*
X59540Y-29340D01*
X59470Y-33710D02*
X60220Y-33710D01*
X57100Y-37540D02*
X57380Y-37260D01*
X56600Y-42760D02*
X56660Y-42700D01*
X59460Y-33720D02*
X59470Y-33710D01*
X58200Y-37260D02*
X58700Y-36760D01*
X57380Y-37260D02*
X58200Y-37260D01*
X56600Y-43540D02*
X56600Y-42760D01*
X56000Y-42740D02*
X56100Y-42640D01*
X58200Y-36380D02*
X58340Y-36380D01*
X57640Y-36940D02*
X58200Y-36380D01*
X56000Y-43540D02*
X56000Y-42740D01*
X59990Y-30210D02*
X60220Y-30210D01*
X59500Y-30700D02*
X59990Y-30210D01*
X59500Y-30860D02*
X59500Y-30700D01*
X59440Y-30920D02*
X59500Y-30860D01*
X57100Y-37000D02*
X57160Y-36940D01*
X57160Y-36940D02*
X57640Y-36940D01*
G54D29*
X40840Y-33520D02*
X40840Y-34420D01*
X40840Y-38240D02*
X40860Y-38260D01*
X41460Y-32900D02*
X40840Y-33520D01*
X40860Y-38260D02*
X40860Y-40160D01*
G54D30*
X37570Y-41800D02*
X38775Y-41800D01*
X36929Y-42441D02*
X37570Y-41800D01*
X36929Y-45984D02*
X36929Y-42441D01*
X38228Y-47283D02*
X36929Y-45984D01*
X40157Y-47283D02*
X38228Y-47283D01*
X40394Y-47520D02*
X40157Y-47283D01*
G54D29*
X43700Y-37600D02*
X43700Y-36695D01*
G54D30*
X40394Y-46929D02*
X40354Y-46969D01*
X40354Y-46969D02*
X38307Y-46969D01*
X38307Y-46969D02*
X37205Y-45867D01*
X37205Y-45867D02*
X37205Y-43070D01*
X37205Y-43070D02*
X37362Y-42913D01*
X37362Y-42913D02*
X38762Y-42913D01*
X38762Y-42913D02*
X38775Y-42900D01*
G54D29*
X44700Y-37600D02*
X44700Y-36695D01*
G54D31*
X46594Y-24702D02*
X46594Y-24011D01*
X46380Y-23797D02*
X46380Y-22584D01*
X46465Y-24831D02*
X46594Y-24702D01*
X46380Y-22584D02*
X47083Y-21881D01*
X54160Y-29070D02*
X53708Y-29070D01*
X53629Y-29104D02*
X53674Y-29104D01*
X46594Y-24011D02*
X46380Y-23797D01*
X55215Y-25716D02*
X54819Y-26112D01*
X47083Y-21881D02*
X47423Y-21881D01*
X52395Y-25682D02*
X52884Y-25193D01*
X54819Y-26112D02*
X54697Y-26112D01*
X52884Y-25193D02*
X55158Y-25193D01*
X53674Y-29104D02*
X53708Y-29070D01*
X55215Y-25250D02*
X55215Y-25716D01*
X55158Y-25193D02*
X55215Y-25250D01*
X49404Y-22499D02*
X48475Y-22499D01*
X48475Y-22499D02*
X47973Y-23001D01*
X54160Y-26570D02*
X55508Y-26570D01*
X55508Y-26570D02*
X55516Y-26562D01*
X55516Y-26562D02*
X55516Y-25125D01*
X55516Y-25125D02*
X55283Y-24892D01*
X55283Y-24892D02*
X51053Y-24892D01*
X51053Y-24892D02*
X49650Y-23489D01*
X49650Y-23489D02*
X49650Y-22745D01*
X49650Y-22745D02*
X49404Y-22499D01*
X55968Y-30710D02*
X55968Y-27016D01*
X55968Y-27016D02*
X56156Y-26828D01*
X56156Y-26828D02*
X56156Y-24859D01*
X56156Y-24859D02*
X54989Y-23692D01*
X54989Y-23692D02*
X54203Y-23692D01*
X54203Y-23692D02*
X53963Y-23452D01*
X53963Y-23452D02*
X53963Y-22667D01*
X53963Y-22667D02*
X54749Y-21881D01*
X54749Y-21881D02*
X55053Y-21881D01*
X56420Y-30710D02*
X55968Y-30710D01*
X57256Y-32902D02*
X56948Y-33210D01*
X56420Y-33210D02*
X56872Y-33210D01*
X61797Y-33661D02*
X61158Y-33661D01*
X63144Y-21112D02*
X65377Y-21112D01*
X62985Y-20953D02*
X63144Y-21112D01*
X68450Y-27472D02*
X68450Y-28006D01*
X66632Y-25654D02*
X68450Y-27472D01*
X66632Y-25452D02*
X66632Y-25654D01*
X59228Y-32902D02*
X57256Y-32902D01*
X53577Y-20953D02*
X62985Y-20953D01*
X56872Y-33210D02*
X56948Y-33210D01*
X62905Y-32553D02*
X61797Y-33661D01*
X66968Y-32920D02*
X66890Y-32842D01*
X71276Y-34033D02*
X71757Y-34033D01*
X69813Y-31531D02*
X68134Y-33210D01*
X68134Y-33210D02*
X67420Y-33210D01*
X70212Y-31531D02*
X69813Y-31531D01*
X67420Y-33210D02*
X66968Y-33210D01*
X66968Y-33210D02*
X66968Y-32920D01*
X70217Y-31526D02*
X70212Y-31531D01*
X70352Y-34957D02*
X71276Y-34033D01*
X58528Y-24172D02*
X59944Y-24172D01*
X59944Y-24172D02*
X64082Y-28310D01*
X64082Y-28310D02*
X64082Y-29022D01*
X64082Y-29022D02*
X65892Y-30832D01*
X65892Y-30832D02*
X67298Y-30832D01*
X67298Y-30832D02*
X67420Y-30710D01*
X57783Y-23001D02*
X57783Y-23427D01*
X57783Y-23427D02*
X58528Y-24172D01*
X57280Y-22779D02*
X58178Y-21881D01*
X63405Y-29258D02*
X63525Y-29258D01*
X59691Y-24473D02*
X58403Y-24473D01*
X63723Y-28505D02*
X59691Y-24473D01*
X63723Y-29060D02*
X63723Y-28505D01*
X58178Y-21881D02*
X58323Y-21881D01*
X63620Y-30710D02*
X63168Y-30710D01*
X63168Y-30710D02*
X63168Y-29495D01*
X63168Y-29495D02*
X63405Y-29258D01*
X63525Y-29258D02*
X63723Y-29060D01*
X57280Y-23350D02*
X57280Y-22779D01*
X58403Y-24473D02*
X57280Y-23350D01*
X66816Y-32341D02*
X64941Y-32341D01*
X63620Y-33210D02*
X64072Y-33210D01*
X64941Y-32341D02*
X64072Y-33210D01*
X63620Y-33210D02*
X63168Y-33210D01*
X63168Y-33210D02*
X63080Y-33298D01*
X69631Y-27691D02*
X69631Y-30059D01*
X68086Y-26146D02*
X69631Y-27691D01*
X66154Y-29162D02*
X68496Y-29162D01*
X61053Y-24061D02*
X66154Y-29162D01*
X61053Y-23001D02*
X61053Y-24061D01*
X60508Y-22716D02*
X60508Y-23987D01*
X64681Y-28715D02*
X64681Y-28160D01*
X64681Y-28160D02*
X60508Y-23987D01*
X61343Y-21881D02*
X60508Y-22716D01*
X61593Y-21881D02*
X61343Y-21881D01*
X62429Y-21881D02*
X62683Y-21881D01*
X61598Y-22712D02*
X62429Y-21881D01*
X61598Y-23540D02*
X61598Y-22712D01*
X64690Y-26632D02*
X61598Y-23540D01*
X50867Y-26625D02*
X50812Y-26570D01*
X50895Y-26625D02*
X50867Y-26625D01*
X50360Y-26570D02*
X50812Y-26570D01*
X58649Y-39693D02*
X56682Y-37726D01*
X61604Y-27768D02*
X61604Y-30205D01*
X59418Y-23405D02*
X59352Y-23471D01*
X59056Y-25220D02*
X61604Y-27768D01*
X60967Y-30842D02*
X60967Y-31200D01*
X56682Y-37726D02*
X56682Y-35272D01*
X56826Y-35128D02*
X59428Y-35128D01*
X56682Y-35272D02*
X56826Y-35128D01*
X58944Y-39693D02*
X58649Y-39693D01*
X59418Y-22485D02*
X59418Y-23405D01*
X61604Y-30205D02*
X60967Y-30842D01*
X73913Y-27418D02*
X73913Y-30625D01*
X70983Y-24043D02*
X69781Y-25245D01*
X67581Y-24749D02*
X66071Y-24749D01*
X72897Y-24155D02*
X72897Y-26402D01*
X72033Y-23291D02*
X72897Y-24155D01*
X67710Y-24878D02*
X67581Y-24749D01*
X66071Y-24749D02*
X64323Y-23001D01*
X69781Y-25245D02*
X69316Y-25245D01*
X69316Y-25245D02*
X68686Y-24615D01*
X61982Y-38433D02*
X61757Y-38658D01*
X59923Y-41610D02*
X59831Y-41610D01*
X73913Y-30625D02*
X71439Y-33099D01*
X61757Y-39776D02*
X59923Y-41610D01*
X72897Y-26402D02*
X73913Y-27418D01*
X70765Y-33099D02*
X70765Y-33100D01*
X61982Y-38264D02*
X61982Y-38433D01*
X61757Y-38658D02*
X61757Y-39776D01*
X71439Y-33099D02*
X70765Y-33099D01*
X68679Y-56211D02*
X68679Y-40045D01*
X67429Y-38795D02*
X67270Y-38795D01*
X68679Y-40045D02*
X67429Y-38795D01*
X66503Y-58387D02*
X68679Y-56211D01*
X66503Y-58889D02*
X66503Y-58387D01*
X66892Y-41610D02*
X66892Y-44346D01*
X66892Y-44346D02*
X66788Y-44450D01*
X66440Y-41610D02*
X66892Y-41610D01*
X66440Y-39110D02*
X66892Y-39110D01*
X67508Y-39300D02*
X67082Y-39300D01*
X64323Y-58889D02*
X68378Y-54834D01*
X67082Y-39300D02*
X66892Y-39110D01*
X68378Y-54834D02*
X68378Y-40170D01*
X68378Y-40170D02*
X67508Y-39300D01*
X63783Y-60009D02*
X63783Y-50523D01*
X63783Y-50523D02*
X68077Y-46229D01*
X68077Y-46229D02*
X68077Y-40587D01*
X68077Y-40587D02*
X67220Y-39730D01*
X49908Y-29070D02*
X49908Y-28249D01*
X47438Y-25779D02*
X47438Y-22626D01*
X48341Y-21342D02*
X49064Y-21342D01*
X48010Y-21673D02*
X48341Y-21342D01*
X47438Y-22626D02*
X48010Y-22054D01*
X49064Y-21342D02*
X49603Y-21881D01*
X49908Y-28249D02*
X47438Y-25779D01*
X48010Y-22054D02*
X48010Y-21673D01*
X50360Y-29070D02*
X49908Y-29070D01*
X51783Y-22671D02*
X51783Y-23501D01*
X51783Y-23501D02*
X52690Y-24408D01*
X56988Y-26230D02*
X57328Y-26570D01*
X50693Y-21881D02*
X50993Y-21881D01*
X50993Y-21881D02*
X51783Y-22671D01*
X56988Y-24848D02*
X56988Y-26230D01*
X52690Y-24408D02*
X54173Y-24408D01*
X56534Y-28273D02*
X56534Y-24877D01*
X57331Y-29070D02*
X56534Y-28273D01*
X58653Y-23871D02*
X59974Y-23871D01*
X60371Y-25687D02*
X61152Y-26468D01*
X58370Y-22599D02*
X58370Y-23588D01*
X58370Y-23588D02*
X58653Y-23871D01*
X58462Y-22507D02*
X58370Y-22599D01*
X61152Y-26468D02*
X61152Y-26525D01*
X59974Y-23871D02*
X60053Y-23792D01*
X66985Y-25050D02*
X67098Y-25163D01*
X62519Y-19954D02*
X63291Y-20726D01*
X66246Y-25836D02*
X66246Y-25107D01*
X66693Y-26283D02*
X66246Y-25836D01*
X66126Y-26839D02*
X64115Y-24828D01*
X64115Y-24828D02*
X63876Y-24828D01*
X66303Y-25050D02*
X66985Y-25050D01*
X66246Y-25107D02*
X66303Y-25050D01*
X52873Y-21881D02*
X52773Y-21881D01*
X52773Y-21881D02*
X52157Y-21265D01*
X67098Y-25163D02*
X67098Y-25587D01*
X52700Y-19954D02*
X62519Y-19954D01*
X46078Y-21954D02*
X46078Y-24029D01*
X60220Y-33210D02*
X59768Y-33210D01*
X52725Y-20888D02*
X47144Y-20888D01*
X58049Y-29004D02*
X59025Y-29980D01*
X59025Y-29980D02*
X59025Y-31621D01*
X59025Y-31621D02*
X58755Y-31891D01*
X58016Y-25116D02*
X58049Y-25149D01*
X58049Y-25149D02*
X58049Y-29004D01*
X46078Y-24029D02*
X46217Y-24168D01*
X47144Y-20888D02*
X46078Y-21954D01*
X59768Y-33210D02*
X59686Y-33128D01*
X53172Y-21335D02*
X52725Y-20888D01*
X58393Y-24959D02*
X57118Y-23684D01*
X57118Y-23684D02*
X56888Y-23684D01*
X61247Y-30135D02*
X61247Y-28043D01*
X60672Y-30710D02*
X61247Y-30135D01*
X61247Y-28043D02*
X58393Y-25189D01*
X58393Y-25189D02*
X58393Y-24959D01*
X60220Y-30710D02*
X60672Y-30710D01*
G54D29*
X42650Y-35400D02*
X42325Y-35400D01*
X42100Y-39750D02*
X42500Y-40150D01*
X42675Y-35375D02*
X42650Y-35400D01*
X42325Y-35400D02*
X42000Y-35725D01*
X42000Y-38275D02*
X42100Y-38375D01*
X42000Y-35725D02*
X42000Y-35975D01*
X42100Y-38375D02*
X42100Y-39750D01*
X41500Y-38325D02*
X41725Y-38550D01*
X41725Y-38550D02*
X41725Y-40025D01*
X42700Y-37600D02*
X42700Y-36675D01*
X40360Y-34580D02*
X40360Y-32360D01*
X40360Y-40180D02*
X40360Y-38240D01*
G54D27*
X53560Y-51880D02*
X50840Y-51880D01*
X53340Y-42120D02*
X52160Y-40940D01*
X48620Y-40940D02*
X47680Y-40000D01*
X47680Y-40000D02*
X47000Y-40000D01*
X53340Y-45000D02*
X53340Y-42120D01*
X54080Y-51360D02*
X53560Y-51880D01*
X47000Y-40000D02*
X46960Y-39960D01*
X54080Y-51360D02*
X54080Y-51180D01*
X53040Y-45300D02*
X53340Y-45000D01*
X53040Y-45300D02*
X53020Y-45320D01*
X54080Y-51180D02*
X53200Y-50300D01*
X53200Y-50300D02*
X53200Y-49860D01*
X52160Y-40940D02*
X48620Y-40940D01*
X49980Y-35320D02*
X51840Y-37180D01*
X51840Y-37180D02*
X52340Y-37180D01*
X49980Y-35220D02*
X49980Y-35320D01*
X51820Y-48460D02*
X51820Y-49940D01*
X51820Y-49940D02*
X51820Y-51320D01*
X54260Y-46020D02*
X51820Y-48460D01*
X54260Y-43260D02*
X54260Y-46020D01*
X54780Y-42740D02*
X54260Y-43260D01*
X54780Y-42100D02*
X54780Y-42740D01*
X55220Y-41660D02*
X54780Y-42100D01*
G54D25*
X47778Y-33200D02*
X46905Y-34073D01*
X48160Y-33200D02*
X47778Y-33200D01*
X47315Y-35875D02*
X48120Y-36680D01*
X46905Y-34073D02*
X46905Y-35875D01*
X63233Y-23001D02*
X62143Y-23001D01*
X48248Y-42660D02*
X45650Y-40062D01*
X63635Y-31945D02*
X63620Y-31960D01*
X65050Y-51500D02*
X65725Y-52175D01*
X66440Y-40110D02*
X66440Y-39860D01*
X67583Y-37723D02*
X70880Y-41020D01*
X65521Y-37723D02*
X67583Y-37723D01*
X60220Y-32210D02*
X60220Y-31710D01*
X49600Y-54980D02*
X49620Y-54960D01*
G54D29*
X48140Y-42660D02*
X47640Y-43160D01*
X42855Y-43160D02*
X42355Y-42660D01*
X48355Y-42660D02*
X48248Y-42660D01*
G54D25*
X65230Y-38014D02*
X65521Y-37723D01*
X47428Y-54980D02*
X47428Y-59343D01*
X65230Y-38650D02*
X65230Y-38014D01*
X56420Y-31542D02*
X55706Y-31542D01*
X54160Y-28570D02*
X54631Y-28570D01*
X63375Y-41100D02*
X65959Y-41100D01*
X45650Y-40062D02*
X45650Y-35875D01*
X47428Y-54980D02*
X49600Y-54980D01*
X65725Y-52175D02*
X67975Y-52175D01*
X63850Y-49550D02*
X64000Y-49700D01*
X55706Y-31542D02*
X54631Y-30467D01*
X55680Y-54880D02*
X59260Y-54880D01*
X59260Y-54880D02*
X59420Y-55040D01*
X55680Y-54880D02*
X55680Y-54720D01*
X66440Y-39860D02*
X65230Y-38650D01*
G54D29*
X48855Y-43160D02*
X48355Y-42660D01*
G54D25*
X47428Y-59343D02*
X47496Y-59411D01*
X47496Y-59411D02*
X50721Y-59411D01*
X73050Y-42490D02*
X73050Y-42510D01*
X66440Y-41110D02*
X65969Y-41110D01*
X45650Y-35875D02*
X46905Y-35875D01*
X50721Y-59411D02*
X51243Y-58889D01*
X65959Y-41100D02*
X65969Y-41110D01*
X56420Y-31710D02*
X56420Y-31542D01*
X56420Y-31542D02*
X56420Y-31210D01*
X50360Y-28070D02*
X50360Y-27570D01*
X71525Y-41040D02*
X70900Y-41040D01*
X54495Y-27634D02*
X54495Y-27523D01*
X60220Y-31710D02*
X60691Y-31710D01*
X67420Y-32210D02*
X67420Y-31960D01*
X67420Y-31960D02*
X67420Y-31710D01*
X54631Y-30467D02*
X54631Y-28570D01*
X56420Y-32210D02*
X56420Y-31710D01*
X63068Y-49550D02*
X63850Y-49550D01*
X46905Y-35875D02*
X47315Y-35875D01*
X76770Y-42450D02*
X75920Y-43300D01*
X66440Y-39860D02*
X66440Y-39610D01*
X54856Y-24012D02*
X54069Y-24012D01*
X60691Y-32710D02*
X60691Y-37371D01*
X55836Y-26695D02*
X55836Y-24992D01*
X63620Y-32210D02*
X63620Y-31960D01*
X54495Y-27523D02*
X54827Y-27191D01*
X54827Y-27191D02*
X55340Y-27191D01*
X47300Y-54980D02*
X47301Y-54980D01*
X47308Y-54980D02*
X47317Y-54980D01*
X54160Y-27969D02*
X54495Y-27634D01*
X53423Y-23366D02*
X53423Y-23001D01*
X60691Y-37371D02*
X59366Y-38696D01*
X59366Y-40264D02*
X59580Y-40478D01*
X59366Y-38696D02*
X59366Y-40264D01*
X61540Y-53940D02*
X62440Y-54840D01*
X61750Y-53730D02*
X61540Y-53940D01*
X60440Y-55040D02*
X59420Y-55040D01*
X61540Y-53940D02*
X60440Y-55040D01*
X55836Y-24992D02*
X54856Y-24012D01*
X47280Y-54980D02*
X47299Y-54980D01*
X63068Y-45048D02*
X63068Y-49550D01*
X47304Y-54980D02*
X47308Y-54980D01*
X49063Y-26824D02*
X49309Y-27070D01*
X49309Y-27070D02*
X50360Y-27070D01*
X56420Y-32460D02*
X59499Y-32460D01*
X59499Y-32460D02*
X59749Y-32210D01*
X54069Y-24012D02*
X53423Y-23366D01*
X47302Y-54980D02*
X47304Y-54980D01*
X47301Y-54980D02*
X47302Y-54980D01*
X47299Y-54980D02*
X47300Y-54980D01*
X58000Y-42058D02*
X58000Y-44240D01*
X47317Y-54980D02*
X47354Y-54980D01*
X47354Y-54980D02*
X47428Y-54980D01*
X49063Y-23001D02*
X49063Y-26824D01*
X66440Y-40610D02*
X66440Y-40110D01*
X59580Y-40478D02*
X58000Y-42058D01*
X62260Y-44240D02*
X63068Y-45048D01*
X67420Y-31960D02*
X67405Y-31945D01*
X60941Y-31960D02*
X63620Y-31960D01*
X60691Y-31710D02*
X60941Y-31960D01*
X63620Y-31960D02*
X63620Y-31710D01*
X67420Y-31210D02*
X67891Y-31210D01*
X67405Y-31945D02*
X63635Y-31945D01*
X55340Y-27191D02*
X55836Y-26695D01*
X60220Y-32210D02*
X59749Y-32210D01*
X52880Y-55040D02*
X54513Y-55040D01*
X55520Y-55040D02*
X55680Y-54880D01*
X54513Y-55040D02*
X55520Y-55040D01*
X59720Y-51700D02*
X61750Y-53730D01*
X63068Y-52412D02*
X61750Y-53730D01*
X63068Y-49550D02*
X63068Y-52412D01*
G54D29*
X48248Y-42660D02*
X48140Y-42660D01*
G54D25*
X56420Y-32710D02*
X56420Y-32460D01*
X56420Y-32460D02*
X56420Y-32210D01*
X54513Y-55040D02*
X54513Y-58889D01*
X60220Y-32710D02*
X60691Y-32710D01*
X69930Y-31210D02*
X67891Y-31210D01*
X71360Y-29780D02*
X69930Y-31210D01*
X54160Y-28070D02*
X54160Y-27969D01*
X54160Y-27969D02*
X54160Y-27570D01*
X50360Y-28570D02*
X50360Y-28070D01*
X72720Y-44025D02*
X72720Y-43265D01*
X72720Y-43265D02*
X72725Y-43260D01*
G54D29*
X49600Y-43160D02*
X48855Y-43160D01*
G54D25*
X67420Y-32710D02*
X67420Y-32210D01*
X54160Y-27570D02*
X54160Y-27070D01*
G54D29*
X47640Y-43160D02*
X42855Y-43160D01*
G54D25*
X60220Y-32710D02*
X60220Y-32210D01*
X63620Y-31710D02*
X63620Y-31210D01*
X71565Y-44025D02*
X71320Y-43780D01*
X62640Y-41110D02*
X63365Y-41110D01*
X50360Y-27570D02*
X50360Y-27070D01*
X63365Y-41110D02*
X63375Y-41100D01*
X66440Y-41110D02*
X66440Y-40610D01*
X76800Y-42450D02*
X76770Y-42450D01*
X54160Y-28570D02*
X54160Y-28070D01*
X70900Y-41040D02*
X70880Y-41020D01*
X75920Y-48720D02*
X75780Y-48860D01*
X72725Y-42835D02*
X72725Y-43260D01*
G54D29*
X50355Y-42660D02*
X50100Y-42660D01*
G54D25*
X62640Y-41110D02*
X62640Y-40610D01*
X67420Y-31710D02*
X67420Y-31210D01*
X62640Y-40610D02*
X62640Y-40110D01*
X73050Y-42510D02*
X72725Y-42835D01*
X75920Y-43300D02*
X75920Y-48720D01*
G54D29*
X50100Y-42660D02*
X49600Y-43160D01*
G54D25*
X60220Y-31710D02*
X60220Y-31210D01*
X63620Y-32710D02*
X63620Y-32210D01*
G54D29*
X50855Y-43160D02*
X50355Y-42660D01*
X52355Y-42660D02*
X52200Y-42660D01*
G54D25*
X71320Y-37155D02*
X72245Y-38080D01*
X71320Y-36840D02*
X71320Y-37155D01*
X62640Y-40110D02*
X62640Y-39610D01*
G54D26*
X73840Y-50800D02*
X75780Y-48860D01*
X73540Y-50800D02*
X73840Y-50800D01*
X76800Y-37450D02*
X76800Y-37480D01*
X76800Y-37480D02*
X76160Y-38120D01*
X76160Y-38120D02*
X76160Y-39810D01*
G54D29*
X52200Y-42660D02*
X51700Y-43160D01*
X51700Y-43160D02*
X50855Y-43160D01*
G54D26*
X76160Y-39810D02*
X76800Y-40450D01*
G54D25*
X72720Y-44025D02*
X71565Y-44025D01*
X73550Y-42890D02*
X73550Y-42490D01*
X73475Y-42965D02*
X73550Y-42890D01*
X73475Y-43260D02*
X73475Y-42965D01*
X72245Y-39640D02*
X72245Y-38860D01*
X72275Y-41840D02*
X72275Y-41040D01*
X72925Y-40390D02*
X72275Y-41040D01*
X73050Y-40390D02*
X72925Y-40390D01*
G54D27*
X75460Y-41560D02*
X75560Y-41660D01*
G54D25*
X74375Y-39640D02*
X74375Y-38860D01*
G54D27*
X74560Y-42480D02*
X74550Y-42490D01*
X75460Y-41200D02*
X75460Y-41560D01*
X74940Y-40160D02*
X74940Y-40820D01*
X74420Y-39640D02*
X74940Y-40160D01*
G54D25*
X74375Y-38080D02*
X74375Y-38860D01*
G54D27*
X75560Y-41660D02*
X75560Y-42020D01*
X75160Y-40900D02*
X75460Y-41200D01*
X75020Y-40900D02*
X75160Y-40900D01*
X75560Y-42020D02*
X75100Y-42480D01*
X75100Y-42480D02*
X74560Y-42480D01*
G54D25*
X74050Y-40390D02*
X74050Y-40230D01*
X74050Y-40230D02*
X74375Y-39905D01*
G54D27*
X74940Y-40820D02*
X75020Y-40900D01*
G54D25*
X74375Y-39905D02*
X74375Y-39640D01*
G54D27*
X74375Y-39640D02*
X74420Y-39640D01*
G54D26*
X74464Y-46440D02*
X74464Y-43924D01*
X74464Y-43924D02*
X74320Y-43780D01*
G54D25*
X74050Y-42490D02*
X74050Y-43510D01*
X74050Y-43510D02*
X74320Y-43780D01*
X72995Y-38860D02*
X72995Y-38080D01*
G54D30*
X44921Y-44410D02*
X44921Y-44409D01*
X44213Y-45118D02*
X44921Y-44410D01*
G54D31*
X58319Y-47991D02*
X62160Y-47991D01*
X57900Y-46360D02*
X57900Y-47572D01*
X57900Y-46360D02*
X56283Y-46360D01*
X56283Y-46360D02*
X55748Y-45825D01*
X55748Y-45825D02*
X55748Y-45745D01*
X55748Y-45745D02*
X57073Y-44420D01*
X57900Y-47572D02*
X58319Y-47991D01*
X43700Y-35945D02*
X43223Y-35945D01*
X42400Y-33875D02*
X42174Y-34101D01*
X42174Y-34101D02*
X41375Y-34900D01*
X53220Y-38630D02*
X53220Y-38160D01*
X52670Y-38630D02*
X51280Y-40020D01*
X53220Y-38630D02*
X52670Y-38630D01*
X57073Y-42483D02*
X53220Y-38630D01*
G54D27*
X51260Y-55860D02*
X51270Y-55860D01*
G54D31*
X45355Y-42660D02*
X45355Y-42158D01*
X46113Y-34680D02*
X45225Y-35568D01*
X46160Y-34680D02*
X46113Y-34680D01*
X45225Y-35568D02*
X44700Y-35568D01*
X45225Y-42028D02*
X45355Y-42158D01*
X43203Y-35130D02*
X43203Y-35925D01*
X42174Y-34101D02*
X43203Y-35130D01*
G54D27*
X70840Y-36660D02*
X71260Y-36240D01*
G54D31*
X42700Y-35925D02*
X43203Y-35925D01*
G54D27*
X51270Y-55860D02*
X51280Y-55860D01*
X70840Y-37160D02*
X70840Y-36660D01*
G54D31*
X62160Y-46400D02*
X62160Y-47991D01*
X62160Y-51462D02*
X62170Y-51472D01*
G54D27*
X71200Y-37520D02*
X70840Y-37160D01*
G54D31*
X62160Y-47991D02*
X62160Y-51462D01*
X57073Y-44420D02*
X57073Y-42483D01*
X50130Y-50170D02*
X50118Y-50170D01*
X50118Y-50170D02*
X49730Y-50170D01*
X51280Y-51320D02*
X50130Y-50170D01*
X49463Y-54063D02*
X51260Y-55860D01*
X49463Y-50437D02*
X49463Y-54063D01*
X49730Y-50170D02*
X49463Y-50437D01*
X66280Y-46400D02*
X67700Y-44980D01*
X58319Y-47991D02*
X58319Y-53998D01*
X53132Y-53998D02*
X58319Y-53998D01*
X60166Y-53998D02*
X60670Y-53494D01*
X58319Y-53998D02*
X60166Y-53998D01*
G54D27*
X71200Y-39660D02*
X71200Y-38590D01*
X72320Y-34176D02*
X72336Y-34160D01*
X72320Y-35700D02*
X72320Y-34176D01*
X71780Y-36240D02*
X72320Y-35700D01*
X71260Y-36240D02*
X71780Y-36240D01*
G54D31*
X70406Y-38590D02*
X70131Y-38865D01*
X71200Y-38590D02*
X70406Y-38590D01*
G54D27*
X71200Y-38590D02*
X71200Y-37520D01*
G54D31*
X51270Y-55860D02*
X53132Y-53998D01*
G54D32*
X50118Y-50170D02*
X50118Y-50118D01*
X51339Y-44528D02*
X50472Y-44528D01*
X51890Y-45079D02*
X51339Y-44528D01*
X51890Y-47598D02*
X51890Y-45079D01*
X51496Y-47992D02*
X51890Y-47598D01*
X51496Y-49488D02*
X51496Y-47992D01*
X51141Y-49843D02*
X51496Y-49488D01*
X50393Y-49843D02*
X51141Y-49843D01*
G54D31*
X67700Y-44980D02*
X67700Y-43798D01*
X43203Y-35925D02*
X43223Y-35945D01*
X43700Y-35945D02*
X44700Y-35945D01*
X44700Y-35945D02*
X44700Y-35568D01*
X42400Y-29675D02*
X42400Y-33875D01*
X45225Y-35568D02*
X45225Y-42028D01*
X46160Y-32065D02*
X47325Y-30900D01*
X47325Y-30900D02*
X48325Y-30900D01*
X46160Y-34680D02*
X46160Y-32065D01*
G54D32*
X50118Y-50118D02*
X50393Y-49843D01*
G54D10*
G36*
X42547Y-34968D02*
X42435Y-35014D01*
X42339Y-35110D01*
X42325Y-35110D01*
X42214Y-35132D01*
X42120Y-35195D01*
X41795Y-35520D01*
X41732Y-35614D01*
X41725Y-35648D01*
X41640Y-35734D01*
X41575Y-35890D01*
X41575Y-36059D01*
X41639Y-36215D01*
X41759Y-36335D01*
X41915Y-36400D01*
X42084Y-36400D01*
X42234Y-36338D01*
X42214Y-36359D01*
X42176Y-36450D01*
X42176Y-36549D01*
X42176Y-36899D01*
X42214Y-36991D01*
X42284Y-37061D01*
X42375Y-37099D01*
X42410Y-37099D01*
X42410Y-37126D01*
X42389Y-37135D01*
X42235Y-37289D01*
X42151Y-37491D01*
X42151Y-37709D01*
X42235Y-37911D01*
X42237Y-37913D01*
X42085Y-37850D01*
X41916Y-37850D01*
X41760Y-37914D01*
X41718Y-37955D01*
X41585Y-37900D01*
X41416Y-37900D01*
X41260Y-37964D01*
X41207Y-38016D01*
X41201Y-38000D01*
X41081Y-37880D01*
X40925Y-37815D01*
X40756Y-37815D01*
X40600Y-37879D01*
X40599Y-37879D01*
X40445Y-37815D01*
X40276Y-37815D01*
X40201Y-37845D01*
X40201Y-34974D01*
X40275Y-35005D01*
X40444Y-35005D01*
X40600Y-34941D01*
X40713Y-34827D01*
X40755Y-34845D01*
X40924Y-34845D01*
X40950Y-34834D01*
X40950Y-34984D01*
X41014Y-35140D01*
X41134Y-35260D01*
X41290Y-35325D01*
X41459Y-35325D01*
X41615Y-35261D01*
X41735Y-35141D01*
X41800Y-34985D01*
X41800Y-34968D01*
X42173Y-34594D01*
X42547Y-34968D01*
X42547Y-34968D01*
G37*
G54D27*
X42547Y-34968D02*
X42435Y-35014D01*
X42339Y-35110D01*
X42325Y-35110D01*
X42214Y-35132D01*
X42120Y-35195D01*
X41795Y-35520D01*
X41732Y-35614D01*
X41725Y-35648D01*
X41640Y-35734D01*
X41575Y-35890D01*
X41575Y-36059D01*
X41639Y-36215D01*
X41759Y-36335D01*
X41915Y-36400D01*
X42084Y-36400D01*
X42234Y-36338D01*
X42214Y-36359D01*
X42176Y-36450D01*
X42176Y-36549D01*
X42176Y-36899D01*
X42214Y-36991D01*
X42284Y-37061D01*
X42375Y-37099D01*
X42410Y-37099D01*
X42410Y-37126D01*
X42389Y-37135D01*
X42235Y-37289D01*
X42151Y-37491D01*
X42151Y-37709D01*
X42235Y-37911D01*
X42237Y-37913D01*
X42085Y-37850D01*
X41916Y-37850D01*
X41760Y-37914D01*
X41718Y-37955D01*
X41585Y-37900D01*
X41416Y-37900D01*
X41260Y-37964D01*
X41207Y-38016D01*
X41201Y-38000D01*
X41081Y-37880D01*
X40925Y-37815D01*
X40756Y-37815D01*
X40600Y-37879D01*
X40599Y-37879D01*
X40445Y-37815D01*
X40276Y-37815D01*
X40201Y-37845D01*
X40201Y-34974D01*
X40275Y-35005D01*
X40444Y-35005D01*
X40600Y-34941D01*
X40713Y-34827D01*
X40755Y-34845D01*
X40924Y-34845D01*
X40950Y-34834D01*
X40950Y-34984D01*
X41014Y-35140D01*
X41134Y-35260D01*
X41290Y-35325D01*
X41459Y-35325D01*
X41615Y-35261D01*
X41735Y-35141D01*
X41800Y-34985D01*
X41800Y-34968D01*
X42173Y-34594D01*
X42547Y-34968D01*
G54D10*
G36*
X51166Y-29270D02*
X50838Y-29270D01*
X50859Y-29220D01*
X50859Y-29121D01*
X50859Y-28921D01*
X50821Y-28829D01*
X50751Y-28759D01*
X50660Y-28721D01*
X50561Y-28721D01*
X50360Y-28721D01*
X50257Y-28721D01*
X50257Y-28249D01*
X50230Y-28116D01*
X50230Y-28115D01*
X50155Y-28002D01*
X47787Y-25634D01*
X47787Y-23517D01*
X47864Y-23550D01*
X48082Y-23550D01*
X48284Y-23466D01*
X48438Y-23312D01*
X48522Y-23110D01*
X48522Y-22945D01*
X48619Y-22848D01*
X49259Y-22848D01*
X49301Y-22889D01*
X49301Y-23489D01*
X49328Y-23623D01*
X49403Y-23736D01*
X50656Y-24989D01*
X50556Y-25090D01*
X50509Y-25202D01*
X50360Y-25202D01*
X50264Y-25221D01*
X50061Y-25221D01*
X49969Y-25259D01*
X49899Y-25329D01*
X49861Y-25420D01*
X49861Y-25519D01*
X49861Y-25719D01*
X49899Y-25811D01*
X49908Y-25820D01*
X49899Y-25829D01*
X49861Y-25920D01*
X49861Y-26019D01*
X49861Y-26219D01*
X49899Y-26311D01*
X49908Y-26320D01*
X49899Y-26329D01*
X49861Y-26420D01*
X49861Y-26519D01*
X49861Y-26719D01*
X49899Y-26811D01*
X49969Y-26881D01*
X50060Y-26919D01*
X50159Y-26919D01*
X50360Y-26919D01*
X50588Y-26919D01*
X50654Y-26985D01*
X50810Y-27050D01*
X50940Y-27050D01*
X50940Y-28920D01*
X50963Y-29035D01*
X51028Y-29132D01*
X51166Y-29270D01*
X51166Y-29270D01*
G37*
G54D27*
X51166Y-29270D02*
X50838Y-29270D01*
X50859Y-29220D01*
X50859Y-29121D01*
X50859Y-28921D01*
X50821Y-28829D01*
X50751Y-28759D01*
X50660Y-28721D01*
X50561Y-28721D01*
X50360Y-28721D01*
X50257Y-28721D01*
X50257Y-28249D01*
X50230Y-28116D01*
X50230Y-28115D01*
X50155Y-28002D01*
X47787Y-25634D01*
X47787Y-23517D01*
X47864Y-23550D01*
X48082Y-23550D01*
X48284Y-23466D01*
X48438Y-23312D01*
X48522Y-23110D01*
X48522Y-22945D01*
X48619Y-22848D01*
X49259Y-22848D01*
X49301Y-22889D01*
X49301Y-23489D01*
X49328Y-23623D01*
X49403Y-23736D01*
X50656Y-24989D01*
X50556Y-25090D01*
X50509Y-25202D01*
X50360Y-25202D01*
X50264Y-25221D01*
X50061Y-25221D01*
X49969Y-25259D01*
X49899Y-25329D01*
X49861Y-25420D01*
X49861Y-25519D01*
X49861Y-25719D01*
X49899Y-25811D01*
X49908Y-25820D01*
X49899Y-25829D01*
X49861Y-25920D01*
X49861Y-26019D01*
X49861Y-26219D01*
X49899Y-26311D01*
X49908Y-26320D01*
X49899Y-26329D01*
X49861Y-26420D01*
X49861Y-26519D01*
X49861Y-26719D01*
X49899Y-26811D01*
X49969Y-26881D01*
X50060Y-26919D01*
X50159Y-26919D01*
X50360Y-26919D01*
X50588Y-26919D01*
X50654Y-26985D01*
X50810Y-27050D01*
X50940Y-27050D01*
X50940Y-28920D01*
X50963Y-29035D01*
X51028Y-29132D01*
X51166Y-29270D01*
G54D10*
G36*
X52331Y-24543D02*
X51198Y-24543D01*
X49999Y-23344D01*
X49999Y-22745D01*
X49998Y-22744D01*
X49999Y-22744D01*
X49972Y-22611D01*
X49897Y-22498D01*
X49894Y-22496D01*
X49794Y-22395D01*
X49914Y-22346D01*
X50068Y-22192D01*
X50148Y-21999D01*
X50228Y-22192D01*
X50382Y-22346D01*
X50584Y-22430D01*
X50802Y-22430D01*
X50975Y-22357D01*
X51088Y-22470D01*
X50932Y-22536D01*
X50778Y-22690D01*
X50694Y-22892D01*
X50694Y-23110D01*
X50778Y-23312D01*
X50932Y-23466D01*
X51134Y-23550D01*
X51352Y-23550D01*
X51436Y-23514D01*
X51461Y-23635D01*
X51536Y-23748D01*
X52331Y-24543D01*
X52331Y-24543D01*
G37*
G54D27*
X52331Y-24543D02*
X51198Y-24543D01*
X49999Y-23344D01*
X49999Y-22745D01*
X49998Y-22744D01*
X49999Y-22744D01*
X49972Y-22611D01*
X49897Y-22498D01*
X49894Y-22496D01*
X49794Y-22395D01*
X49914Y-22346D01*
X50068Y-22192D01*
X50148Y-21999D01*
X50228Y-22192D01*
X50382Y-22346D01*
X50584Y-22430D01*
X50802Y-22430D01*
X50975Y-22357D01*
X51088Y-22470D01*
X50932Y-22536D01*
X50778Y-22690D01*
X50694Y-22892D01*
X50694Y-23110D01*
X50778Y-23312D01*
X50932Y-23466D01*
X51134Y-23550D01*
X51352Y-23550D01*
X51436Y-23514D01*
X51461Y-23635D01*
X51536Y-23748D01*
X52331Y-24543D01*
G54D10*
G36*
X52656Y-22385D02*
X52641Y-22401D01*
X52561Y-22520D01*
X52533Y-22661D01*
X52533Y-23416D01*
X52455Y-23448D01*
X52339Y-23563D01*
X52132Y-23356D01*
X52132Y-22671D01*
X52105Y-22538D01*
X52105Y-22537D01*
X52030Y-22424D01*
X51993Y-22387D01*
X52094Y-22346D01*
X52248Y-22192D01*
X52328Y-21999D01*
X52408Y-22192D01*
X52562Y-22346D01*
X52656Y-22385D01*
X52656Y-22385D01*
G37*
G54D27*
X52656Y-22385D02*
X52641Y-22401D01*
X52561Y-22520D01*
X52533Y-22661D01*
X52533Y-23416D01*
X52455Y-23448D01*
X52339Y-23563D01*
X52132Y-23356D01*
X52132Y-22671D01*
X52105Y-22538D01*
X52105Y-22537D01*
X52030Y-22424D01*
X51993Y-22387D01*
X52094Y-22346D01*
X52248Y-22192D01*
X52328Y-21999D01*
X52408Y-22192D01*
X52562Y-22346D01*
X52656Y-22385D01*
G54D10*
G36*
X54047Y-23999D02*
X53933Y-24047D01*
X53921Y-24059D01*
X53046Y-24059D01*
X53055Y-24050D01*
X53112Y-23911D01*
X53161Y-23863D01*
X53241Y-23744D01*
X53268Y-23603D01*
X53269Y-23603D01*
X53269Y-22813D01*
X53701Y-22382D01*
X53701Y-22381D01*
X53709Y-22369D01*
X53749Y-22386D01*
X53716Y-22420D01*
X53641Y-22533D01*
X53614Y-22667D01*
X53614Y-23452D01*
X53641Y-23586D01*
X53716Y-23699D01*
X53954Y-23936D01*
X53956Y-23939D01*
X54047Y-23999D01*
X54047Y-23999D01*
G37*
G54D27*
X54047Y-23999D02*
X53933Y-24047D01*
X53921Y-24059D01*
X53046Y-24059D01*
X53055Y-24050D01*
X53112Y-23911D01*
X53161Y-23863D01*
X53241Y-23744D01*
X53268Y-23603D01*
X53269Y-23603D01*
X53269Y-22813D01*
X53701Y-22382D01*
X53701Y-22381D01*
X53709Y-22369D01*
X53749Y-22386D01*
X53716Y-22420D01*
X53641Y-22533D01*
X53614Y-22667D01*
X53614Y-23452D01*
X53641Y-23586D01*
X53716Y-23699D01*
X53954Y-23936D01*
X53956Y-23939D01*
X54047Y-23999D01*
G54D10*
G36*
X57135Y-22430D02*
X57033Y-22532D01*
X56958Y-22645D01*
X56931Y-22779D01*
X56931Y-23259D01*
X56804Y-23259D01*
X56648Y-23323D01*
X56528Y-23443D01*
X56463Y-23599D01*
X56463Y-23768D01*
X56527Y-23924D01*
X56617Y-24014D01*
X56363Y-24014D01*
X55450Y-23100D01*
X55450Y-22741D01*
X55834Y-22358D01*
X55834Y-22357D01*
X55839Y-22349D01*
X56034Y-22430D01*
X56252Y-22430D01*
X56454Y-22346D01*
X56608Y-22192D01*
X56688Y-21999D01*
X56768Y-22192D01*
X56922Y-22346D01*
X57124Y-22430D01*
X57135Y-22430D01*
X57135Y-22430D01*
G37*
G54D27*
X57135Y-22430D02*
X57033Y-22532D01*
X56958Y-22645D01*
X56931Y-22779D01*
X56931Y-23259D01*
X56804Y-23259D01*
X56648Y-23323D01*
X56528Y-23443D01*
X56463Y-23599D01*
X56463Y-23768D01*
X56527Y-23924D01*
X56617Y-24014D01*
X56363Y-24014D01*
X55450Y-23100D01*
X55450Y-22741D01*
X55834Y-22358D01*
X55834Y-22357D01*
X55839Y-22349D01*
X56034Y-22430D01*
X56252Y-22430D01*
X56454Y-22346D01*
X56608Y-22192D01*
X56688Y-21999D01*
X56768Y-22192D01*
X56922Y-22346D01*
X57124Y-22430D01*
X57135Y-22430D01*
G54D10*
G36*
X59069Y-23153D02*
X58992Y-23230D01*
X58927Y-23386D01*
X58927Y-23522D01*
X58798Y-23522D01*
X58719Y-23443D01*
X58719Y-22851D01*
X58822Y-22748D01*
X58887Y-22592D01*
X58887Y-22423D01*
X58823Y-22267D01*
X58768Y-22212D01*
X58788Y-22192D01*
X58868Y-21999D01*
X58948Y-22192D01*
X59040Y-22284D01*
X58993Y-22400D01*
X58993Y-22569D01*
X59057Y-22725D01*
X59069Y-22737D01*
X59069Y-23153D01*
X59069Y-23153D01*
G37*
G54D27*
X59069Y-23153D02*
X58992Y-23230D01*
X58927Y-23386D01*
X58927Y-23522D01*
X58798Y-23522D01*
X58719Y-23443D01*
X58719Y-22851D01*
X58822Y-22748D01*
X58887Y-22592D01*
X58887Y-22423D01*
X58823Y-22267D01*
X58768Y-22212D01*
X58788Y-22192D01*
X58868Y-21999D01*
X58948Y-22192D01*
X59040Y-22284D01*
X58993Y-22400D01*
X58993Y-22569D01*
X59057Y-22725D01*
X59069Y-22737D01*
X59069Y-23153D01*
G54D10*
G36*
X60327Y-22402D02*
X60261Y-22469D01*
X60186Y-22582D01*
X60159Y-22716D01*
X60159Y-23375D01*
X60138Y-23367D01*
X59969Y-23367D01*
X59813Y-23431D01*
X59777Y-23467D01*
X59777Y-23387D01*
X59767Y-23362D01*
X59767Y-22737D01*
X59778Y-22726D01*
X59843Y-22570D01*
X59843Y-22401D01*
X59792Y-22277D01*
X59878Y-22192D01*
X59958Y-21999D01*
X60038Y-22192D01*
X60192Y-22346D01*
X60327Y-22402D01*
X60327Y-22402D01*
G37*
G54D27*
X60327Y-22402D02*
X60261Y-22469D01*
X60186Y-22582D01*
X60159Y-22716D01*
X60159Y-23375D01*
X60138Y-23367D01*
X59969Y-23367D01*
X59813Y-23431D01*
X59777Y-23467D01*
X59777Y-23387D01*
X59767Y-23362D01*
X59767Y-22737D01*
X59778Y-22726D01*
X59843Y-22570D01*
X59843Y-22401D01*
X59792Y-22277D01*
X59878Y-22192D01*
X59958Y-21999D01*
X60038Y-22192D01*
X60192Y-22346D01*
X60327Y-22402D01*
G54D10*
G36*
X63748Y-24420D02*
X63636Y-24467D01*
X63516Y-24587D01*
X63451Y-24743D01*
X63451Y-24899D01*
X61947Y-23395D01*
X61947Y-22857D01*
X62432Y-22371D01*
X62574Y-22430D01*
X62792Y-22430D01*
X62903Y-22383D01*
X62978Y-22495D01*
X63386Y-22903D01*
X63386Y-23906D01*
X63414Y-24047D01*
X63494Y-24166D01*
X63748Y-24420D01*
X63748Y-24420D01*
G37*
G54D27*
X63748Y-24420D02*
X63636Y-24467D01*
X63516Y-24587D01*
X63451Y-24743D01*
X63451Y-24899D01*
X61947Y-23395D01*
X61947Y-22857D01*
X62432Y-22371D01*
X62574Y-22430D01*
X62792Y-22430D01*
X62903Y-22383D01*
X62978Y-22495D01*
X63386Y-22903D01*
X63386Y-23906D01*
X63414Y-24047D01*
X63494Y-24166D01*
X63748Y-24420D01*
G54D10*
G36*
X68029Y-54689D02*
X64378Y-58340D01*
X64214Y-58340D01*
X64132Y-58374D01*
X64132Y-50667D01*
X68029Y-46770D01*
X68029Y-50623D01*
X67986Y-50519D01*
X67866Y-50399D01*
X67710Y-50334D01*
X67541Y-50334D01*
X67385Y-50398D01*
X67314Y-50469D01*
X66291Y-50469D01*
X66180Y-50491D01*
X66086Y-50554D01*
X65890Y-50750D01*
X65791Y-50750D01*
X65635Y-50814D01*
X65515Y-50934D01*
X65450Y-51090D01*
X65450Y-51259D01*
X65514Y-51415D01*
X65634Y-51535D01*
X65790Y-51600D01*
X65959Y-51600D01*
X66115Y-51536D01*
X66235Y-51416D01*
X66300Y-51260D01*
X66300Y-51160D01*
X66411Y-51049D01*
X67314Y-51049D01*
X67384Y-51119D01*
X67540Y-51184D01*
X67709Y-51184D01*
X67865Y-51120D01*
X67985Y-51000D01*
X68029Y-50894D01*
X68029Y-54689D01*
X68029Y-54689D01*
G37*
G54D27*
X68029Y-54689D02*
X64378Y-58340D01*
X64214Y-58340D01*
X64132Y-58374D01*
X64132Y-50667D01*
X68029Y-46770D01*
X68029Y-50623D01*
X67986Y-50519D01*
X67866Y-50399D01*
X67710Y-50334D01*
X67541Y-50334D01*
X67385Y-50398D01*
X67314Y-50469D01*
X66291Y-50469D01*
X66180Y-50491D01*
X66086Y-50554D01*
X65890Y-50750D01*
X65791Y-50750D01*
X65635Y-50814D01*
X65515Y-50934D01*
X65450Y-51090D01*
X65450Y-51259D01*
X65514Y-51415D01*
X65634Y-51535D01*
X65790Y-51600D01*
X65959Y-51600D01*
X66115Y-51536D01*
X66235Y-51416D01*
X66300Y-51260D01*
X66300Y-51160D01*
X66411Y-51049D01*
X67314Y-51049D01*
X67384Y-51119D01*
X67540Y-51184D01*
X67709Y-51184D01*
X67865Y-51120D01*
X67985Y-51000D01*
X68029Y-50894D01*
X68029Y-54689D01*
G54D10*
G36*
X71618Y-30166D02*
X70538Y-31246D01*
X70458Y-31166D01*
X70302Y-31101D01*
X70133Y-31101D01*
X69977Y-31165D01*
X69960Y-31182D01*
X69813Y-31182D01*
X69679Y-31209D01*
X69566Y-31284D01*
X69564Y-31286D01*
X67989Y-32861D01*
X67720Y-32861D01*
X67621Y-32861D01*
X67420Y-32861D01*
X67315Y-32861D01*
X67315Y-32758D01*
X67251Y-32602D01*
X67192Y-32543D01*
X67241Y-32426D01*
X67241Y-32257D01*
X67177Y-32101D01*
X67057Y-31981D01*
X66901Y-31916D01*
X66732Y-31916D01*
X66576Y-31980D01*
X66564Y-31992D01*
X64941Y-31992D01*
X64940Y-31992D01*
X64807Y-32019D01*
X64694Y-32094D01*
X64692Y-32096D01*
X63927Y-32861D01*
X63920Y-32861D01*
X63821Y-32861D01*
X63620Y-32861D01*
X63321Y-32861D01*
X63198Y-32861D01*
X63265Y-32794D01*
X63330Y-32638D01*
X63330Y-32469D01*
X63266Y-32313D01*
X63146Y-32193D01*
X62990Y-32128D01*
X62821Y-32128D01*
X62665Y-32192D01*
X62545Y-32312D01*
X62480Y-32468D01*
X62480Y-32484D01*
X61652Y-33312D01*
X61410Y-33312D01*
X61399Y-33301D01*
X61243Y-33236D01*
X61074Y-33236D01*
X60918Y-33300D01*
X60798Y-33420D01*
X60733Y-33576D01*
X60733Y-33745D01*
X60797Y-33901D01*
X60917Y-34021D01*
X61073Y-34086D01*
X61242Y-34086D01*
X61398Y-34022D01*
X61410Y-34010D01*
X61797Y-34010D01*
X61930Y-33983D01*
X61931Y-33983D01*
X62044Y-33908D01*
X62655Y-33296D01*
X62655Y-33382D01*
X62676Y-33434D01*
X62639Y-33442D01*
X62545Y-33505D01*
X62035Y-34015D01*
X61972Y-34109D01*
X61950Y-34220D01*
X61950Y-35460D01*
X61972Y-35571D01*
X62035Y-35665D01*
X62075Y-35705D01*
X62075Y-35804D01*
X62139Y-35960D01*
X62259Y-36080D01*
X62415Y-36145D01*
X62584Y-36145D01*
X62740Y-36081D01*
X62860Y-35961D01*
X62925Y-35805D01*
X62925Y-35636D01*
X62861Y-35480D01*
X62741Y-35360D01*
X62585Y-35295D01*
X62530Y-35295D01*
X62530Y-34551D01*
X62539Y-34560D01*
X62695Y-34625D01*
X62864Y-34625D01*
X63020Y-34561D01*
X63071Y-34510D01*
X63218Y-34510D01*
X63229Y-34521D01*
X63320Y-34559D01*
X63419Y-34559D01*
X63919Y-34559D01*
X63937Y-34551D01*
X63937Y-34632D01*
X64001Y-34788D01*
X64082Y-34869D01*
X61824Y-37127D01*
X61237Y-37127D01*
X61126Y-37149D01*
X61032Y-37212D01*
X60462Y-37782D01*
X60399Y-37876D01*
X60377Y-37987D01*
X60377Y-40201D01*
X60187Y-40391D01*
X60187Y-39431D01*
X60187Y-39262D01*
X60123Y-39106D01*
X60003Y-38986D01*
X59847Y-38921D01*
X59678Y-38921D01*
X59522Y-38985D01*
X59402Y-39105D01*
X59337Y-39261D01*
X59337Y-39430D01*
X59401Y-39586D01*
X59521Y-39706D01*
X59677Y-39771D01*
X59846Y-39771D01*
X60002Y-39707D01*
X60122Y-39587D01*
X60187Y-39431D01*
X60187Y-40391D01*
X59176Y-41403D01*
X59113Y-41497D01*
X59091Y-41608D01*
X59091Y-41640D01*
X59113Y-41751D01*
X59176Y-41845D01*
X59735Y-42405D01*
X59590Y-42465D01*
X59487Y-42567D01*
X59505Y-42525D01*
X59505Y-42356D01*
X59441Y-42200D01*
X59321Y-42080D01*
X59165Y-42015D01*
X59165Y-41976D01*
X59101Y-41820D01*
X58981Y-41700D01*
X58825Y-41635D01*
X58656Y-41635D01*
X58500Y-41699D01*
X58380Y-41819D01*
X58315Y-41975D01*
X58315Y-42104D01*
X58312Y-42109D01*
X58290Y-42220D01*
X58290Y-45920D01*
X58312Y-46031D01*
X58375Y-46125D01*
X59155Y-46905D01*
X59155Y-47004D01*
X59172Y-47046D01*
X59139Y-47080D01*
X58880Y-47080D01*
X58765Y-47103D01*
X58747Y-47115D01*
X58636Y-47115D01*
X58480Y-47179D01*
X58360Y-47299D01*
X58295Y-47455D01*
X58295Y-47473D01*
X58249Y-47427D01*
X58249Y-46612D01*
X58260Y-46601D01*
X58325Y-46445D01*
X58325Y-46276D01*
X58261Y-46120D01*
X58141Y-46000D01*
X57985Y-45935D01*
X57816Y-45935D01*
X57660Y-45999D01*
X57648Y-46011D01*
X56678Y-46011D01*
X56733Y-45881D01*
X56733Y-45712D01*
X56669Y-45556D01*
X56549Y-45436D01*
X57317Y-44668D01*
X57319Y-44667D01*
X57320Y-44667D01*
X57395Y-44554D01*
X57422Y-44421D01*
X57421Y-44420D01*
X57422Y-44420D01*
X57422Y-42483D01*
X57421Y-42482D01*
X57422Y-42482D01*
X57395Y-42349D01*
X57320Y-42236D01*
X57317Y-42234D01*
X53569Y-38485D01*
X53569Y-38412D01*
X53580Y-38401D01*
X53645Y-38245D01*
X53645Y-38076D01*
X53581Y-37920D01*
X53472Y-37811D01*
X53552Y-37732D01*
X53617Y-37635D01*
X53640Y-37520D01*
X53640Y-37505D01*
X53724Y-37505D01*
X53880Y-37441D01*
X54000Y-37321D01*
X54065Y-37165D01*
X54065Y-36996D01*
X54001Y-36840D01*
X53881Y-36720D01*
X53725Y-36655D01*
X53556Y-36655D01*
X53400Y-36719D01*
X53300Y-36819D01*
X53300Y-36380D01*
X53299Y-36379D01*
X53277Y-36265D01*
X53212Y-36168D01*
X53211Y-36167D01*
X53145Y-36101D01*
X53145Y-36016D01*
X53081Y-35860D01*
X52961Y-35740D01*
X52805Y-35675D01*
X52636Y-35675D01*
X52615Y-35683D01*
X52581Y-35600D01*
X52461Y-35480D01*
X52305Y-35415D01*
X52136Y-35415D01*
X51980Y-35479D01*
X51860Y-35599D01*
X51795Y-35755D01*
X51795Y-35770D01*
X51412Y-35388D01*
X51420Y-35381D01*
X51485Y-35225D01*
X51485Y-35056D01*
X51421Y-34900D01*
X51301Y-34780D01*
X51145Y-34715D01*
X50976Y-34715D01*
X50820Y-34779D01*
X50700Y-34899D01*
X50686Y-34932D01*
X50645Y-34915D01*
X50476Y-34915D01*
X50334Y-34973D01*
X50221Y-34860D01*
X50065Y-34795D01*
X49896Y-34795D01*
X49800Y-34834D01*
X49800Y-34744D01*
X49921Y-34623D01*
X49986Y-34525D01*
X50009Y-34411D01*
X50000Y-34366D01*
X50000Y-34085D01*
X51845Y-32240D01*
X52025Y-32240D01*
X52136Y-32218D01*
X52230Y-32155D01*
X53105Y-31280D01*
X53168Y-31186D01*
X53190Y-31075D01*
X53190Y-30241D01*
X53250Y-30388D01*
X53370Y-30508D01*
X53526Y-30573D01*
X53695Y-30573D01*
X53801Y-30529D01*
X53820Y-30622D01*
X53900Y-30741D01*
X54441Y-31282D01*
X54441Y-32098D01*
X54385Y-32075D01*
X54385Y-31996D01*
X54321Y-31840D01*
X54201Y-31720D01*
X54045Y-31655D01*
X54045Y-31556D01*
X53981Y-31400D01*
X53861Y-31280D01*
X53705Y-31215D01*
X53536Y-31215D01*
X53380Y-31279D01*
X53260Y-31399D01*
X53195Y-31555D01*
X53195Y-31721D01*
X53041Y-31875D01*
X52956Y-31875D01*
X52800Y-31939D01*
X52680Y-32059D01*
X52615Y-32215D01*
X52615Y-32384D01*
X52679Y-32540D01*
X52799Y-32660D01*
X52955Y-32725D01*
X52983Y-32725D01*
X53039Y-32860D01*
X53159Y-32980D01*
X53315Y-33045D01*
X53315Y-33064D01*
X53379Y-33220D01*
X53499Y-33340D01*
X53655Y-33405D01*
X53824Y-33405D01*
X53980Y-33341D01*
X54100Y-33221D01*
X54165Y-33065D01*
X54165Y-32979D01*
X54219Y-32925D01*
X54384Y-32925D01*
X54441Y-32901D01*
X54441Y-33617D01*
X54152Y-33907D01*
X54072Y-34026D01*
X54044Y-34167D01*
X54044Y-34263D01*
X54072Y-34404D01*
X54152Y-34523D01*
X54536Y-34907D01*
X54655Y-34987D01*
X54796Y-35015D01*
X56445Y-35015D01*
X56435Y-35025D01*
X56360Y-35138D01*
X56333Y-35272D01*
X56333Y-37726D01*
X56360Y-37860D01*
X56435Y-37973D01*
X58400Y-39937D01*
X58402Y-39940D01*
X58515Y-40015D01*
X58516Y-40015D01*
X58582Y-40028D01*
X58648Y-40042D01*
X58648Y-40041D01*
X58649Y-40042D01*
X58692Y-40042D01*
X58703Y-40053D01*
X58859Y-40118D01*
X59028Y-40118D01*
X59184Y-40054D01*
X59304Y-39934D01*
X59369Y-39778D01*
X59369Y-39609D01*
X59305Y-39453D01*
X59185Y-39333D01*
X59029Y-39268D01*
X58860Y-39268D01*
X58758Y-39309D01*
X57345Y-37895D01*
X57460Y-37781D01*
X57525Y-37625D01*
X57525Y-37560D01*
X58115Y-37560D01*
X58115Y-37704D01*
X58179Y-37860D01*
X58299Y-37980D01*
X58455Y-38045D01*
X58483Y-38045D01*
X58539Y-38180D01*
X58659Y-38300D01*
X58815Y-38365D01*
X58823Y-38365D01*
X58879Y-38500D01*
X58999Y-38620D01*
X59155Y-38685D01*
X59324Y-38685D01*
X59480Y-38621D01*
X59600Y-38501D01*
X59665Y-38345D01*
X59665Y-38259D01*
X60103Y-37820D01*
X60200Y-37781D01*
X60320Y-37661D01*
X60385Y-37505D01*
X60385Y-37336D01*
X60321Y-37180D01*
X60201Y-37060D01*
X60045Y-36995D01*
X59876Y-36995D01*
X59720Y-37059D01*
X59670Y-37109D01*
X59661Y-37100D01*
X59505Y-37035D01*
X59504Y-37035D01*
X59441Y-36880D01*
X59321Y-36760D01*
X59165Y-36695D01*
X59125Y-36695D01*
X59125Y-36676D01*
X59061Y-36520D01*
X58941Y-36400D01*
X58785Y-36335D01*
X58765Y-36335D01*
X58765Y-36296D01*
X58701Y-36140D01*
X58581Y-36020D01*
X58425Y-35955D01*
X58425Y-35936D01*
X58361Y-35780D01*
X58241Y-35660D01*
X58085Y-35595D01*
X58045Y-35595D01*
X58045Y-35536D01*
X58020Y-35477D01*
X59176Y-35477D01*
X59187Y-35488D01*
X59343Y-35553D01*
X59512Y-35553D01*
X59668Y-35489D01*
X59788Y-35369D01*
X59853Y-35213D01*
X59853Y-35044D01*
X59789Y-34888D01*
X59690Y-34789D01*
X59901Y-34578D01*
X60220Y-34578D01*
X60315Y-34559D01*
X60519Y-34559D01*
X60611Y-34521D01*
X60681Y-34451D01*
X60719Y-34360D01*
X60719Y-34261D01*
X60719Y-34061D01*
X60681Y-33969D01*
X60672Y-33960D01*
X60681Y-33951D01*
X60719Y-33860D01*
X60719Y-33761D01*
X60719Y-33561D01*
X60681Y-33469D01*
X60672Y-33460D01*
X60681Y-33451D01*
X60719Y-33360D01*
X60719Y-33261D01*
X60719Y-33061D01*
X60681Y-32969D01*
X60611Y-32899D01*
X60520Y-32861D01*
X60421Y-32861D01*
X60220Y-32861D01*
X60020Y-32861D01*
X59927Y-32768D01*
X59771Y-32703D01*
X59605Y-32703D01*
X59589Y-32662D01*
X59469Y-32542D01*
X59313Y-32477D01*
X59144Y-32477D01*
X58988Y-32541D01*
X58976Y-32553D01*
X57256Y-32553D01*
X57122Y-32580D01*
X57009Y-32655D01*
X57007Y-32657D01*
X56879Y-32785D01*
X56864Y-32785D01*
X56708Y-32849D01*
X56696Y-32861D01*
X56621Y-32861D01*
X56420Y-32861D01*
X56121Y-32861D01*
X56029Y-32899D01*
X55959Y-32969D01*
X55921Y-33060D01*
X55921Y-33159D01*
X55921Y-33359D01*
X55942Y-33410D01*
X55410Y-33410D01*
X55295Y-33433D01*
X55198Y-33498D01*
X55177Y-33519D01*
X55177Y-31130D01*
X55176Y-31129D01*
X55149Y-30989D01*
X55069Y-30870D01*
X55069Y-30869D01*
X54565Y-30366D01*
X54621Y-30311D01*
X54659Y-30220D01*
X54659Y-30121D01*
X54659Y-29921D01*
X54621Y-29829D01*
X54612Y-29820D01*
X54621Y-29811D01*
X54659Y-29720D01*
X54659Y-29621D01*
X54659Y-29421D01*
X54621Y-29329D01*
X54612Y-29320D01*
X54621Y-29311D01*
X54659Y-29220D01*
X54659Y-29121D01*
X54659Y-28921D01*
X54621Y-28829D01*
X54551Y-28759D01*
X54460Y-28721D01*
X54361Y-28721D01*
X54160Y-28721D01*
X53861Y-28721D01*
X53814Y-28721D01*
X53714Y-28679D01*
X53545Y-28679D01*
X53389Y-28743D01*
X53312Y-28820D01*
X53263Y-28771D01*
X53125Y-28713D01*
X52834Y-28423D01*
X52715Y-28343D01*
X52574Y-28315D01*
X52365Y-28315D01*
X52229Y-28258D01*
X52060Y-28258D01*
X52000Y-28282D01*
X52000Y-27284D01*
X52914Y-26370D01*
X53681Y-26370D01*
X53661Y-26420D01*
X53661Y-26519D01*
X53661Y-26719D01*
X53699Y-26811D01*
X53769Y-26881D01*
X53860Y-26919D01*
X53959Y-26919D01*
X54160Y-26919D01*
X54459Y-26919D01*
X55508Y-26919D01*
X55641Y-26892D01*
X55642Y-26892D01*
X55644Y-26890D01*
X55619Y-27016D01*
X55619Y-30710D01*
X55646Y-30844D01*
X55721Y-30957D01*
X55834Y-31032D01*
X55968Y-31059D01*
X56120Y-31059D01*
X56219Y-31059D01*
X56420Y-31059D01*
X56719Y-31059D01*
X56811Y-31021D01*
X56881Y-30951D01*
X56919Y-30860D01*
X56919Y-30761D01*
X56919Y-30561D01*
X56897Y-30510D01*
X56946Y-30510D01*
X57291Y-30855D01*
X57275Y-30895D01*
X57275Y-31064D01*
X57339Y-31220D01*
X57459Y-31340D01*
X57615Y-31405D01*
X57784Y-31405D01*
X57940Y-31341D01*
X58060Y-31221D01*
X58125Y-31065D01*
X58125Y-30896D01*
X58061Y-30740D01*
X57941Y-30620D01*
X57877Y-30593D01*
X57362Y-30078D01*
X57660Y-30078D01*
X57801Y-30050D01*
X57860Y-30010D01*
X57931Y-30010D01*
X58013Y-30092D01*
X58070Y-30230D01*
X58190Y-30350D01*
X58346Y-30415D01*
X58515Y-30415D01*
X58671Y-30351D01*
X58676Y-30346D01*
X58676Y-31466D01*
X58671Y-31466D01*
X58515Y-31530D01*
X58395Y-31650D01*
X58330Y-31806D01*
X58330Y-31975D01*
X58394Y-32131D01*
X58514Y-32251D01*
X58670Y-32316D01*
X58839Y-32316D01*
X58995Y-32252D01*
X59115Y-32132D01*
X59180Y-31976D01*
X59180Y-31959D01*
X59269Y-31869D01*
X59271Y-31868D01*
X59272Y-31868D01*
X59347Y-31755D01*
X59374Y-31622D01*
X59373Y-31621D01*
X59374Y-31621D01*
X59374Y-31345D01*
X59524Y-31345D01*
X59680Y-31281D01*
X59800Y-31161D01*
X59853Y-31031D01*
X59920Y-31059D01*
X60019Y-31059D01*
X60220Y-31059D01*
X60519Y-31059D01*
X60565Y-31059D01*
X60542Y-31115D01*
X60542Y-31284D01*
X60606Y-31440D01*
X60726Y-31560D01*
X60882Y-31625D01*
X61051Y-31625D01*
X61207Y-31561D01*
X61327Y-31441D01*
X61392Y-31285D01*
X61392Y-31116D01*
X61332Y-30970D01*
X61522Y-30779D01*
X61539Y-30820D01*
X61549Y-30830D01*
X61500Y-30879D01*
X61435Y-31035D01*
X61435Y-31204D01*
X61499Y-31360D01*
X61619Y-31480D01*
X61775Y-31545D01*
X61944Y-31545D01*
X62100Y-31481D01*
X62220Y-31361D01*
X62285Y-31205D01*
X62285Y-31119D01*
X62512Y-30892D01*
X62577Y-30795D01*
X62600Y-30680D01*
X62600Y-30624D01*
X62819Y-30405D01*
X62819Y-30710D01*
X62846Y-30844D01*
X62921Y-30957D01*
X63034Y-31032D01*
X63168Y-31059D01*
X63320Y-31059D01*
X63419Y-31059D01*
X63620Y-31059D01*
X63919Y-31059D01*
X64011Y-31021D01*
X64081Y-30951D01*
X64119Y-30860D01*
X64119Y-30772D01*
X64234Y-30772D01*
X64390Y-30708D01*
X64510Y-30588D01*
X64575Y-30432D01*
X64575Y-30368D01*
X64646Y-30338D01*
X64611Y-30425D01*
X64611Y-30594D01*
X64675Y-30750D01*
X64690Y-30765D01*
X64696Y-30795D01*
X64776Y-30914D01*
X65405Y-31544D01*
X65461Y-31680D01*
X65581Y-31800D01*
X65737Y-31865D01*
X65906Y-31865D01*
X66062Y-31801D01*
X66182Y-31681D01*
X66247Y-31525D01*
X66247Y-31356D01*
X66183Y-31200D01*
X66164Y-31181D01*
X67298Y-31181D01*
X67431Y-31154D01*
X67432Y-31154D01*
X67545Y-31079D01*
X67564Y-31059D01*
X67719Y-31059D01*
X67811Y-31021D01*
X67881Y-30951D01*
X67919Y-30860D01*
X67919Y-30761D01*
X67919Y-30561D01*
X67881Y-30469D01*
X67872Y-30460D01*
X67881Y-30451D01*
X67919Y-30360D01*
X67919Y-30261D01*
X67919Y-30076D01*
X68035Y-30125D01*
X68204Y-30125D01*
X68360Y-30061D01*
X68480Y-29941D01*
X68545Y-29785D01*
X68545Y-29616D01*
X68533Y-29587D01*
X68580Y-29587D01*
X68647Y-29559D01*
X68647Y-30189D01*
X68441Y-30394D01*
X68304Y-30451D01*
X68184Y-30571D01*
X68119Y-30727D01*
X68119Y-30896D01*
X68183Y-31052D01*
X68303Y-31172D01*
X68459Y-31237D01*
X68628Y-31237D01*
X68784Y-31173D01*
X68904Y-31053D01*
X68961Y-30914D01*
X69275Y-30601D01*
X69355Y-30482D01*
X69371Y-30400D01*
X69390Y-30419D01*
X69546Y-30484D01*
X69715Y-30484D01*
X69871Y-30420D01*
X69991Y-30300D01*
X70056Y-30144D01*
X70056Y-29975D01*
X69992Y-29819D01*
X69980Y-29807D01*
X69980Y-27791D01*
X71618Y-29429D01*
X71618Y-30166D01*
X71618Y-30166D01*
G37*
G54D27*
X71618Y-30166D02*
X70538Y-31246D01*
X70458Y-31166D01*
X70302Y-31101D01*
X70133Y-31101D01*
X69977Y-31165D01*
X69960Y-31182D01*
X69813Y-31182D01*
X69679Y-31209D01*
X69566Y-31284D01*
X69564Y-31286D01*
X67989Y-32861D01*
X67720Y-32861D01*
X67621Y-32861D01*
X67420Y-32861D01*
X67315Y-32861D01*
X67315Y-32758D01*
X67251Y-32602D01*
X67192Y-32543D01*
X67241Y-32426D01*
X67241Y-32257D01*
X67177Y-32101D01*
X67057Y-31981D01*
X66901Y-31916D01*
X66732Y-31916D01*
X66576Y-31980D01*
X66564Y-31992D01*
X64941Y-31992D01*
X64940Y-31992D01*
X64807Y-32019D01*
X64694Y-32094D01*
X64692Y-32096D01*
X63927Y-32861D01*
X63920Y-32861D01*
X63821Y-32861D01*
X63620Y-32861D01*
X63321Y-32861D01*
X63198Y-32861D01*
X63265Y-32794D01*
X63330Y-32638D01*
X63330Y-32469D01*
X63266Y-32313D01*
X63146Y-32193D01*
X62990Y-32128D01*
X62821Y-32128D01*
X62665Y-32192D01*
X62545Y-32312D01*
X62480Y-32468D01*
X62480Y-32484D01*
X61652Y-33312D01*
X61410Y-33312D01*
X61399Y-33301D01*
X61243Y-33236D01*
X61074Y-33236D01*
X60918Y-33300D01*
X60798Y-33420D01*
X60733Y-33576D01*
X60733Y-33745D01*
X60797Y-33901D01*
X60917Y-34021D01*
X61073Y-34086D01*
X61242Y-34086D01*
X61398Y-34022D01*
X61410Y-34010D01*
X61797Y-34010D01*
X61930Y-33983D01*
X61931Y-33983D01*
X62044Y-33908D01*
X62655Y-33296D01*
X62655Y-33382D01*
X62676Y-33434D01*
X62639Y-33442D01*
X62545Y-33505D01*
X62035Y-34015D01*
X61972Y-34109D01*
X61950Y-34220D01*
X61950Y-35460D01*
X61972Y-35571D01*
X62035Y-35665D01*
X62075Y-35705D01*
X62075Y-35804D01*
X62139Y-35960D01*
X62259Y-36080D01*
X62415Y-36145D01*
X62584Y-36145D01*
X62740Y-36081D01*
X62860Y-35961D01*
X62925Y-35805D01*
X62925Y-35636D01*
X62861Y-35480D01*
X62741Y-35360D01*
X62585Y-35295D01*
X62530Y-35295D01*
X62530Y-34551D01*
X62539Y-34560D01*
X62695Y-34625D01*
X62864Y-34625D01*
X63020Y-34561D01*
X63071Y-34510D01*
X63218Y-34510D01*
X63229Y-34521D01*
X63320Y-34559D01*
X63419Y-34559D01*
X63919Y-34559D01*
X63937Y-34551D01*
X63937Y-34632D01*
X64001Y-34788D01*
X64082Y-34869D01*
X61824Y-37127D01*
X61237Y-37127D01*
X61126Y-37149D01*
X61032Y-37212D01*
X60462Y-37782D01*
X60399Y-37876D01*
X60377Y-37987D01*
X60377Y-40201D01*
X60187Y-40391D01*
X60187Y-39431D01*
X60187Y-39262D01*
X60123Y-39106D01*
X60003Y-38986D01*
X59847Y-38921D01*
X59678Y-38921D01*
X59522Y-38985D01*
X59402Y-39105D01*
X59337Y-39261D01*
X59337Y-39430D01*
X59401Y-39586D01*
X59521Y-39706D01*
X59677Y-39771D01*
X59846Y-39771D01*
X60002Y-39707D01*
X60122Y-39587D01*
X60187Y-39431D01*
X60187Y-40391D01*
X59176Y-41403D01*
X59113Y-41497D01*
X59091Y-41608D01*
X59091Y-41640D01*
X59113Y-41751D01*
X59176Y-41845D01*
X59735Y-42405D01*
X59590Y-42465D01*
X59487Y-42567D01*
X59505Y-42525D01*
X59505Y-42356D01*
X59441Y-42200D01*
X59321Y-42080D01*
X59165Y-42015D01*
X59165Y-41976D01*
X59101Y-41820D01*
X58981Y-41700D01*
X58825Y-41635D01*
X58656Y-41635D01*
X58500Y-41699D01*
X58380Y-41819D01*
X58315Y-41975D01*
X58315Y-42104D01*
X58312Y-42109D01*
X58290Y-42220D01*
X58290Y-45920D01*
X58312Y-46031D01*
X58375Y-46125D01*
X59155Y-46905D01*
X59155Y-47004D01*
X59172Y-47046D01*
X59139Y-47080D01*
X58880Y-47080D01*
X58765Y-47103D01*
X58747Y-47115D01*
X58636Y-47115D01*
X58480Y-47179D01*
X58360Y-47299D01*
X58295Y-47455D01*
X58295Y-47473D01*
X58249Y-47427D01*
X58249Y-46612D01*
X58260Y-46601D01*
X58325Y-46445D01*
X58325Y-46276D01*
X58261Y-46120D01*
X58141Y-46000D01*
X57985Y-45935D01*
X57816Y-45935D01*
X57660Y-45999D01*
X57648Y-46011D01*
X56678Y-46011D01*
X56733Y-45881D01*
X56733Y-45712D01*
X56669Y-45556D01*
X56549Y-45436D01*
X57317Y-44668D01*
X57319Y-44667D01*
X57320Y-44667D01*
X57395Y-44554D01*
X57422Y-44421D01*
X57421Y-44420D01*
X57422Y-44420D01*
X57422Y-42483D01*
X57421Y-42482D01*
X57422Y-42482D01*
X57395Y-42349D01*
X57320Y-42236D01*
X57317Y-42234D01*
X53569Y-38485D01*
X53569Y-38412D01*
X53580Y-38401D01*
X53645Y-38245D01*
X53645Y-38076D01*
X53581Y-37920D01*
X53472Y-37811D01*
X53552Y-37732D01*
X53617Y-37635D01*
X53640Y-37520D01*
X53640Y-37505D01*
X53724Y-37505D01*
X53880Y-37441D01*
X54000Y-37321D01*
X54065Y-37165D01*
X54065Y-36996D01*
X54001Y-36840D01*
X53881Y-36720D01*
X53725Y-36655D01*
X53556Y-36655D01*
X53400Y-36719D01*
X53300Y-36819D01*
X53300Y-36380D01*
X53299Y-36379D01*
X53277Y-36265D01*
X53212Y-36168D01*
X53211Y-36167D01*
X53145Y-36101D01*
X53145Y-36016D01*
X53081Y-35860D01*
X52961Y-35740D01*
X52805Y-35675D01*
X52636Y-35675D01*
X52615Y-35683D01*
X52581Y-35600D01*
X52461Y-35480D01*
X52305Y-35415D01*
X52136Y-35415D01*
X51980Y-35479D01*
X51860Y-35599D01*
X51795Y-35755D01*
X51795Y-35770D01*
X51412Y-35388D01*
X51420Y-35381D01*
X51485Y-35225D01*
X51485Y-35056D01*
X51421Y-34900D01*
X51301Y-34780D01*
X51145Y-34715D01*
X50976Y-34715D01*
X50820Y-34779D01*
X50700Y-34899D01*
X50686Y-34932D01*
X50645Y-34915D01*
X50476Y-34915D01*
X50334Y-34973D01*
X50221Y-34860D01*
X50065Y-34795D01*
X49896Y-34795D01*
X49800Y-34834D01*
X49800Y-34744D01*
X49921Y-34623D01*
X49986Y-34525D01*
X50009Y-34411D01*
X50000Y-34366D01*
X50000Y-34085D01*
X51845Y-32240D01*
X52025Y-32240D01*
X52136Y-32218D01*
X52230Y-32155D01*
X53105Y-31280D01*
X53168Y-31186D01*
X53190Y-31075D01*
X53190Y-30241D01*
X53250Y-30388D01*
X53370Y-30508D01*
X53526Y-30573D01*
X53695Y-30573D01*
X53801Y-30529D01*
X53820Y-30622D01*
X53900Y-30741D01*
X54441Y-31282D01*
X54441Y-32098D01*
X54385Y-32075D01*
X54385Y-31996D01*
X54321Y-31840D01*
X54201Y-31720D01*
X54045Y-31655D01*
X54045Y-31556D01*
X53981Y-31400D01*
X53861Y-31280D01*
X53705Y-31215D01*
X53536Y-31215D01*
X53380Y-31279D01*
X53260Y-31399D01*
X53195Y-31555D01*
X53195Y-31721D01*
X53041Y-31875D01*
X52956Y-31875D01*
X52800Y-31939D01*
X52680Y-32059D01*
X52615Y-32215D01*
X52615Y-32384D01*
X52679Y-32540D01*
X52799Y-32660D01*
X52955Y-32725D01*
X52983Y-32725D01*
X53039Y-32860D01*
X53159Y-32980D01*
X53315Y-33045D01*
X53315Y-33064D01*
X53379Y-33220D01*
X53499Y-33340D01*
X53655Y-33405D01*
X53824Y-33405D01*
X53980Y-33341D01*
X54100Y-33221D01*
X54165Y-33065D01*
X54165Y-32979D01*
X54219Y-32925D01*
X54384Y-32925D01*
X54441Y-32901D01*
X54441Y-33617D01*
X54152Y-33907D01*
X54072Y-34026D01*
X54044Y-34167D01*
X54044Y-34263D01*
X54072Y-34404D01*
X54152Y-34523D01*
X54536Y-34907D01*
X54655Y-34987D01*
X54796Y-35015D01*
X56445Y-35015D01*
X56435Y-35025D01*
X56360Y-35138D01*
X56333Y-35272D01*
X56333Y-37726D01*
X56360Y-37860D01*
X56435Y-37973D01*
X58400Y-39937D01*
X58402Y-39940D01*
X58515Y-40015D01*
X58516Y-40015D01*
X58582Y-40028D01*
X58648Y-40042D01*
X58648Y-40041D01*
X58649Y-40042D01*
X58692Y-40042D01*
X58703Y-40053D01*
X58859Y-40118D01*
X59028Y-40118D01*
X59184Y-40054D01*
X59304Y-39934D01*
X59369Y-39778D01*
X59369Y-39609D01*
X59305Y-39453D01*
X59185Y-39333D01*
X59029Y-39268D01*
X58860Y-39268D01*
X58758Y-39309D01*
X57345Y-37895D01*
X57460Y-37781D01*
X57525Y-37625D01*
X57525Y-37560D01*
X58115Y-37560D01*
X58115Y-37704D01*
X58179Y-37860D01*
X58299Y-37980D01*
X58455Y-38045D01*
X58483Y-38045D01*
X58539Y-38180D01*
X58659Y-38300D01*
X58815Y-38365D01*
X58823Y-38365D01*
X58879Y-38500D01*
X58999Y-38620D01*
X59155Y-38685D01*
X59324Y-38685D01*
X59480Y-38621D01*
X59600Y-38501D01*
X59665Y-38345D01*
X59665Y-38259D01*
X60103Y-37820D01*
X60200Y-37781D01*
X60320Y-37661D01*
X60385Y-37505D01*
X60385Y-37336D01*
X60321Y-37180D01*
X60201Y-37060D01*
X60045Y-36995D01*
X59876Y-36995D01*
X59720Y-37059D01*
X59670Y-37109D01*
X59661Y-37100D01*
X59505Y-37035D01*
X59504Y-37035D01*
X59441Y-36880D01*
X59321Y-36760D01*
X59165Y-36695D01*
X59125Y-36695D01*
X59125Y-36676D01*
X59061Y-36520D01*
X58941Y-36400D01*
X58785Y-36335D01*
X58765Y-36335D01*
X58765Y-36296D01*
X58701Y-36140D01*
X58581Y-36020D01*
X58425Y-35955D01*
X58425Y-35936D01*
X58361Y-35780D01*
X58241Y-35660D01*
X58085Y-35595D01*
X58045Y-35595D01*
X58045Y-35536D01*
X58020Y-35477D01*
X59176Y-35477D01*
X59187Y-35488D01*
X59343Y-35553D01*
X59512Y-35553D01*
X59668Y-35489D01*
X59788Y-35369D01*
X59853Y-35213D01*
X59853Y-35044D01*
X59789Y-34888D01*
X59690Y-34789D01*
X59901Y-34578D01*
X60220Y-34578D01*
X60315Y-34559D01*
X60519Y-34559D01*
X60611Y-34521D01*
X60681Y-34451D01*
X60719Y-34360D01*
X60719Y-34261D01*
X60719Y-34061D01*
X60681Y-33969D01*
X60672Y-33960D01*
X60681Y-33951D01*
X60719Y-33860D01*
X60719Y-33761D01*
X60719Y-33561D01*
X60681Y-33469D01*
X60672Y-33460D01*
X60681Y-33451D01*
X60719Y-33360D01*
X60719Y-33261D01*
X60719Y-33061D01*
X60681Y-32969D01*
X60611Y-32899D01*
X60520Y-32861D01*
X60421Y-32861D01*
X60220Y-32861D01*
X60020Y-32861D01*
X59927Y-32768D01*
X59771Y-32703D01*
X59605Y-32703D01*
X59589Y-32662D01*
X59469Y-32542D01*
X59313Y-32477D01*
X59144Y-32477D01*
X58988Y-32541D01*
X58976Y-32553D01*
X57256Y-32553D01*
X57122Y-32580D01*
X57009Y-32655D01*
X57007Y-32657D01*
X56879Y-32785D01*
X56864Y-32785D01*
X56708Y-32849D01*
X56696Y-32861D01*
X56621Y-32861D01*
X56420Y-32861D01*
X56121Y-32861D01*
X56029Y-32899D01*
X55959Y-32969D01*
X55921Y-33060D01*
X55921Y-33159D01*
X55921Y-33359D01*
X55942Y-33410D01*
X55410Y-33410D01*
X55295Y-33433D01*
X55198Y-33498D01*
X55177Y-33519D01*
X55177Y-31130D01*
X55176Y-31129D01*
X55149Y-30989D01*
X55069Y-30870D01*
X55069Y-30869D01*
X54565Y-30366D01*
X54621Y-30311D01*
X54659Y-30220D01*
X54659Y-30121D01*
X54659Y-29921D01*
X54621Y-29829D01*
X54612Y-29820D01*
X54621Y-29811D01*
X54659Y-29720D01*
X54659Y-29621D01*
X54659Y-29421D01*
X54621Y-29329D01*
X54612Y-29320D01*
X54621Y-29311D01*
X54659Y-29220D01*
X54659Y-29121D01*
X54659Y-28921D01*
X54621Y-28829D01*
X54551Y-28759D01*
X54460Y-28721D01*
X54361Y-28721D01*
X54160Y-28721D01*
X53861Y-28721D01*
X53814Y-28721D01*
X53714Y-28679D01*
X53545Y-28679D01*
X53389Y-28743D01*
X53312Y-28820D01*
X53263Y-28771D01*
X53125Y-28713D01*
X52834Y-28423D01*
X52715Y-28343D01*
X52574Y-28315D01*
X52365Y-28315D01*
X52229Y-28258D01*
X52060Y-28258D01*
X52000Y-28282D01*
X52000Y-27284D01*
X52914Y-26370D01*
X53681Y-26370D01*
X53661Y-26420D01*
X53661Y-26519D01*
X53661Y-26719D01*
X53699Y-26811D01*
X53769Y-26881D01*
X53860Y-26919D01*
X53959Y-26919D01*
X54160Y-26919D01*
X54459Y-26919D01*
X55508Y-26919D01*
X55641Y-26892D01*
X55642Y-26892D01*
X55644Y-26890D01*
X55619Y-27016D01*
X55619Y-30710D01*
X55646Y-30844D01*
X55721Y-30957D01*
X55834Y-31032D01*
X55968Y-31059D01*
X56120Y-31059D01*
X56219Y-31059D01*
X56420Y-31059D01*
X56719Y-31059D01*
X56811Y-31021D01*
X56881Y-30951D01*
X56919Y-30860D01*
X56919Y-30761D01*
X56919Y-30561D01*
X56897Y-30510D01*
X56946Y-30510D01*
X57291Y-30855D01*
X57275Y-30895D01*
X57275Y-31064D01*
X57339Y-31220D01*
X57459Y-31340D01*
X57615Y-31405D01*
X57784Y-31405D01*
X57940Y-31341D01*
X58060Y-31221D01*
X58125Y-31065D01*
X58125Y-30896D01*
X58061Y-30740D01*
X57941Y-30620D01*
X57877Y-30593D01*
X57362Y-30078D01*
X57660Y-30078D01*
X57801Y-30050D01*
X57860Y-30010D01*
X57931Y-30010D01*
X58013Y-30092D01*
X58070Y-30230D01*
X58190Y-30350D01*
X58346Y-30415D01*
X58515Y-30415D01*
X58671Y-30351D01*
X58676Y-30346D01*
X58676Y-31466D01*
X58671Y-31466D01*
X58515Y-31530D01*
X58395Y-31650D01*
X58330Y-31806D01*
X58330Y-31975D01*
X58394Y-32131D01*
X58514Y-32251D01*
X58670Y-32316D01*
X58839Y-32316D01*
X58995Y-32252D01*
X59115Y-32132D01*
X59180Y-31976D01*
X59180Y-31959D01*
X59269Y-31869D01*
X59271Y-31868D01*
X59272Y-31868D01*
X59347Y-31755D01*
X59374Y-31622D01*
X59373Y-31621D01*
X59374Y-31621D01*
X59374Y-31345D01*
X59524Y-31345D01*
X59680Y-31281D01*
X59800Y-31161D01*
X59853Y-31031D01*
X59920Y-31059D01*
X60019Y-31059D01*
X60220Y-31059D01*
X60519Y-31059D01*
X60565Y-31059D01*
X60542Y-31115D01*
X60542Y-31284D01*
X60606Y-31440D01*
X60726Y-31560D01*
X60882Y-31625D01*
X61051Y-31625D01*
X61207Y-31561D01*
X61327Y-31441D01*
X61392Y-31285D01*
X61392Y-31116D01*
X61332Y-30970D01*
X61522Y-30779D01*
X61539Y-30820D01*
X61549Y-30830D01*
X61500Y-30879D01*
X61435Y-31035D01*
X61435Y-31204D01*
X61499Y-31360D01*
X61619Y-31480D01*
X61775Y-31545D01*
X61944Y-31545D01*
X62100Y-31481D01*
X62220Y-31361D01*
X62285Y-31205D01*
X62285Y-31119D01*
X62512Y-30892D01*
X62577Y-30795D01*
X62600Y-30680D01*
X62600Y-30624D01*
X62819Y-30405D01*
X62819Y-30710D01*
X62846Y-30844D01*
X62921Y-30957D01*
X63034Y-31032D01*
X63168Y-31059D01*
X63320Y-31059D01*
X63419Y-31059D01*
X63620Y-31059D01*
X63919Y-31059D01*
X64011Y-31021D01*
X64081Y-30951D01*
X64119Y-30860D01*
X64119Y-30772D01*
X64234Y-30772D01*
X64390Y-30708D01*
X64510Y-30588D01*
X64575Y-30432D01*
X64575Y-30368D01*
X64646Y-30338D01*
X64611Y-30425D01*
X64611Y-30594D01*
X64675Y-30750D01*
X64690Y-30765D01*
X64696Y-30795D01*
X64776Y-30914D01*
X65405Y-31544D01*
X65461Y-31680D01*
X65581Y-31800D01*
X65737Y-31865D01*
X65906Y-31865D01*
X66062Y-31801D01*
X66182Y-31681D01*
X66247Y-31525D01*
X66247Y-31356D01*
X66183Y-31200D01*
X66164Y-31181D01*
X67298Y-31181D01*
X67431Y-31154D01*
X67432Y-31154D01*
X67545Y-31079D01*
X67564Y-31059D01*
X67719Y-31059D01*
X67811Y-31021D01*
X67881Y-30951D01*
X67919Y-30860D01*
X67919Y-30761D01*
X67919Y-30561D01*
X67881Y-30469D01*
X67872Y-30460D01*
X67881Y-30451D01*
X67919Y-30360D01*
X67919Y-30261D01*
X67919Y-30076D01*
X68035Y-30125D01*
X68204Y-30125D01*
X68360Y-30061D01*
X68480Y-29941D01*
X68545Y-29785D01*
X68545Y-29616D01*
X68533Y-29587D01*
X68580Y-29587D01*
X68647Y-29559D01*
X68647Y-30189D01*
X68441Y-30394D01*
X68304Y-30451D01*
X68184Y-30571D01*
X68119Y-30727D01*
X68119Y-30896D01*
X68183Y-31052D01*
X68303Y-31172D01*
X68459Y-31237D01*
X68628Y-31237D01*
X68784Y-31173D01*
X68904Y-31053D01*
X68961Y-30914D01*
X69275Y-30601D01*
X69355Y-30482D01*
X69371Y-30400D01*
X69390Y-30419D01*
X69546Y-30484D01*
X69715Y-30484D01*
X69871Y-30420D01*
X69991Y-30300D01*
X70056Y-30144D01*
X70056Y-29975D01*
X69992Y-29819D01*
X69980Y-29807D01*
X69980Y-27791D01*
X71618Y-29429D01*
X71618Y-30166D01*
G54D10*
G36*
X72281Y-45138D02*
X72236Y-45184D01*
X72156Y-45303D01*
X72128Y-45444D01*
X72128Y-46032D01*
X72031Y-46129D01*
X71947Y-46331D01*
X71947Y-46549D01*
X72031Y-46751D01*
X72049Y-46769D01*
X72049Y-47020D01*
X72049Y-48279D01*
X71224Y-49104D01*
X71127Y-49249D01*
X71093Y-49420D01*
X71093Y-50220D01*
X71049Y-50239D01*
X70979Y-50309D01*
X70941Y-50400D01*
X70941Y-50499D01*
X70941Y-51199D01*
X70979Y-51291D01*
X71049Y-51361D01*
X71140Y-51399D01*
X71172Y-51399D01*
X71172Y-53189D01*
X69110Y-55252D01*
X69030Y-55371D01*
X69028Y-55381D01*
X69028Y-40045D01*
X69027Y-40044D01*
X69028Y-40044D01*
X69014Y-39978D01*
X69001Y-39912D01*
X69001Y-39911D01*
X68926Y-39798D01*
X68923Y-39796D01*
X67676Y-38548D01*
X67563Y-38473D01*
X67545Y-38469D01*
X67511Y-38435D01*
X67422Y-38398D01*
X67460Y-38361D01*
X67525Y-38205D01*
X67525Y-38036D01*
X67461Y-37880D01*
X67341Y-37760D01*
X67185Y-37695D01*
X67016Y-37695D01*
X66860Y-37759D01*
X66823Y-37795D01*
X66740Y-37761D01*
X66641Y-37761D01*
X66141Y-37761D01*
X66049Y-37799D01*
X65979Y-37869D01*
X65941Y-37960D01*
X65941Y-38059D01*
X65941Y-38226D01*
X65865Y-38195D01*
X65696Y-38195D01*
X65540Y-38259D01*
X65420Y-38379D01*
X65355Y-38535D01*
X65355Y-38704D01*
X65419Y-38860D01*
X65539Y-38980D01*
X65695Y-39045D01*
X65864Y-39045D01*
X65941Y-39013D01*
X65941Y-39059D01*
X65941Y-39259D01*
X65979Y-39351D01*
X66049Y-39421D01*
X66140Y-39459D01*
X66239Y-39459D01*
X66440Y-39459D01*
X66739Y-39459D01*
X66747Y-39459D01*
X66833Y-39544D01*
X66835Y-39547D01*
X66795Y-39645D01*
X66795Y-39814D01*
X66859Y-39970D01*
X66979Y-40090D01*
X67135Y-40155D01*
X67151Y-40155D01*
X67728Y-40731D01*
X67728Y-43373D01*
X67616Y-43373D01*
X67460Y-43437D01*
X67340Y-43557D01*
X67275Y-43713D01*
X67275Y-43882D01*
X67339Y-44038D01*
X67351Y-44050D01*
X67351Y-44678D01*
X67346Y-44673D01*
X67190Y-44608D01*
X67182Y-44608D01*
X67213Y-44535D01*
X67213Y-44481D01*
X67213Y-44480D01*
X67214Y-44480D01*
X67214Y-44479D01*
X67241Y-44346D01*
X67241Y-41610D01*
X67214Y-41476D01*
X67139Y-41363D01*
X67026Y-41288D01*
X66892Y-41261D01*
X66740Y-41261D01*
X66641Y-41261D01*
X66440Y-41261D01*
X66141Y-41261D01*
X66049Y-41299D01*
X65979Y-41369D01*
X65941Y-41460D01*
X65941Y-41559D01*
X65941Y-41759D01*
X65972Y-41835D01*
X65939Y-41842D01*
X65845Y-41905D01*
X65695Y-42055D01*
X65632Y-42149D01*
X65610Y-42260D01*
X65610Y-42438D01*
X65505Y-42395D01*
X65336Y-42395D01*
X65208Y-42447D01*
X65201Y-42440D01*
X65045Y-42375D01*
X64876Y-42375D01*
X64720Y-42439D01*
X64600Y-42559D01*
X64535Y-42715D01*
X64535Y-42884D01*
X64584Y-43005D01*
X64535Y-43055D01*
X64436Y-43055D01*
X64405Y-43067D01*
X64405Y-42976D01*
X64341Y-42820D01*
X64221Y-42700D01*
X64065Y-42635D01*
X63896Y-42635D01*
X63740Y-42699D01*
X63705Y-42733D01*
X63565Y-42675D01*
X63479Y-42675D01*
X63254Y-42450D01*
X63302Y-42379D01*
X63324Y-42268D01*
X63324Y-42072D01*
X63375Y-42123D01*
X63531Y-42188D01*
X63700Y-42188D01*
X63856Y-42124D01*
X63976Y-42004D01*
X64041Y-41848D01*
X64041Y-41679D01*
X63977Y-41523D01*
X63857Y-41403D01*
X63701Y-41338D01*
X63532Y-41338D01*
X63376Y-41402D01*
X63256Y-41522D01*
X63202Y-41651D01*
X63139Y-41608D01*
X63139Y-41461D01*
X63101Y-41369D01*
X63031Y-41299D01*
X62940Y-41261D01*
X62841Y-41261D01*
X62474Y-41261D01*
X62474Y-39459D01*
X62939Y-39459D01*
X63031Y-39421D01*
X63101Y-39351D01*
X63139Y-39260D01*
X63139Y-39161D01*
X63139Y-39143D01*
X63182Y-39143D01*
X63182Y-39194D01*
X63246Y-39350D01*
X63366Y-39470D01*
X63522Y-39535D01*
X63691Y-39535D01*
X63847Y-39471D01*
X63967Y-39351D01*
X64032Y-39195D01*
X64032Y-39026D01*
X63968Y-38870D01*
X63855Y-38757D01*
X66722Y-35889D01*
X66679Y-35994D01*
X66679Y-36163D01*
X66743Y-36319D01*
X66863Y-36439D01*
X67019Y-36504D01*
X67188Y-36504D01*
X67344Y-36440D01*
X67464Y-36320D01*
X67523Y-36178D01*
X67523Y-37185D01*
X67551Y-37326D01*
X67631Y-37445D01*
X70615Y-40430D01*
X70616Y-40430D01*
X70735Y-40510D01*
X70876Y-40538D01*
X71997Y-40538D01*
X71959Y-40554D01*
X71889Y-40624D01*
X71851Y-40715D01*
X71851Y-40814D01*
X71851Y-41364D01*
X71841Y-41354D01*
X71750Y-41316D01*
X71651Y-41316D01*
X71301Y-41316D01*
X71209Y-41354D01*
X71139Y-41424D01*
X71101Y-41515D01*
X71101Y-41614D01*
X71101Y-42164D01*
X71139Y-42256D01*
X71159Y-42276D01*
X70628Y-42808D01*
X70563Y-42905D01*
X70540Y-43020D01*
X70540Y-44040D01*
X70563Y-44155D01*
X70628Y-44252D01*
X71363Y-44987D01*
X71460Y-45052D01*
X71575Y-45075D01*
X72227Y-45075D01*
X72234Y-45091D01*
X72281Y-45138D01*
X72281Y-45138D01*
G37*
G54D27*
X72281Y-45138D02*
X72236Y-45184D01*
X72156Y-45303D01*
X72128Y-45444D01*
X72128Y-46032D01*
X72031Y-46129D01*
X71947Y-46331D01*
X71947Y-46549D01*
X72031Y-46751D01*
X72049Y-46769D01*
X72049Y-47020D01*
X72049Y-48279D01*
X71224Y-49104D01*
X71127Y-49249D01*
X71093Y-49420D01*
X71093Y-50220D01*
X71049Y-50239D01*
X70979Y-50309D01*
X70941Y-50400D01*
X70941Y-50499D01*
X70941Y-51199D01*
X70979Y-51291D01*
X71049Y-51361D01*
X71140Y-51399D01*
X71172Y-51399D01*
X71172Y-53189D01*
X69110Y-55252D01*
X69030Y-55371D01*
X69028Y-55381D01*
X69028Y-40045D01*
X69027Y-40044D01*
X69028Y-40044D01*
X69014Y-39978D01*
X69001Y-39912D01*
X69001Y-39911D01*
X68926Y-39798D01*
X68923Y-39796D01*
X67676Y-38548D01*
X67563Y-38473D01*
X67545Y-38469D01*
X67511Y-38435D01*
X67422Y-38398D01*
X67460Y-38361D01*
X67525Y-38205D01*
X67525Y-38036D01*
X67461Y-37880D01*
X67341Y-37760D01*
X67185Y-37695D01*
X67016Y-37695D01*
X66860Y-37759D01*
X66823Y-37795D01*
X66740Y-37761D01*
X66641Y-37761D01*
X66141Y-37761D01*
X66049Y-37799D01*
X65979Y-37869D01*
X65941Y-37960D01*
X65941Y-38059D01*
X65941Y-38226D01*
X65865Y-38195D01*
X65696Y-38195D01*
X65540Y-38259D01*
X65420Y-38379D01*
X65355Y-38535D01*
X65355Y-38704D01*
X65419Y-38860D01*
X65539Y-38980D01*
X65695Y-39045D01*
X65864Y-39045D01*
X65941Y-39013D01*
X65941Y-39059D01*
X65941Y-39259D01*
X65979Y-39351D01*
X66049Y-39421D01*
X66140Y-39459D01*
X66239Y-39459D01*
X66440Y-39459D01*
X66739Y-39459D01*
X66747Y-39459D01*
X66833Y-39544D01*
X66835Y-39547D01*
X66795Y-39645D01*
X66795Y-39814D01*
X66859Y-39970D01*
X66979Y-40090D01*
X67135Y-40155D01*
X67151Y-40155D01*
X67728Y-40731D01*
X67728Y-43373D01*
X67616Y-43373D01*
X67460Y-43437D01*
X67340Y-43557D01*
X67275Y-43713D01*
X67275Y-43882D01*
X67339Y-44038D01*
X67351Y-44050D01*
X67351Y-44678D01*
X67346Y-44673D01*
X67190Y-44608D01*
X67182Y-44608D01*
X67213Y-44535D01*
X67213Y-44481D01*
X67213Y-44480D01*
X67214Y-44480D01*
X67214Y-44479D01*
X67241Y-44346D01*
X67241Y-41610D01*
X67214Y-41476D01*
X67139Y-41363D01*
X67026Y-41288D01*
X66892Y-41261D01*
X66740Y-41261D01*
X66641Y-41261D01*
X66440Y-41261D01*
X66141Y-41261D01*
X66049Y-41299D01*
X65979Y-41369D01*
X65941Y-41460D01*
X65941Y-41559D01*
X65941Y-41759D01*
X65972Y-41835D01*
X65939Y-41842D01*
X65845Y-41905D01*
X65695Y-42055D01*
X65632Y-42149D01*
X65610Y-42260D01*
X65610Y-42438D01*
X65505Y-42395D01*
X65336Y-42395D01*
X65208Y-42447D01*
X65201Y-42440D01*
X65045Y-42375D01*
X64876Y-42375D01*
X64720Y-42439D01*
X64600Y-42559D01*
X64535Y-42715D01*
X64535Y-42884D01*
X64584Y-43005D01*
X64535Y-43055D01*
X64436Y-43055D01*
X64405Y-43067D01*
X64405Y-42976D01*
X64341Y-42820D01*
X64221Y-42700D01*
X64065Y-42635D01*
X63896Y-42635D01*
X63740Y-42699D01*
X63705Y-42733D01*
X63565Y-42675D01*
X63479Y-42675D01*
X63254Y-42450D01*
X63302Y-42379D01*
X63324Y-42268D01*
X63324Y-42072D01*
X63375Y-42123D01*
X63531Y-42188D01*
X63700Y-42188D01*
X63856Y-42124D01*
X63976Y-42004D01*
X64041Y-41848D01*
X64041Y-41679D01*
X63977Y-41523D01*
X63857Y-41403D01*
X63701Y-41338D01*
X63532Y-41338D01*
X63376Y-41402D01*
X63256Y-41522D01*
X63202Y-41651D01*
X63139Y-41608D01*
X63139Y-41461D01*
X63101Y-41369D01*
X63031Y-41299D01*
X62940Y-41261D01*
X62841Y-41261D01*
X62474Y-41261D01*
X62474Y-39459D01*
X62939Y-39459D01*
X63031Y-39421D01*
X63101Y-39351D01*
X63139Y-39260D01*
X63139Y-39161D01*
X63139Y-39143D01*
X63182Y-39143D01*
X63182Y-39194D01*
X63246Y-39350D01*
X63366Y-39470D01*
X63522Y-39535D01*
X63691Y-39535D01*
X63847Y-39471D01*
X63967Y-39351D01*
X64032Y-39195D01*
X64032Y-39026D01*
X63968Y-38870D01*
X63855Y-38757D01*
X66722Y-35889D01*
X66679Y-35994D01*
X66679Y-36163D01*
X66743Y-36319D01*
X66863Y-36439D01*
X67019Y-36504D01*
X67188Y-36504D01*
X67344Y-36440D01*
X67464Y-36320D01*
X67523Y-36178D01*
X67523Y-37185D01*
X67551Y-37326D01*
X67631Y-37445D01*
X70615Y-40430D01*
X70616Y-40430D01*
X70735Y-40510D01*
X70876Y-40538D01*
X71997Y-40538D01*
X71959Y-40554D01*
X71889Y-40624D01*
X71851Y-40715D01*
X71851Y-40814D01*
X71851Y-41364D01*
X71841Y-41354D01*
X71750Y-41316D01*
X71651Y-41316D01*
X71301Y-41316D01*
X71209Y-41354D01*
X71139Y-41424D01*
X71101Y-41515D01*
X71101Y-41614D01*
X71101Y-42164D01*
X71139Y-42256D01*
X71159Y-42276D01*
X70628Y-42808D01*
X70563Y-42905D01*
X70540Y-43020D01*
X70540Y-44040D01*
X70563Y-44155D01*
X70628Y-44252D01*
X71363Y-44987D01*
X71460Y-45052D01*
X71575Y-45075D01*
X72227Y-45075D01*
X72234Y-45091D01*
X72281Y-45138D01*
G54D10*
G36*
X74706Y-42018D02*
X74700Y-42016D01*
X74601Y-42016D01*
X74401Y-42016D01*
X74309Y-42054D01*
X74300Y-42063D01*
X74291Y-42054D01*
X74200Y-42016D01*
X74101Y-42016D01*
X73901Y-42016D01*
X73809Y-42054D01*
X73800Y-42063D01*
X73791Y-42054D01*
X73700Y-42016D01*
X73601Y-42016D01*
X73401Y-42016D01*
X73309Y-42054D01*
X73239Y-42124D01*
X73201Y-42215D01*
X73201Y-42314D01*
X73201Y-42394D01*
X73182Y-42490D01*
X73182Y-42754D01*
X73172Y-42768D01*
X73159Y-42774D01*
X73089Y-42844D01*
X73051Y-42935D01*
X73051Y-43034D01*
X73051Y-43584D01*
X73089Y-43676D01*
X73159Y-43746D01*
X73250Y-43784D01*
X73349Y-43784D01*
X73699Y-43784D01*
X73777Y-43751D01*
X73790Y-43770D01*
X73796Y-43776D01*
X73796Y-44104D01*
X73834Y-44196D01*
X73904Y-44266D01*
X73995Y-44304D01*
X74017Y-44304D01*
X74017Y-46111D01*
X73999Y-46129D01*
X73915Y-46331D01*
X73915Y-46549D01*
X73949Y-46632D01*
X73010Y-46632D01*
X73045Y-46549D01*
X73045Y-46331D01*
X72961Y-46129D01*
X72864Y-46032D01*
X72864Y-45596D01*
X72980Y-45481D01*
X72980Y-45480D01*
X73060Y-45361D01*
X73087Y-45221D01*
X73088Y-45220D01*
X73088Y-45180D01*
X73136Y-45161D01*
X73206Y-45091D01*
X73244Y-45000D01*
X73244Y-44901D01*
X73244Y-44551D01*
X73206Y-44459D01*
X73136Y-44389D01*
X73045Y-44351D01*
X72946Y-44351D01*
X72396Y-44351D01*
X72304Y-44389D01*
X72234Y-44459D01*
X72227Y-44475D01*
X71699Y-44475D01*
X71140Y-43916D01*
X71140Y-43144D01*
X71737Y-42548D01*
X71737Y-42547D01*
X71802Y-42450D01*
X71824Y-42336D01*
X71825Y-42335D01*
X71825Y-42332D01*
X71841Y-42326D01*
X71900Y-42267D01*
X71959Y-42326D01*
X72050Y-42364D01*
X72149Y-42364D01*
X72499Y-42364D01*
X72591Y-42326D01*
X72661Y-42256D01*
X72699Y-42165D01*
X72699Y-42066D01*
X72699Y-41516D01*
X72667Y-41440D01*
X72699Y-41365D01*
X72699Y-41266D01*
X72699Y-41136D01*
X72971Y-40864D01*
X72999Y-40864D01*
X73103Y-40864D01*
X73103Y-41050D01*
X73137Y-41221D01*
X73234Y-41366D01*
X73563Y-41696D01*
X73564Y-41696D01*
X73660Y-41760D01*
X73708Y-41792D01*
X73709Y-41793D01*
X73880Y-41827D01*
X74646Y-41827D01*
X74660Y-41900D01*
X74706Y-42018D01*
X74706Y-42018D01*
G37*
G54D27*
X74706Y-42018D02*
X74700Y-42016D01*
X74601Y-42016D01*
X74401Y-42016D01*
X74309Y-42054D01*
X74300Y-42063D01*
X74291Y-42054D01*
X74200Y-42016D01*
X74101Y-42016D01*
X73901Y-42016D01*
X73809Y-42054D01*
X73800Y-42063D01*
X73791Y-42054D01*
X73700Y-42016D01*
X73601Y-42016D01*
X73401Y-42016D01*
X73309Y-42054D01*
X73239Y-42124D01*
X73201Y-42215D01*
X73201Y-42314D01*
X73201Y-42394D01*
X73182Y-42490D01*
X73182Y-42754D01*
X73172Y-42768D01*
X73159Y-42774D01*
X73089Y-42844D01*
X73051Y-42935D01*
X73051Y-43034D01*
X73051Y-43584D01*
X73089Y-43676D01*
X73159Y-43746D01*
X73250Y-43784D01*
X73349Y-43784D01*
X73699Y-43784D01*
X73777Y-43751D01*
X73790Y-43770D01*
X73796Y-43776D01*
X73796Y-44104D01*
X73834Y-44196D01*
X73904Y-44266D01*
X73995Y-44304D01*
X74017Y-44304D01*
X74017Y-46111D01*
X73999Y-46129D01*
X73915Y-46331D01*
X73915Y-46549D01*
X73949Y-46632D01*
X73010Y-46632D01*
X73045Y-46549D01*
X73045Y-46331D01*
X72961Y-46129D01*
X72864Y-46032D01*
X72864Y-45596D01*
X72980Y-45481D01*
X72980Y-45480D01*
X73060Y-45361D01*
X73087Y-45221D01*
X73088Y-45220D01*
X73088Y-45180D01*
X73136Y-45161D01*
X73206Y-45091D01*
X73244Y-45000D01*
X73244Y-44901D01*
X73244Y-44551D01*
X73206Y-44459D01*
X73136Y-44389D01*
X73045Y-44351D01*
X72946Y-44351D01*
X72396Y-44351D01*
X72304Y-44389D01*
X72234Y-44459D01*
X72227Y-44475D01*
X71699Y-44475D01*
X71140Y-43916D01*
X71140Y-43144D01*
X71737Y-42548D01*
X71737Y-42547D01*
X71802Y-42450D01*
X71824Y-42336D01*
X71825Y-42335D01*
X71825Y-42332D01*
X71841Y-42326D01*
X71900Y-42267D01*
X71959Y-42326D01*
X72050Y-42364D01*
X72149Y-42364D01*
X72499Y-42364D01*
X72591Y-42326D01*
X72661Y-42256D01*
X72699Y-42165D01*
X72699Y-42066D01*
X72699Y-41516D01*
X72667Y-41440D01*
X72699Y-41365D01*
X72699Y-41266D01*
X72699Y-41136D01*
X72971Y-40864D01*
X72999Y-40864D01*
X73103Y-40864D01*
X73103Y-41050D01*
X73137Y-41221D01*
X73234Y-41366D01*
X73563Y-41696D01*
X73564Y-41696D01*
X73660Y-41760D01*
X73708Y-41792D01*
X73709Y-41793D01*
X73880Y-41827D01*
X74646Y-41827D01*
X74660Y-41900D01*
X74706Y-42018D01*
G54D10*
G36*
X78415Y-38014D02*
X78386Y-37985D01*
X78184Y-37901D01*
X78046Y-37901D01*
X77806Y-37660D01*
X77806Y-36932D01*
X77966Y-36999D01*
X78184Y-36999D01*
X78386Y-36915D01*
X78415Y-36886D01*
X78415Y-38014D01*
X78415Y-38014D01*
G37*
G54D27*
X78415Y-38014D02*
X78386Y-37985D01*
X78184Y-37901D01*
X78046Y-37901D01*
X77806Y-37660D01*
X77806Y-36932D01*
X77966Y-36999D01*
X78184Y-36999D01*
X78386Y-36915D01*
X78415Y-36886D01*
X78415Y-38014D01*
G54D10*
G36*
X78415Y-51440D02*
X78379Y-51475D01*
X78379Y-49260D01*
X78379Y-49161D01*
X78379Y-48461D01*
X78341Y-48369D01*
X78271Y-48299D01*
X78227Y-48280D01*
X78227Y-48260D01*
X78226Y-48259D01*
X78193Y-48089D01*
X78192Y-48088D01*
X78096Y-47944D01*
X78095Y-47943D01*
X77247Y-47095D01*
X77247Y-46779D01*
X77265Y-46761D01*
X77349Y-46559D01*
X77349Y-46341D01*
X77265Y-46139D01*
X77111Y-45985D01*
X77026Y-45950D01*
X77111Y-45915D01*
X77265Y-45761D01*
X77349Y-45559D01*
X77349Y-45341D01*
X77265Y-45139D01*
X77111Y-44985D01*
X77026Y-44950D01*
X77111Y-44915D01*
X77265Y-44761D01*
X77349Y-44559D01*
X77349Y-44341D01*
X77265Y-44139D01*
X77111Y-43985D01*
X77026Y-43950D01*
X77111Y-43915D01*
X77265Y-43761D01*
X77349Y-43559D01*
X77349Y-43341D01*
X77265Y-43139D01*
X77111Y-42985D01*
X76909Y-42901D01*
X76691Y-42901D01*
X76489Y-42985D01*
X76335Y-43139D01*
X76251Y-43341D01*
X76251Y-43559D01*
X76335Y-43761D01*
X76489Y-43915D01*
X76573Y-43950D01*
X76489Y-43985D01*
X76335Y-44139D01*
X76251Y-44341D01*
X76251Y-44559D01*
X76335Y-44761D01*
X76489Y-44915D01*
X76573Y-44950D01*
X76489Y-44985D01*
X76335Y-45139D01*
X76251Y-45341D01*
X76251Y-45559D01*
X76335Y-45761D01*
X76489Y-45915D01*
X76573Y-45950D01*
X76489Y-45985D01*
X76335Y-46139D01*
X76251Y-46341D01*
X76251Y-46559D01*
X76335Y-46761D01*
X76353Y-46779D01*
X76353Y-47280D01*
X76387Y-47451D01*
X76484Y-47596D01*
X77238Y-48350D01*
X77219Y-48369D01*
X77181Y-48460D01*
X77181Y-48559D01*
X77181Y-49259D01*
X77219Y-49351D01*
X77289Y-49421D01*
X77380Y-49459D01*
X77479Y-49459D01*
X78179Y-49459D01*
X78271Y-49421D01*
X78341Y-49351D01*
X78379Y-49260D01*
X78379Y-51475D01*
X77428Y-52426D01*
X77493Y-52271D01*
X77494Y-51670D01*
X77265Y-51115D01*
X76840Y-50690D01*
X76286Y-50460D01*
X75685Y-50459D01*
X75130Y-50688D01*
X74705Y-51113D01*
X74475Y-51667D01*
X74474Y-52268D01*
X74703Y-52823D01*
X75128Y-53248D01*
X75682Y-53478D01*
X76283Y-53479D01*
X76441Y-53413D01*
X75456Y-54399D01*
X74803Y-54399D01*
X74409Y-54399D01*
X74284Y-54424D01*
X74179Y-54494D01*
X72998Y-55675D01*
X72928Y-55781D01*
X72903Y-55905D01*
X72903Y-59314D01*
X69550Y-62667D01*
X56693Y-62667D01*
X45143Y-62667D01*
X45143Y-59649D01*
X45143Y-59251D01*
X44991Y-58883D01*
X44710Y-58602D01*
X44343Y-58449D01*
X43945Y-58449D01*
X43577Y-58601D01*
X43296Y-58882D01*
X43143Y-59249D01*
X43143Y-59647D01*
X43295Y-60015D01*
X43576Y-60296D01*
X43943Y-60449D01*
X44341Y-60449D01*
X44709Y-60297D01*
X44990Y-60016D01*
X45143Y-59649D01*
X45143Y-62667D01*
X43835Y-62667D01*
X40819Y-59650D01*
X40819Y-47605D01*
X40819Y-47436D01*
X40755Y-47280D01*
X40699Y-47224D01*
X40754Y-47170D01*
X40819Y-47014D01*
X40819Y-46845D01*
X40755Y-46689D01*
X40635Y-46569D01*
X40479Y-46504D01*
X40310Y-46504D01*
X40154Y-46568D01*
X40081Y-46641D01*
X39236Y-46641D01*
X39286Y-46591D01*
X39324Y-46500D01*
X39324Y-46401D01*
X39324Y-45801D01*
X39286Y-45709D01*
X39216Y-45639D01*
X39125Y-45601D01*
X39026Y-45601D01*
X38426Y-45601D01*
X38334Y-45639D01*
X38324Y-45649D01*
X38324Y-45491D01*
X38240Y-45289D01*
X38086Y-45135D01*
X37884Y-45051D01*
X37666Y-45051D01*
X37533Y-45106D01*
X37533Y-43241D01*
X38340Y-43241D01*
X38464Y-43365D01*
X38666Y-43449D01*
X38884Y-43449D01*
X39086Y-43365D01*
X39240Y-43211D01*
X39324Y-43009D01*
X39324Y-42791D01*
X39240Y-42589D01*
X39086Y-42435D01*
X38884Y-42351D01*
X38666Y-42351D01*
X38464Y-42435D01*
X38314Y-42585D01*
X38271Y-42585D01*
X38324Y-42459D01*
X38324Y-42241D01*
X38277Y-42128D01*
X38327Y-42128D01*
X38464Y-42265D01*
X38666Y-42349D01*
X38884Y-42349D01*
X39086Y-42265D01*
X39240Y-42111D01*
X39324Y-41909D01*
X39324Y-41691D01*
X39240Y-41489D01*
X39086Y-41335D01*
X38884Y-41251D01*
X38775Y-41251D01*
X38775Y-39150D01*
X38775Y-38752D01*
X38623Y-38384D01*
X38342Y-38103D01*
X37975Y-37950D01*
X37577Y-37950D01*
X37209Y-38102D01*
X36928Y-38383D01*
X36775Y-38750D01*
X36775Y-39148D01*
X36927Y-39516D01*
X37208Y-39797D01*
X37575Y-39950D01*
X37973Y-39950D01*
X38341Y-39798D01*
X38622Y-39517D01*
X38775Y-39150D01*
X38775Y-41251D01*
X38666Y-41251D01*
X38464Y-41335D01*
X38327Y-41472D01*
X37570Y-41472D01*
X37444Y-41497D01*
X37338Y-41568D01*
X36697Y-42209D01*
X36626Y-42315D01*
X36601Y-42441D01*
X36601Y-45984D01*
X36626Y-46110D01*
X36697Y-46216D01*
X37996Y-47515D01*
X38102Y-47586D01*
X38103Y-47586D01*
X38228Y-47611D01*
X39971Y-47611D01*
X40033Y-47760D01*
X40153Y-47880D01*
X40309Y-47945D01*
X40478Y-47945D01*
X40634Y-47881D01*
X40754Y-47761D01*
X40819Y-47605D01*
X40819Y-59650D01*
X40483Y-59314D01*
X40483Y-55906D01*
X40458Y-55782D01*
X40457Y-55781D01*
X40388Y-55676D01*
X40385Y-55674D01*
X39206Y-54494D01*
X39100Y-54424D01*
X38976Y-54399D01*
X37930Y-54399D01*
X36944Y-53413D01*
X37100Y-53478D01*
X37701Y-53479D01*
X38256Y-53250D01*
X38681Y-52825D01*
X38911Y-52271D01*
X38912Y-51670D01*
X38775Y-51337D01*
X38775Y-49150D01*
X38775Y-48752D01*
X38623Y-48384D01*
X38342Y-48103D01*
X37975Y-47950D01*
X37577Y-47950D01*
X37209Y-48102D01*
X36928Y-48383D01*
X36775Y-48750D01*
X36775Y-49148D01*
X36927Y-49516D01*
X37208Y-49797D01*
X37575Y-49950D01*
X37973Y-49950D01*
X38341Y-49798D01*
X38622Y-49517D01*
X38775Y-49150D01*
X38775Y-51337D01*
X38683Y-51115D01*
X38258Y-50690D01*
X37704Y-50460D01*
X37103Y-50459D01*
X36548Y-50688D01*
X36123Y-51113D01*
X35893Y-51667D01*
X35892Y-52268D01*
X35957Y-52426D01*
X34971Y-51440D01*
X34971Y-30450D01*
X35957Y-29463D01*
X35893Y-29619D01*
X35892Y-30220D01*
X36121Y-30775D01*
X36546Y-31200D01*
X37100Y-31430D01*
X37701Y-31431D01*
X38256Y-31202D01*
X38681Y-30777D01*
X38911Y-30223D01*
X38912Y-29622D01*
X38683Y-29067D01*
X38258Y-28642D01*
X37704Y-28412D01*
X37103Y-28411D01*
X36944Y-28476D01*
X37930Y-27491D01*
X38976Y-27491D01*
X39100Y-27466D01*
X39206Y-27396D01*
X40387Y-26215D01*
X40457Y-26110D01*
X40457Y-26109D01*
X40482Y-25985D01*
X40482Y-22575D01*
X43834Y-19223D01*
X69550Y-19223D01*
X72903Y-22575D01*
X72903Y-23667D01*
X72458Y-23222D01*
X72458Y-23207D01*
X72394Y-23051D01*
X72274Y-22931D01*
X72118Y-22866D01*
X71949Y-22866D01*
X71793Y-22930D01*
X71673Y-23050D01*
X71608Y-23206D01*
X71608Y-23375D01*
X71672Y-23531D01*
X71792Y-23651D01*
X71948Y-23716D01*
X71964Y-23716D01*
X72548Y-24299D01*
X72548Y-25215D01*
X72020Y-24687D01*
X72020Y-24588D01*
X71956Y-24432D01*
X71951Y-24427D01*
X72016Y-24272D01*
X72016Y-24103D01*
X71952Y-23947D01*
X71832Y-23827D01*
X71676Y-23762D01*
X71507Y-23762D01*
X71353Y-23825D01*
X71344Y-23803D01*
X71224Y-23683D01*
X71068Y-23618D01*
X70899Y-23618D01*
X70743Y-23682D01*
X70623Y-23802D01*
X70558Y-23958D01*
X70558Y-23974D01*
X70084Y-24447D01*
X70076Y-24426D01*
X69956Y-24306D01*
X69800Y-24241D01*
X69700Y-24241D01*
X68797Y-23338D01*
X69043Y-23441D01*
X69441Y-23441D01*
X69809Y-23289D01*
X70090Y-23008D01*
X70243Y-22641D01*
X70243Y-22243D01*
X70091Y-21875D01*
X69903Y-21687D01*
X69903Y-20819D01*
X69903Y-20650D01*
X69839Y-20494D01*
X69719Y-20374D01*
X69563Y-20309D01*
X69394Y-20309D01*
X69238Y-20373D01*
X69118Y-20493D01*
X69053Y-20649D01*
X69053Y-20818D01*
X69117Y-20974D01*
X69237Y-21094D01*
X69393Y-21159D01*
X69562Y-21159D01*
X69718Y-21095D01*
X69838Y-20975D01*
X69903Y-20819D01*
X69903Y-21687D01*
X69810Y-21594D01*
X69443Y-21441D01*
X69045Y-21441D01*
X68677Y-21593D01*
X68396Y-21874D01*
X68243Y-22241D01*
X68243Y-22639D01*
X68345Y-22886D01*
X66684Y-21225D01*
X66590Y-21162D01*
X66479Y-21140D01*
X65802Y-21140D01*
X65802Y-21028D01*
X65738Y-20872D01*
X65618Y-20752D01*
X65462Y-20687D01*
X65293Y-20687D01*
X65137Y-20751D01*
X65125Y-20763D01*
X63716Y-20763D01*
X63716Y-20642D01*
X63652Y-20486D01*
X63532Y-20366D01*
X63376Y-20301D01*
X63359Y-20301D01*
X62766Y-19707D01*
X62653Y-19632D01*
X62519Y-19605D01*
X52952Y-19605D01*
X52941Y-19594D01*
X52785Y-19529D01*
X52616Y-19529D01*
X52460Y-19593D01*
X52340Y-19713D01*
X52275Y-19869D01*
X52275Y-20038D01*
X52339Y-20194D01*
X52459Y-20314D01*
X52615Y-20379D01*
X52784Y-20379D01*
X52940Y-20315D01*
X52952Y-20303D01*
X62374Y-20303D01*
X62675Y-20604D01*
X53829Y-20604D01*
X53818Y-20593D01*
X53662Y-20528D01*
X53493Y-20528D01*
X53337Y-20592D01*
X53217Y-20712D01*
X53165Y-20834D01*
X52972Y-20641D01*
X52859Y-20566D01*
X52725Y-20539D01*
X47144Y-20539D01*
X47010Y-20566D01*
X46897Y-20641D01*
X46895Y-20643D01*
X45831Y-21707D01*
X45756Y-21820D01*
X45729Y-21954D01*
X45729Y-24029D01*
X45756Y-24163D01*
X45792Y-24217D01*
X45792Y-24252D01*
X45856Y-24408D01*
X45976Y-24528D01*
X46110Y-24584D01*
X46105Y-24590D01*
X46040Y-24746D01*
X46040Y-24915D01*
X46104Y-25071D01*
X46224Y-25191D01*
X46380Y-25256D01*
X46549Y-25256D01*
X46705Y-25192D01*
X46825Y-25072D01*
X46890Y-24916D01*
X46890Y-24875D01*
X46890Y-24874D01*
X46916Y-24836D01*
X46916Y-24835D01*
X46943Y-24702D01*
X46943Y-24011D01*
X46916Y-23878D01*
X46916Y-23877D01*
X46841Y-23764D01*
X46838Y-23762D01*
X46729Y-23652D01*
X46729Y-22729D01*
X47112Y-22346D01*
X47191Y-22378D01*
X47191Y-22379D01*
X47116Y-22492D01*
X47089Y-22626D01*
X47089Y-25779D01*
X47116Y-25913D01*
X47191Y-26026D01*
X48729Y-27564D01*
X45243Y-27564D01*
X45243Y-22641D01*
X45243Y-22243D01*
X45091Y-21875D01*
X44810Y-21594D01*
X44443Y-21441D01*
X44045Y-21441D01*
X43677Y-21593D01*
X43396Y-21874D01*
X43243Y-22241D01*
X43243Y-22639D01*
X43395Y-23007D01*
X43676Y-23288D01*
X44043Y-23441D01*
X44441Y-23441D01*
X44809Y-23289D01*
X45090Y-23008D01*
X45243Y-22641D01*
X45243Y-27564D01*
X43574Y-27564D01*
X43433Y-27592D01*
X43313Y-27672D01*
X42140Y-28845D01*
X42140Y-26396D01*
X42140Y-26165D01*
X42140Y-23736D01*
X42140Y-23505D01*
X42052Y-23292D01*
X41889Y-23129D01*
X41676Y-23040D01*
X41445Y-23040D01*
X41232Y-23128D01*
X41069Y-23291D01*
X40980Y-23504D01*
X40980Y-23735D01*
X41068Y-23948D01*
X41231Y-24111D01*
X41444Y-24200D01*
X41675Y-24200D01*
X41888Y-24112D01*
X42051Y-23949D01*
X42140Y-23736D01*
X42140Y-26165D01*
X42052Y-25952D01*
X41889Y-25789D01*
X41676Y-25700D01*
X41445Y-25700D01*
X41232Y-25788D01*
X41069Y-25951D01*
X40980Y-26164D01*
X40980Y-26395D01*
X41068Y-26608D01*
X41231Y-26771D01*
X41444Y-26860D01*
X41675Y-26860D01*
X41888Y-26772D01*
X42051Y-26609D01*
X42140Y-26396D01*
X42140Y-28845D01*
X42134Y-28851D01*
X42052Y-28652D01*
X41889Y-28489D01*
X41676Y-28400D01*
X41445Y-28400D01*
X41232Y-28488D01*
X41069Y-28651D01*
X40980Y-28864D01*
X40980Y-29095D01*
X41068Y-29308D01*
X41231Y-29471D01*
X41430Y-29554D01*
X39573Y-31413D01*
X39493Y-31532D01*
X39465Y-31673D01*
X39465Y-34975D01*
X39296Y-34975D01*
X39140Y-35039D01*
X39108Y-35071D01*
X36936Y-35071D01*
X36789Y-34923D01*
X36789Y-33396D01*
X36976Y-33209D01*
X38108Y-33209D01*
X38139Y-33240D01*
X38295Y-33305D01*
X38464Y-33305D01*
X38620Y-33241D01*
X38740Y-33121D01*
X38805Y-32965D01*
X38805Y-32796D01*
X38741Y-32640D01*
X38621Y-32520D01*
X38465Y-32455D01*
X38296Y-32455D01*
X38140Y-32519D01*
X38108Y-32551D01*
X36840Y-32551D01*
X36714Y-32576D01*
X36607Y-32647D01*
X36605Y-32649D01*
X36227Y-33027D01*
X36156Y-33134D01*
X36130Y-33260D01*
X36131Y-33264D01*
X36131Y-35055D01*
X36130Y-35060D01*
X36156Y-35186D01*
X36227Y-35293D01*
X36565Y-35630D01*
X36567Y-35633D01*
X36674Y-35704D01*
X36778Y-35724D01*
X36799Y-35729D01*
X36799Y-35728D01*
X36800Y-35729D01*
X39108Y-35729D01*
X39139Y-35760D01*
X39295Y-35825D01*
X39464Y-35825D01*
X39465Y-35824D01*
X39465Y-43840D01*
X38804Y-44501D01*
X38666Y-44501D01*
X38464Y-44585D01*
X38310Y-44739D01*
X38226Y-44941D01*
X38226Y-45159D01*
X38310Y-45361D01*
X38464Y-45515D01*
X38666Y-45599D01*
X38884Y-45599D01*
X39086Y-45515D01*
X39240Y-45361D01*
X39324Y-45159D01*
X39324Y-45021D01*
X40093Y-44252D01*
X40173Y-44133D01*
X40201Y-43992D01*
X40201Y-43209D01*
X40704Y-43209D01*
X40796Y-43171D01*
X40866Y-43101D01*
X40904Y-43010D01*
X40904Y-42985D01*
X41044Y-43125D01*
X41246Y-43209D01*
X41464Y-43209D01*
X41666Y-43125D01*
X41820Y-42971D01*
X41904Y-42769D01*
X41904Y-42551D01*
X41820Y-42349D01*
X41666Y-42195D01*
X41464Y-42111D01*
X41246Y-42111D01*
X41044Y-42195D01*
X40904Y-42335D01*
X40904Y-42311D01*
X40866Y-42219D01*
X40796Y-42149D01*
X40705Y-42111D01*
X40606Y-42111D01*
X40201Y-42111D01*
X40201Y-40574D01*
X40275Y-40605D01*
X40444Y-40605D01*
X40600Y-40541D01*
X40620Y-40520D01*
X40775Y-40585D01*
X40944Y-40585D01*
X41100Y-40521D01*
X41220Y-40401D01*
X41285Y-40245D01*
X41285Y-40076D01*
X41221Y-39920D01*
X41150Y-39849D01*
X41150Y-38576D01*
X41259Y-38685D01*
X41415Y-38750D01*
X41435Y-38750D01*
X41435Y-39714D01*
X41365Y-39784D01*
X41300Y-39940D01*
X41300Y-40109D01*
X41364Y-40265D01*
X41484Y-40385D01*
X41640Y-40450D01*
X41809Y-40450D01*
X41965Y-40386D01*
X42085Y-40266D01*
X42086Y-40262D01*
X42139Y-40390D01*
X42259Y-40510D01*
X42415Y-40575D01*
X42584Y-40575D01*
X42740Y-40511D01*
X42860Y-40391D01*
X42925Y-40235D01*
X42925Y-40066D01*
X42861Y-39910D01*
X42741Y-39790D01*
X42585Y-39725D01*
X42485Y-39725D01*
X42390Y-39629D01*
X42390Y-39225D01*
X42591Y-39309D01*
X42809Y-39309D01*
X43011Y-39225D01*
X43165Y-39071D01*
X43200Y-38986D01*
X43235Y-39071D01*
X43389Y-39225D01*
X43591Y-39309D01*
X43809Y-39309D01*
X44011Y-39225D01*
X44151Y-39085D01*
X44151Y-39109D01*
X44189Y-39201D01*
X44259Y-39271D01*
X44350Y-39309D01*
X44449Y-39309D01*
X44876Y-39309D01*
X44876Y-42028D01*
X44902Y-42160D01*
X44844Y-42219D01*
X44806Y-42310D01*
X44806Y-42335D01*
X44666Y-42195D01*
X44464Y-42111D01*
X44246Y-42111D01*
X44044Y-42195D01*
X43890Y-42349D01*
X43855Y-42433D01*
X43820Y-42349D01*
X43666Y-42195D01*
X43464Y-42111D01*
X43246Y-42111D01*
X43044Y-42195D01*
X42890Y-42349D01*
X42806Y-42551D01*
X42806Y-42769D01*
X42890Y-42971D01*
X43044Y-43125D01*
X43246Y-43209D01*
X43464Y-43209D01*
X43666Y-43125D01*
X43820Y-42971D01*
X43855Y-42886D01*
X43890Y-42971D01*
X44044Y-43125D01*
X44246Y-43209D01*
X44464Y-43209D01*
X44666Y-43125D01*
X44806Y-42985D01*
X44806Y-43009D01*
X44844Y-43101D01*
X44914Y-43171D01*
X45005Y-43209D01*
X45104Y-43209D01*
X45704Y-43209D01*
X45796Y-43171D01*
X45866Y-43101D01*
X45904Y-43010D01*
X45904Y-42985D01*
X46044Y-43125D01*
X46246Y-43209D01*
X46464Y-43209D01*
X46666Y-43125D01*
X46820Y-42971D01*
X46855Y-42886D01*
X46890Y-42971D01*
X47044Y-43125D01*
X47246Y-43209D01*
X47464Y-43209D01*
X47666Y-43125D01*
X47820Y-42971D01*
X47904Y-42769D01*
X47904Y-42551D01*
X47820Y-42349D01*
X47666Y-42195D01*
X47464Y-42111D01*
X47246Y-42111D01*
X47044Y-42195D01*
X46890Y-42349D01*
X46855Y-42433D01*
X46820Y-42349D01*
X46666Y-42195D01*
X46464Y-42111D01*
X46246Y-42111D01*
X46044Y-42195D01*
X45904Y-42335D01*
X45904Y-42311D01*
X45866Y-42219D01*
X45796Y-42149D01*
X45705Y-42111D01*
X45694Y-42111D01*
X45677Y-42024D01*
X45602Y-41911D01*
X45599Y-41909D01*
X45574Y-41883D01*
X45574Y-35712D01*
X46181Y-35105D01*
X46244Y-35105D01*
X46400Y-35041D01*
X46520Y-34921D01*
X46585Y-34765D01*
X46585Y-34596D01*
X46521Y-34440D01*
X46509Y-34428D01*
X46509Y-32209D01*
X47469Y-31249D01*
X48073Y-31249D01*
X48084Y-31260D01*
X48240Y-31325D01*
X48409Y-31325D01*
X48565Y-31261D01*
X48685Y-31141D01*
X48750Y-30985D01*
X48750Y-30816D01*
X48686Y-30660D01*
X48566Y-30540D01*
X48410Y-30475D01*
X48241Y-30475D01*
X48085Y-30539D01*
X48073Y-30551D01*
X47325Y-30551D01*
X47191Y-30578D01*
X47078Y-30653D01*
X47076Y-30655D01*
X45913Y-31818D01*
X45838Y-31931D01*
X45811Y-32065D01*
X45811Y-34428D01*
X45800Y-34439D01*
X45756Y-34543D01*
X45080Y-35219D01*
X44700Y-35219D01*
X44566Y-35246D01*
X44453Y-35321D01*
X44378Y-35434D01*
X44359Y-35527D01*
X44284Y-35559D01*
X44247Y-35596D01*
X44153Y-35596D01*
X44116Y-35559D01*
X44025Y-35521D01*
X43926Y-35521D01*
X43552Y-35521D01*
X43552Y-35130D01*
X43525Y-34997D01*
X43525Y-34996D01*
X43450Y-34883D01*
X42663Y-34096D01*
X42722Y-34009D01*
X42722Y-34008D01*
X42749Y-33875D01*
X42749Y-29927D01*
X42760Y-29916D01*
X42825Y-29760D01*
X42825Y-29591D01*
X42761Y-29435D01*
X42676Y-29350D01*
X43726Y-28300D01*
X43894Y-28300D01*
X43855Y-28395D01*
X43855Y-28564D01*
X43919Y-28720D01*
X43980Y-28781D01*
X43980Y-29120D01*
X44003Y-29235D01*
X44068Y-29332D01*
X44415Y-29679D01*
X44415Y-29764D01*
X44479Y-29920D01*
X44599Y-30040D01*
X44755Y-30105D01*
X44924Y-30105D01*
X45080Y-30041D01*
X45141Y-29980D01*
X48975Y-29980D01*
X49277Y-30282D01*
X49278Y-30282D01*
X49375Y-30347D01*
X49490Y-30370D01*
X49958Y-30370D01*
X49969Y-30381D01*
X50060Y-30419D01*
X50159Y-30419D01*
X50659Y-30419D01*
X50751Y-30381D01*
X50762Y-30370D01*
X51226Y-30370D01*
X51435Y-30579D01*
X51435Y-30664D01*
X51457Y-30720D01*
X51180Y-30720D01*
X51065Y-30743D01*
X50968Y-30808D01*
X48228Y-33548D01*
X48228Y-32275D01*
X48228Y-32066D01*
X48148Y-31873D01*
X48001Y-31725D01*
X47808Y-31645D01*
X47599Y-31645D01*
X47406Y-31725D01*
X47258Y-31872D01*
X47178Y-32065D01*
X47178Y-32274D01*
X47258Y-32467D01*
X47405Y-32615D01*
X47598Y-32695D01*
X47807Y-32695D01*
X48000Y-32615D01*
X48148Y-32468D01*
X48228Y-32275D01*
X48228Y-33548D01*
X48148Y-33628D01*
X48083Y-33725D01*
X48069Y-33793D01*
X48001Y-33725D01*
X47808Y-33645D01*
X47599Y-33645D01*
X47406Y-33725D01*
X47258Y-33872D01*
X47178Y-34065D01*
X47178Y-34274D01*
X47258Y-34467D01*
X47405Y-34615D01*
X47598Y-34695D01*
X47807Y-34695D01*
X48000Y-34615D01*
X48060Y-34555D01*
X48060Y-36160D01*
X48083Y-36275D01*
X48095Y-36292D01*
X48095Y-36404D01*
X48159Y-36560D01*
X48279Y-36680D01*
X48435Y-36745D01*
X48604Y-36745D01*
X48760Y-36681D01*
X48780Y-36661D01*
X48799Y-36680D01*
X48955Y-36745D01*
X49124Y-36745D01*
X49280Y-36681D01*
X49310Y-36651D01*
X49339Y-36680D01*
X49495Y-36745D01*
X49664Y-36745D01*
X49820Y-36681D01*
X49890Y-36611D01*
X49959Y-36680D01*
X50115Y-36745D01*
X50284Y-36745D01*
X50440Y-36681D01*
X50560Y-36561D01*
X50625Y-36405D01*
X50625Y-36389D01*
X51628Y-37392D01*
X51725Y-37457D01*
X51740Y-37460D01*
X50140Y-37460D01*
X50025Y-37483D01*
X49928Y-37548D01*
X48988Y-38488D01*
X48923Y-38585D01*
X48900Y-38700D01*
X48900Y-39699D01*
X48840Y-39759D01*
X48775Y-39915D01*
X48775Y-40084D01*
X48839Y-40240D01*
X48959Y-40360D01*
X49115Y-40425D01*
X49260Y-40425D01*
X49299Y-40520D01*
X49419Y-40640D01*
X48744Y-40640D01*
X47892Y-39788D01*
X47795Y-39723D01*
X47680Y-39700D01*
X47301Y-39700D01*
X47201Y-39600D01*
X47045Y-39535D01*
X46876Y-39535D01*
X46720Y-39599D01*
X46600Y-39719D01*
X46535Y-39875D01*
X46535Y-40044D01*
X46599Y-40200D01*
X46719Y-40320D01*
X46875Y-40385D01*
X47044Y-40385D01*
X47200Y-40321D01*
X47221Y-40300D01*
X47556Y-40300D01*
X48408Y-41152D01*
X48505Y-41217D01*
X48620Y-41240D01*
X52035Y-41240D01*
X53040Y-42244D01*
X53040Y-44875D01*
X52956Y-44875D01*
X52800Y-44939D01*
X52680Y-45059D01*
X52615Y-45215D01*
X52615Y-45384D01*
X52679Y-45540D01*
X52799Y-45660D01*
X52955Y-45725D01*
X52992Y-45725D01*
X52955Y-45815D01*
X52955Y-45984D01*
X53019Y-46140D01*
X53139Y-46260D01*
X53165Y-46270D01*
X53129Y-46306D01*
X53005Y-46255D01*
X52836Y-46255D01*
X52680Y-46319D01*
X52560Y-46439D01*
X52495Y-46595D01*
X52495Y-46764D01*
X52559Y-46920D01*
X52679Y-47040D01*
X52775Y-47080D01*
X52233Y-47622D01*
X52238Y-47598D01*
X52238Y-45079D01*
X52212Y-44946D01*
X52212Y-44945D01*
X52136Y-44833D01*
X51904Y-44601D01*
X51904Y-42769D01*
X51904Y-42551D01*
X51820Y-42349D01*
X51666Y-42195D01*
X51464Y-42111D01*
X51246Y-42111D01*
X51044Y-42195D01*
X50890Y-42349D01*
X50806Y-42551D01*
X50806Y-42769D01*
X50890Y-42971D01*
X51044Y-43125D01*
X51246Y-43209D01*
X51464Y-43209D01*
X51666Y-43125D01*
X51820Y-42971D01*
X51904Y-42769D01*
X51904Y-44601D01*
X51585Y-44282D01*
X51473Y-44206D01*
X51339Y-44180D01*
X50725Y-44180D01*
X50713Y-44168D01*
X50557Y-44103D01*
X50388Y-44103D01*
X50232Y-44167D01*
X50112Y-44287D01*
X50047Y-44443D01*
X50047Y-44612D01*
X50111Y-44768D01*
X50231Y-44888D01*
X50387Y-44953D01*
X50556Y-44953D01*
X50712Y-44889D01*
X50725Y-44876D01*
X51195Y-44876D01*
X51542Y-45223D01*
X51542Y-47454D01*
X51250Y-47746D01*
X51174Y-47858D01*
X51148Y-47992D01*
X51148Y-49344D01*
X50997Y-49495D01*
X50393Y-49495D01*
X50260Y-49521D01*
X50147Y-49597D01*
X50146Y-49597D01*
X50146Y-49598D01*
X49923Y-49821D01*
X49904Y-49821D01*
X49904Y-42769D01*
X49904Y-42551D01*
X49820Y-42349D01*
X49666Y-42195D01*
X49464Y-42111D01*
X49246Y-42111D01*
X49044Y-42195D01*
X48890Y-42349D01*
X48806Y-42551D01*
X48806Y-42769D01*
X48890Y-42971D01*
X49044Y-43125D01*
X49246Y-43209D01*
X49464Y-43209D01*
X49666Y-43125D01*
X49820Y-42971D01*
X49904Y-42769D01*
X49904Y-49821D01*
X49730Y-49821D01*
X49596Y-49848D01*
X49483Y-49923D01*
X49481Y-49925D01*
X49216Y-50190D01*
X49141Y-50303D01*
X49114Y-50437D01*
X49114Y-54063D01*
X49141Y-54197D01*
X49216Y-54310D01*
X50835Y-55929D01*
X50835Y-55944D01*
X50899Y-56100D01*
X51019Y-56220D01*
X51175Y-56285D01*
X51344Y-56285D01*
X51500Y-56221D01*
X51620Y-56101D01*
X51685Y-55945D01*
X51685Y-55939D01*
X53277Y-54347D01*
X58319Y-54347D01*
X60166Y-54347D01*
X60299Y-54320D01*
X60300Y-54320D01*
X60413Y-54245D01*
X60738Y-53919D01*
X60754Y-53919D01*
X60910Y-53855D01*
X61030Y-53735D01*
X61095Y-53579D01*
X61095Y-53410D01*
X61031Y-53254D01*
X60911Y-53134D01*
X60755Y-53069D01*
X60586Y-53069D01*
X60430Y-53133D01*
X60310Y-53253D01*
X60245Y-53409D01*
X60245Y-53425D01*
X60021Y-53649D01*
X59552Y-53649D01*
X59660Y-53541D01*
X59725Y-53385D01*
X59725Y-53299D01*
X59959Y-53065D01*
X60044Y-53065D01*
X60200Y-53001D01*
X60320Y-52881D01*
X60385Y-52725D01*
X60385Y-52556D01*
X60321Y-52400D01*
X60201Y-52280D01*
X60045Y-52215D01*
X59876Y-52215D01*
X59720Y-52279D01*
X59600Y-52399D01*
X59535Y-52555D01*
X59535Y-52641D01*
X59301Y-52875D01*
X59216Y-52875D01*
X59060Y-52939D01*
X58940Y-53059D01*
X58875Y-53215D01*
X58875Y-53384D01*
X58939Y-53540D01*
X59048Y-53649D01*
X58668Y-53649D01*
X58668Y-48340D01*
X61811Y-48340D01*
X61811Y-51230D01*
X61810Y-51231D01*
X61745Y-51387D01*
X61745Y-51556D01*
X61809Y-51712D01*
X61929Y-51832D01*
X62085Y-51897D01*
X62254Y-51897D01*
X62406Y-51834D01*
X62429Y-51857D01*
X62585Y-51922D01*
X62754Y-51922D01*
X62910Y-51858D01*
X63030Y-51738D01*
X63095Y-51582D01*
X63095Y-51413D01*
X63031Y-51257D01*
X62960Y-51186D01*
X62960Y-46137D01*
X62938Y-46026D01*
X62875Y-45932D01*
X62660Y-45717D01*
X62660Y-45618D01*
X62596Y-45462D01*
X62476Y-45342D01*
X62320Y-45277D01*
X62151Y-45277D01*
X61995Y-45341D01*
X61875Y-45461D01*
X61810Y-45617D01*
X61810Y-45786D01*
X61874Y-45942D01*
X61956Y-46024D01*
X61920Y-46039D01*
X61800Y-46159D01*
X61735Y-46315D01*
X61735Y-46484D01*
X61799Y-46640D01*
X61811Y-46652D01*
X61811Y-47642D01*
X59779Y-47642D01*
X59800Y-47621D01*
X59865Y-47465D01*
X59865Y-47296D01*
X59862Y-47289D01*
X59995Y-47345D01*
X60164Y-47345D01*
X60320Y-47281D01*
X60340Y-47261D01*
X60359Y-47280D01*
X60515Y-47345D01*
X60684Y-47345D01*
X60840Y-47281D01*
X60960Y-47161D01*
X61025Y-47005D01*
X61025Y-46836D01*
X60961Y-46680D01*
X60890Y-46609D01*
X60890Y-44620D01*
X61465Y-44045D01*
X61564Y-44045D01*
X61705Y-43986D01*
X61779Y-44060D01*
X61935Y-44125D01*
X62104Y-44125D01*
X62260Y-44061D01*
X62380Y-43941D01*
X62424Y-43835D01*
X62424Y-44166D01*
X62446Y-44277D01*
X62509Y-44371D01*
X63755Y-45617D01*
X63755Y-46742D01*
X63685Y-46812D01*
X63620Y-46968D01*
X63620Y-47137D01*
X63684Y-47293D01*
X63804Y-47413D01*
X63960Y-47478D01*
X64129Y-47478D01*
X64285Y-47414D01*
X64405Y-47294D01*
X64470Y-47138D01*
X64470Y-46969D01*
X64406Y-46813D01*
X64335Y-46742D01*
X64335Y-45497D01*
X64313Y-45386D01*
X64250Y-45292D01*
X64158Y-45200D01*
X64250Y-45108D01*
X64260Y-45084D01*
X65456Y-45084D01*
X65446Y-45109D01*
X65446Y-45278D01*
X65510Y-45434D01*
X65581Y-45505D01*
X65581Y-46327D01*
X65216Y-46692D01*
X65117Y-46692D01*
X64961Y-46756D01*
X64841Y-46876D01*
X64776Y-47032D01*
X64776Y-47201D01*
X64840Y-47357D01*
X64960Y-47477D01*
X65116Y-47542D01*
X65285Y-47542D01*
X65441Y-47478D01*
X65561Y-47358D01*
X65626Y-47202D01*
X65626Y-47102D01*
X66003Y-46724D01*
X66039Y-46760D01*
X66195Y-46825D01*
X66364Y-46825D01*
X66520Y-46761D01*
X66640Y-46641D01*
X66705Y-46485D01*
X66705Y-46469D01*
X67728Y-45446D01*
X67728Y-46084D01*
X63536Y-50276D01*
X63461Y-50389D01*
X63434Y-50523D01*
X63434Y-59582D01*
X63318Y-59698D01*
X63238Y-59890D01*
X63158Y-59698D01*
X63004Y-59544D01*
X62802Y-59460D01*
X62692Y-59460D01*
X62692Y-58998D01*
X62692Y-58780D01*
X62608Y-58578D01*
X62454Y-58424D01*
X62252Y-58340D01*
X62034Y-58340D01*
X61832Y-58424D01*
X61678Y-58578D01*
X61594Y-58780D01*
X61594Y-58998D01*
X61678Y-59200D01*
X61832Y-59354D01*
X62034Y-59438D01*
X62252Y-59438D01*
X62454Y-59354D01*
X62608Y-59200D01*
X62692Y-58998D01*
X62692Y-59460D01*
X62584Y-59460D01*
X62382Y-59544D01*
X62228Y-59698D01*
X62144Y-59900D01*
X62144Y-60118D01*
X62228Y-60320D01*
X62382Y-60474D01*
X62584Y-60558D01*
X62802Y-60558D01*
X63004Y-60474D01*
X63158Y-60320D01*
X63238Y-60127D01*
X63318Y-60320D01*
X63472Y-60474D01*
X63674Y-60558D01*
X63892Y-60558D01*
X64094Y-60474D01*
X64248Y-60320D01*
X64332Y-60118D01*
X64332Y-59900D01*
X64248Y-59698D01*
X64132Y-59582D01*
X64132Y-59403D01*
X64214Y-59438D01*
X64432Y-59438D01*
X64634Y-59354D01*
X64788Y-59200D01*
X64868Y-59007D01*
X64948Y-59200D01*
X65102Y-59354D01*
X65304Y-59438D01*
X65522Y-59438D01*
X65724Y-59354D01*
X65878Y-59200D01*
X65954Y-59017D01*
X65954Y-59238D01*
X65992Y-59330D01*
X66062Y-59400D01*
X66153Y-59438D01*
X66252Y-59438D01*
X66852Y-59438D01*
X66944Y-59400D01*
X67014Y-59330D01*
X67052Y-59239D01*
X67052Y-59140D01*
X67052Y-58540D01*
X67014Y-58448D01*
X66975Y-58409D01*
X68926Y-56458D01*
X69001Y-56345D01*
X69001Y-56344D01*
X69002Y-56340D01*
X69002Y-56896D01*
X67535Y-58363D01*
X67455Y-58482D01*
X67427Y-58623D01*
X67427Y-59375D01*
X66028Y-60774D01*
X61062Y-60774D01*
X61062Y-60118D01*
X61062Y-59900D01*
X60978Y-59698D01*
X60824Y-59544D01*
X60622Y-59460D01*
X60512Y-59460D01*
X60512Y-58998D01*
X60512Y-58780D01*
X60428Y-58578D01*
X60274Y-58424D01*
X60072Y-58340D01*
X59854Y-58340D01*
X59652Y-58424D01*
X59498Y-58578D01*
X59418Y-58770D01*
X59338Y-58578D01*
X59184Y-58424D01*
X58982Y-58340D01*
X58764Y-58340D01*
X58562Y-58424D01*
X58408Y-58578D01*
X58324Y-58780D01*
X58324Y-58998D01*
X58408Y-59200D01*
X58562Y-59354D01*
X58764Y-59438D01*
X58982Y-59438D01*
X59184Y-59354D01*
X59338Y-59200D01*
X59418Y-59007D01*
X59498Y-59200D01*
X59652Y-59354D01*
X59854Y-59438D01*
X60072Y-59438D01*
X60274Y-59354D01*
X60428Y-59200D01*
X60512Y-58998D01*
X60512Y-59460D01*
X60404Y-59460D01*
X60202Y-59544D01*
X60048Y-59698D01*
X59964Y-59900D01*
X59964Y-60118D01*
X60048Y-60320D01*
X60202Y-60474D01*
X60404Y-60558D01*
X60622Y-60558D01*
X60824Y-60474D01*
X60978Y-60320D01*
X61062Y-60118D01*
X61062Y-60774D01*
X58882Y-60774D01*
X58882Y-60118D01*
X58882Y-59900D01*
X58798Y-59698D01*
X58644Y-59544D01*
X58442Y-59460D01*
X58224Y-59460D01*
X58022Y-59544D01*
X57868Y-59698D01*
X57788Y-59890D01*
X57708Y-59698D01*
X57554Y-59544D01*
X57352Y-59460D01*
X57242Y-59460D01*
X57242Y-58998D01*
X57242Y-58780D01*
X57158Y-58578D01*
X57004Y-58424D01*
X56802Y-58340D01*
X56584Y-58340D01*
X56382Y-58424D01*
X56228Y-58578D01*
X56148Y-58770D01*
X56068Y-58578D01*
X55914Y-58424D01*
X55712Y-58340D01*
X55494Y-58340D01*
X55292Y-58424D01*
X55138Y-58578D01*
X55054Y-58780D01*
X55054Y-58998D01*
X55138Y-59200D01*
X55292Y-59354D01*
X55494Y-59438D01*
X55712Y-59438D01*
X55914Y-59354D01*
X56068Y-59200D01*
X56148Y-59007D01*
X56228Y-59200D01*
X56382Y-59354D01*
X56584Y-59438D01*
X56802Y-59438D01*
X57004Y-59354D01*
X57158Y-59200D01*
X57242Y-58998D01*
X57242Y-59460D01*
X57134Y-59460D01*
X56932Y-59544D01*
X56778Y-59698D01*
X56694Y-59900D01*
X56694Y-60118D01*
X56778Y-60320D01*
X56932Y-60474D01*
X57134Y-60558D01*
X57352Y-60558D01*
X57554Y-60474D01*
X57708Y-60320D01*
X57788Y-60127D01*
X57868Y-60320D01*
X58022Y-60474D01*
X58224Y-60558D01*
X58442Y-60558D01*
X58644Y-60474D01*
X58798Y-60320D01*
X58882Y-60118D01*
X58882Y-60774D01*
X55612Y-60774D01*
X55612Y-60118D01*
X55612Y-59900D01*
X55528Y-59698D01*
X55374Y-59544D01*
X55172Y-59460D01*
X54954Y-59460D01*
X54752Y-59544D01*
X54598Y-59698D01*
X54518Y-59890D01*
X54438Y-59698D01*
X54284Y-59544D01*
X54082Y-59460D01*
X53972Y-59460D01*
X53972Y-58998D01*
X53972Y-58780D01*
X53888Y-58578D01*
X53734Y-58424D01*
X53532Y-58340D01*
X53314Y-58340D01*
X53112Y-58424D01*
X52958Y-58578D01*
X52878Y-58770D01*
X52798Y-58578D01*
X52644Y-58424D01*
X52442Y-58340D01*
X52224Y-58340D01*
X52022Y-58424D01*
X51868Y-58578D01*
X51784Y-58780D01*
X51784Y-58998D01*
X51868Y-59200D01*
X52022Y-59354D01*
X52224Y-59438D01*
X52442Y-59438D01*
X52644Y-59354D01*
X52798Y-59200D01*
X52878Y-59007D01*
X52958Y-59200D01*
X53112Y-59354D01*
X53314Y-59438D01*
X53532Y-59438D01*
X53734Y-59354D01*
X53888Y-59200D01*
X53972Y-58998D01*
X53972Y-59460D01*
X53864Y-59460D01*
X53662Y-59544D01*
X53508Y-59698D01*
X53424Y-59900D01*
X53424Y-60118D01*
X53508Y-60320D01*
X53662Y-60474D01*
X53864Y-60558D01*
X54082Y-60558D01*
X54284Y-60474D01*
X54438Y-60320D01*
X54518Y-60127D01*
X54598Y-60320D01*
X54752Y-60474D01*
X54954Y-60558D01*
X55172Y-60558D01*
X55374Y-60474D01*
X55528Y-60320D01*
X55612Y-60118D01*
X55612Y-60774D01*
X47593Y-60774D01*
X47377Y-60558D01*
X47542Y-60558D01*
X47744Y-60474D01*
X47898Y-60320D01*
X47978Y-60127D01*
X48058Y-60320D01*
X48212Y-60474D01*
X48414Y-60558D01*
X48632Y-60558D01*
X48834Y-60474D01*
X48988Y-60320D01*
X49068Y-60127D01*
X49148Y-60320D01*
X49302Y-60474D01*
X49504Y-60558D01*
X49722Y-60558D01*
X49924Y-60474D01*
X50078Y-60320D01*
X50158Y-60127D01*
X50238Y-60320D01*
X50392Y-60474D01*
X50594Y-60558D01*
X50812Y-60558D01*
X51014Y-60474D01*
X51168Y-60320D01*
X51248Y-60127D01*
X51328Y-60320D01*
X51482Y-60474D01*
X51684Y-60558D01*
X51902Y-60558D01*
X52104Y-60474D01*
X52258Y-60320D01*
X52342Y-60118D01*
X52342Y-59900D01*
X52258Y-59698D01*
X52104Y-59544D01*
X51902Y-59460D01*
X51684Y-59460D01*
X51482Y-59544D01*
X51328Y-59698D01*
X51248Y-59890D01*
X51168Y-59698D01*
X51014Y-59544D01*
X50812Y-59460D01*
X50702Y-59460D01*
X50702Y-58998D01*
X50702Y-58780D01*
X50618Y-58578D01*
X50464Y-58424D01*
X50262Y-58340D01*
X50044Y-58340D01*
X49842Y-58424D01*
X49688Y-58578D01*
X49608Y-58770D01*
X49528Y-58578D01*
X49374Y-58424D01*
X49172Y-58340D01*
X48954Y-58340D01*
X48752Y-58424D01*
X48598Y-58578D01*
X48518Y-58770D01*
X48438Y-58578D01*
X48284Y-58424D01*
X48082Y-58340D01*
X47864Y-58340D01*
X47662Y-58424D01*
X47508Y-58578D01*
X47428Y-58770D01*
X47348Y-58578D01*
X47194Y-58424D01*
X46992Y-58340D01*
X46774Y-58340D01*
X46572Y-58424D01*
X46418Y-58578D01*
X46334Y-58780D01*
X46334Y-58998D01*
X46418Y-59200D01*
X46572Y-59354D01*
X46774Y-59438D01*
X46992Y-59438D01*
X47194Y-59354D01*
X47348Y-59200D01*
X47428Y-59007D01*
X47508Y-59200D01*
X47662Y-59354D01*
X47864Y-59438D01*
X48082Y-59438D01*
X48284Y-59354D01*
X48438Y-59200D01*
X48518Y-59007D01*
X48598Y-59200D01*
X48752Y-59354D01*
X48954Y-59438D01*
X49172Y-59438D01*
X49374Y-59354D01*
X49528Y-59200D01*
X49608Y-59007D01*
X49688Y-59200D01*
X49842Y-59354D01*
X50044Y-59438D01*
X50262Y-59438D01*
X50464Y-59354D01*
X50618Y-59200D01*
X50702Y-58998D01*
X50702Y-59460D01*
X50594Y-59460D01*
X50392Y-59544D01*
X50238Y-59698D01*
X50158Y-59890D01*
X50078Y-59698D01*
X49924Y-59544D01*
X49722Y-59460D01*
X49504Y-59460D01*
X49302Y-59544D01*
X49148Y-59698D01*
X49068Y-59890D01*
X48988Y-59698D01*
X48834Y-59544D01*
X48632Y-59460D01*
X48414Y-59460D01*
X48212Y-59544D01*
X48058Y-59698D01*
X47978Y-59890D01*
X47898Y-59698D01*
X47744Y-59544D01*
X47542Y-59460D01*
X47324Y-59460D01*
X47122Y-59544D01*
X46968Y-59698D01*
X46884Y-59900D01*
X46884Y-60065D01*
X45880Y-59061D01*
X45880Y-54606D01*
X45875Y-54580D01*
X45875Y-51327D01*
X45906Y-51327D01*
X45998Y-51289D01*
X46068Y-51219D01*
X46106Y-51128D01*
X46106Y-51029D01*
X46106Y-50329D01*
X46068Y-50237D01*
X45998Y-50167D01*
X45907Y-50129D01*
X45808Y-50129D01*
X45108Y-50129D01*
X45016Y-50167D01*
X44946Y-50237D01*
X44921Y-50295D01*
X44875Y-50249D01*
X44875Y-48719D01*
X44847Y-48578D01*
X44767Y-48459D01*
X44541Y-48233D01*
X44541Y-46018D01*
X44758Y-45801D01*
X46943Y-45801D01*
X47080Y-45858D01*
X47249Y-45858D01*
X47405Y-45794D01*
X47525Y-45674D01*
X47590Y-45518D01*
X47590Y-45349D01*
X47526Y-45193D01*
X47406Y-45073D01*
X47250Y-45008D01*
X47081Y-45008D01*
X46942Y-45065D01*
X44730Y-45065D01*
X44961Y-44834D01*
X45005Y-44834D01*
X45161Y-44770D01*
X45281Y-44650D01*
X45346Y-44494D01*
X45346Y-44325D01*
X45282Y-44169D01*
X45162Y-44049D01*
X45006Y-43984D01*
X44837Y-43984D01*
X44681Y-44048D01*
X44561Y-44168D01*
X44496Y-44324D01*
X44496Y-44371D01*
X44174Y-44693D01*
X44129Y-44693D01*
X43973Y-44757D01*
X43853Y-44877D01*
X43788Y-45033D01*
X43788Y-45202D01*
X43852Y-45358D01*
X43972Y-45478D01*
X44020Y-45498D01*
X43913Y-45606D01*
X43833Y-45725D01*
X43805Y-45866D01*
X43805Y-48385D01*
X43833Y-48526D01*
X43913Y-48645D01*
X44139Y-48871D01*
X44139Y-50249D01*
X44007Y-50381D01*
X43846Y-50220D01*
X43626Y-50129D01*
X43388Y-50129D01*
X43168Y-50220D01*
X42999Y-50389D01*
X42908Y-50609D01*
X42908Y-50847D01*
X42999Y-51067D01*
X43168Y-51236D01*
X43388Y-51327D01*
X43626Y-51327D01*
X43846Y-51236D01*
X44007Y-51075D01*
X44168Y-51236D01*
X44388Y-51327D01*
X44626Y-51327D01*
X44846Y-51236D01*
X44921Y-51160D01*
X44946Y-51219D01*
X45016Y-51289D01*
X45107Y-51327D01*
X45139Y-51327D01*
X45139Y-54601D01*
X45144Y-54626D01*
X45144Y-59213D01*
X45172Y-59354D01*
X45252Y-59473D01*
X47181Y-61402D01*
X47300Y-61482D01*
X47441Y-61510D01*
X66181Y-61510D01*
X66322Y-61482D01*
X66441Y-61402D01*
X68055Y-59789D01*
X68055Y-59788D01*
X68135Y-59669D01*
X68143Y-59628D01*
X68143Y-59647D01*
X68295Y-60015D01*
X68576Y-60296D01*
X68943Y-60449D01*
X69341Y-60449D01*
X69709Y-60297D01*
X69990Y-60016D01*
X70143Y-59649D01*
X70143Y-59251D01*
X69991Y-58883D01*
X69710Y-58602D01*
X69343Y-58449D01*
X68945Y-58449D01*
X68577Y-58601D01*
X68296Y-58882D01*
X68163Y-59201D01*
X68163Y-58775D01*
X69630Y-57308D01*
X69710Y-57189D01*
X69737Y-57048D01*
X69738Y-57048D01*
X69738Y-55664D01*
X71800Y-53603D01*
X71800Y-53602D01*
X71880Y-53483D01*
X71907Y-53343D01*
X71908Y-53342D01*
X71908Y-51399D01*
X71939Y-51399D01*
X72031Y-51361D01*
X72101Y-51291D01*
X72139Y-51200D01*
X72139Y-51101D01*
X72139Y-50401D01*
X72101Y-50309D01*
X72031Y-50239D01*
X71987Y-50220D01*
X71987Y-49605D01*
X72811Y-48781D01*
X72811Y-48780D01*
X72812Y-48780D01*
X72908Y-48636D01*
X72909Y-48635D01*
X72942Y-48465D01*
X72943Y-48464D01*
X72943Y-47368D01*
X74720Y-47368D01*
X74861Y-47340D01*
X74980Y-47260D01*
X75340Y-46900D01*
X75420Y-46781D01*
X75448Y-46640D01*
X75448Y-43392D01*
X75677Y-43163D01*
X75710Y-43158D01*
X75775Y-43185D01*
X75944Y-43185D01*
X76100Y-43121D01*
X76220Y-43001D01*
X76285Y-42845D01*
X76285Y-42716D01*
X76380Y-42621D01*
X76445Y-42465D01*
X76445Y-42296D01*
X76381Y-42140D01*
X76379Y-42138D01*
X76376Y-42061D01*
X76425Y-41945D01*
X76425Y-41776D01*
X76361Y-41620D01*
X76241Y-41500D01*
X76085Y-41435D01*
X75916Y-41435D01*
X75796Y-41484D01*
X75772Y-41448D01*
X75760Y-41436D01*
X75760Y-41200D01*
X75737Y-41085D01*
X75672Y-40988D01*
X75372Y-40688D01*
X75275Y-40623D01*
X75240Y-40616D01*
X75240Y-40160D01*
X75217Y-40045D01*
X75152Y-39948D01*
X74844Y-39640D01*
X74844Y-37165D01*
X74844Y-37066D01*
X74844Y-36516D01*
X74806Y-36424D01*
X74736Y-36354D01*
X74645Y-36316D01*
X74546Y-36316D01*
X73996Y-36316D01*
X73904Y-36354D01*
X73834Y-36424D01*
X73796Y-36515D01*
X73796Y-36614D01*
X73796Y-37164D01*
X73834Y-37256D01*
X73904Y-37326D01*
X73995Y-37364D01*
X74094Y-37364D01*
X74644Y-37364D01*
X74736Y-37326D01*
X74806Y-37256D01*
X74844Y-37165D01*
X74844Y-39640D01*
X74799Y-39595D01*
X74799Y-39316D01*
X74771Y-39250D01*
X74799Y-39185D01*
X74799Y-39086D01*
X74799Y-38536D01*
X74771Y-38470D01*
X74799Y-38405D01*
X74799Y-38306D01*
X74799Y-37756D01*
X74761Y-37664D01*
X74691Y-37594D01*
X74600Y-37556D01*
X74501Y-37556D01*
X74151Y-37556D01*
X74059Y-37594D01*
X74000Y-37653D01*
X73941Y-37594D01*
X73850Y-37556D01*
X73751Y-37556D01*
X73401Y-37556D01*
X73310Y-37593D01*
X73220Y-37556D01*
X73121Y-37556D01*
X72771Y-37556D01*
X72679Y-37594D01*
X72609Y-37664D01*
X72571Y-37755D01*
X72571Y-37854D01*
X72571Y-38384D01*
X72561Y-38374D01*
X72470Y-38336D01*
X72371Y-38336D01*
X72021Y-38336D01*
X71929Y-38374D01*
X71859Y-38444D01*
X71821Y-38535D01*
X71821Y-38634D01*
X71821Y-39184D01*
X71848Y-39249D01*
X71821Y-39315D01*
X71821Y-39414D01*
X71821Y-39802D01*
X71601Y-39802D01*
X71625Y-39745D01*
X71625Y-39576D01*
X71561Y-39420D01*
X71500Y-39359D01*
X71500Y-38757D01*
X71522Y-38724D01*
X71549Y-38590D01*
X71522Y-38456D01*
X71500Y-38422D01*
X71500Y-37520D01*
X71477Y-37405D01*
X71412Y-37308D01*
X71140Y-37036D01*
X71140Y-36784D01*
X71384Y-36540D01*
X71780Y-36540D01*
X71895Y-36517D01*
X71992Y-36452D01*
X72532Y-35913D01*
X72532Y-35912D01*
X72597Y-35815D01*
X72619Y-35700D01*
X72620Y-35700D01*
X72620Y-34636D01*
X72647Y-34625D01*
X72801Y-34471D01*
X72885Y-34269D01*
X72885Y-34051D01*
X72846Y-33959D01*
X73793Y-33959D01*
X73755Y-34051D01*
X73755Y-34269D01*
X73839Y-34471D01*
X73993Y-34625D01*
X74195Y-34709D01*
X74413Y-34709D01*
X74615Y-34625D01*
X74769Y-34471D01*
X74853Y-34269D01*
X74853Y-34051D01*
X74814Y-33959D01*
X76303Y-33959D01*
X77070Y-34725D01*
X77070Y-34901D01*
X77051Y-34901D01*
X76451Y-34901D01*
X76359Y-34939D01*
X76289Y-35009D01*
X76251Y-35100D01*
X76251Y-35199D01*
X76251Y-35799D01*
X76289Y-35891D01*
X76359Y-35961D01*
X76450Y-35999D01*
X76475Y-35999D01*
X76335Y-36139D01*
X76251Y-36341D01*
X76251Y-36559D01*
X76335Y-36761D01*
X76489Y-36915D01*
X76691Y-36999D01*
X76909Y-36999D01*
X77070Y-36932D01*
X77070Y-37813D01*
X77098Y-37954D01*
X77134Y-38008D01*
X77111Y-37985D01*
X76909Y-37901D01*
X76691Y-37901D01*
X76489Y-37985D01*
X76335Y-38139D01*
X76251Y-38341D01*
X76251Y-38559D01*
X76335Y-38761D01*
X76489Y-38915D01*
X76573Y-38950D01*
X76489Y-38985D01*
X76335Y-39139D01*
X76251Y-39341D01*
X76251Y-39559D01*
X76335Y-39761D01*
X76489Y-39915D01*
X76691Y-39999D01*
X76909Y-39999D01*
X77111Y-39915D01*
X77265Y-39761D01*
X77349Y-39559D01*
X77349Y-39341D01*
X77265Y-39139D01*
X77111Y-38985D01*
X77026Y-38950D01*
X77111Y-38915D01*
X77265Y-38761D01*
X77349Y-38559D01*
X77349Y-38341D01*
X77280Y-38175D01*
X77526Y-38421D01*
X77526Y-38559D01*
X77610Y-38761D01*
X77764Y-38915D01*
X77848Y-38950D01*
X77764Y-38985D01*
X77610Y-39139D01*
X77526Y-39341D01*
X77526Y-39559D01*
X77610Y-39761D01*
X77764Y-39915D01*
X77966Y-39999D01*
X78184Y-39999D01*
X78386Y-39915D01*
X78415Y-39886D01*
X78415Y-43014D01*
X78386Y-42985D01*
X78184Y-42901D01*
X77966Y-42901D01*
X77764Y-42985D01*
X77610Y-43139D01*
X77526Y-43341D01*
X77526Y-43559D01*
X77610Y-43761D01*
X77764Y-43915D01*
X77848Y-43950D01*
X77764Y-43985D01*
X77610Y-44139D01*
X77526Y-44341D01*
X77526Y-44559D01*
X77610Y-44761D01*
X77764Y-44915D01*
X77848Y-44950D01*
X77764Y-44985D01*
X77610Y-45139D01*
X77526Y-45341D01*
X77526Y-45559D01*
X77610Y-45761D01*
X77764Y-45915D01*
X77848Y-45950D01*
X77764Y-45985D01*
X77610Y-46139D01*
X77526Y-46341D01*
X77526Y-46559D01*
X77610Y-46761D01*
X77764Y-46915D01*
X77966Y-46999D01*
X78184Y-46999D01*
X78386Y-46915D01*
X78415Y-46886D01*
X78415Y-51440D01*
X78415Y-51440D01*
G37*
G54D27*
X78415Y-51440D02*
X78379Y-51475D01*
X78379Y-49260D01*
X78379Y-49161D01*
X78379Y-48461D01*
X78341Y-48369D01*
X78271Y-48299D01*
X78227Y-48280D01*
X78227Y-48260D01*
X78226Y-48259D01*
X78193Y-48089D01*
X78192Y-48088D01*
X78096Y-47944D01*
X78095Y-47943D01*
X77247Y-47095D01*
X77247Y-46779D01*
X77265Y-46761D01*
X77349Y-46559D01*
X77349Y-46341D01*
X77265Y-46139D01*
X77111Y-45985D01*
X77026Y-45950D01*
X77111Y-45915D01*
X77265Y-45761D01*
X77349Y-45559D01*
X77349Y-45341D01*
X77265Y-45139D01*
X77111Y-44985D01*
X77026Y-44950D01*
X77111Y-44915D01*
X77265Y-44761D01*
X77349Y-44559D01*
X77349Y-44341D01*
X77265Y-44139D01*
X77111Y-43985D01*
X77026Y-43950D01*
X77111Y-43915D01*
X77265Y-43761D01*
X77349Y-43559D01*
X77349Y-43341D01*
X77265Y-43139D01*
X77111Y-42985D01*
X76909Y-42901D01*
X76691Y-42901D01*
X76489Y-42985D01*
X76335Y-43139D01*
X76251Y-43341D01*
X76251Y-43559D01*
X76335Y-43761D01*
X76489Y-43915D01*
X76573Y-43950D01*
X76489Y-43985D01*
X76335Y-44139D01*
X76251Y-44341D01*
X76251Y-44559D01*
X76335Y-44761D01*
X76489Y-44915D01*
X76573Y-44950D01*
X76489Y-44985D01*
X76335Y-45139D01*
X76251Y-45341D01*
X76251Y-45559D01*
X76335Y-45761D01*
X76489Y-45915D01*
X76573Y-45950D01*
X76489Y-45985D01*
X76335Y-46139D01*
X76251Y-46341D01*
X76251Y-46559D01*
X76335Y-46761D01*
X76353Y-46779D01*
X76353Y-47280D01*
X76387Y-47451D01*
X76484Y-47596D01*
X77238Y-48350D01*
X77219Y-48369D01*
X77181Y-48460D01*
X77181Y-48559D01*
X77181Y-49259D01*
X77219Y-49351D01*
X77289Y-49421D01*
X77380Y-49459D01*
X77479Y-49459D01*
X78179Y-49459D01*
X78271Y-49421D01*
X78341Y-49351D01*
X78379Y-49260D01*
X78379Y-51475D01*
X77428Y-52426D01*
X77493Y-52271D01*
X77494Y-51670D01*
X77265Y-51115D01*
X76840Y-50690D01*
X76286Y-50460D01*
X75685Y-50459D01*
X75130Y-50688D01*
X74705Y-51113D01*
X74475Y-51667D01*
X74474Y-52268D01*
X74703Y-52823D01*
X75128Y-53248D01*
X75682Y-53478D01*
X76283Y-53479D01*
X76441Y-53413D01*
X75456Y-54399D01*
X74803Y-54399D01*
X74409Y-54399D01*
X74284Y-54424D01*
X74179Y-54494D01*
X72998Y-55675D01*
X72928Y-55781D01*
X72903Y-55905D01*
X72903Y-59314D01*
X69550Y-62667D01*
X56693Y-62667D01*
X45143Y-62667D01*
X45143Y-59649D01*
X45143Y-59251D01*
X44991Y-58883D01*
X44710Y-58602D01*
X44343Y-58449D01*
X43945Y-58449D01*
X43577Y-58601D01*
X43296Y-58882D01*
X43143Y-59249D01*
X43143Y-59647D01*
X43295Y-60015D01*
X43576Y-60296D01*
X43943Y-60449D01*
X44341Y-60449D01*
X44709Y-60297D01*
X44990Y-60016D01*
X45143Y-59649D01*
X45143Y-62667D01*
X43835Y-62667D01*
X40819Y-59650D01*
X40819Y-47605D01*
X40819Y-47436D01*
X40755Y-47280D01*
X40699Y-47224D01*
X40754Y-47170D01*
X40819Y-47014D01*
X40819Y-46845D01*
X40755Y-46689D01*
X40635Y-46569D01*
X40479Y-46504D01*
X40310Y-46504D01*
X40154Y-46568D01*
X40081Y-46641D01*
X39236Y-46641D01*
X39286Y-46591D01*
X39324Y-46500D01*
X39324Y-46401D01*
X39324Y-45801D01*
X39286Y-45709D01*
X39216Y-45639D01*
X39125Y-45601D01*
X39026Y-45601D01*
X38426Y-45601D01*
X38334Y-45639D01*
X38324Y-45649D01*
X38324Y-45491D01*
X38240Y-45289D01*
X38086Y-45135D01*
X37884Y-45051D01*
X37666Y-45051D01*
X37533Y-45106D01*
X37533Y-43241D01*
X38340Y-43241D01*
X38464Y-43365D01*
X38666Y-43449D01*
X38884Y-43449D01*
X39086Y-43365D01*
X39240Y-43211D01*
X39324Y-43009D01*
X39324Y-42791D01*
X39240Y-42589D01*
X39086Y-42435D01*
X38884Y-42351D01*
X38666Y-42351D01*
X38464Y-42435D01*
X38314Y-42585D01*
X38271Y-42585D01*
X38324Y-42459D01*
X38324Y-42241D01*
X38277Y-42128D01*
X38327Y-42128D01*
X38464Y-42265D01*
X38666Y-42349D01*
X38884Y-42349D01*
X39086Y-42265D01*
X39240Y-42111D01*
X39324Y-41909D01*
X39324Y-41691D01*
X39240Y-41489D01*
X39086Y-41335D01*
X38884Y-41251D01*
X38775Y-41251D01*
X38775Y-39150D01*
X38775Y-38752D01*
X38623Y-38384D01*
X38342Y-38103D01*
X37975Y-37950D01*
X37577Y-37950D01*
X37209Y-38102D01*
X36928Y-38383D01*
X36775Y-38750D01*
X36775Y-39148D01*
X36927Y-39516D01*
X37208Y-39797D01*
X37575Y-39950D01*
X37973Y-39950D01*
X38341Y-39798D01*
X38622Y-39517D01*
X38775Y-39150D01*
X38775Y-41251D01*
X38666Y-41251D01*
X38464Y-41335D01*
X38327Y-41472D01*
X37570Y-41472D01*
X37444Y-41497D01*
X37338Y-41568D01*
X36697Y-42209D01*
X36626Y-42315D01*
X36601Y-42441D01*
X36601Y-45984D01*
X36626Y-46110D01*
X36697Y-46216D01*
X37996Y-47515D01*
X38102Y-47586D01*
X38103Y-47586D01*
X38228Y-47611D01*
X39971Y-47611D01*
X40033Y-47760D01*
X40153Y-47880D01*
X40309Y-47945D01*
X40478Y-47945D01*
X40634Y-47881D01*
X40754Y-47761D01*
X40819Y-47605D01*
X40819Y-59650D01*
X40483Y-59314D01*
X40483Y-55906D01*
X40458Y-55782D01*
X40457Y-55781D01*
X40388Y-55676D01*
X40385Y-55674D01*
X39206Y-54494D01*
X39100Y-54424D01*
X38976Y-54399D01*
X37930Y-54399D01*
X36944Y-53413D01*
X37100Y-53478D01*
X37701Y-53479D01*
X38256Y-53250D01*
X38681Y-52825D01*
X38911Y-52271D01*
X38912Y-51670D01*
X38775Y-51337D01*
X38775Y-49150D01*
X38775Y-48752D01*
X38623Y-48384D01*
X38342Y-48103D01*
X37975Y-47950D01*
X37577Y-47950D01*
X37209Y-48102D01*
X36928Y-48383D01*
X36775Y-48750D01*
X36775Y-49148D01*
X36927Y-49516D01*
X37208Y-49797D01*
X37575Y-49950D01*
X37973Y-49950D01*
X38341Y-49798D01*
X38622Y-49517D01*
X38775Y-49150D01*
X38775Y-51337D01*
X38683Y-51115D01*
X38258Y-50690D01*
X37704Y-50460D01*
X37103Y-50459D01*
X36548Y-50688D01*
X36123Y-51113D01*
X35893Y-51667D01*
X35892Y-52268D01*
X35957Y-52426D01*
X34971Y-51440D01*
X34971Y-30450D01*
X35957Y-29463D01*
X35893Y-29619D01*
X35892Y-30220D01*
X36121Y-30775D01*
X36546Y-31200D01*
X37100Y-31430D01*
X37701Y-31431D01*
X38256Y-31202D01*
X38681Y-30777D01*
X38911Y-30223D01*
X38912Y-29622D01*
X38683Y-29067D01*
X38258Y-28642D01*
X37704Y-28412D01*
X37103Y-28411D01*
X36944Y-28476D01*
X37930Y-27491D01*
X38976Y-27491D01*
X39100Y-27466D01*
X39206Y-27396D01*
X40387Y-26215D01*
X40457Y-26110D01*
X40457Y-26109D01*
X40482Y-25985D01*
X40482Y-22575D01*
X43834Y-19223D01*
X69550Y-19223D01*
X72903Y-22575D01*
X72903Y-23667D01*
X72458Y-23222D01*
X72458Y-23207D01*
X72394Y-23051D01*
X72274Y-22931D01*
X72118Y-22866D01*
X71949Y-22866D01*
X71793Y-22930D01*
X71673Y-23050D01*
X71608Y-23206D01*
X71608Y-23375D01*
X71672Y-23531D01*
X71792Y-23651D01*
X71948Y-23716D01*
X71964Y-23716D01*
X72548Y-24299D01*
X72548Y-25215D01*
X72020Y-24687D01*
X72020Y-24588D01*
X71956Y-24432D01*
X71951Y-24427D01*
X72016Y-24272D01*
X72016Y-24103D01*
X71952Y-23947D01*
X71832Y-23827D01*
X71676Y-23762D01*
X71507Y-23762D01*
X71353Y-23825D01*
X71344Y-23803D01*
X71224Y-23683D01*
X71068Y-23618D01*
X70899Y-23618D01*
X70743Y-23682D01*
X70623Y-23802D01*
X70558Y-23958D01*
X70558Y-23974D01*
X70084Y-24447D01*
X70076Y-24426D01*
X69956Y-24306D01*
X69800Y-24241D01*
X69700Y-24241D01*
X68797Y-23338D01*
X69043Y-23441D01*
X69441Y-23441D01*
X69809Y-23289D01*
X70090Y-23008D01*
X70243Y-22641D01*
X70243Y-22243D01*
X70091Y-21875D01*
X69903Y-21687D01*
X69903Y-20819D01*
X69903Y-20650D01*
X69839Y-20494D01*
X69719Y-20374D01*
X69563Y-20309D01*
X69394Y-20309D01*
X69238Y-20373D01*
X69118Y-20493D01*
X69053Y-20649D01*
X69053Y-20818D01*
X69117Y-20974D01*
X69237Y-21094D01*
X69393Y-21159D01*
X69562Y-21159D01*
X69718Y-21095D01*
X69838Y-20975D01*
X69903Y-20819D01*
X69903Y-21687D01*
X69810Y-21594D01*
X69443Y-21441D01*
X69045Y-21441D01*
X68677Y-21593D01*
X68396Y-21874D01*
X68243Y-22241D01*
X68243Y-22639D01*
X68345Y-22886D01*
X66684Y-21225D01*
X66590Y-21162D01*
X66479Y-21140D01*
X65802Y-21140D01*
X65802Y-21028D01*
X65738Y-20872D01*
X65618Y-20752D01*
X65462Y-20687D01*
X65293Y-20687D01*
X65137Y-20751D01*
X65125Y-20763D01*
X63716Y-20763D01*
X63716Y-20642D01*
X63652Y-20486D01*
X63532Y-20366D01*
X63376Y-20301D01*
X63359Y-20301D01*
X62766Y-19707D01*
X62653Y-19632D01*
X62519Y-19605D01*
X52952Y-19605D01*
X52941Y-19594D01*
X52785Y-19529D01*
X52616Y-19529D01*
X52460Y-19593D01*
X52340Y-19713D01*
X52275Y-19869D01*
X52275Y-20038D01*
X52339Y-20194D01*
X52459Y-20314D01*
X52615Y-20379D01*
X52784Y-20379D01*
X52940Y-20315D01*
X52952Y-20303D01*
X62374Y-20303D01*
X62675Y-20604D01*
X53829Y-20604D01*
X53818Y-20593D01*
X53662Y-20528D01*
X53493Y-20528D01*
X53337Y-20592D01*
X53217Y-20712D01*
X53165Y-20834D01*
X52972Y-20641D01*
X52859Y-20566D01*
X52725Y-20539D01*
X47144Y-20539D01*
X47010Y-20566D01*
X46897Y-20641D01*
X46895Y-20643D01*
X45831Y-21707D01*
X45756Y-21820D01*
X45729Y-21954D01*
X45729Y-24029D01*
X45756Y-24163D01*
X45792Y-24217D01*
X45792Y-24252D01*
X45856Y-24408D01*
X45976Y-24528D01*
X46110Y-24584D01*
X46105Y-24590D01*
X46040Y-24746D01*
X46040Y-24915D01*
X46104Y-25071D01*
X46224Y-25191D01*
X46380Y-25256D01*
X46549Y-25256D01*
X46705Y-25192D01*
X46825Y-25072D01*
X46890Y-24916D01*
X46890Y-24875D01*
X46890Y-24874D01*
X46916Y-24836D01*
X46916Y-24835D01*
X46943Y-24702D01*
X46943Y-24011D01*
X46916Y-23878D01*
X46916Y-23877D01*
X46841Y-23764D01*
X46838Y-23762D01*
X46729Y-23652D01*
X46729Y-22729D01*
X47112Y-22346D01*
X47191Y-22378D01*
X47191Y-22379D01*
X47116Y-22492D01*
X47089Y-22626D01*
X47089Y-25779D01*
X47116Y-25913D01*
X47191Y-26026D01*
X48729Y-27564D01*
X45243Y-27564D01*
X45243Y-22641D01*
X45243Y-22243D01*
X45091Y-21875D01*
X44810Y-21594D01*
X44443Y-21441D01*
X44045Y-21441D01*
X43677Y-21593D01*
X43396Y-21874D01*
X43243Y-22241D01*
X43243Y-22639D01*
X43395Y-23007D01*
X43676Y-23288D01*
X44043Y-23441D01*
X44441Y-23441D01*
X44809Y-23289D01*
X45090Y-23008D01*
X45243Y-22641D01*
X45243Y-27564D01*
X43574Y-27564D01*
X43433Y-27592D01*
X43313Y-27672D01*
X42140Y-28845D01*
X42140Y-26396D01*
X42140Y-26165D01*
X42140Y-23736D01*
X42140Y-23505D01*
X42052Y-23292D01*
X41889Y-23129D01*
X41676Y-23040D01*
X41445Y-23040D01*
X41232Y-23128D01*
X41069Y-23291D01*
X40980Y-23504D01*
X40980Y-23735D01*
X41068Y-23948D01*
X41231Y-24111D01*
X41444Y-24200D01*
X41675Y-24200D01*
X41888Y-24112D01*
X42051Y-23949D01*
X42140Y-23736D01*
X42140Y-26165D01*
X42052Y-25952D01*
X41889Y-25789D01*
X41676Y-25700D01*
X41445Y-25700D01*
X41232Y-25788D01*
X41069Y-25951D01*
X40980Y-26164D01*
X40980Y-26395D01*
X41068Y-26608D01*
X41231Y-26771D01*
X41444Y-26860D01*
X41675Y-26860D01*
X41888Y-26772D01*
X42051Y-26609D01*
X42140Y-26396D01*
X42140Y-28845D01*
X42134Y-28851D01*
X42052Y-28652D01*
X41889Y-28489D01*
X41676Y-28400D01*
X41445Y-28400D01*
X41232Y-28488D01*
X41069Y-28651D01*
X40980Y-28864D01*
X40980Y-29095D01*
X41068Y-29308D01*
X41231Y-29471D01*
X41430Y-29554D01*
X39573Y-31413D01*
X39493Y-31532D01*
X39465Y-31673D01*
X39465Y-34975D01*
X39296Y-34975D01*
X39140Y-35039D01*
X39108Y-35071D01*
X36936Y-35071D01*
X36789Y-34923D01*
X36789Y-33396D01*
X36976Y-33209D01*
X38108Y-33209D01*
X38139Y-33240D01*
X38295Y-33305D01*
X38464Y-33305D01*
X38620Y-33241D01*
X38740Y-33121D01*
X38805Y-32965D01*
X38805Y-32796D01*
X38741Y-32640D01*
X38621Y-32520D01*
X38465Y-32455D01*
X38296Y-32455D01*
X38140Y-32519D01*
X38108Y-32551D01*
X36840Y-32551D01*
X36714Y-32576D01*
X36607Y-32647D01*
X36605Y-32649D01*
X36227Y-33027D01*
X36156Y-33134D01*
X36130Y-33260D01*
X36131Y-33264D01*
X36131Y-35055D01*
X36130Y-35060D01*
X36156Y-35186D01*
X36227Y-35293D01*
X36565Y-35630D01*
X36567Y-35633D01*
X36674Y-35704D01*
X36778Y-35724D01*
X36799Y-35729D01*
X36799Y-35728D01*
X36800Y-35729D01*
X39108Y-35729D01*
X39139Y-35760D01*
X39295Y-35825D01*
X39464Y-35825D01*
X39465Y-35824D01*
X39465Y-43840D01*
X38804Y-44501D01*
X38666Y-44501D01*
X38464Y-44585D01*
X38310Y-44739D01*
X38226Y-44941D01*
X38226Y-45159D01*
X38310Y-45361D01*
X38464Y-45515D01*
X38666Y-45599D01*
X38884Y-45599D01*
X39086Y-45515D01*
X39240Y-45361D01*
X39324Y-45159D01*
X39324Y-45021D01*
X40093Y-44252D01*
X40173Y-44133D01*
X40201Y-43992D01*
X40201Y-43209D01*
X40704Y-43209D01*
X40796Y-43171D01*
X40866Y-43101D01*
X40904Y-43010D01*
X40904Y-42985D01*
X41044Y-43125D01*
X41246Y-43209D01*
X41464Y-43209D01*
X41666Y-43125D01*
X41820Y-42971D01*
X41904Y-42769D01*
X41904Y-42551D01*
X41820Y-42349D01*
X41666Y-42195D01*
X41464Y-42111D01*
X41246Y-42111D01*
X41044Y-42195D01*
X40904Y-42335D01*
X40904Y-42311D01*
X40866Y-42219D01*
X40796Y-42149D01*
X40705Y-42111D01*
X40606Y-42111D01*
X40201Y-42111D01*
X40201Y-40574D01*
X40275Y-40605D01*
X40444Y-40605D01*
X40600Y-40541D01*
X40620Y-40520D01*
X40775Y-40585D01*
X40944Y-40585D01*
X41100Y-40521D01*
X41220Y-40401D01*
X41285Y-40245D01*
X41285Y-40076D01*
X41221Y-39920D01*
X41150Y-39849D01*
X41150Y-38576D01*
X41259Y-38685D01*
X41415Y-38750D01*
X41435Y-38750D01*
X41435Y-39714D01*
X41365Y-39784D01*
X41300Y-39940D01*
X41300Y-40109D01*
X41364Y-40265D01*
X41484Y-40385D01*
X41640Y-40450D01*
X41809Y-40450D01*
X41965Y-40386D01*
X42085Y-40266D01*
X42086Y-40262D01*
X42139Y-40390D01*
X42259Y-40510D01*
X42415Y-40575D01*
X42584Y-40575D01*
X42740Y-40511D01*
X42860Y-40391D01*
X42925Y-40235D01*
X42925Y-40066D01*
X42861Y-39910D01*
X42741Y-39790D01*
X42585Y-39725D01*
X42485Y-39725D01*
X42390Y-39629D01*
X42390Y-39225D01*
X42591Y-39309D01*
X42809Y-39309D01*
X43011Y-39225D01*
X43165Y-39071D01*
X43200Y-38986D01*
X43235Y-39071D01*
X43389Y-39225D01*
X43591Y-39309D01*
X43809Y-39309D01*
X44011Y-39225D01*
X44151Y-39085D01*
X44151Y-39109D01*
X44189Y-39201D01*
X44259Y-39271D01*
X44350Y-39309D01*
X44449Y-39309D01*
X44876Y-39309D01*
X44876Y-42028D01*
X44902Y-42160D01*
X44844Y-42219D01*
X44806Y-42310D01*
X44806Y-42335D01*
X44666Y-42195D01*
X44464Y-42111D01*
X44246Y-42111D01*
X44044Y-42195D01*
X43890Y-42349D01*
X43855Y-42433D01*
X43820Y-42349D01*
X43666Y-42195D01*
X43464Y-42111D01*
X43246Y-42111D01*
X43044Y-42195D01*
X42890Y-42349D01*
X42806Y-42551D01*
X42806Y-42769D01*
X42890Y-42971D01*
X43044Y-43125D01*
X43246Y-43209D01*
X43464Y-43209D01*
X43666Y-43125D01*
X43820Y-42971D01*
X43855Y-42886D01*
X43890Y-42971D01*
X44044Y-43125D01*
X44246Y-43209D01*
X44464Y-43209D01*
X44666Y-43125D01*
X44806Y-42985D01*
X44806Y-43009D01*
X44844Y-43101D01*
X44914Y-43171D01*
X45005Y-43209D01*
X45104Y-43209D01*
X45704Y-43209D01*
X45796Y-43171D01*
X45866Y-43101D01*
X45904Y-43010D01*
X45904Y-42985D01*
X46044Y-43125D01*
X46246Y-43209D01*
X46464Y-43209D01*
X46666Y-43125D01*
X46820Y-42971D01*
X46855Y-42886D01*
X46890Y-42971D01*
X47044Y-43125D01*
X47246Y-43209D01*
X47464Y-43209D01*
X47666Y-43125D01*
X47820Y-42971D01*
X47904Y-42769D01*
X47904Y-42551D01*
X47820Y-42349D01*
X47666Y-42195D01*
X47464Y-42111D01*
X47246Y-42111D01*
X47044Y-42195D01*
X46890Y-42349D01*
X46855Y-42433D01*
X46820Y-42349D01*
X46666Y-42195D01*
X46464Y-42111D01*
X46246Y-42111D01*
X46044Y-42195D01*
X45904Y-42335D01*
X45904Y-42311D01*
X45866Y-42219D01*
X45796Y-42149D01*
X45705Y-42111D01*
X45694Y-42111D01*
X45677Y-42024D01*
X45602Y-41911D01*
X45599Y-41909D01*
X45574Y-41883D01*
X45574Y-35712D01*
X46181Y-35105D01*
X46244Y-35105D01*
X46400Y-35041D01*
X46520Y-34921D01*
X46585Y-34765D01*
X46585Y-34596D01*
X46521Y-34440D01*
X46509Y-34428D01*
X46509Y-32209D01*
X47469Y-31249D01*
X48073Y-31249D01*
X48084Y-31260D01*
X48240Y-31325D01*
X48409Y-31325D01*
X48565Y-31261D01*
X48685Y-31141D01*
X48750Y-30985D01*
X48750Y-30816D01*
X48686Y-30660D01*
X48566Y-30540D01*
X48410Y-30475D01*
X48241Y-30475D01*
X48085Y-30539D01*
X48073Y-30551D01*
X47325Y-30551D01*
X47191Y-30578D01*
X47078Y-30653D01*
X47076Y-30655D01*
X45913Y-31818D01*
X45838Y-31931D01*
X45811Y-32065D01*
X45811Y-34428D01*
X45800Y-34439D01*
X45756Y-34543D01*
X45080Y-35219D01*
X44700Y-35219D01*
X44566Y-35246D01*
X44453Y-35321D01*
X44378Y-35434D01*
X44359Y-35527D01*
X44284Y-35559D01*
X44247Y-35596D01*
X44153Y-35596D01*
X44116Y-35559D01*
X44025Y-35521D01*
X43926Y-35521D01*
X43552Y-35521D01*
X43552Y-35130D01*
X43525Y-34997D01*
X43525Y-34996D01*
X43450Y-34883D01*
X42663Y-34096D01*
X42722Y-34009D01*
X42722Y-34008D01*
X42749Y-33875D01*
X42749Y-29927D01*
X42760Y-29916D01*
X42825Y-29760D01*
X42825Y-29591D01*
X42761Y-29435D01*
X42676Y-29350D01*
X43726Y-28300D01*
X43894Y-28300D01*
X43855Y-28395D01*
X43855Y-28564D01*
X43919Y-28720D01*
X43980Y-28781D01*
X43980Y-29120D01*
X44003Y-29235D01*
X44068Y-29332D01*
X44415Y-29679D01*
X44415Y-29764D01*
X44479Y-29920D01*
X44599Y-30040D01*
X44755Y-30105D01*
X44924Y-30105D01*
X45080Y-30041D01*
X45141Y-29980D01*
X48975Y-29980D01*
X49277Y-30282D01*
X49278Y-30282D01*
X49375Y-30347D01*
X49490Y-30370D01*
X49958Y-30370D01*
X49969Y-30381D01*
X50060Y-30419D01*
X50159Y-30419D01*
X50659Y-30419D01*
X50751Y-30381D01*
X50762Y-30370D01*
X51226Y-30370D01*
X51435Y-30579D01*
X51435Y-30664D01*
X51457Y-30720D01*
X51180Y-30720D01*
X51065Y-30743D01*
X50968Y-30808D01*
X48228Y-33548D01*
X48228Y-32275D01*
X48228Y-32066D01*
X48148Y-31873D01*
X48001Y-31725D01*
X47808Y-31645D01*
X47599Y-31645D01*
X47406Y-31725D01*
X47258Y-31872D01*
X47178Y-32065D01*
X47178Y-32274D01*
X47258Y-32467D01*
X47405Y-32615D01*
X47598Y-32695D01*
X47807Y-32695D01*
X48000Y-32615D01*
X48148Y-32468D01*
X48228Y-32275D01*
X48228Y-33548D01*
X48148Y-33628D01*
X48083Y-33725D01*
X48069Y-33793D01*
X48001Y-33725D01*
X47808Y-33645D01*
X47599Y-33645D01*
X47406Y-33725D01*
X47258Y-33872D01*
X47178Y-34065D01*
X47178Y-34274D01*
X47258Y-34467D01*
X47405Y-34615D01*
X47598Y-34695D01*
X47807Y-34695D01*
X48000Y-34615D01*
X48060Y-34555D01*
X48060Y-36160D01*
X48083Y-36275D01*
X48095Y-36292D01*
X48095Y-36404D01*
X48159Y-36560D01*
X48279Y-36680D01*
X48435Y-36745D01*
X48604Y-36745D01*
X48760Y-36681D01*
X48780Y-36661D01*
X48799Y-36680D01*
X48955Y-36745D01*
X49124Y-36745D01*
X49280Y-36681D01*
X49310Y-36651D01*
X49339Y-36680D01*
X49495Y-36745D01*
X49664Y-36745D01*
X49820Y-36681D01*
X49890Y-36611D01*
X49959Y-36680D01*
X50115Y-36745D01*
X50284Y-36745D01*
X50440Y-36681D01*
X50560Y-36561D01*
X50625Y-36405D01*
X50625Y-36389D01*
X51628Y-37392D01*
X51725Y-37457D01*
X51740Y-37460D01*
X50140Y-37460D01*
X50025Y-37483D01*
X49928Y-37548D01*
X48988Y-38488D01*
X48923Y-38585D01*
X48900Y-38700D01*
X48900Y-39699D01*
X48840Y-39759D01*
X48775Y-39915D01*
X48775Y-40084D01*
X48839Y-40240D01*
X48959Y-40360D01*
X49115Y-40425D01*
X49260Y-40425D01*
X49299Y-40520D01*
X49419Y-40640D01*
X48744Y-40640D01*
X47892Y-39788D01*
X47795Y-39723D01*
X47680Y-39700D01*
X47301Y-39700D01*
X47201Y-39600D01*
X47045Y-39535D01*
X46876Y-39535D01*
X46720Y-39599D01*
X46600Y-39719D01*
X46535Y-39875D01*
X46535Y-40044D01*
X46599Y-40200D01*
X46719Y-40320D01*
X46875Y-40385D01*
X47044Y-40385D01*
X47200Y-40321D01*
X47221Y-40300D01*
X47556Y-40300D01*
X48408Y-41152D01*
X48505Y-41217D01*
X48620Y-41240D01*
X52035Y-41240D01*
X53040Y-42244D01*
X53040Y-44875D01*
X52956Y-44875D01*
X52800Y-44939D01*
X52680Y-45059D01*
X52615Y-45215D01*
X52615Y-45384D01*
X52679Y-45540D01*
X52799Y-45660D01*
X52955Y-45725D01*
X52992Y-45725D01*
X52955Y-45815D01*
X52955Y-45984D01*
X53019Y-46140D01*
X53139Y-46260D01*
X53165Y-46270D01*
X53129Y-46306D01*
X53005Y-46255D01*
X52836Y-46255D01*
X52680Y-46319D01*
X52560Y-46439D01*
X52495Y-46595D01*
X52495Y-46764D01*
X52559Y-46920D01*
X52679Y-47040D01*
X52775Y-47080D01*
X52233Y-47622D01*
X52238Y-47598D01*
X52238Y-45079D01*
X52212Y-44946D01*
X52212Y-44945D01*
X52136Y-44833D01*
X51904Y-44601D01*
X51904Y-42769D01*
X51904Y-42551D01*
X51820Y-42349D01*
X51666Y-42195D01*
X51464Y-42111D01*
X51246Y-42111D01*
X51044Y-42195D01*
X50890Y-42349D01*
X50806Y-42551D01*
X50806Y-42769D01*
X50890Y-42971D01*
X51044Y-43125D01*
X51246Y-43209D01*
X51464Y-43209D01*
X51666Y-43125D01*
X51820Y-42971D01*
X51904Y-42769D01*
X51904Y-44601D01*
X51585Y-44282D01*
X51473Y-44206D01*
X51339Y-44180D01*
X50725Y-44180D01*
X50713Y-44168D01*
X50557Y-44103D01*
X50388Y-44103D01*
X50232Y-44167D01*
X50112Y-44287D01*
X50047Y-44443D01*
X50047Y-44612D01*
X50111Y-44768D01*
X50231Y-44888D01*
X50387Y-44953D01*
X50556Y-44953D01*
X50712Y-44889D01*
X50725Y-44876D01*
X51195Y-44876D01*
X51542Y-45223D01*
X51542Y-47454D01*
X51250Y-47746D01*
X51174Y-47858D01*
X51148Y-47992D01*
X51148Y-49344D01*
X50997Y-49495D01*
X50393Y-49495D01*
X50260Y-49521D01*
X50147Y-49597D01*
X50146Y-49597D01*
X50146Y-49598D01*
X49923Y-49821D01*
X49904Y-49821D01*
X49904Y-42769D01*
X49904Y-42551D01*
X49820Y-42349D01*
X49666Y-42195D01*
X49464Y-42111D01*
X49246Y-42111D01*
X49044Y-42195D01*
X48890Y-42349D01*
X48806Y-42551D01*
X48806Y-42769D01*
X48890Y-42971D01*
X49044Y-43125D01*
X49246Y-43209D01*
X49464Y-43209D01*
X49666Y-43125D01*
X49820Y-42971D01*
X49904Y-42769D01*
X49904Y-49821D01*
X49730Y-49821D01*
X49596Y-49848D01*
X49483Y-49923D01*
X49481Y-49925D01*
X49216Y-50190D01*
X49141Y-50303D01*
X49114Y-50437D01*
X49114Y-54063D01*
X49141Y-54197D01*
X49216Y-54310D01*
X50835Y-55929D01*
X50835Y-55944D01*
X50899Y-56100D01*
X51019Y-56220D01*
X51175Y-56285D01*
X51344Y-56285D01*
X51500Y-56221D01*
X51620Y-56101D01*
X51685Y-55945D01*
X51685Y-55939D01*
X53277Y-54347D01*
X58319Y-54347D01*
X60166Y-54347D01*
X60299Y-54320D01*
X60300Y-54320D01*
X60413Y-54245D01*
X60738Y-53919D01*
X60754Y-53919D01*
X60910Y-53855D01*
X61030Y-53735D01*
X61095Y-53579D01*
X61095Y-53410D01*
X61031Y-53254D01*
X60911Y-53134D01*
X60755Y-53069D01*
X60586Y-53069D01*
X60430Y-53133D01*
X60310Y-53253D01*
X60245Y-53409D01*
X60245Y-53425D01*
X60021Y-53649D01*
X59552Y-53649D01*
X59660Y-53541D01*
X59725Y-53385D01*
X59725Y-53299D01*
X59959Y-53065D01*
X60044Y-53065D01*
X60200Y-53001D01*
X60320Y-52881D01*
X60385Y-52725D01*
X60385Y-52556D01*
X60321Y-52400D01*
X60201Y-52280D01*
X60045Y-52215D01*
X59876Y-52215D01*
X59720Y-52279D01*
X59600Y-52399D01*
X59535Y-52555D01*
X59535Y-52641D01*
X59301Y-52875D01*
X59216Y-52875D01*
X59060Y-52939D01*
X58940Y-53059D01*
X58875Y-53215D01*
X58875Y-53384D01*
X58939Y-53540D01*
X59048Y-53649D01*
X58668Y-53649D01*
X58668Y-48340D01*
X61811Y-48340D01*
X61811Y-51230D01*
X61810Y-51231D01*
X61745Y-51387D01*
X61745Y-51556D01*
X61809Y-51712D01*
X61929Y-51832D01*
X62085Y-51897D01*
X62254Y-51897D01*
X62406Y-51834D01*
X62429Y-51857D01*
X62585Y-51922D01*
X62754Y-51922D01*
X62910Y-51858D01*
X63030Y-51738D01*
X63095Y-51582D01*
X63095Y-51413D01*
X63031Y-51257D01*
X62960Y-51186D01*
X62960Y-46137D01*
X62938Y-46026D01*
X62875Y-45932D01*
X62660Y-45717D01*
X62660Y-45618D01*
X62596Y-45462D01*
X62476Y-45342D01*
X62320Y-45277D01*
X62151Y-45277D01*
X61995Y-45341D01*
X61875Y-45461D01*
X61810Y-45617D01*
X61810Y-45786D01*
X61874Y-45942D01*
X61956Y-46024D01*
X61920Y-46039D01*
X61800Y-46159D01*
X61735Y-46315D01*
X61735Y-46484D01*
X61799Y-46640D01*
X61811Y-46652D01*
X61811Y-47642D01*
X59779Y-47642D01*
X59800Y-47621D01*
X59865Y-47465D01*
X59865Y-47296D01*
X59862Y-47289D01*
X59995Y-47345D01*
X60164Y-47345D01*
X60320Y-47281D01*
X60340Y-47261D01*
X60359Y-47280D01*
X60515Y-47345D01*
X60684Y-47345D01*
X60840Y-47281D01*
X60960Y-47161D01*
X61025Y-47005D01*
X61025Y-46836D01*
X60961Y-46680D01*
X60890Y-46609D01*
X60890Y-44620D01*
X61465Y-44045D01*
X61564Y-44045D01*
X61705Y-43986D01*
X61779Y-44060D01*
X61935Y-44125D01*
X62104Y-44125D01*
X62260Y-44061D01*
X62380Y-43941D01*
X62424Y-43835D01*
X62424Y-44166D01*
X62446Y-44277D01*
X62509Y-44371D01*
X63755Y-45617D01*
X63755Y-46742D01*
X63685Y-46812D01*
X63620Y-46968D01*
X63620Y-47137D01*
X63684Y-47293D01*
X63804Y-47413D01*
X63960Y-47478D01*
X64129Y-47478D01*
X64285Y-47414D01*
X64405Y-47294D01*
X64470Y-47138D01*
X64470Y-46969D01*
X64406Y-46813D01*
X64335Y-46742D01*
X64335Y-45497D01*
X64313Y-45386D01*
X64250Y-45292D01*
X64158Y-45200D01*
X64250Y-45108D01*
X64260Y-45084D01*
X65456Y-45084D01*
X65446Y-45109D01*
X65446Y-45278D01*
X65510Y-45434D01*
X65581Y-45505D01*
X65581Y-46327D01*
X65216Y-46692D01*
X65117Y-46692D01*
X64961Y-46756D01*
X64841Y-46876D01*
X64776Y-47032D01*
X64776Y-47201D01*
X64840Y-47357D01*
X64960Y-47477D01*
X65116Y-47542D01*
X65285Y-47542D01*
X65441Y-47478D01*
X65561Y-47358D01*
X65626Y-47202D01*
X65626Y-47102D01*
X66003Y-46724D01*
X66039Y-46760D01*
X66195Y-46825D01*
X66364Y-46825D01*
X66520Y-46761D01*
X66640Y-46641D01*
X66705Y-46485D01*
X66705Y-46469D01*
X67728Y-45446D01*
X67728Y-46084D01*
X63536Y-50276D01*
X63461Y-50389D01*
X63434Y-50523D01*
X63434Y-59582D01*
X63318Y-59698D01*
X63238Y-59890D01*
X63158Y-59698D01*
X63004Y-59544D01*
X62802Y-59460D01*
X62692Y-59460D01*
X62692Y-58998D01*
X62692Y-58780D01*
X62608Y-58578D01*
X62454Y-58424D01*
X62252Y-58340D01*
X62034Y-58340D01*
X61832Y-58424D01*
X61678Y-58578D01*
X61594Y-58780D01*
X61594Y-58998D01*
X61678Y-59200D01*
X61832Y-59354D01*
X62034Y-59438D01*
X62252Y-59438D01*
X62454Y-59354D01*
X62608Y-59200D01*
X62692Y-58998D01*
X62692Y-59460D01*
X62584Y-59460D01*
X62382Y-59544D01*
X62228Y-59698D01*
X62144Y-59900D01*
X62144Y-60118D01*
X62228Y-60320D01*
X62382Y-60474D01*
X62584Y-60558D01*
X62802Y-60558D01*
X63004Y-60474D01*
X63158Y-60320D01*
X63238Y-60127D01*
X63318Y-60320D01*
X63472Y-60474D01*
X63674Y-60558D01*
X63892Y-60558D01*
X64094Y-60474D01*
X64248Y-60320D01*
X64332Y-60118D01*
X64332Y-59900D01*
X64248Y-59698D01*
X64132Y-59582D01*
X64132Y-59403D01*
X64214Y-59438D01*
X64432Y-59438D01*
X64634Y-59354D01*
X64788Y-59200D01*
X64868Y-59007D01*
X64948Y-59200D01*
X65102Y-59354D01*
X65304Y-59438D01*
X65522Y-59438D01*
X65724Y-59354D01*
X65878Y-59200D01*
X65954Y-59017D01*
X65954Y-59238D01*
X65992Y-59330D01*
X66062Y-59400D01*
X66153Y-59438D01*
X66252Y-59438D01*
X66852Y-59438D01*
X66944Y-59400D01*
X67014Y-59330D01*
X67052Y-59239D01*
X67052Y-59140D01*
X67052Y-58540D01*
X67014Y-58448D01*
X66975Y-58409D01*
X68926Y-56458D01*
X69001Y-56345D01*
X69001Y-56344D01*
X69002Y-56340D01*
X69002Y-56896D01*
X67535Y-58363D01*
X67455Y-58482D01*
X67427Y-58623D01*
X67427Y-59375D01*
X66028Y-60774D01*
X61062Y-60774D01*
X61062Y-60118D01*
X61062Y-59900D01*
X60978Y-59698D01*
X60824Y-59544D01*
X60622Y-59460D01*
X60512Y-59460D01*
X60512Y-58998D01*
X60512Y-58780D01*
X60428Y-58578D01*
X60274Y-58424D01*
X60072Y-58340D01*
X59854Y-58340D01*
X59652Y-58424D01*
X59498Y-58578D01*
X59418Y-58770D01*
X59338Y-58578D01*
X59184Y-58424D01*
X58982Y-58340D01*
X58764Y-58340D01*
X58562Y-58424D01*
X58408Y-58578D01*
X58324Y-58780D01*
X58324Y-58998D01*
X58408Y-59200D01*
X58562Y-59354D01*
X58764Y-59438D01*
X58982Y-59438D01*
X59184Y-59354D01*
X59338Y-59200D01*
X59418Y-59007D01*
X59498Y-59200D01*
X59652Y-59354D01*
X59854Y-59438D01*
X60072Y-59438D01*
X60274Y-59354D01*
X60428Y-59200D01*
X60512Y-58998D01*
X60512Y-59460D01*
X60404Y-59460D01*
X60202Y-59544D01*
X60048Y-59698D01*
X59964Y-59900D01*
X59964Y-60118D01*
X60048Y-60320D01*
X60202Y-60474D01*
X60404Y-60558D01*
X60622Y-60558D01*
X60824Y-60474D01*
X60978Y-60320D01*
X61062Y-60118D01*
X61062Y-60774D01*
X58882Y-60774D01*
X58882Y-60118D01*
X58882Y-59900D01*
X58798Y-59698D01*
X58644Y-59544D01*
X58442Y-59460D01*
X58224Y-59460D01*
X58022Y-59544D01*
X57868Y-59698D01*
X57788Y-59890D01*
X57708Y-59698D01*
X57554Y-59544D01*
X57352Y-59460D01*
X57242Y-59460D01*
X57242Y-58998D01*
X57242Y-58780D01*
X57158Y-58578D01*
X57004Y-58424D01*
X56802Y-58340D01*
X56584Y-58340D01*
X56382Y-58424D01*
X56228Y-58578D01*
X56148Y-58770D01*
X56068Y-58578D01*
X55914Y-58424D01*
X55712Y-58340D01*
X55494Y-58340D01*
X55292Y-58424D01*
X55138Y-58578D01*
X55054Y-58780D01*
X55054Y-58998D01*
X55138Y-59200D01*
X55292Y-59354D01*
X55494Y-59438D01*
X55712Y-59438D01*
X55914Y-59354D01*
X56068Y-59200D01*
X56148Y-59007D01*
X56228Y-59200D01*
X56382Y-59354D01*
X56584Y-59438D01*
X56802Y-59438D01*
X57004Y-59354D01*
X57158Y-59200D01*
X57242Y-58998D01*
X57242Y-59460D01*
X57134Y-59460D01*
X56932Y-59544D01*
X56778Y-59698D01*
X56694Y-59900D01*
X56694Y-60118D01*
X56778Y-60320D01*
X56932Y-60474D01*
X57134Y-60558D01*
X57352Y-60558D01*
X57554Y-60474D01*
X57708Y-60320D01*
X57788Y-60127D01*
X57868Y-60320D01*
X58022Y-60474D01*
X58224Y-60558D01*
X58442Y-60558D01*
X58644Y-60474D01*
X58798Y-60320D01*
X58882Y-60118D01*
X58882Y-60774D01*
X55612Y-60774D01*
X55612Y-60118D01*
X55612Y-59900D01*
X55528Y-59698D01*
X55374Y-59544D01*
X55172Y-59460D01*
X54954Y-59460D01*
X54752Y-59544D01*
X54598Y-59698D01*
X54518Y-59890D01*
X54438Y-59698D01*
X54284Y-59544D01*
X54082Y-59460D01*
X53972Y-59460D01*
X53972Y-58998D01*
X53972Y-58780D01*
X53888Y-58578D01*
X53734Y-58424D01*
X53532Y-58340D01*
X53314Y-58340D01*
X53112Y-58424D01*
X52958Y-58578D01*
X52878Y-58770D01*
X52798Y-58578D01*
X52644Y-58424D01*
X52442Y-58340D01*
X52224Y-58340D01*
X52022Y-58424D01*
X51868Y-58578D01*
X51784Y-58780D01*
X51784Y-58998D01*
X51868Y-59200D01*
X52022Y-59354D01*
X52224Y-59438D01*
X52442Y-59438D01*
X52644Y-59354D01*
X52798Y-59200D01*
X52878Y-59007D01*
X52958Y-59200D01*
X53112Y-59354D01*
X53314Y-59438D01*
X53532Y-59438D01*
X53734Y-59354D01*
X53888Y-59200D01*
X53972Y-58998D01*
X53972Y-59460D01*
X53864Y-59460D01*
X53662Y-59544D01*
X53508Y-59698D01*
X53424Y-59900D01*
X53424Y-60118D01*
X53508Y-60320D01*
X53662Y-60474D01*
X53864Y-60558D01*
X54082Y-60558D01*
X54284Y-60474D01*
X54438Y-60320D01*
X54518Y-60127D01*
X54598Y-60320D01*
X54752Y-60474D01*
X54954Y-60558D01*
X55172Y-60558D01*
X55374Y-60474D01*
X55528Y-60320D01*
X55612Y-60118D01*
X55612Y-60774D01*
X47593Y-60774D01*
X47377Y-60558D01*
X47542Y-60558D01*
X47744Y-60474D01*
X47898Y-60320D01*
X47978Y-60127D01*
X48058Y-60320D01*
X48212Y-60474D01*
X48414Y-60558D01*
X48632Y-60558D01*
X48834Y-60474D01*
X48988Y-60320D01*
X49068Y-60127D01*
X49148Y-60320D01*
X49302Y-60474D01*
X49504Y-60558D01*
X49722Y-60558D01*
X49924Y-60474D01*
X50078Y-60320D01*
X50158Y-60127D01*
X50238Y-60320D01*
X50392Y-60474D01*
X50594Y-60558D01*
X50812Y-60558D01*
X51014Y-60474D01*
X51168Y-60320D01*
X51248Y-60127D01*
X51328Y-60320D01*
X51482Y-60474D01*
X51684Y-60558D01*
X51902Y-60558D01*
X52104Y-60474D01*
X52258Y-60320D01*
X52342Y-60118D01*
X52342Y-59900D01*
X52258Y-59698D01*
X52104Y-59544D01*
X51902Y-59460D01*
X51684Y-59460D01*
X51482Y-59544D01*
X51328Y-59698D01*
X51248Y-59890D01*
X51168Y-59698D01*
X51014Y-59544D01*
X50812Y-59460D01*
X50702Y-59460D01*
X50702Y-58998D01*
X50702Y-58780D01*
X50618Y-58578D01*
X50464Y-58424D01*
X50262Y-58340D01*
X50044Y-58340D01*
X49842Y-58424D01*
X49688Y-58578D01*
X49608Y-58770D01*
X49528Y-58578D01*
X49374Y-58424D01*
X49172Y-58340D01*
X48954Y-58340D01*
X48752Y-58424D01*
X48598Y-58578D01*
X48518Y-58770D01*
X48438Y-58578D01*
X48284Y-58424D01*
X48082Y-58340D01*
X47864Y-58340D01*
X47662Y-58424D01*
X47508Y-58578D01*
X47428Y-58770D01*
X47348Y-58578D01*
X47194Y-58424D01*
X46992Y-58340D01*
X46774Y-58340D01*
X46572Y-58424D01*
X46418Y-58578D01*
X46334Y-58780D01*
X46334Y-58998D01*
X46418Y-59200D01*
X46572Y-59354D01*
X46774Y-59438D01*
X46992Y-59438D01*
X47194Y-59354D01*
X47348Y-59200D01*
X47428Y-59007D01*
X47508Y-59200D01*
X47662Y-59354D01*
X47864Y-59438D01*
X48082Y-59438D01*
X48284Y-59354D01*
X48438Y-59200D01*
X48518Y-59007D01*
X48598Y-59200D01*
X48752Y-59354D01*
X48954Y-59438D01*
X49172Y-59438D01*
X49374Y-59354D01*
X49528Y-59200D01*
X49608Y-59007D01*
X49688Y-59200D01*
X49842Y-59354D01*
X50044Y-59438D01*
X50262Y-59438D01*
X50464Y-59354D01*
X50618Y-59200D01*
X50702Y-58998D01*
X50702Y-59460D01*
X50594Y-59460D01*
X50392Y-59544D01*
X50238Y-59698D01*
X50158Y-59890D01*
X50078Y-59698D01*
X49924Y-59544D01*
X49722Y-59460D01*
X49504Y-59460D01*
X49302Y-59544D01*
X49148Y-59698D01*
X49068Y-59890D01*
X48988Y-59698D01*
X48834Y-59544D01*
X48632Y-59460D01*
X48414Y-59460D01*
X48212Y-59544D01*
X48058Y-59698D01*
X47978Y-59890D01*
X47898Y-59698D01*
X47744Y-59544D01*
X47542Y-59460D01*
X47324Y-59460D01*
X47122Y-59544D01*
X46968Y-59698D01*
X46884Y-59900D01*
X46884Y-60065D01*
X45880Y-59061D01*
X45880Y-54606D01*
X45875Y-54580D01*
X45875Y-51327D01*
X45906Y-51327D01*
X45998Y-51289D01*
X46068Y-51219D01*
X46106Y-51128D01*
X46106Y-51029D01*
X46106Y-50329D01*
X46068Y-50237D01*
X45998Y-50167D01*
X45907Y-50129D01*
X45808Y-50129D01*
X45108Y-50129D01*
X45016Y-50167D01*
X44946Y-50237D01*
X44921Y-50295D01*
X44875Y-50249D01*
X44875Y-48719D01*
X44847Y-48578D01*
X44767Y-48459D01*
X44541Y-48233D01*
X44541Y-46018D01*
X44758Y-45801D01*
X46943Y-45801D01*
X47080Y-45858D01*
X47249Y-45858D01*
X47405Y-45794D01*
X47525Y-45674D01*
X47590Y-45518D01*
X47590Y-45349D01*
X47526Y-45193D01*
X47406Y-45073D01*
X47250Y-45008D01*
X47081Y-45008D01*
X46942Y-45065D01*
X44730Y-45065D01*
X44961Y-44834D01*
X45005Y-44834D01*
X45161Y-44770D01*
X45281Y-44650D01*
X45346Y-44494D01*
X45346Y-44325D01*
X45282Y-44169D01*
X45162Y-44049D01*
X45006Y-43984D01*
X44837Y-43984D01*
X44681Y-44048D01*
X44561Y-44168D01*
X44496Y-44324D01*
X44496Y-44371D01*
X44174Y-44693D01*
X44129Y-44693D01*
X43973Y-44757D01*
X43853Y-44877D01*
X43788Y-45033D01*
X43788Y-45202D01*
X43852Y-45358D01*
X43972Y-45478D01*
X44020Y-45498D01*
X43913Y-45606D01*
X43833Y-45725D01*
X43805Y-45866D01*
X43805Y-48385D01*
X43833Y-48526D01*
X43913Y-48645D01*
X44139Y-48871D01*
X44139Y-50249D01*
X44007Y-50381D01*
X43846Y-50220D01*
X43626Y-50129D01*
X43388Y-50129D01*
X43168Y-50220D01*
X42999Y-50389D01*
X42908Y-50609D01*
X42908Y-50847D01*
X42999Y-51067D01*
X43168Y-51236D01*
X43388Y-51327D01*
X43626Y-51327D01*
X43846Y-51236D01*
X44007Y-51075D01*
X44168Y-51236D01*
X44388Y-51327D01*
X44626Y-51327D01*
X44846Y-51236D01*
X44921Y-51160D01*
X44946Y-51219D01*
X45016Y-51289D01*
X45107Y-51327D01*
X45139Y-51327D01*
X45139Y-54601D01*
X45144Y-54626D01*
X45144Y-59213D01*
X45172Y-59354D01*
X45252Y-59473D01*
X47181Y-61402D01*
X47300Y-61482D01*
X47441Y-61510D01*
X66181Y-61510D01*
X66322Y-61482D01*
X66441Y-61402D01*
X68055Y-59789D01*
X68055Y-59788D01*
X68135Y-59669D01*
X68143Y-59628D01*
X68143Y-59647D01*
X68295Y-60015D01*
X68576Y-60296D01*
X68943Y-60449D01*
X69341Y-60449D01*
X69709Y-60297D01*
X69990Y-60016D01*
X70143Y-59649D01*
X70143Y-59251D01*
X69991Y-58883D01*
X69710Y-58602D01*
X69343Y-58449D01*
X68945Y-58449D01*
X68577Y-58601D01*
X68296Y-58882D01*
X68163Y-59201D01*
X68163Y-58775D01*
X69630Y-57308D01*
X69710Y-57189D01*
X69737Y-57048D01*
X69738Y-57048D01*
X69738Y-55664D01*
X71800Y-53603D01*
X71800Y-53602D01*
X71880Y-53483D01*
X71907Y-53343D01*
X71908Y-53342D01*
X71908Y-51399D01*
X71939Y-51399D01*
X72031Y-51361D01*
X72101Y-51291D01*
X72139Y-51200D01*
X72139Y-51101D01*
X72139Y-50401D01*
X72101Y-50309D01*
X72031Y-50239D01*
X71987Y-50220D01*
X71987Y-49605D01*
X72811Y-48781D01*
X72811Y-48780D01*
X72812Y-48780D01*
X72908Y-48636D01*
X72909Y-48635D01*
X72942Y-48465D01*
X72943Y-48464D01*
X72943Y-47368D01*
X74720Y-47368D01*
X74861Y-47340D01*
X74980Y-47260D01*
X75340Y-46900D01*
X75420Y-46781D01*
X75448Y-46640D01*
X75448Y-43392D01*
X75677Y-43163D01*
X75710Y-43158D01*
X75775Y-43185D01*
X75944Y-43185D01*
X76100Y-43121D01*
X76220Y-43001D01*
X76285Y-42845D01*
X76285Y-42716D01*
X76380Y-42621D01*
X76445Y-42465D01*
X76445Y-42296D01*
X76381Y-42140D01*
X76379Y-42138D01*
X76376Y-42061D01*
X76425Y-41945D01*
X76425Y-41776D01*
X76361Y-41620D01*
X76241Y-41500D01*
X76085Y-41435D01*
X75916Y-41435D01*
X75796Y-41484D01*
X75772Y-41448D01*
X75760Y-41436D01*
X75760Y-41200D01*
X75737Y-41085D01*
X75672Y-40988D01*
X75372Y-40688D01*
X75275Y-40623D01*
X75240Y-40616D01*
X75240Y-40160D01*
X75217Y-40045D01*
X75152Y-39948D01*
X74844Y-39640D01*
X74844Y-37165D01*
X74844Y-37066D01*
X74844Y-36516D01*
X74806Y-36424D01*
X74736Y-36354D01*
X74645Y-36316D01*
X74546Y-36316D01*
X73996Y-36316D01*
X73904Y-36354D01*
X73834Y-36424D01*
X73796Y-36515D01*
X73796Y-36614D01*
X73796Y-37164D01*
X73834Y-37256D01*
X73904Y-37326D01*
X73995Y-37364D01*
X74094Y-37364D01*
X74644Y-37364D01*
X74736Y-37326D01*
X74806Y-37256D01*
X74844Y-37165D01*
X74844Y-39640D01*
X74799Y-39595D01*
X74799Y-39316D01*
X74771Y-39250D01*
X74799Y-39185D01*
X74799Y-39086D01*
X74799Y-38536D01*
X74771Y-38470D01*
X74799Y-38405D01*
X74799Y-38306D01*
X74799Y-37756D01*
X74761Y-37664D01*
X74691Y-37594D01*
X74600Y-37556D01*
X74501Y-37556D01*
X74151Y-37556D01*
X74059Y-37594D01*
X74000Y-37653D01*
X73941Y-37594D01*
X73850Y-37556D01*
X73751Y-37556D01*
X73401Y-37556D01*
X73310Y-37593D01*
X73220Y-37556D01*
X73121Y-37556D01*
X72771Y-37556D01*
X72679Y-37594D01*
X72609Y-37664D01*
X72571Y-37755D01*
X72571Y-37854D01*
X72571Y-38384D01*
X72561Y-38374D01*
X72470Y-38336D01*
X72371Y-38336D01*
X72021Y-38336D01*
X71929Y-38374D01*
X71859Y-38444D01*
X71821Y-38535D01*
X71821Y-38634D01*
X71821Y-39184D01*
X71848Y-39249D01*
X71821Y-39315D01*
X71821Y-39414D01*
X71821Y-39802D01*
X71601Y-39802D01*
X71625Y-39745D01*
X71625Y-39576D01*
X71561Y-39420D01*
X71500Y-39359D01*
X71500Y-38757D01*
X71522Y-38724D01*
X71549Y-38590D01*
X71522Y-38456D01*
X71500Y-38422D01*
X71500Y-37520D01*
X71477Y-37405D01*
X71412Y-37308D01*
X71140Y-37036D01*
X71140Y-36784D01*
X71384Y-36540D01*
X71780Y-36540D01*
X71895Y-36517D01*
X71992Y-36452D01*
X72532Y-35913D01*
X72532Y-35912D01*
X72597Y-35815D01*
X72619Y-35700D01*
X72620Y-35700D01*
X72620Y-34636D01*
X72647Y-34625D01*
X72801Y-34471D01*
X72885Y-34269D01*
X72885Y-34051D01*
X72846Y-33959D01*
X73793Y-33959D01*
X73755Y-34051D01*
X73755Y-34269D01*
X73839Y-34471D01*
X73993Y-34625D01*
X74195Y-34709D01*
X74413Y-34709D01*
X74615Y-34625D01*
X74769Y-34471D01*
X74853Y-34269D01*
X74853Y-34051D01*
X74814Y-33959D01*
X76303Y-33959D01*
X77070Y-34725D01*
X77070Y-34901D01*
X77051Y-34901D01*
X76451Y-34901D01*
X76359Y-34939D01*
X76289Y-35009D01*
X76251Y-35100D01*
X76251Y-35199D01*
X76251Y-35799D01*
X76289Y-35891D01*
X76359Y-35961D01*
X76450Y-35999D01*
X76475Y-35999D01*
X76335Y-36139D01*
X76251Y-36341D01*
X76251Y-36559D01*
X76335Y-36761D01*
X76489Y-36915D01*
X76691Y-36999D01*
X76909Y-36999D01*
X77070Y-36932D01*
X77070Y-37813D01*
X77098Y-37954D01*
X77134Y-38008D01*
X77111Y-37985D01*
X76909Y-37901D01*
X76691Y-37901D01*
X76489Y-37985D01*
X76335Y-38139D01*
X76251Y-38341D01*
X76251Y-38559D01*
X76335Y-38761D01*
X76489Y-38915D01*
X76573Y-38950D01*
X76489Y-38985D01*
X76335Y-39139D01*
X76251Y-39341D01*
X76251Y-39559D01*
X76335Y-39761D01*
X76489Y-39915D01*
X76691Y-39999D01*
X76909Y-39999D01*
X77111Y-39915D01*
X77265Y-39761D01*
X77349Y-39559D01*
X77349Y-39341D01*
X77265Y-39139D01*
X77111Y-38985D01*
X77026Y-38950D01*
X77111Y-38915D01*
X77265Y-38761D01*
X77349Y-38559D01*
X77349Y-38341D01*
X77280Y-38175D01*
X77526Y-38421D01*
X77526Y-38559D01*
X77610Y-38761D01*
X77764Y-38915D01*
X77848Y-38950D01*
X77764Y-38985D01*
X77610Y-39139D01*
X77526Y-39341D01*
X77526Y-39559D01*
X77610Y-39761D01*
X77764Y-39915D01*
X77966Y-39999D01*
X78184Y-39999D01*
X78386Y-39915D01*
X78415Y-39886D01*
X78415Y-43014D01*
X78386Y-42985D01*
X78184Y-42901D01*
X77966Y-42901D01*
X77764Y-42985D01*
X77610Y-43139D01*
X77526Y-43341D01*
X77526Y-43559D01*
X77610Y-43761D01*
X77764Y-43915D01*
X77848Y-43950D01*
X77764Y-43985D01*
X77610Y-44139D01*
X77526Y-44341D01*
X77526Y-44559D01*
X77610Y-44761D01*
X77764Y-44915D01*
X77848Y-44950D01*
X77764Y-44985D01*
X77610Y-45139D01*
X77526Y-45341D01*
X77526Y-45559D01*
X77610Y-45761D01*
X77764Y-45915D01*
X77848Y-45950D01*
X77764Y-45985D01*
X77610Y-46139D01*
X77526Y-46341D01*
X77526Y-46559D01*
X77610Y-46761D01*
X77764Y-46915D01*
X77966Y-46999D01*
X78184Y-46999D01*
X78386Y-46915D01*
X78415Y-46886D01*
X78415Y-51440D01*
M02*
