G75*
G70*
%OFA0B0*%
%FSLAX24Y24*%
%IPPOS*%
%LPD*%
%AMOC8*
5,1,8,0,0,1.08239X$1,22.5*
%
%ADD10C,0.0000*%
%ADD11C,0.0030*%
%ADD12C,0.0079*%
%ADD13C,0.0050*%
%ADD14C,0.0060*%
%ADD15C,0.0040*%
%ADD16C,0.0020*%
%ADD17R,0.0200X0.0200*%
%ADD18C,0.0080*%
D10*
X009371Y000463D02*
X000316Y009519D01*
X000316Y014046D01*
X010749Y014046D01*
X010749Y011847D01*
X010751Y011801D01*
X010757Y011755D01*
X010766Y011710D01*
X010779Y011666D01*
X010796Y011623D01*
X010816Y011582D01*
X010840Y011542D01*
X010866Y011505D01*
X010896Y011470D01*
X010929Y011437D01*
X010964Y011407D01*
X011001Y011381D01*
X011041Y011357D01*
X011082Y011337D01*
X011125Y011320D01*
X011169Y011307D01*
X011214Y011298D01*
X011260Y011292D01*
X011306Y011290D01*
X013111Y011290D01*
X013111Y000463D01*
X009371Y000463D01*
D11*
X009998Y003402D02*
X010119Y003402D01*
X010180Y003462D01*
X010180Y003766D01*
X010300Y003705D02*
X010360Y003766D01*
X010482Y003766D01*
X010542Y003705D01*
X010542Y003644D01*
X010300Y003402D01*
X010542Y003402D01*
X009998Y003402D02*
X009937Y003462D01*
X009937Y003766D01*
X004242Y006167D02*
X004242Y006248D01*
X004161Y006329D01*
X004079Y006329D01*
X004242Y006167D02*
X004201Y006126D01*
X003877Y006126D01*
X004039Y005964D01*
X003795Y006208D02*
X003633Y006370D01*
X003714Y006289D02*
X003958Y006532D01*
X003795Y006532D01*
X003755Y006654D02*
X003430Y006654D01*
X003430Y006573D01*
X003511Y006492D01*
X003592Y006492D01*
X003755Y006654D01*
X003755Y006735D01*
X003674Y006816D01*
X003592Y006816D01*
X003430Y006654D01*
X003308Y006695D02*
X003146Y006857D01*
X003471Y006857D01*
X003511Y006898D01*
X003511Y006979D01*
X003430Y007060D01*
X003349Y007060D01*
X002862Y007222D02*
X002821Y007263D01*
X002781Y007222D01*
X002821Y007182D01*
X002862Y007222D01*
X002821Y007182D02*
X002659Y007182D01*
X002700Y007385D02*
X002618Y007385D01*
X002537Y007466D01*
X002537Y007547D01*
X002415Y007588D02*
X002578Y007750D01*
X002578Y007912D01*
X002415Y007912D01*
X002253Y007750D01*
X002172Y007831D02*
X002172Y007993D01*
X002213Y007953D02*
X002091Y008075D01*
X002010Y007993D02*
X002253Y008237D01*
X002375Y008115D01*
X002375Y008034D01*
X002294Y007953D01*
X002213Y007953D01*
X002375Y007872D02*
X002537Y007709D01*
X002659Y007669D02*
X002659Y007588D01*
X002740Y007506D01*
X002740Y007425D01*
X002700Y007385D01*
X002862Y007547D02*
X002862Y007628D01*
X002781Y007709D01*
X002700Y007709D01*
X002659Y007669D01*
X001807Y008440D02*
X001685Y008318D01*
X001807Y008440D02*
X001807Y008521D01*
X001725Y008602D01*
X001644Y008602D01*
X001604Y008724D02*
X001482Y008846D01*
X001401Y008846D01*
X001320Y008765D01*
X001320Y008683D01*
X001441Y008562D01*
X001523Y008481D02*
X001766Y008724D01*
X001320Y008927D02*
X001279Y008886D01*
X001117Y009049D01*
X001157Y009089D02*
X001238Y009089D01*
X001320Y009008D01*
X001320Y008927D01*
X001157Y008846D02*
X001076Y008927D01*
X001076Y009008D01*
X001157Y009089D01*
X000954Y009049D02*
X001198Y009292D01*
X001036Y009292D01*
X001036Y009455D01*
X000792Y009211D01*
X000833Y009414D02*
X000751Y009414D01*
X000630Y009536D01*
X000549Y009455D02*
X000792Y009698D01*
X000914Y009576D01*
X000914Y009495D01*
X000833Y009414D01*
X000711Y009779D02*
X000630Y009860D01*
X000670Y009820D02*
X000427Y009576D01*
X000467Y009536D02*
X000386Y009617D01*
X002752Y011878D02*
X002752Y012181D01*
X002995Y012181D02*
X002995Y011878D01*
X002934Y011817D01*
X002813Y011817D01*
X002752Y011878D01*
X003115Y011817D02*
X003357Y011817D01*
X003236Y011817D02*
X003236Y012181D01*
X003115Y012060D01*
D12*
X003339Y011910D02*
X003341Y011922D01*
X003346Y011933D01*
X003355Y011942D01*
X003366Y011947D01*
X003378Y011949D01*
X003390Y011947D01*
X003401Y011942D01*
X003410Y011933D01*
X003415Y011922D01*
X003417Y011910D01*
X003415Y011898D01*
X003410Y011887D01*
X003401Y011878D01*
X003390Y011873D01*
X003378Y011871D01*
X003366Y011873D01*
X003355Y011878D01*
X003346Y011887D01*
X003341Y011898D01*
X003339Y011910D01*
X011084Y002617D02*
X011086Y002629D01*
X011091Y002640D01*
X011100Y002649D01*
X011111Y002654D01*
X011123Y002656D01*
X011135Y002654D01*
X011146Y002649D01*
X011155Y002640D01*
X011160Y002629D01*
X011162Y002617D01*
X011160Y002605D01*
X011155Y002594D01*
X011146Y002585D01*
X011135Y002580D01*
X011123Y002578D01*
X011111Y002580D01*
X011100Y002585D01*
X011091Y002594D01*
X011086Y002605D01*
X011084Y002617D01*
D13*
X010985Y002560D02*
X010985Y003308D01*
X009627Y003308D01*
X009627Y002422D01*
X010847Y002422D01*
X010985Y002560D01*
X005182Y009286D02*
X005182Y009436D01*
X005182Y009361D02*
X004732Y009361D01*
X004732Y009286D02*
X004732Y009436D01*
X004807Y009593D02*
X004732Y009668D01*
X004732Y009818D01*
X004807Y009893D01*
X004882Y010053D02*
X004732Y010203D01*
X005182Y010203D01*
X005182Y010053D02*
X005182Y010353D01*
X005107Y009893D02*
X005182Y009818D01*
X005182Y009668D01*
X005107Y009593D01*
X004807Y009593D01*
X003574Y010414D02*
X003574Y011635D01*
X003436Y011772D01*
X002688Y011772D01*
X002688Y010414D01*
X003574Y010414D01*
D14*
X004173Y008586D02*
X004393Y008586D01*
X004173Y008586D02*
X004173Y008266D01*
X005073Y008586D02*
X005293Y008586D01*
X005293Y008266D01*
X006389Y008359D02*
X006809Y008359D01*
X007209Y008359D01*
X007629Y008359D01*
X007652Y008361D01*
X007675Y008366D01*
X007697Y008375D01*
X007717Y008388D01*
X007735Y008403D01*
X007750Y008421D01*
X007763Y008441D01*
X007772Y008463D01*
X007777Y008486D01*
X007779Y008509D01*
X007209Y008359D02*
X007207Y008386D01*
X007202Y008413D01*
X007192Y008439D01*
X007180Y008463D01*
X007164Y008485D01*
X007146Y008505D01*
X007124Y008522D01*
X007101Y008537D01*
X007076Y008547D01*
X007050Y008555D01*
X007023Y008559D01*
X006995Y008559D01*
X006968Y008555D01*
X006942Y008547D01*
X006917Y008537D01*
X006894Y008522D01*
X006872Y008505D01*
X006854Y008485D01*
X006838Y008463D01*
X006826Y008439D01*
X006816Y008413D01*
X006811Y008386D01*
X006809Y008359D01*
X006389Y008359D02*
X006366Y008361D01*
X006343Y008366D01*
X006321Y008375D01*
X006301Y008388D01*
X006283Y008403D01*
X006268Y008421D01*
X006255Y008441D01*
X006246Y008463D01*
X006241Y008486D01*
X006239Y008509D01*
X006239Y011709D02*
X006241Y011732D01*
X006246Y011755D01*
X006255Y011777D01*
X006268Y011797D01*
X006283Y011815D01*
X006301Y011830D01*
X006321Y011843D01*
X006343Y011852D01*
X006366Y011857D01*
X006389Y011859D01*
X007629Y011859D01*
X007652Y011857D01*
X007675Y011852D01*
X007697Y011843D01*
X007717Y011830D01*
X007735Y011815D01*
X007750Y011797D01*
X007763Y011777D01*
X007772Y011755D01*
X007777Y011732D01*
X007779Y011709D01*
X009737Y012115D02*
X000737Y012115D01*
X000737Y012365D01*
X000737Y013365D01*
X009737Y013365D01*
X009737Y012365D01*
X009737Y012115D01*
X009737Y012365D02*
X000737Y012365D01*
X009997Y009094D02*
X009997Y008874D01*
X009997Y009094D02*
X010317Y009094D01*
X009997Y008194D02*
X009997Y007974D01*
X010317Y007974D01*
X011180Y009688D02*
X011430Y009688D01*
X012430Y009688D01*
X012430Y000688D01*
X011430Y000688D01*
X011180Y000688D01*
X011180Y009688D01*
X011430Y009688D02*
X011430Y000688D01*
D15*
X005351Y005117D02*
X005351Y005578D01*
X005582Y005578D01*
X005658Y005501D01*
X005658Y005347D01*
X005582Y005271D01*
X005351Y005271D01*
X005505Y005271D02*
X005658Y005117D01*
X005812Y005194D02*
X005889Y005117D01*
X006042Y005117D01*
X006119Y005194D01*
X006119Y005347D01*
X006042Y005424D01*
X005965Y005424D01*
X005812Y005347D01*
X005812Y005578D01*
X006119Y005578D01*
X005135Y006375D02*
X005058Y006298D01*
X004904Y006298D01*
X004828Y006375D01*
X004828Y006452D01*
X004904Y006529D01*
X005058Y006529D01*
X005135Y006452D01*
X005135Y006375D01*
X005058Y006529D02*
X005135Y006605D01*
X005135Y006682D01*
X005058Y006759D01*
X004904Y006759D01*
X004828Y006682D01*
X004828Y006605D01*
X004904Y006529D01*
X004674Y006529D02*
X004674Y006682D01*
X004597Y006759D01*
X004367Y006759D01*
X004367Y006298D01*
X004367Y006452D02*
X004597Y006452D01*
X004674Y006529D01*
X004521Y006452D02*
X004674Y006298D01*
X003983Y007619D02*
X003676Y007619D01*
X003983Y007926D01*
X003983Y008003D01*
X003906Y008080D01*
X003753Y008080D01*
X003676Y008003D01*
X003523Y008003D02*
X003446Y008080D01*
X003216Y008080D01*
X003216Y007619D01*
X003446Y007619D01*
X003523Y007696D01*
X003523Y008003D01*
X003479Y008119D02*
X003479Y008580D01*
X003249Y008349D01*
X003556Y008349D01*
X003095Y008196D02*
X003019Y008119D01*
X002865Y008119D01*
X002789Y008196D01*
X002789Y008503D01*
X002865Y008580D01*
X003019Y008580D01*
X003095Y008503D01*
X004158Y009338D02*
X004158Y009568D01*
X004235Y009645D01*
X004388Y009645D01*
X004465Y009568D01*
X004465Y009338D01*
X004465Y009491D02*
X004619Y009645D01*
X004542Y009798D02*
X004619Y009875D01*
X004619Y010028D01*
X004542Y010105D01*
X004465Y010105D01*
X004388Y010028D01*
X004388Y009952D01*
X004388Y010028D02*
X004312Y010105D01*
X004235Y010105D01*
X004158Y010028D01*
X004158Y009875D01*
X004235Y009798D01*
X004158Y009338D02*
X004619Y009338D01*
X005523Y008284D02*
X005446Y008208D01*
X005446Y007901D01*
X005523Y007824D01*
X005676Y007824D01*
X005753Y007901D01*
X005906Y007901D02*
X005983Y007824D01*
X006137Y007824D01*
X006213Y007901D01*
X006213Y008208D01*
X006137Y008284D01*
X005983Y008284D01*
X005906Y008208D01*
X005906Y008131D01*
X005983Y008054D01*
X006213Y008054D01*
X005753Y008208D02*
X005676Y008284D01*
X005523Y008284D01*
X005152Y011761D02*
X004999Y011761D01*
X004922Y011838D01*
X004922Y011914D01*
X004999Y011991D01*
X005152Y011991D01*
X005229Y011914D01*
X005229Y011838D01*
X005152Y011761D01*
X005152Y011991D02*
X005229Y012068D01*
X005229Y012145D01*
X005152Y012221D01*
X004999Y012221D01*
X004922Y012145D01*
X004922Y012068D01*
X004999Y011991D01*
X004769Y011838D02*
X004692Y011761D01*
X004538Y011761D01*
X004462Y011838D01*
X004462Y012145D01*
X004538Y012221D01*
X004692Y012221D01*
X004769Y012145D01*
X004343Y012221D02*
X004190Y012145D01*
X004036Y011991D01*
X004266Y011991D01*
X004343Y011914D01*
X004343Y011838D01*
X004266Y011761D01*
X004113Y011761D01*
X004036Y011838D01*
X004036Y011991D01*
X003883Y011838D02*
X003806Y011761D01*
X003653Y011761D01*
X003576Y011838D01*
X003576Y012145D01*
X003653Y012221D01*
X003806Y012221D01*
X003883Y012145D01*
X005408Y013552D02*
X005485Y013475D01*
X005562Y013475D01*
X005638Y013552D01*
X005638Y013935D01*
X005562Y013935D02*
X005715Y013935D01*
X005869Y013782D02*
X006022Y013935D01*
X006022Y013475D01*
X005869Y013475D02*
X006175Y013475D01*
X009428Y009617D02*
X009658Y009617D01*
X009735Y009540D01*
X009735Y009233D01*
X009658Y009157D01*
X009428Y009157D01*
X009428Y009617D01*
X009889Y009464D02*
X010042Y009617D01*
X010042Y009157D01*
X009889Y009157D02*
X010196Y009157D01*
X010334Y010678D02*
X010180Y010832D01*
X010257Y010832D02*
X010027Y010832D01*
X010027Y010678D02*
X010027Y011139D01*
X010257Y011139D01*
X010334Y011062D01*
X010334Y010908D01*
X010257Y010832D01*
X010487Y010985D02*
X010641Y011139D01*
X010641Y010678D01*
X010794Y010678D02*
X010487Y010678D01*
X011351Y010755D02*
X011428Y010678D01*
X011582Y010678D01*
X011658Y010755D01*
X011812Y010678D02*
X012119Y010678D01*
X011965Y010678D02*
X011965Y011139D01*
X011812Y010985D01*
X011658Y011062D02*
X011582Y011139D01*
X011428Y011139D01*
X011351Y011062D01*
X011351Y010755D01*
X010942Y006463D02*
X010635Y006463D01*
X010481Y006387D02*
X010481Y006233D01*
X010405Y006157D01*
X010174Y006157D01*
X010328Y006157D02*
X010481Y006003D01*
X010635Y006003D02*
X010635Y006080D01*
X010942Y006387D01*
X010942Y006463D01*
X010481Y006387D02*
X010405Y006463D01*
X010174Y006463D01*
X010174Y006003D01*
X010149Y005627D02*
X010072Y005550D01*
X010072Y005243D01*
X010149Y005166D01*
X010302Y005166D01*
X010379Y005243D01*
X010532Y005243D02*
X010609Y005166D01*
X010763Y005166D01*
X010839Y005243D01*
X010839Y005397D01*
X010763Y005473D01*
X010686Y005473D01*
X010532Y005397D01*
X010532Y005627D01*
X010839Y005627D01*
X010379Y005550D02*
X010302Y005627D01*
X010149Y005627D01*
X008339Y003302D02*
X008186Y003302D01*
X008109Y003225D01*
X007956Y003302D02*
X007649Y002842D01*
X007956Y002842D02*
X007649Y003302D01*
X008109Y002842D02*
X008416Y003149D01*
X008416Y003225D01*
X008339Y003302D01*
X008416Y002842D02*
X008109Y002842D01*
X008266Y002454D02*
X008343Y002454D01*
X008650Y002147D01*
X008727Y002147D01*
X008650Y001994D02*
X008727Y001917D01*
X008727Y001763D01*
X008650Y001687D01*
X008343Y001687D01*
X008266Y001763D01*
X008266Y001917D01*
X008343Y001994D01*
X008266Y002147D02*
X008266Y002454D01*
X009875Y000875D02*
X009875Y000568D01*
X009952Y000491D01*
X010105Y000491D01*
X010182Y000568D01*
X010336Y000568D02*
X010412Y000491D01*
X010566Y000491D01*
X010642Y000568D01*
X010642Y000645D01*
X010566Y000721D01*
X010489Y000721D01*
X010566Y000721D02*
X010642Y000798D01*
X010642Y000875D01*
X010566Y000952D01*
X010412Y000952D01*
X010336Y000875D01*
X010182Y000875D02*
X010105Y000952D01*
X009952Y000952D01*
X009875Y000875D01*
X012916Y005310D02*
X012993Y005386D01*
X012993Y005463D01*
X012916Y005540D01*
X012533Y005540D01*
X012533Y005463D02*
X012533Y005617D01*
X012609Y005770D02*
X012533Y005847D01*
X012533Y006000D01*
X012609Y006077D01*
X012686Y006077D01*
X012993Y005770D01*
X012993Y006077D01*
X002375Y011761D02*
X002068Y011761D01*
X002375Y012068D01*
X002375Y012145D01*
X002298Y012221D01*
X002145Y012221D01*
X002068Y012145D01*
X001914Y012145D02*
X001838Y012221D01*
X001684Y012221D01*
X001607Y012145D01*
X001607Y011838D01*
X001684Y011761D01*
X001838Y011761D01*
X001914Y011838D01*
X000977Y011357D02*
X000516Y011357D01*
X000747Y011127D01*
X000747Y011434D01*
X000747Y010973D02*
X000593Y010973D01*
X000516Y010897D01*
X000516Y010666D01*
X000977Y010666D01*
X000823Y010666D02*
X000823Y010897D01*
X000747Y010973D01*
X000823Y010820D02*
X000977Y010973D01*
X001577Y009761D02*
X001501Y009684D01*
X001501Y009530D01*
X001577Y009454D01*
X001577Y009300D02*
X001731Y009300D01*
X001808Y009223D01*
X001808Y008993D01*
X001961Y008993D02*
X001501Y008993D01*
X001501Y009223D01*
X001577Y009300D01*
X001808Y009147D02*
X001961Y009300D01*
X001961Y009454D02*
X001654Y009761D01*
X001577Y009761D01*
X001961Y009761D02*
X001961Y009454D01*
D16*
X007639Y008359D02*
X007639Y011859D01*
D17*
X007237Y012865D03*
X008237Y012865D03*
X009237Y012865D03*
X006237Y012865D03*
X005237Y012865D03*
X004237Y012865D03*
X003237Y012865D03*
X002237Y012865D03*
X001237Y012865D03*
X011930Y009188D03*
X011930Y008188D03*
X011930Y007188D03*
X011930Y006188D03*
X011930Y005188D03*
X011930Y004188D03*
X011930Y003188D03*
X011930Y002188D03*
X011930Y001188D03*
D18*
X009135Y003416D02*
X007245Y003416D01*
X007245Y008141D01*
X007599Y008141D01*
X007599Y007826D01*
X008780Y007826D01*
X008780Y008141D01*
X009135Y008141D01*
X009135Y003416D01*
X008977Y003731D02*
X008977Y007826D01*
X008780Y007826D01*
X007599Y007826D02*
X007402Y007826D01*
X007402Y003731D01*
X008977Y003731D01*
M02*
