G75*
G70*
%OFA0B0*%
%FSLAX24Y24*%
%IPPOS*%
%LPD*%
%AMOC8*
5,1,8,0,0,1.08239X$1,22.5*
%
%ADD10R,0.0142X0.0374*%
%ADD11R,0.0551X0.0394*%
%ADD12R,0.0394X0.0551*%
%ADD13R,0.0800X0.0260*%
%ADD14R,0.0512X0.0591*%
%ADD15R,0.0591X0.0512*%
%ADD16R,0.0374X0.0142*%
%ADD17C,0.0600*%
%ADD18R,0.1378X0.0512*%
%ADD19C,0.0120*%
%ADD20C,0.0160*%
%ADD21C,0.0315*%
%ADD22C,0.0100*%
%ADD23C,0.0240*%
D10*
X002865Y010709D03*
X003377Y010709D03*
X003377Y011477D03*
X003121Y011475D03*
X002865Y011477D03*
D11*
X009824Y008534D03*
X010690Y008160D03*
X010690Y008908D03*
D12*
X005107Y007893D03*
X004359Y007893D03*
X004733Y008759D03*
D13*
X005799Y008609D03*
X005799Y009109D03*
X005799Y009609D03*
X005799Y010109D03*
X005799Y010609D03*
X005799Y011109D03*
X005799Y011609D03*
X008219Y011609D03*
X008219Y011109D03*
X008219Y010609D03*
X008219Y010109D03*
X008219Y009609D03*
X008219Y009109D03*
X008219Y008609D03*
D14*
X009883Y010158D03*
X010631Y010158D03*
X011457Y010158D03*
X012206Y010158D03*
X005857Y005975D03*
X005109Y005975D03*
X005119Y007107D03*
X004371Y007107D03*
X003839Y008928D03*
X003091Y008928D03*
X003091Y009715D03*
X003839Y009715D03*
X009932Y002038D03*
X009932Y001300D03*
X010680Y001300D03*
X010680Y002038D03*
D15*
X009125Y001910D03*
X009125Y002658D03*
X010454Y004125D03*
X010454Y004873D03*
X010650Y006782D03*
X010650Y007530D03*
X005828Y007530D03*
X005828Y006782D03*
X002333Y009046D03*
X002333Y009794D03*
X002087Y010719D03*
X002087Y011467D03*
X001300Y011467D03*
X001300Y010719D03*
X004056Y010719D03*
X004056Y011467D03*
X004843Y011467D03*
X004843Y010719D03*
D16*
X009922Y003131D03*
X009922Y002619D03*
X010690Y002619D03*
X010688Y002875D03*
X010690Y003131D03*
D17*
X011630Y003188D02*
X012230Y003188D01*
X012230Y004188D02*
X011630Y004188D01*
X011630Y005188D02*
X012230Y005188D01*
X012230Y006188D02*
X011630Y006188D01*
X011630Y007188D02*
X012230Y007188D01*
X012230Y008188D02*
X011630Y008188D01*
X011630Y009188D02*
X012230Y009188D01*
X009237Y012565D02*
X009237Y013165D01*
X008237Y013165D02*
X008237Y012565D01*
X007237Y012565D02*
X007237Y013165D01*
X006237Y013165D02*
X006237Y012565D01*
X005237Y012565D02*
X005237Y013165D01*
X004237Y013165D02*
X004237Y012565D01*
X003237Y012565D02*
X003237Y013165D01*
X002237Y013165D02*
X002237Y012565D01*
X001237Y012565D02*
X001237Y013165D01*
X011630Y002188D02*
X012230Y002188D01*
X012230Y001188D02*
X011630Y001188D01*
D18*
X009190Y004528D03*
X009190Y005528D03*
X009190Y006528D03*
X009190Y007528D03*
X007190Y007028D03*
X007190Y006028D03*
X007190Y005028D03*
X007190Y004028D03*
D19*
X005736Y005203D02*
X004911Y005203D01*
X005029Y005085D02*
X005871Y005085D01*
X005834Y005100D02*
X005958Y005049D01*
X006091Y005049D01*
X006215Y005100D01*
X006309Y005195D01*
X006341Y005272D01*
X006341Y005088D01*
X007130Y005088D01*
X007130Y004968D01*
X007250Y004968D01*
X007250Y004612D01*
X007900Y004612D01*
X007940Y004623D01*
X007977Y004644D01*
X008007Y004674D01*
X008028Y004711D01*
X008039Y004751D01*
X008039Y004968D01*
X007250Y004968D01*
X007250Y005088D01*
X008039Y005088D01*
X008039Y005305D01*
X008028Y005346D01*
X008007Y005382D01*
X007977Y005412D01*
X007940Y005433D01*
X007900Y005444D01*
X007250Y005444D01*
X007250Y005088D01*
X007130Y005088D01*
X007130Y005444D01*
X006480Y005444D01*
X006439Y005433D01*
X006403Y005412D01*
X006373Y005382D01*
X006360Y005360D01*
X006360Y005451D01*
X006309Y005575D01*
X006284Y005599D01*
X006291Y005606D01*
X006291Y006344D01*
X006229Y006406D01*
X006251Y006428D01*
X006272Y006465D01*
X006283Y006505D01*
X006283Y006722D01*
X005888Y006722D01*
X005888Y006842D01*
X006283Y006842D01*
X006283Y007059D01*
X006272Y007100D01*
X006251Y007136D01*
X006244Y007143D01*
X006301Y007201D01*
X006301Y007860D01*
X006411Y007905D01*
X006506Y008000D01*
X006557Y008123D01*
X006557Y008257D01*
X006506Y008380D01*
X006411Y008474D01*
X006377Y008489D01*
X006377Y008813D01*
X006331Y008859D01*
X006377Y008905D01*
X006377Y009313D01*
X006331Y009359D01*
X006377Y009405D01*
X006377Y009813D01*
X006331Y009859D01*
X006377Y009905D01*
X006377Y010313D01*
X006331Y010359D01*
X006342Y010371D01*
X006410Y010371D01*
X006672Y010109D01*
X006672Y007462D01*
X006427Y007462D01*
X006323Y007358D01*
X006323Y006699D01*
X006427Y006594D01*
X007814Y006594D01*
X007814Y006462D01*
X006427Y006462D01*
X006323Y006358D01*
X006323Y005699D01*
X006427Y005594D01*
X007953Y005594D01*
X008057Y005699D01*
X008057Y005913D01*
X008270Y006127D01*
X008270Y008060D01*
X008776Y008060D01*
X008875Y008159D01*
X009008Y008292D01*
X009008Y009072D01*
X008875Y009205D01*
X008797Y009283D01*
X008797Y009313D01*
X008756Y009354D01*
X008812Y009331D01*
X008945Y009331D01*
X009069Y009382D01*
X009113Y009426D01*
X009113Y009320D01*
X009152Y009225D01*
X009225Y009152D01*
X009471Y008906D01*
X009370Y008805D01*
X009370Y008329D01*
X009304Y008329D01*
X009181Y008277D01*
X009086Y008183D01*
X009035Y008060D01*
X009035Y007962D01*
X008427Y007962D01*
X008323Y007858D01*
X008323Y007199D01*
X008427Y007094D01*
X009832Y007094D01*
X009832Y006962D01*
X008427Y006962D01*
X008323Y006858D01*
X008323Y006199D01*
X008427Y006094D01*
X009766Y006094D01*
X009898Y005962D01*
X008427Y005962D01*
X008323Y005858D01*
X008323Y005199D01*
X008427Y005094D01*
X009953Y005094D01*
X009980Y005122D01*
X009980Y004935D01*
X009953Y004962D01*
X008427Y004962D01*
X008348Y004884D01*
X008271Y004884D01*
X008147Y004833D01*
X008053Y004738D01*
X008002Y004615D01*
X008002Y004481D01*
X008050Y004365D01*
X007953Y004462D01*
X006427Y004462D01*
X006323Y004358D01*
X006323Y003791D01*
X000514Y009600D01*
X000514Y013848D01*
X010551Y013848D01*
X010551Y011697D01*
X010552Y011695D01*
X010552Y011650D01*
X010560Y011553D01*
X010586Y011460D01*
X010627Y011372D01*
X010682Y011292D01*
X010751Y011224D01*
X010830Y011168D01*
X010918Y011127D01*
X011012Y011102D01*
X011109Y011093D01*
X011153Y011093D01*
X011156Y011092D01*
X012913Y011092D01*
X012913Y000661D01*
X009453Y000661D01*
X006520Y003594D01*
X007953Y003594D01*
X008057Y003699D01*
X008057Y004354D01*
X008147Y004264D01*
X008271Y004212D01*
X008323Y004212D01*
X008323Y004199D01*
X008427Y004094D01*
X008885Y004094D01*
X008840Y004049D01*
X008789Y003926D01*
X008789Y003792D01*
X008840Y003669D01*
X008867Y003643D01*
X008867Y003092D01*
X008756Y003092D01*
X008651Y002988D01*
X008651Y002329D01*
X008709Y002271D01*
X008701Y002264D01*
X008680Y002228D01*
X008670Y002187D01*
X008670Y001970D01*
X009065Y001970D01*
X009065Y001850D01*
X009185Y001850D01*
X009185Y001494D01*
X009441Y001494D01*
X009482Y001505D01*
X009498Y001514D01*
X009498Y000931D01*
X009602Y000827D01*
X010262Y000827D01*
X010306Y000871D01*
X010350Y000827D01*
X011010Y000827D01*
X011114Y000931D01*
X011114Y001669D01*
X011114Y001669D01*
X011114Y001669D01*
X011114Y002407D01*
X011105Y002416D01*
X011213Y002524D01*
X011321Y002633D01*
X011321Y002846D01*
X011330Y002837D01*
X011389Y002794D01*
X011453Y002761D01*
X011522Y002739D01*
X011594Y002728D01*
X011890Y002728D01*
X011890Y003148D01*
X011970Y003148D01*
X011970Y003228D01*
X011890Y003228D01*
X011890Y003648D01*
X011594Y003648D01*
X011522Y003636D01*
X011453Y003614D01*
X011389Y003581D01*
X011330Y003539D01*
X011321Y003530D01*
X011321Y003820D01*
X011359Y003782D01*
X011535Y003710D01*
X012325Y003710D01*
X012501Y003782D01*
X012635Y003917D01*
X012708Y004093D01*
X012708Y004283D01*
X012635Y004459D01*
X012501Y004593D01*
X012325Y004666D01*
X011535Y004666D01*
X011359Y004593D01*
X011321Y004555D01*
X011321Y004820D01*
X011359Y004782D01*
X011535Y004710D01*
X012325Y004710D01*
X012501Y004782D01*
X012635Y004917D01*
X012708Y005093D01*
X012708Y005283D01*
X012635Y005459D01*
X012501Y005593D01*
X012325Y005666D01*
X011535Y005666D01*
X011359Y005593D01*
X011308Y005542D01*
X010865Y005984D01*
X010988Y006035D01*
X011083Y006130D01*
X011134Y006253D01*
X011134Y006386D01*
X011111Y006440D01*
X011124Y006453D01*
X011124Y007112D01*
X011079Y007156D01*
X011124Y007201D01*
X011124Y007363D01*
X011489Y007729D01*
X011535Y007710D01*
X012325Y007710D01*
X012501Y007782D01*
X012635Y007917D01*
X012708Y008093D01*
X012708Y008283D01*
X012635Y008459D01*
X012501Y008593D01*
X012325Y008666D01*
X011535Y008666D01*
X011359Y008593D01*
X011225Y008459D01*
X011152Y008283D01*
X011152Y008121D01*
X011125Y008095D01*
X011125Y008122D01*
X010728Y008122D01*
X010728Y008199D01*
X010651Y008199D01*
X010651Y008517D01*
X010393Y008517D01*
X010352Y008506D01*
X010316Y008485D01*
X010286Y008455D01*
X010277Y008440D01*
X010277Y008596D01*
X010340Y008533D01*
X011039Y008533D01*
X011143Y008638D01*
X011143Y009179D01*
X011039Y009283D01*
X010485Y009283D01*
X010777Y009575D01*
X010850Y009648D01*
X010865Y009685D01*
X010960Y009685D01*
X011044Y009769D01*
X011128Y009685D01*
X011787Y009685D01*
X011844Y009742D01*
X011851Y009735D01*
X011888Y009714D01*
X011929Y009703D01*
X012146Y009703D01*
X012146Y010098D01*
X012266Y010098D01*
X012266Y010218D01*
X012621Y010218D01*
X012621Y010475D01*
X012611Y010515D01*
X012589Y010552D01*
X012560Y010582D01*
X012523Y010603D01*
X012482Y010614D01*
X012266Y010614D01*
X012266Y010218D01*
X012146Y010218D01*
X012146Y010614D01*
X011929Y010614D01*
X011888Y010603D01*
X011851Y010582D01*
X011844Y010575D01*
X011787Y010632D01*
X011128Y010632D01*
X011044Y010548D01*
X010960Y010632D01*
X010301Y010632D01*
X010257Y010587D01*
X010220Y010624D01*
X010220Y011467D01*
X010246Y011494D01*
X010297Y011617D01*
X010297Y011751D01*
X010246Y011874D01*
X010152Y011968D01*
X010028Y012019D01*
X009895Y012019D01*
X009771Y011968D01*
X009677Y011874D01*
X009626Y011751D01*
X009626Y011743D01*
X009590Y011830D01*
X009309Y012111D01*
X009345Y012116D01*
X009414Y012139D01*
X009478Y012172D01*
X009537Y012214D01*
X009588Y012265D01*
X009630Y012324D01*
X009663Y012388D01*
X009686Y012457D01*
X009697Y012529D01*
X009697Y012825D01*
X009277Y012825D01*
X009277Y012905D01*
X009197Y012905D01*
X009197Y013624D01*
X009129Y013614D01*
X009060Y013591D01*
X008996Y013558D01*
X008937Y013516D01*
X008886Y013465D01*
X008844Y013406D01*
X008811Y013342D01*
X008788Y013273D01*
X008777Y013201D01*
X008777Y012905D01*
X009197Y012905D01*
X009197Y012825D01*
X008777Y012825D01*
X008777Y012529D01*
X008788Y012457D01*
X008811Y012388D01*
X008844Y012324D01*
X008871Y012286D01*
X008603Y012286D01*
X008630Y012324D01*
X008663Y012388D01*
X008686Y012457D01*
X008697Y012529D01*
X008697Y012825D01*
X008277Y012825D01*
X008277Y012905D01*
X008197Y012905D01*
X008197Y013624D01*
X008129Y013614D01*
X008060Y013591D01*
X007996Y013558D01*
X007937Y013516D01*
X007886Y013465D01*
X007844Y013406D01*
X007811Y013342D01*
X007788Y013273D01*
X007777Y013201D01*
X007777Y012905D01*
X008197Y012905D01*
X008197Y012825D01*
X007777Y012825D01*
X007777Y012529D01*
X007788Y012457D01*
X007811Y012388D01*
X007844Y012324D01*
X007871Y012286D01*
X007603Y012286D01*
X007630Y012324D01*
X007663Y012388D01*
X007686Y012457D01*
X007697Y012529D01*
X007697Y012825D01*
X007277Y012825D01*
X007277Y012905D01*
X007197Y012905D01*
X007197Y013624D01*
X007129Y013614D01*
X007060Y013591D01*
X006996Y013558D01*
X006937Y013516D01*
X006886Y013465D01*
X006844Y013406D01*
X006811Y013342D01*
X006788Y013273D01*
X006777Y013201D01*
X006777Y012905D01*
X007197Y012905D01*
X007197Y012825D01*
X006777Y012825D01*
X006777Y012529D01*
X006788Y012457D01*
X006811Y012388D01*
X006844Y012324D01*
X006871Y012286D01*
X006635Y012286D01*
X006642Y012294D01*
X006715Y012470D01*
X006715Y013260D01*
X006642Y013436D01*
X006508Y013570D01*
X006332Y013643D01*
X006142Y013643D01*
X005966Y013570D01*
X005832Y013436D01*
X005759Y013260D01*
X005759Y012511D01*
X005715Y012555D01*
X005715Y013260D01*
X005642Y013436D01*
X005508Y013570D01*
X005332Y013643D01*
X005142Y013643D01*
X004966Y013570D01*
X004832Y013436D01*
X004759Y013260D01*
X004759Y012470D01*
X004832Y012294D01*
X004966Y012160D01*
X005142Y012087D01*
X005332Y012087D01*
X005418Y012122D01*
X005623Y011917D01*
X005325Y011917D01*
X005248Y011840D01*
X005237Y011851D01*
X005200Y011872D01*
X005160Y011883D01*
X004903Y011883D01*
X004903Y011527D01*
X004783Y011527D01*
X004783Y011407D01*
X004511Y011407D01*
X004116Y011407D01*
X004116Y011527D01*
X004783Y011527D01*
X004783Y011883D01*
X004527Y011883D01*
X004486Y011872D01*
X004450Y011851D01*
X004450Y011851D01*
X004449Y011851D01*
X004413Y011872D01*
X004372Y011883D01*
X004116Y011883D01*
X004116Y011527D01*
X003996Y011527D01*
X003996Y011883D01*
X003740Y011883D01*
X003699Y011872D01*
X003662Y011851D01*
X003633Y011821D01*
X003612Y011785D01*
X003605Y011759D01*
X003521Y011842D01*
X003232Y011842D01*
X003212Y011822D01*
X003121Y011822D01*
X003121Y011475D01*
X003121Y011733D01*
X003269Y011881D01*
X004056Y011881D01*
X004646Y011881D01*
X004745Y012078D01*
X004843Y011959D01*
X004843Y011467D01*
X004783Y011484D02*
X004116Y011484D01*
X004056Y011467D02*
X004056Y011881D01*
X003996Y011839D02*
X004116Y011839D01*
X004116Y011721D02*
X003996Y011721D01*
X003996Y011602D02*
X004116Y011602D01*
X004142Y012087D02*
X004332Y012087D01*
X004508Y012160D01*
X004642Y012294D01*
X004715Y012470D01*
X004715Y013260D01*
X004642Y013436D01*
X004508Y013570D01*
X004332Y013643D01*
X004142Y013643D01*
X003966Y013570D01*
X003832Y013436D01*
X003759Y013260D01*
X003759Y012470D01*
X003832Y012294D01*
X003966Y012160D01*
X004142Y012087D01*
X003931Y012195D02*
X003510Y012195D01*
X003537Y012214D02*
X003588Y012265D01*
X003630Y012324D01*
X003663Y012388D01*
X003686Y012457D01*
X003697Y012529D01*
X003697Y012825D01*
X003277Y012825D01*
X003277Y012905D01*
X003197Y012905D01*
X003197Y013624D01*
X003129Y013614D01*
X003060Y013591D01*
X002996Y013558D01*
X002937Y013516D01*
X002886Y013465D01*
X002844Y013406D01*
X002811Y013342D01*
X002788Y013273D01*
X002777Y013201D01*
X002777Y012905D01*
X003197Y012905D01*
X003197Y012825D01*
X002777Y012825D01*
X002777Y012529D01*
X002788Y012457D01*
X002811Y012388D01*
X002844Y012324D01*
X002886Y012265D01*
X002916Y012235D01*
X002843Y012266D01*
X002710Y012266D01*
X002586Y012214D01*
X002542Y012170D01*
X002542Y012194D01*
X002642Y012294D01*
X002715Y012470D01*
X002715Y013260D01*
X002642Y013436D01*
X002508Y013570D01*
X002332Y013643D01*
X002142Y013643D01*
X001966Y013570D01*
X001832Y013436D01*
X001759Y013260D01*
X001759Y012470D01*
X001832Y012294D01*
X001966Y012160D01*
X002026Y012135D01*
X002026Y011901D01*
X001718Y011901D01*
X001694Y011877D01*
X001669Y011901D01*
X000931Y011901D01*
X000827Y011797D01*
X000827Y011138D01*
X000871Y011093D01*
X000827Y011049D01*
X000827Y010390D01*
X000931Y010285D01*
X001152Y010285D01*
X001358Y010080D01*
X001358Y010042D01*
X001409Y009919D01*
X001504Y009825D01*
X001627Y009773D01*
X001760Y009773D01*
X001884Y009825D01*
X002273Y009825D01*
X002273Y009854D02*
X002273Y009734D01*
X001878Y009734D01*
X001878Y009517D01*
X001889Y009476D01*
X001910Y009440D01*
X001917Y009433D01*
X001860Y009376D01*
X001860Y008716D01*
X001964Y008612D01*
X002657Y008612D01*
X002657Y008559D01*
X002762Y008455D01*
X003421Y008455D01*
X003465Y008499D01*
X003510Y008455D01*
X003621Y008455D01*
X003621Y007983D01*
X003575Y007937D01*
X003523Y007814D01*
X003523Y007680D01*
X003575Y007557D01*
X003669Y007462D01*
X003792Y007411D01*
X003926Y007411D01*
X003937Y007416D01*
X003937Y006738D01*
X004041Y006634D01*
X004701Y006634D01*
X004745Y006678D01*
X004789Y006634D01*
X005372Y006634D01*
X005372Y006505D01*
X005383Y006465D01*
X005404Y006428D01*
X005408Y006425D01*
X005386Y006430D01*
X005169Y006430D01*
X005169Y006035D01*
X005049Y006035D01*
X005049Y005915D01*
X005169Y005915D01*
X005169Y005520D01*
X005386Y005520D01*
X005427Y005531D01*
X005463Y005552D01*
X005470Y005559D01*
X005470Y005559D01*
X005527Y005502D01*
X005710Y005502D01*
X005689Y005451D01*
X005689Y005318D01*
X005740Y005195D01*
X005834Y005100D01*
X005689Y005322D02*
X004792Y005322D01*
X004674Y005440D02*
X005689Y005440D01*
X006024Y005385D02*
X006024Y005778D01*
X005857Y005975D01*
X006247Y006388D02*
X006353Y006388D01*
X006323Y006270D02*
X006291Y006270D01*
X006291Y006151D02*
X006323Y006151D01*
X006323Y006033D02*
X006291Y006033D01*
X006291Y005914D02*
X006323Y005914D01*
X006323Y005796D02*
X006291Y005796D01*
X006291Y005677D02*
X006344Y005677D01*
X006315Y005559D02*
X008323Y005559D01*
X008323Y005677D02*
X008036Y005677D01*
X008057Y005796D02*
X008323Y005796D01*
X008379Y005914D02*
X008058Y005914D01*
X008176Y006033D02*
X009827Y006033D01*
X009832Y006981D02*
X008270Y006981D01*
X008270Y007099D02*
X008422Y007099D01*
X008323Y007218D02*
X008270Y007218D01*
X008270Y007336D02*
X008323Y007336D01*
X008323Y007455D02*
X008270Y007455D01*
X008270Y007573D02*
X008323Y007573D01*
X008323Y007692D02*
X008270Y007692D01*
X008270Y007810D02*
X008323Y007810D01*
X008270Y007929D02*
X008394Y007929D01*
X008270Y008047D02*
X009035Y008047D01*
X009079Y008166D02*
X008882Y008166D01*
X008875Y008159D02*
X008875Y008159D01*
X009001Y008284D02*
X009198Y008284D01*
X009370Y008403D02*
X009008Y008403D01*
X009008Y008521D02*
X009370Y008521D01*
X009370Y008640D02*
X009008Y008640D01*
X009008Y008758D02*
X009370Y008758D01*
X009442Y008877D02*
X009008Y008877D01*
X009008Y008995D02*
X009381Y008995D01*
X009263Y009114D02*
X008966Y009114D01*
X008848Y009232D02*
X009149Y009232D01*
X009225Y009152D02*
X009225Y009152D01*
X009113Y009351D02*
X008995Y009351D01*
X008763Y009351D02*
X008759Y009351D01*
X008219Y008609D02*
X007721Y008609D01*
X007156Y009174D01*
X007156Y011290D01*
X006837Y011609D01*
X005799Y011609D01*
X005582Y011958D02*
X003112Y011958D01*
X003112Y011997D02*
X003061Y012120D01*
X003023Y012158D01*
X003060Y012139D01*
X003129Y012116D01*
X003197Y012106D01*
X003197Y012825D01*
X003277Y012825D01*
X003277Y012106D01*
X003345Y012116D01*
X003414Y012139D01*
X003478Y012172D01*
X003537Y012214D01*
X003623Y012313D02*
X003824Y012313D01*
X003775Y012432D02*
X003677Y012432D01*
X003697Y012550D02*
X003759Y012550D01*
X003759Y012669D02*
X003697Y012669D01*
X003697Y012787D02*
X003759Y012787D01*
X003759Y012906D02*
X003697Y012906D01*
X003697Y012905D02*
X003697Y013201D01*
X003686Y013273D01*
X003663Y013342D01*
X003630Y013406D01*
X003588Y013465D01*
X003537Y013516D01*
X003478Y013558D01*
X003414Y013591D01*
X003345Y013614D01*
X003277Y013624D01*
X003277Y012905D01*
X003697Y012905D01*
X003697Y013024D02*
X003759Y013024D01*
X003759Y013143D02*
X003697Y013143D01*
X003687Y013261D02*
X003759Y013261D01*
X003809Y013380D02*
X003644Y013380D01*
X003554Y013498D02*
X003894Y013498D01*
X004079Y013617D02*
X003324Y013617D01*
X003277Y013617D02*
X003197Y013617D01*
X003150Y013617D02*
X002395Y013617D01*
X002580Y013498D02*
X002920Y013498D01*
X002830Y013380D02*
X002665Y013380D01*
X002715Y013261D02*
X002787Y013261D01*
X002777Y013143D02*
X002715Y013143D01*
X002715Y013024D02*
X002777Y013024D01*
X002777Y012906D02*
X002715Y012906D01*
X002715Y012787D02*
X002777Y012787D01*
X002777Y012669D02*
X002715Y012669D01*
X002715Y012550D02*
X002777Y012550D01*
X002797Y012432D02*
X002699Y012432D01*
X002650Y012313D02*
X002851Y012313D01*
X002567Y012195D02*
X002543Y012195D01*
X002776Y011930D02*
X002776Y011782D01*
X002875Y011684D01*
X002875Y011487D01*
X002865Y011477D01*
X002616Y011484D02*
X002561Y011484D01*
X002561Y011602D02*
X002616Y011602D01*
X002616Y011606D02*
X002616Y011216D01*
X002720Y011112D01*
X002883Y011112D01*
X002883Y011075D01*
X002720Y011075D01*
X002616Y010970D01*
X002616Y010449D01*
X002627Y010438D01*
X002627Y010210D01*
X002393Y010210D01*
X002393Y009854D01*
X002273Y009854D01*
X001913Y009854D01*
X001884Y009825D01*
X001878Y009706D02*
X000514Y009706D01*
X000526Y009588D02*
X001878Y009588D01*
X001893Y009469D02*
X000645Y009469D01*
X000763Y009351D02*
X001860Y009351D01*
X001860Y009232D02*
X000882Y009232D01*
X001000Y009114D02*
X001860Y009114D01*
X001860Y008995D02*
X001119Y008995D01*
X001237Y008877D02*
X001860Y008877D01*
X001860Y008758D02*
X001356Y008758D01*
X001474Y008640D02*
X001937Y008640D01*
X001711Y008403D02*
X003621Y008403D01*
X003621Y008284D02*
X001830Y008284D01*
X001948Y008166D02*
X003621Y008166D01*
X003621Y008047D02*
X002067Y008047D01*
X002185Y007929D02*
X003571Y007929D01*
X003523Y007810D02*
X002304Y007810D01*
X002422Y007692D02*
X003523Y007692D01*
X003568Y007573D02*
X002541Y007573D01*
X002659Y007455D02*
X003687Y007455D01*
X003937Y007336D02*
X002778Y007336D01*
X002896Y007218D02*
X003937Y007218D01*
X003937Y007099D02*
X003015Y007099D01*
X003133Y006981D02*
X003937Y006981D01*
X003937Y006862D02*
X003252Y006862D01*
X003370Y006744D02*
X003937Y006744D01*
X003607Y006507D02*
X005372Y006507D01*
X005372Y006625D02*
X003489Y006625D01*
X003726Y006388D02*
X004745Y006388D01*
X004755Y006399D02*
X004725Y006369D01*
X004704Y006332D01*
X004693Y006292D01*
X004693Y006035D01*
X005049Y006035D01*
X005049Y006430D01*
X004832Y006430D01*
X004791Y006420D01*
X004755Y006399D01*
X004693Y006270D02*
X003844Y006270D01*
X003963Y006151D02*
X004693Y006151D01*
X004693Y005915D02*
X004693Y005659D01*
X004704Y005618D01*
X004725Y005582D01*
X004755Y005552D01*
X004791Y005531D01*
X004832Y005520D01*
X005049Y005520D01*
X005049Y005915D01*
X004693Y005915D01*
X004693Y005914D02*
X004200Y005914D01*
X004318Y005796D02*
X004693Y005796D01*
X004693Y005677D02*
X004437Y005677D01*
X004555Y005559D02*
X004748Y005559D01*
X005049Y005559D02*
X005169Y005559D01*
X005169Y005677D02*
X005049Y005677D01*
X005049Y005796D02*
X005169Y005796D01*
X005169Y005914D02*
X005049Y005914D01*
X005049Y006033D02*
X004081Y006033D01*
X005049Y006151D02*
X005169Y006151D01*
X005169Y006270D02*
X005049Y006270D01*
X005049Y006388D02*
X005169Y006388D01*
X005888Y006744D02*
X006323Y006744D01*
X006323Y006862D02*
X006283Y006862D01*
X006283Y006981D02*
X006323Y006981D01*
X006323Y007099D02*
X006272Y007099D01*
X006301Y007218D02*
X006323Y007218D01*
X006323Y007336D02*
X006301Y007336D01*
X006301Y007455D02*
X006420Y007455D01*
X006301Y007573D02*
X006672Y007573D01*
X006672Y007692D02*
X006301Y007692D01*
X006301Y007810D02*
X006672Y007810D01*
X006672Y007929D02*
X006435Y007929D01*
X006526Y008047D02*
X006672Y008047D01*
X006672Y008166D02*
X006557Y008166D01*
X006545Y008284D02*
X006672Y008284D01*
X006672Y008403D02*
X006483Y008403D01*
X006377Y008521D02*
X006672Y008521D01*
X006672Y008640D02*
X006377Y008640D01*
X006377Y008758D02*
X006672Y008758D01*
X006672Y008877D02*
X006348Y008877D01*
X006377Y008995D02*
X006672Y008995D01*
X006672Y009114D02*
X006377Y009114D01*
X006377Y009232D02*
X006672Y009232D01*
X006672Y009351D02*
X006339Y009351D01*
X006377Y009469D02*
X006672Y009469D01*
X006672Y009588D02*
X006377Y009588D01*
X006377Y009706D02*
X006672Y009706D01*
X006672Y009825D02*
X006365Y009825D01*
X006377Y009943D02*
X006672Y009943D01*
X006672Y010062D02*
X006377Y010062D01*
X006377Y010180D02*
X006601Y010180D01*
X006482Y010299D02*
X006377Y010299D01*
X006509Y010609D02*
X006910Y010207D01*
X006910Y006914D01*
X007190Y007028D01*
X007148Y007462D02*
X007148Y008845D01*
X007623Y008371D01*
X007675Y008371D01*
X007745Y008301D01*
X007831Y008301D01*
X007814Y008284D01*
X007814Y007462D01*
X007148Y007462D01*
X007148Y007573D02*
X007814Y007573D01*
X007814Y007692D02*
X007148Y007692D01*
X007148Y007810D02*
X007814Y007810D01*
X007814Y007929D02*
X007148Y007929D01*
X007148Y008047D02*
X007814Y008047D01*
X007814Y008166D02*
X007148Y008166D01*
X007148Y008284D02*
X007814Y008284D01*
X007591Y008403D02*
X007148Y008403D01*
X007148Y008521D02*
X007472Y008521D01*
X007354Y008640D02*
X007148Y008640D01*
X007148Y008758D02*
X007235Y008758D01*
X007553Y009114D02*
X007641Y009114D01*
X007641Y009026D02*
X007394Y009273D01*
X007394Y011389D01*
X007076Y011708D01*
X007013Y011770D01*
X007661Y011770D01*
X007659Y011760D01*
X007659Y011614D01*
X008214Y011614D01*
X008214Y011604D01*
X007659Y011604D01*
X007659Y011458D01*
X007670Y011417D01*
X007691Y011381D01*
X007700Y011372D01*
X007641Y011313D01*
X007641Y010905D01*
X007687Y010859D01*
X007641Y010813D01*
X007641Y010405D01*
X007687Y010359D01*
X007641Y010313D01*
X007641Y009905D01*
X007687Y009859D01*
X007641Y009813D01*
X007641Y009405D01*
X007687Y009359D01*
X007641Y009313D01*
X007641Y009026D01*
X007641Y009232D02*
X007435Y009232D01*
X007394Y009351D02*
X007679Y009351D01*
X007641Y009469D02*
X007394Y009469D01*
X007394Y009588D02*
X007641Y009588D01*
X007641Y009706D02*
X007394Y009706D01*
X007394Y009825D02*
X007653Y009825D01*
X007641Y009943D02*
X007394Y009943D01*
X007394Y010062D02*
X007641Y010062D01*
X007641Y010180D02*
X007394Y010180D01*
X007394Y010299D02*
X007641Y010299D01*
X007641Y010417D02*
X007394Y010417D01*
X007394Y010536D02*
X007641Y010536D01*
X007641Y010654D02*
X007394Y010654D01*
X007394Y010773D02*
X007641Y010773D01*
X007654Y010891D02*
X007394Y010891D01*
X007394Y011010D02*
X007641Y011010D01*
X007641Y011128D02*
X007394Y011128D01*
X007394Y011247D02*
X007641Y011247D01*
X007693Y011365D02*
X007394Y011365D01*
X007299Y011484D02*
X007659Y011484D01*
X007659Y011602D02*
X007181Y011602D01*
X007062Y011721D02*
X007659Y011721D01*
X008224Y011614D02*
X008779Y011614D01*
X008779Y011760D01*
X008776Y011770D01*
X008919Y011770D01*
X009113Y011577D01*
X009113Y011235D01*
X009020Y011329D01*
X008896Y011380D01*
X008763Y011380D01*
X008740Y011370D01*
X008738Y011372D01*
X008747Y011381D01*
X008768Y011417D01*
X008779Y011458D01*
X008779Y011604D01*
X008224Y011604D01*
X008224Y011614D01*
X008779Y011602D02*
X009087Y011602D01*
X009113Y011484D02*
X008779Y011484D01*
X008931Y011365D02*
X009113Y011365D01*
X009101Y011247D02*
X009113Y011247D01*
X008969Y011721D02*
X008779Y011721D01*
X008851Y012313D02*
X008623Y012313D01*
X008677Y012432D02*
X008797Y012432D01*
X008777Y012550D02*
X008697Y012550D01*
X008697Y012669D02*
X008777Y012669D01*
X008777Y012787D02*
X008697Y012787D01*
X008697Y012905D02*
X008697Y013201D01*
X008686Y013273D01*
X008663Y013342D01*
X008630Y013406D01*
X008588Y013465D01*
X008537Y013516D01*
X008478Y013558D01*
X008414Y013591D01*
X008345Y013614D01*
X008277Y013624D01*
X008277Y012905D01*
X008697Y012905D01*
X008697Y012906D02*
X008777Y012906D01*
X008777Y013024D02*
X008697Y013024D01*
X008697Y013143D02*
X008777Y013143D01*
X008787Y013261D02*
X008687Y013261D01*
X008644Y013380D02*
X008830Y013380D01*
X008920Y013498D02*
X008554Y013498D01*
X008324Y013617D02*
X009150Y013617D01*
X009197Y013617D02*
X009277Y013617D01*
X009277Y013624D02*
X009277Y012905D01*
X009697Y012905D01*
X009697Y013201D01*
X009686Y013273D01*
X009663Y013342D01*
X009630Y013406D01*
X009588Y013465D01*
X009537Y013516D01*
X009478Y013558D01*
X009414Y013591D01*
X009345Y013614D01*
X009277Y013624D01*
X009324Y013617D02*
X010551Y013617D01*
X010551Y013735D02*
X000514Y013735D01*
X000514Y013617D02*
X001079Y013617D01*
X001142Y013643D02*
X000966Y013570D01*
X000832Y013436D01*
X000759Y013260D01*
X000759Y012470D01*
X000832Y012294D01*
X000966Y012160D01*
X001142Y012087D01*
X001332Y012087D01*
X001508Y012160D01*
X001642Y012294D01*
X001715Y012470D01*
X001715Y013260D01*
X001642Y013436D01*
X001508Y013570D01*
X001332Y013643D01*
X001142Y013643D01*
X001395Y013617D02*
X002079Y013617D01*
X001894Y013498D02*
X001580Y013498D01*
X001665Y013380D02*
X001809Y013380D01*
X001759Y013261D02*
X001715Y013261D01*
X001715Y013143D02*
X001759Y013143D01*
X001759Y013024D02*
X001715Y013024D01*
X001715Y012906D02*
X001759Y012906D01*
X001759Y012787D02*
X001715Y012787D01*
X001715Y012669D02*
X001759Y012669D01*
X001759Y012550D02*
X001715Y012550D01*
X001699Y012432D02*
X001775Y012432D01*
X001824Y012313D02*
X001650Y012313D01*
X001543Y012195D02*
X001931Y012195D01*
X002026Y012076D02*
X000514Y012076D01*
X000514Y011958D02*
X002026Y011958D01*
X002087Y011467D02*
X001300Y011467D01*
X001253Y011420D01*
X001253Y011515D02*
X002284Y011467D01*
X002087Y011467D01*
X002504Y011081D02*
X002561Y011138D01*
X002561Y011661D01*
X002616Y011606D01*
X002616Y011365D02*
X002561Y011365D01*
X002561Y011247D02*
X002616Y011247D01*
X002552Y011128D02*
X002704Y011128D01*
X002656Y011010D02*
X002539Y011010D01*
X002543Y010996D02*
X002532Y011037D01*
X002511Y011073D01*
X002504Y011081D01*
X002543Y010996D02*
X002543Y010779D01*
X002147Y010779D01*
X002147Y010659D01*
X002147Y010303D01*
X002404Y010303D01*
X002444Y010314D01*
X002481Y010335D01*
X002511Y010365D01*
X002532Y010402D01*
X002543Y010442D01*
X002543Y010659D01*
X002147Y010659D01*
X002027Y010659D01*
X002027Y010303D01*
X001974Y010303D01*
X001978Y010299D01*
X002015Y010210D01*
X002017Y010210D01*
X002273Y010210D01*
X002273Y009854D01*
X002333Y009794D02*
X002383Y010011D01*
X002284Y010109D01*
X002273Y010062D02*
X002393Y010062D01*
X002393Y010180D02*
X002273Y010180D01*
X002284Y010257D02*
X002038Y010355D01*
X002038Y010552D01*
X002087Y010719D01*
X002147Y010773D02*
X002616Y010773D01*
X002616Y010891D02*
X002543Y010891D01*
X002543Y010654D02*
X002616Y010654D01*
X002616Y010536D02*
X002543Y010536D01*
X002536Y010417D02*
X002627Y010417D01*
X002627Y010299D02*
X001978Y010299D01*
X002027Y010417D02*
X002147Y010417D01*
X002147Y010536D02*
X002027Y010536D01*
X002027Y010654D02*
X002147Y010654D01*
X002865Y010709D02*
X002865Y009942D01*
X003091Y009715D01*
X003091Y008928D01*
X002973Y009046D01*
X002333Y009046D01*
X002695Y008521D02*
X001593Y008521D01*
X001503Y009825D02*
X000514Y009825D01*
X000514Y009943D02*
X001399Y009943D01*
X001358Y010062D02*
X000514Y010062D01*
X000514Y010180D02*
X001257Y010180D01*
X000917Y010299D02*
X000514Y010299D01*
X000514Y010417D02*
X000827Y010417D01*
X000827Y010536D02*
X000514Y010536D01*
X000514Y010654D02*
X000827Y010654D01*
X000827Y010773D02*
X000514Y010773D01*
X000514Y010891D02*
X000827Y010891D01*
X000827Y011010D02*
X000514Y011010D01*
X000514Y011128D02*
X000836Y011128D01*
X000827Y011247D02*
X000514Y011247D01*
X000514Y011365D02*
X000827Y011365D01*
X000827Y011484D02*
X000514Y011484D01*
X000514Y011602D02*
X000827Y011602D01*
X000827Y011721D02*
X000514Y011721D01*
X000514Y011839D02*
X000869Y011839D01*
X000931Y012195D02*
X000514Y012195D01*
X000514Y012313D02*
X000824Y012313D01*
X000775Y012432D02*
X000514Y012432D01*
X000514Y012550D02*
X000759Y012550D01*
X000759Y012669D02*
X000514Y012669D01*
X000514Y012787D02*
X000759Y012787D01*
X000759Y012906D02*
X000514Y012906D01*
X000514Y013024D02*
X000759Y013024D01*
X000759Y013143D02*
X000514Y013143D01*
X000514Y013261D02*
X000759Y013261D01*
X000809Y013380D02*
X000514Y013380D01*
X000514Y013498D02*
X000894Y013498D01*
X003079Y012076D02*
X005464Y012076D01*
X005720Y012550D02*
X005759Y012550D01*
X005759Y012669D02*
X005715Y012669D01*
X005715Y012787D02*
X005759Y012787D01*
X005759Y012906D02*
X005715Y012906D01*
X005715Y013024D02*
X005759Y013024D01*
X005759Y013143D02*
X005715Y013143D01*
X005715Y013261D02*
X005759Y013261D01*
X005809Y013380D02*
X005665Y013380D01*
X005580Y013498D02*
X005894Y013498D01*
X006079Y013617D02*
X005395Y013617D01*
X005079Y013617D02*
X004395Y013617D01*
X004580Y013498D02*
X004894Y013498D01*
X004809Y013380D02*
X004665Y013380D01*
X004715Y013261D02*
X004759Y013261D01*
X004759Y013143D02*
X004715Y013143D01*
X004715Y013024D02*
X004759Y013024D01*
X004759Y012906D02*
X004715Y012906D01*
X004715Y012787D02*
X004759Y012787D01*
X004759Y012669D02*
X004715Y012669D01*
X004715Y012550D02*
X004759Y012550D01*
X004775Y012432D02*
X004699Y012432D01*
X004650Y012313D02*
X004824Y012313D01*
X004931Y012195D02*
X004543Y012195D01*
X004783Y011839D02*
X004903Y011839D01*
X004903Y011721D02*
X004783Y011721D01*
X004783Y011602D02*
X004903Y011602D01*
X004243Y010709D02*
X003377Y010709D01*
X003377Y011093D02*
X003121Y011093D01*
X003121Y010257D01*
X003761Y010257D01*
X003761Y009715D01*
X003839Y009715D01*
X003839Y008928D01*
X003859Y009105D02*
X003859Y007747D01*
X004253Y007747D02*
X004253Y007786D01*
X004359Y007893D01*
X004359Y007119D01*
X004371Y007107D01*
X005828Y007530D02*
X005828Y007796D01*
X006221Y008190D01*
X005799Y009109D02*
X005253Y009109D01*
X004843Y009519D01*
X005237Y009609D02*
X005799Y009609D01*
X005799Y010109D02*
X005237Y010109D01*
X005237Y009609D01*
X005799Y010609D02*
X006509Y010609D01*
X006650Y012313D02*
X006851Y012313D01*
X006797Y012432D02*
X006699Y012432D01*
X006715Y012550D02*
X006777Y012550D01*
X006777Y012669D02*
X006715Y012669D01*
X006715Y012787D02*
X006777Y012787D01*
X006777Y012906D02*
X006715Y012906D01*
X006715Y013024D02*
X006777Y013024D01*
X006777Y013143D02*
X006715Y013143D01*
X006715Y013261D02*
X006787Y013261D01*
X006830Y013380D02*
X006665Y013380D01*
X006580Y013498D02*
X006920Y013498D01*
X007150Y013617D02*
X006395Y013617D01*
X007197Y013617D02*
X007277Y013617D01*
X007277Y013624D02*
X007277Y012905D01*
X007697Y012905D01*
X007697Y013201D01*
X007686Y013273D01*
X007663Y013342D01*
X007630Y013406D01*
X007588Y013465D01*
X007537Y013516D01*
X007478Y013558D01*
X007414Y013591D01*
X007345Y013614D01*
X007277Y013624D01*
X007324Y013617D02*
X008150Y013617D01*
X008197Y013617D02*
X008277Y013617D01*
X008277Y013498D02*
X008197Y013498D01*
X008197Y013380D02*
X008277Y013380D01*
X008277Y013261D02*
X008197Y013261D01*
X008197Y013143D02*
X008277Y013143D01*
X008277Y013024D02*
X008197Y013024D01*
X008197Y012906D02*
X008277Y012906D01*
X007777Y012906D02*
X007697Y012906D01*
X007697Y013024D02*
X007777Y013024D01*
X007777Y013143D02*
X007697Y013143D01*
X007687Y013261D02*
X007787Y013261D01*
X007830Y013380D02*
X007644Y013380D01*
X007554Y013498D02*
X007920Y013498D01*
X007277Y013498D02*
X007197Y013498D01*
X007197Y013380D02*
X007277Y013380D01*
X007277Y013261D02*
X007197Y013261D01*
X007197Y013143D02*
X007277Y013143D01*
X007277Y013024D02*
X007197Y013024D01*
X007197Y012906D02*
X007277Y012906D01*
X007697Y012787D02*
X007777Y012787D01*
X007777Y012669D02*
X007697Y012669D01*
X007697Y012550D02*
X007777Y012550D01*
X007797Y012432D02*
X007677Y012432D01*
X007623Y012313D02*
X007851Y012313D01*
X009197Y012906D02*
X009277Y012906D01*
X009277Y013024D02*
X009197Y013024D01*
X009197Y013143D02*
X009277Y013143D01*
X009277Y013261D02*
X009197Y013261D01*
X009197Y013380D02*
X009277Y013380D01*
X009277Y013498D02*
X009197Y013498D01*
X009554Y013498D02*
X010551Y013498D01*
X010551Y013380D02*
X009644Y013380D01*
X009687Y013261D02*
X010551Y013261D01*
X010551Y013143D02*
X009697Y013143D01*
X009697Y013024D02*
X010551Y013024D01*
X010551Y012906D02*
X009697Y012906D01*
X009697Y012787D02*
X010551Y012787D01*
X010551Y012669D02*
X009697Y012669D01*
X009697Y012550D02*
X010551Y012550D01*
X010551Y012432D02*
X009677Y012432D01*
X009623Y012313D02*
X010551Y012313D01*
X010551Y012195D02*
X009510Y012195D01*
X009343Y012076D02*
X010551Y012076D01*
X010551Y011958D02*
X010162Y011958D01*
X010260Y011839D02*
X010551Y011839D01*
X010551Y011721D02*
X010297Y011721D01*
X010291Y011602D02*
X010556Y011602D01*
X010579Y011484D02*
X010236Y011484D01*
X010220Y011365D02*
X010631Y011365D01*
X010728Y011247D02*
X010220Y011247D01*
X010220Y011128D02*
X010915Y011128D01*
X010220Y011010D02*
X012913Y011010D01*
X012913Y010891D02*
X010220Y010891D01*
X010220Y010773D02*
X012913Y010773D01*
X012913Y010654D02*
X010220Y010654D01*
X009883Y010158D02*
X009961Y010040D01*
X010553Y009351D02*
X011199Y009351D01*
X011204Y009364D02*
X011181Y009296D01*
X011171Y009228D01*
X011890Y009228D01*
X011890Y009648D01*
X011594Y009648D01*
X011522Y009636D01*
X011453Y009614D01*
X011389Y009581D01*
X011330Y009539D01*
X011279Y009487D01*
X011236Y009429D01*
X011204Y009364D01*
X011266Y009469D02*
X010671Y009469D01*
X010790Y009588D02*
X011402Y009588D01*
X011106Y009706D02*
X010982Y009706D01*
X011090Y009232D02*
X011171Y009232D01*
X011171Y009148D02*
X011181Y009080D01*
X011204Y009011D01*
X011236Y008947D01*
X011279Y008888D01*
X011330Y008837D01*
X011389Y008794D01*
X011453Y008761D01*
X011522Y008739D01*
X011594Y008728D01*
X011890Y008728D01*
X011890Y009148D01*
X011171Y009148D01*
X011176Y009114D02*
X011143Y009114D01*
X011143Y008995D02*
X011212Y008995D01*
X011143Y008877D02*
X011290Y008877D01*
X011143Y008758D02*
X011463Y008758D01*
X011472Y008640D02*
X011143Y008640D01*
X011064Y008485D02*
X011027Y008506D01*
X010986Y008517D01*
X010728Y008517D01*
X010728Y008199D01*
X011125Y008199D01*
X011125Y008378D01*
X011114Y008419D01*
X011093Y008455D01*
X011064Y008485D01*
X011119Y008403D02*
X011202Y008403D01*
X011152Y008284D02*
X011125Y008284D01*
X011152Y008166D02*
X010728Y008166D01*
X010651Y008166D02*
X010180Y008166D01*
X010173Y008159D02*
X010167Y008159D01*
X010254Y008072D01*
X010254Y008122D01*
X010651Y008122D01*
X010651Y008199D01*
X010254Y008199D01*
X010254Y008240D01*
X010173Y008159D01*
X010277Y008521D02*
X011287Y008521D01*
X010728Y008403D02*
X010651Y008403D01*
X010651Y008284D02*
X010728Y008284D01*
X011334Y007573D02*
X011378Y007573D01*
X011389Y007581D02*
X011330Y007539D01*
X011279Y007487D01*
X011236Y007429D01*
X011204Y007364D01*
X011181Y007296D01*
X011171Y007228D01*
X011890Y007228D01*
X011890Y007648D01*
X011594Y007648D01*
X011522Y007636D01*
X011453Y007614D01*
X011389Y007581D01*
X011453Y007692D02*
X012913Y007692D01*
X012913Y007810D02*
X012529Y007810D01*
X012640Y007929D02*
X012913Y007929D01*
X012913Y008047D02*
X012689Y008047D01*
X012708Y008166D02*
X012913Y008166D01*
X012913Y008284D02*
X012707Y008284D01*
X012658Y008403D02*
X012913Y008403D01*
X012913Y008521D02*
X012572Y008521D01*
X012388Y008640D02*
X012913Y008640D01*
X012913Y008758D02*
X012397Y008758D01*
X012406Y008761D02*
X012471Y008794D01*
X012530Y008837D01*
X012581Y008888D01*
X012623Y008947D01*
X012656Y009011D01*
X012679Y009080D01*
X012689Y009148D01*
X011970Y009148D01*
X011970Y009228D01*
X011890Y009228D01*
X011890Y009148D01*
X011970Y009148D01*
X011970Y008728D01*
X012266Y008728D01*
X012338Y008739D01*
X012406Y008761D01*
X012570Y008877D02*
X012913Y008877D01*
X012913Y008995D02*
X012648Y008995D01*
X012684Y009114D02*
X012913Y009114D01*
X012913Y009232D02*
X012689Y009232D01*
X012689Y009228D02*
X012679Y009296D01*
X012656Y009364D01*
X012623Y009429D01*
X012581Y009487D01*
X012530Y009539D01*
X012471Y009581D01*
X012406Y009614D01*
X012338Y009636D01*
X012266Y009648D01*
X011970Y009648D01*
X011970Y009228D01*
X012689Y009228D01*
X012661Y009351D02*
X012913Y009351D01*
X012913Y009469D02*
X012594Y009469D01*
X012458Y009588D02*
X012913Y009588D01*
X012913Y009706D02*
X012495Y009706D01*
X012482Y009703D02*
X012523Y009714D01*
X012560Y009735D01*
X012589Y009765D01*
X012611Y009801D01*
X012621Y009842D01*
X012621Y010098D01*
X012266Y010098D01*
X012266Y009703D01*
X012482Y009703D01*
X012617Y009825D02*
X012913Y009825D01*
X012913Y009943D02*
X012621Y009943D01*
X012621Y010062D02*
X012913Y010062D01*
X012913Y010180D02*
X012266Y010180D01*
X012266Y010062D02*
X012146Y010062D01*
X012146Y009943D02*
X012266Y009943D01*
X012266Y009825D02*
X012146Y009825D01*
X012146Y009706D02*
X012266Y009706D01*
X011970Y009588D02*
X011890Y009588D01*
X011890Y009469D02*
X011970Y009469D01*
X011970Y009351D02*
X011890Y009351D01*
X011890Y009232D02*
X011970Y009232D01*
X011970Y009114D02*
X011890Y009114D01*
X011890Y008995D02*
X011970Y008995D01*
X011970Y008877D02*
X011890Y008877D01*
X011890Y008758D02*
X011970Y008758D01*
X011916Y009706D02*
X011809Y009706D01*
X012146Y010299D02*
X012266Y010299D01*
X012266Y010417D02*
X012146Y010417D01*
X012146Y010536D02*
X012266Y010536D01*
X012599Y010536D02*
X012913Y010536D01*
X012913Y010417D02*
X012621Y010417D01*
X012621Y010299D02*
X012913Y010299D01*
X012338Y007636D02*
X012266Y007648D01*
X011970Y007648D01*
X011970Y007228D01*
X011890Y007228D01*
X011890Y007148D01*
X011171Y007148D01*
X011181Y007080D01*
X011204Y007011D01*
X011236Y006947D01*
X011279Y006888D01*
X011330Y006837D01*
X011389Y006794D01*
X011453Y006761D01*
X011522Y006739D01*
X011594Y006728D01*
X011890Y006728D01*
X011890Y007148D01*
X011970Y007148D01*
X011970Y007228D01*
X012689Y007228D01*
X012679Y007296D01*
X012656Y007364D01*
X012623Y007429D01*
X012581Y007487D01*
X012530Y007539D01*
X012471Y007581D01*
X012406Y007614D01*
X012338Y007636D01*
X012482Y007573D02*
X012913Y007573D01*
X012913Y007455D02*
X012604Y007455D01*
X012665Y007336D02*
X012913Y007336D01*
X012913Y007218D02*
X011970Y007218D01*
X011970Y007148D02*
X012689Y007148D01*
X012679Y007080D01*
X012656Y007011D01*
X012623Y006947D01*
X012581Y006888D01*
X012530Y006837D01*
X012471Y006794D01*
X012406Y006761D01*
X012338Y006739D01*
X012266Y006728D01*
X011970Y006728D01*
X011970Y007148D01*
X011970Y007099D02*
X011890Y007099D01*
X011890Y006981D02*
X011970Y006981D01*
X011970Y006862D02*
X011890Y006862D01*
X011890Y006744D02*
X011970Y006744D01*
X012325Y006666D02*
X011535Y006666D01*
X011359Y006593D01*
X011225Y006459D01*
X011152Y006283D01*
X011152Y006093D01*
X011225Y005917D01*
X011359Y005782D01*
X011535Y005710D01*
X012325Y005710D01*
X012501Y005782D01*
X012635Y005917D01*
X012708Y006093D01*
X012708Y006283D01*
X012635Y006459D01*
X012501Y006593D01*
X012325Y006666D01*
X012352Y006744D02*
X012913Y006744D01*
X012913Y006862D02*
X012555Y006862D01*
X012641Y006981D02*
X012913Y006981D01*
X012913Y007099D02*
X012682Y007099D01*
X012913Y006625D02*
X012423Y006625D01*
X012587Y006507D02*
X012913Y006507D01*
X012913Y006388D02*
X012664Y006388D01*
X012708Y006270D02*
X012913Y006270D01*
X012913Y006151D02*
X012708Y006151D01*
X012683Y006033D02*
X012913Y006033D01*
X012913Y005914D02*
X012633Y005914D01*
X012514Y005796D02*
X012913Y005796D01*
X012913Y005677D02*
X011172Y005677D01*
X011291Y005559D02*
X011325Y005559D01*
X011346Y005796D02*
X011054Y005796D01*
X010935Y005914D02*
X011227Y005914D01*
X011177Y006033D02*
X010983Y006033D01*
X011092Y006151D02*
X011152Y006151D01*
X011152Y006270D02*
X011134Y006270D01*
X011133Y006388D02*
X011196Y006388D01*
X011124Y006507D02*
X011273Y006507D01*
X011124Y006625D02*
X011437Y006625D01*
X011508Y006744D02*
X011124Y006744D01*
X011124Y006862D02*
X011305Y006862D01*
X011219Y006981D02*
X011124Y006981D01*
X011124Y007099D02*
X011178Y007099D01*
X011124Y007218D02*
X011890Y007218D01*
X011890Y007336D02*
X011970Y007336D01*
X011970Y007455D02*
X011890Y007455D01*
X011890Y007573D02*
X011970Y007573D01*
X011255Y007455D02*
X011216Y007455D01*
X011195Y007336D02*
X011124Y007336D01*
X010798Y006635D02*
X010798Y006320D01*
X009980Y005085D02*
X007250Y005085D01*
X007250Y005203D02*
X007130Y005203D01*
X007130Y005085D02*
X006178Y005085D01*
X006313Y005203D02*
X006341Y005203D01*
X006341Y004968D02*
X006341Y004751D01*
X006352Y004711D01*
X006373Y004674D01*
X006403Y004644D01*
X006439Y004623D01*
X006480Y004612D01*
X007130Y004612D01*
X007130Y004968D01*
X006341Y004968D01*
X006341Y004966D02*
X005148Y004966D01*
X005266Y004848D02*
X006341Y004848D01*
X006347Y004729D02*
X005385Y004729D01*
X005503Y004611D02*
X008002Y004611D01*
X008002Y004492D02*
X005622Y004492D01*
X005740Y004374D02*
X006339Y004374D01*
X006323Y004255D02*
X005859Y004255D01*
X005977Y004137D02*
X006323Y004137D01*
X006323Y004018D02*
X006096Y004018D01*
X006214Y003900D02*
X006323Y003900D01*
X006570Y003544D02*
X008867Y003544D01*
X008867Y003426D02*
X006688Y003426D01*
X006807Y003307D02*
X008867Y003307D01*
X008867Y003189D02*
X006925Y003189D01*
X007044Y003070D02*
X008734Y003070D01*
X008651Y002952D02*
X007162Y002952D01*
X007281Y002833D02*
X008651Y002833D01*
X008651Y002715D02*
X007399Y002715D01*
X007518Y002596D02*
X008651Y002596D01*
X008651Y002478D02*
X007636Y002478D01*
X007755Y002359D02*
X008651Y002359D01*
X008688Y002241D02*
X007873Y002241D01*
X007992Y002122D02*
X008670Y002122D01*
X008670Y002004D02*
X008110Y002004D01*
X008229Y001885D02*
X009065Y001885D01*
X009065Y001850D02*
X008670Y001850D01*
X008670Y001633D01*
X008680Y001593D01*
X008701Y001556D01*
X008731Y001526D01*
X008768Y001505D01*
X008808Y001494D01*
X009065Y001494D01*
X009065Y001850D01*
X009065Y001767D02*
X009185Y001767D01*
X009185Y001648D02*
X009065Y001648D01*
X009065Y001530D02*
X009185Y001530D01*
X009498Y001293D02*
X008821Y001293D01*
X008703Y001411D02*
X009498Y001411D01*
X009498Y001174D02*
X008940Y001174D01*
X009058Y001056D02*
X009498Y001056D01*
X009498Y000937D02*
X009177Y000937D01*
X009295Y000819D02*
X011355Y000819D01*
X011330Y000837D02*
X011389Y000794D01*
X011453Y000761D01*
X011522Y000739D01*
X011594Y000728D01*
X011890Y000728D01*
X011890Y001148D01*
X011171Y001148D01*
X011181Y001080D01*
X011204Y001011D01*
X011236Y000947D01*
X011279Y000888D01*
X011330Y000837D01*
X011243Y000937D02*
X011114Y000937D01*
X011114Y001056D02*
X011189Y001056D01*
X011114Y001174D02*
X011890Y001174D01*
X011890Y001148D02*
X011890Y001228D01*
X011890Y001648D01*
X011594Y001648D01*
X011522Y001636D01*
X011453Y001614D01*
X011389Y001581D01*
X011330Y001539D01*
X011279Y001487D01*
X011236Y001429D01*
X011204Y001364D01*
X011181Y001296D01*
X011171Y001228D01*
X011890Y001228D01*
X011970Y001228D01*
X011970Y001648D01*
X012266Y001648D01*
X012338Y001636D01*
X012406Y001614D01*
X012471Y001581D01*
X012530Y001539D01*
X012581Y001487D01*
X012623Y001429D01*
X012656Y001364D01*
X012679Y001296D01*
X012689Y001228D01*
X011970Y001228D01*
X011970Y001148D01*
X012689Y001148D01*
X012679Y001080D01*
X012656Y001011D01*
X012623Y000947D01*
X012581Y000888D01*
X012530Y000837D01*
X012471Y000794D01*
X012406Y000761D01*
X012338Y000739D01*
X012266Y000728D01*
X011970Y000728D01*
X011970Y001148D01*
X011890Y001148D01*
X011970Y001174D02*
X012913Y001174D01*
X012913Y001056D02*
X012671Y001056D01*
X012617Y000937D02*
X012913Y000937D01*
X012913Y000819D02*
X012505Y000819D01*
X012913Y000700D02*
X009414Y000700D01*
X008728Y001530D02*
X008584Y001530D01*
X008670Y001648D02*
X008466Y001648D01*
X008347Y001767D02*
X008670Y001767D01*
X009125Y002629D02*
X009095Y002658D01*
X009125Y002658D01*
X009125Y002629D02*
X009912Y002629D01*
X009922Y002619D01*
X009557Y003029D02*
X009494Y003092D01*
X009383Y003092D01*
X009383Y003643D01*
X009409Y003669D01*
X009460Y003792D01*
X009460Y003926D01*
X009409Y004049D01*
X009364Y004094D01*
X009953Y004094D01*
X010043Y004185D01*
X010394Y004185D01*
X010394Y004065D01*
X010514Y004065D01*
X010514Y003709D01*
X010579Y003709D01*
X010559Y003701D01*
X010464Y003606D01*
X010413Y003483D01*
X010413Y003364D01*
X010325Y003275D01*
X010325Y003031D01*
X010287Y003069D01*
X010287Y003275D01*
X010183Y003380D01*
X010100Y003380D01*
X010100Y003483D01*
X010049Y003606D01*
X009955Y003701D01*
X009831Y003752D01*
X009698Y003752D01*
X009574Y003701D01*
X009480Y003606D01*
X009429Y003483D01*
X009429Y003349D01*
X009480Y003226D01*
X009526Y003180D01*
X009526Y003121D01*
X009557Y003090D01*
X009557Y003029D01*
X009557Y003070D02*
X009516Y003070D01*
X009517Y003189D02*
X009383Y003189D01*
X009383Y003307D02*
X009446Y003307D01*
X009429Y003426D02*
X009383Y003426D01*
X009383Y003544D02*
X009454Y003544D01*
X009403Y003663D02*
X009537Y003663D01*
X009456Y003781D02*
X010024Y003781D01*
X010030Y003771D02*
X010060Y003741D01*
X010097Y003720D01*
X010137Y003709D01*
X010394Y003709D01*
X010394Y004065D01*
X009998Y004065D01*
X009998Y003848D01*
X010009Y003807D01*
X010030Y003771D01*
X009992Y003663D02*
X010521Y003663D01*
X010514Y003781D02*
X010394Y003781D01*
X010394Y003900D02*
X010514Y003900D01*
X010514Y004018D02*
X010394Y004018D01*
X010394Y004137D02*
X009995Y004137D01*
X009998Y004018D02*
X009422Y004018D01*
X009460Y003900D02*
X009998Y003900D01*
X010075Y003544D02*
X010439Y003544D01*
X010413Y003426D02*
X010100Y003426D01*
X010255Y003307D02*
X010357Y003307D01*
X010325Y003189D02*
X010287Y003189D01*
X010287Y003070D02*
X010325Y003070D01*
X010481Y002875D02*
X010688Y002875D01*
X010688Y002875D01*
X010481Y002875D01*
X010481Y002875D01*
X010690Y003131D02*
X010690Y003357D01*
X010749Y003416D01*
X011321Y003544D02*
X011338Y003544D01*
X011321Y003663D02*
X012913Y003663D01*
X012913Y003781D02*
X012498Y003781D01*
X012618Y003900D02*
X012913Y003900D01*
X012913Y004018D02*
X012677Y004018D01*
X012708Y004137D02*
X012913Y004137D01*
X012913Y004255D02*
X012708Y004255D01*
X012670Y004374D02*
X012913Y004374D01*
X012913Y004492D02*
X012601Y004492D01*
X012458Y004611D02*
X012913Y004611D01*
X012913Y004729D02*
X012373Y004729D01*
X012566Y004848D02*
X012913Y004848D01*
X012913Y004966D02*
X012656Y004966D01*
X012705Y005085D02*
X012913Y005085D01*
X012913Y005203D02*
X012708Y005203D01*
X012692Y005322D02*
X012913Y005322D01*
X012913Y005440D02*
X012643Y005440D01*
X012535Y005559D02*
X012913Y005559D01*
X011487Y004729D02*
X011321Y004729D01*
X011321Y004611D02*
X011402Y004611D01*
X011362Y003781D02*
X011321Y003781D01*
X011890Y003544D02*
X011970Y003544D01*
X011970Y003648D02*
X011970Y003228D01*
X012689Y003228D01*
X012679Y003296D01*
X012656Y003364D01*
X012623Y003429D01*
X012581Y003487D01*
X012530Y003539D01*
X012471Y003581D01*
X012406Y003614D01*
X012338Y003636D01*
X012266Y003648D01*
X011970Y003648D01*
X011970Y003426D02*
X011890Y003426D01*
X011890Y003307D02*
X011970Y003307D01*
X011970Y003189D02*
X012913Y003189D01*
X012913Y003307D02*
X012675Y003307D01*
X012625Y003426D02*
X012913Y003426D01*
X012913Y003544D02*
X012522Y003544D01*
X012689Y003148D02*
X011970Y003148D01*
X011970Y002728D01*
X012266Y002728D01*
X012338Y002739D01*
X012406Y002761D01*
X012471Y002794D01*
X012530Y002837D01*
X012581Y002888D01*
X012623Y002947D01*
X012656Y003011D01*
X012679Y003080D01*
X012689Y003148D01*
X012675Y003070D02*
X012913Y003070D01*
X012913Y002952D02*
X012626Y002952D01*
X012525Y002833D02*
X012913Y002833D01*
X012913Y002715D02*
X011321Y002715D01*
X011321Y002833D02*
X011335Y002833D01*
X011285Y002596D02*
X011419Y002596D01*
X011389Y002581D02*
X011330Y002539D01*
X011279Y002487D01*
X011236Y002429D01*
X011204Y002364D01*
X011181Y002296D01*
X011171Y002228D01*
X011890Y002228D01*
X011890Y002648D01*
X011594Y002648D01*
X011522Y002636D01*
X011453Y002614D01*
X011389Y002581D01*
X011272Y002478D02*
X011167Y002478D01*
X011202Y002359D02*
X011114Y002359D01*
X011114Y002241D02*
X011173Y002241D01*
X011171Y002148D02*
X011181Y002080D01*
X011204Y002011D01*
X011236Y001947D01*
X011279Y001888D01*
X011330Y001837D01*
X011389Y001794D01*
X011453Y001761D01*
X011522Y001739D01*
X011594Y001728D01*
X011890Y001728D01*
X011890Y002148D01*
X011171Y002148D01*
X011175Y002122D02*
X011114Y002122D01*
X011114Y002004D02*
X011207Y002004D01*
X011282Y001885D02*
X011114Y001885D01*
X011114Y001767D02*
X011443Y001767D01*
X011321Y001530D02*
X011114Y001530D01*
X011114Y001648D02*
X012913Y001648D01*
X012913Y001530D02*
X012538Y001530D01*
X012632Y001411D02*
X012913Y001411D01*
X012913Y001293D02*
X012679Y001293D01*
X012913Y001767D02*
X012417Y001767D01*
X012406Y001761D02*
X012471Y001794D01*
X012530Y001837D01*
X012581Y001888D01*
X012623Y001947D01*
X012656Y002011D01*
X012679Y002080D01*
X012689Y002148D01*
X011970Y002148D01*
X011970Y002228D01*
X011890Y002228D01*
X011890Y002148D01*
X011970Y002148D01*
X011970Y001728D01*
X012266Y001728D01*
X012338Y001739D01*
X012406Y001761D01*
X012578Y001885D02*
X012913Y001885D01*
X012913Y002004D02*
X012652Y002004D01*
X012685Y002122D02*
X012913Y002122D01*
X012913Y002241D02*
X012687Y002241D01*
X012689Y002228D02*
X012679Y002296D01*
X012656Y002364D01*
X012623Y002429D01*
X012581Y002487D01*
X012530Y002539D01*
X012471Y002581D01*
X012406Y002614D01*
X012338Y002636D01*
X012266Y002648D01*
X011970Y002648D01*
X011970Y002228D01*
X012689Y002228D01*
X012658Y002359D02*
X012913Y002359D01*
X012913Y002478D02*
X012588Y002478D01*
X012441Y002596D02*
X012913Y002596D01*
X011970Y002596D02*
X011890Y002596D01*
X011890Y002478D02*
X011970Y002478D01*
X011970Y002359D02*
X011890Y002359D01*
X011890Y002241D02*
X011970Y002241D01*
X011970Y002122D02*
X011890Y002122D01*
X011890Y002004D02*
X011970Y002004D01*
X011970Y001885D02*
X011890Y001885D01*
X011890Y001767D02*
X011970Y001767D01*
X011970Y001530D02*
X011890Y001530D01*
X011890Y001411D02*
X011970Y001411D01*
X011970Y001293D02*
X011890Y001293D01*
X011890Y001056D02*
X011970Y001056D01*
X011970Y000937D02*
X011890Y000937D01*
X011890Y000819D02*
X011970Y000819D01*
X011228Y001411D02*
X011114Y001411D01*
X011114Y001293D02*
X011181Y001293D01*
X010690Y002097D02*
X010690Y002619D01*
X009922Y003131D02*
X009853Y003131D01*
X009765Y003219D01*
X009765Y003416D01*
X008846Y003663D02*
X008021Y003663D01*
X008057Y003781D02*
X008794Y003781D01*
X008789Y003900D02*
X008057Y003900D01*
X008057Y004018D02*
X008828Y004018D01*
X008384Y004137D02*
X008057Y004137D01*
X008057Y004255D02*
X008167Y004255D01*
X008046Y004374D02*
X008041Y004374D01*
X008033Y004729D02*
X008049Y004729D01*
X008039Y004848D02*
X008184Y004848D01*
X008039Y004966D02*
X009980Y004966D01*
X008323Y005203D02*
X008039Y005203D01*
X008034Y005322D02*
X008323Y005322D01*
X008323Y005440D02*
X007914Y005440D01*
X007250Y005440D02*
X007130Y005440D01*
X007130Y005322D02*
X007250Y005322D01*
X007250Y004966D02*
X007130Y004966D01*
X007130Y004848D02*
X007250Y004848D01*
X007250Y004729D02*
X007130Y004729D01*
X006465Y005440D02*
X006360Y005440D01*
X006283Y006507D02*
X007814Y006507D01*
X008270Y006507D02*
X008323Y006507D01*
X008323Y006625D02*
X008270Y006625D01*
X008270Y006744D02*
X008323Y006744D01*
X008327Y006862D02*
X008270Y006862D01*
X008270Y006388D02*
X008323Y006388D01*
X008323Y006270D02*
X008270Y006270D01*
X008270Y006151D02*
X008370Y006151D01*
X009190Y007528D02*
X009371Y007544D01*
X009371Y007993D01*
X006396Y006625D02*
X006283Y006625D01*
X004056Y010503D02*
X004007Y010719D01*
X004056Y010719D02*
X004056Y010503D01*
X003377Y011093D02*
X003377Y011477D01*
X003121Y011475D02*
X003121Y011475D01*
X003121Y011822D01*
X003095Y011822D01*
X003112Y011863D01*
X003112Y011997D01*
X003102Y011839D02*
X003229Y011839D01*
X003121Y011721D02*
X003121Y011721D01*
X003121Y011602D02*
X003121Y011602D01*
X003121Y011484D02*
X003121Y011484D01*
X003524Y011839D02*
X003651Y011839D01*
X003277Y012195D02*
X003197Y012195D01*
X003197Y012313D02*
X003277Y012313D01*
X003277Y012432D02*
X003197Y012432D01*
X003197Y012550D02*
X003277Y012550D01*
X003277Y012669D02*
X003197Y012669D01*
X003197Y012787D02*
X003277Y012787D01*
X003277Y012906D02*
X003197Y012906D01*
X003197Y013024D02*
X003277Y013024D01*
X003277Y013143D02*
X003197Y013143D01*
X003197Y013261D02*
X003277Y013261D01*
X003277Y013380D02*
X003197Y013380D01*
X003197Y013498D02*
X003277Y013498D01*
X002393Y009943D02*
X002273Y009943D01*
X009462Y011958D02*
X009761Y011958D01*
X009663Y011839D02*
X009580Y011839D01*
X011890Y003070D02*
X011970Y003070D01*
X011970Y002952D02*
X011890Y002952D01*
X011890Y002833D02*
X011970Y002833D01*
D20*
X010690Y002097D02*
X010680Y002038D01*
X010680Y001300D01*
X009932Y001300D02*
X009932Y002038D01*
X009125Y002658D02*
X009125Y003859D01*
X009076Y004400D02*
X009076Y004548D01*
X008337Y004548D01*
X009062Y004400D02*
X009076Y004400D01*
X009062Y004400D02*
X009190Y004528D01*
X011930Y007156D02*
X011930Y007188D01*
X011930Y008188D02*
X011583Y008188D01*
X010946Y007550D01*
X010670Y007550D01*
X010650Y007530D01*
X009824Y008534D02*
X009814Y008672D01*
X009814Y008928D01*
X009814Y008977D01*
X009961Y009125D01*
X010631Y009794D01*
X010631Y010158D01*
X010778Y010109D01*
X011339Y010109D01*
X011457Y010227D01*
X011457Y010158D01*
X009961Y010040D02*
X009961Y011684D01*
X009371Y011684D02*
X009026Y012028D01*
X005877Y012028D01*
X005237Y012668D01*
X005237Y012865D01*
X005450Y011109D02*
X005799Y011109D01*
X005814Y011093D01*
X006615Y011093D01*
X005450Y011109D02*
X005237Y010896D01*
X005020Y010896D01*
X004843Y010719D01*
X004450Y010109D02*
X004056Y010503D01*
X004007Y010719D02*
X004243Y010709D01*
X003859Y009105D02*
X003839Y008928D01*
X001694Y010109D02*
X001300Y010503D01*
X001300Y010719D01*
X002284Y011467D02*
X002284Y012818D01*
X002237Y012865D01*
X008219Y011109D02*
X008765Y011109D01*
X008830Y011044D01*
X008977Y010609D02*
X008977Y010503D01*
X008977Y010109D01*
X008219Y010109D01*
X008219Y010609D02*
X008977Y010609D01*
X008879Y009666D02*
X008830Y009617D01*
X008227Y009617D01*
X008219Y009609D01*
X009371Y009371D02*
X009814Y008928D01*
X009371Y009371D02*
X009371Y011684D01*
D21*
X009961Y011684D03*
X010158Y012373D03*
X008830Y011044D03*
X008879Y009666D03*
X009174Y008731D03*
X009371Y007993D03*
X010798Y006320D03*
X010158Y005483D03*
X009765Y003908D03*
X009765Y003416D03*
X010306Y003416D03*
X010749Y003416D03*
X009125Y003859D03*
X008633Y003318D03*
X007993Y002432D03*
X008337Y004548D03*
X008190Y005828D03*
X006024Y005385D03*
X006024Y004400D03*
X005139Y006517D03*
X003859Y007747D03*
X003072Y007353D03*
X004843Y009519D03*
X004450Y010109D03*
X004745Y012078D03*
X006615Y011093D03*
X006517Y009961D03*
X007501Y009814D03*
X006517Y008879D03*
X006221Y008190D03*
X007402Y008141D03*
X011044Y010798D03*
X012225Y010700D03*
X002776Y011930D03*
X001743Y012078D03*
X002284Y010257D03*
X001694Y010109D03*
X000709Y009715D03*
D22*
X004351Y010011D02*
X004351Y007900D01*
X004359Y007893D01*
X005107Y007893D02*
X005237Y008022D01*
X005237Y008337D01*
X005509Y008609D01*
X005799Y008609D01*
X005808Y007530D02*
X005828Y007530D01*
X005808Y007530D02*
X005631Y007353D01*
X005267Y007353D01*
X005119Y007107D01*
X007190Y006028D02*
X007727Y005975D01*
X007796Y005975D01*
X008042Y006221D01*
X008042Y008190D01*
X008141Y008288D01*
X008682Y008288D01*
X008780Y008387D01*
X008780Y008977D01*
X008648Y009109D01*
X008219Y009109D01*
X009824Y008534D02*
X009824Y008180D01*
X010060Y007944D01*
X010060Y006467D01*
X011339Y005188D01*
X011930Y005188D01*
X011093Y005089D02*
X009765Y006418D01*
X009026Y006418D01*
X009190Y006501D01*
X009190Y006528D01*
X009349Y006369D01*
X009765Y006369D01*
X009190Y005528D02*
X009235Y005483D01*
X010650Y006782D02*
X010798Y006635D01*
X011093Y005089D02*
X011093Y002727D01*
X010985Y002619D01*
X010690Y002619D01*
X010688Y002875D02*
X010503Y002875D01*
X010306Y003072D01*
X010257Y002776D02*
X009922Y003111D01*
X009922Y003131D01*
X010257Y002776D02*
X010257Y002383D01*
X009932Y002058D01*
X009932Y002038D01*
X004351Y010011D02*
X004450Y010109D01*
D23*
X009235Y005483D02*
X010158Y005483D01*
X010454Y005188D01*
X010454Y004873D01*
M02*
