999
dxflib 2.2.0.0
  0
SECTION
  2
HEADER
  9
$ACADVER
  1
AC1015
  9
$HANDSEED
  5
FFFF
  9
$SPLINESEGS
 70
8
  9
$DIMEXE
 40
1.25
  9
$DIMLUNIT
 70
2
  9
$GRIDMODE
 70
1
  9
$INSUNITS
 70
4
  9
$DIMADEC
 70
1
  9
$DIMASZ
 40
2.5
  9
$DIMGAP
 40
0.625
  9
$DIMTXT
 40
5.0
  9
$GRIDUNIT
 10
0.0
 20
0.0
  9
$DIMEXO
 40
0.625
  9
$LUPREC
 70
1
  9
$DIMAUNIT
 70
0
  9
$AUPREC
 70
1
  9
$PLIMMIN
 10
0.0
 20
0.0
  9
$LUNITS
 70
2
  9
$PLIMMAX
 10
1189.0
 20
841.0
  9
$AUNITS
 70
0
  0
ENDSEC
  0
SECTION
  2
TABLES
  0
TABLE
  2
VPORT
  5
8
100
AcDbSymbolTable
 70
1
  0
VPORT
  5
30
100
AcDbSymbolTableRecord
100
AcDbViewportTableRecord
  2
*Active
 70
0
 10
0.0
 20
0.0
 11
1.0
 21
1.0
 12
286.3055555555554861
 22
148.5
 13
0.0
 23
0.0
 14
10.0
 24
10.0
 15
10.0
 25
10.0
 16
0.0
 26
0.0
 36
1.0
 17
0.0
 27
0.0
 37
0.0
 40
297.0
 41
1.92798353909465
 42
50.0
 43
0.0
 44
0.0
 50
0.0
 51
0.0
 71
0
 72
100
 73
1
 74
3
 75
1
 76
1
 77
0
 78
0
281
0
 65
1
110
0.0
120
0.0
130
0.0
111
1.0
121
0.0
131
0.0
112
0.0
122
1.0
132
0.0
 79
0
146
0.0
  0
ENDTAB
  0
TABLE
  2
LTYPE
  5
5
100
AcDbSymbolTable
 70
21
  0
LTYPE
  5
14
100
AcDbSymbolTableRecord
100
AcDbLinetypeTableRecord
  2
ByBlock
 70
0
  3

 72
65
 73
0
 40
0.0
  0
LTYPE
  5
15
100
AcDbSymbolTableRecord
100
AcDbLinetypeTableRecord
  2
ByLayer
 70
0
  3

 72
65
 73
0
 40
0.0
  0
LTYPE
  5
16
100
AcDbSymbolTableRecord
100
AcDbLinetypeTableRecord
  2
CONTINUOUS
 70
0
  3
Solid line
 72
65
 73
0
 40
0.0
  0
LTYPE
  5
31
100
AcDbSymbolTableRecord
100
AcDbLinetypeTableRecord
  2
DOT
 70
0
  3
Dot . . . . . . . . . . . . . . . . . . . . . .
 72
65
 73
2
 40
6.3499999999999996
 49
0.0
 74
0
 49
-6.3499999999999996
 74
0
  0
LTYPE
  5
32
100
AcDbSymbolTableRecord
100
AcDbLinetypeTableRecord
  2
DOT2
 70
0
  3
Dot (.5x) .....................................
 72
65
 73
2
 40
3.1749999999999998
 49
0.0
 74
0
 49
-3.1749999999999998
 74
0
  0
LTYPE
  5
33
100
AcDbSymbolTableRecord
100
AcDbLinetypeTableRecord
  2
DOTX2
 70
0
  3
Dot (2x) .  .  .  .  .  .  .  .  .  .  .  .  .
 72
65
 73
2
 40
12.6999999999999993
 49
0.0
 74
0
 49
-12.6999999999999993
 74
0
  0
LTYPE
  5
34
100
AcDbSymbolTableRecord
100
AcDbLinetypeTableRecord
  2
DASHED
 70
0
  3
Dashed __ __ __ __ __ __ __ __ __ __ __ __ __ _
 72
65
 73
2
 40
19.0500000000000007
 49
12.6999999999999993
 74
0
 49
-6.3499999999999996
 74
0
  0
LTYPE
  5
35
100
AcDbSymbolTableRecord
100
AcDbLinetypeTableRecord
  2
DASHED2
 70
0
  3
Dashed (.5x) _ _ _ _ _ _ _ _ _ _ _ _ _ _ _ _ _
 72
65
 73
2
 40
9.5250000000000004
 49
6.3499999999999996
 74
0
 49
-3.1749999999999998
 74
0
  0
LTYPE
  5
36
100
AcDbSymbolTableRecord
100
AcDbLinetypeTableRecord
  2
DASHEDX2
 70
0
  3
Dashed (2x) ____  ____  ____  ____  ____  ___
 72
65
 73
2
 40
38.1000000000000014
 49
25.3999999999999986
 74
0
 49
-12.6999999999999993
 74
0
  0
LTYPE
  5
37
100
AcDbSymbolTableRecord
100
AcDbLinetypeTableRecord
  2
DASHDOT
 70
0
  3
Dash dot __ . __ . __ . __ . __ . __ . __ . __
 72
65
 73
4
 40
25.3999999999999986
 49
12.6999999999999993
 74
0
 49
-6.3499999999999996
 74
0
 49
0.0
 74
0
 49
-6.3499999999999996
 74
0
  0
LTYPE
  5
38
100
AcDbSymbolTableRecord
100
AcDbLinetypeTableRecord
  2
DASHDOT2
 70
0
  3
Dash dot (.5x) _._._._._._._._._._._._._._._.
 72
65
 73
4
 40
12.6999999999999993
 49
6.3499999999999996
 74
0
 49
-3.1749999999999998
 74
0
 49
0.0
 74
0
 49
-3.1749999999999998
 74
0
  0
LTYPE
  5
39
100
AcDbSymbolTableRecord
100
AcDbLinetypeTableRecord
  2
DASHDOTX2
 70
0
  3
Dash dot (2x) ____  .  ____  .  ____  .  ___
 72
65
 73
4
 40
50.7999999999999972
 49
25.3999999999999986
 74
0
 49
-12.6999999999999993
 74
0
 49
0.0
 74
0
 49
-12.6999999999999993
 74
0
  0
LTYPE
  5
3A
100
AcDbSymbolTableRecord
100
AcDbLinetypeTableRecord
  2
DIVIDE
 70
0
  3
Divide ____ . . ____ . . ____ . . ____ . . ____
 72
65
 73
6
 40
31.75
 49
12.6999999999999993
 74
0
 49
-6.3499999999999996
 74
0
 49
0.0
 74
0
 49
-6.3499999999999996
 74
0
 49
0.0
 74
0
 49
-6.3499999999999996
 74
0
  0
LTYPE
  5
3B
100
AcDbSymbolTableRecord
100
AcDbLinetypeTableRecord
  2
DIVIDE2
 70
0
  3
Divide (.5x) __..__..__..__..__..__..__..__.._
 72
65
 73
6
 40
15.875
 49
6.3499999999999996
 74
0
 49
-3.1749999999999998
 74
0
 49
0.0
 74
0
 49
-3.1749999999999998
 74
0
 49
0.0
 74
0
 49
-3.1749999999999998
 74
0
  0
LTYPE
  5
3C
100
AcDbSymbolTableRecord
100
AcDbLinetypeTableRecord
  2
DIVIDEX2
 70
0
  3
Divide (2x) ________  .  .  ________  .  .  _
 72
65
 73
6
 40
63.5
 49
25.3999999999999986
 74
0
 49
-12.6999999999999993
 74
0
 49
0.0
 74
0
 49
-12.6999999999999993
 74
0
 49
0.0
 74
0
 49
-12.6999999999999993
 74
0
  0
LTYPE
  5
3D
100
AcDbSymbolTableRecord
100
AcDbLinetypeTableRecord
  2
CENTER
 70
0
  3
Center ____ _ ____ _ ____ _ ____ _ ____ _ ____
 72
65
 73
4
 40
50.7999999999999972
 49
31.75
 74
0
 49
-6.3499999999999996
 74
0
 49
6.3499999999999996
 74
0
 49
-6.3499999999999996
 74
0
  0
LTYPE
  5
3E
100
AcDbSymbolTableRecord
100
AcDbLinetypeTableRecord
  2
CENTER2
 70
0
  3
Center (.5x) ___ _ ___ _ ___ _ ___ _ ___ _ ___
 72
65
 73
4
 40
28.5749999999999993
 49
19.0500000000000007
 74
0
 49
-3.1749999999999998
 74
0
 49
3.1749999999999998
 74
0
 49
-3.1749999999999998
 74
0
  0
LTYPE
  5
3F
100
AcDbSymbolTableRecord
100
AcDbLinetypeTableRecord
  2
CENTERX2
 70
0
  3
Center (2x) ________  __  ________  __  _____
 72
65
 73
4
 40
101.5999999999999943
 49
63.5
 74
0
 49
-12.6999999999999993
 74
0
 49
12.6999999999999993
 74
0
 49
-12.6999999999999993
 74
0
  0
LTYPE
  5
40
100
AcDbSymbolTableRecord
100
AcDbLinetypeTableRecord
  2
BORDER
 70
0
  3
Border __ __ . __ __ . __ __ . __ __ . __ __ .
 72
65
 73
6
 40
44.4500000000000028
 49
12.6999999999999993
 74
0
 49
-6.3499999999999996
 74
0
 49
12.6999999999999993
 74
0
 49
-6.3499999999999996
 74
0
 49
0.0
 74
0
 49
-6.3499999999999996
 74
0
  0
LTYPE
  5
41
100
AcDbSymbolTableRecord
100
AcDbLinetypeTableRecord
  2
BORDER2
 70
0
  3
Border (.5x) __.__.__.__.__.__.__.__.__.__.__.
 72
65
 73
6
 40
22.2250000000000014
 49
6.3499999999999996
 74
0
 49
-3.1749999999999998
 74
0
 49
6.3499999999999996
 74
0
 49
-3.1749999999999998
 74
0
 49
0.0
 74
0
 49
-3.1749999999999998
 74
0
  0
LTYPE
  5
42
100
AcDbSymbolTableRecord
100
AcDbLinetypeTableRecord
  2
BORDERX2
 70
0
  3
Border (2x) ____  ____  .  ____  ____  .  ___
 72
65
 73
6
 40
88.9000000000000057
 49
25.3999999999999986
 74
0
 49
-12.6999999999999993
 74
0
 49
25.3999999999999986
 74
0
 49
-12.6999999999999993
 74
0
 49
0.0
 74
0
 49
-12.6999999999999993
 74
0
  0
ENDTAB
  0
TABLE
  2
LAYER
  5
2
100
AcDbSymbolTable
 70
3
  0
LAYER
  5
10
100
AcDbSymbolTableRecord
100
AcDbLayerTableRecord
  2
0
 70
0
 62
7
  6
CONTINUOUS
370
0
390
F
  0
LAYER
  5
43
100
AcDbSymbolTableRecord
100
AcDbLayerTableRecord
  2
drawing
 70
0
 62
7
  6
CONTINUOUS
370
50
390
F
  0
LAYER
  5
44
100
AcDbSymbolTableRecord
100
AcDbLayerTableRecord
  2
helper
 70
0
 62
2
  6
DASHEDX2
370
0
390
F
  0
ENDTAB
  0
TABLE
  2
STYLE
  5
3
100
AcDbSymbolTable
 70
1
  0
STYLE
  5
11
100
AcDbSymbolTableRecord
100
AcDbTextStyleTableRecord
  2
Standard
 70
0
 40
0.0
 41
0.75
 50
0.0
 71
0
 42
2.5
  3
txt
  4

  0
ENDTAB
  0
TABLE
  2
VIEW
  5
6
100
AcDbSymbolTable
 70
0
  0
ENDTAB
  0
TABLE
  2
UCS
  5
7
100
AcDbSymbolTable
 70
0
  0
ENDTAB
  0
TABLE
  2
APPID
  5
9
100
AcDbSymbolTable
 70
1
  0
APPID
  5
12
100
AcDbSymbolTableRecord
100
AcDbRegAppTableRecord
  2
ACAD
 70
0
  0
ENDTAB
  0
TABLE
  2
DIMSTYLE
  5
A
100
AcDbSymbolTable
 70
1
100
AcDbDimStyleTable
 71
0
  0
DIMSTYLE
105
27
100
AcDbSymbolTableRecord
100
AcDbDimStyleTableRecord
  2
Standard
 41
2.5
 42
0.625
 43
3.75
 44
1.25
 70
0
 73
0
 74
0
 77
1
 78
8
140
5.0
141
2.5
143
0.03937007874016
147
0.625
171
3
172
1
271
2
272
2
274
3
278
44
283
0
284
8
340
11
  0
ENDTAB
  0
TABLE
  2
BLOCK_RECORD
  5
1
100
AcDbSymbolTable
 70
1
  0
BLOCK_RECORD
  5
1F
100
AcDbSymbolTableRecord
100
AcDbBlockTableRecord
  2
*Model_Space
340
22
  0
BLOCK_RECORD
  5
1B
100
AcDbSymbolTableRecord
100
AcDbBlockTableRecord
  2
*Paper_Space
340
1E
  0
BLOCK_RECORD
  5
23
100
AcDbSymbolTableRecord
100
AcDbBlockTableRecord
  2
*Paper_Space0
340
26
  0
BLOCK_RECORD
  5
45
100
AcDbSymbolTableRecord
100
AcDbBlockTableRecord
  2
motor-brushless
340
0
  0
BLOCK_RECORD
  5
46
100
AcDbSymbolTableRecord
100
AcDbBlockTableRecord
  2
motor-dc
340
0
  0
BLOCK_RECORD
  5
47
100
AcDbSymbolTableRecord
100
AcDbBlockTableRecord
  2
encoder
340
0
  0
BLOCK_RECORD
  5
48
100
AcDbSymbolTableRecord
100
AcDbBlockTableRecord
  2
end-switch
340
0
  0
BLOCK_RECORD
  5
49
100
AcDbSymbolTableRecord
100
AcDbBlockTableRecord
  2
solenoid
340
0
  0
BLOCK_RECORD
  5
4A
100
AcDbSymbolTableRecord
100
AcDbBlockTableRecord
  2
vac-relay
340
0
  0
BLOCK_RECORD
  5
4B
100
AcDbSymbolTableRecord
100
AcDbBlockTableRecord
  2
drive-eprivod
340
0
  0
BLOCK_RECORD
  5
4C
100
AcDbSymbolTableRecord
100
AcDbBlockTableRecord
  2
drive-escon-50-5
340
0
  0
BLOCK_RECORD
  5
4D
100
AcDbSymbolTableRecord
100
AcDbBlockTableRecord
  2
end-inductive-sensor
340
0
  0
ENDTAB
  0
ENDSEC
  0
SECTION
  2
BLOCKS
  0
BLOCK
  5
20
100
AcDbEntity
  8
0
100
AcDbBlockBegin
  2
*Model_Space
 70
0
 10
0.0
 20
0.0
 30
0.0
  3
*Model_Space
  1

  0
ENDBLK
  5
21
100
AcDbEntity
  8
0
100
AcDbBlockEnd
  0
BLOCK
  5
1C
100
AcDbEntity
 67
1
  8
0
100
AcDbBlockBegin
  2
*Paper_Space
 70
0
 10
0.0
 20
0.0
 30
0.0
  3
*Paper_Space
  1

  0
ENDBLK
  5
1D
100
AcDbEntity
 67
1
  8
0
100
AcDbBlockEnd
  0
BLOCK
  5
24
100
AcDbEntity
  8
0
100
AcDbBlockBegin
  2
*Paper_Space0
 70
0
 10
0.0
 20
0.0
 30
0.0
  3
*Paper_Space0
  1

  0
ENDBLK
  5
25
100
AcDbEntity
  8
0
100
AcDbBlockEnd
  0
BLOCK
  5
4E
100
AcDbEntity
  8
0
100
AcDbBlockBegin
  2
motor-brushless
 70
0
 10
0.0
 20
0.0
 30
0.0
  3
motor-brushless
  1

  0
LINE
  5
4F
100
AcDbEntity
100
AcDbLine
  8
drawing
 62
256
370
-1
  6
ByLayer
 10
-20.0
 20
0.0
 30
0.0
 11
20.0
 21
0.0
 31
0.0
  0
LINE
  5
50
100
AcDbEntity
100
AcDbLine
  8
drawing
 62
256
370
-1
  6
ByLayer
 10
20.0
 20
0.0
 30
0.0
 11
20.0
 21
70.0
 31
0.0
  0
LINE
  5
51
100
AcDbEntity
100
AcDbLine
  8
drawing
 62
256
370
-1
  6
ByLayer
 10
20.0
 20
70.0
 30
0.0
 11
-20.0
 21
70.0
 31
0.0
  0
LINE
  5
52
100
AcDbEntity
100
AcDbLine
  8
drawing
 62
256
370
-1
  6
ByLayer
 10
-20.0
 20
70.0
 30
0.0
 11
-20.0
 21
0.0
 31
0.0
  0
LINE
  5
53
100
AcDbEntity
100
AcDbLine
  8
drawing
 62
256
370
-1
  6
ByLayer
 10
-3.0
 20
70.0
 30
0.0
 11
-3.0
 21
90.0
 31
0.0
  0
LINE
  5
54
100
AcDbEntity
100
AcDbLine
  8
drawing
 62
256
370
-1
  6
ByLayer
 10
-3.0
 20
90.0
 30
0.0
 11
3.0
 21
90.0
 31
0.0
  0
LINE
  5
55
100
AcDbEntity
100
AcDbLine
  8
drawing
 62
256
370
-1
  6
ByLayer
 10
3.0
 20
90.0
 30
0.0
 11
3.0
 21
70.0
 31
0.0
  0
LINE
  5
56
100
AcDbEntity
100
AcDbLine
  8
drawing
 62
256
370
-1
  6
ByLayer
 10
-3.0
 20
0.0
 30
0.0
 11
-3.0
 21
-3.0
 31
0.0
  0
LINE
  5
57
100
AcDbEntity
100
AcDbLine
  8
drawing
 62
256
370
-1
  6
ByLayer
 10
-3.0
 20
-3.0
 30
0.0
 11
3.0
 21
-3.0
 31
0.0
  0
LINE
  5
58
100
AcDbEntity
100
AcDbLine
  8
drawing
 62
256
370
-1
  6
ByLayer
 10
3.0
 20
-3.0
 30
0.0
 11
3.0
 21
0.0
 31
0.0
  0
LINE
  5
59
100
AcDbEntity
100
AcDbLine
  8
drawing
 62
256
370
-1
  6
ByLayer
 10
-20.0
 20
20.0
 30
0.0
 11
-30.0
 21
20.0
 31
0.0
  0
LINE
  5
5A
100
AcDbEntity
100
AcDbLine
  8
drawing
 62
256
370
-1
  6
ByLayer
 10
-30.0
 20
20.0
 30
0.0
 11
-30.0
 21
0.0
 31
0.0
  0
LINE
  5
5B
100
AcDbEntity
100
AcDbLine
  8
drawing
 62
256
370
-1
  6
ByLayer
 10
-30.0
 20
0.0
 30
0.0
 11
-20.0
 21
0.0
 31
0.0
  0
LINE
  5
5C
100
AcDbEntity
100
AcDbLine
  8
drawing
 62
256
370
-1
  6
ByLayer
 10
-30.0
 20
10.0
 30
0.0
 11
-20.0
 21
10.0
 31
0.0
  0
CIRCLE
  5
5D
100
AcDbEntity
100
AcDbCircle
  8
drawing
 62
256
370
-1
  6
ByLayer
 10
-25.0
 20
5.0
 30
0.0
 40
3.1622776601683795
  0
CIRCLE
  5
5E
100
AcDbEntity
100
AcDbCircle
  8
drawing
 62
256
370
-1
  6
ByLayer
 10
-25.0
 20
15.0
 30
0.0
 40
3.1622776601683795
  0
LINE
  5
5F
100
AcDbEntity
100
AcDbLine
  8
drawing
 62
256
370
-1
  6
ByLayer
 10
-23.1456131740113165
 20
7.5614936071752368
 30
0.0
 11
-27.5614936071752368
 21
3.1456131740113307
 31
0.0
  0
LINE
  5
60
100
AcDbEntity
100
AcDbLine
  8
drawing
 62
256
370
-1
  6
ByLayer
 10
-26.8543868259886835
 20
2.4385063928247774
 30
0.0
 11
-22.4385063928247632
 21
6.8543868259886978
 31
0.0
  0
LINE
  5
61
100
AcDbEntity
100
AcDbLine
  8
drawing
 62
256
370
-1
  6
ByLayer
 10
-23.1456131740113165
 20
17.5614936071752368
 30
0.0
 11
-27.5614936071752368
 21
13.1456131740113307
 31
0.0
  0
LINE
  5
62
100
AcDbEntity
100
AcDbLine
  8
drawing
 62
256
370
-1
  6
ByLayer
 10
-26.8543868259886835
 20
12.4385063928247774
 30
0.0
 11
-22.4385063928247632
 21
16.8543868259886978
 31
0.0
  0
CIRCLE
  5
63
100
AcDbEntity
100
AcDbCircle
  8
drawing
 62
256
370
-1
  6
ByLayer
 10
-25.0
 20
25.0
 30
0.0
 40
3.1622776601683795
  0
LINE
  5
64
100
AcDbEntity
100
AcDbLine
  8
drawing
 62
256
370
-1
  6
ByLayer
 10
-23.1456131740113165
 20
27.5614936071752368
 30
0.0
 11
-27.5614936071752368
 21
23.1456131740113307
 31
0.0
  0
LINE
  5
65
100
AcDbEntity
100
AcDbLine
  8
drawing
 62
256
370
-1
  6
ByLayer
 10
-26.8543868259886835
 20
22.4385063928247774
 30
0.0
 11
-22.4385063928247632
 21
26.8543868259886978
 31
0.0
  0
LINE
  5
66
100
AcDbEntity
100
AcDbLine
  8
drawing
 62
256
370
-1
  6
ByLayer
 10
-30.0
 20
20.0
 30
0.0
 11
-30.0
 21
30.0
 31
0.0
  0
LINE
  5
67
100
AcDbEntity
100
AcDbLine
  8
drawing
 62
256
370
-1
  6
ByLayer
 10
-30.0
 20
30.0
 30
0.0
 11
-20.0
 21
30.0
 31
0.0
  0
ENDBLK
  5
68
100
AcDbEntity
  8
0
100
AcDbBlockEnd
  0
BLOCK
  5
69
100
AcDbEntity
  8
0
100
AcDbBlockBegin
  2
motor-dc
 70
0
 10
0.0
 20
0.0
 30
0.0
  3
motor-dc
  1

  0
LINE
  5
6A
100
AcDbEntity
100
AcDbLine
  8
drawing
 62
256
370
-1
  6
ByLayer
 10
-20.0
 20
0.0
 30
0.0
 11
20.0
 21
0.0
 31
0.0
  0
LINE
  5
6B
100
AcDbEntity
100
AcDbLine
  8
drawing
 62
256
370
-1
  6
ByLayer
 10
20.0
 20
0.0
 30
0.0
 11
20.0
 21
70.0
 31
0.0
  0
LINE
  5
6C
100
AcDbEntity
100
AcDbLine
  8
drawing
 62
256
370
-1
  6
ByLayer
 10
20.0
 20
70.0
 30
0.0
 11
-20.0
 21
70.0
 31
0.0
  0
LINE
  5
6D
100
AcDbEntity
100
AcDbLine
  8
drawing
 62
256
370
-1
  6
ByLayer
 10
-20.0
 20
70.0
 30
0.0
 11
-20.0
 21
0.0
 31
0.0
  0
LINE
  5
6E
100
AcDbEntity
100
AcDbLine
  8
drawing
 62
256
370
-1
  6
ByLayer
 10
-3.0
 20
70.0
 30
0.0
 11
-3.0
 21
90.0
 31
0.0
  0
LINE
  5
6F
100
AcDbEntity
100
AcDbLine
  8
drawing
 62
256
370
-1
  6
ByLayer
 10
-3.0
 20
90.0
 30
0.0
 11
3.0
 21
90.0
 31
0.0
  0
LINE
  5
70
100
AcDbEntity
100
AcDbLine
  8
drawing
 62
256
370
-1
  6
ByLayer
 10
3.0
 20
90.0
 30
0.0
 11
3.0
 21
70.0
 31
0.0
  0
LINE
  5
71
100
AcDbEntity
100
AcDbLine
  8
drawing
 62
256
370
-1
  6
ByLayer
 10
-3.0
 20
0.0
 30
0.0
 11
-3.0
 21
-3.0
 31
0.0
  0
LINE
  5
72
100
AcDbEntity
100
AcDbLine
  8
drawing
 62
256
370
-1
  6
ByLayer
 10
-3.0
 20
-3.0
 30
0.0
 11
3.0
 21
-3.0
 31
0.0
  0
LINE
  5
73
100
AcDbEntity
100
AcDbLine
  8
drawing
 62
256
370
-1
  6
ByLayer
 10
3.0
 20
-3.0
 30
0.0
 11
3.0
 21
0.0
 31
0.0
  0
LINE
  5
74
100
AcDbEntity
100
AcDbLine
  8
drawing
 62
256
370
-1
  6
ByLayer
 10
-20.0
 20
20.0
 30
0.0
 11
-30.0
 21
20.0
 31
0.0
  0
LINE
  5
75
100
AcDbEntity
100
AcDbLine
  8
drawing
 62
256
370
-1
  6
ByLayer
 10
-30.0
 20
20.0
 30
0.0
 11
-30.0
 21
0.0
 31
0.0
  0
LINE
  5
76
100
AcDbEntity
100
AcDbLine
  8
drawing
 62
256
370
-1
  6
ByLayer
 10
-30.0
 20
0.0
 30
0.0
 11
-20.0
 21
0.0
 31
0.0
  0
LINE
  5
77
100
AcDbEntity
100
AcDbLine
  8
drawing
 62
256
370
-1
  6
ByLayer
 10
-30.0
 20
10.0
 30
0.0
 11
-20.0
 21
10.0
 31
0.0
  0
CIRCLE
  5
78
100
AcDbEntity
100
AcDbCircle
  8
drawing
 62
256
370
-1
  6
ByLayer
 10
-25.0
 20
5.0
 30
0.0
 40
3.1622776601683795
  0
CIRCLE
  5
79
100
AcDbEntity
100
AcDbCircle
  8
drawing
 62
256
370
-1
  6
ByLayer
 10
-25.0
 20
15.0
 30
0.0
 40
3.1622776601683795
  0
LINE
  5
7A
100
AcDbEntity
100
AcDbLine
  8
drawing
 62
256
370
-1
  6
ByLayer
 10
-23.1456131740113165
 20
7.5614936071752368
 30
0.0
 11
-27.5614936071752368
 21
3.1456131740113307
 31
0.0
  0
LINE
  5
7B
100
AcDbEntity
100
AcDbLine
  8
drawing
 62
256
370
-1
  6
ByLayer
 10
-26.8543868259886978
 20
2.4385063928247774
 30
0.0
 11
-22.4385063928247774
 21
6.8543868259886978
 31
0.0
  0
LINE
  5
7C
100
AcDbEntity
100
AcDbLine
  8
drawing
 62
256
370
-1
  6
ByLayer
 10
-23.1456131740113165
 20
17.5614936071752368
 30
0.0
 11
-27.5614936071752368
 21
13.1456131740113307
 31
0.0
  0
LINE
  5
7D
100
AcDbEntity
100
AcDbLine
  8
drawing
 62
256
370
-1
  6
ByLayer
 10
-26.8543868259886978
 20
12.4385063928247774
 30
0.0
 11
-22.4385063928247774
 21
16.8543868259886978
 31
0.0
  0
ENDBLK
  5
7E
100
AcDbEntity
  8
0
100
AcDbBlockEnd
  0
BLOCK
  5
7F
100
AcDbEntity
  8
0
100
AcDbBlockBegin
  2
encoder
 70
0
 10
0.0
 20
0.0
 30
0.0
  3
encoder
  1

  0
LINE
  5
80
100
AcDbEntity
100
AcDbLine
  8
drawing
 62
256
370
-1
  6
ByLayer
 10
-20.0
 20
0.0
 30
0.0
 11
-20.0
 21
20.0
 31
0.0
  0
LINE
  5
81
100
AcDbEntity
100
AcDbLine
  8
drawing
 62
256
370
-1
  6
ByLayer
 10
-20.0
 20
20.0
 30
0.0
 11
20.0
 21
20.0
 31
0.0
  0
LINE
  5
82
100
AcDbEntity
100
AcDbLine
  8
drawing
 62
256
370
-1
  6
ByLayer
 10
20.0
 20
20.0
 30
0.0
 11
20.0
 21
0.0
 31
0.0
  0
LINE
  5
83
100
AcDbEntity
100
AcDbLine
  8
drawing
 62
256
370
-1
  6
ByLayer
 10
20.0
 20
0.0
 30
0.0
 11
-20.0
 21
0.0
 31
0.0
  0
LINE
  5
84
100
AcDbEntity
100
AcDbLine
  8
drawing
 62
256
370
-1
  6
ByLayer
 10
-3.0
 20
20.0
 30
0.0
 11
-3.0
 21
26.0
 31
0.0
  0
LINE
  5
85
100
AcDbEntity
100
AcDbLine
  8
drawing
 62
256
370
-1
  6
ByLayer
 10
-3.0
 20
26.0
 30
0.0
 11
3.0
 21
26.0
 31
0.0
  0
LINE
  5
86
100
AcDbEntity
100
AcDbLine
  8
drawing
 62
256
370
-1
  6
ByLayer
 10
3.0
 20
26.0
 30
0.0
 11
3.0
 21
20.0
 31
0.0
  0
LINE
  5
87
100
AcDbEntity
100
AcDbLine
  8
drawing
 62
256
370
-1
  6
ByLayer
 10
-24.0
 20
3.0
 30
0.0
 11
-24.0
 21
15.0
 31
0.0
  0
LINE
  5
88
100
AcDbEntity
100
AcDbLine
  8
drawing
 62
256
370
-1
  6
ByLayer
 10
-20.0
 20
15.0
 30
0.0
 11
-20.0
 21
3.0
 31
0.0
  0
LINE
  5
89
100
AcDbEntity
100
AcDbLine
  8
drawing
 62
256
370
-1
  6
ByLayer
 10
-20.0
 20
3.0
 30
0.0
 11
-24.0
 21
3.0
 31
0.0
  0
LINE
  5
8A
100
AcDbEntity
100
AcDbLine
  8
drawing
 62
256
370
-1
  6
ByLayer
 10
-24.0
 20
14.0
 30
0.0
 11
-20.0
 21
14.0
 31
0.0
  0
LINE
  5
8B
100
AcDbEntity
100
AcDbLine
  8
drawing
 62
256
370
-1
  6
ByLayer
 10
-24.0
 20
12.0
 30
0.0
 11
-20.0
 21
12.0
 31
0.0
  0
LINE
  5
8C
100
AcDbEntity
100
AcDbLine
  8
drawing
 62
256
370
-1
  6
ByLayer
 10
-20.0
 20
10.0
 30
0.0
 11
-24.0
 21
10.0
 31
0.0
  0
LINE
  5
8D
100
AcDbEntity
100
AcDbLine
  8
drawing
 62
256
370
-1
  6
ByLayer
 10
-24.0
 20
8.0
 30
0.0
 11
-20.0
 21
8.0
 31
0.0
  0
LINE
  5
8E
100
AcDbEntity
100
AcDbLine
  8
drawing
 62
256
370
-1
  6
ByLayer
 10
-20.0
 20
6.0
 30
0.0
 11
-24.0
 21
6.0
 31
0.0
  0
LINE
  5
8F
100
AcDbEntity
100
AcDbLine
  8
drawing
 62
256
370
-1
  6
ByLayer
 10
-20.0
 20
4.0
 30
0.0
 11
-24.0
 21
4.0
 31
0.0
  0
LINE
  5
90
100
AcDbEntity
100
AcDbLine
  8
drawing
 62
256
370
-1
  6
ByLayer
 10
-24.0
 20
16.0
 30
0.0
 11
-20.0
 21
16.0
 31
0.0
  0
LINE
  5
91
100
AcDbEntity
100
AcDbLine
  8
drawing
 62
256
370
-1
  6
ByLayer
 10
-24.0
 20
15.0
 30
0.0
 11
-24.0
 21
17.0
 31
0.0
  0
LINE
  5
92
100
AcDbEntity
100
AcDbLine
  8
drawing
 62
256
370
-1
  6
ByLayer
 10
-24.0
 20
17.0
 30
0.0
 11
-20.0
 21
17.0
 31
0.0
  0
LINE
  5
93
100
AcDbEntity
100
AcDbLine
  8
drawing
 62
256
370
-1
  6
ByLayer
 10
-20.0
 20
17.0
 30
0.0
 11
-20.0
 21
15.0
 31
0.0
  0
LINE
  5
94
100
AcDbEntity
100
AcDbLine
  8
drawing
 62
256
370
-1
  6
ByLayer
 10
-22.0
 20
16.0
 30
0.0
 11
-22.0
 21
4.0
 31
0.0
  0
LINE
  5
95
100
AcDbEntity
100
AcDbLine
  8
drawing
 62
256
370
-1
  6
ByLayer
 10
-24.0
 20
12.0
 30
0.0
 11
-25.0
 21
12.0
 31
0.0
  0
LINE
  5
96
100
AcDbEntity
100
AcDbLine
  8
drawing
 62
256
370
-1
  6
ByLayer
 10
-25.0
 20
12.0
 30
0.0
 11
-25.0
 21
8.0
 31
0.0
  0
LINE
  5
97
100
AcDbEntity
100
AcDbLine
  8
drawing
 62
256
370
-1
  6
ByLayer
 10
-25.0
 20
8.0
 30
0.0
 11
-24.0
 21
8.0
 31
0.0
  0
ENDBLK
  5
98
100
AcDbEntity
  8
0
100
AcDbBlockEnd
  0
BLOCK
  5
99
100
AcDbEntity
  8
0
100
AcDbBlockBegin
  2
end-switch
 70
0
 10
0.0
 20
0.0
 30
0.0
  3
end-switch
  1

  0
LINE
  5
9A
100
AcDbEntity
100
AcDbLine
  8
drawing
 62
256
370
-1
  6
ByLayer
 10
0.0
 20
10.0
 30
0.0
 11
30.0
 21
10.0
 31
0.0
  0
LINE
  5
9B
100
AcDbEntity
100
AcDbLine
  8
drawing
 62
256
370
-1
  6
ByLayer
 10
30.0
 20
10.0
 30
0.0
 11
30.0
 21
-10.0
 31
0.0
  0
LINE
  5
9C
100
AcDbEntity
100
AcDbLine
  8
drawing
 62
256
370
-1
  6
ByLayer
 10
30.0
 20
-10.0
 30
0.0
 11
0.0
 21
-10.0
 31
0.0
  0
LINE
  5
9D
100
AcDbEntity
100
AcDbLine
  8
drawing
 62
256
370
-1
  6
ByLayer
 10
0.0
 20
-10.0
 30
0.0
 11
0.0
 21
10.0
 31
0.0
  0
LINE
  5
9E
100
AcDbEntity
100
AcDbLine
  8
drawing
 62
256
370
-1
  6
ByLayer
 10
0.0
 20
5.0
 30
0.0
 11
-10.0
 21
5.0
 31
0.0
  0
LINE
  5
9F
100
AcDbEntity
100
AcDbLine
  8
drawing
 62
256
370
-1
  6
ByLayer
 10
-10.0
 20
5.0
 30
0.0
 11
-10.0
 21
4.0
 31
0.0
  0
LINE
  5
A0
100
AcDbEntity
100
AcDbLine
  8
drawing
 62
256
370
-1
  6
ByLayer
 10
-10.0
 20
4.0
 30
0.0
 11
0.0
 21
4.0
 31
0.0
  0
LINE
  5
A1
100
AcDbEntity
100
AcDbLine
  8
drawing
 62
256
370
-1
  6
ByLayer
 10
0.0
 20
-4.0
 30
0.0
 11
-10.0
 21
-4.0
 31
0.0
  0
LINE
  5
A2
100
AcDbEntity
100
AcDbLine
  8
drawing
 62
256
370
-1
  6
ByLayer
 10
-10.0
 20
-4.0
 30
0.0
 11
-10.0
 21
-5.0
 31
0.0
  0
LINE
  5
A3
100
AcDbEntity
100
AcDbLine
  8
drawing
 62
256
370
-1
  6
ByLayer
 10
-10.0
 20
-5.0
 30
0.0
 11
0.0
 21
-5.0
 31
0.0
  0
LINE
  5
A4
100
AcDbEntity
100
AcDbLine
  8
drawing
 62
256
370
-1
  6
ByLayer
 10
0.0
 20
-5.0
 30
0.0
 11
0.0
 21
-5.0
 31
0.0
  0
LINE
  5
A5
100
AcDbEntity
100
AcDbLine
  8
drawing
 62
256
370
-1
  6
ByLayer
 10
5.0
 20
-2.0
 30
0.0
 11
10.0
 21
-2.0
 31
0.0
  0
LINE
  5
A6
100
AcDbEntity
100
AcDbLine
  8
drawing
 62
256
370
-1
  6
ByLayer
 10
20.0
 20
-2.0
 30
0.0
 11
25.0
 21
-2.0
 31
0.0
  0
LINE
  5
A7
100
AcDbEntity
100
AcDbLine
  8
drawing
 62
256
370
-1
  6
ByLayer
 10
10.0
 20
-2.0
 30
0.0
 11
18.6602540378444246
 21
3.0
 31
0.0
  0
ENDBLK
  5
A8
100
AcDbEntity
  8
0
100
AcDbBlockEnd
  0
BLOCK
  5
A9
100
AcDbEntity
  8
0
100
AcDbBlockBegin
  2
solenoid
 70
0
 10
0.0
 20
0.0
 30
0.0
  3
solenoid
  1

  0
LINE
  5
AA
100
AcDbEntity
100
AcDbLine
  8
drawing
 62
256
370
-1
  6
ByLayer
 10
0.0
 20
-10.0
 30
0.0
 11
0.0
 21
10.0
 31
0.0
  0
LINE
  5
AB
100
AcDbEntity
100
AcDbLine
  8
drawing
 62
256
370
-1
  6
ByLayer
 10
0.0
 20
10.0
 30
0.0
 11
30.0
 21
10.0
 31
0.0
  0
LINE
  5
AC
100
AcDbEntity
100
AcDbLine
  8
drawing
 62
256
370
-1
  6
ByLayer
 10
30.0
 20
10.0
 30
0.0
 11
30.0
 21
-10.0
 31
0.0
  0
LINE
  5
AD
100
AcDbEntity
100
AcDbLine
  8
drawing
 62
256
370
-1
  6
ByLayer
 10
30.0
 20
-10.0
 30
0.0
 11
0.0
 21
-10.0
 31
0.0
  0
LINE
  5
AE
100
AcDbEntity
100
AcDbLine
  8
drawing
 62
256
370
-1
  6
ByLayer
 10
0.0
 20
-5.0
 30
0.0
 11
-10.0
 21
-5.0
 31
0.0
  0
LINE
  5
AF
100
AcDbEntity
100
AcDbLine
  8
drawing
 62
256
370
-1
  6
ByLayer
 10
-10.0
 20
-5.0
 30
0.0
 11
-10.0
 21
5.0
 31
0.0
  0
LINE
  5
B0
100
AcDbEntity
100
AcDbLine
  8
drawing
 62
256
370
-1
  6
ByLayer
 10
-10.0
 20
5.0
 30
0.0
 11
0.0
 21
5.0
 31
0.0
  0
LINE
  5
B1
100
AcDbEntity
100
AcDbLine
  8
drawing
 62
256
370
-1
  6
ByLayer
 10
0.0
 20
-7.0
 30
0.0
 11
-10.0
 21
-7.0
 31
0.0
  0
LINE
  5
B2
100
AcDbEntity
100
AcDbLine
  8
drawing
 62
256
370
-1
  6
ByLayer
 10
-10.0
 20
-7.0
 30
0.0
 11
-10.0
 21
-8.0
 31
0.0
  0
LINE
  5
B3
100
AcDbEntity
100
AcDbLine
  8
drawing
 62
256
370
-1
  6
ByLayer
 10
-10.0
 20
-8.0
 30
0.0
 11
0.0
 21
-8.0
 31
0.0
  0
LINE
  5
B4
100
AcDbEntity
100
AcDbLine
  8
drawing
 62
256
370
-1
  6
ByLayer
 10
0.0
 20
7.0
 30
0.0
 11
-10.0
 21
7.0
 31
0.0
  0
LINE
  5
B5
100
AcDbEntity
100
AcDbLine
  8
drawing
 62
256
370
-1
  6
ByLayer
 10
-10.0
 20
7.0
 30
0.0
 11
-10.0
 21
8.0
 31
0.0
  0
LINE
  5
B6
100
AcDbEntity
100
AcDbLine
  8
drawing
 62
256
370
-1
  6
ByLayer
 10
-10.0
 20
8.0
 30
0.0
 11
0.0
 21
8.0
 31
0.0
  0
CIRCLE
  5
B7
100
AcDbEntity
100
AcDbCircle
  8
drawing
 62
256
370
-1
  6
ByLayer
 10
-7.0
 20
0.0
 30
0.0
 40
1.0
  0
LINE
  5
B8
100
AcDbEntity
100
AcDbLine
  8
drawing
 62
256
370
-1
  6
ByLayer
 10
-8.0
 20
7.0
 30
0.0
 11
-8.0
 21
8.0
 31
0.0
  0
LINE
  5
B9
100
AcDbEntity
100
AcDbLine
  8
drawing
 62
256
370
-1
  6
ByLayer
 10
-6.0
 20
7.0
 30
0.0
 11
-6.0
 21
8.0
 31
0.0
  0
LINE
  5
BA
100
AcDbEntity
100
AcDbLine
  8
drawing
 62
256
370
-1
  6
ByLayer
 10
-8.0
 20
-7.0
 30
0.0
 11
-8.0
 21
-8.0
 31
0.0
  0
LINE
  5
BB
100
AcDbEntity
100
AcDbLine
  8
drawing
 62
256
370
-1
  6
ByLayer
 10
-6.0
 20
-7.0
 30
0.0
 11
-6.0
 21
-8.0
 31
0.0
  0
ARC
  5
BC
100
AcDbEntity
  8
drawing
 62
256
370
-1
  6
ByLayer
100
AcDbCircle
 10
5.0
 20
-1.0
 30
0.0
 40
2.0
100
AcDbArc
 50
0.0
 51
180.0
  0
ARC
  5
BD
100
AcDbEntity
  8
drawing
 62
256
370
-1
  6
ByLayer
100
AcDbCircle
 10
9.0
 20
-1.0
 30
0.0
 40
2.0
100
AcDbArc
 50
0.0
 51
180.0
  0
ARC
  5
BE
100
AcDbEntity
  8
drawing
 62
256
370
-1
  6
ByLayer
100
AcDbCircle
 10
13.0
 20
-1.0
 30
0.0
 40
2.0
100
AcDbArc
 50
0.0
 51
180.0
  0
ARC
  5
BF
100
AcDbEntity
  8
drawing
 62
256
370
-1
  6
ByLayer
100
AcDbCircle
 10
17.0
 20
-1.0
 30
0.0
 40
2.0
100
AcDbArc
 50
0.0
 51
180.0
  0
ARC
  5
C0
100
AcDbEntity
  8
drawing
 62
256
370
-1
  6
ByLayer
100
AcDbCircle
 10
21.0
 20
-1.0
 30
0.0
 40
2.0
100
AcDbArc
 50
0.0
 51
180.0
  0
ARC
  5
C1
100
AcDbEntity
  8
drawing
 62
256
370
-1
  6
ByLayer
100
AcDbCircle
 10
25.0
 20
-1.0
 30
0.0
 40
2.0
100
AcDbArc
 50
0.0
 51
180.0
  0
ENDBLK
  5
C2
100
AcDbEntity
  8
0
100
AcDbBlockEnd
  0
BLOCK
  5
C3
100
AcDbEntity
  8
0
100
AcDbBlockBegin
  2
vac-relay
 70
0
 10
0.0
 20
0.0
 30
0.0
  3
vac-relay
  1

  0
LINE
  5
C4
100
AcDbEntity
100
AcDbLine
  8
drawing
 62
256
370
-1
  6
ByLayer
 10
0.0
 20
-10.0
 30
0.0
 11
0.0
 21
10.0
 31
0.0
  0
LINE
  5
C5
100
AcDbEntity
100
AcDbLine
  8
drawing
 62
256
370
-1
  6
ByLayer
 10
0.0
 20
10.0
 30
0.0
 11
30.0
 21
10.0
 31
0.0
  0
LINE
  5
C6
100
AcDbEntity
100
AcDbLine
  8
drawing
 62
256
370
-1
  6
ByLayer
 10
30.0
 20
10.0
 30
0.0
 11
30.0
 21
-10.0
 31
0.0
  0
LINE
  5
C7
100
AcDbEntity
100
AcDbLine
  8
drawing
 62
256
370
-1
  6
ByLayer
 10
30.0
 20
-10.0
 30
0.0
 11
0.0
 21
-10.0
 31
0.0
  0
LINE
  5
C8
100
AcDbEntity
100
AcDbLine
  8
drawing
 62
256
370
-1
  6
ByLayer
 10
0.0
 20
-5.0
 30
0.0
 11
-10.0
 21
-5.0
 31
0.0
  0
LINE
  5
C9
100
AcDbEntity
100
AcDbLine
  8
drawing
 62
256
370
-1
  6
ByLayer
 10
-10.0
 20
-5.0
 30
0.0
 11
-10.0
 21
5.0
 31
0.0
  0
LINE
  5
CA
100
AcDbEntity
100
AcDbLine
  8
drawing
 62
256
370
-1
  6
ByLayer
 10
-10.0
 20
5.0
 30
0.0
 11
0.0
 21
5.0
 31
0.0
  0
LINE
  5
CB
100
AcDbEntity
100
AcDbLine
  8
drawing
 62
256
370
-1
  6
ByLayer
 10
0.0
 20
-7.0
 30
0.0
 11
-10.0
 21
-7.0
 31
0.0
  0
LINE
  5
CC
100
AcDbEntity
100
AcDbLine
  8
drawing
 62
256
370
-1
  6
ByLayer
 10
-10.0
 20
-7.0
 30
0.0
 11
-10.0
 21
-8.0
 31
0.0
  0
LINE
  5
CD
100
AcDbEntity
100
AcDbLine
  8
drawing
 62
256
370
-1
  6
ByLayer
 10
-10.0
 20
-8.0
 30
0.0
 11
0.0
 21
-8.0
 31
0.0
  0
LINE
  5
CE
100
AcDbEntity
100
AcDbLine
  8
drawing
 62
256
370
-1
  6
ByLayer
 10
0.0
 20
7.0
 30
0.0
 11
-10.0
 21
7.0
 31
0.0
  0
LINE
  5
CF
100
AcDbEntity
100
AcDbLine
  8
drawing
 62
256
370
-1
  6
ByLayer
 10
-10.0
 20
7.0
 30
0.0
 11
-10.0
 21
8.0
 31
0.0
  0
LINE
  5
D0
100
AcDbEntity
100
AcDbLine
  8
drawing
 62
256
370
-1
  6
ByLayer
 10
-10.0
 20
8.0
 30
0.0
 11
0.0
 21
8.0
 31
0.0
  0
CIRCLE
  5
D1
100
AcDbEntity
100
AcDbCircle
  8
drawing
 62
256
370
-1
  6
ByLayer
 10
-7.0
 20
0.0
 30
0.0
 40
1.0
  0
LINE
  5
D2
100
AcDbEntity
100
AcDbLine
  8
drawing
 62
256
370
-1
  6
ByLayer
 10
-8.0
 20
7.0
 30
0.0
 11
-8.0
 21
8.0
 31
0.0
  0
LINE
  5
D3
100
AcDbEntity
100
AcDbLine
  8
drawing
 62
256
370
-1
  6
ByLayer
 10
-6.0
 20
7.0
 30
0.0
 11
-6.0
 21
8.0
 31
0.0
  0
LINE
  5
D4
100
AcDbEntity
100
AcDbLine
  8
drawing
 62
256
370
-1
  6
ByLayer
 10
-8.0
 20
-7.0
 30
0.0
 11
-8.0
 21
-8.0
 31
0.0
  0
LINE
  5
D5
100
AcDbEntity
100
AcDbLine
  8
drawing
 62
256
370
-1
  6
ByLayer
 10
-6.0
 20
-7.0
 30
0.0
 11
-6.0
 21
-8.0
 31
0.0
  0
LINE
  5
D6
100
AcDbEntity
100
AcDbLine
  8
drawing
 62
256
370
-1
  6
ByLayer
 10
4.0
 20
-3.0
 30
0.0
 11
13.0
 21
-3.0
 31
0.0
  0
LINE
  5
D7
100
AcDbEntity
100
AcDbLine
  8
drawing
 62
256
370
-1
  6
ByLayer
 10
13.0
 20
-3.0
 30
0.0
 11
13.0
 21
1.0
 31
0.0
  0
LINE
  5
D8
100
AcDbEntity
100
AcDbLine
  8
drawing
 62
256
370
-1
  6
ByLayer
 10
17.0
 20
1.0
 30
0.0
 11
17.0
 21
-3.0
 31
0.0
  0
LINE
  5
D9
100
AcDbEntity
100
AcDbLine
  8
drawing
 62
256
370
-1
  6
ByLayer
 10
17.0
 20
-3.0
 30
0.0
 11
26.0
 21
-3.0
 31
0.0
  0
LINE
  5
DA
100
AcDbEntity
100
AcDbLine
  8
drawing
 62
256
370
-1
  6
ByLayer
 10
16.0
 20
-1.0
 30
0.0
 11
14.0
 21
-1.0
 31
0.0
  0
LINE
  5
DB
100
AcDbEntity
100
AcDbLine
  8
drawing
 62
256
370
-1
  6
ByLayer
 10
14.0
 20
-1.0
 30
0.0
 11
14.0
 21
2.0
 31
0.0
  0
LINE
  5
DC
100
AcDbEntity
100
AcDbLine
  8
drawing
 62
256
370
-1
  6
ByLayer
 10
14.0
 20
2.0
 30
0.0
 11
12.0
 21
2.0
 31
0.0
  0
LINE
  5
DD
100
AcDbEntity
100
AcDbLine
  8
drawing
 62
256
370
-1
  6
ByLayer
 10
16.0
 20
-1.0
 30
0.0
 11
16.0
 21
2.0
 31
0.0
  0
LINE
  5
DE
100
AcDbEntity
100
AcDbLine
  8
drawing
 62
256
370
-1
  6
ByLayer
 10
16.0
 20
2.0
 30
0.0
 11
18.0
 21
2.0
 31
0.0
  0
ENDBLK
  5
DF
100
AcDbEntity
  8
0
100
AcDbBlockEnd
  0
BLOCK
  5
E0
100
AcDbEntity
  8
0
100
AcDbBlockBegin
  2
drive-eprivod
 70
0
 10
0.0
 20
0.0
 30
0.0
  3
drive-eprivod
  1

  0
LINE
  5
E1
100
AcDbEntity
100
AcDbLine
  8
drawing
 62
256
370
-1
  6
ByLayer
 10
0.0
 20
100.0
 30
0.0
 11
0.0
 21
0.0
 31
0.0
  0
LINE
  5
E2
100
AcDbEntity
100
AcDbLine
  8
drawing
 62
256
370
-1
  6
ByLayer
 10
0.0
 20
0.0
 30
0.0
 11
-50.0
 21
0.0
 31
0.0
  0
LINE
  5
E3
100
AcDbEntity
100
AcDbLine
  8
drawing
 62
256
370
-1
  6
ByLayer
 10
-50.0
 20
0.0
 30
0.0
 11
-50.0
 21
100.0
 31
0.0
  0
LINE
  5
E4
100
AcDbEntity
100
AcDbLine
  8
drawing
 62
256
370
-1
  6
ByLayer
 10
-50.0
 20
40.0
 30
0.0
 11
-60.0
 21
40.0
 31
0.0
  0
LINE
  5
E5
100
AcDbEntity
100
AcDbLine
  8
drawing
 62
256
370
-1
  6
ByLayer
 10
-60.0
 20
40.0
 30
0.0
 11
-60.0
 21
50.0
 31
0.0
  0
LINE
  5
E6
100
AcDbEntity
100
AcDbLine
  8
drawing
 62
256
370
-1
  6
ByLayer
 10
-60.0
 20
50.0
 30
0.0
 11
-50.0
 21
50.0
 31
0.0
  0
LINE
  5
E7
100
AcDbEntity
100
AcDbLine
  8
drawing
 62
256
370
-1
  6
ByLayer
 10
-60.0
 20
50.0
 30
0.0
 11
-60.0
 21
60.0
 31
0.0
  0
LINE
  5
E8
100
AcDbEntity
100
AcDbLine
  8
drawing
 62
256
370
-1
  6
ByLayer
 10
-60.0
 20
60.0
 30
0.0
 11
-50.0
 21
60.0
 31
0.0
  0
CIRCLE
  5
E9
100
AcDbEntity
100
AcDbCircle
  8
drawing
 62
256
370
-1
  6
ByLayer
 10
-55.0
 20
45.0
 30
0.0
 40
3.0
  0
CIRCLE
  5
EA
100
AcDbEntity
100
AcDbCircle
  8
drawing
 62
256
370
-1
  6
ByLayer
 10
-55.0
 20
55.0
 30
0.0
 40
3.0
  0
LINE
  5
EB
100
AcDbEntity
100
AcDbLine
  8
drawing
 62
256
370
-1
  6
ByLayer
 10
-56.7380966757417582
 20
42.5547965430714612
 30
0.0
 11
-52.5547965430715749
 21
46.7380966757418719
 31
0.0
  0
LINE
  5
EC
100
AcDbEntity
100
AcDbLine
  8
drawing
 62
256
370
-1
  6
ByLayer
 10
-53.2619033242581281
 20
47.4452034569285388
 30
0.0
 11
-57.4452034569283114
 21
43.2619033242581281
 31
0.0
  0
LINE
  5
ED
100
AcDbEntity
100
AcDbLine
  8
drawing
 62
256
370
-1
  6
ByLayer
 10
-56.7380966757417582
 20
52.5547965430714612
 30
0.0
 11
-52.5547965430715749
 21
56.7380966757418719
 31
0.0
  0
LINE
  5
EE
100
AcDbEntity
100
AcDbLine
  8
drawing
 62
256
370
-1
  6
ByLayer
 10
-53.2619033242581281
 20
57.4452034569285388
 30
0.0
 11
-57.4452034569283114
 21
53.2619033242581281
 31
0.0
  0
LINE
  5
EF
100
AcDbEntity
100
AcDbLine
  8
drawing
 62
256
370
-1
  6
ByLayer
 10
-50.0
 20
20.0
 30
0.0
 11
-60.0
 21
20.0
 31
0.0
  0
LINE
  5
F0
100
AcDbEntity
100
AcDbLine
  8
drawing
 62
256
370
-1
  6
ByLayer
 10
-60.0
 20
20.0
 30
0.0
 11
-60.0
 21
30.0
 31
0.0
  0
LINE
  5
F1
100
AcDbEntity
100
AcDbLine
  8
drawing
 62
256
370
-1
  6
ByLayer
 10
-60.0
 20
30.0
 30
0.0
 11
-50.0
 21
30.0
 31
0.0
  0
LINE
  5
F2
100
AcDbEntity
100
AcDbLine
  8
drawing
 62
256
370
-1
  6
ByLayer
 10
-60.0
 20
30.0
 30
0.0
 11
-60.0
 21
40.0
 31
0.0
  0
CIRCLE
  5
F3
100
AcDbEntity
100
AcDbCircle
  8
drawing
 62
256
370
-1
  6
ByLayer
 10
-55.0
 20
25.0
 30
0.0
 40
3.0
  0
CIRCLE
  5
F4
100
AcDbEntity
100
AcDbCircle
  8
drawing
 62
256
370
-1
  6
ByLayer
 10
-55.0
 20
35.0
 30
0.0
 40
3.0
  0
LINE
  5
F5
100
AcDbEntity
100
AcDbLine
  8
drawing
 62
256
370
-1
  6
ByLayer
 10
-56.7380966757417582
 20
22.5547965430714612
 30
0.0
 11
-52.5547965430715749
 21
26.7380966757418719
 31
0.0
  0
LINE
  5
F6
100
AcDbEntity
100
AcDbLine
  8
drawing
 62
256
370
-1
  6
ByLayer
 10
-53.2619033242581281
 20
27.4452034569285388
 30
0.0
 11
-57.4452034569283114
 21
23.2619033242581281
 31
0.0
  0
LINE
  5
F7
100
AcDbEntity
100
AcDbLine
  8
drawing
 62
256
370
-1
  6
ByLayer
 10
-56.7380966757417582
 20
32.5547965430714612
 30
0.0
 11
-52.5547965430715749
 21
36.7380966757418719
 31
0.0
  0
LINE
  5
F8
100
AcDbEntity
100
AcDbLine
  8
drawing
 62
256
370
-1
  6
ByLayer
 10
-53.2619033242581281
 20
37.4452034569285388
 30
0.0
 11
-57.4452034569283114
 21
33.2619033242581281
 31
0.0
  0
LINE
  5
F9
100
AcDbEntity
100
AcDbLine
  8
drawing
 62
256
370
-1
  6
ByLayer
 10
-50.0
 20
0.0
 30
0.0
 11
-60.0
 21
0.0
 31
0.0
  0
LINE
  5
FA
100
AcDbEntity
100
AcDbLine
  8
drawing
 62
256
370
-1
  6
ByLayer
 10
-60.0
 20
0.0
 30
0.0
 11
-60.0
 21
10.0
 31
0.0
  0
LINE
  5
FB
100
AcDbEntity
100
AcDbLine
  8
drawing
 62
256
370
-1
  6
ByLayer
 10
-60.0
 20
10.0
 30
0.0
 11
-50.0
 21
10.0
 31
0.0
  0
LINE
  5
FC
100
AcDbEntity
100
AcDbLine
  8
drawing
 62
256
370
-1
  6
ByLayer
 10
-60.0
 20
10.0
 30
0.0
 11
-60.0
 21
20.0
 31
0.0
  0
CIRCLE
  5
FD
100
AcDbEntity
100
AcDbCircle
  8
drawing
 62
256
370
-1
  6
ByLayer
 10
-55.0
 20
5.0
 30
0.0
 40
3.0
  0
CIRCLE
  5
FE
100
AcDbEntity
100
AcDbCircle
  8
drawing
 62
256
370
-1
  6
ByLayer
 10
-55.0
 20
15.0
 30
0.0
 40
3.0
  0
LINE
  5
FF
100
AcDbEntity
100
AcDbLine
  8
drawing
 62
256
370
-1
  6
ByLayer
 10
-56.7380966757417582
 20
2.5547965430714612
 30
0.0
 11
-52.5547965430715749
 21
6.7380966757418719
 31
0.0
  0
LINE
  5
100
100
AcDbEntity
100
AcDbLine
  8
drawing
 62
256
370
-1
  6
ByLayer
 10
-53.2619033242581281
 20
7.4452034569285388
 30
0.0
 11
-57.4452034569283114
 21
3.2619033242581281
 31
0.0
  0
LINE
  5
101
100
AcDbEntity
100
AcDbLine
  8
drawing
 62
256
370
-1
  6
ByLayer
 10
-56.7380966757417582
 20
12.5547965430714612
 30
0.0
 11
-52.5547965430715749
 21
16.7380966757418719
 31
0.0
  0
LINE
  5
102
100
AcDbEntity
100
AcDbLine
  8
drawing
 62
256
370
-1
  6
ByLayer
 10
-53.2619033242581281
 20
17.4452034569285388
 30
0.0
 11
-57.4452034569283114
 21
13.2619033242581281
 31
0.0
  0
LINE
  5
103
100
AcDbEntity
100
AcDbLine
  8
drawing
 62
256
370
-1
  6
ByLayer
 10
0.0
 20
30.0
 30
0.0
 11
10.0
 21
30.0
 31
0.0
  0
LINE
  5
104
100
AcDbEntity
100
AcDbLine
  8
drawing
 62
256
370
-1
  6
ByLayer
 10
10.0
 20
30.0
 30
0.0
 11
10.0
 21
20.0
 31
0.0
  0
LINE
  5
105
100
AcDbEntity
100
AcDbLine
  8
drawing
 62
256
370
-1
  6
ByLayer
 10
10.0
 20
20.0
 30
0.0
 11
0.0
 21
20.0
 31
0.0
  0
LINE
  5
106
100
AcDbEntity
100
AcDbLine
  8
drawing
 62
256
370
-1
  6
ByLayer
 10
10.0
 20
20.0
 30
0.0
 11
10.0
 21
10.0
 31
0.0
  0
LINE
  5
107
100
AcDbEntity
100
AcDbLine
  8
drawing
 62
256
370
-1
  6
ByLayer
 10
10.0
 20
10.0
 30
0.0
 11
0.0
 21
10.0
 31
0.0
  0
CIRCLE
  5
108
100
AcDbEntity
100
AcDbCircle
  8
drawing
 62
256
370
-1
  6
ByLayer
 10
5.0
 20
25.0
 30
0.0
 40
3.0
  0
CIRCLE
  5
109
100
AcDbEntity
100
AcDbCircle
  8
drawing
 62
256
370
-1
  6
ByLayer
 10
5.0
 20
15.0
 30
0.0
 40
3.0
  0
LINE
  5
10A
100
AcDbEntity
100
AcDbLine
  8
drawing
 62
256
370
-1
  6
ByLayer
 10
6.7380966757417582
 20
27.4452034569285388
 30
0.0
 11
2.5547965430715749
 21
23.2619033242581281
 31
0.0
  0
LINE
  5
10B
100
AcDbEntity
100
AcDbLine
  8
drawing
 62
256
370
-1
  6
ByLayer
 10
3.2619033242581281
 20
22.5547965430714612
 30
0.0
 11
7.4452034569283114
 21
26.7380966757420993
 31
0.0
  0
LINE
  5
10C
100
AcDbEntity
100
AcDbLine
  8
drawing
 62
256
370
-1
  6
ByLayer
 10
6.7380966757417582
 20
17.4452034569285388
 30
0.0
 11
2.5547965430715749
 21
13.2619033242581281
 31
0.0
  0
LINE
  5
10D
100
AcDbEntity
100
AcDbLine
  8
drawing
 62
256
370
-1
  6
ByLayer
 10
3.2619033242581281
 20
12.5547965430714612
 30
0.0
 11
7.4452034569283114
 21
16.7380966757420993
 31
0.0
  0
LINE
  5
10E
100
AcDbEntity
100
AcDbLine
  8
drawing
 62
256
370
-1
  6
ByLayer
 10
0.0
 20
97.0
 30
0.0
 11
4.0
 21
97.0
 31
0.0
  0
LINE
  5
10F
100
AcDbEntity
100
AcDbLine
  8
drawing
 62
256
370
-1
  6
ByLayer
 10
4.0
 20
97.0
 30
0.0
 11
4.0
 21
83.0
 31
0.0
  0
LINE
  5
110
100
AcDbEntity
100
AcDbLine
  8
drawing
 62
256
370
-1
  6
ByLayer
 10
4.0
 20
83.0
 30
0.0
 11
0.0
 21
83.0
 31
0.0
  0
LINE
  5
111
100
AcDbEntity
100
AcDbLine
  8
drawing
 62
256
370
-1
  6
ByLayer
 10
0.0
 20
83.0
 30
0.0
 11
0.0
 21
97.0
 31
0.0
  0
LINE
  5
112
100
AcDbEntity
100
AcDbLine
  8
drawing
 62
256
370
-1
  6
ByLayer
 10
0.0
 20
96.0
 30
0.0
 11
4.0
 21
96.0
 31
0.0
  0
LINE
  5
113
100
AcDbEntity
100
AcDbLine
  8
drawing
 62
256
370
-1
  6
ByLayer
 10
4.0
 20
94.0
 30
0.0
 11
0.0
 21
94.0
 31
0.0
  0
LINE
  5
114
100
AcDbEntity
100
AcDbLine
  8
drawing
 62
256
370
-1
  6
ByLayer
 10
0.0
 20
92.0
 30
0.0
 11
4.0
 21
92.0
 31
0.0
  0
LINE
  5
115
100
AcDbEntity
100
AcDbLine
  8
drawing
 62
256
370
-1
  6
ByLayer
 10
4.0
 20
90.0
 30
0.0
 11
0.0
 21
90.0
 31
0.0
  0
LINE
  5
116
100
AcDbEntity
100
AcDbLine
  8
drawing
 62
256
370
-1
  6
ByLayer
 10
0.0
 20
88.0
 30
0.0
 11
4.0
 21
88.0
 31
0.0
  0
LINE
  5
117
100
AcDbEntity
100
AcDbLine
  8
drawing
 62
256
370
-1
  6
ByLayer
 10
4.0
 20
86.0
 30
0.0
 11
0.0
 21
86.0
 31
0.0
  0
LINE
  5
118
100
AcDbEntity
100
AcDbLine
  8
drawing
 62
256
370
-1
  6
ByLayer
 10
0.0
 20
84.0
 30
0.0
 11
4.0
 21
84.0
 31
0.0
  0
LINE
  5
119
100
AcDbEntity
100
AcDbLine
  8
drawing
 62
256
370
-1
  6
ByLayer
 10
2.0
 20
84.0
 30
0.0
 11
2.0
 21
96.0
 31
0.0
  0
LINE
  5
11A
100
AcDbEntity
100
AcDbLine
  8
drawing
 62
256
370
-1
  6
ByLayer
 10
4.0
 20
88.0
 30
0.0
 11
5.0
 21
88.0
 31
0.0
  0
LINE
  5
11B
100
AcDbEntity
100
AcDbLine
  8
drawing
 62
256
370
-1
  6
ByLayer
 10
5.0
 20
88.0
 30
0.0
 11
5.0
 21
92.0
 31
0.0
  0
LINE
  5
11C
100
AcDbEntity
100
AcDbLine
  8
drawing
 62
256
370
-1
  6
ByLayer
 10
5.0
 20
92.0
 30
0.0
 11
4.0
 21
92.0
 31
0.0
  0
LINE
  5
11D
100
AcDbEntity
100
AcDbLine
  8
drawing
 62
256
370
-1
  6
ByLayer
 10
-50.0
 20
70.0
 30
0.0
 11
-60.0
 21
70.0
 31
0.0
  0
LINE
  5
11E
100
AcDbEntity
100
AcDbLine
  8
drawing
 62
256
370
-1
  6
ByLayer
 10
-60.0
 20
70.0
 30
0.0
 11
-60.0
 21
80.0
 31
0.0
  0
LINE
  5
11F
100
AcDbEntity
100
AcDbLine
  8
drawing
 62
256
370
-1
  6
ByLayer
 10
-60.0
 20
80.0
 30
0.0
 11
-50.0
 21
80.0
 31
0.0
  0
LINE
  5
120
100
AcDbEntity
100
AcDbLine
  8
drawing
 62
256
370
-1
  6
ByLayer
 10
-60.0
 20
80.0
 30
0.0
 11
-60.0
 21
90.0
 31
0.0
  0
LINE
  5
121
100
AcDbEntity
100
AcDbLine
  8
drawing
 62
256
370
-1
  6
ByLayer
 10
-60.0
 20
90.0
 30
0.0
 11
-50.0
 21
90.0
 31
0.0
  0
CIRCLE
  5
122
100
AcDbEntity
100
AcDbCircle
  8
drawing
 62
256
370
-1
  6
ByLayer
 10
-55.0
 20
75.0
 30
0.0
 40
3.0
  0
CIRCLE
  5
123
100
AcDbEntity
100
AcDbCircle
  8
drawing
 62
256
370
-1
  6
ByLayer
 10
-55.0
 20
85.0
 30
0.0
 40
3.0
  0
LINE
  5
124
100
AcDbEntity
100
AcDbLine
  8
drawing
 62
256
370
-1
  6
ByLayer
 10
-56.7380966757417582
 20
72.5547965430714612
 30
0.0
 11
-52.5547965430715749
 21
76.7380966757418719
 31
0.0
  0
LINE
  5
125
100
AcDbEntity
100
AcDbLine
  8
drawing
 62
256
370
-1
  6
ByLayer
 10
-53.2619033242581281
 20
77.4452034569285388
 30
0.0
 11
-57.4452034569283114
 21
73.2619033242581281
 31
0.0
  0
LINE
  5
126
100
AcDbEntity
100
AcDbLine
  8
drawing
 62
256
370
-1
  6
ByLayer
 10
-56.7380966757417582
 20
82.5547965430714612
 30
0.0
 11
-52.5547965430715749
 21
86.7380966757418719
 31
0.0
  0
LINE
  5
127
100
AcDbEntity
100
AcDbLine
  8
drawing
 62
256
370
-1
  6
ByLayer
 10
-53.2619033242581281
 20
87.4452034569285388
 30
0.0
 11
-57.4452034569283114
 21
83.2619033242581281
 31
0.0
  0
LINE
  5
128
100
AcDbEntity
100
AcDbLine
  8
drawing
 62
256
370
-1
  6
ByLayer
 10
-50.0
 20
100.0
 30
0.0
 11
-60.0
 21
100.0
 31
0.0
  0
LINE
  5
129
100
AcDbEntity
100
AcDbLine
  8
drawing
 62
256
370
-1
  6
ByLayer
 10
-60.0
 20
100.0
 30
0.0
 11
-60.0
 21
110.0
 31
0.0
  0
LINE
  5
12A
100
AcDbEntity
100
AcDbLine
  8
drawing
 62
256
370
-1
  6
ByLayer
 10
-60.0
 20
110.0
 30
0.0
 11
-50.0
 21
110.0
 31
0.0
  0
LINE
  5
12B
100
AcDbEntity
100
AcDbLine
  8
drawing
 62
256
370
-1
  6
ByLayer
 10
-60.0
 20
110.0
 30
0.0
 11
-60.0
 21
120.0
 31
0.0
  0
LINE
  5
12C
100
AcDbEntity
100
AcDbLine
  8
drawing
 62
256
370
-1
  6
ByLayer
 10
-60.0
 20
120.0
 30
0.0
 11
-50.0
 21
120.0
 31
0.0
  0
CIRCLE
  5
12D
100
AcDbEntity
100
AcDbCircle
  8
drawing
 62
256
370
-1
  6
ByLayer
 10
-55.0
 20
105.0
 30
0.0
 40
3.0
  0
CIRCLE
  5
12E
100
AcDbEntity
100
AcDbCircle
  8
drawing
 62
256
370
-1
  6
ByLayer
 10
-55.0
 20
115.0
 30
0.0
 40
3.0
  0
LINE
  5
12F
100
AcDbEntity
100
AcDbLine
  8
drawing
 62
256
370
-1
  6
ByLayer
 10
-56.7380966757417582
 20
102.5547965430714612
 30
0.0
 11
-52.5547965430715749
 21
106.7380966757418719
 31
0.0
  0
LINE
  5
130
100
AcDbEntity
100
AcDbLine
  8
drawing
 62
256
370
-1
  6
ByLayer
 10
-53.2619033242581281
 20
107.4452034569285388
 30
0.0
 11
-57.4452034569283114
 21
103.2619033242581281
 31
0.0
  0
LINE
  5
131
100
AcDbEntity
100
AcDbLine
  8
drawing
 62
256
370
-1
  6
ByLayer
 10
-56.7380966757417582
 20
112.5547965430714612
 30
0.0
 11
-52.5547965430715749
 21
116.7380966757418719
 31
0.0
  0
LINE
  5
132
100
AcDbEntity
100
AcDbLine
  8
drawing
 62
256
370
-1
  6
ByLayer
 10
-53.2619033242581281
 20
117.4452034569285388
 30
0.0
 11
-57.4452034569283114
 21
113.2619033242581281
 31
0.0
  0
LINE
  5
133
100
AcDbEntity
100
AcDbLine
  8
drawing
 62
256
370
-1
  6
ByLayer
 10
-50.0
 20
100.0
 30
0.0
 11
-50.0
 21
120.0
 31
0.0
  0
LINE
  5
134
100
AcDbEntity
100
AcDbLine
  8
drawing
 62
256
370
-1
  6
ByLayer
 10
-50.0
 20
120.0
 30
0.0
 11
0.0
 21
120.0
 31
0.0
  0
LINE
  5
135
100
AcDbEntity
100
AcDbLine
  8
drawing
 62
256
370
-1
  6
ByLayer
 10
0.0
 20
120.0
 30
0.0
 11
0.0
 21
100.0
 31
0.0
  0
ENDBLK
  5
136
100
AcDbEntity
  8
0
100
AcDbBlockEnd
  0
BLOCK
  5
137
100
AcDbEntity
  8
0
100
AcDbBlockBegin
  2
drive-escon-50-5
 70
0
 10
0.0
 20
0.0
 30
0.0
  3
drive-escon-50-5
  1

  0
LINE
  5
138
100
AcDbEntity
100
AcDbLine
  8
drawing
 62
256
370
-1
  6
ByLayer
 10
-50.0
 20
100.0
 30
0.0
 11
0.0
 21
100.0
 31
0.0
  0
LINE
  5
139
100
AcDbEntity
100
AcDbLine
  8
drawing
 62
256
370
-1
  6
ByLayer
 10
0.0
 20
100.0
 30
0.0
 11
0.0
 21
0.0
 31
0.0
  0
LINE
  5
13A
100
AcDbEntity
100
AcDbLine
  8
drawing
 62
256
370
-1
  6
ByLayer
 10
0.0
 20
0.0
 30
0.0
 11
-50.0
 21
0.0
 31
0.0
  0
LINE
  5
13B
100
AcDbEntity
100
AcDbLine
  8
drawing
 62
256
370
-1
  6
ByLayer
 10
-50.0
 20
0.0
 30
0.0
 11
-50.0
 21
100.0
 31
0.0
  0
LINE
  5
13C
100
AcDbEntity
100
AcDbLine
  8
drawing
 62
256
370
-1
  6
ByLayer
 10
-50.0
 20
70.0
 30
0.0
 11
-60.0
 21
70.0
 31
0.0
  0
LINE
  5
13D
100
AcDbEntity
100
AcDbLine
  8
drawing
 62
256
370
-1
  6
ByLayer
 10
-60.0
 20
70.0
 30
0.0
 11
-60.0
 21
80.0
 31
0.0
  0
LINE
  5
13E
100
AcDbEntity
100
AcDbLine
  8
drawing
 62
256
370
-1
  6
ByLayer
 10
-60.0
 20
80.0
 30
0.0
 11
-50.0
 21
80.0
 31
0.0
  0
LINE
  5
13F
100
AcDbEntity
100
AcDbLine
  8
drawing
 62
256
370
-1
  6
ByLayer
 10
-60.0
 20
80.0
 30
0.0
 11
-60.0
 21
90.0
 31
0.0
  0
LINE
  5
140
100
AcDbEntity
100
AcDbLine
  8
drawing
 62
256
370
-1
  6
ByLayer
 10
-60.0
 20
90.0
 30
0.0
 11
-50.0
 21
90.0
 31
0.0
  0
CIRCLE
  5
141
100
AcDbEntity
100
AcDbCircle
  8
drawing
 62
256
370
-1
  6
ByLayer
 10
-55.0
 20
75.0
 30
0.0
 40
3.0
  0
CIRCLE
  5
142
100
AcDbEntity
100
AcDbCircle
  8
drawing
 62
256
370
-1
  6
ByLayer
 10
-55.0
 20
85.0
 30
0.0
 40
3.0
  0
LINE
  5
143
100
AcDbEntity
100
AcDbLine
  8
drawing
 62
256
370
-1
  6
ByLayer
 10
-56.7380966757417582
 20
72.5547965430714612
 30
0.0
 11
-52.5547965430715749
 21
76.7380966757418719
 31
0.0
  0
LINE
  5
144
100
AcDbEntity
100
AcDbLine
  8
drawing
 62
256
370
-1
  6
ByLayer
 10
-53.2619033242581281
 20
77.4452034569285388
 30
0.0
 11
-57.4452034569283114
 21
73.2619033242581281
 31
0.0
  0
LINE
  5
145
100
AcDbEntity
100
AcDbLine
  8
drawing
 62
256
370
-1
  6
ByLayer
 10
-56.7380966757417582
 20
82.5547965430714612
 30
0.0
 11
-52.5547965430715749
 21
86.7380966757418719
 31
0.0
  0
LINE
  5
146
100
AcDbEntity
100
AcDbLine
  8
drawing
 62
256
370
-1
  6
ByLayer
 10
-53.2619033242581281
 20
87.4452034569285388
 30
0.0
 11
-57.4452034569283114
 21
83.2619033242581281
 31
0.0
  0
LINE
  5
147
100
AcDbEntity
100
AcDbLine
  8
drawing
 62
256
370
-1
  6
ByLayer
 10
-50.0
 20
40.0
 30
0.0
 11
-60.0
 21
40.0
 31
0.0
  0
LINE
  5
148
100
AcDbEntity
100
AcDbLine
  8
drawing
 62
256
370
-1
  6
ByLayer
 10
-50.0
 20
20.0
 30
0.0
 11
-60.0
 21
20.0
 31
0.0
  0
LINE
  5
149
100
AcDbEntity
100
AcDbLine
  8
drawing
 62
256
370
-1
  6
ByLayer
 10
-60.0
 20
20.0
 30
0.0
 11
-60.0
 21
30.0
 31
0.0
  0
LINE
  5
14A
100
AcDbEntity
100
AcDbLine
  8
drawing
 62
256
370
-1
  6
ByLayer
 10
-60.0
 20
30.0
 30
0.0
 11
-50.0
 21
30.0
 31
0.0
  0
LINE
  5
14B
100
AcDbEntity
100
AcDbLine
  8
drawing
 62
256
370
-1
  6
ByLayer
 10
-60.0
 20
30.0
 30
0.0
 11
-60.0
 21
40.0
 31
0.0
  0
CIRCLE
  5
14C
100
AcDbEntity
100
AcDbCircle
  8
drawing
 62
256
370
-1
  6
ByLayer
 10
-55.0
 20
25.0
 30
0.0
 40
3.0
  0
CIRCLE
  5
14D
100
AcDbEntity
100
AcDbCircle
  8
drawing
 62
256
370
-1
  6
ByLayer
 10
-55.0
 20
35.0
 30
0.0
 40
3.0
  0
LINE
  5
14E
100
AcDbEntity
100
AcDbLine
  8
drawing
 62
256
370
-1
  6
ByLayer
 10
-56.7380966757417582
 20
22.5547965430714612
 30
0.0
 11
-52.5547965430715749
 21
26.7380966757418719
 31
0.0
  0
LINE
  5
14F
100
AcDbEntity
100
AcDbLine
  8
drawing
 62
256
370
-1
  6
ByLayer
 10
-53.2619033242581281
 20
27.4452034569285388
 30
0.0
 11
-57.4452034569283114
 21
23.2619033242581281
 31
0.0
  0
LINE
  5
150
100
AcDbEntity
100
AcDbLine
  8
drawing
 62
256
370
-1
  6
ByLayer
 10
-56.7380966757417582
 20
32.5547965430714612
 30
0.0
 11
-52.5547965430715749
 21
36.7380966757418719
 31
0.0
  0
LINE
  5
151
100
AcDbEntity
100
AcDbLine
  8
drawing
 62
256
370
-1
  6
ByLayer
 10
-53.2619033242581281
 20
37.4452034569285388
 30
0.0
 11
-57.4452034569283114
 21
33.2619033242581281
 31
0.0
  0
LINE
  5
152
100
AcDbEntity
100
AcDbLine
  8
drawing
 62
256
370
-1
  6
ByLayer
 10
-50.0
 20
0.0
 30
0.0
 11
-60.0
 21
0.0
 31
0.0
  0
LINE
  5
153
100
AcDbEntity
100
AcDbLine
  8
drawing
 62
256
370
-1
  6
ByLayer
 10
-60.0
 20
0.0
 30
0.0
 11
-60.0
 21
10.0
 31
0.0
  0
LINE
  5
154
100
AcDbEntity
100
AcDbLine
  8
drawing
 62
256
370
-1
  6
ByLayer
 10
-60.0
 20
10.0
 30
0.0
 11
-50.0
 21
10.0
 31
0.0
  0
LINE
  5
155
100
AcDbEntity
100
AcDbLine
  8
drawing
 62
256
370
-1
  6
ByLayer
 10
-60.0
 20
10.0
 30
0.0
 11
-60.0
 21
20.0
 31
0.0
  0
CIRCLE
  5
156
100
AcDbEntity
100
AcDbCircle
  8
drawing
 62
256
370
-1
  6
ByLayer
 10
-55.0
 20
5.0
 30
0.0
 40
3.0
  0
CIRCLE
  5
157
100
AcDbEntity
100
AcDbCircle
  8
drawing
 62
256
370
-1
  6
ByLayer
 10
-55.0
 20
15.0
 30
0.0
 40
3.0
  0
LINE
  5
158
100
AcDbEntity
100
AcDbLine
  8
drawing
 62
256
370
-1
  6
ByLayer
 10
-56.7380966757417582
 20
2.5547965430714612
 30
0.0
 11
-52.5547965430715749
 21
6.7380966757418719
 31
0.0
  0
LINE
  5
159
100
AcDbEntity
100
AcDbLine
  8
drawing
 62
256
370
-1
  6
ByLayer
 10
-53.2619033242581281
 20
7.4452034569285388
 30
0.0
 11
-57.4452034569283114
 21
3.2619033242581281
 31
0.0
  0
LINE
  5
15A
100
AcDbEntity
100
AcDbLine
  8
drawing
 62
256
370
-1
  6
ByLayer
 10
-56.7380966757417582
 20
12.5547965430714612
 30
0.0
 11
-52.5547965430715749
 21
16.7380966757418719
 31
0.0
  0
LINE
  5
15B
100
AcDbEntity
100
AcDbLine
  8
drawing
 62
256
370
-1
  6
ByLayer
 10
-53.2619033242581281
 20
17.4452034569285388
 30
0.0
 11
-57.4452034569283114
 21
13.2619033242581281
 31
0.0
  0
LINE
  5
15C
100
AcDbEntity
100
AcDbLine
  8
drawing
 62
256
370
-1
  6
ByLayer
 10
0.0
 20
30.0
 30
0.0
 11
10.0
 21
30.0
 31
0.0
  0
LINE
  5
15D
100
AcDbEntity
100
AcDbLine
  8
drawing
 62
256
370
-1
  6
ByLayer
 10
10.0
 20
30.0
 30
0.0
 11
10.0
 21
20.0
 31
0.0
  0
LINE
  5
15E
100
AcDbEntity
100
AcDbLine
  8
drawing
 62
256
370
-1
  6
ByLayer
 10
10.0
 20
20.0
 30
0.0
 11
0.0
 21
20.0
 31
0.0
  0
LINE
  5
15F
100
AcDbEntity
100
AcDbLine
  8
drawing
 62
256
370
-1
  6
ByLayer
 10
10.0
 20
20.0
 30
0.0
 11
10.0
 21
10.0
 31
0.0
  0
LINE
  5
160
100
AcDbEntity
100
AcDbLine
  8
drawing
 62
256
370
-1
  6
ByLayer
 10
10.0
 20
10.0
 30
0.0
 11
0.0
 21
10.0
 31
0.0
  0
CIRCLE
  5
161
100
AcDbEntity
100
AcDbCircle
  8
drawing
 62
256
370
-1
  6
ByLayer
 10
5.0
 20
25.0
 30
0.0
 40
3.0
  0
CIRCLE
  5
162
100
AcDbEntity
100
AcDbCircle
  8
drawing
 62
256
370
-1
  6
ByLayer
 10
5.0
 20
15.0
 30
0.0
 40
3.0
  0
LINE
  5
163
100
AcDbEntity
100
AcDbLine
  8
drawing
 62
256
370
-1
  6
ByLayer
 10
6.7380966757417582
 20
27.4452034569285388
 30
0.0
 11
2.5547965430715749
 21
23.2619033242581281
 31
0.0
  0
LINE
  5
164
100
AcDbEntity
100
AcDbLine
  8
drawing
 62
256
370
-1
  6
ByLayer
 10
3.2619033242581281
 20
22.5547965430714612
 30
0.0
 11
7.4452034569283114
 21
26.7380966757420993
 31
0.0
  0
LINE
  5
165
100
AcDbEntity
100
AcDbLine
  8
drawing
 62
256
370
-1
  6
ByLayer
 10
6.7380966757417582
 20
17.4452034569285388
 30
0.0
 11
2.5547965430715749
 21
13.2619033242581281
 31
0.0
  0
LINE
  5
166
100
AcDbEntity
100
AcDbLine
  8
drawing
 62
256
370
-1
  6
ByLayer
 10
3.2619033242581281
 20
12.5547965430714612
 30
0.0
 11
7.4452034569283114
 21
16.7380966757420993
 31
0.0
  0
LINE
  5
167
100
AcDbEntity
100
AcDbLine
  8
drawing
 62
256
370
-1
  6
ByLayer
 10
0.0
 20
40.0
 30
0.0
 11
10.0
 21
40.0
 31
0.0
  0
LINE
  5
168
100
AcDbEntity
100
AcDbLine
  8
drawing
 62
256
370
-1
  6
ByLayer
 10
10.0
 20
40.0
 30
0.0
 11
10.0
 21
30.0
 31
0.0
  0
CIRCLE
  5
169
100
AcDbEntity
100
AcDbCircle
  8
drawing
 62
256
370
-1
  6
ByLayer
 10
5.0
 20
35.0
 30
0.0
 40
3.0
  0
LINE
  5
16A
100
AcDbEntity
100
AcDbLine
  8
drawing
 62
256
370
-1
  6
ByLayer
 10
6.7380966757417582
 20
37.4452034569285388
 30
0.0
 11
2.5547965430715749
 21
33.2619033242581281
 31
0.0
  0
LINE
  5
16B
100
AcDbEntity
100
AcDbLine
  8
drawing
 62
256
370
-1
  6
ByLayer
 10
3.2619033242581281
 20
32.5547965430714612
 30
0.0
 11
7.4452034569283114
 21
36.7380966757420993
 31
0.0
  0
LINE
  5
16C
100
AcDbEntity
100
AcDbLine
  8
drawing
 62
256
370
-1
  6
ByLayer
 10
0.0
 20
97.0
 30
0.0
 11
4.0
 21
97.0
 31
0.0
  0
LINE
  5
16D
100
AcDbEntity
100
AcDbLine
  8
drawing
 62
256
370
-1
  6
ByLayer
 10
4.0
 20
97.0
 30
0.0
 11
4.0
 21
83.0
 31
0.0
  0
LINE
  5
16E
100
AcDbEntity
100
AcDbLine
  8
drawing
 62
256
370
-1
  6
ByLayer
 10
4.0
 20
83.0
 30
0.0
 11
0.0
 21
83.0
 31
0.0
  0
LINE
  5
16F
100
AcDbEntity
100
AcDbLine
  8
drawing
 62
256
370
-1
  6
ByLayer
 10
0.0
 20
83.0
 30
0.0
 11
0.0
 21
97.0
 31
0.0
  0
LINE
  5
170
100
AcDbEntity
100
AcDbLine
  8
drawing
 62
256
370
-1
  6
ByLayer
 10
0.0
 20
96.0
 30
0.0
 11
4.0
 21
96.0
 31
0.0
  0
LINE
  5
171
100
AcDbEntity
100
AcDbLine
  8
drawing
 62
256
370
-1
  6
ByLayer
 10
4.0
 20
94.0
 30
0.0
 11
0.0
 21
94.0
 31
0.0
  0
LINE
  5
172
100
AcDbEntity
100
AcDbLine
  8
drawing
 62
256
370
-1
  6
ByLayer
 10
0.0
 20
92.0
 30
0.0
 11
4.0
 21
92.0
 31
0.0
  0
LINE
  5
173
100
AcDbEntity
100
AcDbLine
  8
drawing
 62
256
370
-1
  6
ByLayer
 10
4.0
 20
90.0
 30
0.0
 11
0.0
 21
90.0
 31
0.0
  0
LINE
  5
174
100
AcDbEntity
100
AcDbLine
  8
drawing
 62
256
370
-1
  6
ByLayer
 10
0.0
 20
88.0
 30
0.0
 11
4.0
 21
88.0
 31
0.0
  0
LINE
  5
175
100
AcDbEntity
100
AcDbLine
  8
drawing
 62
256
370
-1
  6
ByLayer
 10
4.0
 20
86.0
 30
0.0
 11
0.0
 21
86.0
 31
0.0
  0
LINE
  5
176
100
AcDbEntity
100
AcDbLine
  8
drawing
 62
256
370
-1
  6
ByLayer
 10
0.0
 20
84.0
 30
0.0
 11
4.0
 21
84.0
 31
0.0
  0
LINE
  5
177
100
AcDbEntity
100
AcDbLine
  8
drawing
 62
256
370
-1
  6
ByLayer
 10
2.0
 20
84.0
 30
0.0
 11
2.0
 21
96.0
 31
0.0
  0
LINE
  5
178
100
AcDbEntity
100
AcDbLine
  8
drawing
 62
256
370
-1
  6
ByLayer
 10
4.0
 20
88.0
 30
0.0
 11
5.0
 21
88.0
 31
0.0
  0
LINE
  5
179
100
AcDbEntity
100
AcDbLine
  8
drawing
 62
256
370
-1
  6
ByLayer
 10
5.0
 20
88.0
 30
0.0
 11
5.0
 21
92.0
 31
0.0
  0
LINE
  5
17A
100
AcDbEntity
100
AcDbLine
  8
drawing
 62
256
370
-1
  6
ByLayer
 10
5.0
 20
92.0
 30
0.0
 11
4.0
 21
92.0
 31
0.0
  0
ENDBLK
  5
17B
100
AcDbEntity
  8
0
100
AcDbBlockEnd
  0
BLOCK
  5
17C
100
AcDbEntity
  8
0
100
AcDbBlockBegin
  2
end-inductive-sensor
 70
0
 10
0.0
 20
0.0
 30
0.0
  3
end-inductive-sensor
  1

  0
LINE
  5
17D
100
AcDbEntity
100
AcDbLine
  8
drawing
 62
256
370
-1
  6
ByLayer
 10
0.0
 20
-10.0
 30
0.0
 11
0.0
 21
10.0
 31
0.0
  0
LINE
  5
17E
100
AcDbEntity
100
AcDbLine
  8
drawing
 62
256
370
-1
  6
ByLayer
 10
0.0
 20
10.0
 30
0.0
 11
30.0
 21
10.0
 31
0.0
  0
LINE
  5
17F
100
AcDbEntity
100
AcDbLine
  8
drawing
 62
256
370
-1
  6
ByLayer
 10
30.0
 20
10.0
 30
0.0
 11
30.0
 21
-10.0
 31
0.0
  0
LINE
  5
180
100
AcDbEntity
100
AcDbLine
  8
drawing
 62
256
370
-1
  6
ByLayer
 10
30.0
 20
-10.0
 30
0.0
 11
0.0
 21
-10.0
 31
0.0
  0
LINE
  5
181
100
AcDbEntity
100
AcDbLine
  8
drawing
 62
256
370
-1
  6
ByLayer
 10
0.0
 20
-1.0
 30
0.0
 11
-10.0
 21
-1.0
 31
0.0
  0
LINE
  5
182
100
AcDbEntity
100
AcDbLine
  8
drawing
 62
256
370
-1
  6
ByLayer
 10
-10.0
 20
-1.0
 30
0.0
 11
-10.0
 21
1.0
 31
0.0
  0
LINE
  5
183
100
AcDbEntity
100
AcDbLine
  8
drawing
 62
256
370
-1
  6
ByLayer
 10
-10.0
 20
1.0
 30
0.0
 11
0.0
 21
1.0
 31
0.0
  0
LINE
  5
184
100
AcDbEntity
100
AcDbLine
  8
drawing
 62
256
370
-1
  6
ByLayer
 10
0.0
 20
6.0
 30
0.0
 11
-10.0
 21
6.0
 31
0.0
  0
LINE
  5
185
100
AcDbEntity
100
AcDbLine
  8
drawing
 62
256
370
-1
  6
ByLayer
 10
-10.0
 20
6.0
 30
0.0
 11
-10.0
 21
8.0
 31
0.0
  0
LINE
  5
186
100
AcDbEntity
100
AcDbLine
  8
drawing
 62
256
370
-1
  6
ByLayer
 10
-10.0
 20
8.0
 30
0.0
 11
0.0
 21
8.0
 31
0.0
  0
LINE
  5
187
100
AcDbEntity
100
AcDbLine
  8
drawing
 62
256
370
-1
  6
ByLayer
 10
0.0
 20
-6.0
 30
0.0
 11
-10.0
 21
-6.0
 31
0.0
  0
LINE
  5
188
100
AcDbEntity
100
AcDbLine
  8
drawing
 62
256
370
-1
  6
ByLayer
 10
-10.0
 20
-6.0
 30
0.0
 11
-10.0
 21
-7.0
 31
0.0
  0
LINE
  5
189
100
AcDbEntity
100
AcDbLine
  8
drawing
 62
256
370
-1
  6
ByLayer
 10
-10.0
 20
-7.0
 30
0.0
 11
-10.0
 21
-8.0
 31
0.0
  0
LINE
  5
18A
100
AcDbEntity
100
AcDbLine
  8
drawing
 62
256
370
-1
  6
ByLayer
 10
-10.0
 20
-8.0
 30
0.0
 11
0.0
 21
-8.0
 31
0.0
  0
CIRCLE
  5
18B
100
AcDbEntity
100
AcDbCircle
  8
drawing
 62
256
370
-1
  6
ByLayer
 10
10.0
 20
0.0
 30
0.0
 40
2.0
  0
LINE
  5
18C
100
AcDbEntity
100
AcDbLine
  8
drawing
 62
256
370
-1
  6
ByLayer
 10
15.0
 20
0.0
 30
0.0
 11
18.0
 21
0.0
 31
0.0
  0
LINE
  5
18D
100
AcDbEntity
100
AcDbLine
  8
drawing
 62
256
370
-1
  6
ByLayer
 10
24.0
 20
0.0
 30
0.0
 11
27.0
 21
0.0
 31
0.0
  0
LINE
  5
18E
100
AcDbEntity
100
AcDbLine
  8
drawing
 62
256
370
-1
  6
ByLayer
 10
18.0
 20
0.0
 30
0.0
 11
23.1961524227067457
 21
3.0
 31
0.0
  0
ENDBLK
  5
18F
100
AcDbEntity
  8
0
100
AcDbBlockEnd
  0
ENDSEC
  0
SECTION
  2
ENTITIES
  0
INSERT
  5
190
100
AcDbEntity
100
AcDbBlockReference
  8
drawing
 62
256
370
-1
  6
ByLayer
  2
end-switch
 10
1000.0
 20
2560.0
 30
0.0
  0
INSERT
  5
191
100
AcDbEntity
100
AcDbBlockReference
  8
drawing
 62
256
370
-1
  6
ByLayer
  2
solenoid
 10
1000.0
 20
2600.0
 30
0.0
  0
INSERT
  5
192
100
AcDbEntity
100
AcDbBlockReference
  8
drawing
 62
256
370
-1
  6
ByLayer
  2
vac-relay
 10
1000.0
 20
2640.0
 30
0.0
  0
INSERT
  5
193
100
AcDbEntity
100
AcDbBlockReference
  8
drawing
 62
256
370
-1
  6
ByLayer
  2
motor-dc
 10
1000.0
 20
1450.0
 30
0.0
  0
INSERT
  5
194
100
AcDbEntity
100
AcDbBlockReference
  8
drawing
 62
256
370
-1
  6
ByLayer
  2
encoder
 10
1000.0
 20
1560.0
 30
0.0
  0
INSERT
  5
195
100
AcDbEntity
100
AcDbBlockReference
  8
drawing
 62
256
370
-1
  6
ByLayer
  2
motor-brushless
 10
1000.0
 20
1250.0
 30
0.0
  0
INSERT
  5
196
100
AcDbEntity
100
AcDbBlockReference
  8
drawing
 62
256
370
-1
  6
ByLayer
  2
encoder
 10
1000.0
 20
1350.0
 30
0.0
  0
MTEXT
  5
197
100
AcDbEntity
100
AcDbMText
  8
helper
 62
256
370
-1
  6
ByLayer
 10
874.0
 20
1565.0
 30
0.0
 40
5.0
 41
100.0
 71
5
 72
0
  1
"electroprivod"
  7
normallatin1
 50
0.0
 73
1
 44
1.0
  0
MTEXT
  5
198
100
AcDbEntity
100
AcDbMText
  8
helper
 62
256
370
-1
  6
ByLayer
 10
875.0
 20
1355.0
 30
0.0
 40
5.0
 41
100.0
 71
5
 72
0
  1
escon 50/5
  7
normallatin1
 50
0.0
 73
1
 44
1.0
  0
INSERT
  5
199
100
AcDbEntity
100
AcDbBlockReference
  8
drawing
 62
256
370
-1
  6
ByLayer
  2
motor-dc
 10
1000.0
 20
1050.0
 30
0.0
  0
INSERT
  5
19A
100
AcDbEntity
100
AcDbBlockReference
  8
drawing
 62
256
370
-1
  6
ByLayer
  2
encoder
 10
1000.0
 20
1160.0
 30
0.0
  0
INSERT
  5
19B
100
AcDbEntity
100
AcDbBlockReference
  8
drawing
 62
256
370
-1
  6
ByLayer
  2
motor-dc
 10
1000.0
 20
850.0
 30
0.0
  0
INSERT
  5
19C
100
AcDbEntity
100
AcDbBlockReference
  8
drawing
 62
256
370
-1
  6
ByLayer
  2
encoder
 10
1000.0
 20
960.0
 30
0.0
  0
INSERT
  5
19D
100
AcDbEntity
100
AcDbBlockReference
  8
drawing
 62
256
370
-1
  6
ByLayer
  2
motor-dc
 10
1000.0
 20
650.0
 30
0.0
  0
INSERT
  5
19E
100
AcDbEntity
100
AcDbBlockReference
  8
drawing
 62
256
370
-1
  6
ByLayer
  2
encoder
 10
1000.0
 20
760.0
 30
0.0
  0
MTEXT
  5
19F
100
AcDbEntity
100
AcDbMText
  8
helper
 62
256
370
-1
  6
ByLayer
 10
875.0
 20
1165.0
 30
0.0
 40
5.0
 41
100.0
 71
5
 72
0
  1
escon 50/5
  7
normallatin1
 50
0.0
 73
1
 44
1.0
  0
INSERT
  5
1A0
100
AcDbEntity
100
AcDbBlockReference
  8
helper
 62
256
370
-1
  6
ByLayer
  2
drive-eprivod
 10
900.0
 20
1440.0
 30
0.0
  0
INSERT
  5
1A1
100
AcDbEntity
100
AcDbBlockReference
  8
helper
 62
256
370
-1
  6
ByLayer
  2
drive-escon-50-5
 10
900.0
 20
1250.0
 30
0.0
  0
INSERT
  5
1A2
100
AcDbEntity
100
AcDbBlockReference
  8
helper
 62
256
370
-1
  6
ByLayer
  2
drive-escon-50-5
 10
900.0
 20
1060.0
 30
0.0
  0
INSERT
  5
1A3
100
AcDbEntity
100
AcDbBlockReference
  8
helper
 62
256
370
-1
  6
ByLayer
  2
drive-escon-50-5
 10
900.0
 20
870.0
 30
0.0
  0
MTEXT
  5
1A4
100
AcDbEntity
100
AcDbMText
  8
helper
 62
256
370
-1
  6
ByLayer
 10
875.0
 20
975.0
 30
0.0
 40
5.0
 41
100.0
 71
5
 72
0
  1
escon 50/5
  7
normallatin1
 50
0.0
 73
1
 44
1.0
  0
INSERT
  5
1A5
100
AcDbEntity
100
AcDbBlockReference
  8
helper
 62
256
370
-1
  6
ByLayer
  2
drive-escon-50-5
 10
900.0
 20
670.0
 30
0.0
  0
MTEXT
  5
1A6
100
AcDbEntity
100
AcDbMText
  8
helper
 62
256
370
-1
  6
ByLayer
 10
875.0
 20
775.0
 30
0.0
 40
5.0
 41
100.0
 71
5
 72
0
  1
escon 50/5
  7
normallatin1
 50
0.0
 73
1
 44
1.0
  0
LINE
  5
1A7
100
AcDbEntity
100
AcDbLine
  8
drawing
 62
256
370
-1
  6
ByLayer
 10
600.0
 20
1200.0
 30
0.0
 11
600.0
 21
1250.0
 31
0.0
  0
LINE
  5
1A8
100
AcDbEntity
100
AcDbLine
  8
drawing
 62
256
370
-1
  6
ByLayer
 10
600.0
 20
1250.0
 30
0.0
 11
610.0
 21
1250.0
 31
0.0
  0
LINE
  5
1A9
100
AcDbEntity
100
AcDbLine
  8
drawing
 62
256
370
-1
  6
ByLayer
 10
610.0
 20
1250.0
 30
0.0
 11
620.0
 21
1250.0
 31
0.0
  0
LINE
  5
1AA
100
AcDbEntity
100
AcDbLine
  8
drawing
 62
256
370
-1
  6
ByLayer
 10
620.0
 20
1250.0
 30
0.0
 11
620.0
 21
1200.0
 31
0.0
  0
LINE
  5
1AB
100
AcDbEntity
100
AcDbLine
  8
drawing
 62
256
370
-1
  6
ByLayer
 10
620.0
 20
1200.0
 30
0.0
 11
600.0
 21
1200.0
 31
0.0
  0
LINE
  5
1AC
100
AcDbEntity
100
AcDbLine
  8
drawing
 62
256
370
-1
  6
ByLayer
 10
600.0
 20
1100.0
 30
0.0
 11
600.0
 21
1150.0
 31
0.0
  0
LINE
  5
1AD
100
AcDbEntity
100
AcDbLine
  8
drawing
 62
256
370
-1
  6
ByLayer
 10
600.0
 20
1150.0
 30
0.0
 11
620.0
 21
1150.0
 31
0.0
  0
LINE
  5
1AE
100
AcDbEntity
100
AcDbLine
  8
drawing
 62
256
370
-1
  6
ByLayer
 10
620.0
 20
1150.0
 30
0.0
 11
620.0
 21
1100.0
 31
0.0
  0
LINE
  5
1AF
100
AcDbEntity
100
AcDbLine
  8
drawing
 62
256
370
-1
  6
ByLayer
 10
620.0
 20
1100.0
 30
0.0
 11
600.0
 21
1100.0
 31
0.0
  0
LINE
  5
1B0
100
AcDbEntity
100
AcDbLine
  8
drawing
 62
256
370
-1
  6
ByLayer
 10
600.0
 20
1000.0
 30
0.0
 11
600.0
 21
1050.0
 31
0.0
  0
LINE
  5
1B1
100
AcDbEntity
100
AcDbLine
  8
drawing
 62
256
370
-1
  6
ByLayer
 10
600.0
 20
1050.0
 30
0.0
 11
620.0
 21
1050.0
 31
0.0
  0
LINE
  5
1B2
100
AcDbEntity
100
AcDbLine
  8
drawing
 62
256
370
-1
  6
ByLayer
 10
620.0
 20
1050.0
 30
0.0
 11
620.0
 21
1000.0
 31
0.0
  0
LINE
  5
1B3
100
AcDbEntity
100
AcDbLine
  8
drawing
 62
256
370
-1
  6
ByLayer
 10
620.0
 20
1000.0
 30
0.0
 11
600.0
 21
1000.0
 31
0.0
  0
LINE
  5
1B4
100
AcDbEntity
100
AcDbLine
  8
drawing
 62
256
370
-1
  6
ByLayer
 10
600.0
 20
900.0
 30
0.0
 11
600.0
 21
950.0
 31
0.0
  0
LINE
  5
1B5
100
AcDbEntity
100
AcDbLine
  8
drawing
 62
256
370
-1
  6
ByLayer
 10
600.0
 20
950.0
 30
0.0
 11
620.0
 21
950.0
 31
0.0
  0
LINE
  5
1B6
100
AcDbEntity
100
AcDbLine
  8
drawing
 62
256
370
-1
  6
ByLayer
 10
620.0
 20
950.0
 30
0.0
 11
620.0
 21
900.0
 31
0.0
  0
LINE
  5
1B7
100
AcDbEntity
100
AcDbLine
  8
drawing
 62
256
370
-1
  6
ByLayer
 10
620.0
 20
900.0
 30
0.0
 11
600.0
 21
900.0
 31
0.0
  0
LINE
  5
1B8
100
AcDbEntity
100
AcDbLine
  8
drawing
 62
256
370
-1
  6
ByLayer
 10
600.0
 20
2100.0
 30
0.0
 11
600.0
 21
2150.0
 31
0.0
  0
LINE
  5
1B9
100
AcDbEntity
100
AcDbLine
  8
drawing
 62
256
370
-1
  6
ByLayer
 10
600.0
 20
2150.0
 30
0.0
 11
610.0
 21
2150.0
 31
0.0
  0
LINE
  5
1BA
100
AcDbEntity
100
AcDbLine
  8
drawing
 62
256
370
-1
  6
ByLayer
 10
610.0
 20
2150.0
 30
0.0
 11
620.0
 21
2150.0
 31
0.0
  0
LINE
  5
1BB
100
AcDbEntity
100
AcDbLine
  8
drawing
 62
256
370
-1
  6
ByLayer
 10
620.0
 20
2150.0
 30
0.0
 11
620.0
 21
2100.0
 31
0.0
  0
LINE
  5
1BC
100
AcDbEntity
100
AcDbLine
  8
drawing
 62
256
370
-1
  6
ByLayer
 10
620.0
 20
2100.0
 30
0.0
 11
600.0
 21
2100.0
 31
0.0
  0
LINE
  5
1BD
100
AcDbEntity
100
AcDbLine
  8
drawing
 62
256
370
-1
  6
ByLayer
 10
600.0
 20
2000.0
 30
0.0
 11
600.0
 21
2050.0
 31
0.0
  0
LINE
  5
1BE
100
AcDbEntity
100
AcDbLine
  8
drawing
 62
256
370
-1
  6
ByLayer
 10
600.0
 20
2050.0
 30
0.0
 11
620.0
 21
2050.0
 31
0.0
  0
LINE
  5
1BF
100
AcDbEntity
100
AcDbLine
  8
drawing
 62
256
370
-1
  6
ByLayer
 10
620.0
 20
2050.0
 30
0.0
 11
620.0
 21
2000.0
 31
0.0
  0
LINE
  5
1C0
100
AcDbEntity
100
AcDbLine
  8
drawing
 62
256
370
-1
  6
ByLayer
 10
620.0
 20
2000.0
 30
0.0
 11
600.0
 21
2000.0
 31
0.0
  0
LINE
  5
1C1
100
AcDbEntity
100
AcDbLine
  8
drawing
 62
256
370
-1
  6
ByLayer
 10
600.0
 20
1900.0
 30
0.0
 11
600.0
 21
1950.0
 31
0.0
  0
LINE
  5
1C2
100
AcDbEntity
100
AcDbLine
  8
drawing
 62
256
370
-1
  6
ByLayer
 10
600.0
 20
1950.0
 30
0.0
 11
620.0
 21
1950.0
 31
0.0
  0
LINE
  5
1C3
100
AcDbEntity
100
AcDbLine
  8
drawing
 62
256
370
-1
  6
ByLayer
 10
620.0
 20
1950.0
 30
0.0
 11
620.0
 21
1900.0
 31
0.0
  0
LINE
  5
1C4
100
AcDbEntity
100
AcDbLine
  8
drawing
 62
256
370
-1
  6
ByLayer
 10
620.0
 20
1900.0
 30
0.0
 11
600.0
 21
1900.0
 31
0.0
  0
LINE
  5
1C5
100
AcDbEntity
100
AcDbLine
  8
drawing
 62
256
370
-1
  6
ByLayer
 10
600.0
 20
1800.0
 30
0.0
 11
600.0
 21
1850.0
 31
0.0
  0
LINE
  5
1C6
100
AcDbEntity
100
AcDbLine
  8
drawing
 62
256
370
-1
  6
ByLayer
 10
600.0
 20
1850.0
 30
0.0
 11
620.0
 21
1850.0
 31
0.0
  0
LINE
  5
1C7
100
AcDbEntity
100
AcDbLine
  8
drawing
 62
256
370
-1
  6
ByLayer
 10
620.0
 20
1850.0
 30
0.0
 11
620.0
 21
1800.0
 31
0.0
  0
LINE
  5
1C8
100
AcDbEntity
100
AcDbLine
  8
drawing
 62
256
370
-1
  6
ByLayer
 10
620.0
 20
1800.0
 30
0.0
 11
600.0
 21
1800.0
 31
0.0
  0
LINE
  5
1C9
100
AcDbEntity
100
AcDbLine
  8
drawing
 62
256
370
-1
  6
ByLayer
 10
600.0
 20
2300.0
 30
0.0
 11
600.0
 21
2350.0
 31
0.0
  0
LINE
  5
1CA
100
AcDbEntity
100
AcDbLine
  8
drawing
 62
256
370
-1
  6
ByLayer
 10
600.0
 20
2350.0
 30
0.0
 11
610.0
 21
2350.0
 31
0.0
  0
LINE
  5
1CB
100
AcDbEntity
100
AcDbLine
  8
drawing
 62
256
370
-1
  6
ByLayer
 10
610.0
 20
2350.0
 30
0.0
 11
620.0
 21
2350.0
 31
0.0
  0
LINE
  5
1CC
100
AcDbEntity
100
AcDbLine
  8
drawing
 62
256
370
-1
  6
ByLayer
 10
620.0
 20
2350.0
 30
0.0
 11
620.0
 21
2300.0
 31
0.0
  0
LINE
  5
1CD
100
AcDbEntity
100
AcDbLine
  8
drawing
 62
256
370
-1
  6
ByLayer
 10
620.0
 20
2300.0
 30
0.0
 11
600.0
 21
2300.0
 31
0.0
  0
LINE
  5
1CE
100
AcDbEntity
100
AcDbLine
  8
drawing
 62
256
370
-1
  6
ByLayer
 10
600.0
 20
2200.0
 30
0.0
 11
600.0
 21
2250.0
 31
0.0
  0
LINE
  5
1CF
100
AcDbEntity
100
AcDbLine
  8
drawing
 62
256
370
-1
  6
ByLayer
 10
600.0
 20
2250.0
 30
0.0
 11
620.0
 21
2250.0
 31
0.0
  0
LINE
  5
1D0
100
AcDbEntity
100
AcDbLine
  8
drawing
 62
256
370
-1
  6
ByLayer
 10
620.0
 20
2250.0
 30
0.0
 11
620.0
 21
2200.0
 31
0.0
  0
LINE
  5
1D1
100
AcDbEntity
100
AcDbLine
  8
drawing
 62
256
370
-1
  6
ByLayer
 10
620.0
 20
2200.0
 30
0.0
 11
600.0
 21
2200.0
 31
0.0
  0
LINE
  5
1D2
100
AcDbEntity
100
AcDbLine
  8
drawing
 62
256
370
-1
  6
ByLayer
 10
600.0
 20
2370.0
 30
0.0
 11
600.0
 21
880.0
 31
0.0
  0
LINE
  5
1D3
100
AcDbEntity
100
AcDbLine
  8
drawing
 62
256
370
-1
  6
ByLayer
 10
600.0
 20
880.0
 30
0.0
 11
500.0
 21
880.0
 31
0.0
  0
LINE
  5
1D4
100
AcDbEntity
100
AcDbLine
  8
drawing
 62
256
370
-1
  6
ByLayer
 10
500.0
 20
880.0
 30
0.0
 11
500.0
 21
2370.0
 31
0.0
  0
LINE
  5
1D5
100
AcDbEntity
100
AcDbLine
  8
drawing
 62
256
370
-1
  6
ByLayer
 10
500.0
 20
2370.0
 30
0.0
 11
600.0
 21
2370.0
 31
0.0
  0
LINE
  5
1D6
100
AcDbEntity
100
AcDbLine
  8
drawing
 62
256
370
-1
  6
ByLayer
 10
500.0
 20
900.0
 30
0.0
 11
480.0
 21
900.0
 31
0.0
  0
LINE
  5
1D7
100
AcDbEntity
100
AcDbLine
  8
drawing
 62
256
370
-1
  6
ByLayer
 10
480.0
 20
900.0
 30
0.0
 11
480.0
 21
920.0
 31
0.0
  0
LINE
  5
1D8
100
AcDbEntity
100
AcDbLine
  8
drawing
 62
256
370
-1
  6
ByLayer
 10
480.0
 20
920.0
 30
0.0
 11
500.0
 21
920.0
 31
0.0
  0
LINE
  5
1D9
100
AcDbEntity
100
AcDbLine
  8
drawing
 62
256
370
-1
  6
ByLayer
 10
496.0
 20
910.0
 30
0.0
 11
484.0
 21
910.0
 31
0.0
  0
LINE
  5
1DA
100
AcDbEntity
100
AcDbLine
  8
drawing
 62
256
370
-1
  6
ByLayer
 10
484.0
 20
910.0
 30
0.0
 11
487.0
 21
911.0
 31
0.0
  0
LINE
  5
1DB
100
AcDbEntity
100
AcDbLine
  8
drawing
 62
256
370
-1
  6
ByLayer
 10
484.0
 20
910.0
 30
0.0
 11
487.0
 21
909.0
 31
0.0
  0
LINE
  5
1DC
100
AcDbEntity
100
AcDbLine
  8
drawing
 62
256
370
-1
  6
ByLayer
 10
487.6000000000000227
 20
908.0000000000001137
 30
0.0
 11
490.6000000000000227
 21
909.0000000000001137
 31
0.0
  0
LINE
  5
1DD
100
AcDbEntity
100
AcDbLine
  8
drawing
 62
256
370
-1
  6
ByLayer
 10
487.6000000000000227
 20
908.0000000000001137
 30
0.0
 11
490.6000000000000227
 21
907.0000000000001137
 31
0.0
  0
LINE
  5
1DE
100
AcDbEntity
100
AcDbLine
  8
drawing
 62
256
370
-1
  6
ByLayer
 10
491.6000000000000227
 20
912.0000000000001137
 30
0.0
 11
486.6000000000000227
 21
912.0000000000001137
 31
0.0
  0
LINE
  5
1DF
100
AcDbEntity
100
AcDbLine
  8
drawing
 62
256
370
-1
  6
ByLayer
 10
486.6000000000000227
 20
912.0000000000001137
 30
0.0
 11
489.6000000000000227
 21
913.0000000000001137
 31
0.0
  0
LINE
  5
1E0
100
AcDbEntity
100
AcDbLine
  8
drawing
 62
256
370
-1
  6
ByLayer
 10
486.6000000000000227
 20
912.0000000000001137
 30
0.0
 11
489.6000000000000227
 21
911.0000000000001137
 31
0.0
  0
ARC
  5
1E1
100
AcDbEntity
  8
drawing
 62
256
370
-1
  6
ByLayer
100
AcDbCircle
 10
488.0
 20
910.0
 30
0.0
 40
4.0
100
AcDbArc
 50
330.0000000000016485
 51
30.0000000000019504
  0
LINE
  5
1E2
100
AcDbEntity
100
AcDbLine
  8
drawing
 62
256
370
-1
  6
ByLayer
 10
491.4641016151377926
 20
908.0000000000001137
 30
0.0
 11
487.6000000000000227
 21
908.0000000000001137
 31
0.0
  0
LINE
  5
1E3
100
AcDbEntity
100
AcDbLine
  8
drawing
 62
256
370
-1
  6
ByLayer
 10
500.0
 20
950.0
 30
0.0
 11
480.0
 21
950.0
 31
0.0
  0
LINE
  5
1E4
100
AcDbEntity
100
AcDbLine
  8
drawing
 62
256
370
-1
  6
ByLayer
 10
480.0
 20
950.0
 30
0.0
 11
480.0
 21
1000.0
 31
0.0
  0
LINE
  5
1E5
100
AcDbEntity
100
AcDbLine
  8
drawing
 62
256
370
-1
  6
ByLayer
 10
480.0
 20
1000.0
 30
0.0
 11
500.0
 21
1000.0
 31
0.0
  0
LINE
  5
1E6
100
AcDbEntity
100
AcDbLine
  8
drawing
 62
256
370
-1
  6
ByLayer
 10
570.0
 20
840.0
 30
0.0
 11
570.0
 21
790.0
 31
0.0
  0
LINE
  5
1E7
100
AcDbEntity
100
AcDbLine
  8
drawing
 62
256
370
-1
  6
ByLayer
 10
570.0
 20
790.0
 30
0.0
 11
500.0
 21
790.0
 31
0.0
  0
LINE
  5
1E8
100
AcDbEntity
100
AcDbLine
  8
drawing
 62
256
370
-1
  6
ByLayer
 10
500.0
 20
790.0
 30
0.0
 11
500.0
 21
840.0
 31
0.0
  0
LINE
  5
1E9
100
AcDbEntity
100
AcDbLine
  8
drawing
 62
256
370
-1
  6
ByLayer
 10
500.0
 20
840.0
 30
0.0
 11
570.0
 21
840.0
 31
0.0
  0
LINE
  5
1EA
100
AcDbEntity
100
AcDbLine
  8
drawing
 62
256
370
-1
  6
ByLayer
 10
500.0
 20
790.0
 30
0.0
 11
480.0
 21
790.0
 31
0.0
  0
LINE
  5
1EB
100
AcDbEntity
100
AcDbLine
  8
drawing
 62
256
370
-1
  6
ByLayer
 10
480.0
 20
790.0
 30
0.0
 11
480.0
 21
810.0
 31
0.0
  0
LINE
  5
1EC
100
AcDbEntity
100
AcDbLine
  8
drawing
 62
256
370
-1
  6
ByLayer
 10
480.0
 20
810.0
 30
0.0
 11
500.0
 21
810.0
 31
0.0
  0
LINE
  5
1ED
100
AcDbEntity
100
AcDbLine
  8
drawing
 62
256
370
-1
  6
ByLayer
 10
500.0
 20
820.0
 30
0.0
 11
480.0
 21
820.0
 31
0.0
  0
LINE
  5
1EE
100
AcDbEntity
100
AcDbLine
  8
drawing
 62
256
370
-1
  6
ByLayer
 10
480.0
 20
820.0
 30
0.0
 11
480.0
 21
840.0
 31
0.0
  0
LINE
  5
1EF
100
AcDbEntity
100
AcDbLine
  8
drawing
 62
256
370
-1
  6
ByLayer
 10
480.0
 20
840.0
 30
0.0
 11
500.0
 21
840.0
 31
0.0
  0
LINE
  5
1F0
100
AcDbEntity
100
AcDbLine
  8
drawing
 62
256
370
-1
  6
ByLayer
 10
496.0
 20
830.0
 30
0.0
 11
484.0
 21
830.0
 31
0.0
  0
LINE
  5
1F1
100
AcDbEntity
100
AcDbLine
  8
drawing
 62
256
370
-1
  6
ByLayer
 10
484.0
 20
830.0
 30
0.0
 11
487.0
 21
831.0
 31
0.0
  0
LINE
  5
1F2
100
AcDbEntity
100
AcDbLine
  8
drawing
 62
256
370
-1
  6
ByLayer
 10
484.0
 20
830.0
 30
0.0
 11
487.0
 21
829.0
 31
0.0
  0
LINE
  5
1F3
100
AcDbEntity
100
AcDbLine
  8
drawing
 62
256
370
-1
  6
ByLayer
 10
487.6000000000000227
 20
828.0000000000001137
 30
0.0
 11
490.6000000000000227
 21
829.0000000000001137
 31
0.0
  0
LINE
  5
1F4
100
AcDbEntity
100
AcDbLine
  8
drawing
 62
256
370
-1
  6
ByLayer
 10
487.6000000000000227
 20
828.0000000000001137
 30
0.0
 11
490.6000000000000227
 21
827.0000000000001137
 31
0.0
  0
LINE
  5
1F5
100
AcDbEntity
100
AcDbLine
  8
drawing
 62
256
370
-1
  6
ByLayer
 10
491.6000000000000227
 20
832.0000000000001137
 30
0.0
 11
486.6000000000000227
 21
832.0000000000001137
 31
0.0
  0
LINE
  5
1F6
100
AcDbEntity
100
AcDbLine
  8
drawing
 62
256
370
-1
  6
ByLayer
 10
486.6000000000000227
 20
832.0000000000001137
 30
0.0
 11
489.6000000000000227
 21
833.0000000000001137
 31
0.0
  0
LINE
  5
1F7
100
AcDbEntity
100
AcDbLine
  8
drawing
 62
256
370
-1
  6
ByLayer
 10
486.6000000000000227
 20
832.0000000000001137
 30
0.0
 11
489.6000000000000227
 21
831.0000000000001137
 31
0.0
  0
ARC
  5
1F8
100
AcDbEntity
  8
drawing
 62
256
370
-1
  6
ByLayer
100
AcDbCircle
 10
488.0
 20
830.0
 30
0.0
 40
4.0
100
AcDbArc
 50
330.0000000000016485
 51
30.0000000000019504
  0
LINE
  5
1F9
100
AcDbEntity
100
AcDbLine
  8
drawing
 62
256
370
-1
  6
ByLayer
 10
491.4641016151377926
 20
828.0000000000001137
 30
0.0
 11
487.6000000000000227
 21
828.0000000000001137
 31
0.0
  0
LINE
  5
1FA
100
AcDbEntity
100
AcDbLine
  8
drawing
 62
256
370
-1
  6
ByLayer
 10
570.0
 20
840.0
 30
0.0
 11
590.0
 21
840.0
 31
0.0
  0
LINE
  5
1FB
100
AcDbEntity
100
AcDbLine
  8
drawing
 62
256
370
-1
  6
ByLayer
 10
590.0
 20
840.0
 30
0.0
 11
590.0
 21
820.0
 31
0.0
  0
LINE
  5
1FC
100
AcDbEntity
100
AcDbLine
  8
drawing
 62
256
370
-1
  6
ByLayer
 10
590.0
 20
820.0
 30
0.0
 11
570.0
 21
820.0
 31
0.0
  0
LINE
  5
1FD
100
AcDbEntity
100
AcDbLine
  8
drawing
 62
256
370
-1
  6
ByLayer
 10
574.0
 20
830.0
 30
0.0
 11
586.0
 21
830.0
 31
0.0
  0
LINE
  5
1FE
100
AcDbEntity
100
AcDbLine
  8
drawing
 62
256
370
-1
  6
ByLayer
 10
586.0
 20
830.0
 30
0.0
 11
583.0
 21
829.0
 31
0.0
  0
LINE
  5
1FF
100
AcDbEntity
100
AcDbLine
  8
drawing
 62
256
370
-1
  6
ByLayer
 10
586.0
 20
830.0
 30
0.0
 11
583.0
 21
831.0
 31
0.0
  0
LINE
  5
200
100
AcDbEntity
100
AcDbLine
  8
drawing
 62
256
370
-1
  6
ByLayer
 10
582.3999999999999773
 20
831.9999999999998863
 30
0.0
 11
579.3999999999999773
 21
830.9999999999998863
 31
0.0
  0
LINE
  5
201
100
AcDbEntity
100
AcDbLine
  8
drawing
 62
256
370
-1
  6
ByLayer
 10
582.3999999999999773
 20
831.9999999999998863
 30
0.0
 11
579.3999999999999773
 21
832.9999999999998863
 31
0.0
  0
LINE
  5
202
100
AcDbEntity
100
AcDbLine
  8
drawing
 62
256
370
-1
  6
ByLayer
 10
578.3999999999999773
 20
827.9999999999998863
 30
0.0
 11
583.3999999999999773
 21
827.9999999999998863
 31
0.0
  0
LINE
  5
203
100
AcDbEntity
100
AcDbLine
  8
drawing
 62
256
370
-1
  6
ByLayer
 10
583.3999999999999773
 20
827.9999999999998863
 30
0.0
 11
580.3999999999999773
 21
826.9999999999998863
 31
0.0
  0
LINE
  5
204
100
AcDbEntity
100
AcDbLine
  8
drawing
 62
256
370
-1
  6
ByLayer
 10
583.3999999999999773
 20
827.9999999999998863
 30
0.0
 11
580.3999999999999773
 21
828.9999999999998863
 31
0.0
  0
ARC
  5
205
100
AcDbEntity
  8
drawing
 62
256
370
-1
  6
ByLayer
100
AcDbCircle
 10
582.0
 20
830.0
 30
0.0
 40
4.0
100
AcDbArc
 50
150.0000000000016485
 51
210.0000000000019611
  0
LINE
  5
206
100
AcDbEntity
100
AcDbLine
  8
drawing
 62
256
370
-1
  6
ByLayer
 10
578.5358983848622074
 20
831.9999999999998863
 30
0.0
 11
582.3999999999999773
 21
831.9999999999998863
 31
0.0
  0
MTEXT
  5
207
100
AcDbEntity
100
AcDbMText
  8
helper
 62
256
370
-1
  6
ByLayer
 10
540.0
 20
850.0
 30
0.0
 40
5.0
 41
100.0
 71
5
 72
0
  1
Raspberry PI
  7
normallatin1
 50
0.0
 73
1
 44
1.0
  0
MTEXT
  5
208
100
AcDbEntity
100
AcDbMText
  8
helper
 62
256
370
-1
  6
ByLayer
 10
550.0
 20
2380.0
 30
0.0
 40
5.0
 41
100.0
 71
5
 72
0
  1
Control box
  7
normallatin1
 50
0.0
 73
1
 44
1.0
  0
LINE
  5
209
100
AcDbEntity
100
AcDbLine
  8
drawing
 62
256
370
-1
  6
ByLayer
 10
300.0
 20
800.0
 30
0.0
 11
300.0
 21
900.0
 31
0.0
  0
LINE
  5
20A
100
AcDbEntity
100
AcDbLine
  8
drawing
 62
256
370
-1
  6
ByLayer
 10
330.0
 20
900.0
 30
0.0
 11
330.0
 21
800.0
 31
0.0
  0
LINE
  5
20B
100
AcDbEntity
100
AcDbLine
  8
drawing
 62
256
370
-1
  6
ByLayer
 10
330.0
 20
800.0
 30
0.0
 11
300.0
 21
800.0
 31
0.0
  0
LINE
  5
20C
100
AcDbEntity
100
AcDbLine
  8
drawing
 62
256
370
-1
  6
ByLayer
 10
330.0
 20
830.0
 30
0.0
 11
350.0
 21
830.0
 31
0.0
  0
LINE
  5
20D
100
AcDbEntity
100
AcDbLine
  8
drawing
 62
256
370
-1
  6
ByLayer
 10
350.0
 20
830.0
 30
0.0
 11
350.0
 21
810.0
 31
0.0
  0
LINE
  5
20E
100
AcDbEntity
100
AcDbLine
  8
drawing
 62
256
370
-1
  6
ByLayer
 10
350.0
 20
810.0
 30
0.0
 11
330.0
 21
810.0
 31
0.0
  0
LINE
  5
20F
100
AcDbEntity
100
AcDbLine
  8
drawing
 62
256
370
-1
  6
ByLayer
 10
334.0
 20
820.0
 30
0.0
 11
346.0
 21
820.0
 31
0.0
  0
LINE
  5
210
100
AcDbEntity
100
AcDbLine
  8
drawing
 62
256
370
-1
  6
ByLayer
 10
346.0
 20
820.0
 30
0.0
 11
343.0
 21
819.0
 31
0.0
  0
LINE
  5
211
100
AcDbEntity
100
AcDbLine
  8
drawing
 62
256
370
-1
  6
ByLayer
 10
346.0
 20
820.0
 30
0.0
 11
343.0
 21
821.0
 31
0.0
  0
LINE
  5
212
100
AcDbEntity
100
AcDbLine
  8
drawing
 62
256
370
-1
  6
ByLayer
 10
342.3999999999999773
 20
821.9999999999998863
 30
0.0
 11
339.3999999999999773
 21
820.9999999999998863
 31
0.0
  0
LINE
  5
213
100
AcDbEntity
100
AcDbLine
  8
drawing
 62
256
370
-1
  6
ByLayer
 10
342.3999999999999773
 20
821.9999999999998863
 30
0.0
 11
339.3999999999999773
 21
822.9999999999998863
 31
0.0
  0
LINE
  5
214
100
AcDbEntity
100
AcDbLine
  8
drawing
 62
256
370
-1
  6
ByLayer
 10
338.3999999999999773
 20
817.9999999999998863
 30
0.0
 11
343.3999999999999773
 21
817.9999999999998863
 31
0.0
  0
LINE
  5
215
100
AcDbEntity
100
AcDbLine
  8
drawing
 62
256
370
-1
  6
ByLayer
 10
343.3999999999999773
 20
817.9999999999998863
 30
0.0
 11
340.3999999999999773
 21
816.9999999999998863
 31
0.0
  0
LINE
  5
216
100
AcDbEntity
100
AcDbLine
  8
drawing
 62
256
370
-1
  6
ByLayer
 10
343.3999999999999773
 20
817.9999999999998863
 30
0.0
 11
340.3999999999999773
 21
818.9999999999998863
 31
0.0
  0
ARC
  5
217
100
AcDbEntity
  8
drawing
 62
256
370
-1
  6
ByLayer
100
AcDbCircle
 10
342.0
 20
820.0
 30
0.0
 40
4.0
100
AcDbArc
 50
150.0000000000016485
 51
210.0000000000019611
  0
LINE
  5
218
100
AcDbEntity
100
AcDbLine
  8
drawing
 62
256
370
-1
  6
ByLayer
 10
338.5358983848622074
 20
821.9999999999998863
 30
0.0
 11
342.3999999999999773
 21
821.9999999999998863
 31
0.0
  0
LINE
  5
219
100
AcDbEntity
100
AcDbLine
  8
drawing
 62
256
370
-1
  6
ByLayer
 10
330.0
 20
860.0
 30
0.0
 11
350.0
 21
860.0
 31
0.0
  0
LINE
  5
21A
100
AcDbEntity
100
AcDbLine
  8
drawing
 62
256
370
-1
  6
ByLayer
 10
350.0
 20
860.0
 30
0.0
 11
350.0
 21
840.0
 31
0.0
  0
LINE
  5
21B
100
AcDbEntity
100
AcDbLine
  8
drawing
 62
256
370
-1
  6
ByLayer
 10
350.0
 20
840.0
 30
0.0
 11
330.0
 21
840.0
 31
0.0
  0
LINE
  5
21C
100
AcDbEntity
100
AcDbLine
  8
drawing
 62
256
370
-1
  6
ByLayer
 10
334.0
 20
850.0
 30
0.0
 11
346.0
 21
850.0
 31
0.0
  0
LINE
  5
21D
100
AcDbEntity
100
AcDbLine
  8
drawing
 62
256
370
-1
  6
ByLayer
 10
346.0
 20
850.0
 30
0.0
 11
343.0
 21
849.0
 31
0.0
  0
LINE
  5
21E
100
AcDbEntity
100
AcDbLine
  8
drawing
 62
256
370
-1
  6
ByLayer
 10
346.0
 20
850.0
 30
0.0
 11
343.0
 21
851.0
 31
0.0
  0
LINE
  5
21F
100
AcDbEntity
100
AcDbLine
  8
drawing
 62
256
370
-1
  6
ByLayer
 10
342.3999999999999773
 20
851.9999999999998863
 30
0.0
 11
339.3999999999999773
 21
850.9999999999998863
 31
0.0
  0
LINE
  5
220
100
AcDbEntity
100
AcDbLine
  8
drawing
 62
256
370
-1
  6
ByLayer
 10
342.3999999999999773
 20
851.9999999999998863
 30
0.0
 11
339.3999999999999773
 21
852.9999999999998863
 31
0.0
  0
LINE
  5
221
100
AcDbEntity
100
AcDbLine
  8
drawing
 62
256
370
-1
  6
ByLayer
 10
338.3999999999999773
 20
847.9999999999998863
 30
0.0
 11
343.3999999999999773
 21
847.9999999999998863
 31
0.0
  0
LINE
  5
222
100
AcDbEntity
100
AcDbLine
  8
drawing
 62
256
370
-1
  6
ByLayer
 10
343.3999999999999773
 20
847.9999999999998863
 30
0.0
 11
340.3999999999999773
 21
846.9999999999998863
 31
0.0
  0
LINE
  5
223
100
AcDbEntity
100
AcDbLine
  8
drawing
 62
256
370
-1
  6
ByLayer
 10
343.3999999999999773
 20
847.9999999999998863
 30
0.0
 11
340.3999999999999773
 21
848.9999999999998863
 31
0.0
  0
ARC
  5
224
100
AcDbEntity
  8
drawing
 62
256
370
-1
  6
ByLayer
100
AcDbCircle
 10
342.0
 20
850.0
 30
0.0
 40
4.0
100
AcDbArc
 50
150.0000000000016485
 51
210.0000000000019611
  0
LINE
  5
225
100
AcDbEntity
100
AcDbLine
  8
drawing
 62
256
370
-1
  6
ByLayer
 10
338.5358983848622074
 20
851.9999999999998863
 30
0.0
 11
342.3999999999999773
 21
851.9999999999998863
 31
0.0
  0
LINE
  5
226
100
AcDbEntity
100
AcDbLine
  8
drawing
 62
256
370
-1
  6
ByLayer
 10
330.0
 20
890.0
 30
0.0
 11
350.0
 21
890.0
 31
0.0
  0
LINE
  5
227
100
AcDbEntity
100
AcDbLine
  8
drawing
 62
256
370
-1
  6
ByLayer
 10
350.0
 20
890.0
 30
0.0
 11
350.0
 21
870.0
 31
0.0
  0
LINE
  5
228
100
AcDbEntity
100
AcDbLine
  8
drawing
 62
256
370
-1
  6
ByLayer
 10
350.0
 20
870.0
 30
0.0
 11
330.0
 21
870.0
 31
0.0
  0
LINE
  5
229
100
AcDbEntity
100
AcDbLine
  8
drawing
 62
256
370
-1
  6
ByLayer
 10
334.0
 20
880.0
 30
0.0
 11
346.0
 21
880.0
 31
0.0
  0
LINE
  5
22A
100
AcDbEntity
100
AcDbLine
  8
drawing
 62
256
370
-1
  6
ByLayer
 10
346.0
 20
880.0
 30
0.0
 11
343.0
 21
879.0
 31
0.0
  0
LINE
  5
22B
100
AcDbEntity
100
AcDbLine
  8
drawing
 62
256
370
-1
  6
ByLayer
 10
346.0
 20
880.0
 30
0.0
 11
343.0
 21
881.0
 31
0.0
  0
LINE
  5
22C
100
AcDbEntity
100
AcDbLine
  8
drawing
 62
256
370
-1
  6
ByLayer
 10
342.3999999999999773
 20
881.9999999999998863
 30
0.0
 11
339.3999999999999773
 21
880.9999999999998863
 31
0.0
  0
LINE
  5
22D
100
AcDbEntity
100
AcDbLine
  8
drawing
 62
256
370
-1
  6
ByLayer
 10
342.3999999999999773
 20
881.9999999999998863
 30
0.0
 11
339.3999999999999773
 21
882.9999999999998863
 31
0.0
  0
LINE
  5
22E
100
AcDbEntity
100
AcDbLine
  8
drawing
 62
256
370
-1
  6
ByLayer
 10
338.3999999999999773
 20
877.9999999999998863
 30
0.0
 11
343.3999999999999773
 21
877.9999999999998863
 31
0.0
  0
LINE
  5
22F
100
AcDbEntity
100
AcDbLine
  8
drawing
 62
256
370
-1
  6
ByLayer
 10
343.3999999999999773
 20
877.9999999999998863
 30
0.0
 11
340.3999999999999773
 21
876.9999999999998863
 31
0.0
  0
LINE
  5
230
100
AcDbEntity
100
AcDbLine
  8
drawing
 62
256
370
-1
  6
ByLayer
 10
343.3999999999999773
 20
877.9999999999998863
 30
0.0
 11
340.3999999999999773
 21
878.9999999999998863
 31
0.0
  0
ARC
  5
231
100
AcDbEntity
  8
drawing
 62
256
370
-1
  6
ByLayer
100
AcDbCircle
 10
342.0
 20
880.0
 30
0.0
 40
4.0
100
AcDbArc
 50
150.0000000000016485
 51
210.0000000000019611
  0
LINE
  5
232
100
AcDbEntity
100
AcDbLine
  8
drawing
 62
256
370
-1
  6
ByLayer
 10
338.5358983848622074
 20
881.9999999999998863
 30
0.0
 11
342.3999999999999773
 21
881.9999999999998863
 31
0.0
  0
LINE
  5
233
100
AcDbEntity
100
AcDbLine
  8
drawing
 62
256
370
-1
  6
ByLayer
 10
330.0
 20
920.0
 30
0.0
 11
350.0
 21
920.0
 31
0.0
  0
LINE
  5
234
100
AcDbEntity
100
AcDbLine
  8
drawing
 62
256
370
-1
  6
ByLayer
 10
350.0
 20
920.0
 30
0.0
 11
350.0
 21
900.0
 31
0.0
  0
LINE
  5
235
100
AcDbEntity
100
AcDbLine
  8
drawing
 62
256
370
-1
  6
ByLayer
 10
350.0
 20
900.0
 30
0.0
 11
330.0
 21
900.0
 31
0.0
  0
LINE
  5
236
100
AcDbEntity
100
AcDbLine
  8
drawing
 62
256
370
-1
  6
ByLayer
 10
334.0
 20
910.0
 30
0.0
 11
346.0
 21
910.0
 31
0.0
  0
LINE
  5
237
100
AcDbEntity
100
AcDbLine
  8
drawing
 62
256
370
-1
  6
ByLayer
 10
346.0
 20
910.0
 30
0.0
 11
343.0
 21
909.0
 31
0.0
  0
LINE
  5
238
100
AcDbEntity
100
AcDbLine
  8
drawing
 62
256
370
-1
  6
ByLayer
 10
346.0
 20
910.0
 30
0.0
 11
343.0
 21
911.0
 31
0.0
  0
LINE
  5
239
100
AcDbEntity
100
AcDbLine
  8
drawing
 62
256
370
-1
  6
ByLayer
 10
342.3999999999999773
 20
911.9999999999998863
 30
0.0
 11
339.3999999999999773
 21
910.9999999999998863
 31
0.0
  0
LINE
  5
23A
100
AcDbEntity
100
AcDbLine
  8
drawing
 62
256
370
-1
  6
ByLayer
 10
342.3999999999999773
 20
911.9999999999998863
 30
0.0
 11
339.3999999999999773
 21
912.9999999999998863
 31
0.0
  0
LINE
  5
23B
100
AcDbEntity
100
AcDbLine
  8
drawing
 62
256
370
-1
  6
ByLayer
 10
338.3999999999999773
 20
907.9999999999998863
 30
0.0
 11
343.3999999999999773
 21
907.9999999999998863
 31
0.0
  0
LINE
  5
23C
100
AcDbEntity
100
AcDbLine
  8
drawing
 62
256
370
-1
  6
ByLayer
 10
343.3999999999999773
 20
907.9999999999998863
 30
0.0
 11
340.3999999999999773
 21
906.9999999999998863
 31
0.0
  0
LINE
  5
23D
100
AcDbEntity
100
AcDbLine
  8
drawing
 62
256
370
-1
  6
ByLayer
 10
343.3999999999999773
 20
907.9999999999998863
 30
0.0
 11
340.3999999999999773
 21
908.9999999999998863
 31
0.0
  0
ARC
  5
23E
100
AcDbEntity
  8
drawing
 62
256
370
-1
  6
ByLayer
100
AcDbCircle
 10
342.0
 20
910.0
 30
0.0
 40
4.0
100
AcDbArc
 50
150.0000000000016485
 51
210.0000000000019611
  0
LINE
  5
23F
100
AcDbEntity
100
AcDbLine
  8
drawing
 62
256
370
-1
  6
ByLayer
 10
338.5358983848622074
 20
911.9999999999998863
 30
0.0
 11
342.3999999999999773
 21
911.9999999999998863
 31
0.0
  0
LINE
  5
240
100
AcDbEntity
100
AcDbLine
  8
drawing
 62
256
370
-1
  6
ByLayer
 10
300.0
 20
900.0
 30
0.0
 11
300.0
 21
930.0
 31
0.0
  0
LINE
  5
241
100
AcDbEntity
100
AcDbLine
  8
drawing
 62
256
370
-1
  6
ByLayer
 10
300.0
 20
930.0
 30
0.0
 11
330.0
 21
930.0
 31
0.0
  0
LINE
  5
242
100
AcDbEntity
100
AcDbLine
  8
drawing
 62
256
370
-1
  6
ByLayer
 10
330.0
 20
930.0
 30
0.0
 11
330.0
 21
900.0
 31
0.0
  0
LINE
  5
243
100
AcDbEntity
100
AcDbLine
  8
drawing
 62
256
370
-1
  6
ByLayer
 10
305.0
 20
930.0
 30
0.0
 11
305.0
 21
950.0
 31
0.0
  0
LINE
  5
244
100
AcDbEntity
100
AcDbLine
  8
drawing
 62
256
370
-1
  6
ByLayer
 10
305.0
 20
950.0
 30
0.0
 11
325.0
 21
950.0
 31
0.0
  0
LINE
  5
245
100
AcDbEntity
100
AcDbLine
  8
drawing
 62
256
370
-1
  6
ByLayer
 10
325.0
 20
950.0
 30
0.0
 11
325.0
 21
930.0
 31
0.0
  0
LINE
  5
246
100
AcDbEntity
100
AcDbLine
  8
drawing
 62
256
370
-1
  6
ByLayer
 10
315.0
 20
934.0
 30
0.0
 11
315.0
 21
946.0
 31
0.0
  0
LINE
  5
247
100
AcDbEntity
100
AcDbLine
  8
drawing
 62
256
370
-1
  6
ByLayer
 10
315.0
 20
946.0
 30
0.0
 11
316.0
 21
943.0
 31
0.0
  0
LINE
  5
248
100
AcDbEntity
100
AcDbLine
  8
drawing
 62
256
370
-1
  6
ByLayer
 10
315.0
 20
946.0
 30
0.0
 11
314.0
 21
943.0
 31
0.0
  0
LINE
  5
249
100
AcDbEntity
100
AcDbLine
  8
drawing
 62
256
370
-1
  6
ByLayer
 10
313.0000000000001137
 20
942.3999999999999773
 30
0.0
 11
314.0000000000001137
 21
939.3999999999999773
 31
0.0
  0
LINE
  5
24A
100
AcDbEntity
100
AcDbLine
  8
drawing
 62
256
370
-1
  6
ByLayer
 10
313.0000000000001137
 20
942.3999999999999773
 30
0.0
 11
312.0000000000001137
 21
939.3999999999999773
 31
0.0
  0
LINE
  5
24B
100
AcDbEntity
100
AcDbLine
  8
drawing
 62
256
370
-1
  6
ByLayer
 10
317.0000000000001137
 20
938.3999999999999773
 30
0.0
 11
317.0000000000001137
 21
943.3999999999999773
 31
0.0
  0
LINE
  5
24C
100
AcDbEntity
100
AcDbLine
  8
drawing
 62
256
370
-1
  6
ByLayer
 10
317.0000000000001137
 20
943.3999999999999773
 30
0.0
 11
318.0000000000001137
 21
940.3999999999999773
 31
0.0
  0
LINE
  5
24D
100
AcDbEntity
100
AcDbLine
  8
drawing
 62
256
370
-1
  6
ByLayer
 10
317.0000000000001137
 20
943.3999999999999773
 30
0.0
 11
316.0000000000001137
 21
940.3999999999999773
 31
0.0
  0
ARC
  5
24E
100
AcDbEntity
  8
drawing
 62
256
370
-1
  6
ByLayer
100
AcDbCircle
 10
315.0
 20
942.0
 30
0.0
 40
4.0
100
AcDbArc
 50
240.0000000000016485
 51
300.0000000000019327
  0
LINE
  5
24F
100
AcDbEntity
100
AcDbLine
  8
drawing
 62
256
370
-1
  6
ByLayer
 10
313.0000000000001137
 20
938.5358983848622074
 30
0.0
 11
313.0000000000001137
 21
942.3999999999999773
 31
0.0
  0
INSERT
  5
250
100
AcDbEntity
100
AcDbBlockReference
  8
drawing
 62
256
370
-1
  6
ByLayer
  2
end-inductive-sensor
 10
990.0
 20
1400.0
 30
0.0
  0
INSERT
  5
251
100
AcDbEntity
100
AcDbBlockReference
  8
drawing
 62
256
370
-1
  6
ByLayer
  2
end-inductive-sensor
 10
990.0
 20
1210.0
 30
0.0
  0
INSERT
  5
252
100
AcDbEntity
100
AcDbBlockReference
  8
drawing
 62
256
370
-1
  6
ByLayer
  2
end-inductive-sensor
 10
990.0
 20
1010.0
 30
0.0
  0
INSERT
  5
253
100
AcDbEntity
100
AcDbBlockReference
  8
drawing
 62
256
370
-1
  6
ByLayer
  2
end-inductive-sensor
 10
990.0
 20
810.0
 30
0.0
  0
ENDSEC
  0
SECTION
  2
OBJECTS
  0
DICTIONARY
  5
C
100
AcDbDictionary
280
0
281
1
  3
ACAD_GROUP
350
D
  3
ACAD_LAYOUT
350
1A
  3
ACAD_MLINESTYLE
350
17
  3
ACAD_PLOTSETTINGS
350
19
  3
ACAD_PLOTSTYLENAME
350
E
  3
AcDbVariableDictionary
350
254
  0
DICTIONARY
  5
D
100
AcDbDictionary
280
0
281
1
  0
ACDBDICTIONARYWDFLT
  5
E
100
AcDbDictionary
281
1
  3
Normal
350
F
100
AcDbDictionaryWithDefault
340
F
  0
ACDBPLACEHOLDER
  5
F
  0
DICTIONARY
  5
17
100
AcDbDictionary
280
0
281
1
  3
Standard
350
18
  0
MLINESTYLE
  5
18
100
AcDbMlineStyle
  2
STANDARD
 70
0
  3

 62
256
 51
90.0
 52
90.0
 71
2
 49
0.5
 62
256
  6
BYLAYER
 49
-0.5
 62
256
  6
BYLAYER
  0
DICTIONARY
  5
19
100
AcDbDictionary
280
0
281
1
  0
DICTIONARY
  5
1A
100
AcDbDictionary
281
1
  3
Layout1
350
1E
  3
Layout2
350
26
  3
Model
350
22
  0
LAYOUT
  5
1E
100
AcDbPlotSettings
  1

  2
C:\Program Files\AutoCAD 2002\plotters\DWF ePlot (optimized for plotting).pc3
  4

  6

 40
0.0
 41
0.0
 42
0.0
 43
0.0
 44
0.0
 45
0.0
 46
0.0
 47
0.0
 48
0.0
 49
0.0
140
0.0
141
0.0
142
1.0
143
1.0
 70
688
 72
0
 73
0
 74
5
  7

 75
16
147
1.0
148
0.0
149
0.0
100
AcDbLayout
  1
Layout1
 70
1
 71
1
 10
0.0
 20
0.0
 11
420.0
 21
297.0
 12
0.0
 22
0.0
 32
0.0
 14
100000000000000000000.0
 24
100000000000000000000.0
 34
100000000000000000000.0
 15
-100000000000000000000.0
 25
-100000000000000000000.0
 35
-100000000000000000000.0
146
0.0
 13
0.0
 23
0.0
 33
0.0
 16
1.0
 26
0.0
 36
0.0
 17
0.0
 27
1.0
 37
0.0
 76
0
330
1B
  0
LAYOUT
  5
22
100
AcDbPlotSettings
  1

  2
C:\Program Files\AutoCAD 2002\plotters\DWF ePlot (optimized for plotting).pc3
  4

  6

 40
0.0
 41
0.0
 42
0.0
 43
0.0
 44
0.0
 45
0.0
 46
0.0
 47
0.0
 48
0.0
 49
0.0
140
0.0
141
0.0
142
1.0
143
1.0
 70
1712
 72
0
 73
0
 74
0
  7

 75
0
147
1.0
148
0.0
149
0.0
100
AcDbLayout
  1
Model
 70
1
 71
0
 10
0.0
 20
0.0
 11
12.0
 21
9.0
 12
0.0
 22
0.0
 32
0.0
 14
0.0
 24
0.0
 34
0.0
 15
0.0
 25
0.0
 35
0.0
146
0.0
 13
0.0
 23
0.0
 33
0.0
 16
1.0
 26
0.0
 36
0.0
 17
0.0
 27
1.0
 37
0.0
 76
0
330
1F
  0
LAYOUT
  5
26
100
AcDbPlotSettings
  1

  2
C:\Program Files\AutoCAD 2002\plotters\DWF ePlot (optimized for plotting).pc3
  4

  6

 40
0.0
 41
0.0
 42
0.0
 43
0.0
 44
0.0
 45
0.0
 46
0.0
 47
0.0
 48
0.0
 49
0.0
140
0.0
141
0.0
142
1.0
143
1.0
 70
688
 72
0
 73
0
 74
5
  7

 75
16
147
1.0
148
0.0
149
0.0
100
AcDbLayout
  1
Layout2
 70
1
 71
2
 10
0.0
 20
0.0
 11
12.0
 21
9.0
 12
0.0
 22
0.0
 32
0.0
 14
0.0
 24
0.0
 34
0.0
 15
0.0
 25
0.0
 35
0.0
146
0.0
 13
0.0
 23
0.0
 33
0.0
 16
1.0
 26
0.0
 36
0.0
 17
0.0
 27
1.0
 37
0.0
 76
0
330
23
  0
DICTIONARY
  5
254
100
AcDbDictionary
281
1
  3
DIMASSOC
350
256
  3
HIDETEXT
350
255
  0
DICTIONARYVAR
  5
255
100
DictionaryVariables
280
0
  1
2
  0
DICTIONARYVAR
  5
256
100
DictionaryVariables
280
0
  1
1
  0
ENDSEC
  0
EOF
