999
dxflib 2.2.0.0
  0
SECTION
  2
HEADER
  9
$ACADVER
  1
AC1015
  9
$HANDSEED
  5
FFFF
  9
$SPLINESEGS
 70
8
  9
$DIMEXE
 40
1.25
  9
$DIMLUNIT
 70
2
  9
$GRIDMODE
 70
1
  9
$INSUNITS
 70
4
  9
$DIMADEC
 70
2
  9
$DIMASZ
 40
2.5
  9
$DIMGAP
 40
0.625
  9
$DIMTXT
 40
2.5
  9
$GRIDUNIT
 10
0.1
 20
0.1
  9
$DIMEXO
 40
0.625
  9
$LUPREC
 70
4
  9
$DIMAUNIT
 70
0
  9
$AUPREC
 70
2
  9
$PLIMMIN
 10
0.0
 20
0.0
  9
$LUNITS
 70
2
  9
$PLIMMAX
 10
841.0
 20
1189.0
  9
$DIMSTYLE
  2
Standard
  9
$AUNITS
 70
0
  0
ENDSEC
  0
SECTION
  2
TABLES
  0
TABLE
  2
VPORT
  5
8
100
AcDbSymbolTable
 70
1
  0
VPORT
  5
30
100
AcDbSymbolTableRecord
100
AcDbViewportTableRecord
  2
*Active
 70
0
 10
0.0
 20
0.0
 11
1.0
 21
1.0
 12
286.3055555555554861
 22
148.5
 13
0.0
 23
0.0
 14
10.0
 24
10.0
 15
10.0
 25
10.0
 16
0.0
 26
0.0
 36
1.0
 17
0.0
 27
0.0
 37
0.0
 40
297.0
 41
1.92798353909465
 42
50.0
 43
0.0
 44
0.0
 50
0.0
 51
0.0
 71
0
 72
100
 73
1
 74
3
 75
1
 76
1
 77
0
 78
0
281
0
 65
1
110
0.0
120
0.0
130
0.0
111
1.0
121
0.0
131
0.0
112
0.0
122
1.0
132
0.0
 79
0
146
0.0
  0
ENDTAB
  0
TABLE
  2
LTYPE
  5
5
100
AcDbSymbolTable
 70
21
  0
LTYPE
  5
14
100
AcDbSymbolTableRecord
100
AcDbLinetypeTableRecord
  2
ByBlock
 70
0
  3

 72
65
 73
0
 40
0.0
  0
LTYPE
  5
15
100
AcDbSymbolTableRecord
100
AcDbLinetypeTableRecord
  2
ByLayer
 70
0
  3

 72
65
 73
0
 40
0.0
  0
LTYPE
  5
16
100
AcDbSymbolTableRecord
100
AcDbLinetypeTableRecord
  2
CONTINUOUS
 70
0
  3
Solid line
 72
65
 73
0
 40
0.0
  0
LTYPE
  5
31
100
AcDbSymbolTableRecord
100
AcDbLinetypeTableRecord
  2
DOT
 70
0
  3
Dot . . . . . . . . . . . . . . . . . . . . . .
 72
65
 73
2
 40
6.3499999999999996
 49
0.0
 74
0
 49
-6.3499999999999996
 74
0
  0
LTYPE
  5
32
100
AcDbSymbolTableRecord
100
AcDbLinetypeTableRecord
  2
DOT2
 70
0
  3
Dot (.5x) .....................................
 72
65
 73
2
 40
3.1749999999999998
 49
0.0
 74
0
 49
-3.1749999999999998
 74
0
  0
LTYPE
  5
33
100
AcDbSymbolTableRecord
100
AcDbLinetypeTableRecord
  2
DOTX2
 70
0
  3
Dot (2x) .  .  .  .  .  .  .  .  .  .  .  .  .
 72
65
 73
2
 40
12.6999999999999993
 49
0.0
 74
0
 49
-12.6999999999999993
 74
0
  0
LTYPE
  5
34
100
AcDbSymbolTableRecord
100
AcDbLinetypeTableRecord
  2
DASHED
 70
0
  3
Dashed __ __ __ __ __ __ __ __ __ __ __ __ __ _
 72
65
 73
2
 40
19.0500000000000007
 49
12.6999999999999993
 74
0
 49
-6.3499999999999996
 74
0
  0
LTYPE
  5
35
100
AcDbSymbolTableRecord
100
AcDbLinetypeTableRecord
  2
DASHED2
 70
0
  3
Dashed (.5x) _ _ _ _ _ _ _ _ _ _ _ _ _ _ _ _ _
 72
65
 73
2
 40
9.5250000000000004
 49
6.3499999999999996
 74
0
 49
-3.1749999999999998
 74
0
  0
LTYPE
  5
36
100
AcDbSymbolTableRecord
100
AcDbLinetypeTableRecord
  2
DASHEDX2
 70
0
  3
Dashed (2x) ____  ____  ____  ____  ____  ___
 72
65
 73
2
 40
38.1000000000000014
 49
25.3999999999999986
 74
0
 49
-12.6999999999999993
 74
0
  0
LTYPE
  5
37
100
AcDbSymbolTableRecord
100
AcDbLinetypeTableRecord
  2
DASHDOT
 70
0
  3
Dash dot __ . __ . __ . __ . __ . __ . __ . __
 72
65
 73
4
 40
25.3999999999999986
 49
12.6999999999999993
 74
0
 49
-6.3499999999999996
 74
0
 49
0.0
 74
0
 49
-6.3499999999999996
 74
0
  0
LTYPE
  5
38
100
AcDbSymbolTableRecord
100
AcDbLinetypeTableRecord
  2
DASHDOT2
 70
0
  3
Dash dot (.5x) _._._._._._._._._._._._._._._.
 72
65
 73
4
 40
12.6999999999999993
 49
6.3499999999999996
 74
0
 49
-3.1749999999999998
 74
0
 49
0.0
 74
0
 49
-3.1749999999999998
 74
0
  0
LTYPE
  5
39
100
AcDbSymbolTableRecord
100
AcDbLinetypeTableRecord
  2
DASHDOTX2
 70
0
  3
Dash dot (2x) ____  .  ____  .  ____  .  ___
 72
65
 73
4
 40
50.7999999999999972
 49
25.3999999999999986
 74
0
 49
-12.6999999999999993
 74
0
 49
0.0
 74
0
 49
-12.6999999999999993
 74
0
  0
LTYPE
  5
3A
100
AcDbSymbolTableRecord
100
AcDbLinetypeTableRecord
  2
DIVIDE
 70
0
  3
Divide ____ . . ____ . . ____ . . ____ . . ____
 72
65
 73
6
 40
31.75
 49
12.6999999999999993
 74
0
 49
-6.3499999999999996
 74
0
 49
0.0
 74
0
 49
-6.3499999999999996
 74
0
 49
0.0
 74
0
 49
-6.3499999999999996
 74
0
  0
LTYPE
  5
3B
100
AcDbSymbolTableRecord
100
AcDbLinetypeTableRecord
  2
DIVIDE2
 70
0
  3
Divide (.5x) __..__..__..__..__..__..__..__.._
 72
65
 73
6
 40
15.875
 49
6.3499999999999996
 74
0
 49
-3.1749999999999998
 74
0
 49
0.0
 74
0
 49
-3.1749999999999998
 74
0
 49
0.0
 74
0
 49
-3.1749999999999998
 74
0
  0
LTYPE
  5
3C
100
AcDbSymbolTableRecord
100
AcDbLinetypeTableRecord
  2
DIVIDEX2
 70
0
  3
Divide (2x) ________  .  .  ________  .  .  _
 72
65
 73
6
 40
63.5
 49
25.3999999999999986
 74
0
 49
-12.6999999999999993
 74
0
 49
0.0
 74
0
 49
-12.6999999999999993
 74
0
 49
0.0
 74
0
 49
-12.6999999999999993
 74
0
  0
LTYPE
  5
3D
100
AcDbSymbolTableRecord
100
AcDbLinetypeTableRecord
  2
CENTER
 70
0
  3
Center ____ _ ____ _ ____ _ ____ _ ____ _ ____
 72
65
 73
4
 40
50.7999999999999972
 49
31.75
 74
0
 49
-6.3499999999999996
 74
0
 49
6.3499999999999996
 74
0
 49
-6.3499999999999996
 74
0
  0
LTYPE
  5
3E
100
AcDbSymbolTableRecord
100
AcDbLinetypeTableRecord
  2
CENTER2
 70
0
  3
Center (.5x) ___ _ ___ _ ___ _ ___ _ ___ _ ___
 72
65
 73
4
 40
28.5749999999999993
 49
19.0500000000000007
 74
0
 49
-3.1749999999999998
 74
0
 49
3.1749999999999998
 74
0
 49
-3.1749999999999998
 74
0
  0
LTYPE
  5
3F
100
AcDbSymbolTableRecord
100
AcDbLinetypeTableRecord
  2
CENTERX2
 70
0
  3
Center (2x) ________  __  ________  __  _____
 72
65
 73
4
 40
101.5999999999999943
 49
63.5
 74
0
 49
-12.6999999999999993
 74
0
 49
12.6999999999999993
 74
0
 49
-12.6999999999999993
 74
0
  0
LTYPE
  5
40
100
AcDbSymbolTableRecord
100
AcDbLinetypeTableRecord
  2
BORDER
 70
0
  3
Border __ __ . __ __ . __ __ . __ __ . __ __ .
 72
65
 73
6
 40
44.4500000000000028
 49
12.6999999999999993
 74
0
 49
-6.3499999999999996
 74
0
 49
12.6999999999999993
 74
0
 49
-6.3499999999999996
 74
0
 49
0.0
 74
0
 49
-6.3499999999999996
 74
0
  0
LTYPE
  5
41
100
AcDbSymbolTableRecord
100
AcDbLinetypeTableRecord
  2
BORDER2
 70
0
  3
Border (.5x) __.__.__.__.__.__.__.__.__.__.__.
 72
65
 73
6
 40
22.2250000000000014
 49
6.3499999999999996
 74
0
 49
-3.1749999999999998
 74
0
 49
6.3499999999999996
 74
0
 49
-3.1749999999999998
 74
0
 49
0.0
 74
0
 49
-3.1749999999999998
 74
0
  0
LTYPE
  5
42
100
AcDbSymbolTableRecord
100
AcDbLinetypeTableRecord
  2
BORDERX2
 70
0
  3
Border (2x) ____  ____  .  ____  ____  .  ___
 72
65
 73
6
 40
88.9000000000000057
 49
25.3999999999999986
 74
0
 49
-12.6999999999999993
 74
0
 49
25.3999999999999986
 74
0
 49
-12.6999999999999993
 74
0
 49
0.0
 74
0
 49
-12.6999999999999993
 74
0
  0
ENDTAB
  0
TABLE
  2
LAYER
  5
2
100
AcDbSymbolTable
 70
5
  0
LAYER
  5
10
100
AcDbSymbolTableRecord
100
AcDbLayerTableRecord
  2
0
 70
0
 62
7
  6
CONTINUOUS
370
0
390
F
  0
LAYER
  5
43
100
AcDbSymbolTableRecord
100
AcDbLayerTableRecord
  2
dimensions
 70
0
 62
5
  6
CONTINUOUS
370
0
390
F
  0
LAYER
  5
44
100
AcDbSymbolTableRecord
100
AcDbLayerTableRecord
  2
drawing
 70
0
 62
7
  6
CONTINUOUS
370
0
390
F
  0
LAYER
  5
45
100
AcDbSymbolTableRecord
100
AcDbLayerTableRecord
  2
help
 70
1
 62
2
  6
BORDER2
370
0
390
F
  0
LAYER
  5
46
100
AcDbSymbolTableRecord
100
AcDbLayerTableRecord
  2
add
 70
0
 62
1
  6
CONTINUOUS
370
0
390
F
  0
ENDTAB
  0
TABLE
  2
STYLE
  5
3
100
AcDbSymbolTable
 70
1
  0
STYLE
  5
11
100
AcDbSymbolTableRecord
100
AcDbTextStyleTableRecord
  2
Standard
 70
0
 40
0.0
 41
0.75
 50
0.0
 71
0
 42
2.5
  3
txt
  4

  0
ENDTAB
  0
TABLE
  2
VIEW
  5
6
100
AcDbSymbolTable
 70
0
  0
ENDTAB
  0
TABLE
  2
UCS
  5
7
100
AcDbSymbolTable
 70
0
  0
ENDTAB
  0
TABLE
  2
APPID
  5
9
100
AcDbSymbolTable
 70
1
  0
APPID
  5
12
100
AcDbSymbolTableRecord
100
AcDbRegAppTableRecord
  2
ACAD
 70
0
  0
ENDTAB
  0
TABLE
  2
DIMSTYLE
  5
A
100
AcDbSymbolTable
 70
1
100
AcDbDimStyleTable
 71
0
  0
DIMSTYLE
105
27
100
AcDbSymbolTableRecord
100
AcDbDimStyleTableRecord
  2
Standard
 41
2.5
 42
0.625
 43
3.75
 44
1.25
 70
0
 73
0
 74
0
 77
1
 78
8
140
2.5
141
2.5
143
0.03937007874016
147
0.625
171
3
172
1
271
2
272
2
274
3
278
44
283
0
284
8
340
11
  0
ENDTAB
  0
TABLE
  2
BLOCK_RECORD
  5
1
100
AcDbSymbolTable
 70
1
  0
BLOCK_RECORD
  5
1F
100
AcDbSymbolTableRecord
100
AcDbBlockTableRecord
  2
*Model_Space
340
22
  0
BLOCK_RECORD
  5
1B
100
AcDbSymbolTableRecord
100
AcDbBlockTableRecord
  2
*Paper_Space
340
1E
  0
BLOCK_RECORD
  5
23
100
AcDbSymbolTableRecord
100
AcDbBlockTableRecord
  2
*Paper_Space0
340
26
  0
BLOCK_RECORD
  5
47
100
AcDbSymbolTableRecord
100
AcDbBlockTableRecord
  2
tux-0
340
0
  0
BLOCK_RECORD
  5
48
100
AcDbSymbolTableRecord
100
AcDbBlockTableRecord
  2
d-sub-9
340
0
  0
BLOCK_RECORD
  5
49
100
AcDbSymbolTableRecord
100
AcDbBlockTableRecord
  2
d-sub-37
340
0
  0
BLOCK_RECORD
  5
4A
100
AcDbSymbolTableRecord
100
AcDbBlockTableRecord
  2
a60
340
0
  0
BLOCK_RECORD
  5
4B
100
AcDbSymbolTableRecord
100
AcDbBlockTableRecord
  2
vac-relay
340
0
  0
BLOCK_RECORD
  5
4C
100
AcDbSymbolTableRecord
100
AcDbBlockTableRecord
  2
cst220n2
340
0
  0
BLOCK_RECORD
  5
4D
100
AcDbSymbolTableRecord
100
AcDbBlockTableRecord
  2
trp-8
340
0
  0
BLOCK_RECORD
  5
4E
100
AcDbSymbolTableRecord
100
AcDbBlockTableRecord
  2
u73
340
0
  0
ENDTAB
  0
ENDSEC
  0
SECTION
  2
BLOCKS
  0
BLOCK
  5
20
100
AcDbEntity
  8
0
100
AcDbBlockBegin
  2
*Model_Space
 70
0
 10
0.0
 20
0.0
 30
0.0
  3
*Model_Space
  1

  0
ENDBLK
  5
21
100
AcDbEntity
  8
0
100
AcDbBlockEnd
  0
BLOCK
  5
1C
100
AcDbEntity
 67
1
  8
0
100
AcDbBlockBegin
  2
*Paper_Space
 70
0
 10
0.0
 20
0.0
 30
0.0
  3
*Paper_Space
  1

  0
ENDBLK
  5
1D
100
AcDbEntity
 67
1
  8
0
100
AcDbBlockEnd
  0
BLOCK
  5
24
100
AcDbEntity
  8
0
100
AcDbBlockBegin
  2
*Paper_Space0
 70
0
 10
0.0
 20
0.0
 30
0.0
  3
*Paper_Space0
  1

  0
ENDBLK
  5
25
100
AcDbEntity
  8
0
100
AcDbBlockEnd
  0
BLOCK
  5
4F
100
AcDbEntity
  8
0
100
AcDbBlockBegin
  2
tux-0
 70
0
 10
0.0
 20
0.0
 30
0.0
  3
tux-0
  1

  0
ARC
  5
50
100
AcDbEntity
  8
0
 62
0
370
0
  6
CONTINUOUS
100
AcDbCircle
 10
12.7270149999999997
 20
26.4046270000000014
 30
0.0
 40
3.9318719999999998
100
AcDbArc
 50
105.1414259999999956
 51
177.1518250000000023
  0
ARC
  5
51
100
AcDbEntity
  8
0
 62
0
370
0
  6
CONTINUOUS
100
AcDbCircle
 10
12.8779369999999993
 20
25.5043080000000018
 30
0.0
 40
4.8411840000000002
100
AcDbArc
 50
39.7507739999999998
 51
104.082335999999998
  0
ARC
  5
52
100
AcDbEntity
  8
0
 62
0
370
0
  6
CONTINUOUS
100
AcDbCircle
 10
8.2048389999999998
 20
23.9467740000000013
 30
0.0
 40
9.5985019999999999
100
AcDbArc
 50
1.511741
 51
28.9984949999999984
  0
ARC
  5
53
100
AcDbEntity
  8
0
 62
0
370
0
  6
CONTINUOUS
100
AcDbCircle
 10
21.3937489999999997
 20
23.3187500000000014
 30
0.0
 40
3.7002220000000001
100
AcDbArc
 50
166.2219540000000109
 51
199.2306670000000111
  0
ARC
  5
54
100
AcDbEntity
  8
0
 62
0
370
0
  6
CONTINUOUS
100
AcDbCircle
 10
28.3417819999999985
 20
24.8294519999999999
 30
0.0
 40
10.7926219999999997
100
AcDbArc
 50
194.649169999999998
 51
215.9062649999999906
  0
ARC
  5
55
100
AcDbEntity
  8
0
 62
0
370
0
  6
CONTINUOUS
100
AcDbCircle
 10
14.3100000000000005
 20
11.8100000000000005
 30
0.0
 40
8.5287869999999995
100
AcDbArc
 50
27.1358870000000003
 51
51.6654359999999997
  0
ARC
  5
56
100
AcDbEntity
  8
0
 62
0
370
0
  6
CONTINUOUS
100
AcDbCircle
 10
10.25
 20
10.75
 30
0.0
 40
12.6580010000000005
100
AcDbArc
 50
7.4899529999999999
 51
23.0202850000000012
  0
ARC
  5
57
100
AcDbEntity
  8
0
 62
0
370
0
  6
CONTINUOUS
100
AcDbCircle
 10
18.7776320000000005
 20
11.1963819999999998
 30
0.0
 40
4.198588
100
AcDbArc
 50
310.4211429999999723
 51
16.6588290000000008
  0
ARC
  5
58
100
AcDbEntity
  8
0
 62
0
370
0
  6
CONTINUOUS
100
AcDbCircle
 10
20.4036599999999986
 20
9.4304880000000004
 30
0.0
 40
1.8022929999999999
100
AcDbArc
 50
218.8475039999999865
 51
307.4669489999999996
  0
ARC
  5
59
100
AcDbEntity
  8
0
 62
0
370
0
  6
CONTINUOUS
100
AcDbCircle
 10
20.632560999999999
 20
8.7012260000000001
 30
0.0
 40
1.6811419999999999
100
AcDbArc
 50
50.583835999999998
 51
193.8076320000000123
  0
ARC
  5
5A
100
AcDbEntity
  8
0
 62
0
370
0
  6
CONTINUOUS
100
AcDbCircle
 10
25.4312499999999986
 20
8.2874999999999996
 30
0.0
 40
2.3489110000000002
100
AcDbArc
 50
187.0304720000000032
 51
222.5198059999999884
  0
ARC
  5
5B
100
AcDbEntity
  8
0
 62
0
370
0
  6
CONTINUOUS
100
AcDbCircle
 10
28.4750000000000014
 20
11.5625
 30
0.0
 40
6.8150219999999999
100
AcDbArc
 50
225.5201869999999928
 51
239.3426360000000273
  0
ARC
  5
5C
100
AcDbEntity
  8
0
 62
0
370
0
  6
CONTINUOUS
100
AcDbCircle
 10
24.6375010000000003
 20
5.0
 30
0.0
 40
0.788293
100
AcDbArc
 50
297.3777160000000208
 51
62.6222950000000012
  0
ARC
  5
5D
100
AcDbEntity
  8
0
 62
0
370
0
  6
CONTINUOUS
100
AcDbCircle
 10
27.6124989999999997
 20
-5.5187489999999997
 30
0.0
 40
9.7841330000000006
100
AcDbArc
 50
119.4634250000000009
 51
136.6306610000000035
  0
ARC
  5
5E
100
AcDbEntity
  8
0
 62
0
370
0
  6
CONTINUOUS
100
AcDbCircle
 10
18.9570180000000015
 20
2.8991229999999999
 30
0.0
 40
2.295172
100
AcDbArc
 50
211.4970399999999984
 51
312.2427670000000148
  0
ARC
  5
5F
100
AcDbEntity
  8
0
 62
0
370
0
  6
CONTINUOUS
100
AcDbCircle
 10
20.7767599999999995
 20
2.966901
 30
0.0
 40
3.9835859999999998
100
AcDbArc
 50
157.3653260000000103
 51
198.5438540000000103
  0
ARC
  5
60
100
AcDbEntity
  8
0
 62
0
370
0
  6
CONTINUOUS
100
AcDbCircle
 10
3.2000000000000002
 20
7.2000000000000002
 30
0.0
 40
14.1598020000000009
100
AcDbArc
 50
349.0074769999999944
 51
5.2676970000000001
  0
ARC
  5
61
100
AcDbEntity
  8
0
 62
0
370
0
  6
CONTINUOUS
100
AcDbCircle
 10
17.8500000000000014
 20
8.8499999999999996
 30
0.0
 40
0.6519200000000001
100
AcDbArc
 50
57.5288090000000096
 51
212.4711910000000046
  0
ARC
  5
62
100
AcDbEntity
  8
0
 62
0
370
0
  6
CONTINUOUS
100
AcDbCircle
 10
6.0499999999999998
 20
6.3499999999999996
 30
0.0
 40
5.0916600000000001
100
AcDbArc
 50
162.2767639999999858
 51
187.3343810000000076
  0
ARC
  5
63
100
AcDbEntity
  8
0
 62
0
370
0
  6
CONTINUOUS
100
AcDbCircle
 10
4.8837659999999996
 20
8.9759740000000008
 30
0.0
 40
1.0274460000000001
100
AcDbArc
 50
37.3985860000000017
 51
149.33433500000001
  0
ARC
  5
64
100
AcDbEntity
  8
0
 62
0
370
0
  6
CONTINUOUS
100
AcDbCircle
 10
-12.5
 20
-6.0
 30
0.0
 40
23.9708159999999992
100
AcDbArc
 50
26.7788390000000014
 51
40.6012950000000004
  0
ARC
  5
65
100
AcDbEntity
  8
0
 62
0
370
0
  6
CONTINUOUS
100
AcDbCircle
 10
7.7595239999999999
 20
2.8880949999999999
 30
0.0
 40
2.2262219999999999
100
AcDbArc
 50
321.4263310000000047
 51
59.1833719999999985
  0
ARC
  5
66
100
AcDbEntity
  8
0
 62
0
370
0
  6
CONTINUOUS
100
AcDbCircle
 10
7.8404759999999998
 20
2.819048
 30
0.0
 40
2.1198830000000002
100
AcDbArc
 50
234.1855319999999665
 51
321.5210880000000202
  0
ARC
  5
67
100
AcDbEntity
  8
0
 62
0
370
0
  6
CONTINUOUS
100
AcDbCircle
 10
10.5250000000000004
 20
8.1875
 30
0.0
 40
7.1972759999999996
100
AcDbArc
 50
140.143462999999997
 51
156.9974060000000122
  0
ARC
  5
68
100
AcDbEntity
  8
0
 62
0
370
0
  6
CONTINUOUS
100
AcDbCircle
 10
-3.7999999999999998
 20
16.9307690000000015
 30
0.0
 40
9.7212779999999999
100
AcDbArc
 50
334.8543700000000172
 51
350.9401550000000043
  0
ARC
  5
69
100
AcDbEntity
  8
0
 62
0
370
0
  6
CONTINUOUS
100
AcDbCircle
 10
10.5416670000000003
 20
14.0833329999999997
 30
0.0
 40
4.9210789999999998
100
AcDbArc
 50
136.0291599999999903
 51
164.481078999999994
  0
ARC
  5
6A
100
AcDbEntity
  8
0
 62
0
370
0
  6
CONTINUOUS
100
AcDbCircle
 10
-2.0
 20
26.0166670000000018
 30
0.0
 40
12.3908679999999993
100
AcDbArc
 50
316.5805359999999951
 51
328.811554000000001
  0
ARC
  5
6B
100
AcDbEntity
  8
0
 62
0
370
0
  6
CONTINUOUS
100
AcDbCircle
 10
6.4375
 20
21.1000000000000014
 30
0.0
 40
2.6318069999999998
100
AcDbArc
 50
325.2532039999999824
 51
13.178191
  0
ARC
  5
6C
100
AcDbEntity
  8
0
 62
0
370
0
  6
CONTINUOUS
100
AcDbCircle
 10
1481.3499759999999696
 20
84.25
 30
0.0
 40
1473.6781009999999696
100
AcDbArc
 50
182.241973999999999
 51
182.4326320000000123
  0
ARC
  5
6D
100
AcDbEntity
  8
0
 62
0
370
0
  6
CONTINUOUS
100
AcDbCircle
 10
11.572222
 20
10.5277779999999996
 30
0.0
 40
7.119097
100
AcDbArc
 50
289.0853579999999852
 51
323.5682980000000271
  0
ARC
  5
6E
100
AcDbEntity
  8
0
 62
0
370
0
  6
CONTINUOUS
100
AcDbCircle
 10
27.1432569999999984
 20
30.2185379999999988
 30
0.0
 40
29.1244750000000003
100
AcDbArc
 50
220.5095829999999921
 51
232.2182620000000099
  0
ARC
  5
6F
100
AcDbEntity
  8
0
 62
0
370
0
  6
CONTINUOUS
100
AcDbCircle
 10
15.8499999999999996
 20
12.25
 30
0.0
 40
4.7565739999999996
100
AcDbArc
 50
3.012788
 51
56.1428909999999988
  0
ARC
  5
70
100
AcDbEntity
  8
0
 62
0
370
0
  6
CONTINUOUS
100
AcDbCircle
 10
10.5999999999999996
 20
20.3999999999999986
 30
0.0
 40
1.0
100
AcDbArc
 50
143.1300960000000089
 51
216.8699039999999911
  0
ARC
  5
71
100
AcDbEntity
  8
0
 62
0
370
0
  6
CONTINUOUS
100
AcDbCircle
 10
18.9023819999999994
 20
12.6833329999999993
 30
0.0
 40
11.5542320000000007
100
AcDbArc
 50
141.9800419999999974
 51
155.3625790000000109
  0
ARC
  5
72
100
AcDbEntity
  8
0
 62
0
370
0
  6
CONTINUOUS
100
AcDbCircle
 10
9.3000000000000007
 20
16.8500000000000014
 30
0.0
 40
1.1101799999999999
100
AcDbArc
 50
144.1623539999999934
 51
215.8376460000000066
  0
ARC
  5
73
100
AcDbEntity
  8
0
 62
0
370
0
  6
CONTINUOUS
100
AcDbCircle
 10
13.7249999999999996
 20
10.9250000000000007
 30
0.0
 40
7.4954150000000004
100
AcDbArc
 50
135.2702639999999974
 51
187.8598479999999995
  0
ARC
  5
74
100
AcDbEntity
  8
0
 62
0
370
0
  6
CONTINUOUS
100
AcDbCircle
 10
7.1944439999999998
 20
14.6277779999999993
 30
0.0
 40
10.1980780000000006
100
AcDbArc
 50
11.1507780000000007
 51
32.4520419999999987
  0
ARC
  5
75
100
AcDbEntity
  8
0
 62
0
370
0
  6
CONTINUOUS
100
AcDbCircle
 10
15.1500000000000004
 20
20.3999999999999986
 30
0.0
 40
0.7158910000000001
100
AcDbArc
 50
335.2248539999999934
 51
77.9052429999999987
  0
ARC
  5
76
100
AcDbEntity
  8
0
 62
0
370
0
  6
CONTINUOUS
100
AcDbCircle
 10
32.4921050000000022
 20
10.6236840000000008
 30
0.0
 40
21.8953379999999989
100
AcDbArc
 50
172.1873779999999954
 51
185.5660100000000057
  0
ARC
  5
77
100
AcDbEntity
  8
0
 62
0
370
0
  6
CONTINUOUS
100
AcDbCircle
 10
12.8724139999999991
 20
9.6965520000000005
 30
0.0
 40
6.9516119999999999
100
AcDbArc
 50
44.8593219999999988
 51
78.1493990000000025
  0
ARC
  5
78
100
AcDbEntity
  8
0
 62
0
370
0
  6
CONTINUOUS
100
AcDbCircle
 10
16.9600000000000009
 20
7.9400000000000004
 30
0.0
 40
8.9637720000000005
100
AcDbArc
 50
91.6621319999999997
 51
107.262512000000001
  0
ARC
  5
79
100
AcDbEntity
  8
0
 62
0
370
0
  6
CONTINUOUS
100
AcDbCircle
 10
10.4555559999999996
 20
24.8833330000000004
 30
0.0
 40
0.951623
100
AcDbArc
 50
7.0420389999999999
 51
154.0333100000000002
  0
ARC
  5
7A
100
AcDbEntity
  8
0
 62
0
370
0
  6
CONTINUOUS
100
AcDbCircle
 10
9.7973680000000005
 20
17.8894739999999999
 30
0.0
 40
1.293552
100
AcDbArc
 50
202.2343140000000119
 51
274.5506899999999746
  0
ARC
  5
7B
100
AcDbEntity
  8
0
 62
0
370
0
  6
CONTINUOUS
100
AcDbCircle
 10
15.0500000000000007
 20
3.7999999999999998
 30
0.0
 40
13.7971920000000008
100
AcDbArc
 50
111.9170840000000027
 51
121.2130200000000002
  0
ARC
  5
7C
100
AcDbEntity
  8
0
 62
0
370
0
  6
CONTINUOUS
100
AcDbCircle
 10
9.0694689999999998
 20
6.3606189999999998
 30
0.0
 40
0.870462
100
AcDbArc
 50
278.6243590000000268
 51
74.6427000000000049
  0
ARC
  5
7D
100
AcDbEntity
  8
0
 62
0
370
0
  6
CONTINUOUS
100
AcDbCircle
 10
4.983333
 20
10.5
 30
0.0
 40
1.193152
100
AcDbArc
 50
155.2248539999999934
 51
224.0770870000000059
  0
ARC
  5
7E
100
AcDbEntity
  8
0
 62
0
370
0
  6
CONTINUOUS
100
AcDbCircle
 10
-0.926087
 20
5.0304349999999998
 30
0.0
 40
2.0391490000000001
100
AcDbArc
 50
314.2632449999999835
 51
19.1689760000000007
  0
ARC
  5
7F
100
AcDbEntity
  8
0
 62
0
370
0
  6
CONTINUOUS
100
AcDbCircle
 10
1.1857139999999999
 20
3.3999999999999999
 30
0.0
 40
0.709268
100
AcDbArc
 50
166.1223300000000052
 51
279.2726139999999759
  0
ARC
  5
80
100
AcDbEntity
  8
0
 62
0
370
0
  6
CONTINUOUS
100
AcDbCircle
 10
15.2692309999999996
 20
38.8500000000000014
 30
0.0
 40
38.7551539999999974
100
AcDbArc
 50
248.8722689999999886
 51
256.9222720000000209
  0
ARC
  5
81
100
AcDbEntity
  8
0
 62
0
370
0
  6
CONTINUOUS
100
AcDbCircle
 10
2.7714289999999999
 20
9.5071429999999992
 30
0.0
 40
1.2285919999999999
100
AcDbArc
 50
261.5655820000000062
 51
359.6669009999999957
  0
ARC
  5
82
100
AcDbEntity
  8
0
 62
0
370
0
  6
CONTINUOUS
100
AcDbCircle
 10
2.8394740000000001
 20
4.7447369999999998
 30
0.0
 40
3.5557780000000001
100
AcDbArc
 50
94.0034409999999951
 51
117.4563749999999942
  0
ARC
  5
83
100
AcDbEntity
  8
0
 62
0
370
0
  6
CONTINUOUS
100
AcDbCircle
 10
13.4000000000000004
 20
-13.1624999999999996
 30
0.0
 40
15.4637930000000008
100
AcDbArc
 50
76.9185939999999988
 51
103.7120359999999977
  0
ARC
  5
84
100
AcDbEntity
  8
0
 62
0
370
0
  6
CONTINUOUS
100
AcDbCircle
 10
12.1009429999999991
 20
9.04434
 30
0.0
 40
5.54434
100
AcDbArc
 50
243.6871949999999742
 51
288.9343870000000152
  0
ARC
  5
85
100
AcDbEntity
  8
0
 62
0
370
0
  6
CONTINUOUS
100
AcDbCircle
 10
21.9249989999999997
 20
8.3249999999999993
 30
0.0
 40
1.2191190000000001
100
AcDbArc
 50
344.5387880000000109
 51
58.7759480000000067
  0
ARC
  5
86
100
AcDbEntity
  8
0
 62
0
370
0
  6
CONTINUOUS
100
AcDbCircle
 10
11.6875
 20
13.3687500000000004
 30
0.0
 40
8.9547410000000003
100
AcDbArc
 50
339.9261169999999765
 51
354.4326479999999719
  0
ARC
  5
87
100
AcDbEntity
  8
0
 62
0
370
0
  6
CONTINUOUS
100
AcDbCircle
 10
10.6744679999999992
 20
11.7361699999999995
 30
0.0
 40
8.1387599999999996
100
AcDbArc
 50
341.8895259999999894
 51
36.6991420000000019
  0
ARC
  5
88
100
AcDbEntity
  8
0
 62
0
370
0
  6
CONTINUOUS
100
AcDbCircle
 10
19.2347600000000014
 20
10.3108939999999993
 30
0.0
 40
1.3785700000000001
100
AcDbArc
 50
221.3573000000000093
 51
258.9743040000000178
  0
ARC
  5
89
100
AcDbEntity
  8
0
 62
0
370
0
  6
CONTINUOUS
100
AcDbCircle
 10
11.8695649999999997
 20
11.2782610000000005
 30
0.0
 40
6.3696020000000004
100
AcDbArc
 50
138.4866330000000119
 51
185.2003170000000125
  0
ARC
  5
8A
100
AcDbEntity
  8
0
 62
0
370
0
  6
CONTINUOUS
100
AcDbCircle
 10
13.6709680000000002
 20
24.3096770000000006
 30
0.0
 40
1.9383980000000001
100
AcDbArc
 50
311.9663699999999835
 51
62.0284580000000076
  0
ARC
  5
8B
100
AcDbEntity
  8
0
 62
0
370
0
  6
CONTINUOUS
100
AcDbCircle
 10
12.0999999999999996
 20
22.6999999999999993
 30
0.0
 40
1.204159
100
AcDbArc
 50
30.362410999999998
 51
138.366455000000002
  0
ARC
  5
8C
100
AcDbEntity
  8
0
 62
0
370
0
  6
CONTINUOUS
100
AcDbCircle
 10
10.3833330000000004
 20
21.797619000000001
 30
0.0
 40
0.988167
100
AcDbArc
 50
116.2053449999999941
 51
233.8203739999999584
  0
ARC
  5
8D
100
AcDbEntity
  8
0
 62
0
370
0
  6
CONTINUOUS
100
AcDbCircle
 10
12.375
 20
20.3249999999999993
 30
0.0
 40
3.3854470000000001
100
AcDbArc
 50
110.308441000000002
 51
135.8235019999999906
  0
ARC
  5
8E
100
AcDbEntity
  8
0
 62
0
370
0
  6
CONTINUOUS
100
AcDbCircle
 10
9.3499999999999996
 20
24.6499999999999986
 30
0.0
 40
2.079663
100
AcDbArc
 50
324.2603760000000079
 51
9.6887869999999996
  0
ARC
  5
8F
100
AcDbEntity
  8
0
 62
0
370
0
  6
CONTINUOUS
100
AcDbCircle
 10
12.4806249999999999
 20
24.0566630000000004
 30
0.0
 40
3.1374970000000002
100
AcDbArc
 50
156.6539919999999881
 51
208.8717800000000011
  0
ARC
  5
90
100
AcDbEntity
  8
0
 62
0
370
0
  6
CONTINUOUS
100
AcDbCircle
 10
13.2176419999999997
 20
19.6489939999999983
 30
0.0
 40
3.660514
100
AcDbArc
 50
62.6389619999999994
 51
91.2309800000000024
  0
ARC
  5
91
100
AcDbEntity
  8
0
 62
0
370
0
  6
CONTINUOUS
100
AcDbCircle
 10
15.2646090000000001
 20
24.8719059999999992
 30
0.0
 40
2.5824189999999998
100
AcDbArc
 50
188.8350680000000068
 51
217.2301030000000139
  0
ARC
  5
92
100
AcDbEntity
  8
0
 62
0
370
0
  6
CONTINUOUS
100
AcDbCircle
 10
14.1151160000000004
 20
24.6825580000000002
 30
0.0
 40
1.4175219999999999
100
AcDbArc
 50
70.8492889999999989
 51
190.299209999999988
  0
ARC
  5
93
100
AcDbEntity
  8
0
 62
0
370
0
  6
CONTINUOUS
100
AcDbCircle
 10
10.3160100000000003
 20
24.4504039999999989
 30
0.0
 40
0.3
100
AcDbArc
 50
63.3159940000000034
 51
150.1225589999999954
  0
ARC
  5
94
100
AcDbEntity
  8
0
 62
0
370
0
  6
CONTINUOUS
100
AcDbCircle
 10
10.0578950000000003
 20
23.9368419999999986
 30
0.0
 40
0.874777
100
AcDbArc
 50
344.2913510000000201
 51
63.3159940000000034
  0
ARC
  5
95
100
AcDbEntity
  8
0
 62
0
370
0
  6
CONTINUOUS
100
AcDbCircle
 10
11.0999999999999996
 20
24.0
 30
0.0
 40
1.204159
100
AcDbArc
 50
150.1225589999999954
 51
232.2633209999999906
  0
ARC
  5
96
100
AcDbEntity
  8
0
 62
0
370
0
  6
CONTINUOUS
100
AcDbCircle
 10
14.2128730000000001
 20
24.5855449999999998
 30
0.0
 40
0.3
100
AcDbArc
 50
46.3694460000000035
 51
103.1804280000000063
  0
ARC
  5
97
100
AcDbEntity
  8
0
 62
0
370
0
  6
CONTINUOUS
100
AcDbCircle
 10
14.3499999999999996
 20
24.0
 30
0.0
 40
0.901388
100
AcDbArc
 50
103.1804280000000063
 51
235.6251679999999737
  0
ARC
  5
98
100
AcDbEntity
  8
0
 62
0
370
0
  6
CONTINUOUS
100
AcDbCircle
 10
13.75
 20
24.1000000000000014
 30
0.0
 40
0.970824
100
AcDbArc
 50
291.8327939999999785
 51
46.3694460000000035
  0
ARC
  5
99
100
AcDbEntity
  8
0
 62
0
370
0
  6
CONTINUOUS
100
AcDbCircle
 10
14.9455220000000004
 20
21.4596829999999983
 30
0.0
 40
0.3
100
AcDbArc
 50
294.0325930000000199
 51
308.9663090000000238
  0
ARC
  5
9A
100
AcDbEntity
  8
0
 62
0
370
0
  6
CONTINUOUS
100
AcDbCircle
 10
14.5142860000000002
 20
21.9928570000000008
 30
0.0
 40
0.9857399999999999
100
AcDbArc
 50
308.9663090000000238
 51
66.9649579999999958
  0
ARC
  5
9B
100
AcDbEntity
  8
0
 62
0
370
0
  6
CONTINUOUS
100
AcDbCircle
 10
10.9878470000000004
 20
21.0899740000000016
 30
0.0
 40
0.3
100
AcDbArc
 50
244.8093409999999892
 51
261.6190189999999802
  0
ARC
  5
9C
100
AcDbEntity
  8
0
 62
0
370
0
  6
CONTINUOUS
100
AcDbCircle
 10
12.7863640000000007
 20
24.9136360000000003
 30
0.0
 40
4.5255239999999999
100
AcDbArc
 50
225.2441560000000038
 51
244.8093409999999892
  0
ARC
  5
9D
100
AcDbEntity
  8
0
 62
0
370
0
  6
CONTINUOUS
100
AcDbCircle
 10
13.1305150000000008
 20
20.9286819999999985
 30
0.0
 40
0.3
100
AcDbArc
 50
110.9201199999999972
 51
120.3219600000000042
  0
ARC
  5
9E
100
AcDbEntity
  8
0
 62
0
370
0
  6
CONTINUOUS
100
AcDbCircle
 10
11.4000000000000004
 20
23.8874999999999993
 30
0.0
 40
3.1277240000000002
100
AcDbArc
 50
261.6190189999999802
 51
300.32195999999999
  0
ARC
  5
9F
100
AcDbEntity
  8
0
 62
0
370
0
  6
CONTINUOUS
100
AcDbCircle
 10
9.8785710000000009
 20
29.4357149999999983
 30
0.0
 40
8.8074010000000005
100
AcDbArc
 50
290.9201350000000161
 51
304.7597959999999944
  0
ARC
  5
A0
100
AcDbEntity
  8
0
 62
0
370
0
  6
CONTINUOUS
100
AcDbCircle
 10
11.3795210000000004
 20
20.7885610000000014
 30
0.0
 40
1.0
100
AcDbArc
 50
218.7462920000000111
 51
251.5650789999999688
  0
ARC
  5
A1
100
AcDbEntity
  8
0
 62
0
370
0
  6
CONTINUOUS
100
AcDbCircle
 10
11.9499999999999993
 20
22.5
 30
0.0
 40
2.8040150000000001
100
AcDbArc
 50
251.5650789999999688
 51
291.9911190000000261
  0
ARC
  5
A2
100
AcDbEntity
  8
0
 62
0
370
0
  6
CONTINUOUS
100
AcDbCircle
 10
5.3499999999999996
 20
15.9499999999999993
 30
0.0
 40
6.730899
100
AcDbArc
 50
38.7462919999999968
 51
48.6138800000000018
  0
ARC
  5
A3
100
AcDbEntity
  8
0
 62
0
370
0
  6
CONTINUOUS
100
AcDbCircle
 10
18.9991589999999988
 20
12.5574259999999995
 30
0.0
 40
9.4817339999999994
100
AcDbArc
 50
114.4963300000000004
 51
129.2501070000000141
  0
ARC
  5
A4
100
AcDbEntity
  8
0
 62
0
370
0
  6
CONTINUOUS
100
AcDbCircle
 10
8.9430420000000002
 20
9.1931639999999994
 30
0.0
 40
3.7020930000000001
100
AcDbArc
 50
263.5004579999999805
 51
273.9800420000000258
  0
ARC
  5
A5
100
AcDbEntity
  8
0
 62
0
370
0
  6
CONTINUOUS
100
AcDbCircle
 10
28.9407810000000012
 20
-4.8805509999999996
 30
0.0
 40
9.9906089999999992
100
AcDbArc
 50
113.2315830000000005
 51
127.926872000000003
  0
ARC
  5
A6
100
AcDbEntity
  8
0
 62
0
370
0
  6
CONTINUOUS
100
AcDbCircle
 10
9.1069709999999997
 20
23.9999310000000001
 30
0.0
 40
1.817941
100
AcDbArc
 50
337.9531559999999786
 51
350.5036929999999984
  0
ENDBLK
  5
A7
100
AcDbEntity
  8
0
100
AcDbBlockEnd
  0
BLOCK
  5
A8
100
AcDbEntity
  8
0
100
AcDbBlockBegin
  2
d-sub-9
 70
0
 10
0.0
 20
0.0
 30
0.0
  3
d-sub-9
  1

  0
LINE
  5
A9
100
AcDbEntity
100
AcDbLine
  8
help
 62
256
370
-1
  6
ByLayer
 10
-24.0
 20
0.0
 30
0.0
 11
-39.0
 21
0.0
 31
0.0
  0
LINE
  5
AA
100
AcDbEntity
100
AcDbLine
  8
drawing
 62
256
370
-1
  6
ByLayer
 10
-25.0
 20
9.0
 30
0.0
 11
-11.0
 21
9.0
 31
0.0
  0
LINE
  5
AB
100
AcDbEntity
100
AcDbLine
  8
drawing
 62
256
370
-1
  6
ByLayer
 10
-11.0
 20
9.0
 30
0.0
 11
-1.0
 21
5.0
 31
0.0
  0
LINE
  5
AC
100
AcDbEntity
100
AcDbLine
  8
drawing
 62
256
370
-1
  6
ByLayer
 10
-1.0
 20
5.0
 30
0.0
 11
-1.0
 21
-5.0
 31
0.0
  0
LINE
  5
AD
100
AcDbEntity
100
AcDbLine
  8
drawing
 62
256
370
-1
  6
ByLayer
 10
0.0
 20
3.0
 30
0.0
 11
0.0
 21
-3.0
 31
0.0
  0
LINE
  5
AE
100
AcDbEntity
100
AcDbLine
  8
drawing
 62
256
370
-1
  6
ByLayer
 10
-1.0
 20
3.0
 30
0.0
 11
0.0
 21
3.0
 31
0.0
  0
LINE
  5
AF
100
AcDbEntity
100
AcDbLine
  8
drawing
 62
256
370
-1
  6
ByLayer
 10
0.0
 20
-3.0
 30
0.0
 11
-1.0
 21
-3.0
 31
0.0
  0
LINE
  5
B0
100
AcDbEntity
100
AcDbLine
  8
drawing
 62
256
370
-1
  6
ByLayer
 10
-1.0
 20
-5.0
 30
0.0
 11
-11.0
 21
-9.0
 31
0.0
  0
LINE
  5
B1
100
AcDbEntity
100
AcDbLine
  8
drawing
 62
256
370
-1
  6
ByLayer
 10
-11.0
 20
-9.0
 30
0.0
 11
-25.0
 21
-9.0
 31
0.0
  0
LINE
  5
B2
100
AcDbEntity
100
AcDbLine
  8
drawing
 62
256
370
-1
  6
ByLayer
 10
-23.0
 20
-10.0
 30
0.0
 11
-14.0
 21
-10.0
 31
0.0
  0
LINE
  5
B3
100
AcDbEntity
100
AcDbLine
  8
drawing
 62
256
370
-1
  6
ByLayer
 10
-14.0
 20
-10.0
 30
0.0
 11
-14.0
 21
-14.0
 31
0.0
  0
LINE
  5
B4
100
AcDbEntity
100
AcDbLine
  8
drawing
 62
256
370
-1
  6
ByLayer
 10
-14.0
 20
-14.0
 30
0.0
 11
-23.0
 21
-14.0
 31
0.0
  0
LINE
  5
B5
100
AcDbEntity
100
AcDbLine
  8
drawing
 62
256
370
-1
  6
ByLayer
 10
-23.0
 20
-13.0
 30
0.0
 11
-23.0
 21
-11.0
 31
0.0
  0
LINE
  5
B6
100
AcDbEntity
100
AcDbLine
  8
drawing
 62
256
370
-1
  6
ByLayer
 10
-23.0
 20
-11.0
 30
0.0
 11
-23.0
 21
-10.0
 31
0.0
  0
LINE
  5
B7
100
AcDbEntity
100
AcDbLine
  8
drawing
 62
256
370
-1
  6
ByLayer
 10
-23.0
 20
-14.0
 30
0.0
 11
-23.0
 21
-13.0
 31
0.0
  0
LINE
  5
B8
100
AcDbEntity
100
AcDbLine
  8
drawing
 62
256
370
-1
  6
ByLayer
 10
-23.0
 20
-13.0
 30
0.0
 11
-25.0
 21
-13.0
 31
0.0
  0
LINE
  5
B9
100
AcDbEntity
100
AcDbLine
  8
drawing
 62
256
370
-1
  6
ByLayer
 10
-25.0
 20
-11.0
 30
0.0
 11
-23.0
 21
-11.0
 31
0.0
  0
LINE
  5
BA
100
AcDbEntity
100
AcDbLine
  8
drawing
 62
256
370
-1
  6
ByLayer
 10
-25.0
 20
-9.0
 30
0.0
 11
-25.0
 21
-15.0
 31
0.0
  0
LINE
  5
BB
100
AcDbEntity
100
AcDbLine
  8
drawing
 62
256
370
-1
  6
ByLayer
 10
-25.0
 20
-15.0
 30
0.0
 11
-30.0
 21
-15.0
 31
0.0
  0
LINE
  5
BC
100
AcDbEntity
100
AcDbLine
  8
drawing
 62
256
370
-1
  6
ByLayer
 10
-30.0
 20
-15.0
 30
0.0
 11
-30.0
 21
15.0
 31
0.0
  0
LINE
  5
BD
100
AcDbEntity
100
AcDbLine
  8
drawing
 62
256
370
-1
  6
ByLayer
 10
-31.0
 20
-15.0
 30
0.0
 11
-30.0
 21
-15.0
 31
0.0
  0
LINE
  5
BE
100
AcDbEntity
100
AcDbLine
  8
drawing
 62
256
370
-1
  6
ByLayer
 10
-31.0
 20
-15.0
 30
0.0
 11
-31.0
 21
15.0
 31
0.0
  0
LINE
  5
BF
100
AcDbEntity
100
AcDbLine
  8
drawing
 62
256
370
-1
  6
ByLayer
 10
-36.0
 20
-13.0
 30
0.0
 11
-31.0
 21
-13.0
 31
0.0
  0
LINE
  5
C0
100
AcDbEntity
100
AcDbLine
  8
drawing
 62
256
370
-1
  6
ByLayer
 10
-31.0
 20
-11.0
 30
0.0
 11
-36.0
 21
-11.0
 31
0.0
  0
LINE
  5
C1
100
AcDbEntity
100
AcDbLine
  8
drawing
 62
256
370
-1
  6
ByLayer
 10
-36.0
 20
-11.0
 30
0.0
 11
-36.0
 21
-13.0
 31
0.0
  0
LINE
  5
C2
100
AcDbEntity
100
AcDbLine
  8
drawing
 62
256
370
-1
  6
ByLayer
 10
-38.0
 20
-9.0
 30
0.0
 11
-31.0
 21
-9.0
 31
0.0
  0
LINE
  5
C3
100
AcDbEntity
100
AcDbLine
  8
drawing
 62
256
370
-1
  6
ByLayer
 10
-38.0
 20
9.0
 30
0.0
 11
-38.0
 21
-9.0
 31
0.0
  0
LINE
  5
C4
100
AcDbEntity
100
AcDbLine
  8
drawing
 62
256
370
-1
  6
ByLayer
 10
-31.0
 20
9.0
 30
0.0
 11
-38.0
 21
9.0
 31
0.0
  0
LINE
  5
C5
100
AcDbEntity
100
AcDbLine
  8
drawing
 62
256
370
-1
  6
ByLayer
 10
-36.0
 20
11.0
 30
0.0
 11
-31.0
 21
11.0
 31
0.0
  0
LINE
  5
C6
100
AcDbEntity
100
AcDbLine
  8
drawing
 62
256
370
-1
  6
ByLayer
 10
-36.0
 20
13.0
 30
0.0
 11
-36.0
 21
11.0
 31
0.0
  0
LINE
  5
C7
100
AcDbEntity
100
AcDbLine
  8
drawing
 62
256
370
-1
  6
ByLayer
 10
-31.0
 20
13.0
 30
0.0
 11
-36.0
 21
13.0
 31
0.0
  0
LINE
  5
C8
100
AcDbEntity
100
AcDbLine
  8
drawing
 62
256
370
-1
  6
ByLayer
 10
-31.0
 20
15.0
 30
0.0
 11
-30.0
 21
15.0
 31
0.0
  0
LINE
  5
C9
100
AcDbEntity
100
AcDbLine
  8
drawing
 62
256
370
-1
  6
ByLayer
 10
-30.0
 20
15.0
 30
0.0
 11
-25.0
 21
15.0
 31
0.0
  0
LINE
  5
CA
100
AcDbEntity
100
AcDbLine
  8
drawing
 62
256
370
-1
  6
ByLayer
 10
-25.0
 20
15.0
 30
0.0
 11
-25.0
 21
9.0
 31
0.0
  0
LINE
  5
CB
100
AcDbEntity
100
AcDbLine
  8
drawing
 62
256
370
-1
  6
ByLayer
 10
-25.0
 20
13.0
 30
0.0
 11
-23.0
 21
13.0
 31
0.0
  0
LINE
  5
CC
100
AcDbEntity
100
AcDbLine
  8
drawing
 62
256
370
-1
  6
ByLayer
 10
-23.0
 20
11.0
 30
0.0
 11
-25.0
 21
11.0
 31
0.0
  0
LINE
  5
CD
100
AcDbEntity
100
AcDbLine
  8
drawing
 62
256
370
-1
  6
ByLayer
 10
-23.0
 20
10.0
 30
0.0
 11
-23.0
 21
11.0
 31
0.0
  0
LINE
  5
CE
100
AcDbEntity
100
AcDbLine
  8
drawing
 62
256
370
-1
  6
ByLayer
 10
-14.0
 20
10.0
 30
0.0
 11
-23.0
 21
10.0
 31
0.0
  0
LINE
  5
CF
100
AcDbEntity
100
AcDbLine
  8
drawing
 62
256
370
-1
  6
ByLayer
 10
-23.0
 20
11.0
 30
0.0
 11
-23.0
 21
13.0
 31
0.0
  0
LINE
  5
D0
100
AcDbEntity
100
AcDbLine
  8
drawing
 62
256
370
-1
  6
ByLayer
 10
-23.0
 20
13.0
 30
0.0
 11
-23.0
 21
14.0
 31
0.0
  0
LINE
  5
D1
100
AcDbEntity
100
AcDbLine
  8
drawing
 62
256
370
-1
  6
ByLayer
 10
-23.0
 20
14.0
 30
0.0
 11
-14.0
 21
14.0
 31
0.0
  0
LINE
  5
D2
100
AcDbEntity
100
AcDbLine
  8
drawing
 62
256
370
-1
  6
ByLayer
 10
-14.0
 20
14.0
 30
0.0
 11
-14.0
 21
10.0
 31
0.0
  0
ENDBLK
  5
D3
100
AcDbEntity
  8
0
100
AcDbBlockEnd
  0
BLOCK
  5
D4
100
AcDbEntity
  8
0
100
AcDbBlockBegin
  2
d-sub-37
 70
0
 10
0.0
 20
0.0
 30
0.0
  3
d-sub-37
  1

  0
LINE
  5
D5
100
AcDbEntity
100
AcDbLine
  8
help
 62
256
370
-1
  6
ByLayer
 10
-51.0
 20
0.0
 30
0.0
 11
-23.0
 21
0.0
 31
0.0
  0
LINE
  5
D6
100
AcDbEntity
100
AcDbLine
  8
drawing
 62
256
370
-1
  6
ByLayer
 10
-31.0
 20
35.0
 30
0.0
 11
-31.0
 21
-35.0
 31
0.0
  0
LINE
  5
D7
100
AcDbEntity
100
AcDbLine
  8
drawing
 62
256
370
-1
  6
ByLayer
 10
-31.0
 20
-35.0
 30
0.0
 11
-30.0
 21
-35.0
 31
0.0
  0
LINE
  5
D8
100
AcDbEntity
100
AcDbLine
  8
drawing
 62
256
370
-1
  6
ByLayer
 10
-30.0
 20
-35.0
 30
0.0
 11
-30.0
 21
35.0
 31
0.0
  0
LINE
  5
D9
100
AcDbEntity
100
AcDbLine
  8
drawing
 62
256
370
-1
  6
ByLayer
 10
-30.0
 20
35.0
 30
0.0
 11
-31.0
 21
35.0
 31
0.0
  0
LINE
  5
DA
100
AcDbEntity
100
AcDbLine
  8
drawing
 62
256
370
-1
  6
ByLayer
 10
-31.0
 20
28.5
 30
0.0
 11
-39.5
 21
28.5
 31
0.0
  0
LINE
  5
DB
100
AcDbEntity
100
AcDbLine
  8
drawing
 62
256
370
-1
  6
ByLayer
 10
-39.5
 20
28.5
 30
0.0
 11
-39.5
 21
-28.4999999999999432
 31
0.0
  0
LINE
  5
DC
100
AcDbEntity
100
AcDbLine
  8
drawing
 62
256
370
-1
  6
ByLayer
 10
-39.5
 20
-28.4999999999999432
 30
0.0
 11
-31.0
 21
-28.4999999999999432
 31
0.0
  0
LINE
  5
DD
100
AcDbEntity
100
AcDbLine
  8
drawing
 62
256
370
-1
  6
ByLayer
 10
-31.0
 20
33.0
 30
0.0
 11
-37.0
 21
33.0
 31
0.0
  0
LINE
  5
DE
100
AcDbEntity
100
AcDbLine
  8
drawing
 62
256
370
-1
  6
ByLayer
 10
-37.0
 20
33.0
 30
0.0
 11
-37.0
 21
31.0
 31
0.0
  0
LINE
  5
DF
100
AcDbEntity
100
AcDbLine
  8
drawing
 62
256
370
-1
  6
ByLayer
 10
-37.0
 20
31.0
 30
0.0
 11
-31.0
 21
31.0
 31
0.0
  0
LINE
  5
E0
100
AcDbEntity
100
AcDbLine
  8
drawing
 62
256
370
-1
  6
ByLayer
 10
-31.0
 20
-33.0
 30
0.0
 11
-37.0
 21
-33.0
 31
0.0
  0
LINE
  5
E1
100
AcDbEntity
100
AcDbLine
  8
drawing
 62
256
370
-1
  6
ByLayer
 10
-37.0
 20
-33.0
 30
0.0
 11
-37.0
 21
-31.0
 31
0.0
  0
LINE
  5
E2
100
AcDbEntity
100
AcDbLine
  8
drawing
 62
256
370
-1
  6
ByLayer
 10
-37.0
 20
-31.0
 30
0.0
 11
-31.0
 21
-31.0
 31
0.0
  0
LINE
  5
E3
100
AcDbEntity
100
AcDbLine
  8
drawing
 62
256
370
-1
  6
ByLayer
 10
-30.0
 20
35.0
 30
0.0
 11
-25.0
 21
35.0
 31
0.0
  0
LINE
  5
E4
100
AcDbEntity
100
AcDbLine
  8
drawing
 62
256
370
-1
  6
ByLayer
 10
-25.0
 20
35.0
 30
0.0
 11
-25.0
 21
29.0
 31
0.0
  0
LINE
  5
E5
100
AcDbEntity
100
AcDbLine
  8
drawing
 62
256
370
-1
  6
ByLayer
 10
-25.0
 20
29.0
 30
0.0
 11
-11.0
 21
29.0
 31
0.0
  0
LINE
  5
E6
100
AcDbEntity
100
AcDbLine
  8
drawing
 62
256
370
-1
  6
ByLayer
 10
-11.0
 20
29.0
 30
0.0
 11
-1.0
 21
25.0
 31
0.0
  0
LINE
  5
E7
100
AcDbEntity
100
AcDbLine
  8
drawing
 62
256
370
-1
  6
ByLayer
 10
-30.0
 20
-35.0
 30
0.0
 11
-25.0
 21
-35.0
 31
0.0
  0
LINE
  5
E8
100
AcDbEntity
100
AcDbLine
  8
drawing
 62
256
370
-1
  6
ByLayer
 10
-25.0
 20
-35.0
 30
0.0
 11
-25.0
 21
-29.0
 31
0.0
  0
LINE
  5
E9
100
AcDbEntity
100
AcDbLine
  8
drawing
 62
256
370
-1
  6
ByLayer
 10
-25.0
 20
-29.0
 30
0.0
 11
-11.0
 21
-29.0
 31
0.0
  0
LINE
  5
EA
100
AcDbEntity
100
AcDbLine
  8
drawing
 62
256
370
-1
  6
ByLayer
 10
-11.0
 20
-29.0
 30
0.0
 11
-1.0
 21
-25.0
 31
0.0
  0
LINE
  5
EB
100
AcDbEntity
100
AcDbLine
  8
drawing
 62
256
370
-1
  6
ByLayer
 10
-1.0
 20
-25.0
 30
0.0
 11
-1.0
 21
25.0
 31
0.0
  0
LINE
  5
EC
100
AcDbEntity
100
AcDbLine
  8
help
 62
256
370
-1
  6
ByLayer
 10
-20.0
 20
0.0
 30
0.0
 11
13.0
 21
0.0
 31
0.0
  0
LINE
  5
ED
100
AcDbEntity
100
AcDbLine
  8
drawing
 62
256
370
-1
  6
ByLayer
 10
-1.0
 20
3.0
 30
0.0
 11
0.0
 21
3.0
 31
0.0
  0
LINE
  5
EE
100
AcDbEntity
100
AcDbLine
  8
drawing
 62
256
370
-1
  6
ByLayer
 10
0.0
 20
3.0
 30
0.0
 11
0.0
 21
-3.0
 31
0.0
  0
LINE
  5
EF
100
AcDbEntity
100
AcDbLine
  8
drawing
 62
256
370
-1
  6
ByLayer
 10
0.0
 20
-3.0
 30
0.0
 11
-1.0
 21
-3.0
 31
0.0
  0
LINE
  5
F0
100
AcDbEntity
100
AcDbLine
  8
drawing
 62
256
370
-1
  6
ByLayer
 10
-25.0
 20
33.0
 30
0.0
 11
-24.0
 21
33.0
 31
0.0
  0
LINE
  5
F1
100
AcDbEntity
100
AcDbLine
  8
drawing
 62
256
370
-1
  6
ByLayer
 10
-24.0
 20
33.0
 30
0.0
 11
-24.0
 21
34.0
 31
0.0
  0
LINE
  5
F2
100
AcDbEntity
100
AcDbLine
  8
drawing
 62
256
370
-1
  6
ByLayer
 10
-24.0
 20
34.0
 30
0.0
 11
-17.0
 21
34.0
 31
0.0
  0
LINE
  5
F3
100
AcDbEntity
100
AcDbLine
  8
drawing
 62
256
370
-1
  6
ByLayer
 10
-17.0
 20
34.0
 30
0.0
 11
-13.0
 21
34.0
 31
0.0
  0
LINE
  5
F4
100
AcDbEntity
100
AcDbLine
  8
drawing
 62
256
370
-1
  6
ByLayer
 10
-13.0
 20
34.0
 30
0.0
 11
-13.0
 21
30.0
 31
0.0
  0
LINE
  5
F5
100
AcDbEntity
100
AcDbLine
  8
drawing
 62
256
370
-1
  6
ByLayer
 10
-13.0
 20
30.0
 30
0.0
 11
-24.0
 21
30.0
 31
0.0
  0
LINE
  5
F6
100
AcDbEntity
100
AcDbLine
  8
drawing
 62
256
370
-1
  6
ByLayer
 10
-24.0
 20
30.0
 30
0.0
 11
-24.0
 21
31.0
 31
0.0
  0
LINE
  5
F7
100
AcDbEntity
100
AcDbLine
  8
drawing
 62
256
370
-1
  6
ByLayer
 10
-24.0
 20
31.0
 30
0.0
 11
-25.0
 21
31.0
 31
0.0
  0
LINE
  5
F8
100
AcDbEntity
100
AcDbLine
  8
drawing
 62
256
370
-1
  6
ByLayer
 10
-25.0
 20
-31.0
 30
0.0
 11
-24.0
 21
-31.0
 31
0.0
  0
LINE
  5
F9
100
AcDbEntity
100
AcDbLine
  8
drawing
 62
256
370
-1
  6
ByLayer
 10
-24.0
 20
-31.0
 30
0.0
 11
-24.0
 21
-30.0
 31
0.0
  0
LINE
  5
FA
100
AcDbEntity
100
AcDbLine
  8
drawing
 62
256
370
-1
  6
ByLayer
 10
-24.0
 20
-30.0
 30
0.0
 11
-14.0
 21
-30.0
 31
0.0
  0
LINE
  5
FB
100
AcDbEntity
100
AcDbLine
  8
drawing
 62
256
370
-1
  6
ByLayer
 10
-25.0
 20
-33.0
 30
0.0
 11
-24.0
 21
-33.0
 31
0.0
  0
LINE
  5
FC
100
AcDbEntity
100
AcDbLine
  8
drawing
 62
256
370
-1
  6
ByLayer
 10
-24.0
 20
-33.0
 30
0.0
 11
-24.0
 21
-34.0
 31
0.0
  0
LINE
  5
FD
100
AcDbEntity
100
AcDbLine
  8
drawing
 62
256
370
-1
  6
ByLayer
 10
-24.0
 20
-34.0
 30
0.0
 11
-13.0
 21
-34.0
 31
0.0
  0
LINE
  5
FE
100
AcDbEntity
100
AcDbLine
  8
drawing
 62
256
370
-1
  6
ByLayer
 10
-13.0
 20
-34.0
 30
0.0
 11
-13.0
 21
-30.0
 31
0.0
  0
LINE
  5
FF
100
AcDbEntity
100
AcDbLine
  8
drawing
 62
256
370
-1
  6
ByLayer
 10
-13.0
 20
-30.0
 30
0.0
 11
-14.0
 21
-30.0
 31
0.0
  0
ENDBLK
  5
100
100
AcDbEntity
  8
0
100
AcDbBlockEnd
  0
BLOCK
  5
101
100
AcDbEntity
  8
0
100
AcDbBlockBegin
  2
a60
 70
0
 10
0.0
 20
0.0
 30
0.0
  3
a60
  1

  0
LINE
  5
102
100
AcDbEntity
100
AcDbLine
  8
drawing
 62
256
370
-1
  6
ByLayer
 10
7.0
 20
10.0
 30
0.0
 11
7.0
 21
-10.0
 31
0.0
  0
LINE
  5
103
100
AcDbEntity
100
AcDbLine
  8
drawing
 62
256
370
-1
  6
ByLayer
 10
7.0
 20
-10.0
 30
0.0
 11
27.0
 21
-10.0
 31
0.0
  0
LINE
  5
104
100
AcDbEntity
100
AcDbLine
  8
drawing
 62
256
370
-1
  6
ByLayer
 10
27.0
 20
-10.0
 30
0.0
 11
27.0
 21
10.0
 31
0.0
  0
LINE
  5
105
100
AcDbEntity
100
AcDbLine
  8
drawing
 62
256
370
-1
  6
ByLayer
 10
27.0
 20
10.0
 30
0.0
 11
7.0
 21
10.0
 31
0.0
  0
LINE
  5
106
100
AcDbEntity
100
AcDbLine
  8
drawing
 62
256
370
-1
  6
ByLayer
 10
7.0
 20
-3.0
 30
0.0
 11
0.0
 21
-3.0
 31
0.0
  0
LINE
  5
107
100
AcDbEntity
100
AcDbLine
  8
drawing
 62
256
370
-1
  6
ByLayer
 10
0.0
 20
-3.0
 30
0.0
 11
0.0
 21
3.0
 31
0.0
  0
LINE
  5
108
100
AcDbEntity
100
AcDbLine
  8
drawing
 62
256
370
-1
  6
ByLayer
 10
0.0
 20
3.0
 30
0.0
 11
7.0
 21
3.0
 31
0.0
  0
LINE
  5
109
100
AcDbEntity
100
AcDbLine
  8
drawing
 62
256
370
-1
  6
ByLayer
 10
7.0
 20
6.0
 30
0.0
 11
0.0
 21
6.0
 31
0.0
  0
LINE
  5
10A
100
AcDbEntity
100
AcDbLine
  8
drawing
 62
256
370
-1
  6
ByLayer
 10
0.0
 20
6.0
 30
0.0
 11
0.0
 21
7.0
 31
0.0
  0
LINE
  5
10B
100
AcDbEntity
100
AcDbLine
  8
drawing
 62
256
370
-1
  6
ByLayer
 10
0.0
 20
7.0
 30
0.0
 11
7.0
 21
7.0
 31
0.0
  0
LINE
  5
10C
100
AcDbEntity
100
AcDbLine
  8
drawing
 62
256
370
-1
  6
ByLayer
 10
7.0
 20
-6.0
 30
0.0
 11
0.0
 21
-6.0
 31
0.0
  0
LINE
  5
10D
100
AcDbEntity
100
AcDbLine
  8
drawing
 62
256
370
-1
  6
ByLayer
 10
0.0
 20
-6.0
 30
0.0
 11
0.0
 21
-7.0
 31
0.0
  0
LINE
  5
10E
100
AcDbEntity
100
AcDbLine
  8
drawing
 62
256
370
-1
  6
ByLayer
 10
0.0
 20
-7.0
 30
0.0
 11
7.0
 21
-7.0
 31
0.0
  0
CIRCLE
  5
10F
100
AcDbEntity
100
AcDbCircle
  8
drawing
 62
256
370
-1
  6
ByLayer
 10
2.0
 20
0.0
 30
0.0
 40
0.4999999999999858
  0
ENDBLK
  5
110
100
AcDbEntity
  8
0
100
AcDbBlockEnd
  0
BLOCK
  5
111
100
AcDbEntity
  8
0
100
AcDbBlockBegin
  2
vac-relay
 70
0
 10
0.0
 20
0.0
 30
0.0
  3
vac-relay
  1

  0
INSERT
  5
112
100
AcDbEntity
100
AcDbBlockReference
  8
drawing
 62
256
370
-1
  6
ByLayer
  2
a60
 10
0.0
 20
0.0
 30
0.0
  0
MTEXT
  5
113
100
AcDbEntity
100
AcDbMText
  8
drawing
 62
256
370
-1
  6
ByLayer
 10
17.0
 20
0.0
 30
0.0
 40
1.0
 41
100.0
 71
5
 72
0
  1
V
  7
normallatin1
 50
0.0
 73
1
 44
1.0
  0
ENDBLK
  5
114
100
AcDbEntity
  8
0
100
AcDbBlockEnd
  0
BLOCK
  5
115
100
AcDbEntity
  8
0
100
AcDbBlockBegin
  2
cst220n2
 70
0
 10
0.0
 20
0.0
 30
0.0
  3
cst220n2
  1

  0
LINE
  5
116
100
AcDbEntity
100
AcDbLine
  8
drawing
 62
256
370
-1
  6
ByLayer
 10
0.0
 20
-2.5
 30
0.0
 11
0.0
 21
2.5
 31
0.0
  0
LINE
  5
117
100
AcDbEntity
100
AcDbLine
  8
drawing
 62
256
370
-1
  6
ByLayer
 10
0.0
 20
2.5
 30
0.0
 11
20.0
 21
2.5
 31
0.0
  0
LINE
  5
118
100
AcDbEntity
100
AcDbLine
  8
drawing
 62
256
370
-1
  6
ByLayer
 10
20.0
 20
2.5
 30
0.0
 11
20.0
 21
-2.5
 31
0.0
  0
LINE
  5
119
100
AcDbEntity
100
AcDbLine
  8
drawing
 62
256
370
-1
  6
ByLayer
 10
20.0
 20
-2.5
 30
0.0
 11
0.0
 21
-2.5
 31
0.0
  0
LINE
  5
11A
100
AcDbEntity
100
AcDbLine
  8
drawing
 62
256
370
-1
  6
ByLayer
 10
0.0
 20
1.5
 30
0.0
 11
-5.0
 21
1.5
 31
0.0
  0
LINE
  5
11B
100
AcDbEntity
100
AcDbLine
  8
drawing
 62
256
370
-1
  6
ByLayer
 10
-5.0
 20
1.5
 30
0.0
 11
-5.0000000000000142
 21
2.0
 31
0.0
  0
LINE
  5
11C
100
AcDbEntity
100
AcDbLine
  8
drawing
 62
256
370
-1
  6
ByLayer
 10
-5.0000000000000142
 20
2.0
 30
0.0
 11
0.0
 21
2.0
 31
0.0
  0
LINE
  5
11D
100
AcDbEntity
100
AcDbLine
  8
drawing
 62
256
370
-1
  6
ByLayer
 10
0.0
 20
-2.0
 30
0.0
 11
-5.0
 21
-2.0
 31
0.0
  0
LINE
  5
11E
100
AcDbEntity
100
AcDbLine
  8
drawing
 62
256
370
-1
  6
ByLayer
 10
-5.0
 20
-2.0
 30
0.0
 11
-5.0000000000000142
 21
-1.5
 31
0.0
  0
LINE
  5
11F
100
AcDbEntity
100
AcDbLine
  8
drawing
 62
256
370
-1
  6
ByLayer
 10
-5.0000000000000142
 20
-1.5
 30
0.0
 11
0.0
 21
-1.5
 31
0.0
  0
ENDBLK
  5
120
100
AcDbEntity
  8
0
100
AcDbBlockEnd
  0
BLOCK
  5
121
100
AcDbEntity
  8
0
100
AcDbBlockBegin
  2
trp-8
 70
0
 10
0.0
 20
0.0
 30
0.0
  3
trp-8
  1

  0
INSERT
  5
122
100
AcDbEntity
100
AcDbBlockReference
  8
drawing
 62
256
370
-1
  6
ByLayer
  2
cst220n2
 10
0.0
 20
0.0
 30
0.0
  0
ENDBLK
  5
123
100
AcDbEntity
  8
0
100
AcDbBlockEnd
  0
BLOCK
  5
124
100
AcDbEntity
  8
0
100
AcDbBlockBegin
  2
u73
 70
0
 10
0.0
 20
0.0
 30
0.0
  3
u73
  1

  0
INSERT
  5
125
100
AcDbEntity
100
AcDbBlockReference
  8
drawing
 62
256
370
-1
  6
ByLayer
  2
a60
 10
0.0
 20
0.0
 30
0.0
  0
MTEXT
  5
126
100
AcDbEntity
100
AcDbMText
  8
drawing
 62
256
370
-1
  6
ByLayer
 10
17.0
 20
0.0
 30
0.0
 40
1.0
 41
100.0
 71
5
 72
0
  1
U73
  7
normallatin1
 50
0.0
 73
1
 44
1.0
  0
ENDBLK
  5
127
100
AcDbEntity
  8
0
100
AcDbBlockEnd
  0
ENDSEC
  0
SECTION
  2
ENTITIES
  0
DIMENSION
  5
128
100
AcDbEntity
  8
dimensions
 62
256
370
-1
  6
ByLayer
100
AcDbDimension
 10
1000.0
 20
-100.0
 30
0.0
 11
500.0
 21
-98.125
 31
0.0
 70
0
 71
5
 72
1
 41
1.0
 42
0.0
  1

  3
Standard
100
AcDbAlignedDimension
 13
0.0
 23
0.0
 33
0.0
 14
1000.0
 24
0.0
 34
0.0
 50
0.0
100
AcDbRotatedDimension
  0
DIMENSION
  5
129
100
AcDbEntity
  8
dimensions
 62
256
370
-1
  6
ByLayer
100
AcDbDimension
 10
1100.0
 20
500.0
 30
0.0
 11
1098.125
 21
250.0
 31
0.0
 70
0
 71
5
 72
1
 41
1.0
 42
0.0
  1

  3
Standard
100
AcDbAlignedDimension
 13
1000.0
 23
0.0
 33
0.0
 14
1000.0
 24
500.0
 34
0.0
 50
90.0
100
AcDbRotatedDimension
  0
LINE
  5
12A
100
AcDbEntity
100
AcDbLine
  8
help
 62
256
370
-1
  6
ByLayer
 10
0.0
 20
0.0
 30
0.0
 11
1000.0
 21
0.0
 31
0.0
  0
LINE
  5
12B
100
AcDbEntity
100
AcDbLine
  8
help
 62
256
370
-1
  6
ByLayer
 10
1000.0
 20
0.0
 30
0.0
 11
1000.0
 21
500.0
 31
0.0
  0
LINE
  5
12C
100
AcDbEntity
100
AcDbLine
  8
help
 62
256
370
-1
  6
ByLayer
 10
1000.0
 20
500.0
 30
0.0
 11
0.0
 21
500.0
 31
0.0
  0
LINE
  5
12D
100
AcDbEntity
100
AcDbLine
  8
help
 62
256
370
-1
  6
ByLayer
 10
100.0
 20
150.0
 30
0.0
 11
110.0
 21
150.0
 31
0.0
  0
LINE
  5
12E
100
AcDbEntity
100
AcDbLine
  8
help
 62
256
370
-1
  6
ByLayer
 10
110.0
 20
150.0
 30
0.0
 11
110.0
 21
170.0
 31
0.0
  0
LINE
  5
12F
100
AcDbEntity
100
AcDbLine
  8
help
 62
256
370
-1
  6
ByLayer
 10
110.0
 20
170.0
 30
0.0
 11
100.0
 21
170.0
 31
0.0
  0
LINE
  5
130
100
AcDbEntity
100
AcDbLine
  8
help
 62
256
370
-1
  6
ByLayer
 10
100.0
 20
170.0
 30
0.0
 11
100.0
 21
150.0
 31
0.0
  0
LINE
  5
131
100
AcDbEntity
100
AcDbLine
  8
help
 62
256
370
-1
  6
ByLayer
 10
101.0
 20
170.0
 30
0.0
 11
101.0
 21
165.0
 31
0.0
  0
LINE
  5
132
100
AcDbEntity
100
AcDbLine
  8
help
 62
256
370
-1
  6
ByLayer
 10
101.0
 20
165.0
 30
0.0
 11
110.0
 21
165.0
 31
0.0
  0
ARC
  5
133
100
AcDbEntity
  8
help
 62
256
370
-1
  6
ByLayer
100
AcDbCircle
 10
-79.0
 20
144.0
 30
0.0
 40
1.0
100
AcDbArc
 50
180.0
 51
270.0
  0
ARC
  5
134
100
AcDbEntity
  8
help
 62
256
370
-1
  6
ByLayer
100
AcDbCircle
 10
-79.0
 20
144.0
 30
0.0
 40
1.0
100
AcDbArc
 50
180.0
 51
270.0
  0
LINE
  5
135
100
AcDbEntity
100
AcDbLine
  8
help
 62
256
370
-1
  6
ByLayer
 10
-79.0
 20
143.0
 30
0.0
 11
-41.0
 21
143.0
 31
0.0
  0
ARC
  5
136
100
AcDbEntity
  8
help
 62
256
370
-1
  6
ByLayer
100
AcDbCircle
 10
-41.0
 20
144.0
 30
0.0
 40
1.0
100
AcDbArc
 50
270.0
 51
0.0
  0
LINE
  5
137
100
AcDbEntity
100
AcDbLine
  8
help
 62
256
370
-1
  6
ByLayer
 10
-40.0
 20
169.0
 30
0.0
 11
-40.0
 21
144.0
 31
0.0
  0
ARC
  5
138
100
AcDbEntity
  8
help
 62
256
370
-1
  6
ByLayer
100
AcDbCircle
 10
-41.0
 20
169.0
 30
0.0
 40
1.0
100
AcDbArc
 50
0.0
 51
90.0
  0
LINE
  5
139
100
AcDbEntity
100
AcDbLine
  8
help
 62
256
370
-1
  6
ByLayer
 10
-41.0
 20
170.0
 30
0.0
 11
-79.0
 21
170.0
 31
0.0
  0
LINE
  5
13A
100
AcDbEntity
100
AcDbLine
  8
help
 62
256
370
-1
  6
ByLayer
 10
-80.0
 20
169.0
 30
0.0
 11
-80.0
 21
144.0
 31
0.0
  0
ARC
  5
13B
100
AcDbEntity
  8
help
 62
256
370
-1
  6
ByLayer
100
AcDbCircle
 10
-79.0
 20
169.0
 30
0.0
 40
1.0
100
AcDbArc
 50
90.0
 51
180.0
  0
ARC
  5
13C
100
AcDbEntity
  8
help
 62
256
370
-1
  6
ByLayer
100
AcDbCircle
 10
-81.0
 20
174.0
 30
0.0
 40
1.0
100
AcDbArc
 50
270.0
 51
0.0
  0
LINE
  5
13D
100
AcDbEntity
100
AcDbLine
  8
help
 62
256
370
-1
  6
ByLayer
 10
-80.0
 20
175.0
 30
0.0
 11
-80.0
 21
200.0
 31
0.0
  0
LINE
  5
13E
100
AcDbEntity
100
AcDbLine
  8
help
 62
256
370
-1
  6
ByLayer
 10
-79.2928932188134468
 20
173.2928932188134468
 30
0.0
 11
-79.0
 21
173.0
 31
0.0
  0
LINE
  5
13F
100
AcDbEntity
100
AcDbLine
  8
help
 62
256
370
-1
  6
ByLayer
 10
-80.0
 20
175.0
 30
0.0
 11
-79.5542563076188998
 21
173.923879532511279
 31
0.0
  0
LINE
  5
140
100
AcDbEntity
100
AcDbLine
  8
help
 62
256
370
-1
  6
ByLayer
 10
-79.5542563076188998
 20
173.923879532511279
 30
0.0
 11
-79.0030424875563568
 21
173.5555702330196084
 31
0.0
  0
LINE
  5
141
100
AcDbEntity
100
AcDbLine
  8
help
 62
256
370
-1
  6
ByLayer
 10
-79.0030424875563568
 20
173.5555702330196084
 30
0.0
 11
-77.1715728752538013
 21
173.0
 31
0.0
  0
LINE
  5
142
100
AcDbEntity
100
AcDbLine
  8
help
 62
256
370
-1
  6
ByLayer
 10
-80.0
 20
200.0
 30
0.0
 11
0.0
 21
200.0
 31
0.0
  0
LINE
  5
143
100
AcDbEntity
100
AcDbLine
  8
help
 62
256
370
-1
  6
ByLayer
 10
0.0
 20
143.0
 30
0.0
 11
0.0
 21
168.0
 31
0.0
  0
INSERT
  5
144
100
AcDbEntity
100
AcDbBlockReference
  8
drawing
 62
256
370
-1
  6
ByLayer
  2
d-sub-37
 10
41.0
 20
350.0
 30
0.0
  0
INSERT
  5
145
100
AcDbEntity
100
AcDbBlockReference
  8
drawing
 62
256
370
-1
  6
ByLayer
  2
a60
 10
-107.0
 20
340.0
 30
0.0
  0
INSERT
  5
146
100
AcDbEntity
100
AcDbBlockReference
  8
drawing
 62
256
370
-1
  6
ByLayer
  2
vac-relay
 10
-110.0
 20
300.0
 30
0.0
  0
INSERT
  5
147
100
AcDbEntity
100
AcDbBlockReference
  8
drawing
 62
256
370
-1
  6
ByLayer
  2
cst220n2
 10
-100.0
 20
262.5
 30
0.0
  0
INSERT
  5
148
100
AcDbEntity
100
AcDbBlockReference
  8
drawing
 62
256
370
-1
  6
ByLayer
  2
trp-8
 10
-100.0
 20
253.5
 30
0.0
  0
INSERT
  5
149
100
AcDbEntity
100
AcDbBlockReference
  8
drawing
 62
256
370
-1
  6
ByLayer
  2
u73
 10
-110.0
 20
370.0
 30
0.0
  0
INSERT
  5
14A
100
AcDbEntity
100
AcDbBlockReference
  8
drawing
 62
256
370
-1
  6
ByLayer
  2
d-sub-37
 10
0.0
 20
2000.0
 30
0.0
 44
1.0
 45
1.0
  0
LINE
  5
14B
100
AcDbEntity
100
AcDbLine
  8
drawing
 62
256
370
-1
  6
ByLayer
 10
-0.0000000000000001
 20
2002.0
 30
0.0
 11
1000.0
 21
2002.0
 31
0.0
  0
LINE
  5
14C
100
AcDbEntity
100
AcDbLine
  8
drawing
 62
256
370
-1
  6
ByLayer
 10
-0.0000000000000001
 20
1998.0
 30
0.0
 11
1000.0
 21
1998.0
 31
0.0
  0
LINE
  5
14D
100
AcDbEntity
100
AcDbLine
  8
drawing
 62
256
370
-1
  6
ByLayer
 10
1000.0
 20
1998.0
 30
0.0
 11
1000.0
 21
2002.0
 31
0.0
  0
LINE
  5
14E
100
AcDbEntity
100
AcDbLine
  8
drawing
 62
256
370
-1
  6
ByLayer
 10
1200.0
 20
2400.0
 30
0.0
 11
1200.0
 21
2399.0
 31
0.0
  0
LINE
  5
14F
100
AcDbEntity
100
AcDbLine
  8
drawing
 62
256
370
-1
  6
ByLayer
 10
1001.0
 20
2002.0
 30
0.0
 11
1001.0
 21
2001.0
 31
0.0
  0
LINE
  5
150
100
AcDbEntity
100
AcDbLine
  8
drawing
 62
256
370
-1
  6
ByLayer
 10
1001.0
 20
2001.0
 30
0.0
 11
1000.0
 21
2001.0
 31
0.0
  0
LINE
  5
151
100
AcDbEntity
100
AcDbLine
  8
drawing
 62
256
370
-1
  6
ByLayer
 10
1100.0
 20
2140.0
 30
0.0
 11
1100.0
 21
2139.0
 31
0.0
  0
LINE
  5
152
100
AcDbEntity
100
AcDbLine
  8
drawing
 62
256
370
-1
  6
ByLayer
 10
1079.0
 20
2060.0
 30
0.0
 11
1079.0
 21
2059.0
 31
0.0
  0
LINE
  5
153
100
AcDbEntity
100
AcDbLine
  8
drawing
 62
256
370
-1
  6
ByLayer
 10
1050.0
 20
1893.0
 30
0.0
 11
1050.0
 21
1892.0
 31
0.0
  0
LINE
  5
154
100
AcDbEntity
100
AcDbLine
  8
drawing
 62
256
370
-1
  6
ByLayer
 10
1100.0
 20
1810.0
 30
0.0
 11
1100.0
 21
1811.0
 31
0.0
  0
LINE
  5
155
100
AcDbEntity
100
AcDbLine
  8
drawing
 62
256
370
-1
  6
ByLayer
 10
1001.0
 20
1999.0
 30
0.0
 11
1000.0
 21
1999.0
 31
0.0
  0
LINE
  5
156
100
AcDbEntity
100
AcDbLine
  8
drawing
 62
256
370
-1
  6
ByLayer
 10
1038.0
 20
1914.0
 30
0.0
 11
1038.0
 21
1915.0
 31
0.0
  0
LINE
  5
157
100
AcDbEntity
100
AcDbLine
  8
drawing
 62
256
370
-1
  6
ByLayer
 10
1210.0
 20
2405.0
 30
0.0
 11
1210.0
 21
2404.0
 31
0.0
  0
LINE
  5
158
100
AcDbEntity
100
AcDbLine
  8
drawing
 62
256
370
-1
  6
ByLayer
 10
1201.0
 20
2400.0
 30
0.0
 11
1210.0
 21
2400.0
 31
0.0
  0
LINE
  5
159
100
AcDbEntity
100
AcDbLine
  8
drawing
 62
256
370
-1
  6
ByLayer
 10
1210.0
 20
2400.0
 30
0.0
 11
1214.0
 21
2400.0
 31
0.0
  0
LINE
  5
15A
100
AcDbEntity
100
AcDbLine
  8
drawing
 62
256
370
-1
  6
ByLayer
 10
1214.0
 20
2400.0
 30
0.0
 11
1214.0
 21
2399.0
 31
0.0
  0
LINE
  5
15B
100
AcDbEntity
100
AcDbLine
  8
drawing
 62
256
370
-1
  6
ByLayer
 10
1214.0
 20
2399.0
 30
0.0
 11
1201.0
 21
2399.0
 31
0.0
  0
LINE
  5
15C
100
AcDbEntity
100
AcDbLine
  8
drawing
 62
256
370
-1
  6
ByLayer
 10
1210.0
 20
2394.0
 30
0.0
 11
1210.0
 21
2395.0
 31
0.0
  0
LINE
  5
15D
100
AcDbEntity
100
AcDbLine
  8
drawing
 62
256
370
-1
  6
ByLayer
 10
1200.0
 20
2400.0
 30
0.0
 11
1200.0
 21
2404.0
 31
0.0
  0
LINE
  5
15E
100
AcDbEntity
100
AcDbLine
  8
drawing
 62
256
370
-1
  6
ByLayer
 10
1201.0
 20
2405.0
 30
0.0
 11
1210.0
 21
2405.0
 31
0.0
  0
ARC
  5
15F
100
AcDbEntity
  8
drawing
 62
256
370
-1
  6
ByLayer
100
AcDbCircle
 10
1201.0
 20
2404.0
 30
0.0
 40
1.0
100
AcDbArc
 50
90.0
 51
180.0
  0
LINE
  5
160
100
AcDbEntity
100
AcDbLine
  8
drawing
 62
256
370
-1
  6
ByLayer
 10
1210.0
 20
2404.0
 30
0.0
 11
1202.0
 21
2404.0
 31
0.0
  0
ARC
  5
161
100
AcDbEntity
  8
drawing
 62
256
370
-1
  6
ByLayer
100
AcDbCircle
 10
1202.0
 20
2403.0
 30
0.0
 40
1.0
100
AcDbArc
 50
90.0
 51
180.0
  0
LINE
  5
162
100
AcDbEntity
100
AcDbLine
  8
drawing
 62
256
370
-1
  6
ByLayer
 10
1200.0
 20
2399.0
 30
0.0
 11
1200.0
 21
2399.0
 31
0.0
  0
LINE
  5
163
100
AcDbEntity
100
AcDbLine
  8
drawing
 62
256
370
-1
  6
ByLayer
 10
1201.0
 20
2403.0
 30
0.0
 11
1201.0
 21
2400.0
 31
0.0
  0
ARC
  5
164
100
AcDbEntity
  8
drawing
 62
256
370
-1
  6
ByLayer
100
AcDbCircle
 10
1200.0
 20
2400.0
 30
0.0
 40
1.0
100
AcDbArc
 50
270.0
 51
0.0
  0
LINE
  5
165
100
AcDbEntity
100
AcDbLine
  8
drawing
 62
256
370
-1
  6
ByLayer
 10
1200.0
 20
2399.0
 30
0.0
 11
1201.0
 21
2399.0
 31
0.0
  0
LINE
  5
166
100
AcDbEntity
100
AcDbLine
  8
drawing
 62
256
370
-1
  6
ByLayer
 10
1201.0
 20
2396.0
 30
0.0
 11
1201.0
 21
2399.0
 31
0.0
  0
LINE
  5
167
100
AcDbEntity
100
AcDbLine
  8
drawing
 62
256
370
-1
  6
ByLayer
 10
1210.0
 20
2395.0
 30
0.0
 11
1202.0
 21
2395.0
 31
0.0
  0
ARC
  5
168
100
AcDbEntity
  8
drawing
 62
256
370
-1
  6
ByLayer
100
AcDbCircle
 10
1202.0
 20
2396.0
 30
0.0
 40
1.0
100
AcDbArc
 50
180.0
 51
270.0
  0
LINE
  5
169
100
AcDbEntity
100
AcDbLine
  8
drawing
 62
256
370
-1
  6
ByLayer
 10
1200.0
 20
2399.0
 30
0.0
 11
1200.0
 21
2395.0
 31
0.0
  0
LINE
  5
16A
100
AcDbEntity
100
AcDbLine
  8
drawing
 62
256
370
-1
  6
ByLayer
 10
1201.0
 20
2394.0
 30
0.0
 11
1210.0
 21
2394.0
 31
0.0
  0
ARC
  5
16B
100
AcDbEntity
  8
drawing
 62
256
370
-1
  6
ByLayer
100
AcDbCircle
 10
1201.0
 20
2395.0
 30
0.0
 40
1.0
100
AcDbArc
 50
180.0
 51
270.0
  0
LINE
  5
16C
100
AcDbEntity
100
AcDbLine
  8
drawing
 62
256
370
-1
  6
ByLayer
 10
1130.0
 20
2144.0
 30
0.0
 11
1130.0
 21
2143.0
 31
0.0
  0
LINE
  5
16D
100
AcDbEntity
100
AcDbLine
  8
drawing
 62
256
370
-1
  6
ByLayer
 10
1130.0
 20
2136.0
 30
0.0
 11
1130.0
 21
2135.0
 31
0.0
  0
ARC
  5
16E
100
AcDbEntity
  8
drawing
 62
256
370
-1
  6
ByLayer
100
AcDbCircle
 10
1099.807417596432515
 20
2141.0
 30
0.0
 40
1.0
100
AcDbArc
 50
270.0
 51
291.8014094863542596
  0
ARC
  5
16F
100
AcDbEntity
  8
drawing
 62
256
370
-1
  6
ByLayer
100
AcDbCircle
 10
1099.807417596432515
 20
2138.0
 30
0.0
 40
1.0
100
AcDbArc
 50
68.1985905136457689
 51
90.0
  0
LINE
  5
170
100
AcDbEntity
100
AcDbLine
  8
drawing
 62
256
370
-1
  6
ByLayer
 10
1100.1788082727866822
 20
2140.0715233091145819
 30
0.0
 11
1109.8211917272133178
 21
2143.9284766908854181
 31
0.0
  0
LINE
  5
171
100
AcDbEntity
100
AcDbLine
  8
drawing
 62
256
370
-1
  6
ByLayer
 10
1110.192582403567485
 20
2144.0
 30
0.0
 11
1130.0
 21
2144.0
 31
0.0
  0
ARC
  5
172
100
AcDbEntity
  8
drawing
 62
256
370
-1
  6
ByLayer
100
AcDbCircle
 10
1110.192582403567485
 20
2143.0
 30
0.0
 40
1.0
100
AcDbArc
 50
90.0
 51
111.8014094863542311
  0
LINE
  5
173
100
AcDbEntity
100
AcDbLine
  8
drawing
 62
256
370
-1
  6
ByLayer
 10
1109.8211917272133178
 20
2142.9284766908854181
 30
0.0
 11
1100.0
 21
2139.0
 31
0.0
  0
LINE
  5
174
100
AcDbEntity
100
AcDbLine
  8
drawing
 62
256
370
-1
  6
ByLayer
 10
1130.0
 20
2143.0
 30
0.0
 11
1110.192582403567485
 21
2143.0
 31
0.0
  0
ARC
  5
175
100
AcDbEntity
  8
drawing
 62
256
370
-1
  6
ByLayer
100
AcDbCircle
 10
1110.192582403567485
 20
2142.0
 30
0.0
 40
1.0
100
AcDbArc
 50
90.0
 51
111.8014094863542311
  0
LINE
  5
176
100
AcDbEntity
100
AcDbLine
  8
drawing
 62
256
370
-1
  6
ByLayer
 10
1101.25
 20
2139.5
 30
0.0
 11
1109.8211917272133178
 21
2136.0715233091145819
 31
0.0
  0
LINE
  5
177
100
AcDbEntity
100
AcDbLine
  8
drawing
 62
256
370
-1
  6
ByLayer
 10
1110.192582403567485
 20
2136.0
 30
0.0
 11
1130.0
 21
2136.0
 31
0.0
  0
ARC
  5
178
100
AcDbEntity
  8
drawing
 62
256
370
-1
  6
ByLayer
100
AcDbCircle
 10
1110.192582403567485
 20
2137.0
 30
0.0
 40
1.0
100
AcDbArc
 50
248.1985905136457404
 51
270.0
  0
LINE
  5
179
100
AcDbEntity
100
AcDbLine
  8
drawing
 62
256
370
-1
  6
ByLayer
 10
1109.8211917272133178
 20
2135.0715233091145819
 30
0.0
 11
1100.1788082727866822
 21
2138.9284766908854181
 31
0.0
  0
LINE
  5
17A
100
AcDbEntity
100
AcDbLine
  8
drawing
 62
256
370
-1
  6
ByLayer
 10
1130.0
 20
2135.0
 30
0.0
 11
1110.192582403567485
 21
2135.0
 31
0.0
  0
ARC
  5
17B
100
AcDbEntity
  8
drawing
 62
256
370
-1
  6
ByLayer
100
AcDbCircle
 10
1110.192582403567485
 20
2136.0
 30
0.0
 40
1.0
100
AcDbArc
 50
248.1985905136457404
 51
270.0
  0
LINE
  5
17C
100
AcDbEntity
100
AcDbLine
  8
drawing
 62
256
370
-1
  6
ByLayer
 10
1210.0
 20
2404.5
 30
0.0
 11
1210.0
 21
2404.5
 31
0.0
  0
LINE
  5
17D
100
AcDbEntity
100
AcDbLine
  8
drawing
 62
256
370
-1
  6
ByLayer
 10
1210.0
 20
2404.5
 30
0.0
 11
1210.0
 21
2404.5
 31
0.0
  0
LINE
  5
17E
100
AcDbEntity
100
AcDbLine
  8
drawing
 62
256
370
-1
  6
ByLayer
 10
1210.0
 20
2404.5
 30
0.0
 11
1210.0
 21
2404.6999999999998181
 31
0.0
  0
LINE
  5
17F
100
AcDbEntity
100
AcDbLine
  8
drawing
 62
256
370
-1
  6
ByLayer
 10
1210.0
 20
2404.6999999999998181
 30
0.0
 11
1213.0
 21
2404.6999999999998181
 31
0.0
  0
LINE
  5
180
100
AcDbEntity
100
AcDbLine
  8
drawing
 62
256
370
-1
  6
ByLayer
 10
1213.0
 20
2404.6999999999998181
 30
0.0
 11
1213.0
 21
2404.3000000000001819
 31
0.0
  0
LINE
  5
181
100
AcDbEntity
100
AcDbLine
  8
drawing
 62
256
370
-1
  6
ByLayer
 10
1213.0
 20
2404.3000000000001819
 30
0.0
 11
1210.0
 21
2404.3000000000001819
 31
0.0
  0
LINE
  5
182
100
AcDbEntity
100
AcDbLine
  8
drawing
 62
256
370
-1
  6
ByLayer
 10
1214.0000000000002274
 20
2399.6999999999998181
 30
0.0
 11
1217.0000000000002274
 21
2399.6999999999998181
 31
0.0
  0
LINE
  5
183
100
AcDbEntity
100
AcDbLine
  8
drawing
 62
256
370
-1
  6
ByLayer
 10
1217.0000000000002274
 20
2399.6999999999998181
 30
0.0
 11
1217.0000000000002274
 21
2399.3000000000001819
 31
0.0
  0
LINE
  5
184
100
AcDbEntity
100
AcDbLine
  8
drawing
 62
256
370
-1
  6
ByLayer
 10
1217.0000000000002274
 20
2399.3000000000001819
 30
0.0
 11
1214.0000000000002274
 21
2399.3000000000001819
 31
0.0
  0
LINE
  5
185
100
AcDbEntity
100
AcDbLine
  8
drawing
 62
256
370
-1
  6
ByLayer
 10
1210.0
 20
2394.7000000000002728
 30
0.0
 11
1213.0
 21
2394.7000000000002728
 31
0.0
  0
LINE
  5
186
100
AcDbEntity
100
AcDbLine
  8
drawing
 62
256
370
-1
  6
ByLayer
 10
1213.0
 20
2394.7000000000002728
 30
0.0
 11
1213.0
 21
2394.3000000000001819
 31
0.0
  0
LINE
  5
187
100
AcDbEntity
100
AcDbLine
  8
drawing
 62
256
370
-1
  6
ByLayer
 10
1213.0
 20
2394.3000000000001819
 30
0.0
 11
1210.0
 21
2394.3000000000001819
 31
0.0
  0
LINE
  5
188
100
AcDbEntity
100
AcDbLine
  8
drawing
 62
256
370
-1
  6
ByLayer
 10
1160.0
 20
2342.0
 30
0.0
 11
1160.0
 21
2341.0
 31
0.0
  0
LINE
  5
189
100
AcDbEntity
100
AcDbLine
  8
drawing
 62
256
370
-1
  6
ByLayer
 10
1170.0
 20
2347.0
 30
0.0
 11
1170.0
 21
2346.0
 31
0.0
  0
LINE
  5
18A
100
AcDbEntity
100
AcDbLine
  8
drawing
 62
256
370
-1
  6
ByLayer
 10
1161.0
 20
2342.0
 30
0.0
 11
1170.0
 21
2342.0
 31
0.0
  0
LINE
  5
18B
100
AcDbEntity
100
AcDbLine
  8
drawing
 62
256
370
-1
  6
ByLayer
 10
1170.0
 20
2342.0
 30
0.0
 11
1174.0
 21
2342.0
 31
0.0
  0
LINE
  5
18C
100
AcDbEntity
100
AcDbLine
  8
drawing
 62
256
370
-1
  6
ByLayer
 10
1174.0
 20
2342.0
 30
0.0
 11
1174.0
 21
2341.0
 31
0.0
  0
LINE
  5
18D
100
AcDbEntity
100
AcDbLine
  8
drawing
 62
256
370
-1
  6
ByLayer
 10
1174.0
 20
2341.0
 30
0.0
 11
1161.0
 21
2341.0
 31
0.0
  0
LINE
  5
18E
100
AcDbEntity
100
AcDbLine
  8
drawing
 62
256
370
-1
  6
ByLayer
 10
1170.0
 20
2336.0
 30
0.0
 11
1170.0
 21
2337.0
 31
0.0
  0
LINE
  5
18F
100
AcDbEntity
100
AcDbLine
  8
drawing
 62
256
370
-1
  6
ByLayer
 10
1160.0
 20
2342.0
 30
0.0
 11
1160.0
 21
2346.0
 31
0.0
  0
LINE
  5
190
100
AcDbEntity
100
AcDbLine
  8
drawing
 62
256
370
-1
  6
ByLayer
 10
1161.0
 20
2347.0
 30
0.0
 11
1170.0
 21
2347.0
 31
0.0
  0
ARC
  5
191
100
AcDbEntity
  8
drawing
 62
256
370
-1
  6
ByLayer
100
AcDbCircle
 10
1161.0
 20
2346.0
 30
0.0
 40
1.0
100
AcDbArc
 50
90.0
 51
180.0
  0
LINE
  5
192
100
AcDbEntity
100
AcDbLine
  8
drawing
 62
256
370
-1
  6
ByLayer
 10
1170.0
 20
2346.0
 30
0.0
 11
1162.0
 21
2346.0
 31
0.0
  0
ARC
  5
193
100
AcDbEntity
  8
drawing
 62
256
370
-1
  6
ByLayer
100
AcDbCircle
 10
1162.0
 20
2345.0
 30
0.0
 40
1.0
100
AcDbArc
 50
90.0
 51
180.0
  0
LINE
  5
194
100
AcDbEntity
100
AcDbLine
  8
drawing
 62
256
370
-1
  6
ByLayer
 10
1160.0
 20
2341.0
 30
0.0
 11
1160.0
 21
2341.0
 31
0.0
  0
LINE
  5
195
100
AcDbEntity
100
AcDbLine
  8
drawing
 62
256
370
-1
  6
ByLayer
 10
1161.0
 20
2345.0
 30
0.0
 11
1161.0
 21
2342.0
 31
0.0
  0
ARC
  5
196
100
AcDbEntity
  8
drawing
 62
256
370
-1
  6
ByLayer
100
AcDbCircle
 10
1160.0
 20
2342.0
 30
0.0
 40
1.0
100
AcDbArc
 50
270.0
 51
0.0
  0
LINE
  5
197
100
AcDbEntity
100
AcDbLine
  8
drawing
 62
256
370
-1
  6
ByLayer
 10
1160.0
 20
2341.0
 30
0.0
 11
1161.0
 21
2341.0
 31
0.0
  0
LINE
  5
198
100
AcDbEntity
100
AcDbLine
  8
drawing
 62
256
370
-1
  6
ByLayer
 10
1161.0
 20
2338.0
 30
0.0
 11
1161.0
 21
2341.0
 31
0.0
  0
LINE
  5
199
100
AcDbEntity
100
AcDbLine
  8
drawing
 62
256
370
-1
  6
ByLayer
 10
1170.0
 20
2337.0
 30
0.0
 11
1162.0
 21
2337.0
 31
0.0
  0
ARC
  5
19A
100
AcDbEntity
  8
drawing
 62
256
370
-1
  6
ByLayer
100
AcDbCircle
 10
1162.0
 20
2338.0
 30
0.0
 40
1.0
100
AcDbArc
 50
180.0
 51
270.0
  0
LINE
  5
19B
100
AcDbEntity
100
AcDbLine
  8
drawing
 62
256
370
-1
  6
ByLayer
 10
1160.0
 20
2341.0
 30
0.0
 11
1160.0
 21
2337.0
 31
0.0
  0
LINE
  5
19C
100
AcDbEntity
100
AcDbLine
  8
drawing
 62
256
370
-1
  6
ByLayer
 10
1161.0
 20
2336.0
 30
0.0
 11
1170.0
 21
2336.0
 31
0.0
  0
ARC
  5
19D
100
AcDbEntity
  8
drawing
 62
256
370
-1
  6
ByLayer
100
AcDbCircle
 10
1161.0
 20
2337.0
 30
0.0
 40
1.0
100
AcDbArc
 50
180.0
 51
270.0
  0
LINE
  5
19E
100
AcDbEntity
100
AcDbLine
  8
drawing
 62
256
370
-1
  6
ByLayer
 10
1170.0
 20
2346.5
 30
0.0
 11
1170.0
 21
2346.5
 31
0.0
  0
LINE
  5
19F
100
AcDbEntity
100
AcDbLine
  8
drawing
 62
256
370
-1
  6
ByLayer
 10
1170.0
 20
2346.5
 30
0.0
 11
1170.0
 21
2346.5
 31
0.0
  0
LINE
  5
1A0
100
AcDbEntity
100
AcDbLine
  8
drawing
 62
256
370
-1
  6
ByLayer
 10
1170.0
 20
2346.5
 30
0.0
 11
1170.0
 21
2346.6999999999998181
 31
0.0
  0
LINE
  5
1A1
100
AcDbEntity
100
AcDbLine
  8
drawing
 62
256
370
-1
  6
ByLayer
 10
1170.0
 20
2346.6999999999998181
 30
0.0
 11
1173.0
 21
2346.6999999999998181
 31
0.0
  0
LINE
  5
1A2
100
AcDbEntity
100
AcDbLine
  8
drawing
 62
256
370
-1
  6
ByLayer
 10
1173.0
 20
2346.6999999999998181
 30
0.0
 11
1173.0
 21
2346.3000000000001819
 31
0.0
  0
LINE
  5
1A3
100
AcDbEntity
100
AcDbLine
  8
drawing
 62
256
370
-1
  6
ByLayer
 10
1173.0
 20
2346.3000000000001819
 30
0.0
 11
1170.0
 21
2346.3000000000001819
 31
0.0
  0
LINE
  5
1A4
100
AcDbEntity
100
AcDbLine
  8
drawing
 62
256
370
-1
  6
ByLayer
 10
1174.0000000000002274
 20
2341.6999999999998181
 30
0.0
 11
1177.0000000000002274
 21
2341.6999999999998181
 31
0.0
  0
LINE
  5
1A5
100
AcDbEntity
100
AcDbLine
  8
drawing
 62
256
370
-1
  6
ByLayer
 10
1177.0000000000002274
 20
2341.6999999999998181
 30
0.0
 11
1177.0000000000002274
 21
2341.3000000000001819
 31
0.0
  0
LINE
  5
1A6
100
AcDbEntity
100
AcDbLine
  8
drawing
 62
256
370
-1
  6
ByLayer
 10
1177.0000000000002274
 20
2341.3000000000001819
 30
0.0
 11
1174.0000000000002274
 21
2341.3000000000001819
 31
0.0
  0
LINE
  5
1A7
100
AcDbEntity
100
AcDbLine
  8
drawing
 62
256
370
-1
  6
ByLayer
 10
1170.0
 20
2336.7000000000002728
 30
0.0
 11
1173.0
 21
2336.7000000000002728
 31
0.0
  0
LINE
  5
1A8
100
AcDbEntity
100
AcDbLine
  8
drawing
 62
256
370
-1
  6
ByLayer
 10
1173.0
 20
2336.7000000000002728
 30
0.0
 11
1173.0
 21
2336.3000000000001819
 31
0.0
  0
LINE
  5
1A9
100
AcDbEntity
100
AcDbLine
  8
drawing
 62
256
370
-1
  6
ByLayer
 10
1173.0
 20
2336.3000000000001819
 30
0.0
 11
1170.0
 21
2336.3000000000001819
 31
0.0
  0
LINE
  5
1AA
100
AcDbEntity
100
AcDbLine
  8
drawing
 62
256
370
-1
  6
ByLayer
 10
1130.0
 20
2231.0
 30
0.0
 11
1130.0
 21
2230.0
 31
0.0
  0
LINE
  5
1AB
100
AcDbEntity
100
AcDbLine
  8
drawing
 62
256
370
-1
  6
ByLayer
 10
1140.0
 20
2236.0
 30
0.0
 11
1140.0
 21
2235.0
 31
0.0
  0
LINE
  5
1AC
100
AcDbEntity
100
AcDbLine
  8
drawing
 62
256
370
-1
  6
ByLayer
 10
1131.0
 20
2231.0
 30
0.0
 11
1140.0
 21
2231.0
 31
0.0
  0
LINE
  5
1AD
100
AcDbEntity
100
AcDbLine
  8
drawing
 62
256
370
-1
  6
ByLayer
 10
1140.0
 20
2231.0
 30
0.0
 11
1144.0
 21
2231.0
 31
0.0
  0
LINE
  5
1AE
100
AcDbEntity
100
AcDbLine
  8
drawing
 62
256
370
-1
  6
ByLayer
 10
1144.0
 20
2231.0
 30
0.0
 11
1144.0
 21
2230.0
 31
0.0
  0
LINE
  5
1AF
100
AcDbEntity
100
AcDbLine
  8
drawing
 62
256
370
-1
  6
ByLayer
 10
1144.0
 20
2230.0
 30
0.0
 11
1131.0
 21
2230.0
 31
0.0
  0
LINE
  5
1B0
100
AcDbEntity
100
AcDbLine
  8
drawing
 62
256
370
-1
  6
ByLayer
 10
1140.0
 20
2225.0
 30
0.0
 11
1140.0
 21
2226.0
 31
0.0
  0
LINE
  5
1B1
100
AcDbEntity
100
AcDbLine
  8
drawing
 62
256
370
-1
  6
ByLayer
 10
1130.0
 20
2231.0
 30
0.0
 11
1130.0
 21
2235.0
 31
0.0
  0
LINE
  5
1B2
100
AcDbEntity
100
AcDbLine
  8
drawing
 62
256
370
-1
  6
ByLayer
 10
1131.0
 20
2236.0
 30
0.0
 11
1140.0
 21
2236.0
 31
0.0
  0
ARC
  5
1B3
100
AcDbEntity
  8
drawing
 62
256
370
-1
  6
ByLayer
100
AcDbCircle
 10
1131.0
 20
2235.0
 30
0.0
 40
1.0
100
AcDbArc
 50
90.0
 51
180.0
  0
LINE
  5
1B4
100
AcDbEntity
100
AcDbLine
  8
drawing
 62
256
370
-1
  6
ByLayer
 10
1140.0
 20
2235.0
 30
0.0
 11
1132.0
 21
2235.0
 31
0.0
  0
ARC
  5
1B5
100
AcDbEntity
  8
drawing
 62
256
370
-1
  6
ByLayer
100
AcDbCircle
 10
1132.0
 20
2234.0
 30
0.0
 40
1.0
100
AcDbArc
 50
90.0
 51
180.0
  0
LINE
  5
1B6
100
AcDbEntity
100
AcDbLine
  8
drawing
 62
256
370
-1
  6
ByLayer
 10
1130.0
 20
2230.0
 30
0.0
 11
1130.0
 21
2230.0
 31
0.0
  0
LINE
  5
1B7
100
AcDbEntity
100
AcDbLine
  8
drawing
 62
256
370
-1
  6
ByLayer
 10
1131.0
 20
2234.0
 30
0.0
 11
1131.0
 21
2231.0
 31
0.0
  0
ARC
  5
1B8
100
AcDbEntity
  8
drawing
 62
256
370
-1
  6
ByLayer
100
AcDbCircle
 10
1130.0
 20
2231.0
 30
0.0
 40
1.0
100
AcDbArc
 50
270.0
 51
0.0
  0
LINE
  5
1B9
100
AcDbEntity
100
AcDbLine
  8
drawing
 62
256
370
-1
  6
ByLayer
 10
1130.0
 20
2230.0
 30
0.0
 11
1131.0
 21
2230.0
 31
0.0
  0
LINE
  5
1BA
100
AcDbEntity
100
AcDbLine
  8
drawing
 62
256
370
-1
  6
ByLayer
 10
1131.0
 20
2227.0
 30
0.0
 11
1131.0
 21
2230.0
 31
0.0
  0
LINE
  5
1BB
100
AcDbEntity
100
AcDbLine
  8
drawing
 62
256
370
-1
  6
ByLayer
 10
1140.0
 20
2226.0
 30
0.0
 11
1132.0
 21
2226.0
 31
0.0
  0
ARC
  5
1BC
100
AcDbEntity
  8
drawing
 62
256
370
-1
  6
ByLayer
100
AcDbCircle
 10
1132.0
 20
2227.0
 30
0.0
 40
1.0
100
AcDbArc
 50
180.0
 51
270.0
  0
LINE
  5
1BD
100
AcDbEntity
100
AcDbLine
  8
drawing
 62
256
370
-1
  6
ByLayer
 10
1130.0
 20
2230.0
 30
0.0
 11
1130.0
 21
2226.0
 31
0.0
  0
LINE
  5
1BE
100
AcDbEntity
100
AcDbLine
  8
drawing
 62
256
370
-1
  6
ByLayer
 10
1131.0
 20
2225.0
 30
0.0
 11
1140.0
 21
2225.0
 31
0.0
  0
ARC
  5
1BF
100
AcDbEntity
  8
drawing
 62
256
370
-1
  6
ByLayer
100
AcDbCircle
 10
1131.0
 20
2226.0
 30
0.0
 40
1.0
100
AcDbArc
 50
180.0
 51
270.0
  0
LINE
  5
1C0
100
AcDbEntity
100
AcDbLine
  8
drawing
 62
256
370
-1
  6
ByLayer
 10
1140.0
 20
2235.5
 30
0.0
 11
1140.0
 21
2235.5
 31
0.0
  0
LINE
  5
1C1
100
AcDbEntity
100
AcDbLine
  8
drawing
 62
256
370
-1
  6
ByLayer
 10
1140.0
 20
2235.5
 30
0.0
 11
1140.0
 21
2235.5
 31
0.0
  0
LINE
  5
1C2
100
AcDbEntity
100
AcDbLine
  8
drawing
 62
256
370
-1
  6
ByLayer
 10
1140.0
 20
2235.5
 30
0.0
 11
1140.0
 21
2235.6999999999998181
 31
0.0
  0
LINE
  5
1C3
100
AcDbEntity
100
AcDbLine
  8
drawing
 62
256
370
-1
  6
ByLayer
 10
1140.0
 20
2235.6999999999998181
 30
0.0
 11
1143.0
 21
2235.6999999999998181
 31
0.0
  0
LINE
  5
1C4
100
AcDbEntity
100
AcDbLine
  8
drawing
 62
256
370
-1
  6
ByLayer
 10
1143.0
 20
2235.6999999999998181
 30
0.0
 11
1143.0
 21
2235.3000000000001819
 31
0.0
  0
LINE
  5
1C5
100
AcDbEntity
100
AcDbLine
  8
drawing
 62
256
370
-1
  6
ByLayer
 10
1143.0
 20
2235.3000000000001819
 30
0.0
 11
1140.0
 21
2235.3000000000001819
 31
0.0
  0
LINE
  5
1C6
100
AcDbEntity
100
AcDbLine
  8
drawing
 62
256
370
-1
  6
ByLayer
 10
1144.0000000000002274
 20
2230.6999999999998181
 30
0.0
 11
1147.0000000000002274
 21
2230.6999999999998181
 31
0.0
  0
LINE
  5
1C7
100
AcDbEntity
100
AcDbLine
  8
drawing
 62
256
370
-1
  6
ByLayer
 10
1147.0000000000002274
 20
2230.6999999999998181
 30
0.0
 11
1147.0000000000002274
 21
2230.3000000000001819
 31
0.0
  0
LINE
  5
1C8
100
AcDbEntity
100
AcDbLine
  8
drawing
 62
256
370
-1
  6
ByLayer
 10
1147.0000000000002274
 20
2230.3000000000001819
 30
0.0
 11
1144.0000000000002274
 21
2230.3000000000001819
 31
0.0
  0
LINE
  5
1C9
100
AcDbEntity
100
AcDbLine
  8
drawing
 62
256
370
-1
  6
ByLayer
 10
1140.0
 20
2225.7000000000002728
 30
0.0
 11
1143.0
 21
2225.7000000000002728
 31
0.0
  0
LINE
  5
1CA
100
AcDbEntity
100
AcDbLine
  8
drawing
 62
256
370
-1
  6
ByLayer
 10
1143.0
 20
2225.7000000000002728
 30
0.0
 11
1143.0
 21
2225.3000000000001819
 31
0.0
  0
LINE
  5
1CB
100
AcDbEntity
100
AcDbLine
  8
drawing
 62
256
370
-1
  6
ByLayer
 10
1143.0
 20
2225.3000000000001819
 30
0.0
 11
1140.0
 21
2225.3000000000001819
 31
0.0
  0
LINE
  5
1CC
100
AcDbEntity
100
AcDbLine
  8
drawing
 62
256
370
-1
  6
ByLayer
 10
1130.0000000000002274
 20
2143.6999999999998181
 30
0.0
 11
1133.0000000000002274
 21
2143.6999999999998181
 31
0.0
  0
LINE
  5
1CD
100
AcDbEntity
100
AcDbLine
  8
drawing
 62
256
370
-1
  6
ByLayer
 10
1133.0000000000002274
 20
2143.6999999999998181
 30
0.0
 11
1133.0000000000002274
 21
2143.3000000000001819
 31
0.0
  0
LINE
  5
1CE
100
AcDbEntity
100
AcDbLine
  8
drawing
 62
256
370
-1
  6
ByLayer
 10
1133.0000000000002274
 20
2143.3000000000001819
 30
0.0
 11
1130.0000000000002274
 21
2143.3000000000001819
 31
0.0
  0
LINE
  5
1CF
100
AcDbEntity
100
AcDbLine
  8
drawing
 62
256
370
-1
  6
ByLayer
 10
1130.0
 20
2135.6999999999998181
 30
0.0
 11
1133.0
 21
2135.6999999999998181
 31
0.0
  0
LINE
  5
1D0
100
AcDbEntity
100
AcDbLine
  8
drawing
 62
256
370
-1
  6
ByLayer
 10
1133.0
 20
2135.6999999999998181
 30
0.0
 11
1133.0
 21
2135.3000000000001819
 31
0.0
  0
LINE
  5
1D1
100
AcDbEntity
100
AcDbLine
  8
drawing
 62
256
370
-1
  6
ByLayer
 10
1133.0
 20
2135.3000000000001819
 30
0.0
 11
1130.0
 21
2135.3000000000001819
 31
0.0
  0
LINE
  5
1D2
100
AcDbEntity
100
AcDbLine
  8
drawing
 62
256
370
-1
  6
ByLayer
 10
1079.0
 20
2060.0
 30
0.0
 11
1079.0
 21
2059.0
 31
0.0
  0
LINE
  5
1D3
100
AcDbEntity
100
AcDbLine
  8
drawing
 62
256
370
-1
  6
ByLayer
 10
1109.0
 20
2064.0
 30
0.0
 11
1109.0
 21
2063.0
 31
0.0
  0
LINE
  5
1D4
100
AcDbEntity
100
AcDbLine
  8
drawing
 62
256
370
-1
  6
ByLayer
 10
1109.0
 20
2056.0
 30
0.0
 11
1109.0
 21
2055.0
 31
0.0
  0
ARC
  5
1D5
100
AcDbEntity
  8
drawing
 62
256
370
-1
  6
ByLayer
100
AcDbCircle
 10
1078.807417596432515
 20
2061.0
 30
0.0
 40
1.0
100
AcDbArc
 50
270.0
 51
291.8014094863542596
  0
ARC
  5
1D6
100
AcDbEntity
  8
drawing
 62
256
370
-1
  6
ByLayer
100
AcDbCircle
 10
1078.807417596432515
 20
2058.0
 30
0.0
 40
1.0
100
AcDbArc
 50
68.1985905136457689
 51
90.0
  0
LINE
  5
1D7
100
AcDbEntity
100
AcDbLine
  8
drawing
 62
256
370
-1
  6
ByLayer
 10
1079.1788082727866822
 20
2060.0715233091145819
 30
0.0
 11
1088.8211917272133178
 21
2063.9284766908854181
 31
0.0
  0
LINE
  5
1D8
100
AcDbEntity
100
AcDbLine
  8
drawing
 62
256
370
-1
  6
ByLayer
 10
1089.192582403567485
 20
2064.0
 30
0.0
 11
1109.0
 21
2064.0
 31
0.0
  0
ARC
  5
1D9
100
AcDbEntity
  8
drawing
 62
256
370
-1
  6
ByLayer
100
AcDbCircle
 10
1089.192582403567485
 20
2063.0
 30
0.0
 40
1.0
100
AcDbArc
 50
90.0
 51
111.8014094863542311
  0
LINE
  5
1DA
100
AcDbEntity
100
AcDbLine
  8
drawing
 62
256
370
-1
  6
ByLayer
 10
1088.8211917272133178
 20
2062.9284766908854181
 30
0.0
 11
1079.0
 21
2059.0
 31
0.0
  0
LINE
  5
1DB
100
AcDbEntity
100
AcDbLine
  8
drawing
 62
256
370
-1
  6
ByLayer
 10
1109.0
 20
2063.0
 30
0.0
 11
1089.192582403567485
 21
2063.0
 31
0.0
  0
ARC
  5
1DC
100
AcDbEntity
  8
drawing
 62
256
370
-1
  6
ByLayer
100
AcDbCircle
 10
1089.192582403567485
 20
2062.0
 30
0.0
 40
1.0
100
AcDbArc
 50
90.0
 51
111.8014094863542311
  0
LINE
  5
1DD
100
AcDbEntity
100
AcDbLine
  8
drawing
 62
256
370
-1
  6
ByLayer
 10
1080.25
 20
2059.5
 30
0.0
 11
1088.8211917272133178
 21
2056.0715233091145819
 31
0.0
  0
LINE
  5
1DE
100
AcDbEntity
100
AcDbLine
  8
drawing
 62
256
370
-1
  6
ByLayer
 10
1089.192582403567485
 20
2056.0
 30
0.0
 11
1109.0
 21
2056.0
 31
0.0
  0
ARC
  5
1DF
100
AcDbEntity
  8
drawing
 62
256
370
-1
  6
ByLayer
100
AcDbCircle
 10
1089.192582403567485
 20
2057.0
 30
0.0
 40
1.0
100
AcDbArc
 50
248.1985905136457404
 51
270.0
  0
LINE
  5
1E0
100
AcDbEntity
100
AcDbLine
  8
drawing
 62
256
370
-1
  6
ByLayer
 10
1088.8211917272133178
 20
2055.0715233091145819
 30
0.0
 11
1079.1788082727866822
 21
2058.9284766908854181
 31
0.0
  0
LINE
  5
1E1
100
AcDbEntity
100
AcDbLine
  8
drawing
 62
256
370
-1
  6
ByLayer
 10
1109.0
 20
2055.0
 30
0.0
 11
1089.192582403567485
 21
2055.0
 31
0.0
  0
ARC
  5
1E2
100
AcDbEntity
  8
drawing
 62
256
370
-1
  6
ByLayer
100
AcDbCircle
 10
1089.192582403567485
 20
2056.0
 30
0.0
 40
1.0
100
AcDbArc
 50
248.1985905136457404
 51
270.0
  0
LINE
  5
1E3
100
AcDbEntity
100
AcDbLine
  8
drawing
 62
256
370
-1
  6
ByLayer
 10
1109.0000000000002274
 20
2063.6999999999998181
 30
0.0
 11
1112.0000000000002274
 21
2063.6999999999998181
 31
0.0
  0
LINE
  5
1E4
100
AcDbEntity
100
AcDbLine
  8
drawing
 62
256
370
-1
  6
ByLayer
 10
1112.0000000000002274
 20
2063.6999999999998181
 30
0.0
 11
1112.0000000000002274
 21
2063.3000000000001819
 31
0.0
  0
LINE
  5
1E5
100
AcDbEntity
100
AcDbLine
  8
drawing
 62
256
370
-1
  6
ByLayer
 10
1112.0000000000002274
 20
2063.3000000000001819
 30
0.0
 11
1109.0000000000002274
 21
2063.3000000000001819
 31
0.0
  0
LINE
  5
1E6
100
AcDbEntity
100
AcDbLine
  8
drawing
 62
256
370
-1
  6
ByLayer
 10
1109.0
 20
2055.6999999999998181
 30
0.0
 11
1112.0
 21
2055.6999999999998181
 31
0.0
  0
LINE
  5
1E7
100
AcDbEntity
100
AcDbLine
  8
drawing
 62
256
370
-1
  6
ByLayer
 10
1112.0
 20
2055.6999999999998181
 30
0.0
 11
1112.0
 21
2055.3000000000001819
 31
0.0
  0
LINE
  5
1E8
100
AcDbEntity
100
AcDbLine
  8
drawing
 62
256
370
-1
  6
ByLayer
 10
1112.0
 20
2055.3000000000001819
 30
0.0
 11
1109.0
 21
2055.3000000000001819
 31
0.0
  0
LINE
  5
1E9
100
AcDbEntity
100
AcDbLine
  8
drawing
 62
256
370
-1
  6
ByLayer
 10
1038.0
 20
1915.0
 30
0.0
 11
1038.0
 21
1914.0
 31
0.0
  0
LINE
  5
1EA
100
AcDbEntity
100
AcDbLine
  8
drawing
 62
256
370
-1
  6
ByLayer
 10
1068.0
 20
1919.0
 30
0.0
 11
1068.0
 21
1918.0
 31
0.0
  0
LINE
  5
1EB
100
AcDbEntity
100
AcDbLine
  8
drawing
 62
256
370
-1
  6
ByLayer
 10
1068.0
 20
1911.0
 30
0.0
 11
1068.0
 21
1910.0
 31
0.0
  0
ARC
  5
1EC
100
AcDbEntity
  8
drawing
 62
256
370
-1
  6
ByLayer
100
AcDbCircle
 10
1037.807417596432515
 20
1916.0
 30
0.0
 40
1.0
100
AcDbArc
 50
270.0
 51
291.8014094863542596
  0
ARC
  5
1ED
100
AcDbEntity
  8
drawing
 62
256
370
-1
  6
ByLayer
100
AcDbCircle
 10
1037.807417596432515
 20
1913.0
 30
0.0
 40
1.0
100
AcDbArc
 50
68.1985905136457689
 51
90.0
  0
LINE
  5
1EE
100
AcDbEntity
100
AcDbLine
  8
drawing
 62
256
370
-1
  6
ByLayer
 10
1038.1788082727866822
 20
1915.0715233091145819
 30
0.0
 11
1047.8211917272133178
 21
1918.9284766908854181
 31
0.0
  0
LINE
  5
1EF
100
AcDbEntity
100
AcDbLine
  8
drawing
 62
256
370
-1
  6
ByLayer
 10
1048.192582403567485
 20
1919.0
 30
0.0
 11
1068.0
 21
1919.0
 31
0.0
  0
ARC
  5
1F0
100
AcDbEntity
  8
drawing
 62
256
370
-1
  6
ByLayer
100
AcDbCircle
 10
1048.192582403567485
 20
1918.0
 30
0.0
 40
1.0
100
AcDbArc
 50
90.0
 51
111.8014094863542311
  0
LINE
  5
1F1
100
AcDbEntity
100
AcDbLine
  8
drawing
 62
256
370
-1
  6
ByLayer
 10
1047.8211917272133178
 20
1917.9284766908854181
 30
0.0
 11
1038.0
 21
1914.0
 31
0.0
  0
LINE
  5
1F2
100
AcDbEntity
100
AcDbLine
  8
drawing
 62
256
370
-1
  6
ByLayer
 10
1068.0
 20
1918.0
 30
0.0
 11
1048.192582403567485
 21
1918.0
 31
0.0
  0
ARC
  5
1F3
100
AcDbEntity
  8
drawing
 62
256
370
-1
  6
ByLayer
100
AcDbCircle
 10
1048.192582403567485
 20
1917.0
 30
0.0
 40
1.0
100
AcDbArc
 50
90.0
 51
111.8014094863542311
  0
LINE
  5
1F4
100
AcDbEntity
100
AcDbLine
  8
drawing
 62
256
370
-1
  6
ByLayer
 10
1039.25
 20
1914.5
 30
0.0
 11
1047.8211917272133178
 21
1911.0715233091145819
 31
0.0
  0
LINE
  5
1F5
100
AcDbEntity
100
AcDbLine
  8
drawing
 62
256
370
-1
  6
ByLayer
 10
1048.192582403567485
 20
1911.0
 30
0.0
 11
1068.0
 21
1911.0
 31
0.0
  0
ARC
  5
1F6
100
AcDbEntity
  8
drawing
 62
256
370
-1
  6
ByLayer
100
AcDbCircle
 10
1048.192582403567485
 20
1912.0
 30
0.0
 40
1.0
100
AcDbArc
 50
248.1985905136457404
 51
270.0
  0
LINE
  5
1F7
100
AcDbEntity
100
AcDbLine
  8
drawing
 62
256
370
-1
  6
ByLayer
 10
1047.8211917272133178
 20
1910.0715233091145819
 30
0.0
 11
1038.1788082727866822
 21
1913.9284766908854181
 31
0.0
  0
LINE
  5
1F8
100
AcDbEntity
100
AcDbLine
  8
drawing
 62
256
370
-1
  6
ByLayer
 10
1068.0
 20
1910.0
 30
0.0
 11
1048.192582403567485
 21
1910.0
 31
0.0
  0
ARC
  5
1F9
100
AcDbEntity
  8
drawing
 62
256
370
-1
  6
ByLayer
100
AcDbCircle
 10
1048.192582403567485
 20
1911.0
 30
0.0
 40
1.0
100
AcDbArc
 50
248.1985905136457404
 51
270.0
  0
LINE
  5
1FA
100
AcDbEntity
100
AcDbLine
  8
drawing
 62
256
370
-1
  6
ByLayer
 10
1068.0000000000002274
 20
1918.7000000000000455
 30
0.0
 11
1071.0000000000002274
 21
1918.7000000000000455
 31
0.0
  0
LINE
  5
1FB
100
AcDbEntity
100
AcDbLine
  8
drawing
 62
256
370
-1
  6
ByLayer
 10
1071.0000000000002274
 20
1918.7000000000000455
 30
0.0
 11
1071.0000000000002274
 21
1918.3000000000001819
 31
0.0
  0
LINE
  5
1FC
100
AcDbEntity
100
AcDbLine
  8
drawing
 62
256
370
-1
  6
ByLayer
 10
1071.0000000000002274
 20
1918.3000000000001819
 30
0.0
 11
1068.0000000000002274
 21
1918.3000000000001819
 31
0.0
  0
LINE
  5
1FD
100
AcDbEntity
100
AcDbLine
  8
drawing
 62
256
370
-1
  6
ByLayer
 10
1068.0
 20
1910.7000000000000455
 30
0.0
 11
1071.0
 21
1910.7000000000000455
 31
0.0
  0
LINE
  5
1FE
100
AcDbEntity
100
AcDbLine
  8
drawing
 62
256
370
-1
  6
ByLayer
 10
1071.0
 20
1910.7000000000000455
 30
0.0
 11
1071.0
 21
1910.3000000000001819
 31
0.0
  0
LINE
  5
1FF
100
AcDbEntity
100
AcDbLine
  8
drawing
 62
256
370
-1
  6
ByLayer
 10
1071.0
 20
1910.3000000000001819
 30
0.0
 11
1068.0
 21
1910.3000000000001819
 31
0.0
  0
LINE
  5
200
100
AcDbEntity
100
AcDbLine
  8
drawing
 62
256
370
-1
  6
ByLayer
 10
1050.0
 20
1893.0
 30
0.0
 11
1050.0
 21
1892.0
 31
0.0
  0
LINE
  5
201
100
AcDbEntity
100
AcDbLine
  8
drawing
 62
256
370
-1
  6
ByLayer
 10
1080.0
 20
1897.0
 30
0.0
 11
1080.0
 21
1896.0
 31
0.0
  0
LINE
  5
202
100
AcDbEntity
100
AcDbLine
  8
drawing
 62
256
370
-1
  6
ByLayer
 10
1080.0
 20
1889.0
 30
0.0
 11
1080.0
 21
1888.0
 31
0.0
  0
ARC
  5
203
100
AcDbEntity
  8
drawing
 62
256
370
-1
  6
ByLayer
100
AcDbCircle
 10
1049.807417596432515
 20
1894.0
 30
0.0
 40
1.0
100
AcDbArc
 50
270.0
 51
291.8014094863542596
  0
ARC
  5
204
100
AcDbEntity
  8
drawing
 62
256
370
-1
  6
ByLayer
100
AcDbCircle
 10
1049.807417596432515
 20
1891.0
 30
0.0
 40
1.0
100
AcDbArc
 50
68.1985905136457689
 51
90.0
  0
LINE
  5
205
100
AcDbEntity
100
AcDbLine
  8
drawing
 62
256
370
-1
  6
ByLayer
 10
1050.1788082727866822
 20
1893.0715233091145819
 30
0.0
 11
1059.8211917272133178
 21
1896.9284766908854181
 31
0.0
  0
LINE
  5
206
100
AcDbEntity
100
AcDbLine
  8
drawing
 62
256
370
-1
  6
ByLayer
 10
1060.192582403567485
 20
1897.0
 30
0.0
 11
1080.0
 21
1897.0
 31
0.0
  0
ARC
  5
207
100
AcDbEntity
  8
drawing
 62
256
370
-1
  6
ByLayer
100
AcDbCircle
 10
1060.192582403567485
 20
1896.0
 30
0.0
 40
1.0
100
AcDbArc
 50
90.0
 51
111.8014094863542311
  0
LINE
  5
208
100
AcDbEntity
100
AcDbLine
  8
drawing
 62
256
370
-1
  6
ByLayer
 10
1059.8211917272133178
 20
1895.9284766908854181
 30
0.0
 11
1050.0
 21
1892.0
 31
0.0
  0
LINE
  5
209
100
AcDbEntity
100
AcDbLine
  8
drawing
 62
256
370
-1
  6
ByLayer
 10
1080.0
 20
1896.0
 30
0.0
 11
1060.192582403567485
 21
1896.0
 31
0.0
  0
ARC
  5
20A
100
AcDbEntity
  8
drawing
 62
256
370
-1
  6
ByLayer
100
AcDbCircle
 10
1060.192582403567485
 20
1895.0
 30
0.0
 40
1.0
100
AcDbArc
 50
90.0
 51
111.8014094863542311
  0
LINE
  5
20B
100
AcDbEntity
100
AcDbLine
  8
drawing
 62
256
370
-1
  6
ByLayer
 10
1051.25
 20
1892.5
 30
0.0
 11
1059.8211917272133178
 21
1889.0715233091145819
 31
0.0
  0
LINE
  5
20C
100
AcDbEntity
100
AcDbLine
  8
drawing
 62
256
370
-1
  6
ByLayer
 10
1060.192582403567485
 20
1889.0
 30
0.0
 11
1080.0
 21
1889.0
 31
0.0
  0
ARC
  5
20D
100
AcDbEntity
  8
drawing
 62
256
370
-1
  6
ByLayer
100
AcDbCircle
 10
1060.192582403567485
 20
1890.0
 30
0.0
 40
1.0
100
AcDbArc
 50
248.1985905136457404
 51
270.0
  0
LINE
  5
20E
100
AcDbEntity
100
AcDbLine
  8
drawing
 62
256
370
-1
  6
ByLayer
 10
1059.8211917272133178
 20
1888.0715233091145819
 30
0.0
 11
1050.1788082727866822
 21
1891.9284766908854181
 31
0.0
  0
LINE
  5
20F
100
AcDbEntity
100
AcDbLine
  8
drawing
 62
256
370
-1
  6
ByLayer
 10
1080.0
 20
1888.0
 30
0.0
 11
1060.192582403567485
 21
1888.0
 31
0.0
  0
ARC
  5
210
100
AcDbEntity
  8
drawing
 62
256
370
-1
  6
ByLayer
100
AcDbCircle
 10
1060.192582403567485
 20
1889.0
 30
0.0
 40
1.0
100
AcDbArc
 50
248.1985905136457404
 51
270.0
  0
LINE
  5
211
100
AcDbEntity
100
AcDbLine
  8
drawing
 62
256
370
-1
  6
ByLayer
 10
1080.0000000000002274
 20
1896.7000000000000455
 30
0.0
 11
1083.0000000000002274
 21
1896.7000000000000455
 31
0.0
  0
LINE
  5
212
100
AcDbEntity
100
AcDbLine
  8
drawing
 62
256
370
-1
  6
ByLayer
 10
1083.0000000000002274
 20
1896.7000000000000455
 30
0.0
 11
1083.0000000000002274
 21
1896.3000000000001819
 31
0.0
  0
LINE
  5
213
100
AcDbEntity
100
AcDbLine
  8
drawing
 62
256
370
-1
  6
ByLayer
 10
1083.0000000000002274
 20
1896.3000000000001819
 30
0.0
 11
1080.0000000000002274
 21
1896.3000000000001819
 31
0.0
  0
LINE
  5
214
100
AcDbEntity
100
AcDbLine
  8
drawing
 62
256
370
-1
  6
ByLayer
 10
1080.0
 20
1888.7000000000000455
 30
0.0
 11
1083.0
 21
1888.7000000000000455
 31
0.0
  0
LINE
  5
215
100
AcDbEntity
100
AcDbLine
  8
drawing
 62
256
370
-1
  6
ByLayer
 10
1083.0
 20
1888.7000000000000455
 30
0.0
 11
1083.0
 21
1888.3000000000001819
 31
0.0
  0
LINE
  5
216
100
AcDbEntity
100
AcDbLine
  8
drawing
 62
256
370
-1
  6
ByLayer
 10
1083.0
 20
1888.3000000000001819
 30
0.0
 11
1080.0
 21
1888.3000000000001819
 31
0.0
  0
LINE
  5
217
100
AcDbEntity
100
AcDbLine
  8
drawing
 62
256
370
-1
  6
ByLayer
 10
1100.0
 20
1811.0
 30
0.0
 11
1100.0
 21
1810.0
 31
0.0
  0
LINE
  5
218
100
AcDbEntity
100
AcDbLine
  8
drawing
 62
256
370
-1
  6
ByLayer
 10
1130.0
 20
1815.0
 30
0.0
 11
1130.0
 21
1814.0
 31
0.0
  0
LINE
  5
219
100
AcDbEntity
100
AcDbLine
  8
drawing
 62
256
370
-1
  6
ByLayer
 10
1130.0
 20
1807.0
 30
0.0
 11
1130.0
 21
1806.0
 31
0.0
  0
ARC
  5
21A
100
AcDbEntity
  8
drawing
 62
256
370
-1
  6
ByLayer
100
AcDbCircle
 10
1099.807417596432515
 20
1812.0
 30
0.0
 40
1.0
100
AcDbArc
 50
270.0
 51
291.8014094863542596
  0
ARC
  5
21B
100
AcDbEntity
  8
drawing
 62
256
370
-1
  6
ByLayer
100
AcDbCircle
 10
1099.807417596432515
 20
1809.0
 30
0.0
 40
1.0
100
AcDbArc
 50
68.1985905136457689
 51
90.0
  0
LINE
  5
21C
100
AcDbEntity
100
AcDbLine
  8
drawing
 62
256
370
-1
  6
ByLayer
 10
1100.1788082727866822
 20
1811.0715233091145819
 30
0.0
 11
1109.8211917272133178
 21
1814.9284766908854181
 31
0.0
  0
LINE
  5
21D
100
AcDbEntity
100
AcDbLine
  8
drawing
 62
256
370
-1
  6
ByLayer
 10
1110.192582403567485
 20
1815.0
 30
0.0
 11
1130.0
 21
1815.0
 31
0.0
  0
ARC
  5
21E
100
AcDbEntity
  8
drawing
 62
256
370
-1
  6
ByLayer
100
AcDbCircle
 10
1110.192582403567485
 20
1814.0
 30
0.0
 40
1.0
100
AcDbArc
 50
90.0
 51
111.8014094863542311
  0
LINE
  5
21F
100
AcDbEntity
100
AcDbLine
  8
drawing
 62
256
370
-1
  6
ByLayer
 10
1109.8211917272133178
 20
1813.9284766908854181
 30
0.0
 11
1100.0
 21
1810.0
 31
0.0
  0
LINE
  5
220
100
AcDbEntity
100
AcDbLine
  8
drawing
 62
256
370
-1
  6
ByLayer
 10
1130.0
 20
1814.0
 30
0.0
 11
1110.192582403567485
 21
1814.0
 31
0.0
  0
ARC
  5
221
100
AcDbEntity
  8
drawing
 62
256
370
-1
  6
ByLayer
100
AcDbCircle
 10
1110.192582403567485
 20
1813.0
 30
0.0
 40
1.0
100
AcDbArc
 50
90.0
 51
111.8014094863542311
  0
LINE
  5
222
100
AcDbEntity
100
AcDbLine
  8
drawing
 62
256
370
-1
  6
ByLayer
 10
1101.25
 20
1810.5
 30
0.0
 11
1109.8211917272133178
 21
1807.0715233091145819
 31
0.0
  0
LINE
  5
223
100
AcDbEntity
100
AcDbLine
  8
drawing
 62
256
370
-1
  6
ByLayer
 10
1110.192582403567485
 20
1807.0
 30
0.0
 11
1130.0
 21
1807.0
 31
0.0
  0
ARC
  5
224
100
AcDbEntity
  8
drawing
 62
256
370
-1
  6
ByLayer
100
AcDbCircle
 10
1110.192582403567485
 20
1808.0
 30
0.0
 40
1.0
100
AcDbArc
 50
248.1985905136457404
 51
270.0
  0
LINE
  5
225
100
AcDbEntity
100
AcDbLine
  8
drawing
 62
256
370
-1
  6
ByLayer
 10
1109.8211917272133178
 20
1806.0715233091145819
 30
0.0
 11
1100.1788082727866822
 21
1809.9284766908854181
 31
0.0
  0
LINE
  5
226
100
AcDbEntity
100
AcDbLine
  8
drawing
 62
256
370
-1
  6
ByLayer
 10
1130.0
 20
1806.0
 30
0.0
 11
1110.192582403567485
 21
1806.0
 31
0.0
  0
ARC
  5
227
100
AcDbEntity
  8
drawing
 62
256
370
-1
  6
ByLayer
100
AcDbCircle
 10
1110.192582403567485
 20
1807.0
 30
0.0
 40
1.0
100
AcDbArc
 50
248.1985905136457404
 51
270.0
  0
LINE
  5
228
100
AcDbEntity
100
AcDbLine
  8
drawing
 62
256
370
-1
  6
ByLayer
 10
1130.0000000000002274
 20
1814.7000000000000455
 30
0.0
 11
1133.0000000000002274
 21
1814.7000000000000455
 31
0.0
  0
LINE
  5
229
100
AcDbEntity
100
AcDbLine
  8
drawing
 62
256
370
-1
  6
ByLayer
 10
1133.0000000000002274
 20
1814.7000000000000455
 30
0.0
 11
1133.0000000000002274
 21
1814.3000000000001819
 31
0.0
  0
LINE
  5
22A
100
AcDbEntity
100
AcDbLine
  8
drawing
 62
256
370
-1
  6
ByLayer
 10
1133.0000000000002274
 20
1814.3000000000001819
 30
0.0
 11
1130.0000000000002274
 21
1814.3000000000001819
 31
0.0
  0
LINE
  5
22B
100
AcDbEntity
100
AcDbLine
  8
drawing
 62
256
370
-1
  6
ByLayer
 10
1130.0
 20
1806.7000000000000455
 30
0.0
 11
1133.0
 21
1806.7000000000000455
 31
0.0
  0
LINE
  5
22C
100
AcDbEntity
100
AcDbLine
  8
drawing
 62
256
370
-1
  6
ByLayer
 10
1133.0
 20
1806.7000000000000455
 30
0.0
 11
1133.0
 21
1806.3000000000001819
 31
0.0
  0
LINE
  5
22D
100
AcDbEntity
100
AcDbLine
  8
drawing
 62
256
370
-1
  6
ByLayer
 10
1133.0
 20
1806.3000000000001819
 30
0.0
 11
1130.0
 21
1806.3000000000001819
 31
0.0
  0
LINE
  5
22E
100
AcDbEntity
100
AcDbLine
  8
drawing
 62
256
370
-1
  6
ByLayer
 10
1020.0
 20
1999.0
 30
0.0
 11
1012.0
 21
1999.0
 31
0.0
  0
LINE
  5
22F
100
AcDbEntity
100
AcDbLine
  8
drawing
 62
256
370
-1
  6
ByLayer
 10
1012.0
 20
2000.0
 30
0.0
 11
1019.0
 21
2000.0
 31
0.0
  0
LINE
  5
230
100
AcDbEntity
100
AcDbLine
  8
drawing
 62
256
370
-1
  6
ByLayer
 10
1030.0
 20
1999.0
 30
0.0
 11
1021.0
 21
1999.0
 31
0.0
  0
LINE
  5
231
100
AcDbEntity
100
AcDbLine
  8
drawing
 62
256
370
-1
  6
ByLayer
 10
1021.0
 20
2000.0
 30
0.0
 11
1029.0
 21
2000.0
 31
0.0
  0
LINE
  5
232
100
AcDbEntity
100
AcDbLine
  8
drawing
 62
256
370
-1
  6
ByLayer
 10
1000.0
 20
2000.0
 30
0.0
 11
1010.0
 21
2000.0
 31
0.0
  0
LINE
  5
233
100
AcDbEntity
100
AcDbLine
  8
drawing
 62
256
370
-1
  6
ByLayer
 10
1000.0
 20
2001.0
 30
0.0
 11
1004.0
 21
2001.0
 31
0.0
  0
LINE
  5
234
100
AcDbEntity
100
AcDbLine
  8
drawing
 62
256
370
-1
  6
ByLayer
 10
1005.0
 20
2000.0
 30
0.0
 11
1000.0
 21
2000.0
 31
0.0
  0
LINE
  5
235
100
AcDbEntity
100
AcDbLine
  8
drawing
 62
256
370
-1
  6
ByLayer
 10
1011.0
 20
1999.0
 30
0.0
 11
1000.0
 21
1999.0
 31
0.0
  0
LINE
  5
236
100
AcDbEntity
100
AcDbLine
  8
drawing
 62
256
370
-1
  6
ByLayer
 10
1006.0
 20
1998.0
 30
0.0
 11
1011.0
 21
1998.0
 31
0.0
  0
LINE
  5
237
100
AcDbEntity
100
AcDbLine
  8
drawing
 62
256
370
-1
  6
ByLayer
 10
1012.0
 20
1999.0
 30
0.0
 11
1006.0
 21
1999.0
 31
0.0
  0
LINE
  5
238
100
AcDbEntity
100
AcDbLine
  8
drawing
 62
256
370
-1
  6
ByLayer
 10
1000.0
 20
1999.0
 30
0.0
 11
1005.0
 21
1999.0
 31
0.0
  0
LINE
  5
239
100
AcDbEntity
100
AcDbLine
  8
drawing
 62
256
370
-1
  6
ByLayer
 10
1004.0
 20
1998.0
 30
0.0
 11
1001.0
 21
1998.0
 31
0.0
  0
LINE
  5
23A
100
AcDbEntity
100
AcDbLine
  8
drawing
 62
256
370
-1
  6
ByLayer
 10
1031.0
 20
2058.0
 30
0.0
 11
1031.0
 21
2000.0
 31
0.0
  0
LINE
  5
23B
100
AcDbEntity
100
AcDbLine
  8
drawing
 62
256
370
-1
  6
ByLayer
 10
1079.0
 20
2059.0
 30
0.0
 11
1032.0
 21
2059.0
 31
0.0
  0
LINE
  5
23C
100
AcDbEntity
100
AcDbLine
  8
drawing
 62
256
370
-1
  6
ByLayer
 10
1030.0
 20
2001.0
 30
0.0
 11
1030.0
 21
2059.0
 31
0.0
  0
LINE
  5
23D
100
AcDbEntity
100
AcDbLine
  8
drawing
 62
256
370
-1
  6
ByLayer
 10
1031.0
 20
2060.0
 30
0.0
 11
1079.0
 21
2060.0
 31
0.0
  0
LINE
  5
23E
100
AcDbEntity
100
AcDbLine
  8
drawing
 62
256
370
-1
  6
ByLayer
 10
1021.0
 20
2138.0
 30
0.0
 11
1021.0
 21
2000.0
 31
0.0
  0
LINE
  5
23F
100
AcDbEntity
100
AcDbLine
  8
drawing
 62
256
370
-1
  6
ByLayer
 10
1099.807417596432515
 20
2139.0
 30
0.0
 11
1022.0
 21
2139.0
 31
0.0
  0
LINE
  5
240
100
AcDbEntity
100
AcDbLine
  8
drawing
 62
256
370
-1
  6
ByLayer
 10
1020.0
 20
2001.0
 30
0.0
 11
1020.0
 21
2139.0
 31
0.0
  0
LINE
  5
241
100
AcDbEntity
100
AcDbLine
  8
drawing
 62
256
370
-1
  6
ByLayer
 10
1021.0
 20
2140.0
 30
0.0
 11
1099.807417596432515
 21
2140.0
 31
0.0
  0
LINE
  5
242
100
AcDbEntity
100
AcDbLine
  8
drawing
 62
256
370
-1
  6
ByLayer
 10
1012.0
 20
2229.0
 30
0.0
 11
1012.0
 21
2000.0
 31
0.0
  0
LINE
  5
243
100
AcDbEntity
100
AcDbLine
  8
drawing
 62
256
370
-1
  6
ByLayer
 10
1130.0
 20
2230.0
 30
0.0
 11
1013.0
 21
2230.0
 31
0.0
  0
LINE
  5
244
100
AcDbEntity
100
AcDbLine
  8
drawing
 62
256
370
-1
  6
ByLayer
 10
1011.0
 20
2001.0
 30
0.0
 11
1011.0
 21
2230.0
 31
0.0
  0
LINE
  5
245
100
AcDbEntity
100
AcDbLine
  8
drawing
 62
256
370
-1
  6
ByLayer
 10
1012.0
 20
2231.0
 30
0.0
 11
1130.0
 21
2231.0
 31
0.0
  0
LINE
  5
246
100
AcDbEntity
100
AcDbLine
  8
drawing
 62
256
370
-1
  6
ByLayer
 10
1006.0
 20
2340.0
 30
0.0
 11
1006.0
 21
2001.0
 31
0.0
  0
LINE
  5
247
100
AcDbEntity
100
AcDbLine
  8
drawing
 62
256
370
-1
  6
ByLayer
 10
1160.0
 20
2341.0
 30
0.0
 11
1007.0
 21
2341.0
 31
0.0
  0
LINE
  5
248
100
AcDbEntity
100
AcDbLine
  8
drawing
 62
256
370
-1
  6
ByLayer
 10
1005.0
 20
2002.0
 30
0.0
 11
1005.0
 21
2341.0
 31
0.0
  0
LINE
  5
249
100
AcDbEntity
100
AcDbLine
  8
drawing
 62
256
370
-1
  6
ByLayer
 10
1006.0
 20
2342.0
 30
0.0
 11
1160.0
 21
2342.0
 31
0.0
  0
LINE
  5
24A
100
AcDbEntity
100
AcDbLine
  8
drawing
 62
256
370
-1
  6
ByLayer
 10
1001.0
 20
2398.0
 30
0.0
 11
1001.0
 21
2002.0
 31
0.0
  0
LINE
  5
24B
100
AcDbEntity
100
AcDbLine
  8
drawing
 62
256
370
-1
  6
ByLayer
 10
1200.0
 20
2399.0
 30
0.0
 11
1002.0
 21
2399.0
 31
0.0
  0
LINE
  5
24C
100
AcDbEntity
100
AcDbLine
  8
drawing
 62
256
370
-1
  6
ByLayer
 10
1000.0
 20
2002.0
 30
0.0
 11
1000.0
 21
2399.0
 31
0.0
  0
LINE
  5
24D
100
AcDbEntity
100
AcDbLine
  8
drawing
 62
256
370
-1
  6
ByLayer
 10
1001.0
 20
2400.0
 30
0.0
 11
1200.0
 21
2400.0
 31
0.0
  0
LINE
  5
24E
100
AcDbEntity
100
AcDbLine
  8
drawing
 62
256
370
-1
  6
ByLayer
 10
1013.0
 20
1916.0
 30
0.0
 11
1013.0
 21
1998.0
 31
0.0
  0
LINE
  5
24F
100
AcDbEntity
100
AcDbLine
  8
drawing
 62
256
370
-1
  6
ByLayer
 10
1038.0
 20
1915.0
 30
0.0
 11
1014.0
 21
1915.0
 31
0.0
  0
LINE
  5
250
100
AcDbEntity
100
AcDbLine
  8
drawing
 62
256
370
-1
  6
ByLayer
 10
1013.0
 20
1914.0
 30
0.0
 11
1038.0
 21
1914.0
 31
0.0
  0
LINE
  5
251
100
AcDbEntity
100
AcDbLine
  8
drawing
 62
256
370
-1
  6
ByLayer
 10
1012.0
 20
1997.0
 30
0.0
 11
1012.0
 21
1915.0
 31
0.0
  0
LINE
  5
252
100
AcDbEntity
100
AcDbLine
  8
drawing
 62
256
370
-1
  6
ByLayer
 10
1007.0
 20
1893.0
 30
0.0
 11
1050.0
 21
1893.0
 31
0.0
  0
LINE
  5
253
100
AcDbEntity
100
AcDbLine
  8
drawing
 62
256
370
-1
  6
ByLayer
 10
1006.0
 20
1998.0
 30
0.0
 11
1006.0
 21
1894.0
 31
0.0
  0
LINE
  5
254
100
AcDbEntity
100
AcDbLine
  8
drawing
 62
256
370
-1
  6
ByLayer
 10
1050.0
 20
1892.0
 30
0.0
 11
1006.0
 21
1892.0
 31
0.0
  0
LINE
  5
255
100
AcDbEntity
100
AcDbLine
  8
drawing
 62
256
370
-1
  6
ByLayer
 10
1005.0
 20
1893.0
 30
0.0
 11
1005.0
 21
1997.0
 31
0.0
  0
LINE
  5
256
100
AcDbEntity
100
AcDbLine
  8
drawing
 62
256
370
-1
  6
ByLayer
 10
1100.0
 20
1811.0
 30
0.0
 11
1002.0
 21
1811.0
 31
0.0
  0
LINE
  5
257
100
AcDbEntity
100
AcDbLine
  8
drawing
 62
256
370
-1
  6
ByLayer
 10
1001.0
 20
1812.0
 30
0.0
 11
1001.0
 21
1999.0
 31
0.0
  0
LINE
  5
258
100
AcDbEntity
100
AcDbLine
  8
drawing
 62
256
370
-1
  6
ByLayer
 10
1001.0
 20
1810.0
 30
0.0
 11
1100.0
 21
1810.0
 31
0.0
  0
LINE
  5
259
100
AcDbEntity
100
AcDbLine
  8
drawing
 62
256
370
-1
  6
ByLayer
 10
1000.0
 20
1998.0
 30
0.0
 11
1000.0
 21
1811.0
 31
0.0
  0
ARC
  5
25A
100
AcDbEntity
  8
drawing
 62
256
370
-1
  6
ByLayer
100
AcDbCircle
 10
1001.0
 20
1811.0
 30
0.0
 40
1.0
100
AcDbArc
 50
180.0
 51
270.0
  0
ARC
  5
25B
100
AcDbEntity
  8
drawing
 62
256
370
-1
  6
ByLayer
100
AcDbCircle
 10
1002.0
 20
1812.0
 30
0.0
 40
1.0
100
AcDbArc
 50
180.0
 51
270.0
  0
ARC
  5
25C
100
AcDbEntity
  8
drawing
 62
256
370
-1
  6
ByLayer
100
AcDbCircle
 10
1006.0
 20
1893.0
 30
0.0
 40
1.0
100
AcDbArc
 50
180.0
 51
270.0
  0
ARC
  5
25D
100
AcDbEntity
  8
drawing
 62
256
370
-1
  6
ByLayer
100
AcDbCircle
 10
1007.0
 20
1894.0
 30
0.0
 40
1.0
100
AcDbArc
 50
180.0
 51
270.0
  0
ARC
  5
25E
100
AcDbEntity
  8
drawing
 62
256
370
-1
  6
ByLayer
100
AcDbCircle
 10
1013.0
 20
1915.0
 30
0.0
 40
1.0
100
AcDbArc
 50
180.0
 51
270.0
  0
ARC
  5
25F
100
AcDbEntity
  8
drawing
 62
256
370
-1
  6
ByLayer
100
AcDbCircle
 10
1014.0
 20
1916.0
 30
0.0
 40
1.0
100
AcDbArc
 50
180.0
 51
270.0
  0
ARC
  5
260
100
AcDbEntity
  8
drawing
 62
256
370
-1
  6
ByLayer
100
AcDbCircle
 10
1004.0
 20
1997.0
 30
0.0
 40
1.0
100
AcDbArc
 50
0.0
 51
90.0
  0
ARC
  5
261
100
AcDbEntity
  8
drawing
 62
256
370
-1
  6
ByLayer
100
AcDbCircle
 10
1005.0
 20
1998.0
 30
0.0
 40
1.0
100
AcDbArc
 50
0.0
 51
90.0
  0
ARC
  5
262
100
AcDbEntity
  8
drawing
 62
256
370
-1
  6
ByLayer
100
AcDbCircle
 10
1011.0
 20
1997.0
 30
0.0
 40
1.0
100
AcDbArc
 50
0.0
 51
90.0
  0
ARC
  5
263
100
AcDbEntity
  8
drawing
 62
256
370
-1
  6
ByLayer
100
AcDbCircle
 10
1012.0
 20
1998.0
 30
0.0
 40
1.0
100
AcDbArc
 50
0.0
 51
90.0
  0
ARC
  5
264
100
AcDbEntity
  8
drawing
 62
256
370
-1
  6
ByLayer
100
AcDbCircle
 10
1004.0
 20
2002.0
 30
0.0
 40
1.0
100
AcDbArc
 50
270.0
 51
0.0
  0
ARC
  5
265
100
AcDbEntity
  8
drawing
 62
256
370
-1
  6
ByLayer
100
AcDbCircle
 10
1005.0
 20
2001.0
 30
0.0
 40
1.0
100
AcDbArc
 50
270.0
 51
0.0
  0
ARC
  5
266
100
AcDbEntity
  8
drawing
 62
256
370
-1
  6
ByLayer
100
AcDbCircle
 10
1010.0
 20
2001.0
 30
0.0
 40
1.0
100
AcDbArc
 50
270.0
 51
0.0
  0
ARC
  5
267
100
AcDbEntity
  8
drawing
 62
256
370
-1
  6
ByLayer
100
AcDbCircle
 10
1011.0
 20
2000.0
 30
0.0
 40
1.0
100
AcDbArc
 50
270.0
 51
0.0
  0
ARC
  5
268
100
AcDbEntity
  8
drawing
 62
256
370
-1
  6
ByLayer
100
AcDbCircle
 10
1019.0
 20
2001.0
 30
0.0
 40
1.0
100
AcDbArc
 50
270.0
 51
0.0
  0
ARC
  5
269
100
AcDbEntity
  8
drawing
 62
256
370
-1
  6
ByLayer
100
AcDbCircle
 10
1020.0
 20
2000.0
 30
0.0
 40
1.0
100
AcDbArc
 50
270.0
 51
0.0
  0
ARC
  5
26A
100
AcDbEntity
  8
drawing
 62
256
370
-1
  6
ByLayer
100
AcDbCircle
 10
1029.0
 20
2001.0
 30
0.0
 40
1.0
100
AcDbArc
 50
270.0
 51
0.0
  0
ARC
  5
26B
100
AcDbEntity
  8
drawing
 62
256
370
-1
  6
ByLayer
100
AcDbCircle
 10
1030.0
 20
2000.0
 30
0.0
 40
1.0
100
AcDbArc
 50
270.0
 51
0.0
  0
ARC
  5
26C
100
AcDbEntity
  8
drawing
 62
256
370
-1
  6
ByLayer
100
AcDbCircle
 10
1031.0
 20
2059.0
 30
0.0
 40
1.0
100
AcDbArc
 50
90.0
 51
180.0
  0
ARC
  5
26D
100
AcDbEntity
  8
drawing
 62
256
370
-1
  6
ByLayer
100
AcDbCircle
 10
1032.0
 20
2058.0
 30
0.0
 40
1.0
100
AcDbArc
 50
90.0
 51
180.0
  0
ARC
  5
26E
100
AcDbEntity
  8
drawing
 62
256
370
-1
  6
ByLayer
100
AcDbCircle
 10
1022.0
 20
2138.0
 30
0.0
 40
1.0
100
AcDbArc
 50
90.0
 51
180.0
  0
ARC
  5
26F
100
AcDbEntity
  8
drawing
 62
256
370
-1
  6
ByLayer
100
AcDbCircle
 10
1021.0
 20
2139.0
 30
0.0
 40
1.0
100
AcDbArc
 50
90.0
 51
180.0
  0
ARC
  5
270
100
AcDbEntity
  8
drawing
 62
256
370
-1
  6
ByLayer
100
AcDbCircle
 10
1012.0
 20
2230.0
 30
0.0
 40
1.0
100
AcDbArc
 50
90.0
 51
180.0
  0
ARC
  5
271
100
AcDbEntity
  8
drawing
 62
256
370
-1
  6
ByLayer
100
AcDbCircle
 10
1013.0
 20
2229.0
 30
0.0
 40
1.0
100
AcDbArc
 50
90.0
 51
180.0
  0
ARC
  5
272
100
AcDbEntity
  8
drawing
 62
256
370
-1
  6
ByLayer
100
AcDbCircle
 10
1007.0
 20
2340.0
 30
0.0
 40
1.0
100
AcDbArc
 50
90.0
 51
180.0
  0
ARC
  5
273
100
AcDbEntity
  8
drawing
 62
256
370
-1
  6
ByLayer
100
AcDbCircle
 10
1006.0
 20
2341.0
 30
0.0
 40
1.0
100
AcDbArc
 50
90.0
 51
180.0
  0
ARC
  5
274
100
AcDbEntity
  8
drawing
 62
256
370
-1
  6
ByLayer
100
AcDbCircle
 10
1001.0
 20
2399.0
 30
0.0
 40
1.0
100
AcDbArc
 50
90.0
 51
180.0
  0
ARC
  5
275
100
AcDbEntity
  8
drawing
 62
256
370
-1
  6
ByLayer
100
AcDbCircle
 10
1002.0
 20
2398.0
 30
0.0
 40
1.0
100
AcDbArc
 50
90.0
 51
180.0
  0
LINE
  5
276
100
AcDbEntity
100
AcDbLine
  8
drawing
 62
256
370
-1
  6
ByLayer
 10
1015.1999999999998181
 20
1305.0
 30
0.0
 11
1015.1999999999998181
 21
1306.0
 31
0.0
  0
ARC
  5
277
100
AcDbEntity
  8
drawing
 62
256
370
-1
  6
ByLayer
100
AcDbCircle
 10
999.9639320225001029
 20
1302.0
 30
0.0
 40
1.0
100
AcDbArc
 50
270.0
 51
296.5650511770794537
  0
ARC
  5
278
100
AcDbEntity
  8
drawing
 62
256
370
-1
  6
ByLayer
100
AcDbCircle
 10
999.9639320225001029
 20
1301.0
 30
0.0
 40
1.0
100
AcDbArc
 50
270.0
 51
296.5650511770794537
  0
LINE
  5
279
100
AcDbEntity
100
AcDbLine
  8
drawing
 62
256
370
-1
  6
ByLayer
 10
1009.9888543819997722
 20
1305.894427190999977
 30
0.0
 11
1000.4111456180000914
 21
1301.105572809000023
 31
0.0
  0
LINE
  5
27A
100
AcDbEntity
100
AcDbLine
  8
drawing
 62
256
370
-1
  6
ByLayer
 10
1015.1999999999998181
 20
1306.0
 30
0.0
 11
1010.4360679774997607
 21
1306.0
 31
0.0
  0
ARC
  5
27B
100
AcDbEntity
  8
drawing
 62
256
370
-1
  6
ByLayer
100
AcDbCircle
 10
1010.4360679774997607
 20
1305.0
 30
0.0
 40
1.0
100
AcDbArc
 50
90.0
 51
116.5650511770794395
  0
LINE
  5
27C
100
AcDbEntity
100
AcDbLine
  8
drawing
 62
256
370
-1
  6
ByLayer
 10
1000.4111456180000914
 20
1300.105572809000023
 30
0.0
 11
1009.9888543819997722
 21
1304.894427190999977
 31
0.0
  0
LINE
  5
27D
100
AcDbEntity
100
AcDbLine
  8
drawing
 62
256
370
-1
  6
ByLayer
 10
1010.4360679774997607
 20
1305.0
 30
0.0
 11
1015.1999999999998181
 21
1305.0
 31
0.0
  0
ARC
  5
27E
100
AcDbEntity
  8
drawing
 62
256
370
-1
  6
ByLayer
100
AcDbCircle
 10
1010.4360679774997607
 20
1304.0
 30
0.0
 40
1.0
100
AcDbArc
 50
90.0
 51
116.5650511770794395
  0
LINE
  5
27F
100
AcDbEntity
100
AcDbLine
  8
drawing
 62
256
370
-1
  6
ByLayer
 10
1010.4400000000000546
 20
1295.0
 30
0.0
 11
1015.1999999999998181
 21
1295.0
 31
0.0
  0
LINE
  5
280
100
AcDbEntity
100
AcDbLine
  8
drawing
 62
256
370
-1
  6
ByLayer
 10
1015.1999999999998181
 20
1294.0
 30
0.0
 11
1010.4400000000000546
 21
1294.0
 31
0.0
  0
LINE
  5
281
100
AcDbEntity
100
AcDbLine
  8
drawing
 62
256
370
-1
  6
ByLayer
 10
1015.1999999999998181
 20
1295.0
 30
0.0
 11
1015.1999999999998181
 21
1294.0
 31
0.0
  0
ARC
  5
282
100
AcDbEntity
  8
drawing
 62
256
370
-1
  6
ByLayer
100
AcDbCircle
 10
1010.4400000000000546
 20
1296.0
 30
0.0
 40
1.0
100
AcDbArc
 50
243.4350000000000023
 51
270.0
  0
ARC
  5
283
100
AcDbEntity
  8
drawing
 62
256
370
-1
  6
ByLayer
100
AcDbCircle
 10
1010.4400000000000546
 20
1295.0
 30
0.0
 40
1.0
100
AcDbArc
 50
243.4350000000000023
 51
270.0
  0
LINE
  5
284
100
AcDbEntity
100
AcDbLine
  8
drawing
 62
256
370
-1
  6
ByLayer
 10
1009.9899999999997817
 20
1294.1059999999999945
 30
0.0
 11
1000.4099999999998545
 21
1298.8940000000000055
 31
0.0
  0
LINE
  5
285
100
AcDbEntity
100
AcDbLine
  8
drawing
 62
256
370
-1
  6
ByLayer
 10
1000.4099999999998545
 20
1299.8940000000000055
 30
0.0
 11
1009.9899999999997817
 21
1295.1059999999999945
 31
0.0
  0
ARC
  5
286
100
AcDbEntity
  8
drawing
 62
256
370
-1
  6
ByLayer
100
AcDbCircle
 10
999.9600000000000364
 20
1299.0
 30
0.0
 40
1.0
100
AcDbArc
 50
63.434899999999999
 51
90.0
  0
ARC
  5
287
100
AcDbEntity
  8
drawing
 62
256
370
-1
  6
ByLayer
100
AcDbCircle
 10
999.9600000000000364
 20
1298.0
 30
0.0
 40
1.0
100
AcDbArc
 50
63.434899999999999
 51
90.0
  0
LINE
  5
288
100
AcDbEntity
100
AcDbLine
  8
drawing
 62
256
370
-1
  6
ByLayer
 10
0.0
 20
1301.0
 30
0.0
 11
1000.0
 21
1301.0
 31
0.0
  0
LINE
  5
289
100
AcDbEntity
100
AcDbLine
  8
drawing
 62
256
370
-1
  6
ByLayer
 10
1000.0
 20
1299.0
 30
0.0
 11
0.0
 21
1299.0
 31
0.0
  0
LINE
  5
28A
100
AcDbEntity
100
AcDbLine
  8
drawing
 62
256
370
-1
  6
ByLayer
 10
1000.0
 20
1301.0
 30
0.0
 11
1000.0
 21
1299.0
 31
0.0
  0
INSERT
  5
28B
100
AcDbEntity
100
AcDbBlockReference
  8
drawing
 62
256
370
-1
  6
ByLayer
  2
d-sub-9
 10
0.0
 20
1300.0
 30
0.0
  0
LINE
  5
28C
100
AcDbEntity
100
AcDbLine
  8
help
 62
256
370
-1
  6
ByLayer
 10
111.0
 20
1197.4999999999997726
 30
0.0
 11
102.0
 21
1197.4999999999997726
 31
0.0
  0
LINE
  5
28D
100
AcDbEntity
100
AcDbLine
  8
help
 62
256
370
-1
  6
ByLayer
 10
111.0
 20
1192.4999999999997726
 30
0.0
 11
111.0
 21
1197.4999999999997726
 31
0.0
  0
LINE
  5
28E
100
AcDbEntity
100
AcDbLine
  8
help
 62
256
370
-1
  6
ByLayer
 10
2.0
 20
1195.4999999999997726
 30
0.0
 11
2.0
 21
1195.4999999999997726
 31
0.0
  0
LINE
  5
28F
100
AcDbEntity
100
AcDbLine
  8
help
 62
256
370
-1
  6
ByLayer
 10
2.0
 20
1197.4999999999997726
 30
0.0
 11
2.0
 21
1197.4999999999997726
 31
0.0
  0
LINE
  5
290
100
AcDbEntity
100
AcDbLine
  8
drawing
 62
256
370
-1
  6
ByLayer
 10
1.0
 20
1198.4999999999997726
 30
0.0
 11
1.0
 21
1198.4999999999997726
 31
0.0
  0
LINE
  5
291
100
AcDbEntity
100
AcDbLine
  8
drawing
 62
256
370
-1
  6
ByLayer
 10
1.0
 20
1199.4999999999997726
 30
0.0
 11
1001.0
 21
1199.4999999999997726
 31
0.0
  0
LINE
  5
292
100
AcDbEntity
100
AcDbLine
  8
help
 62
256
370
-1
  6
ByLayer
 10
1001.0
 20
1199.4999999999997726
 30
0.0
 11
1001.0
 21
1200.4999999999997726
 31
0.0
  0
LINE
  5
293
100
AcDbEntity
100
AcDbLine
  8
drawing
 62
256
370
-1
  6
ByLayer
 10
1001.0
 20
1200.4999999999997726
 30
0.0
 11
1001.0
 21
1199.4999999999997726
 31
0.0
  0
LINE
  5
294
100
AcDbEntity
100
AcDbLine
  8
drawing
 62
256
370
-1
  6
ByLayer
 10
1001.0
 20
1199.4999999999997726
 30
0.0
 11
1001.0
 21
1200.4999999999997726
 31
0.0
  0
LINE
  5
295
100
AcDbEntity
100
AcDbLine
  8
drawing
 62
256
370
-1
  6
ByLayer
 10
1001.0
 20
1200.4999999999997726
 30
0.0
 11
1.0
 21
1200.4999999999997726
 31
0.0
  0
LINE
  5
296
100
AcDbEntity
100
AcDbLine
  8
drawing
 62
256
370
-1
  6
ByLayer
 10
1.0
 20
1199.4999999999997726
 30
0.0
 11
1.0
 21
1200.4999999999997726
 31
0.0
  0
LINE
  5
297
100
AcDbEntity
100
AcDbLine
  8
drawing
 62
256
370
-1
  6
ByLayer
 10
-15.0
 20
1205.4999999999997726
 30
0.0
 11
-15.0
 21
1204.4999999999997726
 31
0.0
  0
LINE
  5
298
100
AcDbEntity
100
AcDbLine
  8
drawing
 62
256
370
-1
  6
ByLayer
 10
1.0
 20
1199.4999999999997726
 30
0.0
 11
1.0
 21
1199.4999999999997726
 31
0.0
  0
LINE
  5
299
100
AcDbEntity
100
AcDbLine
  8
drawing
 62
256
370
-1
  6
ByLayer
 10
1.0
 20
1200.4999999999997726
 30
0.0
 11
0.2360679774998005
 21
1200.4999999999997726
 31
0.0
  0
ARC
  5
29A
100
AcDbEntity
  8
drawing
 62
256
370
-1
  6
ByLayer
100
AcDbCircle
 10
0.2360679774998005
 20
1201.4999999999997726
 30
0.0
 40
1.0
100
AcDbArc
 50
243.4349488229220526
 51
270.0
  0
LINE
  5
29B
100
AcDbEntity
100
AcDbLine
  8
drawing
 62
256
370
-1
  6
ByLayer
 10
0.2360679774998005
 20
1199.4999999999997726
 30
0.0
 11
1.0
 21
1199.4999999999997726
 31
0.0
  0
ARC
  5
29C
100
AcDbEntity
  8
drawing
 62
256
370
-1
  6
ByLayer
100
AcDbCircle
 10
0.2360679774998005
 20
1200.4999999999997726
 30
0.0
 40
1.0
100
AcDbArc
 50
243.4349488229219958
 51
270.0
  0
LINE
  5
29D
100
AcDbEntity
100
AcDbLine
  8
drawing
 62
256
370
-1
  6
ByLayer
 10
-0.2111456180001596
 20
1200.6055728089997956
 30
0.0
 11
-9.7888543819998404
 21
1205.3944271909997497
 31
0.0
  0
LINE
  5
29E
100
AcDbEntity
100
AcDbLine
  8
drawing
 62
256
370
-1
  6
ByLayer
 10
-10.2360679774998005
 20
1205.4999999999997726
 30
0.0
 11
-15.0
 21
1205.4999999999997726
 31
0.0
  0
ARC
  5
29F
100
AcDbEntity
  8
drawing
 62
256
370
-1
  6
ByLayer
100
AcDbCircle
 10
-10.2360679774998005
 20
1204.4999999999997726
 30
0.0
 40
1.0
100
AcDbArc
 50
63.4349488229219176
 51
90.0
  0
LINE
  5
2A0
100
AcDbEntity
100
AcDbLine
  8
drawing
 62
256
370
-1
  6
ByLayer
 10
-9.7888543819998404
 20
1204.3944271909997497
 30
0.0
 11
-0.2111456180001596
 21
1199.6055728089997956
 31
0.0
  0
LINE
  5
2A1
100
AcDbEntity
100
AcDbLine
  8
drawing
 62
256
370
-1
  6
ByLayer
 10
-15.0
 20
1204.4999999999997726
 30
0.0
 11
-10.2360679774998005
 21
1204.4999999999997726
 31
0.0
  0
ARC
  5
2A2
100
AcDbEntity
  8
drawing
 62
256
370
-1
  6
ByLayer
100
AcDbCircle
 10
-10.2360679774998005
 20
1203.4999999999997726
 30
0.0
 40
1.0
100
AcDbArc
 50
63.43494882292201
 51
90.0000000000000995
  0
LINE
  5
2A3
100
AcDbEntity
100
AcDbLine
  8
add
 62
256
370
-1
  6
ByLayer
 10
1.0
 20
1199.4999999999997726
 30
0.0
 11
1.0
 21
1199.4999999999997726
 31
0.0
  0
LINE
  5
2A4
100
AcDbEntity
100
AcDbLine
  8
drawing
 62
256
370
-1
  6
ByLayer
 10
1.0
 20
1200.4999999999997726
 30
0.0
 11
0.2360679999999995
 21
1200.4999999999997726
 31
0.0
  0
ARC
  5
2A5
100
AcDbEntity
  8
drawing
 62
256
370
-1
  6
ByLayer
100
AcDbCircle
 10
0.2360679999999995
 20
1199.4999999999997726
 30
0.0
 40
1.0
100
AcDbArc
 50
90.0
 51
116.5649999999999977
  0
LINE
  5
2A6
100
AcDbEntity
100
AcDbLine
  8
drawing
 62
256
370
-1
  6
ByLayer
 10
-0.2111500000000035
 20
1200.3939999999997781
 30
0.0
 11
-9.7888999999999982
 21
1195.6059999999997672
 31
0.0
  0
ARC
  5
2A7
100
AcDbEntity
  8
drawing
 62
256
370
-1
  6
ByLayer
100
AcDbCircle
 10
-10.2361000000000004
 20
1196.4999999999997726
 30
0.0
 40
1.0
100
AcDbArc
 50
270.0
 51
296.5649999999999977
  0
LINE
  5
2A8
100
AcDbEntity
100
AcDbLine
  8
drawing
 62
256
370
-1
  6
ByLayer
 10
-10.2361000000000004
 20
1195.4999999999997726
 30
0.0
 11
-15.0
 21
1195.4999999999997726
 31
0.0
  0
LINE
  5
2A9
100
AcDbEntity
100
AcDbLine
  8
drawing
 62
256
370
-1
  6
ByLayer
 10
-15.0
 20
1195.4999999999997726
 30
0.0
 11
-15.0
 21
1194.4999999999997726
 31
0.0
  0
LINE
  5
2AA
100
AcDbEntity
100
AcDbLine
  8
drawing
 62
256
370
-1
  6
ByLayer
 10
-15.0
 20
1194.4999999999997726
 30
0.0
 11
-10.2361000000000004
 21
1194.4999999999997726
 31
0.0
  0
ARC
  5
2AB
100
AcDbEntity
  8
drawing
 62
256
370
-1
  6
ByLayer
100
AcDbCircle
 10
-10.2361000000000004
 20
1195.4999999999997726
 30
0.0
 40
1.0
100
AcDbArc
 50
270.0
 51
296.5649999999999977
  0
LINE
  5
2AC
100
AcDbEntity
100
AcDbLine
  8
drawing
 62
256
370
-1
  6
ByLayer
 10
-9.7888999999999982
 20
1194.6059999999997672
 30
0.0
 11
-0.2111500000000035
 21
1199.3939999999997781
 31
0.0
  0
ARC
  5
2AD
100
AcDbEntity
  8
drawing
 62
256
370
-1
  6
ByLayer
100
AcDbCircle
 10
0.2360679999999995
 20
1198.4999999999997726
 30
0.0
 40
1.0
100
AcDbArc
 50
90.0
 51
116.5649999999999977
  0
LINE
  5
2AE
100
AcDbEntity
100
AcDbLine
  8
drawing
 62
256
370
-1
  6
ByLayer
 10
0.2360679999999995
 20
1199.4999999999997726
 30
0.0
 11
1.0
 21
1199.4999999999997726
 31
0.0
  0
LINE
  5
2AF
100
AcDbEntity
100
AcDbLine
  8
drawing
 62
256
370
-1
  6
ByLayer
 10
1017.0
 20
1204.4999999999997726
 30
0.0
 11
1017.0
 21
1205.4999999999997726
 31
0.0
  0
LINE
  5
2B0
100
AcDbEntity
100
AcDbLine
  8
drawing
 62
256
370
-1
  6
ByLayer
 10
1001.0
 20
1200.4999999999997726
 30
0.0
 11
1001.0
 21
1200.4999999999997726
 31
0.0
  0
LINE
  5
2B1
100
AcDbEntity
100
AcDbLine
  8
drawing
 62
256
370
-1
  6
ByLayer
 10
1001.7639320225001711
 20
1200.4999999999997726
 30
0.0
 11
1001.0
 21
1200.4999999999997726
 31
0.0
  0
ARC
  5
2B2
100
AcDbEntity
  8
drawing
 62
256
370
-1
  6
ByLayer
100
AcDbCircle
 10
1001.7639320225001711
 20
1201.4999999999997726
 30
0.0
 40
1.0
100
AcDbArc
 50
270.0
 51
296.5650511770794537
  0
LINE
  5
2B3
100
AcDbEntity
100
AcDbLine
  8
drawing
 62
256
370
-1
  6
ByLayer
 10
1001.0
 20
1199.4999999999997726
 30
0.0
 11
1001.7639320225001711
 21
1199.4999999999997726
 31
0.0
  0
ARC
  5
2B4
100
AcDbEntity
  8
drawing
 62
256
370
-1
  6
ByLayer
100
AcDbCircle
 10
1001.7639320225001711
 20
1200.4999999999997726
 30
0.0
 40
1.0
100
AcDbArc
 50
270.0
 51
296.5650511770794537
  0
LINE
  5
2B5
100
AcDbEntity
100
AcDbLine
  8
drawing
 62
256
370
-1
  6
ByLayer
 10
1011.7888543819998404
 20
1205.3944271909997497
 30
0.0
 11
1002.2111456180001596
 21
1200.6055728089997956
 31
0.0
  0
LINE
  5
2B6
100
AcDbEntity
100
AcDbLine
  8
drawing
 62
256
370
-1
  6
ByLayer
 10
1017.0
 20
1205.4999999999997726
 30
0.0
 11
1012.2360679774998289
 21
1205.4999999999997726
 31
0.0
  0
ARC
  5
2B7
100
AcDbEntity
  8
drawing
 62
256
370
-1
  6
ByLayer
100
AcDbCircle
 10
1012.2360679774998289
 20
1204.4999999999997726
 30
0.0
 40
1.0
100
AcDbArc
 50
90.0
 51
116.5650511770794395
  0
LINE
  5
2B8
100
AcDbEntity
100
AcDbLine
  8
drawing
 62
256
370
-1
  6
ByLayer
 10
1002.2111456180001596
 20
1199.6055728089997956
 30
0.0
 11
1011.7888543819998404
 21
1204.3944271909997497
 31
0.0
  0
LINE
  5
2B9
100
AcDbEntity
100
AcDbLine
  8
drawing
 62
256
370
-1
  6
ByLayer
 10
1012.2360679774998289
 20
1204.4999999999997726
 30
0.0
 11
1017.0
 21
1204.4999999999997726
 31
0.0
  0
ARC
  5
2BA
100
AcDbEntity
  8
drawing
 62
256
370
-1
  6
ByLayer
100
AcDbCircle
 10
1012.2360679774998289
 20
1203.4999999999997726
 30
0.0
 40
1.0
100
AcDbArc
 50
90.0
 51
116.5650511770794395
  0
LINE
  5
2BB
100
AcDbEntity
100
AcDbLine
  8
add
 62
256
370
-1
  6
ByLayer
 10
1001.0
 20
1199.4999999999997726
 30
0.0
 11
1001.0
 21
1199.4999999999997726
 31
0.0
  0
LINE
  5
2BC
100
AcDbEntity
100
AcDbLine
  8
drawing
 62
256
370
-1
  6
ByLayer
 10
1012.2400000000000091
 20
1195.4999999999997726
 30
0.0
 11
1017.0
 21
1195.4999999999997726
 31
0.0
  0
LINE
  5
2BD
100
AcDbEntity
100
AcDbLine
  8
drawing
 62
256
370
-1
  6
ByLayer
 10
1017.0
 20
1194.4999999999997726
 30
0.0
 11
1012.2400000000000091
 21
1194.4999999999997726
 31
0.0
  0
LINE
  5
2BE
100
AcDbEntity
100
AcDbLine
  8
drawing
 62
256
370
-1
  6
ByLayer
 10
1017.0
 20
1195.4999999999997726
 30
0.0
 11
1017.0
 21
1194.4999999999997726
 31
0.0
  0
ARC
  5
2BF
100
AcDbEntity
  8
drawing
 62
256
370
-1
  6
ByLayer
100
AcDbCircle
 10
1012.2400000000000091
 20
1196.4999999999997726
 30
0.0
 40
1.0
100
AcDbArc
 50
243.4350000000000023
 51
270.0
  0
ARC
  5
2C0
100
AcDbEntity
  8
drawing
 62
256
370
-1
  6
ByLayer
100
AcDbCircle
 10
1012.2400000000000091
 20
1195.4999999999997726
 30
0.0
 40
1.0
100
AcDbArc
 50
243.4350000000000023
 51
270.0
  0
LINE
  5
2C1
100
AcDbEntity
100
AcDbLine
  8
drawing
 62
256
370
-1
  6
ByLayer
 10
1011.7899999999999636
 20
1194.6059999999997672
 30
0.0
 11
1002.2100000000000364
 21
1199.3939999999997781
 31
0.0
  0
LINE
  5
2C2
100
AcDbEntity
100
AcDbLine
  8
drawing
 62
256
370
-1
  6
ByLayer
 10
1002.2100000000000364
 20
1200.3939999999997781
 30
0.0
 11
1011.7899999999999636
 21
1195.6059999999997672
 31
0.0
  0
ARC
  5
2C3
100
AcDbEntity
  8
drawing
 62
256
370
-1
  6
ByLayer
100
AcDbCircle
 10
1001.7599999999999909
 20
1199.4999999999997726
 30
0.0
 40
1.0
100
AcDbArc
 50
63.434899999999999
 51
90.0
  0
ARC
  5
2C4
100
AcDbEntity
  8
drawing
 62
256
370
-1
  6
ByLayer
100
AcDbCircle
 10
1001.7599999999999909
 20
1198.4999999999997726
 30
0.0
 40
1.0
100
AcDbArc
 50
63.434899999999999
 51
90.0
  0
LINE
  5
2C5
100
AcDbEntity
100
AcDbLine
  8
drawing
 62
256
370
-1
  6
ByLayer
 10
1001.7599999999999909
 20
1199.4999999999997726
 30
0.0
 11
1001.0
 21
1199.4999999999997726
 31
0.0
  0
LINE
  5
2C6
100
AcDbEntity
100
AcDbLine
  8
drawing
 62
256
370
-1
  6
ByLayer
 10
1001.0
 20
1200.4999999999997726
 30
0.0
 11
1001.7599999999999909
 21
1200.4999999999997726
 31
0.0
  0
ENDSEC
  0
SECTION
  2
OBJECTS
  0
DICTIONARY
  5
C
100
AcDbDictionary
280
0
281
1
  3
ACAD_GROUP
350
D
  3
ACAD_LAYOUT
350
1A
  3
ACAD_MLINESTYLE
350
17
  3
ACAD_PLOTSETTINGS
350
19
  3
ACAD_PLOTSTYLENAME
350
E
  3
AcDbVariableDictionary
350
2C7
  0
DICTIONARY
  5
D
100
AcDbDictionary
280
0
281
1
  0
ACDBDICTIONARYWDFLT
  5
E
100
AcDbDictionary
281
1
  3
Normal
350
F
100
AcDbDictionaryWithDefault
340
F
  0
ACDBPLACEHOLDER
  5
F
  0
DICTIONARY
  5
17
100
AcDbDictionary
280
0
281
1
  3
Standard
350
18
  0
MLINESTYLE
  5
18
100
AcDbMlineStyle
  2
STANDARD
 70
0
  3

 62
256
 51
90.0
 52
90.0
 71
2
 49
0.5
 62
256
  6
BYLAYER
 49
-0.5
 62
256
  6
BYLAYER
  0
DICTIONARY
  5
19
100
AcDbDictionary
280
0
281
1
  0
DICTIONARY
  5
1A
100
AcDbDictionary
281
1
  3
Layout1
350
1E
  3
Layout2
350
26
  3
Model
350
22
  0
LAYOUT
  5
1E
100
AcDbPlotSettings
  1

  2
C:\Program Files\AutoCAD 2002\plotters\DWF ePlot (optimized for plotting).pc3
  4

  6

 40
0.0
 41
0.0
 42
0.0
 43
0.0
 44
0.0
 45
0.0
 46
0.0
 47
0.0
 48
0.0
 49
0.0
140
0.0
141
0.0
142
1.0
143
1.0
 70
688
 72
0
 73
0
 74
5
  7

 75
16
147
1.0
148
0.0
149
0.0
100
AcDbLayout
  1
Layout1
 70
1
 71
1
 10
0.0
 20
0.0
 11
420.0
 21
297.0
 12
0.0
 22
0.0
 32
0.0
 14
100000000000000000000.0
 24
100000000000000000000.0
 34
100000000000000000000.0
 15
-100000000000000000000.0
 25
-100000000000000000000.0
 35
-100000000000000000000.0
146
0.0
 13
0.0
 23
0.0
 33
0.0
 16
1.0
 26
0.0
 36
0.0
 17
0.0
 27
1.0
 37
0.0
 76
0
330
1B
  0
LAYOUT
  5
22
100
AcDbPlotSettings
  1

  2
C:\Program Files\AutoCAD 2002\plotters\DWF ePlot (optimized for plotting).pc3
  4

  6

 40
0.0
 41
0.0
 42
0.0
 43
0.0
 44
0.0
 45
0.0
 46
0.0
 47
0.0
 48
0.0
 49
0.0
140
0.0
141
0.0
142
1.0
143
1.0
 70
1712
 72
0
 73
0
 74
0
  7

 75
0
147
1.0
148
0.0
149
0.0
100
AcDbLayout
  1
Model
 70
1
 71
0
 10
0.0
 20
0.0
 11
12.0
 21
9.0
 12
0.0
 22
0.0
 32
0.0
 14
0.0
 24
0.0
 34
0.0
 15
0.0
 25
0.0
 35
0.0
146
0.0
 13
0.0
 23
0.0
 33
0.0
 16
1.0
 26
0.0
 36
0.0
 17
0.0
 27
1.0
 37
0.0
 76
0
330
1F
  0
LAYOUT
  5
26
100
AcDbPlotSettings
  1

  2
C:\Program Files\AutoCAD 2002\plotters\DWF ePlot (optimized for plotting).pc3
  4

  6

 40
0.0
 41
0.0
 42
0.0
 43
0.0
 44
0.0
 45
0.0
 46
0.0
 47
0.0
 48
0.0
 49
0.0
140
0.0
141
0.0
142
1.0
143
1.0
 70
688
 72
0
 73
0
 74
5
  7

 75
16
147
1.0
148
0.0
149
0.0
100
AcDbLayout
  1
Layout2
 70
1
 71
2
 10
0.0
 20
0.0
 11
12.0
 21
9.0
 12
0.0
 22
0.0
 32
0.0
 14
0.0
 24
0.0
 34
0.0
 15
0.0
 25
0.0
 35
0.0
146
0.0
 13
0.0
 23
0.0
 33
0.0
 16
1.0
 26
0.0
 36
0.0
 17
0.0
 27
1.0
 37
0.0
 76
0
330
23
  0
DICTIONARY
  5
2C7
100
AcDbDictionary
281
1
  3
DIMASSOC
350
2C9
  3
HIDETEXT
350
2C8
  0
DICTIONARYVAR
  5
2C8
100
DictionaryVariables
280
0
  1
2
  0
DICTIONARYVAR
  5
2C9
100
DictionaryVariables
280
0
  1
1
  0
ENDSEC
  0
EOF
