G75*
G70*
%OFA0B0*%
%FSLAX24Y24*%
%IPPOS*%
%LPD*%
%AMOC8*
5,1,8,0,0,1.08239X$1,22.5*
%
%ADD10C,0.0000*%
%ADD11C,0.0060*%
%ADD12C,0.0160*%
%ADD13C,0.0080*%
%ADD14C,0.0040*%
%ADD15C,0.0050*%
%ADD16C,0.0120*%
D10*
X000225Y000225D02*
X000225Y019910D01*
X039595Y019910D01*
X039595Y000225D01*
X000225Y000225D01*
X007055Y002784D02*
X007057Y002813D01*
X007063Y002841D01*
X007072Y002869D01*
X007085Y002895D01*
X007102Y002918D01*
X007121Y002940D01*
X007143Y002959D01*
X007168Y002974D01*
X007194Y002987D01*
X007222Y002995D01*
X007250Y003000D01*
X007279Y003001D01*
X007308Y002998D01*
X007336Y002991D01*
X007363Y002981D01*
X007389Y002967D01*
X007412Y002950D01*
X007433Y002930D01*
X007451Y002907D01*
X007466Y002882D01*
X007477Y002855D01*
X007485Y002827D01*
X007489Y002798D01*
X007489Y002770D01*
X007485Y002741D01*
X007477Y002713D01*
X007466Y002686D01*
X007451Y002661D01*
X007433Y002638D01*
X007412Y002618D01*
X007389Y002601D01*
X007363Y002587D01*
X007336Y002577D01*
X007308Y002570D01*
X007279Y002567D01*
X007250Y002568D01*
X007222Y002573D01*
X007194Y002581D01*
X007168Y002594D01*
X007143Y002609D01*
X007121Y002628D01*
X007102Y002650D01*
X007085Y002673D01*
X007072Y002699D01*
X007063Y002727D01*
X007057Y002755D01*
X007055Y002784D01*
X029174Y002800D02*
X029176Y002829D01*
X029182Y002857D01*
X029191Y002885D01*
X029204Y002911D01*
X029221Y002934D01*
X029240Y002956D01*
X029262Y002975D01*
X029287Y002990D01*
X029313Y003003D01*
X029341Y003011D01*
X029369Y003016D01*
X029398Y003017D01*
X029427Y003014D01*
X029455Y003007D01*
X029482Y002997D01*
X029508Y002983D01*
X029531Y002966D01*
X029552Y002946D01*
X029570Y002923D01*
X029585Y002898D01*
X029596Y002871D01*
X029604Y002843D01*
X029608Y002814D01*
X029608Y002786D01*
X029604Y002757D01*
X029596Y002729D01*
X029585Y002702D01*
X029570Y002677D01*
X029552Y002654D01*
X029531Y002634D01*
X029508Y002617D01*
X029482Y002603D01*
X029455Y002593D01*
X029427Y002586D01*
X029398Y002583D01*
X029369Y002584D01*
X029341Y002589D01*
X029313Y002597D01*
X029287Y002610D01*
X029262Y002625D01*
X029240Y002644D01*
X029221Y002666D01*
X029204Y002689D01*
X029191Y002715D01*
X029182Y002743D01*
X029176Y002771D01*
X029174Y002800D01*
X029176Y002829D01*
X029182Y002857D01*
X029191Y002885D01*
X029204Y002911D01*
X029221Y002934D01*
X029240Y002956D01*
X029262Y002975D01*
X029287Y002990D01*
X029313Y003003D01*
X029341Y003011D01*
X029369Y003016D01*
X029398Y003017D01*
X029427Y003014D01*
X029455Y003007D01*
X029482Y002997D01*
X029508Y002983D01*
X029531Y002966D01*
X029552Y002946D01*
X029570Y002923D01*
X029585Y002898D01*
X029596Y002871D01*
X029604Y002843D01*
X029608Y002814D01*
X029608Y002786D01*
X029604Y002757D01*
X029596Y002729D01*
X029585Y002702D01*
X029570Y002677D01*
X029552Y002654D01*
X029531Y002634D01*
X029508Y002617D01*
X029482Y002603D01*
X029455Y002593D01*
X029427Y002586D01*
X029398Y002583D01*
X029369Y002584D01*
X029341Y002589D01*
X029313Y002597D01*
X029287Y002610D01*
X029262Y002625D01*
X029240Y002644D01*
X029221Y002666D01*
X029204Y002689D01*
X029191Y002715D01*
X029182Y002743D01*
X029176Y002771D01*
X029174Y002800D01*
X033067Y002800D02*
X033069Y002829D01*
X033075Y002857D01*
X033084Y002885D01*
X033097Y002911D01*
X033114Y002934D01*
X033133Y002956D01*
X033155Y002975D01*
X033180Y002990D01*
X033206Y003003D01*
X033234Y003011D01*
X033262Y003016D01*
X033291Y003017D01*
X033320Y003014D01*
X033348Y003007D01*
X033375Y002997D01*
X033401Y002983D01*
X033424Y002966D01*
X033445Y002946D01*
X033463Y002923D01*
X033478Y002898D01*
X033489Y002871D01*
X033497Y002843D01*
X033501Y002814D01*
X033501Y002786D01*
X033497Y002757D01*
X033489Y002729D01*
X033478Y002702D01*
X033463Y002677D01*
X033445Y002654D01*
X033424Y002634D01*
X033401Y002617D01*
X033375Y002603D01*
X033348Y002593D01*
X033320Y002586D01*
X033291Y002583D01*
X033262Y002584D01*
X033234Y002589D01*
X033206Y002597D01*
X033180Y002610D01*
X033155Y002625D01*
X033133Y002644D01*
X033114Y002666D01*
X033097Y002689D01*
X033084Y002715D01*
X033075Y002743D01*
X033069Y002771D01*
X033067Y002800D01*
X033069Y002829D01*
X033075Y002857D01*
X033084Y002885D01*
X033097Y002911D01*
X033114Y002934D01*
X033133Y002956D01*
X033155Y002975D01*
X033180Y002990D01*
X033206Y003003D01*
X033234Y003011D01*
X033262Y003016D01*
X033291Y003017D01*
X033320Y003014D01*
X033348Y003007D01*
X033375Y002997D01*
X033401Y002983D01*
X033424Y002966D01*
X033445Y002946D01*
X033463Y002923D01*
X033478Y002898D01*
X033489Y002871D01*
X033497Y002843D01*
X033501Y002814D01*
X033501Y002786D01*
X033497Y002757D01*
X033489Y002729D01*
X033478Y002702D01*
X033463Y002677D01*
X033445Y002654D01*
X033424Y002634D01*
X033401Y002617D01*
X033375Y002603D01*
X033348Y002593D01*
X033320Y002586D01*
X033291Y002583D01*
X033262Y002584D01*
X033234Y002589D01*
X033206Y002597D01*
X033180Y002610D01*
X033155Y002625D01*
X033133Y002644D01*
X033114Y002666D01*
X033097Y002689D01*
X033084Y002715D01*
X033075Y002743D01*
X033069Y002771D01*
X033067Y002800D01*
D11*
X036670Y001800D02*
X036672Y001873D01*
X036678Y001946D01*
X036688Y002018D01*
X036702Y002090D01*
X036719Y002161D01*
X036741Y002231D01*
X036766Y002300D01*
X036795Y002367D01*
X036827Y002432D01*
X036863Y002496D01*
X036903Y002558D01*
X036945Y002617D01*
X036991Y002674D01*
X037040Y002728D01*
X037092Y002780D01*
X037146Y002829D01*
X037203Y002875D01*
X037262Y002917D01*
X037324Y002957D01*
X037388Y002993D01*
X037453Y003025D01*
X037520Y003054D01*
X037589Y003079D01*
X037659Y003101D01*
X037730Y003118D01*
X037802Y003132D01*
X037874Y003142D01*
X037947Y003148D01*
X038020Y003150D01*
X038093Y003148D01*
X038166Y003142D01*
X038238Y003132D01*
X038310Y003118D01*
X038381Y003101D01*
X038451Y003079D01*
X038520Y003054D01*
X038587Y003025D01*
X038652Y002993D01*
X038716Y002957D01*
X038778Y002917D01*
X038837Y002875D01*
X038894Y002829D01*
X038948Y002780D01*
X039000Y002728D01*
X039049Y002674D01*
X039095Y002617D01*
X039137Y002558D01*
X039177Y002496D01*
X039213Y002432D01*
X039245Y002367D01*
X039274Y002300D01*
X039299Y002231D01*
X039321Y002161D01*
X039338Y002090D01*
X039352Y002018D01*
X039362Y001946D01*
X039368Y001873D01*
X039370Y001800D01*
X039368Y001727D01*
X039362Y001654D01*
X039352Y001582D01*
X039338Y001510D01*
X039321Y001439D01*
X039299Y001369D01*
X039274Y001300D01*
X039245Y001233D01*
X039213Y001168D01*
X039177Y001104D01*
X039137Y001042D01*
X039095Y000983D01*
X039049Y000926D01*
X039000Y000872D01*
X038948Y000820D01*
X038894Y000771D01*
X038837Y000725D01*
X038778Y000683D01*
X038716Y000643D01*
X038652Y000607D01*
X038587Y000575D01*
X038520Y000546D01*
X038451Y000521D01*
X038381Y000499D01*
X038310Y000482D01*
X038238Y000468D01*
X038166Y000458D01*
X038093Y000452D01*
X038020Y000450D01*
X037947Y000452D01*
X037874Y000458D01*
X037802Y000468D01*
X037730Y000482D01*
X037659Y000499D01*
X037589Y000521D01*
X037520Y000546D01*
X037453Y000575D01*
X037388Y000607D01*
X037324Y000643D01*
X037262Y000683D01*
X037203Y000725D01*
X037146Y000771D01*
X037092Y000820D01*
X037040Y000872D01*
X036991Y000926D01*
X036945Y000983D01*
X036903Y001042D01*
X036863Y001104D01*
X036827Y001168D01*
X036795Y001233D01*
X036766Y001300D01*
X036741Y001369D01*
X036719Y001439D01*
X036702Y001510D01*
X036688Y001582D01*
X036678Y001654D01*
X036672Y001727D01*
X036670Y001800D01*
X031981Y010098D02*
X031981Y010738D01*
X031554Y010738D02*
X031981Y010098D01*
X031554Y010098D02*
X031554Y010738D01*
X031751Y013838D02*
X032178Y013838D01*
X031751Y013838D02*
X031751Y014478D01*
X035688Y016307D02*
X035795Y016200D01*
X036009Y016200D01*
X036115Y016307D01*
X036115Y016734D01*
X036009Y016841D01*
X035795Y016841D01*
X035688Y016734D01*
X035688Y016307D01*
X036333Y016307D02*
X036440Y016200D01*
X036653Y016200D01*
X036760Y016307D01*
X036760Y016841D01*
X036977Y016841D02*
X037404Y016841D01*
X037191Y016841D02*
X037191Y016200D01*
X036333Y016307D02*
X036333Y016841D01*
X036670Y018335D02*
X036672Y018408D01*
X036678Y018481D01*
X036688Y018553D01*
X036702Y018625D01*
X036719Y018696D01*
X036741Y018766D01*
X036766Y018835D01*
X036795Y018902D01*
X036827Y018967D01*
X036863Y019031D01*
X036903Y019093D01*
X036945Y019152D01*
X036991Y019209D01*
X037040Y019263D01*
X037092Y019315D01*
X037146Y019364D01*
X037203Y019410D01*
X037262Y019452D01*
X037324Y019492D01*
X037388Y019528D01*
X037453Y019560D01*
X037520Y019589D01*
X037589Y019614D01*
X037659Y019636D01*
X037730Y019653D01*
X037802Y019667D01*
X037874Y019677D01*
X037947Y019683D01*
X038020Y019685D01*
X038093Y019683D01*
X038166Y019677D01*
X038238Y019667D01*
X038310Y019653D01*
X038381Y019636D01*
X038451Y019614D01*
X038520Y019589D01*
X038587Y019560D01*
X038652Y019528D01*
X038716Y019492D01*
X038778Y019452D01*
X038837Y019410D01*
X038894Y019364D01*
X038948Y019315D01*
X039000Y019263D01*
X039049Y019209D01*
X039095Y019152D01*
X039137Y019093D01*
X039177Y019031D01*
X039213Y018967D01*
X039245Y018902D01*
X039274Y018835D01*
X039299Y018766D01*
X039321Y018696D01*
X039338Y018625D01*
X039352Y018553D01*
X039362Y018481D01*
X039368Y018408D01*
X039370Y018335D01*
X039368Y018262D01*
X039362Y018189D01*
X039352Y018117D01*
X039338Y018045D01*
X039321Y017974D01*
X039299Y017904D01*
X039274Y017835D01*
X039245Y017768D01*
X039213Y017703D01*
X039177Y017639D01*
X039137Y017577D01*
X039095Y017518D01*
X039049Y017461D01*
X039000Y017407D01*
X038948Y017355D01*
X038894Y017306D01*
X038837Y017260D01*
X038778Y017218D01*
X038716Y017178D01*
X038652Y017142D01*
X038587Y017110D01*
X038520Y017081D01*
X038451Y017056D01*
X038381Y017034D01*
X038310Y017017D01*
X038238Y017003D01*
X038166Y016993D01*
X038093Y016987D01*
X038020Y016985D01*
X037947Y016987D01*
X037874Y016993D01*
X037802Y017003D01*
X037730Y017017D01*
X037659Y017034D01*
X037589Y017056D01*
X037520Y017081D01*
X037453Y017110D01*
X037388Y017142D01*
X037324Y017178D01*
X037262Y017218D01*
X037203Y017260D01*
X037146Y017306D01*
X037092Y017355D01*
X037040Y017407D01*
X036991Y017461D01*
X036945Y017518D01*
X036903Y017577D01*
X036863Y017639D01*
X036827Y017703D01*
X036795Y017768D01*
X036766Y017835D01*
X036741Y017904D01*
X036719Y017974D01*
X036702Y018045D01*
X036688Y018117D01*
X036678Y018189D01*
X036672Y018262D01*
X036670Y018335D01*
X008438Y013641D02*
X008011Y013641D01*
X008011Y014282D01*
X004262Y016200D02*
X004262Y016841D01*
X003835Y016841D02*
X004262Y016200D01*
X003835Y016200D02*
X003835Y016841D01*
X003618Y016841D02*
X003405Y016841D01*
X003512Y016841D02*
X003512Y016200D01*
X003618Y016200D02*
X003405Y016200D01*
X000450Y018335D02*
X000452Y018408D01*
X000458Y018481D01*
X000468Y018553D01*
X000482Y018625D01*
X000499Y018696D01*
X000521Y018766D01*
X000546Y018835D01*
X000575Y018902D01*
X000607Y018967D01*
X000643Y019031D01*
X000683Y019093D01*
X000725Y019152D01*
X000771Y019209D01*
X000820Y019263D01*
X000872Y019315D01*
X000926Y019364D01*
X000983Y019410D01*
X001042Y019452D01*
X001104Y019492D01*
X001168Y019528D01*
X001233Y019560D01*
X001300Y019589D01*
X001369Y019614D01*
X001439Y019636D01*
X001510Y019653D01*
X001582Y019667D01*
X001654Y019677D01*
X001727Y019683D01*
X001800Y019685D01*
X001873Y019683D01*
X001946Y019677D01*
X002018Y019667D01*
X002090Y019653D01*
X002161Y019636D01*
X002231Y019614D01*
X002300Y019589D01*
X002367Y019560D01*
X002432Y019528D01*
X002496Y019492D01*
X002558Y019452D01*
X002617Y019410D01*
X002674Y019364D01*
X002728Y019315D01*
X002780Y019263D01*
X002829Y019209D01*
X002875Y019152D01*
X002917Y019093D01*
X002957Y019031D01*
X002993Y018967D01*
X003025Y018902D01*
X003054Y018835D01*
X003079Y018766D01*
X003101Y018696D01*
X003118Y018625D01*
X003132Y018553D01*
X003142Y018481D01*
X003148Y018408D01*
X003150Y018335D01*
X003148Y018262D01*
X003142Y018189D01*
X003132Y018117D01*
X003118Y018045D01*
X003101Y017974D01*
X003079Y017904D01*
X003054Y017835D01*
X003025Y017768D01*
X002993Y017703D01*
X002957Y017639D01*
X002917Y017577D01*
X002875Y017518D01*
X002829Y017461D01*
X002780Y017407D01*
X002728Y017355D01*
X002674Y017306D01*
X002617Y017260D01*
X002558Y017218D01*
X002496Y017178D01*
X002432Y017142D01*
X002367Y017110D01*
X002300Y017081D01*
X002231Y017056D01*
X002161Y017034D01*
X002090Y017017D01*
X002018Y017003D01*
X001946Y016993D01*
X001873Y016987D01*
X001800Y016985D01*
X001727Y016987D01*
X001654Y016993D01*
X001582Y017003D01*
X001510Y017017D01*
X001439Y017034D01*
X001369Y017056D01*
X001300Y017081D01*
X001233Y017110D01*
X001168Y017142D01*
X001104Y017178D01*
X001042Y017218D01*
X000983Y017260D01*
X000926Y017306D01*
X000872Y017355D01*
X000820Y017407D01*
X000771Y017461D01*
X000725Y017518D01*
X000683Y017577D01*
X000643Y017639D01*
X000607Y017703D01*
X000575Y017768D01*
X000546Y017835D01*
X000521Y017904D01*
X000499Y017974D01*
X000482Y018045D01*
X000468Y018117D01*
X000458Y018189D01*
X000452Y018262D01*
X000450Y018335D01*
X008011Y010541D02*
X008438Y009901D01*
X008438Y010541D01*
X008011Y010541D02*
X008011Y009901D01*
X000450Y001800D02*
X000452Y001873D01*
X000458Y001946D01*
X000468Y002018D01*
X000482Y002090D01*
X000499Y002161D01*
X000521Y002231D01*
X000546Y002300D01*
X000575Y002367D01*
X000607Y002432D01*
X000643Y002496D01*
X000683Y002558D01*
X000725Y002617D01*
X000771Y002674D01*
X000820Y002728D01*
X000872Y002780D01*
X000926Y002829D01*
X000983Y002875D01*
X001042Y002917D01*
X001104Y002957D01*
X001168Y002993D01*
X001233Y003025D01*
X001300Y003054D01*
X001369Y003079D01*
X001439Y003101D01*
X001510Y003118D01*
X001582Y003132D01*
X001654Y003142D01*
X001727Y003148D01*
X001800Y003150D01*
X001873Y003148D01*
X001946Y003142D01*
X002018Y003132D01*
X002090Y003118D01*
X002161Y003101D01*
X002231Y003079D01*
X002300Y003054D01*
X002367Y003025D01*
X002432Y002993D01*
X002496Y002957D01*
X002558Y002917D01*
X002617Y002875D01*
X002674Y002829D01*
X002728Y002780D01*
X002780Y002728D01*
X002829Y002674D01*
X002875Y002617D01*
X002917Y002558D01*
X002957Y002496D01*
X002993Y002432D01*
X003025Y002367D01*
X003054Y002300D01*
X003079Y002231D01*
X003101Y002161D01*
X003118Y002090D01*
X003132Y002018D01*
X003142Y001946D01*
X003148Y001873D01*
X003150Y001800D01*
X003148Y001727D01*
X003142Y001654D01*
X003132Y001582D01*
X003118Y001510D01*
X003101Y001439D01*
X003079Y001369D01*
X003054Y001300D01*
X003025Y001233D01*
X002993Y001168D01*
X002957Y001104D01*
X002917Y001042D01*
X002875Y000983D01*
X002829Y000926D01*
X002780Y000872D01*
X002728Y000820D01*
X002674Y000771D01*
X002617Y000725D01*
X002558Y000683D01*
X002496Y000643D01*
X002432Y000607D01*
X002367Y000575D01*
X002300Y000546D01*
X002231Y000521D01*
X002161Y000499D01*
X002090Y000482D01*
X002018Y000468D01*
X001946Y000458D01*
X001873Y000452D01*
X001800Y000450D01*
X001727Y000452D01*
X001654Y000458D01*
X001582Y000468D01*
X001510Y000482D01*
X001439Y000499D01*
X001369Y000521D01*
X001300Y000546D01*
X001233Y000575D01*
X001168Y000607D01*
X001104Y000643D01*
X001042Y000683D01*
X000983Y000725D01*
X000926Y000771D01*
X000872Y000820D01*
X000820Y000872D01*
X000771Y000926D01*
X000725Y000983D01*
X000683Y001042D01*
X000643Y001104D01*
X000607Y001168D01*
X000575Y001233D01*
X000546Y001300D01*
X000521Y001369D01*
X000499Y001439D01*
X000482Y001510D01*
X000468Y001582D01*
X000458Y001654D01*
X000452Y001727D01*
X000450Y001800D01*
D12*
X008118Y005603D02*
X008493Y005603D01*
X008868Y005603D01*
X008680Y005290D02*
X008305Y005290D01*
X008493Y005978D02*
X007868Y005978D01*
X008493Y005978D02*
X009118Y005978D01*
X008493Y005978D02*
X008493Y006540D01*
X008493Y006524D02*
X007509Y006524D01*
X030703Y005978D02*
X031328Y005978D01*
X031953Y005978D01*
X031703Y005603D02*
X031328Y005603D01*
X030953Y005603D01*
X031140Y005290D02*
X031515Y005290D01*
X031328Y005978D02*
X031328Y006540D01*
X031328Y006524D02*
X032312Y006524D01*
D13*
X033099Y007902D02*
X033099Y004753D01*
X039398Y004753D01*
X039398Y007902D01*
X033099Y007902D01*
X033099Y008493D02*
X039398Y008493D01*
X039398Y007902D01*
X039398Y008493D01*
X039398Y011643D01*
X033099Y011643D01*
X033099Y008493D01*
X035449Y009975D02*
X036429Y009889D01*
X036350Y008983D01*
X036742Y008948D01*
X036821Y009854D01*
X037802Y009769D01*
X037836Y010161D01*
X036856Y010247D01*
X036935Y011153D01*
X036543Y011187D01*
X036464Y010281D01*
X035483Y010367D01*
X035449Y009975D01*
X035462Y010068D02*
X035464Y010137D01*
X035470Y010205D01*
X035480Y010273D01*
X035494Y010340D01*
X035512Y010407D01*
X035533Y010472D01*
X035559Y010536D01*
X035588Y010598D01*
X035620Y010658D01*
X035656Y010717D01*
X035696Y010773D01*
X035738Y010827D01*
X035784Y010878D01*
X035833Y010927D01*
X035884Y010973D01*
X035938Y011015D01*
X035994Y011055D01*
X036052Y011091D01*
X036113Y011123D01*
X036175Y011152D01*
X036239Y011178D01*
X036304Y011199D01*
X036371Y011217D01*
X036438Y011231D01*
X036506Y011241D01*
X036574Y011247D01*
X036643Y011249D01*
X036712Y011247D01*
X036780Y011241D01*
X036848Y011231D01*
X036915Y011217D01*
X036982Y011199D01*
X037047Y011178D01*
X037111Y011152D01*
X037173Y011123D01*
X037233Y011091D01*
X037292Y011055D01*
X037348Y011015D01*
X037402Y010973D01*
X037453Y010927D01*
X037502Y010878D01*
X037548Y010827D01*
X037590Y010773D01*
X037630Y010717D01*
X037666Y010658D01*
X037698Y010598D01*
X037727Y010536D01*
X037753Y010472D01*
X037774Y010407D01*
X037792Y010340D01*
X037806Y010273D01*
X037816Y010205D01*
X037822Y010137D01*
X037824Y010068D01*
X037822Y009999D01*
X037816Y009931D01*
X037806Y009863D01*
X037792Y009796D01*
X037774Y009729D01*
X037753Y009664D01*
X037727Y009600D01*
X037698Y009538D01*
X037666Y009477D01*
X037630Y009419D01*
X037590Y009363D01*
X037548Y009309D01*
X037502Y009258D01*
X037453Y009209D01*
X037402Y009163D01*
X037348Y009121D01*
X037292Y009081D01*
X037234Y009045D01*
X037173Y009013D01*
X037111Y008984D01*
X037047Y008958D01*
X036982Y008937D01*
X036915Y008919D01*
X036848Y008905D01*
X036780Y008895D01*
X036712Y008889D01*
X036643Y008887D01*
X036574Y008889D01*
X036506Y008895D01*
X036438Y008905D01*
X036371Y008919D01*
X036304Y008937D01*
X036239Y008958D01*
X036175Y008984D01*
X036113Y009013D01*
X036052Y009045D01*
X035994Y009081D01*
X035938Y009121D01*
X035884Y009163D01*
X035833Y009209D01*
X035784Y009258D01*
X035738Y009309D01*
X035696Y009363D01*
X035656Y009419D01*
X035620Y009477D01*
X035588Y009538D01*
X035559Y009600D01*
X035533Y009664D01*
X035512Y009729D01*
X035494Y009796D01*
X035480Y009863D01*
X035470Y009931D01*
X035464Y009999D01*
X035462Y010068D01*
X039398Y011643D02*
X039398Y012233D01*
X033099Y012233D01*
X033099Y015383D01*
X039398Y015383D01*
X039398Y015973D01*
X032312Y015973D01*
X032312Y004162D01*
X039398Y004162D01*
X039398Y004753D01*
X037289Y005408D02*
X036904Y006232D01*
X037796Y006648D01*
X037630Y007005D01*
X036738Y006589D01*
X036353Y007414D01*
X035996Y007247D01*
X036381Y006423D01*
X035489Y006007D01*
X035655Y005650D01*
X036547Y006066D01*
X036932Y005241D01*
X037289Y005408D01*
X035462Y006328D02*
X035464Y006397D01*
X035470Y006465D01*
X035480Y006533D01*
X035494Y006600D01*
X035512Y006667D01*
X035533Y006732D01*
X035559Y006796D01*
X035588Y006858D01*
X035620Y006918D01*
X035656Y006977D01*
X035696Y007033D01*
X035738Y007087D01*
X035784Y007138D01*
X035833Y007187D01*
X035884Y007233D01*
X035938Y007275D01*
X035994Y007315D01*
X036052Y007351D01*
X036113Y007383D01*
X036175Y007412D01*
X036239Y007438D01*
X036304Y007459D01*
X036371Y007477D01*
X036438Y007491D01*
X036506Y007501D01*
X036574Y007507D01*
X036643Y007509D01*
X036712Y007507D01*
X036780Y007501D01*
X036848Y007491D01*
X036915Y007477D01*
X036982Y007459D01*
X037047Y007438D01*
X037111Y007412D01*
X037173Y007383D01*
X037233Y007351D01*
X037292Y007315D01*
X037348Y007275D01*
X037402Y007233D01*
X037453Y007187D01*
X037502Y007138D01*
X037548Y007087D01*
X037590Y007033D01*
X037630Y006977D01*
X037666Y006918D01*
X037698Y006858D01*
X037727Y006796D01*
X037753Y006732D01*
X037774Y006667D01*
X037792Y006600D01*
X037806Y006533D01*
X037816Y006465D01*
X037822Y006397D01*
X037824Y006328D01*
X037822Y006259D01*
X037816Y006191D01*
X037806Y006123D01*
X037792Y006056D01*
X037774Y005989D01*
X037753Y005924D01*
X037727Y005860D01*
X037698Y005798D01*
X037666Y005737D01*
X037630Y005679D01*
X037590Y005623D01*
X037548Y005569D01*
X037502Y005518D01*
X037453Y005469D01*
X037402Y005423D01*
X037348Y005381D01*
X037292Y005341D01*
X037234Y005305D01*
X037173Y005273D01*
X037111Y005244D01*
X037047Y005218D01*
X036982Y005197D01*
X036915Y005179D01*
X036848Y005165D01*
X036780Y005155D01*
X036712Y005149D01*
X036643Y005147D01*
X036574Y005149D01*
X036506Y005155D01*
X036438Y005165D01*
X036371Y005179D01*
X036304Y005197D01*
X036239Y005218D01*
X036175Y005244D01*
X036113Y005273D01*
X036052Y005305D01*
X035994Y005341D01*
X035938Y005381D01*
X035884Y005423D01*
X035833Y005469D01*
X035784Y005518D01*
X035738Y005569D01*
X035696Y005623D01*
X035656Y005679D01*
X035620Y005737D01*
X035588Y005798D01*
X035559Y005860D01*
X035533Y005924D01*
X035512Y005989D01*
X035494Y006056D01*
X035480Y006123D01*
X035470Y006191D01*
X035464Y006259D01*
X035462Y006328D01*
X035863Y003351D02*
X032930Y003351D01*
X032930Y001678D01*
X032930Y001461D01*
X032930Y001087D01*
X035233Y001087D01*
X035863Y001087D01*
X035863Y001461D01*
X035863Y001678D01*
X035863Y003351D01*
X037351Y001800D02*
X037353Y001851D01*
X037359Y001902D01*
X037369Y001952D01*
X037382Y002002D01*
X037400Y002050D01*
X037420Y002097D01*
X037445Y002142D01*
X037473Y002185D01*
X037504Y002226D01*
X037538Y002264D01*
X037575Y002299D01*
X037614Y002332D01*
X037656Y002362D01*
X037700Y002388D01*
X037746Y002410D01*
X037794Y002430D01*
X037843Y002445D01*
X037893Y002457D01*
X037943Y002465D01*
X037994Y002469D01*
X038046Y002469D01*
X038097Y002465D01*
X038147Y002457D01*
X038197Y002445D01*
X038246Y002430D01*
X038294Y002410D01*
X038340Y002388D01*
X038384Y002362D01*
X038426Y002332D01*
X038465Y002299D01*
X038502Y002264D01*
X038536Y002226D01*
X038567Y002185D01*
X038595Y002142D01*
X038620Y002097D01*
X038640Y002050D01*
X038658Y002002D01*
X038671Y001952D01*
X038681Y001902D01*
X038687Y001851D01*
X038689Y001800D01*
X038687Y001749D01*
X038681Y001698D01*
X038671Y001648D01*
X038658Y001598D01*
X038640Y001550D01*
X038620Y001503D01*
X038595Y001458D01*
X038567Y001415D01*
X038536Y001374D01*
X038502Y001336D01*
X038465Y001301D01*
X038426Y001268D01*
X038384Y001238D01*
X038340Y001212D01*
X038294Y001190D01*
X038246Y001170D01*
X038197Y001155D01*
X038147Y001143D01*
X038097Y001135D01*
X038046Y001131D01*
X037994Y001131D01*
X037943Y001135D01*
X037893Y001143D01*
X037843Y001155D01*
X037794Y001170D01*
X037746Y001190D01*
X037700Y001212D01*
X037656Y001238D01*
X037614Y001268D01*
X037575Y001301D01*
X037538Y001336D01*
X037504Y001374D01*
X037473Y001415D01*
X037445Y001458D01*
X037420Y001503D01*
X037400Y001550D01*
X037382Y001598D01*
X037369Y001648D01*
X037359Y001698D01*
X037353Y001749D01*
X037351Y001800D01*
X031969Y001678D02*
X031969Y001461D01*
X031969Y001087D01*
X031339Y001087D01*
X029036Y001087D01*
X029036Y001461D01*
X029036Y001678D01*
X029036Y003351D01*
X031969Y003351D01*
X031969Y001678D01*
X028186Y000619D02*
X028186Y003769D01*
X028186Y004556D01*
X021871Y004556D01*
X021871Y003769D01*
X021871Y000619D01*
X028186Y000619D01*
X028186Y004556D02*
X021871Y004556D01*
X019517Y004556D02*
X019517Y003769D01*
X019517Y000619D01*
X011643Y000619D01*
X011643Y003769D01*
X011643Y004556D01*
X019517Y004556D01*
X011643Y004556D01*
X010855Y003335D02*
X010855Y001662D01*
X010855Y001446D01*
X010855Y001072D01*
X009871Y001072D01*
X009221Y001072D01*
X007902Y001072D01*
X006918Y001072D01*
X006918Y001446D01*
X006918Y001662D01*
X006918Y003335D01*
X010855Y003335D01*
X007509Y004162D02*
X000422Y004162D01*
X000422Y004753D01*
X006721Y004753D01*
X006721Y007902D01*
X000422Y007902D01*
X000422Y008493D01*
X006721Y008493D01*
X006721Y011643D01*
X000422Y011643D01*
X000422Y012233D01*
X006721Y012233D01*
X006721Y015383D01*
X000422Y015383D01*
X000422Y012233D01*
X000422Y011643D01*
X000422Y008493D01*
X000422Y007902D01*
X000422Y004753D01*
X002532Y005408D02*
X002916Y006232D01*
X002024Y006648D01*
X002191Y007005D01*
X003083Y006589D01*
X003467Y007414D01*
X003824Y007247D01*
X003440Y006423D01*
X004332Y006007D01*
X004165Y005650D01*
X003273Y006066D01*
X002889Y005241D01*
X002532Y005408D01*
X001997Y006328D02*
X001999Y006397D01*
X002005Y006465D01*
X002015Y006533D01*
X002029Y006600D01*
X002047Y006667D01*
X002068Y006732D01*
X002094Y006796D01*
X002123Y006858D01*
X002155Y006918D01*
X002191Y006977D01*
X002231Y007033D01*
X002273Y007087D01*
X002319Y007138D01*
X002368Y007187D01*
X002419Y007233D01*
X002473Y007275D01*
X002529Y007315D01*
X002587Y007351D01*
X002648Y007383D01*
X002710Y007412D01*
X002774Y007438D01*
X002839Y007459D01*
X002906Y007477D01*
X002973Y007491D01*
X003041Y007501D01*
X003109Y007507D01*
X003178Y007509D01*
X003247Y007507D01*
X003315Y007501D01*
X003383Y007491D01*
X003450Y007477D01*
X003517Y007459D01*
X003582Y007438D01*
X003646Y007412D01*
X003708Y007383D01*
X003768Y007351D01*
X003827Y007315D01*
X003883Y007275D01*
X003937Y007233D01*
X003988Y007187D01*
X004037Y007138D01*
X004083Y007087D01*
X004125Y007033D01*
X004165Y006977D01*
X004201Y006918D01*
X004233Y006858D01*
X004262Y006796D01*
X004288Y006732D01*
X004309Y006667D01*
X004327Y006600D01*
X004341Y006533D01*
X004351Y006465D01*
X004357Y006397D01*
X004359Y006328D01*
X004357Y006259D01*
X004351Y006191D01*
X004341Y006123D01*
X004327Y006056D01*
X004309Y005989D01*
X004288Y005924D01*
X004262Y005860D01*
X004233Y005798D01*
X004201Y005737D01*
X004165Y005679D01*
X004125Y005623D01*
X004083Y005569D01*
X004037Y005518D01*
X003988Y005469D01*
X003937Y005423D01*
X003883Y005381D01*
X003827Y005341D01*
X003769Y005305D01*
X003708Y005273D01*
X003646Y005244D01*
X003582Y005218D01*
X003517Y005197D01*
X003450Y005179D01*
X003383Y005165D01*
X003315Y005155D01*
X003247Y005149D01*
X003178Y005147D01*
X003109Y005149D01*
X003041Y005155D01*
X002973Y005165D01*
X002906Y005179D01*
X002839Y005197D01*
X002774Y005218D01*
X002710Y005244D01*
X002648Y005273D01*
X002587Y005305D01*
X002529Y005341D01*
X002473Y005381D01*
X002419Y005423D01*
X002368Y005469D01*
X002319Y005518D01*
X002273Y005569D01*
X002231Y005623D01*
X002191Y005679D01*
X002155Y005737D01*
X002123Y005798D01*
X002094Y005860D01*
X002068Y005924D01*
X002047Y005989D01*
X002029Y006056D01*
X002015Y006123D01*
X002005Y006191D01*
X001999Y006259D01*
X001997Y006328D01*
X002885Y008983D02*
X002965Y009889D01*
X001984Y009975D01*
X002019Y010367D01*
X002999Y010281D01*
X003078Y011187D01*
X003470Y011153D01*
X003391Y010247D01*
X004372Y010161D01*
X004337Y009769D01*
X003357Y009854D01*
X003278Y008948D01*
X002885Y008983D01*
X001997Y010068D02*
X001999Y010137D01*
X002005Y010205D01*
X002015Y010273D01*
X002029Y010340D01*
X002047Y010407D01*
X002068Y010472D01*
X002094Y010536D01*
X002123Y010598D01*
X002155Y010658D01*
X002191Y010717D01*
X002231Y010773D01*
X002273Y010827D01*
X002319Y010878D01*
X002368Y010927D01*
X002419Y010973D01*
X002473Y011015D01*
X002529Y011055D01*
X002587Y011091D01*
X002648Y011123D01*
X002710Y011152D01*
X002774Y011178D01*
X002839Y011199D01*
X002906Y011217D01*
X002973Y011231D01*
X003041Y011241D01*
X003109Y011247D01*
X003178Y011249D01*
X003247Y011247D01*
X003315Y011241D01*
X003383Y011231D01*
X003450Y011217D01*
X003517Y011199D01*
X003582Y011178D01*
X003646Y011152D01*
X003708Y011123D01*
X003768Y011091D01*
X003827Y011055D01*
X003883Y011015D01*
X003937Y010973D01*
X003988Y010927D01*
X004037Y010878D01*
X004083Y010827D01*
X004125Y010773D01*
X004165Y010717D01*
X004201Y010658D01*
X004233Y010598D01*
X004262Y010536D01*
X004288Y010472D01*
X004309Y010407D01*
X004327Y010340D01*
X004341Y010273D01*
X004351Y010205D01*
X004357Y010137D01*
X004359Y010068D01*
X004357Y009999D01*
X004351Y009931D01*
X004341Y009863D01*
X004327Y009796D01*
X004309Y009729D01*
X004288Y009664D01*
X004262Y009600D01*
X004233Y009538D01*
X004201Y009477D01*
X004165Y009419D01*
X004125Y009363D01*
X004083Y009309D01*
X004037Y009258D01*
X003988Y009209D01*
X003937Y009163D01*
X003883Y009121D01*
X003827Y009081D01*
X003769Y009045D01*
X003708Y009013D01*
X003646Y008984D01*
X003582Y008958D01*
X003517Y008937D01*
X003450Y008919D01*
X003383Y008905D01*
X003315Y008895D01*
X003247Y008889D01*
X003178Y008887D01*
X003109Y008889D01*
X003041Y008895D01*
X002973Y008905D01*
X002906Y008919D01*
X002839Y008937D01*
X002774Y008958D01*
X002710Y008984D01*
X002648Y009013D01*
X002587Y009045D01*
X002529Y009081D01*
X002473Y009121D01*
X002419Y009163D01*
X002368Y009209D01*
X002319Y009258D01*
X002273Y009309D01*
X002231Y009363D01*
X002191Y009419D01*
X002155Y009477D01*
X002123Y009538D01*
X002094Y009600D01*
X002068Y009664D01*
X002047Y009729D01*
X002029Y009796D01*
X002015Y009863D01*
X002005Y009931D01*
X001999Y009999D01*
X001997Y010068D01*
X003467Y012722D02*
X003083Y013546D01*
X002191Y013130D01*
X002024Y013487D01*
X002916Y013903D01*
X002532Y014728D01*
X002889Y014894D01*
X003273Y014069D01*
X004165Y014485D01*
X004332Y014129D01*
X003440Y013713D01*
X003824Y012888D01*
X003467Y012722D01*
X001997Y013808D02*
X001999Y013877D01*
X002005Y013945D01*
X002015Y014013D01*
X002029Y014080D01*
X002047Y014147D01*
X002068Y014212D01*
X002094Y014276D01*
X002123Y014338D01*
X002155Y014398D01*
X002191Y014457D01*
X002231Y014513D01*
X002273Y014567D01*
X002319Y014618D01*
X002368Y014667D01*
X002419Y014713D01*
X002473Y014755D01*
X002529Y014795D01*
X002587Y014831D01*
X002648Y014863D01*
X002710Y014892D01*
X002774Y014918D01*
X002839Y014939D01*
X002906Y014957D01*
X002973Y014971D01*
X003041Y014981D01*
X003109Y014987D01*
X003178Y014989D01*
X003247Y014987D01*
X003315Y014981D01*
X003383Y014971D01*
X003450Y014957D01*
X003517Y014939D01*
X003582Y014918D01*
X003646Y014892D01*
X003708Y014863D01*
X003768Y014831D01*
X003827Y014795D01*
X003883Y014755D01*
X003937Y014713D01*
X003988Y014667D01*
X004037Y014618D01*
X004083Y014567D01*
X004125Y014513D01*
X004165Y014457D01*
X004201Y014398D01*
X004233Y014338D01*
X004262Y014276D01*
X004288Y014212D01*
X004309Y014147D01*
X004327Y014080D01*
X004341Y014013D01*
X004351Y013945D01*
X004357Y013877D01*
X004359Y013808D01*
X004357Y013739D01*
X004351Y013671D01*
X004341Y013603D01*
X004327Y013536D01*
X004309Y013469D01*
X004288Y013404D01*
X004262Y013340D01*
X004233Y013278D01*
X004201Y013217D01*
X004165Y013159D01*
X004125Y013103D01*
X004083Y013049D01*
X004037Y012998D01*
X003988Y012949D01*
X003937Y012903D01*
X003883Y012861D01*
X003827Y012821D01*
X003769Y012785D01*
X003708Y012753D01*
X003646Y012724D01*
X003582Y012698D01*
X003517Y012677D01*
X003450Y012659D01*
X003383Y012645D01*
X003315Y012635D01*
X003247Y012629D01*
X003178Y012627D01*
X003109Y012629D01*
X003041Y012635D01*
X002973Y012645D01*
X002906Y012659D01*
X002839Y012677D01*
X002774Y012698D01*
X002710Y012724D01*
X002648Y012753D01*
X002587Y012785D01*
X002529Y012821D01*
X002473Y012861D01*
X002419Y012903D01*
X002368Y012949D01*
X002319Y012998D01*
X002273Y013049D01*
X002231Y013103D01*
X002191Y013159D01*
X002155Y013217D01*
X002123Y013278D01*
X002094Y013340D01*
X002068Y013404D01*
X002047Y013469D01*
X002029Y013536D01*
X002015Y013603D01*
X002005Y013671D01*
X001999Y013739D01*
X001997Y013808D01*
X000422Y015383D02*
X000422Y015973D01*
X007509Y015973D01*
X007509Y004162D01*
X001131Y001800D02*
X001133Y001851D01*
X001139Y001902D01*
X001149Y001952D01*
X001162Y002002D01*
X001180Y002050D01*
X001200Y002097D01*
X001225Y002142D01*
X001253Y002185D01*
X001284Y002226D01*
X001318Y002264D01*
X001355Y002299D01*
X001394Y002332D01*
X001436Y002362D01*
X001480Y002388D01*
X001526Y002410D01*
X001574Y002430D01*
X001623Y002445D01*
X001673Y002457D01*
X001723Y002465D01*
X001774Y002469D01*
X001826Y002469D01*
X001877Y002465D01*
X001927Y002457D01*
X001977Y002445D01*
X002026Y002430D01*
X002074Y002410D01*
X002120Y002388D01*
X002164Y002362D01*
X002206Y002332D01*
X002245Y002299D01*
X002282Y002264D01*
X002316Y002226D01*
X002347Y002185D01*
X002375Y002142D01*
X002400Y002097D01*
X002420Y002050D01*
X002438Y002002D01*
X002451Y001952D01*
X002461Y001902D01*
X002467Y001851D01*
X002469Y001800D01*
X002467Y001749D01*
X002461Y001698D01*
X002451Y001648D01*
X002438Y001598D01*
X002420Y001550D01*
X002400Y001503D01*
X002375Y001458D01*
X002347Y001415D01*
X002316Y001374D01*
X002282Y001336D01*
X002245Y001301D01*
X002206Y001268D01*
X002164Y001238D01*
X002120Y001212D01*
X002074Y001190D01*
X002026Y001170D01*
X001977Y001155D01*
X001927Y001143D01*
X001877Y001135D01*
X001826Y001131D01*
X001774Y001131D01*
X001723Y001135D01*
X001673Y001143D01*
X001623Y001155D01*
X001574Y001170D01*
X001526Y001190D01*
X001480Y001212D01*
X001436Y001238D01*
X001394Y001268D01*
X001355Y001301D01*
X001318Y001336D01*
X001284Y001374D01*
X001253Y001415D01*
X001225Y001458D01*
X001200Y001503D01*
X001180Y001550D01*
X001162Y001598D01*
X001149Y001648D01*
X001139Y001698D01*
X001133Y001749D01*
X001131Y001800D01*
X006918Y001072D02*
X007902Y001072D01*
X009871Y001072D01*
X010855Y001072D01*
X035996Y012888D02*
X036353Y012722D01*
X036738Y013546D01*
X037630Y013130D01*
X037796Y013487D01*
X036904Y013903D01*
X037289Y014728D01*
X036932Y014894D01*
X036547Y014069D01*
X035655Y014485D01*
X035489Y014129D01*
X036381Y013713D01*
X035996Y012888D01*
X035462Y013808D02*
X035464Y013877D01*
X035470Y013945D01*
X035480Y014013D01*
X035494Y014080D01*
X035512Y014147D01*
X035533Y014212D01*
X035559Y014276D01*
X035588Y014338D01*
X035620Y014398D01*
X035656Y014457D01*
X035696Y014513D01*
X035738Y014567D01*
X035784Y014618D01*
X035833Y014667D01*
X035884Y014713D01*
X035938Y014755D01*
X035994Y014795D01*
X036052Y014831D01*
X036113Y014863D01*
X036175Y014892D01*
X036239Y014918D01*
X036304Y014939D01*
X036371Y014957D01*
X036438Y014971D01*
X036506Y014981D01*
X036574Y014987D01*
X036643Y014989D01*
X036712Y014987D01*
X036780Y014981D01*
X036848Y014971D01*
X036915Y014957D01*
X036982Y014939D01*
X037047Y014918D01*
X037111Y014892D01*
X037173Y014863D01*
X037233Y014831D01*
X037292Y014795D01*
X037348Y014755D01*
X037402Y014713D01*
X037453Y014667D01*
X037502Y014618D01*
X037548Y014567D01*
X037590Y014513D01*
X037630Y014457D01*
X037666Y014398D01*
X037698Y014338D01*
X037727Y014276D01*
X037753Y014212D01*
X037774Y014147D01*
X037792Y014080D01*
X037806Y014013D01*
X037816Y013945D01*
X037822Y013877D01*
X037824Y013808D01*
X037822Y013739D01*
X037816Y013671D01*
X037806Y013603D01*
X037792Y013536D01*
X037774Y013469D01*
X037753Y013404D01*
X037727Y013340D01*
X037698Y013278D01*
X037666Y013217D01*
X037630Y013159D01*
X037590Y013103D01*
X037548Y013049D01*
X037502Y012998D01*
X037453Y012949D01*
X037402Y012903D01*
X037348Y012861D01*
X037292Y012821D01*
X037234Y012785D01*
X037173Y012753D01*
X037111Y012724D01*
X037047Y012698D01*
X036982Y012677D01*
X036915Y012659D01*
X036848Y012645D01*
X036780Y012635D01*
X036712Y012629D01*
X036643Y012627D01*
X036574Y012629D01*
X036506Y012635D01*
X036438Y012645D01*
X036371Y012659D01*
X036304Y012677D01*
X036239Y012698D01*
X036175Y012724D01*
X036113Y012753D01*
X036052Y012785D01*
X035994Y012821D01*
X035938Y012861D01*
X035884Y012903D01*
X035833Y012949D01*
X035784Y012998D01*
X035738Y013049D01*
X035696Y013103D01*
X035656Y013159D01*
X035620Y013217D01*
X035588Y013278D01*
X035559Y013340D01*
X035533Y013404D01*
X035512Y013469D01*
X035494Y013536D01*
X035480Y013603D01*
X035470Y013671D01*
X035464Y013739D01*
X035462Y013808D01*
X039398Y012233D02*
X039398Y015383D01*
X037351Y018335D02*
X037353Y018386D01*
X037359Y018437D01*
X037369Y018487D01*
X037382Y018537D01*
X037400Y018585D01*
X037420Y018632D01*
X037445Y018677D01*
X037473Y018720D01*
X037504Y018761D01*
X037538Y018799D01*
X037575Y018834D01*
X037614Y018867D01*
X037656Y018897D01*
X037700Y018923D01*
X037746Y018945D01*
X037794Y018965D01*
X037843Y018980D01*
X037893Y018992D01*
X037943Y019000D01*
X037994Y019004D01*
X038046Y019004D01*
X038097Y019000D01*
X038147Y018992D01*
X038197Y018980D01*
X038246Y018965D01*
X038294Y018945D01*
X038340Y018923D01*
X038384Y018897D01*
X038426Y018867D01*
X038465Y018834D01*
X038502Y018799D01*
X038536Y018761D01*
X038567Y018720D01*
X038595Y018677D01*
X038620Y018632D01*
X038640Y018585D01*
X038658Y018537D01*
X038671Y018487D01*
X038681Y018437D01*
X038687Y018386D01*
X038689Y018335D01*
X038687Y018284D01*
X038681Y018233D01*
X038671Y018183D01*
X038658Y018133D01*
X038640Y018085D01*
X038620Y018038D01*
X038595Y017993D01*
X038567Y017950D01*
X038536Y017909D01*
X038502Y017871D01*
X038465Y017836D01*
X038426Y017803D01*
X038384Y017773D01*
X038340Y017747D01*
X038294Y017725D01*
X038246Y017705D01*
X038197Y017690D01*
X038147Y017678D01*
X038097Y017670D01*
X038046Y017666D01*
X037994Y017666D01*
X037943Y017670D01*
X037893Y017678D01*
X037843Y017690D01*
X037794Y017705D01*
X037746Y017725D01*
X037700Y017747D01*
X037656Y017773D01*
X037614Y017803D01*
X037575Y017836D01*
X037538Y017871D01*
X037504Y017909D01*
X037473Y017950D01*
X037445Y017993D01*
X037420Y018038D01*
X037400Y018085D01*
X037382Y018133D01*
X037369Y018183D01*
X037359Y018233D01*
X037353Y018284D01*
X037351Y018335D01*
X039398Y012233D02*
X039398Y011643D01*
X001131Y018335D02*
X001133Y018386D01*
X001139Y018437D01*
X001149Y018487D01*
X001162Y018537D01*
X001180Y018585D01*
X001200Y018632D01*
X001225Y018677D01*
X001253Y018720D01*
X001284Y018761D01*
X001318Y018799D01*
X001355Y018834D01*
X001394Y018867D01*
X001436Y018897D01*
X001480Y018923D01*
X001526Y018945D01*
X001574Y018965D01*
X001623Y018980D01*
X001673Y018992D01*
X001723Y019000D01*
X001774Y019004D01*
X001826Y019004D01*
X001877Y019000D01*
X001927Y018992D01*
X001977Y018980D01*
X002026Y018965D01*
X002074Y018945D01*
X002120Y018923D01*
X002164Y018897D01*
X002206Y018867D01*
X002245Y018834D01*
X002282Y018799D01*
X002316Y018761D01*
X002347Y018720D01*
X002375Y018677D01*
X002400Y018632D01*
X002420Y018585D01*
X002438Y018537D01*
X002451Y018487D01*
X002461Y018437D01*
X002467Y018386D01*
X002469Y018335D01*
X002467Y018284D01*
X002461Y018233D01*
X002451Y018183D01*
X002438Y018133D01*
X002420Y018085D01*
X002400Y018038D01*
X002375Y017993D01*
X002347Y017950D01*
X002316Y017909D01*
X002282Y017871D01*
X002245Y017836D01*
X002206Y017803D01*
X002164Y017773D01*
X002120Y017747D01*
X002074Y017725D01*
X002026Y017705D01*
X001977Y017690D01*
X001927Y017678D01*
X001877Y017670D01*
X001826Y017666D01*
X001774Y017666D01*
X001723Y017670D01*
X001673Y017678D01*
X001623Y017690D01*
X001574Y017705D01*
X001526Y017725D01*
X001480Y017747D01*
X001436Y017773D01*
X001394Y017803D01*
X001355Y017836D01*
X001318Y017871D01*
X001284Y017909D01*
X001253Y017950D01*
X001225Y017993D01*
X001200Y018038D01*
X001180Y018085D01*
X001162Y018133D01*
X001149Y018183D01*
X001139Y018233D01*
X001133Y018284D01*
X001131Y018335D01*
D14*
X008170Y016532D02*
X008477Y016072D01*
X008631Y016149D02*
X008708Y016072D01*
X008861Y016072D01*
X008938Y016149D01*
X008938Y016225D01*
X008861Y016302D01*
X008784Y016302D01*
X008861Y016302D02*
X008938Y016379D01*
X008938Y016456D01*
X008861Y016532D01*
X008708Y016532D01*
X008631Y016456D01*
X008477Y016532D02*
X008170Y016072D01*
X015237Y005442D02*
X015544Y004981D01*
X015698Y004981D02*
X015698Y005058D01*
X016005Y005365D01*
X016005Y005442D01*
X015698Y005442D01*
X015544Y005442D02*
X015237Y004981D01*
X006367Y003087D02*
X006060Y003087D01*
X006060Y002857D01*
X006213Y002934D01*
X006290Y002934D01*
X006367Y002857D01*
X006367Y002704D01*
X006290Y002627D01*
X006137Y002627D01*
X006060Y002704D01*
X005906Y002627D02*
X005600Y003087D01*
X005906Y003087D02*
X005600Y002627D01*
X024647Y004942D02*
X024954Y005402D01*
X025107Y005172D02*
X025337Y005172D01*
X025414Y005096D01*
X025414Y005019D01*
X025337Y004942D01*
X025184Y004942D01*
X025107Y005019D01*
X025107Y005172D01*
X025261Y005326D01*
X025414Y005402D01*
X024954Y004942D02*
X024647Y005402D01*
X030198Y003812D02*
X030505Y003351D01*
X030658Y003351D02*
X030965Y003351D01*
X030812Y003351D02*
X030812Y003812D01*
X030658Y003658D01*
X030505Y003812D02*
X030198Y003351D01*
X033698Y003391D02*
X034005Y003851D01*
X034158Y003775D02*
X034235Y003851D01*
X034389Y003851D01*
X034465Y003775D01*
X034465Y003698D01*
X034158Y003391D01*
X034465Y003391D01*
X034005Y003391D02*
X033698Y003851D01*
X031735Y015993D02*
X031735Y016454D01*
X031505Y016223D01*
X031812Y016223D01*
X031351Y015993D02*
X031044Y016454D01*
X031351Y016454D02*
X031044Y015993D01*
D15*
X033127Y016592D02*
X033502Y017404D01*
X033627Y017154D01*
X033940Y017654D01*
X033627Y016779D01*
X033502Y017092D01*
X033127Y016592D01*
X033139Y016618D02*
X033147Y016618D01*
X033162Y016667D02*
X033183Y016667D01*
X033184Y016715D02*
X033220Y016715D01*
X033207Y016764D02*
X033256Y016764D01*
X033229Y016812D02*
X033293Y016812D01*
X033329Y016861D02*
X033251Y016861D01*
X033274Y016909D02*
X033365Y016909D01*
X033402Y016958D02*
X033296Y016958D01*
X033319Y017006D02*
X033438Y017006D01*
X033474Y017055D02*
X033341Y017055D01*
X033363Y017103D02*
X033743Y017103D01*
X033726Y017055D02*
X033517Y017055D01*
X033536Y017006D02*
X033708Y017006D01*
X033691Y016958D02*
X033556Y016958D01*
X033575Y016909D02*
X033674Y016909D01*
X033656Y016861D02*
X033595Y016861D01*
X033614Y016812D02*
X033639Y016812D01*
X033760Y017152D02*
X033386Y017152D01*
X033408Y017200D02*
X033604Y017200D01*
X033656Y017200D02*
X033778Y017200D01*
X033795Y017249D02*
X033686Y017249D01*
X033717Y017297D02*
X033812Y017297D01*
X033830Y017346D02*
X033747Y017346D01*
X033777Y017394D02*
X033847Y017394D01*
X033864Y017443D02*
X033808Y017443D01*
X033838Y017491D02*
X033882Y017491D01*
X033868Y017540D02*
X033899Y017540D01*
X033898Y017588D02*
X033916Y017588D01*
X033929Y017637D02*
X033933Y017637D01*
X033507Y017394D02*
X033498Y017394D01*
X033475Y017346D02*
X033532Y017346D01*
X033556Y017297D02*
X033453Y017297D01*
X033430Y017249D02*
X033580Y017249D01*
X018192Y006237D02*
X017879Y005737D01*
X017754Y005987D01*
X017379Y005174D01*
X017754Y005675D01*
X017879Y005362D01*
X018192Y006237D01*
X018175Y006191D02*
X018163Y006191D01*
X018158Y006142D02*
X018132Y006142D01*
X018141Y006094D02*
X018102Y006094D01*
X018123Y006045D02*
X018072Y006045D01*
X018042Y005997D02*
X018106Y005997D01*
X018089Y005948D02*
X018011Y005948D01*
X017981Y005900D02*
X018071Y005900D01*
X018054Y005851D02*
X017951Y005851D01*
X017920Y005803D02*
X018037Y005803D01*
X018019Y005754D02*
X017890Y005754D01*
X017871Y005754D02*
X017647Y005754D01*
X017624Y005706D02*
X018002Y005706D01*
X017985Y005657D02*
X017761Y005657D01*
X017741Y005657D02*
X017602Y005657D01*
X017580Y005609D02*
X017705Y005609D01*
X017668Y005560D02*
X017557Y005560D01*
X017535Y005512D02*
X017632Y005512D01*
X017596Y005463D02*
X017512Y005463D01*
X017490Y005415D02*
X017559Y005415D01*
X017523Y005366D02*
X017468Y005366D01*
X017487Y005318D02*
X017445Y005318D01*
X017450Y005269D02*
X017423Y005269D01*
X017414Y005221D02*
X017401Y005221D01*
X017858Y005415D02*
X017898Y005415D01*
X017915Y005463D02*
X017839Y005463D01*
X017819Y005512D02*
X017933Y005512D01*
X017950Y005560D02*
X017800Y005560D01*
X017781Y005609D02*
X017967Y005609D01*
X017846Y005803D02*
X017669Y005803D01*
X017692Y005851D02*
X017822Y005851D01*
X017798Y005900D02*
X017714Y005900D01*
X017736Y005948D02*
X017774Y005948D01*
X017878Y005366D02*
X017881Y005366D01*
X019517Y003769D02*
X011643Y003769D01*
X009965Y004493D02*
X009877Y004493D01*
X009847Y004445D02*
X009948Y004445D01*
X009930Y004396D02*
X009817Y004396D01*
X009786Y004348D02*
X009913Y004348D01*
X009896Y004299D02*
X009519Y004299D01*
X009497Y004251D02*
X009639Y004251D01*
X009647Y004251D02*
X009878Y004251D01*
X009861Y004202D02*
X009666Y004202D01*
X009685Y004154D02*
X009844Y004154D01*
X009826Y004105D02*
X009705Y004105D01*
X009724Y004057D02*
X009809Y004057D01*
X009792Y004008D02*
X009744Y004008D01*
X009763Y003960D02*
X009774Y003960D01*
X009769Y003945D02*
X009644Y004257D01*
X009269Y003757D01*
X009644Y004570D01*
X009769Y004320D01*
X010081Y004820D01*
X009769Y003945D01*
X009530Y004105D02*
X009430Y004105D01*
X009407Y004057D02*
X009494Y004057D01*
X009457Y004008D02*
X009385Y004008D01*
X009362Y003960D02*
X009421Y003960D01*
X009385Y003911D02*
X009340Y003911D01*
X009348Y003863D02*
X009318Y003863D01*
X009312Y003814D02*
X009295Y003814D01*
X009273Y003766D02*
X009275Y003766D01*
X009452Y004154D02*
X009566Y004154D01*
X009603Y004202D02*
X009474Y004202D01*
X009542Y004348D02*
X009755Y004348D01*
X009731Y004396D02*
X009564Y004396D01*
X009586Y004445D02*
X009706Y004445D01*
X009682Y004493D02*
X009609Y004493D01*
X009631Y004542D02*
X009658Y004542D01*
X009908Y004542D02*
X009982Y004542D01*
X010000Y004590D02*
X009938Y004590D01*
X009968Y004639D02*
X010017Y004639D01*
X010034Y004687D02*
X009999Y004687D01*
X010029Y004736D02*
X010052Y004736D01*
X010059Y004784D02*
X010069Y004784D01*
X010757Y001662D02*
X010757Y001446D01*
X010855Y001446D01*
X010855Y001662D02*
X010757Y001662D01*
X009871Y001209D02*
X009871Y001072D01*
X009871Y001209D02*
X007902Y001209D01*
X007902Y001072D01*
X007017Y001446D02*
X006918Y001446D01*
X007017Y001446D02*
X007017Y001662D01*
X006918Y001662D01*
X021871Y003769D02*
X028186Y003769D01*
X029036Y001678D02*
X029135Y001678D01*
X029135Y001461D01*
X029036Y001461D01*
X029686Y001225D02*
X029686Y001107D01*
X029686Y001225D02*
X031339Y001225D01*
X031339Y001087D01*
X031871Y001461D02*
X031969Y001461D01*
X031871Y001461D02*
X031871Y001678D01*
X031969Y001678D01*
X032930Y001678D02*
X033028Y001678D01*
X033028Y001461D01*
X032930Y001461D01*
X033580Y001225D02*
X033580Y001107D01*
X033580Y001225D02*
X035233Y001225D01*
X035233Y001087D01*
X035765Y001461D02*
X035863Y001461D01*
X035765Y001461D02*
X035765Y001678D01*
X035863Y001678D01*
X006068Y016779D02*
X005943Y017092D01*
X005568Y016592D01*
X005943Y017404D01*
X006068Y017154D01*
X006381Y017654D01*
X006068Y016779D01*
X006055Y016812D02*
X006080Y016812D01*
X006097Y016861D02*
X006036Y016861D01*
X006016Y016909D02*
X006115Y016909D01*
X006132Y016958D02*
X005997Y016958D01*
X005977Y017006D02*
X006149Y017006D01*
X006167Y017055D02*
X005958Y017055D01*
X005915Y017055D02*
X005782Y017055D01*
X005804Y017103D02*
X006184Y017103D01*
X006201Y017152D02*
X005827Y017152D01*
X005849Y017200D02*
X006045Y017200D01*
X006097Y017200D02*
X006219Y017200D01*
X006236Y017249D02*
X006127Y017249D01*
X006158Y017297D02*
X006253Y017297D01*
X006271Y017346D02*
X006188Y017346D01*
X006218Y017394D02*
X006288Y017394D01*
X006305Y017443D02*
X006248Y017443D01*
X006279Y017491D02*
X006322Y017491D01*
X006309Y017540D02*
X006340Y017540D01*
X006339Y017588D02*
X006357Y017588D01*
X006370Y017637D02*
X006374Y017637D01*
X005948Y017394D02*
X005939Y017394D01*
X005916Y017346D02*
X005972Y017346D01*
X005997Y017297D02*
X005894Y017297D01*
X005871Y017249D02*
X006021Y017249D01*
X005879Y017006D02*
X005759Y017006D01*
X005737Y016958D02*
X005843Y016958D01*
X005806Y016909D02*
X005715Y016909D01*
X005692Y016861D02*
X005770Y016861D01*
X005734Y016812D02*
X005670Y016812D01*
X005648Y016764D02*
X005697Y016764D01*
X005661Y016715D02*
X005625Y016715D01*
X005624Y016667D02*
X005603Y016667D01*
X005588Y016618D02*
X005580Y016618D01*
D16*
X004881Y016404D02*
X006131Y018404D01*
X007381Y016404D01*
X004881Y016404D01*
X017942Y006987D02*
X016692Y004987D01*
X019192Y004987D01*
X017942Y006987D01*
X011081Y003570D02*
X008581Y003570D01*
X009831Y005570D01*
X011081Y003570D01*
X032440Y016404D02*
X033690Y018404D01*
X034940Y016404D01*
X032440Y016404D01*
M02*
