G75*
G70*
%OFA0B0*%
%FSLAX24Y24*%
%IPPOS*%
%LPD*%
%AMOC8*
5,1,8,0,0,1.08239X$1,22.5*
%
%ADD10C,0.1143*%
%ADD11C,0.0674*%
%ADD12C,0.0513*%
%ADD13C,0.1084*%
%ADD14C,0.2380*%
%ADD15C,0.0474*%
D10*
X005540Y006328D03*
X005540Y010068D03*
X005540Y013808D03*
X034280Y013808D03*
X034280Y010068D03*
X034280Y006328D03*
D11*
X033914Y002013D03*
X034898Y002013D03*
X031005Y002013D03*
X030020Y002013D03*
X009871Y001997D03*
X008887Y001997D03*
X007902Y001997D03*
D12*
X007272Y002784D03*
X029391Y002800D03*
X029391Y002800D03*
X033284Y002800D03*
X033284Y002800D03*
D13*
X027367Y002587D03*
X025808Y002587D03*
X024249Y002587D03*
X022690Y002587D03*
X018698Y002587D03*
X015580Y002587D03*
X012461Y002587D03*
D14*
X001800Y001800D03*
X001800Y018335D03*
X038020Y018335D03*
X038020Y001800D03*
D15*
X029556Y005737D03*
X029556Y006918D03*
X026800Y006918D03*
X026800Y005737D03*
X024044Y005737D03*
X024044Y006918D03*
X021288Y006918D03*
X021288Y005737D03*
X018532Y005737D03*
X018532Y006918D03*
X015776Y006918D03*
X015776Y005737D03*
X013020Y005737D03*
X013020Y006918D03*
X010265Y006918D03*
X010265Y005737D03*
X010265Y009477D03*
X010265Y010658D03*
X013020Y010658D03*
X013020Y009477D03*
X015776Y009477D03*
X015776Y010658D03*
X018532Y010658D03*
X018532Y009477D03*
X021288Y009477D03*
X021288Y010658D03*
X024044Y010658D03*
X024044Y009477D03*
X026800Y009477D03*
X026800Y010658D03*
X029556Y010658D03*
X029556Y009477D03*
X029556Y013217D03*
X029556Y014398D03*
X026800Y014398D03*
X026800Y013217D03*
X024044Y013217D03*
X024044Y014398D03*
X021288Y014398D03*
X021288Y013217D03*
X018532Y013217D03*
X018532Y014398D03*
X015776Y014398D03*
X015776Y013217D03*
X013020Y013217D03*
X013020Y014398D03*
X010265Y014398D03*
X010265Y013217D03*
M02*
