0
SECTION
2
HEADER
9
$ANGBASE
50
0.0
9
$ANGDIR
70
0
0
ENDSEC
0
SECTION
2
TABLES
0
TABLE
2
LTYPE
70
1
0
LTYPE
2
CONTINUOUS
70
0
3
Solid line
72
65
73
0
40
0.0
0
ENDTAB
0
TABLE
2
LAYER
70
24
0
LAYER
2
BLACK
70
0
62
1
6
CONTINUOUS
0
LAYER
2
BLUE
70
0
62
2
6
CONTINUOUS
0
LAYER
2
GREEN
70
0
62
3
6
CONTINUOUS
0
LAYER
2
CYAN
70
0
62
4
6
CONTINUOUS
0
LAYER
2
RED
70
0
62
5
6
CONTINUOUS
0
LAYER
2
MAGENTA
70
0
62
6
6
CONTINUOUS
0
LAYER
2
BROWN
70
0
62
7
6
CONTINUOUS
0
LAYER
2
GRAY
70
0
62
8
6
CONTINUOUS
0
LAYER
2
DARKGRAY
70
0
62
9
6
CONTINUOUS
0
LAYER
2
LIGHTBLUE
70
0
62
10
6
CONTINUOUS
0
LAYER
2
LIGHTGREEN
70
0
62
11
6
CONTINUOUS
0
LAYER
2
LIGHTCYAN
70
0
62
12
6
CONTINUOUS
0
LAYER
2
LIGHTRED
70
0
62
13
6
CONTINUOUS
0
LAYER
2
LIGHTMAGENTA
70
0
62
14
6
CONTINUOUS
0
LAYER
2
YELLOW
70
0
62
15
6
CONTINUOUS
0
LAYER
2
WHITE
70
0
62
16
6
CONTINUOUS
0
LAYER
2
DARKDARKGRAY
70
0
62
17
6
CONTINUOUS
0
LAYER
2
DARKBLUE
70
0
62
18
6
CONTINUOUS
0
LAYER
2
DARKGREEN
70
0
62
19
6
CONTINUOUS
0
LAYER
2
DARKCYAN
70
0
62
20
6
CONTINUOUS
0
LAYER
2
DARKRED
70
0
62
21
6
CONTINUOUS
0
LAYER
2
DARKMAGENTA
70
0
62
22
6
CONTINUOUS
0
LAYER
2
DARKBROWN
70
0
62
23
6
CONTINUOUS
0
LAYER
2
LIGHTYELLOW
70
0
62
24
6
CONTINUOUS
0
ENDTAB
0
ENDSEC
0
SECTION
2
ENTITIES
0
CIRCLE
8
BLACK
10
33858.0
20
66922.0
40
1250
0
LINE
8
BLACK
10
31358.0
20
66847.0
11
36358.0
21
66847.0
0
LINE
8
BLACK
10
31358.0
20
66997.0
11
36358.0
21
66997.0
0
ARC
8
BLACK
10
36358.0
20
66922.0
40
75.0
50
270.0
51
450.0
0
ARC
8
BLACK
10
31358.0
20
66922.0
40
75.0
50
90.0
51
270.0
0
LINE
8
BLACK
10
33933.0
20
64422.0
11
33933.0
21
69422.0
0
LINE
8
BLACK
10
33783.0
20
64422.0
11
33783.0
21
69422.0
0
ARC
8
BLACK
10
33858.0
20
69422.0
40
75.0
50
360.0
51
540.0
0
ARC
8
BLACK
10
33858.0
20
64422.0
40
75.0
50
180.0
51
360.0
0
LINE
8
BLACK
10
39423.0
20
63327.0
11
42965.0
21
66869.0
0
LINE
8
BLACK
10
39317.0
20
63433.0
11
42859.0
21
66975.0
0
ARC
8
BLACK
10
42912.0
20
66922.0
40
75.0
50
315.0
51
495.0
0
ARC
8
BLACK
10
39370.0
20
63380.0
40
75.0
50
135.0
51
315.0
0
LINE
8
BLACK
10
39445.0
20
59835.0
11
39445.0
21
63379.0
0
LINE
8
BLACK
10
39295.0
20
59835.0
11
39295.0
21
63379.0
0
ARC
8
BLACK
10
39370.0
20
63379.0
40
75.0
50
360.0
51
540.0
0
ARC
8
BLACK
10
39370.0
20
59835.0
40
75.0
50
180.0
51
360.0
0
LINE
8
BLACK
10
38242.0
20
58602.0
11
39422.0
21
59782.0
0
LINE
8
BLACK
10
38136.0
20
58708.0
11
39316.0
21
59888.0
0
ARC
8
BLACK
10
39369.0
20
59835.0
40
75.0
50
315.0
51
495.0
0
ARC
8
BLACK
10
38189.0
20
58655.0
40
75.0
50
135.0
51
315.0
0
LINE
8
BLACK
10
37007.0
20
58579.0
11
38189.0
21
58579.0
0
LINE
8
BLACK
10
37007.0
20
58729.0
11
38189.0
21
58729.0
0
ARC
8
BLACK
10
38189.0
20
58654.0
40
75.0
50
270.0
51
450.0
0
ARC
8
BLACK
10
37007.0
20
58654.0
40
75.0
50
90.0
51
270.0
0
LINE
8
BLACK
10
33911.0
20
55453.0
11
37059.0
21
58601.0
0
LINE
8
BLACK
10
33805.0
20
55559.0
11
36953.0
21
58707.0
0
ARC
8
BLACK
10
37006.0
20
58654.0
40
75.0
50
315.0
51
495.0
0
ARC
8
BLACK
10
33858.0
20
55506.0
40
75.0
50
135.0
51
315.0
0
LINE
8
BLACK
10
33933.0
20
34245.0
11
33933.0
21
55505.0
0
LINE
8
BLACK
10
33783.0
20
34245.0
11
33783.0
21
55505.0
0
ARC
8
BLACK
10
33858.0
20
55505.0
40
75.0
50
360.0
51
540.0
0
ARC
8
BLACK
10
33858.0
20
34245.0
40
75.0
50
180.0
51
360.0
0
LINE
8
BLACK
10
37061.0
20
31148.0
11
33911.0
21
34298.0
0
LINE
8
BLACK
10
36955.0
20
31042.0
11
33805.0
21
34192.0
0
ARC
8
BLACK
10
33858.0
20
34245.0
40
75.0
50
405.0
51
585.0
0
ARC
8
BLACK
10
37008.0
20
31095.0
40
75.0
50
225.0
51
405.0
0
LINE
8
BLACK
10
37008.0
20
31020.0
11
38188.0
21
31020.0
0
LINE
8
BLACK
10
37008.0
20
31170.0
11
38188.0
21
31170.0
0
ARC
8
BLACK
10
38188.0
20
31095.0
40
75.0
50
270.0
51
450.0
0
ARC
8
BLACK
10
37008.0
20
31095.0
40
75.0
50
90.0
51
270.0
0
LINE
8
BLACK
10
39422.0
20
29968.0
11
38242.0
21
31148.0
0
LINE
8
BLACK
10
39316.0
20
29862.0
11
38136.0
21
31042.0
0
ARC
8
BLACK
10
38189.0
20
31095.0
40
75.0
50
405.0
51
585.0
0
ARC
8
BLACK
10
39369.0
20
29915.0
40
75.0
50
225.0
51
405.0
0
LINE
8
BLACK
10
39445.0
20
26372.0
11
39445.0
21
29914.0
0
LINE
8
BLACK
10
39295.0
20
26372.0
11
39295.0
21
29914.0
0
ARC
8
BLACK
10
39370.0
20
29914.0
40
75.0
50
360.0
51
540.0
0
ARC
8
BLACK
10
39370.0
20
26372.0
40
75.0
50
180.0
51
360.0
0
LINE
8
BLACK
10
42965.0
20
22882.0
11
39423.0
21
26424.0
0
LINE
8
BLACK
10
42859.0
20
22776.0
11
39317.0
21
26318.0
0
ARC
8
BLACK
10
39370.0
20
26371.0
40
75.0
50
405.0
51
585.0
0
ARC
8
BLACK
10
42912.0
20
22829.0
40
75.0
50
225.0
51
405.0
0
LINE
8
BLACK
10
42913.0
20
22753.0
11
68897.0
21
22753.0
0
LINE
8
BLACK
10
42913.0
20
22903.0
11
68897.0
21
22903.0
0
ARC
8
BLACK
10
68897.0
20
22828.0
40
75.0
50
270.0
51
450.0
0
ARC
8
BLACK
10
42913.0
20
22828.0
40
75.0
50
90.0
51
270.0
0
LINE
8
BLACK
10
72387.0
20
26424.0
11
68845.0
21
22882.0
0
LINE
8
BLACK
10
72493.0
20
26318.0
11
68951.0
21
22776.0
0
ARC
8
BLACK
10
68898.0
20
22829.0
40
75.0
50
135.0
51
315.0
0
ARC
8
BLACK
10
72440.0
20
26371.0
40
75.0
50
-45.0
51
135.0
0
LINE
8
BLACK
10
72516.0
20
26371.0
11
72516.0
21
29915.0
0
LINE
8
BLACK
10
72366.0
20
26371.0
11
72366.0
21
29915.0
0
ARC
8
BLACK
10
72441.0
20
29915.0
40
75.0
50
360.0
51
540.0
0
ARC
8
BLACK
10
72441.0
20
26371.0
40
75.0
50
180.0
51
360.0
0
LINE
8
BLACK
10
73568.0
20
31149.0
11
72388.0
21
29969.0
0
LINE
8
BLACK
10
73674.0
20
31043.0
11
72494.0
21
29863.0
0
ARC
8
BLACK
10
72441.0
20
29916.0
40
75.0
50
135.0
51
315.0
0
ARC
8
BLACK
10
73621.0
20
31096.0
40
75.0
50
-45.0
51
135.0
0
LINE
8
BLACK
10
73622.0
20
31021.0
11
74802.0
21
31021.0
0
LINE
8
BLACK
10
73622.0
20
31171.0
11
74802.0
21
31171.0
0
ARC
8
BLACK
10
74802.0
20
31096.0
40
75.0
50
270.0
51
450.0
0
ARC
8
BLACK
10
73622.0
20
31096.0
40
75.0
50
90.0
51
270.0
0
LINE
8
BLACK
10
77898.0
20
34298.0
11
74750.0
21
31150.0
0
LINE
8
BLACK
10
78004.0
20
34192.0
11
74856.0
21
31044.0
0
ARC
8
BLACK
10
74803.0
20
31097.0
40
75.0
50
135.0
51
315.0
0
ARC
8
BLACK
10
77951.0
20
34245.0
40
75.0
50
-45.0
51
135.0
0
LINE
8
BLACK
10
78027.0
20
34245.0
11
78027.0
21
55505.0
0
LINE
8
BLACK
10
77877.0
20
34245.0
11
77877.0
21
55505.0
0
ARC
8
BLACK
10
77952.0
20
55505.0
40
75.0
50
360.0
51
540.0
0
ARC
8
BLACK
10
77952.0
20
34245.0
40
75.0
50
180.0
51
360.0
0
LINE
8
BLACK
10
74750.0
20
58601.0
11
77898.0
21
55453.0
0
LINE
8
BLACK
10
74856.0
20
58707.0
11
78004.0
21
55559.0
0
ARC
8
BLACK
10
77951.0
20
55506.0
40
75.0
50
225.0
51
405.0
0
ARC
8
BLACK
10
74803.0
20
58654.0
40
75.0
50
45.0
51
225.0
0
LINE
8
BLACK
10
73622.0
20
58579.0
11
74802.0
21
58579.0
0
LINE
8
BLACK
10
73622.0
20
58729.0
11
74802.0
21
58729.0
0
ARC
8
BLACK
10
74802.0
20
58654.0
40
75.0
50
270.0
51
450.0
0
ARC
8
BLACK
10
73622.0
20
58654.0
40
75.0
50
90.0
51
270.0
0
LINE
8
BLACK
10
72388.0
20
59782.0
11
73568.0
21
58602.0
0
LINE
8
BLACK
10
72494.0
20
59888.0
11
73674.0
21
58708.0
0
ARC
8
BLACK
10
73621.0
20
58655.0
40
75.0
50
225.0
51
405.0
0
ARC
8
BLACK
10
72441.0
20
59835.0
40
75.0
50
45.0
51
225.0
0
LINE
8
BLACK
10
72516.0
20
59835.0
11
72516.0
21
63379.0
0
LINE
8
BLACK
10
72366.0
20
59835.0
11
72366.0
21
63379.0
0
ARC
8
BLACK
10
72441.0
20
63379.0
40
75.0
50
360.0
51
540.0
0
ARC
8
BLACK
10
72441.0
20
59835.0
40
75.0
50
180.0
51
360.0
0
LINE
8
BLACK
10
68845.0
20
66869.0
11
72387.0
21
63327.0
0
LINE
8
BLACK
10
68951.0
20
66975.0
11
72493.0
21
63433.0
0
ARC
8
BLACK
10
72440.0
20
63380.0
40
75.0
50
225.0
51
405.0
0
ARC
8
BLACK
10
68898.0
20
66922.0
40
75.0
50
45.0
51
225.0
0
LINE
8
BLACK
10
42913.0
20
66847.0
11
68897.0
21
66847.0
0
LINE
8
BLACK
10
42913.0
20
66997.0
11
68897.0
21
66997.0
0
ARC
8
BLACK
10
68897.0
20
66922.0
40
75.0
50
270.0
51
450.0
0
ARC
8
BLACK
10
42913.0
20
66922.0
40
75.0
50
90.0
51
270.0
0
LINE
8
BLACK
10
35135.0
20
42790.0
11
35385.0
21
42540.0
0
LINE
8
BLACK
10
35385.0
20
42790.0
11
35135.0
21
42540.0
0
LINE
8
BLACK
10
35443.0
20
50579.0
11
35693.0
21
50329.0
0
LINE
8
BLACK
10
35693.0
20
50579.0
11
35443.0
21
50329.0
0
LINE
8
BLACK
10
35505.0
20
54662.0
11
35755.0
21
54412.0
0
LINE
8
BLACK
10
35755.0
20
54662.0
11
35505.0
21
54412.0
0
LINE
8
BLACK
10
36282.0
20
56143.0
11
36532.0
21
55893.0
0
LINE
8
BLACK
10
36532.0
20
56143.0
11
36282.0
21
55893.0
0
LINE
8
BLACK
10
36366.0
20
53413.0
11
36616.0
21
53163.0
0
LINE
8
BLACK
10
36616.0
20
53413.0
11
36366.0
21
53163.0
0
LINE
8
BLACK
10
36604.0
20
51318.0
11
36854.0
21
51068.0
0
LINE
8
BLACK
10
36854.0
20
51318.0
11
36604.0
21
51068.0
0
LINE
8
BLACK
10
38459.0
20
51723.0
11
38709.0
21
51473.0
0
LINE
8
BLACK
10
38709.0
20
51723.0
11
38459.0
21
51473.0
0
LINE
8
BLACK
10
38683.0
20
57031.0
11
38933.0
21
56781.0
0
LINE
8
BLACK
10
38933.0
20
57031.0
11
38683.0
21
56781.0
0
LINE
8
BLACK
10
39050.0
20
54408.0
11
39300.0
21
54158.0
0
LINE
8
BLACK
10
39300.0
20
54408.0
11
39050.0
21
54158.0
0
LINE
8
BLACK
10
39275.0
20
56395.0
11
39525.0
21
56145.0
0
LINE
8
BLACK
10
39525.0
20
56395.0
11
39275.0
21
56145.0
0
LINE
8
BLACK
10
39468.0
20
53929.0
11
39718.0
21
53679.0
0
LINE
8
BLACK
10
39718.0
20
53929.0
11
39468.0
21
53679.0
0
LINE
8
BLACK
10
39763.0
20
52631.0
11
40013.0
21
52381.0
0
LINE
8
BLACK
10
40013.0
20
52631.0
11
39763.0
21
52381.0
0
LINE
8
BLACK
10
39899.0
20
50351.0
11
40149.0
21
50101.0
0
LINE
8
BLACK
10
40149.0
20
50351.0
11
39899.0
21
50101.0
0
LINE
8
BLACK
10
40675.0
20
55456.0
11
40925.0
21
55206.0
0
LINE
8
BLACK
10
40925.0
20
55456.0
11
40675.0
21
55206.0
0
LINE
8
BLACK
10
40989.0
20
48149.0
11
41239.0
21
47899.0
0
LINE
8
BLACK
10
41239.0
20
48149.0
11
40989.0
21
47899.0
0
LINE
8
BLACK
10
41059.0
20
29670.0
11
41309.0
21
29420.0
0
LINE
8
BLACK
10
41309.0
20
29670.0
11
41059.0
21
29420.0
0
LINE
8
BLACK
10
41225.0
20
51145.0
11
41475.0
21
50895.0
0
LINE
8
BLACK
10
41475.0
20
51145.0
11
41225.0
21
50895.0
0
LINE
8
BLACK
10
41352.0
20
60335.0
11
41602.0
21
60085.0
0
LINE
8
BLACK
10
41602.0
20
60335.0
11
41352.0
21
60085.0
0
LINE
8
BLACK
10
41642.0
20
56238.0
11
41892.0
21
55988.0
0
LINE
8
BLACK
10
41892.0
20
56238.0
11
41642.0
21
55988.0
0
LINE
8
BLACK
10
42008.0
20
57789.0
11
42258.0
21
57539.0
0
LINE
8
BLACK
10
42258.0
20
57789.0
11
42008.0
21
57539.0
0
LINE
8
BLACK
10
42029.0
20
57022.0
11
42279.0
21
56772.0
0
LINE
8
BLACK
10
42279.0
20
57022.0
11
42029.0
21
56772.0
0
LINE
8
BLACK
10
42084.0
20
45108.0
11
42334.0
21
44858.0
0
LINE
8
BLACK
10
42334.0
20
45108.0
11
42084.0
21
44858.0
0
LINE
8
BLACK
10
42146.0
20
41674.0
11
42396.0
21
41424.0
0
LINE
8
BLACK
10
42396.0
20
41674.0
11
42146.0
21
41424.0
0
LINE
8
BLACK
10
42159.0
20
36772.0
11
42409.0
21
36522.0
0
LINE
8
BLACK
10
42409.0
20
36772.0
11
42159.0
21
36522.0
0
LINE
8
BLACK
10
42476.0
20
44756.0
11
42726.0
21
44506.0
0
LINE
8
BLACK
10
42726.0
20
44756.0
11
42476.0
21
44506.0
0
LINE
8
BLACK
10
42842.0
20
42295.0
11
43092.0
21
42045.0
0
LINE
8
BLACK
10
43092.0
20
42295.0
11
42842.0
21
42045.0
0
LINE
8
BLACK
10
42957.0
20
43608.0
11
43207.0
21
43358.0
0
LINE
8
BLACK
10
43207.0
20
43608.0
11
42957.0
21
43358.0
0
LINE
8
BLACK
10
43392.0
20
51385.0
11
43642.0
21
51135.0
0
LINE
8
BLACK
10
43642.0
20
51385.0
11
43392.0
21
51135.0
0
LINE
8
BLACK
10
44125.0
20
36545.0
11
44375.0
21
36295.0
0
LINE
8
BLACK
10
44375.0
20
36545.0
11
44125.0
21
36295.0
0
LINE
8
BLACK
10
44570.0
20
51203.0
11
44820.0
21
50953.0
0
LINE
8
BLACK
10
44820.0
20
51203.0
11
44570.0
21
50953.0
0
LINE
8
BLACK
10
44736.0
20
38954.0
11
44986.0
21
38704.0
0
LINE
8
BLACK
10
44986.0
20
38954.0
11
44736.0
21
38704.0
0
LINE
8
BLACK
10
44872.0
20
37235.0
11
45122.0
21
36985.0
0
LINE
8
BLACK
10
45122.0
20
37235.0
11
44872.0
21
36985.0
0
LINE
8
BLACK
10
44875.0
20
41195.0
11
45125.0
21
40945.0
0
LINE
8
BLACK
10
45125.0
20
41195.0
11
44875.0
21
40945.0
0
LINE
8
BLACK
10
44875.0
20
31011.0
11
45125.0
21
30761.0
0
LINE
8
BLACK
10
45125.0
20
31011.0
11
44875.0
21
30761.0
0
LINE
8
BLACK
10
45219.0
20
57186.0
11
45469.0
21
56936.0
0
LINE
8
BLACK
10
45469.0
20
57186.0
11
45219.0
21
56936.0
0
LINE
8
BLACK
10
45303.0
20
59498.0
11
45553.0
21
59248.0
0
LINE
8
BLACK
10
45553.0
20
59498.0
11
45303.0
21
59248.0
0
LINE
8
BLACK
10
45375.0
20
52495.0
11
45625.0
21
52245.0
0
LINE
8
BLACK
10
45625.0
20
52495.0
11
45375.0
21
52245.0
0
LINE
8
BLACK
10
45388.0
20
48108.0
11
45638.0
21
47858.0
0
LINE
8
BLACK
10
45638.0
20
48108.0
11
45388.0
21
47858.0
0
LINE
8
BLACK
10
45414.0
20
36736.0
11
45664.0
21
36486.0
0
LINE
8
BLACK
10
45664.0
20
36736.0
11
45414.0
21
36486.0
0
LINE
8
BLACK
10
45433.0
20
48590.0
11
45683.0
21
48340.0
0
LINE
8
BLACK
10
45683.0
20
48590.0
11
45433.0
21
48340.0
0
LINE
8
BLACK
10
45568.0
20
32155.0
11
45818.0
21
31905.0
0
LINE
8
BLACK
10
45818.0
20
32155.0
11
45568.0
21
31905.0
0
LINE
8
BLACK
10
45570.0
20
32679.0
11
45820.0
21
32429.0
0
LINE
8
BLACK
10
45820.0
20
32679.0
11
45570.0
21
32429.0
0
LINE
8
BLACK
10
45685.0
20
36257.0
11
45935.0
21
36007.0
0
LINE
8
BLACK
10
45935.0
20
36257.0
11
45685.0
21
36007.0
0
LINE
8
BLACK
10
45694.0
20
44207.0
11
45944.0
21
43957.0
0
LINE
8
BLACK
10
45944.0
20
44207.0
11
45694.0
21
43957.0
0
LINE
8
BLACK
10
46001.0
20
35815.0
11
46251.0
21
35565.0
0
LINE
8
BLACK
10
46251.0
20
35815.0
11
46001.0
21
35565.0
0
LINE
8
BLACK
10
46025.0
20
55445.0
11
46275.0
21
55195.0
0
LINE
8
BLACK
10
46275.0
20
55445.0
11
46025.0
21
55195.0
0
LINE
8
BLACK
10
46025.0
20
50558.0
11
46275.0
21
50308.0
0
LINE
8
BLACK
10
46275.0
20
50558.0
11
46025.0
21
50308.0
0
LINE
8
BLACK
10
46066.0
20
57759.0
11
46316.0
21
57509.0
0
LINE
8
BLACK
10
46316.0
20
57759.0
11
46066.0
21
57509.0
0
LINE
8
BLACK
10
46097.0
20
59995.0
11
46347.0
21
59745.0
0
LINE
8
BLACK
10
46347.0
20
59995.0
11
46097.0
21
59745.0
0
LINE
8
BLACK
10
46380.0
20
53245.0
11
46630.0
21
52995.0
0
LINE
8
BLACK
10
46630.0
20
53245.0
11
46380.0
21
52995.0
0
LINE
8
BLACK
10
46578.0
20
56869.0
11
46828.0
21
56619.0
0
LINE
8
BLACK
10
46828.0
20
56869.0
11
46578.0
21
56619.0
0
LINE
8
BLACK
10
46592.0
20
41844.0
11
46842.0
21
41594.0
0
LINE
8
BLACK
10
46842.0
20
41844.0
11
46592.0
21
41594.0
0
LINE
8
BLACK
10
46693.0
20
45874.0
11
46943.0
21
45624.0
0
LINE
8
BLACK
10
46943.0
20
45874.0
11
46693.0
21
45624.0
0
LINE
8
BLACK
10
46835.0
20
36000.0
11
47085.0
21
35750.0
0
LINE
8
BLACK
10
47085.0
20
36000.0
11
46835.0
21
35750.0
0
LINE
8
BLACK
10
46896.0
20
31406.0
11
47146.0
21
31156.0
0
LINE
8
BLACK
10
47146.0
20
31406.0
11
46896.0
21
31156.0
0
LINE
8
BLACK
10
47025.0
20
34908.0
11
47275.0
21
34658.0
0
LINE
8
BLACK
10
47275.0
20
34908.0
11
47025.0
21
34658.0
0
LINE
8
BLACK
10
47114.0
20
36356.0
11
47364.0
21
36106.0
0
LINE
8
BLACK
10
47364.0
20
36356.0
11
47114.0
21
36106.0
0
LINE
8
BLACK
10
47208.0
20
57602.0
11
47458.0
21
57352.0
0
LINE
8
BLACK
10
47458.0
20
57602.0
11
47208.0
21
57352.0
0
LINE
8
BLACK
10
47434.0
20
33529.0
11
47684.0
21
33279.0
0
LINE
8
BLACK
10
47684.0
20
33529.0
11
47434.0
21
33279.0
0
LINE
8
BLACK
10
47678.0
20
30590.0
11
47928.0
21
30340.0
0
LINE
8
BLACK
10
47928.0
20
30590.0
11
47678.0
21
30340.0
0
LINE
8
BLACK
10
47684.0
20
57014.0
11
47934.0
21
56764.0
0
LINE
8
BLACK
10
47934.0
20
57014.0
11
47684.0
21
56764.0
0
LINE
8
BLACK
10
48125.0
20
60527.0
11
48375.0
21
60277.0
0
LINE
8
BLACK
10
48375.0
20
60527.0
11
48125.0
21
60277.0
0
LINE
8
BLACK
10
48759.0
20
59320.0
11
49009.0
21
59070.0
0
LINE
8
BLACK
10
49009.0
20
59320.0
11
48759.0
21
59070.0
0
LINE
8
BLACK
10
49103.0
20
59636.0
11
49353.0
21
59386.0
0
LINE
8
BLACK
10
49353.0
20
59636.0
11
49103.0
21
59386.0
0
LINE
8
BLACK
10
49243.0
20
60768.0
11
49493.0
21
60518.0
0
LINE
8
BLACK
10
49493.0
20
60768.0
11
49243.0
21
60518.0
0
LINE
8
BLACK
10
49261.0
20
61275.0
11
49511.0
21
61025.0
0
LINE
8
BLACK
10
49511.0
20
61275.0
11
49261.0
21
61025.0
0
LINE
8
BLACK
10
49575.0
20
41295.0
11
49825.0
21
41045.0
0
LINE
8
BLACK
10
49825.0
20
41295.0
11
49575.0
21
41045.0
0
LINE
8
BLACK
10
49941.0
20
38348.0
11
50191.0
21
38098.0
0
LINE
8
BLACK
10
50191.0
20
38348.0
11
49941.0
21
38098.0
0
LINE
8
BLACK
10
49978.0
20
59014.0
11
50228.0
21
58764.0
0
LINE
8
BLACK
10
50228.0
20
59014.0
11
49978.0
21
58764.0
0
LINE
8
BLACK
10
50045.0
20
57282.0
11
50295.0
21
57032.0
0
LINE
8
BLACK
10
50295.0
20
57282.0
11
50045.0
21
57032.0
0
LINE
8
BLACK
10
50045.0
20
49049.0
11
50295.0
21
48799.0
0
LINE
8
BLACK
10
50295.0
20
49049.0
11
50045.0
21
48799.0
0
LINE
8
BLACK
10
50302.0
20
59330.0
11
50552.0
21
59080.0
0
LINE
8
BLACK
10
50552.0
20
59330.0
11
50302.0
21
59080.0
0
LINE
8
BLACK
10
50369.0
20
39420.0
11
50619.0
21
39170.0
0
LINE
8
BLACK
10
50619.0
20
39420.0
11
50369.0
21
39170.0
0
LINE
8
BLACK
10
50440.0
20
37204.0
11
50690.0
21
36954.0
0
LINE
8
BLACK
10
50690.0
20
37204.0
11
50440.0
21
36954.0
0
LINE
8
BLACK
10
50625.0
20
36045.0
11
50875.0
21
35795.0
0
LINE
8
BLACK
10
50875.0
20
36045.0
11
50625.0
21
35795.0
0
LINE
8
BLACK
10
50632.0
20
58139.0
11
50882.0
21
57889.0
0
LINE
8
BLACK
10
50882.0
20
58139.0
11
50632.0
21
57889.0
0
LINE
8
BLACK
10
50652.0
20
38247.0
11
50902.0
21
37997.0
0
LINE
8
BLACK
10
50902.0
20
38247.0
11
50652.0
21
37997.0
0
LINE
8
BLACK
10
50842.0
20
37764.0
11
51092.0
21
37514.0
0
LINE
8
BLACK
10
51092.0
20
37764.0
11
50842.0
21
37514.0
0
LINE
8
BLACK
10
51004.0
20
57803.0
11
51254.0
21
57553.0
0
LINE
8
BLACK
10
51254.0
20
57803.0
11
51004.0
21
57553.0
0
LINE
8
BLACK
10
51270.0
20
31250.0
11
51520.0
21
31000.0
0
LINE
8
BLACK
10
51520.0
20
31250.0
11
51270.0
21
31000.0
0
LINE
8
BLACK
10
51623.0
20
39980.0
11
51873.0
21
39730.0
0
LINE
8
BLACK
10
51873.0
20
39980.0
11
51623.0
21
39730.0
0
LINE
8
BLACK
10
51654.0
20
58822.0
11
51904.0
21
58572.0
0
LINE
8
BLACK
10
51904.0
20
58822.0
11
51654.0
21
58572.0
0
LINE
8
BLACK
10
51775.0
20
46994.0
11
52025.0
21
46744.0
0
LINE
8
BLACK
10
52025.0
20
46994.0
11
51775.0
21
46744.0
0
LINE
8
BLACK
10
51927.0
20
51719.0
11
52177.0
21
51469.0
0
LINE
8
BLACK
10
52177.0
20
51719.0
11
51927.0
21
51469.0
0
LINE
8
BLACK
10
52003.0
20
53387.0
11
52253.0
21
53137.0
0
LINE
8
BLACK
10
52253.0
20
53387.0
11
52003.0
21
53137.0
0
LINE
8
BLACK
10
52104.0
20
58690.0
11
52354.0
21
58440.0
0
LINE
8
BLACK
10
52354.0
20
58690.0
11
52104.0
21
58440.0
0
LINE
8
BLACK
10
52338.0
20
60856.0
11
52588.0
21
60606.0
0
LINE
8
BLACK
10
52588.0
20
60856.0
11
52338.0
21
60606.0
0
LINE
8
BLACK
10
52375.0
20
53785.0
11
52625.0
21
53535.0
0
LINE
8
BLACK
10
52625.0
20
53785.0
11
52375.0
21
53535.0
0
LINE
8
BLACK
10
52550.0
20
37090.0
11
52800.0
21
36840.0
0
LINE
8
BLACK
10
52800.0
20
37090.0
11
52550.0
21
36840.0
0
LINE
8
BLACK
10
52653.0
20
57458.0
11
52903.0
21
57208.0
0
LINE
8
BLACK
10
52903.0
20
57458.0
11
52653.0
21
57208.0
0
LINE
8
BLACK
10
52826.0
20
34823.0
11
53076.0
21
34573.0
0
LINE
8
BLACK
10
53076.0
20
34823.0
11
52826.0
21
34573.0
0
LINE
8
BLACK
10
53435.0
20
51927.0
11
53685.0
21
51677.0
0
LINE
8
BLACK
10
53685.0
20
51927.0
11
53435.0
21
51677.0
0
LINE
8
BLACK
10
53556.0
20
53648.0
11
53806.0
21
53398.0
0
LINE
8
BLACK
10
53806.0
20
53648.0
11
53556.0
21
53398.0
0
LINE
8
BLACK
10
53611.0
20
57534.0
11
53861.0
21
57284.0
0
LINE
8
BLACK
10
53861.0
20
57534.0
11
53611.0
21
57284.0
0
LINE
8
BLACK
10
53625.0
20
33547.0
11
53875.0
21
33297.0
0
LINE
8
BLACK
10
53875.0
20
33547.0
11
53625.0
21
33297.0
0
LINE
8
BLACK
10
53858.0
20
58779.0
11
54108.0
21
58529.0
0
LINE
8
BLACK
10
54108.0
20
58779.0
11
53858.0
21
58529.0
0
LINE
8
BLACK
10
53874.0
20
53112.0
11
54124.0
21
52862.0
0
LINE
8
BLACK
10
54124.0
20
53112.0
11
53874.0
21
52862.0
0
LINE
8
BLACK
10
54118.0
20
51833.0
11
54368.0
21
51583.0
0
LINE
8
BLACK
10
54368.0
20
51833.0
11
54118.0
21
51583.0
0
LINE
8
BLACK
10
54184.0
20
52289.0
11
54434.0
21
52039.0
0
LINE
8
BLACK
10
54434.0
20
52289.0
11
54184.0
21
52039.0
0
LINE
8
BLACK
10
54255.0
20
48794.0
11
54505.0
21
48544.0
0
LINE
8
BLACK
10
54505.0
20
48794.0
11
54255.0
21
48544.0
0
LINE
8
BLACK
10
54434.0
20
49911.0
11
54684.0
21
49661.0
0
LINE
8
BLACK
10
54684.0
20
49911.0
11
54434.0
21
49661.0
0
LINE
8
BLACK
10
54518.0
20
54523.0
11
54768.0
21
54273.0
0
LINE
8
BLACK
10
54768.0
20
54523.0
11
54518.0
21
54273.0
0
LINE
8
BLACK
10
54660.0
20
32942.0
11
54910.0
21
32692.0
0
LINE
8
BLACK
10
54910.0
20
32942.0
11
54660.0
21
32692.0
0
LINE
8
BLACK
10
54678.0
20
53543.0
11
54928.0
21
53293.0
0
LINE
8
BLACK
10
54928.0
20
53543.0
11
54678.0
21
53293.0
0
LINE
8
BLACK
10
54864.0
20
35249.0
11
55114.0
21
34999.0
0
LINE
8
BLACK
10
55114.0
20
35249.0
11
54864.0
21
34999.0
0
LINE
8
BLACK
10
54997.0
20
35870.0
11
55247.0
21
35620.0
0
LINE
8
BLACK
10
55247.0
20
35870.0
11
54997.0
21
35620.0
0
LINE
8
BLACK
10
55111.0
20
54114.0
11
55361.0
21
53864.0
0
LINE
8
BLACK
10
55361.0
20
54114.0
11
55111.0
21
53864.0
0
LINE
8
BLACK
10
55124.0
20
33575.0
11
55374.0
21
33325.0
0
LINE
8
BLACK
10
55374.0
20
33575.0
11
55124.0
21
33325.0
0
LINE
8
BLACK
10
55132.0
20
55419.0
11
55382.0
21
55169.0
0
LINE
8
BLACK
10
55382.0
20
55419.0
11
55132.0
21
55169.0
0
LINE
8
BLACK
10
55448.0
20
47455.0
11
55698.0
21
47205.0
0
LINE
8
BLACK
10
55698.0
20
47455.0
11
55448.0
21
47205.0
0
LINE
8
BLACK
10
55875.0
20
27658.0
11
56125.0
21
27408.0
0
LINE
8
BLACK
10
56125.0
20
27658.0
11
55875.0
21
27408.0
0
LINE
8
BLACK
10
56025.0
20
48091.0
11
56275.0
21
47841.0
0
LINE
8
BLACK
10
56275.0
20
48091.0
11
56025.0
21
47841.0
0
LINE
8
BLACK
10
56347.0
20
52249.0
11
56597.0
21
51999.0
0
LINE
8
BLACK
10
56597.0
20
52249.0
11
56347.0
21
51999.0
0
LINE
8
BLACK
10
56383.0
20
48410.0
11
56633.0
21
48160.0
0
LINE
8
BLACK
10
56633.0
20
48410.0
11
56383.0
21
48160.0
0
LINE
8
BLACK
10
56747.0
20
32932.0
11
56997.0
21
32682.0
0
LINE
8
BLACK
10
56997.0
20
32932.0
11
56747.0
21
32682.0
0
LINE
8
BLACK
10
57594.0
20
54958.0
11
57844.0
21
54708.0
0
LINE
8
BLACK
10
57844.0
20
54958.0
11
57594.0
21
54708.0
0
LINE
8
BLACK
10
57810.0
20
55912.0
11
58060.0
21
55662.0
0
LINE
8
BLACK
10
58060.0
20
55912.0
11
57810.0
21
55662.0
0
LINE
8
BLACK
10
57829.0
20
34014.0
11
58079.0
21
33764.0
0
LINE
8
BLACK
10
58079.0
20
34014.0
11
57829.0
21
33764.0
0
LINE
8
BLACK
10
57838.0
20
58674.0
11
58088.0
21
58424.0
0
LINE
8
BLACK
10
58088.0
20
58674.0
11
57838.0
21
58424.0
0
LINE
8
BLACK
10
58100.0
20
30887.0
11
58350.0
21
30637.0
0
LINE
8
BLACK
10
58350.0
20
30887.0
11
58100.0
21
30637.0
0
LINE
8
BLACK
10
58220.0
20
32183.0
11
58470.0
21
31933.0
0
LINE
8
BLACK
10
58470.0
20
32183.0
11
58220.0
21
31933.0
0
LINE
8
BLACK
10
58325.0
20
37820.0
11
58575.0
21
37570.0
0
LINE
8
BLACK
10
58575.0
20
37820.0
11
58325.0
21
37570.0
0
LINE
8
BLACK
10
58975.0
20
59906.0
11
59225.0
21
59656.0
0
LINE
8
BLACK
10
59225.0
20
59906.0
11
58975.0
21
59656.0
0
LINE
8
BLACK
10
58975.0
20
51421.0
11
59225.0
21
51171.0
0
LINE
8
BLACK
10
59225.0
20
51421.0
11
58975.0
21
51171.0
0
LINE
8
BLACK
10
59662.0
20
36681.0
11
59912.0
21
36431.0
0
LINE
8
BLACK
10
59912.0
20
36681.0
11
59662.0
21
36431.0
0
LINE
8
BLACK
10
60011.0
20
59085.0
11
60261.0
21
58835.0
0
LINE
8
BLACK
10
60261.0
20
59085.0
11
60011.0
21
58835.0
0
LINE
8
BLACK
10
60108.0
20
40668.0
11
60358.0
21
40418.0
0
LINE
8
BLACK
10
60358.0
20
40668.0
11
60108.0
21
40418.0
0
LINE
8
BLACK
10
60131.0
20
37326.0
11
60381.0
21
37076.0
0
LINE
8
BLACK
10
60381.0
20
37326.0
11
60131.0
21
37076.0
0
LINE
8
BLACK
10
60952.0
20
27894.0
11
61202.0
21
27644.0
0
LINE
8
BLACK
10
61202.0
20
27894.0
11
60952.0
21
27644.0
0
LINE
8
BLACK
10
61122.0
20
30831.0
11
61372.0
21
30581.0
0
LINE
8
BLACK
10
61372.0
20
30831.0
11
61122.0
21
30581.0
0
LINE
8
BLACK
10
61158.0
20
40255.0
11
61408.0
21
40005.0
0
LINE
8
BLACK
10
61408.0
20
40255.0
11
61158.0
21
40005.0
0
LINE
8
BLACK
10
62153.0
20
28247.0
11
62403.0
21
27997.0
0
LINE
8
BLACK
10
62403.0
20
28247.0
11
62153.0
21
27997.0
0
LINE
8
BLACK
10
62624.0
20
29426.0
11
62874.0
21
29176.0
0
LINE
8
BLACK
10
62874.0
20
29426.0
11
62624.0
21
29176.0
0
LINE
8
BLACK
10
63446.0
20
40603.0
11
63696.0
21
40353.0
0
LINE
8
BLACK
10
63696.0
20
40603.0
11
63446.0
21
40353.0
0
LINE
8
BLACK
10
63961.0
20
32279.0
11
64211.0
21
32029.0
0
LINE
8
BLACK
10
64211.0
20
32279.0
11
63961.0
21
32029.0
0
LINE
8
BLACK
10
64332.0
20
50988.0
11
64582.0
21
50738.0
0
LINE
8
BLACK
10
64582.0
20
50988.0
11
64332.0
21
50738.0
0
LINE
8
BLACK
10
64332.0
20
45720.0
11
64582.0
21
45470.0
0
LINE
8
BLACK
10
64582.0
20
45720.0
11
64332.0
21
45470.0
0
LINE
8
BLACK
10
64838.0
20
37847.0
11
65088.0
21
37597.0
0
LINE
8
BLACK
10
65088.0
20
37847.0
11
64838.0
21
37597.0
0
LINE
8
BLACK
10
64961.0
20
32921.0
11
65211.0
21
32671.0
0
LINE
8
BLACK
10
65211.0
20
32921.0
11
64961.0
21
32671.0
0
LINE
8
BLACK
10
65238.0
20
48936.0
11
65488.0
21
48686.0
0
LINE
8
BLACK
10
65488.0
20
48936.0
11
65238.0
21
48686.0
0
LINE
8
BLACK
10
65613.0
20
38870.0
11
65863.0
21
38620.0
0
LINE
8
BLACK
10
65863.0
20
38870.0
11
65613.0
21
38620.0
0
LINE
8
BLACK
10
66529.0
20
41614.0
11
66779.0
21
41364.0
0
LINE
8
BLACK
10
66779.0
20
41614.0
11
66529.0
21
41364.0
0
LINE
8
BLACK
10
67375.0
20
40571.0
11
67625.0
21
40321.0
0
LINE
8
BLACK
10
67625.0
20
40571.0
11
67375.0
21
40321.0
0
LINE
8
BLACK
10
67782.0
20
31959.0
11
68032.0
21
31709.0
0
LINE
8
BLACK
10
68032.0
20
31959.0
11
67782.0
21
31709.0
0
LINE
8
BLACK
10
68413.0
20
35270.0
11
68663.0
21
35020.0
0
LINE
8
BLACK
10
68663.0
20
35270.0
11
68413.0
21
35020.0
0
LINE
8
BLACK
10
68686.0
20
38744.0
11
68936.0
21
38494.0
0
LINE
8
BLACK
10
68936.0
20
38744.0
11
68686.0
21
38494.0
0
LINE
8
BLACK
10
69363.0
20
49296.0
11
69613.0
21
49046.0
0
LINE
8
BLACK
10
69613.0
20
49296.0
11
69363.0
21
49046.0
0
LINE
8
BLACK
10
69404.0
20
36600.0
11
69654.0
21
36350.0
0
LINE
8
BLACK
10
69654.0
20
36600.0
11
69404.0
21
36350.0
0
LINE
8
BLACK
10
69467.0
20
41161.0
11
69717.0
21
40911.0
0
LINE
8
BLACK
10
69717.0
20
41161.0
11
69467.0
21
40911.0
0
LINE
8
BLACK
10
69885.0
20
43405.0
11
70135.0
21
43155.0
0
LINE
8
BLACK
10
70135.0
20
43405.0
11
69885.0
21
43155.0
0
LINE
8
BLACK
10
69948.0
20
45348.0
11
70198.0
21
45098.0
0
LINE
8
BLACK
10
70198.0
20
45348.0
11
69948.0
21
45098.0
0
LINE
8
BLACK
10
70240.0
20
34433.0
11
70490.0
21
34183.0
0
LINE
8
BLACK
10
70490.0
20
34433.0
11
70240.0
21
34183.0
0
LINE
8
BLACK
10
70339.0
20
40614.0
11
70589.0
21
40364.0
0
LINE
8
BLACK
10
70589.0
20
40614.0
11
70339.0
21
40364.0
0
LINE
8
BLACK
10
70475.0
20
57385.0
11
70725.0
21
57135.0
0
LINE
8
BLACK
10
70725.0
20
57385.0
11
70475.0
21
57135.0
0
LINE
8
BLACK
10
71548.0
20
31671.0
11
71798.0
21
31421.0
0
LINE
8
BLACK
10
71798.0
20
31671.0
11
71548.0
21
31421.0
0
CIRCLE
8
BLACK
10
42600.0
20
39370.0
40
160
0
CIRCLE
8
BLACK
10
42600.0
20
37370.0
40
160
0
CIRCLE
8
BLACK
10
43497.0
20
44875.0
40
160
0
CIRCLE
8
BLACK
10
44497.0
20
44875.0
40
160
0
CIRCLE
8
BLACK
10
46449.0
20
44875.0
40
160
0
CIRCLE
8
BLACK
10
47449.0
20
44875.0
40
160
0
CIRCLE
8
BLACK
10
47557.0
20
54389.0
40
160
0
CIRCLE
8
BLACK
10
47557.0
20
52389.0
40
160
0
CIRCLE
8
BLACK
10
48200.0
20
33170.0
40
160
0
CIRCLE
8
BLACK
10
48200.0
20
32170.0
40
160
0
CIRCLE
8
BLACK
10
51100.0
20
33170.0
40
160
0
CIRCLE
8
BLACK
10
51100.0
20
32170.0
40
160
0
CIRCLE
8
BLACK
10
53300.0
20
44370.0
40
160
0
CIRCLE
8
BLACK
10
53300.0
20
43370.0
40
160
0
CIRCLE
8
BLACK
10
53300.0
20
42370.0
40
160
0
CIRCLE
8
BLACK
10
64300.0
20
52970.0
40
160
0
CIRCLE
8
BLACK
10
66400.0
20
56954.0
40
160
0
CIRCLE
8
BLACK
10
66400.0
20
54986.0
40
160
0
CIRCLE
8
BLACK
10
67300.0
20
52970.0
40
160
0
CIRCLE
8
BLACK
10
69169.0
20
47237.0
40
160
0
CIRCLE
8
BLACK
10
72146.0
20
50878.0
40
160
0
CIRCLE
8
BLACK
10
72146.0
20
48910.0
40
160
0
CIRCLE
8
BLACK
10
72169.0
20
47237.0
40
160
0
CIRCLE
8
BLACK
10
76000.0
20
45370.0
40
160
0
CIRCLE
8
BLACK
10
76000.0
20
44370.0
40
160
0
CIRCLE
8
BLACK
10
76000.0
20
43370.0
40
160
0
CIRCLE
8
BLACK
10
76000.0
20
42370.0
40
160
0
CIRCLE
8
BLACK
10
76000.0
20
41370.0
40
160
0
CIRCLE
8
BLACK
10
76000.0
20
40370.0
40
160
0
CIRCLE
8
BLACK
10
76000.0
20
39370.0
40
160
0
CIRCLE
8
BLACK
10
77300.0
20
45370.0
40
160
0
CIRCLE
8
BLACK
10
77300.0
20
44370.0
40
160
0
CIRCLE
8
BLACK
10
77300.0
20
43370.0
40
160
0
CIRCLE
8
BLACK
10
77300.0
20
42370.0
40
160
0
CIRCLE
8
BLACK
10
77300.0
20
41370.0
40
160
0
CIRCLE
8
BLACK
10
77300.0
20
40370.0
40
160
0
CIRCLE
8
BLACK
10
77300.0
20
39370.0
40
160
0
LINE
8
BLACK
10
34800.0
20
43970.0
11
34800.0
21
43570.0
0
LINE
8
BLACK
10
35000.0
20
43770.0
11
34600.0
21
43770.0
0
LINE
8
BLACK
10
35800.0
20
43970.0
11
35800.0
21
43570.0
0
LINE
8
BLACK
10
36000.0
20
43770.0
11
35600.0
21
43770.0
0
LINE
8
BLACK
10
36800.0
20
43970.0
11
36800.0
21
43570.0
0
LINE
8
BLACK
10
37000.0
20
43770.0
11
36600.0
21
43770.0
0
LINE
8
BLACK
10
37800.0
20
43970.0
11
37800.0
21
43570.0
0
LINE
8
BLACK
10
38000.0
20
43770.0
11
37600.0
21
43770.0
0
LINE
8
BLACK
10
38800.0
20
43970.0
11
38800.0
21
43570.0
0
LINE
8
BLACK
10
39000.0
20
43770.0
11
38600.0
21
43770.0
0
LINE
8
BLACK
10
39800.0
20
43970.0
11
39800.0
21
43570.0
0
LINE
8
BLACK
10
40000.0
20
43770.0
11
39600.0
21
43770.0
0
LINE
8
BLACK
10
40800.0
20
43970.0
11
40800.0
21
43570.0
0
LINE
8
BLACK
10
41000.0
20
43770.0
11
40600.0
21
43770.0
0
LINE
8
BLACK
10
41925.0
20
48420.0
11
41925.0
21
48020.0
0
LINE
8
BLACK
10
42125.0
20
48220.0
11
41725.0
21
48220.0
0
LINE
8
BLACK
10
41925.0
20
47270.0
11
41925.0
21
46870.0
0
LINE
8
BLACK
10
42125.0
20
47070.0
11
41725.0
21
47070.0
0
LINE
8
BLACK
10
42925.0
20
48420.0
11
42925.0
21
48020.0
0
LINE
8
BLACK
10
43125.0
20
48220.0
11
42725.0
21
48220.0
0
LINE
8
BLACK
10
42925.0
20
47270.0
11
42925.0
21
46870.0
0
LINE
8
BLACK
10
43125.0
20
47070.0
11
42725.0
21
47070.0
0
LINE
8
BLACK
10
43925.0
20
48420.0
11
43925.0
21
48020.0
0
LINE
8
BLACK
10
44125.0
20
48220.0
11
43725.0
21
48220.0
0
LINE
8
BLACK
10
43925.0
20
47270.0
11
43925.0
21
46870.0
0
LINE
8
BLACK
10
44125.0
20
47070.0
11
43725.0
21
47070.0
0
LINE
8
BLACK
10
46096.0
20
63019.0
11
46096.0
21
62619.0
0
LINE
8
BLACK
10
46296.0
20
62819.0
11
45896.0
21
62819.0
0
LINE
8
BLACK
10
46096.0
20
27131.0
11
46096.0
21
26731.0
0
LINE
8
BLACK
10
46296.0
20
26931.0
11
45896.0
21
26931.0
0
LINE
8
BLACK
10
46636.0
20
64139.0
11
46636.0
21
63739.0
0
LINE
8
BLACK
10
46836.0
20
63939.0
11
46436.0
21
63939.0
0
LINE
8
BLACK
10
46646.0
20
26011.0
11
46646.0
21
25611.0
0
LINE
8
BLACK
10
46846.0
20
25811.0
11
46446.0
21
25811.0
0
LINE
8
BLACK
10
47186.0
20
63019.0
11
47186.0
21
62619.0
0
LINE
8
BLACK
10
47386.0
20
62819.0
11
46986.0
21
62819.0
0
LINE
8
BLACK
10
47186.0
20
27131.0
11
47186.0
21
26731.0
0
LINE
8
BLACK
10
47386.0
20
26931.0
11
46986.0
21
26931.0
0
LINE
8
BLACK
10
47726.0
20
64139.0
11
47726.0
21
63739.0
0
LINE
8
BLACK
10
47926.0
20
63939.0
11
47526.0
21
63939.0
0
LINE
8
BLACK
10
47736.0
20
26011.0
11
47736.0
21
25611.0
0
LINE
8
BLACK
10
47936.0
20
25811.0
11
47536.0
21
25811.0
0
LINE
8
BLACK
10
48276.0
20
63019.0
11
48276.0
21
62619.0
0
LINE
8
BLACK
10
48476.0
20
62819.0
11
48076.0
21
62819.0
0
LINE
8
BLACK
10
48276.0
20
27131.0
11
48276.0
21
26731.0
0
LINE
8
BLACK
10
48476.0
20
26931.0
11
48076.0
21
26931.0
0
LINE
8
BLACK
10
48816.0
20
64139.0
11
48816.0
21
63739.0
0
LINE
8
BLACK
10
49016.0
20
63939.0
11
48616.0
21
63939.0
0
LINE
8
BLACK
10
48826.0
20
26011.0
11
48826.0
21
25611.0
0
LINE
8
BLACK
10
49026.0
20
25811.0
11
48626.0
21
25811.0
0
LINE
8
BLACK
10
49366.0
20
63019.0
11
49366.0
21
62619.0
0
LINE
8
BLACK
10
49566.0
20
62819.0
11
49166.0
21
62819.0
0
LINE
8
BLACK
10
49366.0
20
27131.0
11
49366.0
21
26731.0
0
LINE
8
BLACK
10
49566.0
20
26931.0
11
49166.0
21
26931.0
0
LINE
8
BLACK
10
49906.0
20
64139.0
11
49906.0
21
63739.0
0
LINE
8
BLACK
10
50106.0
20
63939.0
11
49706.0
21
63939.0
0
LINE
8
BLACK
10
49916.0
20
26011.0
11
49916.0
21
25611.0
0
LINE
8
BLACK
10
50116.0
20
25811.0
11
49716.0
21
25811.0
0
LINE
8
BLACK
10
50456.0
20
63019.0
11
50456.0
21
62619.0
0
LINE
8
BLACK
10
50656.0
20
62819.0
11
50256.0
21
62819.0
0
LINE
8
BLACK
10
50456.0
20
27131.0
11
50456.0
21
26731.0
0
LINE
8
BLACK
10
50656.0
20
26931.0
11
50256.0
21
26931.0
0
LINE
8
BLACK
10
50996.0
20
64139.0
11
50996.0
21
63739.0
0
LINE
8
BLACK
10
51196.0
20
63939.0
11
50796.0
21
63939.0
0
LINE
8
BLACK
10
51006.0
20
26011.0
11
51006.0
21
25611.0
0
LINE
8
BLACK
10
51206.0
20
25811.0
11
50806.0
21
25811.0
0
LINE
8
BLACK
10
51546.0
20
63019.0
11
51546.0
21
62619.0
0
LINE
8
BLACK
10
51746.0
20
62819.0
11
51346.0
21
62819.0
0
LINE
8
BLACK
10
51546.0
20
27131.0
11
51546.0
21
26731.0
0
LINE
8
BLACK
10
51746.0
20
26931.0
11
51346.0
21
26931.0
0
LINE
8
BLACK
10
52086.0
20
64139.0
11
52086.0
21
63739.0
0
LINE
8
BLACK
10
52286.0
20
63939.0
11
51886.0
21
63939.0
0
LINE
8
BLACK
10
52096.0
20
26011.0
11
52096.0
21
25611.0
0
LINE
8
BLACK
10
52296.0
20
25811.0
11
51896.0
21
25811.0
0
LINE
8
BLACK
10
52636.0
20
63019.0
11
52636.0
21
62619.0
0
LINE
8
BLACK
10
52836.0
20
62819.0
11
52436.0
21
62819.0
0
LINE
8
BLACK
10
52636.0
20
27131.0
11
52636.0
21
26731.0
0
LINE
8
BLACK
10
52836.0
20
26931.0
11
52436.0
21
26931.0
0
LINE
8
BLACK
10
53176.0
20
64139.0
11
53176.0
21
63739.0
0
LINE
8
BLACK
10
53376.0
20
63939.0
11
52976.0
21
63939.0
0
LINE
8
BLACK
10
53186.0
20
26011.0
11
53186.0
21
25611.0
0
LINE
8
BLACK
10
53386.0
20
25811.0
11
52986.0
21
25811.0
0
LINE
8
BLACK
10
53300.0
20
49570.0
11
53300.0
21
49170.0
0
LINE
8
BLACK
10
53500.0
20
49370.0
11
53100.0
21
49370.0
0
LINE
8
BLACK
10
53300.0
20
48570.0
11
53300.0
21
48170.0
0
LINE
8
BLACK
10
53500.0
20
48370.0
11
53100.0
21
48370.0
0
LINE
8
BLACK
10
53300.0
20
47570.0
11
53300.0
21
47170.0
0
LINE
8
BLACK
10
53500.0
20
47370.0
11
53100.0
21
47370.0
0
LINE
8
BLACK
10
53300.0
20
46570.0
11
53300.0
21
46170.0
0
LINE
8
BLACK
10
53500.0
20
46370.0
11
53100.0
21
46370.0
0
LINE
8
BLACK
10
53300.0
20
45570.0
11
53300.0
21
45170.0
0
LINE
8
BLACK
10
53500.0
20
45370.0
11
53100.0
21
45370.0
0
LINE
8
BLACK
10
53300.0
20
41570.0
11
53300.0
21
41170.0
0
LINE
8
BLACK
10
53500.0
20
41370.0
11
53100.0
21
41370.0
0
LINE
8
BLACK
10
53300.0
20
40570.0
11
53300.0
21
40170.0
0
LINE
8
BLACK
10
53500.0
20
40370.0
11
53100.0
21
40370.0
0
LINE
8
BLACK
10
53300.0
20
39570.0
11
53300.0
21
39170.0
0
LINE
8
BLACK
10
53500.0
20
39370.0
11
53100.0
21
39370.0
0
LINE
8
BLACK
10
53300.0
20
38570.0
11
53300.0
21
38170.0
0
LINE
8
BLACK
10
53500.0
20
38370.0
11
53100.0
21
38370.0
0
LINE
8
BLACK
10
53300.0
20
37570.0
11
53300.0
21
37170.0
0
LINE
8
BLACK
10
53500.0
20
37370.0
11
53100.0
21
37370.0
0
LINE
8
BLACK
10
53726.0
20
63019.0
11
53726.0
21
62619.0
0
LINE
8
BLACK
10
53926.0
20
62819.0
11
53526.0
21
62819.0
0
LINE
8
BLACK
10
53726.0
20
27131.0
11
53726.0
21
26731.0
0
LINE
8
BLACK
10
53926.0
20
26931.0
11
53526.0
21
26931.0
0
LINE
8
BLACK
10
54266.0
20
64139.0
11
54266.0
21
63739.0
0
LINE
8
BLACK
10
54466.0
20
63939.0
11
54066.0
21
63939.0
0
LINE
8
BLACK
10
54276.0
20
26011.0
11
54276.0
21
25611.0
0
LINE
8
BLACK
10
54476.0
20
25811.0
11
54076.0
21
25811.0
0
LINE
8
BLACK
10
54816.0
20
63019.0
11
54816.0
21
62619.0
0
LINE
8
BLACK
10
55016.0
20
62819.0
11
54616.0
21
62819.0
0
LINE
8
BLACK
10
54816.0
20
27131.0
11
54816.0
21
26731.0
0
LINE
8
BLACK
10
55016.0
20
26931.0
11
54616.0
21
26931.0
0
LINE
8
BLACK
10
55356.0
20
64139.0
11
55356.0
21
63739.0
0
LINE
8
BLACK
10
55556.0
20
63939.0
11
55156.0
21
63939.0
0
LINE
8
BLACK
10
55366.0
20
26011.0
11
55366.0
21
25611.0
0
LINE
8
BLACK
10
55566.0
20
25811.0
11
55166.0
21
25811.0
0
LINE
8
BLACK
10
55906.0
20
63019.0
11
55906.0
21
62619.0
0
LINE
8
BLACK
10
56106.0
20
62819.0
11
55706.0
21
62819.0
0
LINE
8
BLACK
10
55906.0
20
27131.0
11
55906.0
21
26731.0
0
LINE
8
BLACK
10
56106.0
20
26931.0
11
55706.0
21
26931.0
0
LINE
8
BLACK
10
56446.0
20
64139.0
11
56446.0
21
63739.0
0
LINE
8
BLACK
10
56646.0
20
63939.0
11
56246.0
21
63939.0
0
LINE
8
BLACK
10
56456.0
20
26011.0
11
56456.0
21
25611.0
0
LINE
8
BLACK
10
56656.0
20
25811.0
11
56256.0
21
25811.0
0
LINE
8
BLACK
10
56996.0
20
63019.0
11
56996.0
21
62619.0
0
LINE
8
BLACK
10
57196.0
20
62819.0
11
56796.0
21
62819.0
0
LINE
8
BLACK
10
56996.0
20
27131.0
11
56996.0
21
26731.0
0
LINE
8
BLACK
10
57196.0
20
26931.0
11
56796.0
21
26931.0
0
LINE
8
BLACK
10
57086.0
20
29918.0
11
57086.0
21
29518.0
0
LINE
8
BLACK
10
57286.0
20
29718.0
11
56886.0
21
29718.0
0
LINE
8
BLACK
10
57086.0
20
29130.0
11
57086.0
21
28730.0
0
LINE
8
BLACK
10
57286.0
20
28930.0
11
56886.0
21
28930.0
0
LINE
8
BLACK
10
57536.0
20
64139.0
11
57536.0
21
63739.0
0
LINE
8
BLACK
10
57736.0
20
63939.0
11
57336.0
21
63939.0
0
LINE
8
BLACK
10
57546.0
20
26011.0
11
57546.0
21
25611.0
0
LINE
8
BLACK
10
57746.0
20
25811.0
11
57346.0
21
25811.0
0
LINE
8
BLACK
10
57874.0
20
29918.0
11
57874.0
21
29518.0
0
LINE
8
BLACK
10
58074.0
20
29718.0
11
57674.0
21
29718.0
0
LINE
8
BLACK
10
57874.0
20
29130.0
11
57874.0
21
28730.0
0
LINE
8
BLACK
10
58074.0
20
28930.0
11
57674.0
21
28930.0
0
LINE
8
BLACK
10
58086.0
20
63019.0
11
58086.0
21
62619.0
0
LINE
8
BLACK
10
58286.0
20
62819.0
11
57886.0
21
62819.0
0
LINE
8
BLACK
10
58086.0
20
27131.0
11
58086.0
21
26731.0
0
LINE
8
BLACK
10
58286.0
20
26931.0
11
57886.0
21
26931.0
0
LINE
8
BLACK
10
58626.0
20
64139.0
11
58626.0
21
63739.0
0
LINE
8
BLACK
10
58826.0
20
63939.0
11
58426.0
21
63939.0
0
LINE
8
BLACK
10
58636.0
20
26011.0
11
58636.0
21
25611.0
0
LINE
8
BLACK
10
58836.0
20
25811.0
11
58436.0
21
25811.0
0
LINE
8
BLACK
10
58661.0
20
29918.0
11
58661.0
21
29518.0
0
LINE
8
BLACK
10
58861.0
20
29718.0
11
58461.0
21
29718.0
0
LINE
8
BLACK
10
58661.0
20
29130.0
11
58661.0
21
28730.0
0
LINE
8
BLACK
10
58861.0
20
28930.0
11
58461.0
21
28930.0
0
LINE
8
BLACK
10
59176.0
20
63019.0
11
59176.0
21
62619.0
0
LINE
8
BLACK
10
59376.0
20
62819.0
11
58976.0
21
62819.0
0
LINE
8
BLACK
10
59176.0
20
27131.0
11
59176.0
21
26731.0
0
LINE
8
BLACK
10
59376.0
20
26931.0
11
58976.0
21
26931.0
0
LINE
8
BLACK
10
59449.0
20
29918.0
11
59449.0
21
29518.0
0
LINE
8
BLACK
10
59649.0
20
29718.0
11
59249.0
21
29718.0
0
LINE
8
BLACK
10
59449.0
20
29130.0
11
59449.0
21
28730.0
0
LINE
8
BLACK
10
59649.0
20
28930.0
11
59249.0
21
28930.0
0
LINE
8
BLACK
10
59716.0
20
64139.0
11
59716.0
21
63739.0
0
LINE
8
BLACK
10
59916.0
20
63939.0
11
59516.0
21
63939.0
0
LINE
8
BLACK
10
59726.0
20
26011.0
11
59726.0
21
25611.0
0
LINE
8
BLACK
10
59926.0
20
25811.0
11
59526.0
21
25811.0
0
LINE
8
BLACK
10
60236.0
20
29918.0
11
60236.0
21
29518.0
0
LINE
8
BLACK
10
60436.0
20
29718.0
11
60036.0
21
29718.0
0
LINE
8
BLACK
10
60236.0
20
29130.0
11
60236.0
21
28730.0
0
LINE
8
BLACK
10
60436.0
20
28930.0
11
60036.0
21
28930.0
0
LINE
8
BLACK
10
60266.0
20
63019.0
11
60266.0
21
62619.0
0
LINE
8
BLACK
10
60466.0
20
62819.0
11
60066.0
21
62819.0
0
LINE
8
BLACK
10
60266.0
20
27131.0
11
60266.0
21
26731.0
0
LINE
8
BLACK
10
60466.0
20
26931.0
11
60066.0
21
26931.0
0
LINE
8
BLACK
10
60806.0
20
64139.0
11
60806.0
21
63739.0
0
LINE
8
BLACK
10
61006.0
20
63939.0
11
60606.0
21
63939.0
0
LINE
8
BLACK
10
60816.0
20
26011.0
11
60816.0
21
25611.0
0
LINE
8
BLACK
10
61016.0
20
25811.0
11
60616.0
21
25811.0
0
LINE
8
BLACK
10
61024.0
20
29918.0
11
61024.0
21
29518.0
0
LINE
8
BLACK
10
61224.0
20
29718.0
11
60824.0
21
29718.0
0
LINE
8
BLACK
10
61024.0
20
29130.0
11
61024.0
21
28730.0
0
LINE
8
BLACK
10
61224.0
20
28930.0
11
60824.0
21
28930.0
0
LINE
8
BLACK
10
61356.0
20
63019.0
11
61356.0
21
62619.0
0
LINE
8
BLACK
10
61556.0
20
62819.0
11
61156.0
21
62819.0
0
LINE
8
BLACK
10
61356.0
20
27131.0
11
61356.0
21
26731.0
0
LINE
8
BLACK
10
61556.0
20
26931.0
11
61156.0
21
26931.0
0
LINE
8
BLACK
10
61896.0
20
64139.0
11
61896.0
21
63739.0
0
LINE
8
BLACK
10
62096.0
20
63939.0
11
61696.0
21
63939.0
0
LINE
8
BLACK
10
61906.0
20
26011.0
11
61906.0
21
25611.0
0
LINE
8
BLACK
10
62106.0
20
25811.0
11
61706.0
21
25811.0
0
LINE
8
BLACK
10
62446.0
20
63019.0
11
62446.0
21
62619.0
0
LINE
8
BLACK
10
62646.0
20
62819.0
11
62246.0
21
62819.0
0
LINE
8
BLACK
10
62446.0
20
27131.0
11
62446.0
21
26731.0
0
LINE
8
BLACK
10
62646.0
20
26931.0
11
62246.0
21
26931.0
0
LINE
8
BLACK
10
62986.0
20
64139.0
11
62986.0
21
63739.0
0
LINE
8
BLACK
10
63186.0
20
63939.0
11
62786.0
21
63939.0
0
LINE
8
BLACK
10
62996.0
20
26011.0
11
62996.0
21
25611.0
0
LINE
8
BLACK
10
63196.0
20
25811.0
11
62796.0
21
25811.0
0
LINE
8
BLACK
10
63536.0
20
63019.0
11
63536.0
21
62619.0
0
LINE
8
BLACK
10
63736.0
20
62819.0
11
63336.0
21
62819.0
0
LINE
8
BLACK
10
63536.0
20
27131.0
11
63536.0
21
26731.0
0
LINE
8
BLACK
10
63736.0
20
26931.0
11
63336.0
21
26931.0
0
LINE
8
BLACK
10
64076.0
20
64139.0
11
64076.0
21
63739.0
0
LINE
8
BLACK
10
64276.0
20
63939.0
11
63876.0
21
63939.0
0
LINE
8
BLACK
10
64086.0
20
26011.0
11
64086.0
21
25611.0
0
LINE
8
BLACK
10
64286.0
20
25811.0
11
63886.0
21
25811.0
0
LINE
8
BLACK
10
64626.0
20
63019.0
11
64626.0
21
62619.0
0
LINE
8
BLACK
10
64826.0
20
62819.0
11
64426.0
21
62819.0
0
LINE
8
BLACK
10
64626.0
20
27131.0
11
64626.0
21
26731.0
0
LINE
8
BLACK
10
64826.0
20
26931.0
11
64426.0
21
26931.0
0
LINE
8
BLACK
10
65166.0
20
64139.0
11
65166.0
21
63739.0
0
LINE
8
BLACK
10
65366.0
20
63939.0
11
64966.0
21
63939.0
0
LINE
8
BLACK
10
65176.0
20
26011.0
11
65176.0
21
25611.0
0
LINE
8
BLACK
10
65376.0
20
25811.0
11
64976.0
21
25811.0
0
LINE
8
BLACK
10
65716.0
20
63019.0
11
65716.0
21
62619.0
0
LINE
8
BLACK
10
65916.0
20
62819.0
11
65516.0
21
62819.0
0
LINE
8
BLACK
10
65716.0
20
27131.0
11
65716.0
21
26731.0
0
LINE
8
BLACK
10
65916.0
20
26931.0
11
65516.0
21
26931.0
0
LINE
8
BLACK
10
68600.0
20
59870.0
11
68600.0
21
59470.0
0
LINE
8
BLACK
10
68800.0
20
59670.0
11
68400.0
21
59670.0
0
LINE
8
BLACK
10
70161.0
20
54524.0
11
70161.0
21
54124.0
0
LINE
8
BLACK
10
70361.0
20
54324.0
11
69961.0
21
54324.0
0
LINE
8
BLACK
10
70600.0
20
59870.0
11
70600.0
21
59470.0
0
LINE
8
BLACK
10
70800.0
20
59670.0
11
70400.0
21
59670.0
0
LINE
8
BLACK
10
72161.0
20
54524.0
11
72161.0
21
54124.0
0
LINE
8
BLACK
10
72361.0
20
54324.0
11
71961.0
21
54324.0
0
LINE
8
BLACK
10
74551.0
20
35527.0
11
74551.0
21
35127.0
0
LINE
8
BLACK
10
74751.0
20
35327.0
11
74351.0
21
35327.0
0
LINE
8
BLACK
10
76000.0
20
50570.0
11
76000.0
21
50170.0
0
LINE
8
BLACK
10
76200.0
20
50370.0
11
75800.0
21
50370.0
0
LINE
8
BLACK
10
76000.0
20
49570.0
11
76000.0
21
49170.0
0
LINE
8
BLACK
10
76200.0
20
49370.0
11
75800.0
21
49370.0
0
LINE
8
BLACK
10
76000.0
20
48570.0
11
76000.0
21
48170.0
0
LINE
8
BLACK
10
76200.0
20
48370.0
11
75800.0
21
48370.0
0
LINE
8
BLACK
10
76000.0
20
47570.0
11
76000.0
21
47170.0
0
LINE
8
BLACK
10
76200.0
20
47370.0
11
75800.0
21
47370.0
0
LINE
8
BLACK
10
76000.0
20
46570.0
11
76000.0
21
46170.0
0
LINE
8
BLACK
10
76200.0
20
46370.0
11
75800.0
21
46370.0
0
LINE
8
BLACK
10
76551.0
20
35527.0
11
76551.0
21
35127.0
0
LINE
8
BLACK
10
76751.0
20
35327.0
11
76351.0
21
35327.0
0
LINE
8
BLACK
10
77300.0
20
50570.0
11
77300.0
21
50170.0
0
LINE
8
BLACK
10
77500.0
20
50370.0
11
77100.0
21
50370.0
0
LINE
8
BLACK
10
77300.0
20
49570.0
11
77300.0
21
49170.0
0
LINE
8
BLACK
10
77500.0
20
49370.0
11
77100.0
21
49370.0
0
LINE
8
BLACK
10
77300.0
20
48570.0
11
77300.0
21
48170.0
0
LINE
8
BLACK
10
77500.0
20
48370.0
11
77100.0
21
48370.0
0
LINE
8
BLACK
10
77300.0
20
47570.0
11
77300.0
21
47170.0
0
LINE
8
BLACK
10
77500.0
20
47370.0
11
77100.0
21
47370.0
0
LINE
8
BLACK
10
77300.0
20
46570.0
11
77300.0
21
46170.0
0
LINE
8
BLACK
10
77500.0
20
46370.0
11
77100.0
21
46370.0
0
CIRCLE
8
BLACK
10
35827.0
20
41922.0
40
277
0
LINE
8
BLACK
10
35550.0
20
42199.0
11
36104.0
21
41645.0
0
LINE
8
BLACK
10
36104.0
20
42199.0
11
35550.0
21
41645.0
0
CIRCLE
8
BLACK
10
35827.0
20
39954.0
40
277
0
LINE
8
BLACK
10
35550.0
20
40231.0
11
36104.0
21
39677.0
0
LINE
8
BLACK
10
36104.0
20
40231.0
11
35550.0
21
39677.0
0
CIRCLE
8
BLACK
10
35846.0
20
37985.0
40
277
0
LINE
8
BLACK
10
35569.0
20
38262.0
11
36123.0
21
37708.0
0
LINE
8
BLACK
10
36123.0
20
38262.0
11
35569.0
21
37708.0
0
CIRCLE
8
BLACK
10
35846.0
20
36017.0
40
277
0
LINE
8
BLACK
10
35569.0
20
36294.0
11
36123.0
21
35740.0
0
LINE
8
BLACK
10
36123.0
20
36294.0
11
35569.0
21
35740.0
0
CIRCLE
8
BLACK
10
43356.0
20
26371.0
40
600
0
LINE
8
BLACK
10
42756.0
20
26371.0
11
43956.0
21
26371.0
0
CIRCLE
8
BLACK
10
43456.0
20
63379.0
40
600
0
LINE
8
BLACK
10
42856.0
20
63379.0
11
44056.0
21
63379.0
0
CIRCLE
8
BLACK
10
68356.0
20
26371.0
40
600
0
LINE
8
BLACK
10
67756.0
20
26371.0
11
68956.0
21
26371.0
0
CIRCLE
8
BLACK
10
68456.0
20
63379.0
40
600
0
LINE
8
BLACK
10
67856.0
20
63379.0
11
69056.0
21
63379.0
0
LINE
8
BLACK
10
31748.0
20
14044.0
11
31748.0
21
14844.0
0
LINE
8
BLACK
10
31748.0
20
14844.0
11
31939.0
21
14844.0
0
LINE
8
BLACK
10
31939.0
20
14844.0
11
32053.0
21
14806.0
0
LINE
8
BLACK
10
32053.0
20
14806.0
11
32129.0
21
14730.0
0
LINE
8
BLACK
10
32129.0
20
14730.0
11
32168.0
21
14654.0
0
LINE
8
BLACK
10
32168.0
20
14654.0
11
32206.0
21
14501.0
0
LINE
8
BLACK
10
32206.0
20
14501.0
11
32206.0
21
14387.0
0
LINE
8
BLACK
10
32206.0
20
14387.0
11
32168.0
21
14235.0
0
LINE
8
BLACK
10
32168.0
20
14235.0
11
32129.0
21
14158.0
0
LINE
8
BLACK
10
32129.0
20
14158.0
11
32053.0
21
14082.0
0
LINE
8
BLACK
10
32053.0
20
14082.0
11
31939.0
21
14044.0
0
LINE
8
BLACK
10
31939.0
20
14044.0
11
31748.0
21
14044.0
0
LINE
8
BLACK
10
32548.0
20
14044.0
11
32548.0
21
14578.0
0
LINE
8
BLACK
10
32548.0
20
14425.0
11
32587.0
21
14501.0
0
LINE
8
BLACK
10
32587.0
20
14501.0
11
32625.0
21
14539.0
0
LINE
8
BLACK
10
32625.0
20
14539.0
11
32701.0
21
14578.0
0
LINE
8
BLACK
10
32701.0
20
14578.0
11
32777.0
21
14578.0
0
LINE
8
BLACK
10
33043.0
20
14044.0
11
33043.0
21
14578.0
0
LINE
8
BLACK
10
33043.0
20
14844.0
11
33005.0
21
14806.0
0
LINE
8
BLACK
10
33005.0
20
14806.0
11
33043.0
21
14768.0
0
LINE
8
BLACK
10
33043.0
20
14768.0
11
33082.0
21
14806.0
0
LINE
8
BLACK
10
33082.0
20
14806.0
11
33043.0
21
14844.0
0
LINE
8
BLACK
10
33043.0
20
14844.0
11
33043.0
21
14768.0
0
LINE
8
BLACK
10
33539.0
20
14044.0
11
33463.0
21
14082.0
0
LINE
8
BLACK
10
33463.0
20
14082.0
11
33424.0
21
14158.0
0
LINE
8
BLACK
10
33424.0
20
14158.0
11
33424.0
21
14844.0
0
LINE
8
BLACK
10
33958.0
20
14044.0
11
33882.0
21
14082.0
0
LINE
8
BLACK
10
33882.0
20
14082.0
11
33843.0
21
14158.0
0
LINE
8
BLACK
10
33843.0
20
14158.0
11
33843.0
21
14844.0
0
LINE
8
BLACK
10
34872.0
20
14044.0
11
34872.0
21
14844.0
0
LINE
8
BLACK
10
34872.0
20
14844.0
11
35139.0
21
14273.0
0
LINE
8
BLACK
10
35139.0
20
14273.0
11
35406.0
21
14844.0
0
LINE
8
BLACK
10
35406.0
20
14844.0
11
35406.0
21
14044.0
0
LINE
8
BLACK
10
36129.0
20
14044.0
11
36129.0
21
14463.0
0
LINE
8
BLACK
10
36129.0
20
14463.0
11
36091.0
21
14539.0
0
LINE
8
BLACK
10
36091.0
20
14539.0
11
36015.0
21
14578.0
0
LINE
8
BLACK
10
36015.0
20
14578.0
11
35863.0
21
14578.0
0
LINE
8
BLACK
10
35863.0
20
14578.0
11
35786.0
21
14539.0
0
LINE
8
BLACK
10
36129.0
20
14082.0
11
36053.0
21
14044.0
0
LINE
8
BLACK
10
36053.0
20
14044.0
11
35863.0
21
14044.0
0
LINE
8
BLACK
10
35863.0
20
14044.0
11
35786.0
21
14082.0
0
LINE
8
BLACK
10
35786.0
20
14082.0
11
35748.0
21
14158.0
0
LINE
8
BLACK
10
35748.0
20
14158.0
11
35748.0
21
14235.0
0
LINE
8
BLACK
10
35748.0
20
14235.0
11
35786.0
21
14311.0
0
LINE
8
BLACK
10
35786.0
20
14311.0
11
35863.0
21
14349.0
0
LINE
8
BLACK
10
35863.0
20
14349.0
11
36053.0
21
14349.0
0
LINE
8
BLACK
10
36053.0
20
14349.0
11
36129.0
21
14387.0
0
LINE
8
BLACK
10
36510.0
20
14578.0
11
36510.0
21
13778.0
0
LINE
8
BLACK
10
36510.0
20
14539.0
11
36587.0
21
14578.0
0
LINE
8
BLACK
10
36587.0
20
14578.0
11
36739.0
21
14578.0
0
LINE
8
BLACK
10
36739.0
20
14578.0
11
36815.0
21
14539.0
0
LINE
8
BLACK
10
36815.0
20
14539.0
11
36853.0
21
14501.0
0
LINE
8
BLACK
10
36853.0
20
14501.0
11
36891.0
21
14425.0
0
LINE
8
BLACK
10
36891.0
20
14425.0
11
36891.0
21
14197.0
0
LINE
8
BLACK
10
36891.0
20
14197.0
11
36853.0
21
14120.0
0
LINE
8
BLACK
10
36853.0
20
14120.0
11
36815.0
21
14082.0
0
LINE
8
BLACK
10
36815.0
20
14082.0
11
36739.0
21
14044.0
0
LINE
8
BLACK
10
36739.0
20
14044.0
11
36587.0
21
14044.0
0
LINE
8
BLACK
10
36587.0
20
14044.0
11
36510.0
21
14082.0
0
LINE
8
BLACK
10
37234.0
20
14120.0
11
37273.0
21
14082.0
0
LINE
8
BLACK
10
37273.0
20
14082.0
11
37234.0
21
14044.0
0
LINE
8
BLACK
10
37234.0
20
14044.0
11
37196.0
21
14082.0
0
LINE
8
BLACK
10
37196.0
20
14082.0
11
37234.0
21
14120.0
0
LINE
8
BLACK
10
37234.0
20
14120.0
11
37234.0
21
14044.0
0
LINE
8
BLACK
10
37234.0
20
14539.0
11
37273.0
21
14501.0
0
LINE
8
BLACK
10
37273.0
20
14501.0
11
37234.0
21
14463.0
0
LINE
8
BLACK
10
37234.0
20
14463.0
11
37196.0
21
14501.0
0
LINE
8
BLACK
10
37196.0
20
14501.0
11
37234.0
21
14539.0
0
LINE
8
BLACK
10
37234.0
20
14539.0
11
37234.0
21
14463.0
0
LINE
8
BLACK
10
31108.0
20
12813.0
11
31358.0
21
12563.0
0
LINE
8
BLACK
10
31358.0
20
12813.0
11
31108.0
21
12563.0
0
LINE
8
BLACK
10
31901.0
20
13164.0
11
31977.0
21
13164.0
0
LINE
8
BLACK
10
31977.0
20
13164.0
11
32053.0
21
13126.0
0
LINE
8
BLACK
10
32053.0
20
13126.0
11
32091.0
21
13088.0
0
LINE
8
BLACK
10
32091.0
20
13088.0
11
32129.0
21
13012.0
0
LINE
8
BLACK
10
32129.0
20
13012.0
11
32168.0
21
12859.0
0
LINE
8
BLACK
10
32168.0
20
12859.0
11
32168.0
21
12669.0
0
LINE
8
BLACK
10
32168.0
20
12669.0
11
32129.0
21
12517.0
0
LINE
8
BLACK
10
32129.0
20
12517.0
11
32091.0
21
12440.0
0
LINE
8
BLACK
10
32091.0
20
12440.0
11
32053.0
21
12402.0
0
LINE
8
BLACK
10
32053.0
20
12402.0
11
31977.0
21
12364.0
0
LINE
8
BLACK
10
31977.0
20
12364.0
11
31901.0
21
12364.0
0
LINE
8
BLACK
10
31901.0
20
12364.0
11
31825.0
21
12402.0
0
LINE
8
BLACK
10
31825.0
20
12402.0
11
31787.0
21
12440.0
0
LINE
8
BLACK
10
31787.0
20
12440.0
11
31748.0
21
12517.0
0
LINE
8
BLACK
10
31748.0
20
12517.0
11
31710.0
21
12669.0
0
LINE
8
BLACK
10
31710.0
20
12669.0
11
31710.0
21
12859.0
0
LINE
8
BLACK
10
31710.0
20
12859.0
11
31748.0
21
13012.0
0
LINE
8
BLACK
10
31748.0
20
13012.0
11
31787.0
21
13088.0
0
LINE
8
BLACK
10
31787.0
20
13088.0
11
31825.0
21
13126.0
0
LINE
8
BLACK
10
31825.0
20
13126.0
11
31901.0
21
13164.0
0
LINE
8
BLACK
10
32510.0
20
12440.0
11
32549.0
21
12402.0
0
LINE
8
BLACK
10
32549.0
20
12402.0
11
32510.0
21
12364.0
0
LINE
8
BLACK
10
32510.0
20
12364.0
11
32472.0
21
12402.0
0
LINE
8
BLACK
10
32472.0
20
12402.0
11
32510.0
21
12440.0
0
LINE
8
BLACK
10
32510.0
20
12440.0
11
32510.0
21
12364.0
0
LINE
8
BLACK
10
33234.0
20
13164.0
11
33082.0
21
13164.0
0
LINE
8
BLACK
10
33082.0
20
13164.0
11
33006.0
21
13126.0
0
LINE
8
BLACK
10
33006.0
20
13126.0
11
32968.0
21
13088.0
0
LINE
8
BLACK
10
32968.0
20
13088.0
11
32891.0
21
12974.0
0
LINE
8
BLACK
10
32891.0
20
12974.0
11
32853.0
21
12821.0
0
LINE
8
BLACK
10
32853.0
20
12821.0
11
32853.0
21
12517.0
0
LINE
8
BLACK
10
32853.0
20
12517.0
11
32891.0
21
12440.0
0
LINE
8
BLACK
10
32891.0
20
12440.0
11
32930.0
21
12402.0
0
LINE
8
BLACK
10
32930.0
20
12402.0
11
33006.0
21
12364.0
0
LINE
8
BLACK
10
33006.0
20
12364.0
11
33158.0
21
12364.0
0
LINE
8
BLACK
10
33158.0
20
12364.0
11
33234.0
21
12402.0
0
LINE
8
BLACK
10
33234.0
20
12402.0
11
33272.0
21
12440.0
0
LINE
8
BLACK
10
33272.0
20
12440.0
11
33311.0
21
12517.0
0
LINE
8
BLACK
10
33311.0
20
12517.0
11
33311.0
21
12707.0
0
LINE
8
BLACK
10
33311.0
20
12707.0
11
33272.0
21
12783.0
0
LINE
8
BLACK
10
33272.0
20
12783.0
11
33234.0
21
12821.0
0
LINE
8
BLACK
10
33234.0
20
12821.0
11
33158.0
21
12859.0
0
LINE
8
BLACK
10
33158.0
20
12859.0
11
33006.0
21
12859.0
0
LINE
8
BLACK
10
33006.0
20
12859.0
11
32930.0
21
12821.0
0
LINE
8
BLACK
10
32930.0
20
12821.0
11
32891.0
21
12783.0
0
LINE
8
BLACK
10
32891.0
20
12783.0
11
32853.0
21
12707.0
0
LINE
8
BLACK
10
33996.0
20
12898.0
11
33996.0
21
12364.0
0
LINE
8
BLACK
10
33806.0
20
13202.0
11
33615.0
21
12631.0
0
LINE
8
BLACK
10
33615.0
20
12631.0
11
34111.0
21
12631.0
0
LINE
8
BLACK
10
34415.0
20
12364.0
11
34415.0
21
12898.0
0
LINE
8
BLACK
10
34415.0
20
12821.0
11
34454.0
21
12859.0
0
LINE
8
BLACK
10
34454.0
20
12859.0
11
34530.0
21
12898.0
0
LINE
8
BLACK
10
34530.0
20
12898.0
11
34644.0
21
12898.0
0
LINE
8
BLACK
10
34644.0
20
12898.0
11
34720.0
21
12859.0
0
LINE
8
BLACK
10
34720.0
20
12859.0
11
34758.0
21
12783.0
0
LINE
8
BLACK
10
34758.0
20
12783.0
11
34758.0
21
12364.0
0
LINE
8
BLACK
10
34758.0
20
12783.0
11
34796.0
21
12859.0
0
LINE
8
BLACK
10
34796.0
20
12859.0
11
34873.0
21
12898.0
0
LINE
8
BLACK
10
34873.0
20
12898.0
11
34987.0
21
12898.0
0
LINE
8
BLACK
10
34987.0
20
12898.0
11
35063.0
21
12859.0
0
LINE
8
BLACK
10
35063.0
20
12859.0
11
35101.0
21
12783.0
0
LINE
8
BLACK
10
35101.0
20
12783.0
11
35101.0
21
12364.0
0
LINE
8
BLACK
10
35482.0
20
12364.0
11
35482.0
21
12898.0
0
LINE
8
BLACK
10
35482.0
20
12821.0
11
35521.0
21
12859.0
0
LINE
8
BLACK
10
35521.0
20
12859.0
11
35597.0
21
12898.0
0
LINE
8
BLACK
10
35597.0
20
12898.0
11
35711.0
21
12898.0
0
LINE
8
BLACK
10
35711.0
20
12898.0
11
35787.0
21
12859.0
0
LINE
8
BLACK
10
35787.0
20
12859.0
11
35825.0
21
12783.0
0
LINE
8
BLACK
10
35825.0
20
12783.0
11
35825.0
21
12364.0
0
LINE
8
BLACK
10
35825.0
20
12783.0
11
35863.0
21
12859.0
0
LINE
8
BLACK
10
35863.0
20
12859.0
11
35940.0
21
12898.0
0
LINE
8
BLACK
10
35940.0
20
12898.0
11
36054.0
21
12898.0
0
LINE
8
BLACK
10
36054.0
20
12898.0
11
36130.0
21
12859.0
0
LINE
8
BLACK
10
36130.0
20
12859.0
11
36168.0
21
12783.0
0
LINE
8
BLACK
10
36168.0
20
12783.0
11
36168.0
21
12364.0
0
LINE
8
BLACK
10
37731.0
20
13202.0
11
37045.0
21
12174.0
0
LINE
8
BLACK
10
38760.0
20
13164.0
11
38836.0
21
13164.0
0
LINE
8
BLACK
10
38836.0
20
13164.0
11
38912.0
21
13126.0
0
LINE
8
BLACK
10
38912.0
20
13126.0
11
38950.0
21
13088.0
0
LINE
8
BLACK
10
38950.0
20
13088.0
11
38988.0
21
13012.0
0
LINE
8
BLACK
10
38988.0
20
13012.0
11
39027.0
21
12859.0
0
LINE
8
BLACK
10
39027.0
20
12859.0
11
39027.0
21
12669.0
0
LINE
8
BLACK
10
39027.0
20
12669.0
11
38988.0
21
12517.0
0
LINE
8
BLACK
10
38988.0
20
12517.0
11
38950.0
21
12440.0
0
LINE
8
BLACK
10
38950.0
20
12440.0
11
38912.0
21
12402.0
0
LINE
8
BLACK
10
38912.0
20
12402.0
11
38836.0
21
12364.0
0
LINE
8
BLACK
10
38836.0
20
12364.0
11
38760.0
21
12364.0
0
LINE
8
BLACK
10
38760.0
20
12364.0
11
38684.0
21
12402.0
0
LINE
8
BLACK
10
38684.0
20
12402.0
11
38646.0
21
12440.0
0
LINE
8
BLACK
10
38646.0
20
12440.0
11
38607.0
21
12517.0
0
LINE
8
BLACK
10
38607.0
20
12517.0
11
38569.0
21
12669.0
0
LINE
8
BLACK
10
38569.0
20
12669.0
11
38569.0
21
12859.0
0
LINE
8
BLACK
10
38569.0
20
12859.0
11
38607.0
21
13012.0
0
LINE
8
BLACK
10
38607.0
20
13012.0
11
38646.0
21
13088.0
0
LINE
8
BLACK
10
38646.0
20
13088.0
11
38684.0
21
13126.0
0
LINE
8
BLACK
10
38684.0
20
13126.0
11
38760.0
21
13164.0
0
LINE
8
BLACK
10
39369.0
20
12440.0
11
39408.0
21
12402.0
0
LINE
8
BLACK
10
39408.0
20
12402.0
11
39369.0
21
12364.0
0
LINE
8
BLACK
10
39369.0
20
12364.0
11
39331.0
21
12402.0
0
LINE
8
BLACK
10
39331.0
20
12402.0
11
39369.0
21
12440.0
0
LINE
8
BLACK
10
39369.0
20
12440.0
11
39369.0
21
12364.0
0
LINE
8
BLACK
10
39903.0
20
13164.0
11
39979.0
21
13164.0
0
LINE
8
BLACK
10
39979.0
20
13164.0
11
40055.0
21
13126.0
0
LINE
8
BLACK
10
40055.0
20
13126.0
11
40093.0
21
13088.0
0
LINE
8
BLACK
10
40093.0
20
13088.0
11
40131.0
21
13012.0
0
LINE
8
BLACK
10
40131.0
20
13012.0
11
40170.0
21
12859.0
0
LINE
8
BLACK
10
40170.0
20
12859.0
11
40170.0
21
12669.0
0
LINE
8
BLACK
10
40170.0
20
12669.0
11
40131.0
21
12517.0
0
LINE
8
BLACK
10
40131.0
20
12517.0
11
40093.0
21
12440.0
0
LINE
8
BLACK
10
40093.0
20
12440.0
11
40055.0
21
12402.0
0
LINE
8
BLACK
10
40055.0
20
12402.0
11
39979.0
21
12364.0
0
LINE
8
BLACK
10
39979.0
20
12364.0
11
39903.0
21
12364.0
0
LINE
8
BLACK
10
39903.0
20
12364.0
11
39827.0
21
12402.0
0
LINE
8
BLACK
10
39827.0
20
12402.0
11
39789.0
21
12440.0
0
LINE
8
BLACK
10
39789.0
20
12440.0
11
39750.0
21
12517.0
0
LINE
8
BLACK
10
39750.0
20
12517.0
11
39712.0
21
12669.0
0
LINE
8
BLACK
10
39712.0
20
12669.0
11
39712.0
21
12859.0
0
LINE
8
BLACK
10
39712.0
20
12859.0
11
39750.0
21
13012.0
0
LINE
8
BLACK
10
39750.0
20
13012.0
11
39789.0
21
13088.0
0
LINE
8
BLACK
10
39789.0
20
13088.0
11
39827.0
21
13126.0
0
LINE
8
BLACK
10
39827.0
20
13126.0
11
39903.0
21
13164.0
0
LINE
8
BLACK
10
40474.0
20
13088.0
11
40512.0
21
13126.0
0
LINE
8
BLACK
10
40512.0
20
13126.0
11
40589.0
21
13164.0
0
LINE
8
BLACK
10
40589.0
20
13164.0
11
40779.0
21
13164.0
0
LINE
8
BLACK
10
40779.0
20
13164.0
11
40855.0
21
13126.0
0
LINE
8
BLACK
10
40855.0
20
13126.0
11
40893.0
21
13088.0
0
LINE
8
BLACK
10
40893.0
20
13088.0
11
40932.0
21
13012.0
0
LINE
8
BLACK
10
40932.0
20
13012.0
11
40932.0
21
12936.0
0
LINE
8
BLACK
10
40932.0
20
12936.0
11
40893.0
21
12821.0
0
LINE
8
BLACK
10
40893.0
20
12821.0
11
40436.0
21
12364.0
0
LINE
8
BLACK
10
40436.0
20
12364.0
11
40932.0
21
12364.0
0
LINE
8
BLACK
10
41655.0
20
13164.0
11
41274.0
21
13164.0
0
LINE
8
BLACK
10
41274.0
20
13164.0
11
41236.0
21
12783.0
0
LINE
8
BLACK
10
41236.0
20
12783.0
11
41274.0
21
12821.0
0
LINE
8
BLACK
10
41274.0
20
12821.0
11
41351.0
21
12859.0
0
LINE
8
BLACK
10
41351.0
20
12859.0
11
41541.0
21
12859.0
0
LINE
8
BLACK
10
41541.0
20
12859.0
11
41617.0
21
12821.0
0
LINE
8
BLACK
10
41617.0
20
12821.0
11
41655.0
21
12783.0
0
LINE
8
BLACK
10
41655.0
20
12783.0
11
41694.0
21
12707.0
0
LINE
8
BLACK
10
41694.0
20
12707.0
11
41694.0
21
12517.0
0
LINE
8
BLACK
10
41694.0
20
12517.0
11
41655.0
21
12440.0
0
LINE
8
BLACK
10
41655.0
20
12440.0
11
41617.0
21
12402.0
0
LINE
8
BLACK
10
41617.0
20
12402.0
11
41541.0
21
12364.0
0
LINE
8
BLACK
10
41541.0
20
12364.0
11
41351.0
21
12364.0
0
LINE
8
BLACK
10
41351.0
20
12364.0
11
41274.0
21
12402.0
0
LINE
8
BLACK
10
41274.0
20
12402.0
11
41236.0
21
12440.0
0
LINE
8
BLACK
10
41998.0
20
13164.0
11
41998.0
21
13012.0
0
LINE
8
BLACK
10
42303.0
20
13164.0
11
42303.0
21
13012.0
0
LINE
8
BLACK
10
43485.0
20
12059.0
11
43447.0
21
12098.0
0
LINE
8
BLACK
10
43447.0
20
12098.0
11
43371.0
21
12212.0
0
LINE
8
BLACK
10
43371.0
20
12212.0
11
43333.0
21
12288.0
0
LINE
8
BLACK
10
43333.0
20
12288.0
11
43295.0
21
12402.0
0
LINE
8
BLACK
10
43295.0
20
12402.0
11
43256.0
21
12593.0
0
LINE
8
BLACK
10
43256.0
20
12593.0
11
43256.0
21
12745.0
0
LINE
8
BLACK
10
43256.0
20
12745.0
11
43295.0
21
12936.0
0
LINE
8
BLACK
10
43295.0
20
12936.0
11
43333.0
21
13050.0
0
LINE
8
BLACK
10
43333.0
20
13050.0
11
43371.0
21
13126.0
0
LINE
8
BLACK
10
43371.0
20
13126.0
11
43447.0
21
13240.0
0
LINE
8
BLACK
10
43447.0
20
13240.0
11
43485.0
21
13278.0
0
LINE
8
BLACK
10
44209.0
20
12364.0
11
43751.0
21
12364.0
0
LINE
8
BLACK
10
43980.0
20
12364.0
11
43980.0
21
13164.0
0
LINE
8
BLACK
10
43980.0
20
13164.0
11
43904.0
21
13050.0
0
LINE
8
BLACK
10
43904.0
20
13050.0
11
43828.0
21
12974.0
0
LINE
8
BLACK
10
43828.0
20
12974.0
11
43751.0
21
12936.0
0
LINE
8
BLACK
10
44932.0
20
13164.0
11
44551.0
21
13164.0
0
LINE
8
BLACK
10
44551.0
20
13164.0
11
44513.0
21
12783.0
0
LINE
8
BLACK
10
44513.0
20
12783.0
11
44551.0
21
12821.0
0
LINE
8
BLACK
10
44551.0
20
12821.0
11
44628.0
21
12859.0
0
LINE
8
BLACK
10
44628.0
20
12859.0
11
44818.0
21
12859.0
0
LINE
8
BLACK
10
44818.0
20
12859.0
11
44894.0
21
12821.0
0
LINE
8
BLACK
10
44894.0
20
12821.0
11
44932.0
21
12783.0
0
LINE
8
BLACK
10
44932.0
20
12783.0
11
44971.0
21
12707.0
0
LINE
8
BLACK
10
44971.0
20
12707.0
11
44971.0
21
12517.0
0
LINE
8
BLACK
10
44971.0
20
12517.0
11
44932.0
21
12440.0
0
LINE
8
BLACK
10
44932.0
20
12440.0
11
44894.0
21
12402.0
0
LINE
8
BLACK
10
44894.0
20
12402.0
11
44818.0
21
12364.0
0
LINE
8
BLACK
10
44818.0
20
12364.0
11
44628.0
21
12364.0
0
LINE
8
BLACK
10
44628.0
20
12364.0
11
44551.0
21
12402.0
0
LINE
8
BLACK
10
44551.0
20
12402.0
11
44513.0
21
12440.0
0
LINE
8
BLACK
10
45694.0
20
13164.0
11
45313.0
21
13164.0
0
LINE
8
BLACK
10
45313.0
20
13164.0
11
45275.0
21
12783.0
0
LINE
8
BLACK
10
45275.0
20
12783.0
11
45313.0
21
12821.0
0
LINE
8
BLACK
10
45313.0
20
12821.0
11
45390.0
21
12859.0
0
LINE
8
BLACK
10
45390.0
20
12859.0
11
45580.0
21
12859.0
0
LINE
8
BLACK
10
45580.0
20
12859.0
11
45656.0
21
12821.0
0
LINE
8
BLACK
10
45656.0
20
12821.0
11
45694.0
21
12783.0
0
LINE
8
BLACK
10
45694.0
20
12783.0
11
45733.0
21
12707.0
0
LINE
8
BLACK
10
45733.0
20
12707.0
11
45733.0
21
12517.0
0
LINE
8
BLACK
10
45733.0
20
12517.0
11
45694.0
21
12440.0
0
LINE
8
BLACK
10
45694.0
20
12440.0
11
45656.0
21
12402.0
0
LINE
8
BLACK
10
45656.0
20
12402.0
11
45580.0
21
12364.0
0
LINE
8
BLACK
10
45580.0
20
12364.0
11
45390.0
21
12364.0
0
LINE
8
BLACK
10
45390.0
20
12364.0
11
45313.0
21
12402.0
0
LINE
8
BLACK
10
45313.0
20
12402.0
11
45275.0
21
12440.0
0
LINE
8
BLACK
10
46685.0
20
12364.0
11
46685.0
21
13164.0
0
LINE
8
BLACK
10
47028.0
20
12364.0
11
47028.0
21
12783.0
0
LINE
8
BLACK
10
47028.0
20
12783.0
11
46990.0
21
12859.0
0
LINE
8
BLACK
10
46990.0
20
12859.0
11
46914.0
21
12898.0
0
LINE
8
BLACK
10
46914.0
20
12898.0
11
46800.0
21
12898.0
0
LINE
8
BLACK
10
46800.0
20
12898.0
11
46724.0
21
12859.0
0
LINE
8
BLACK
10
46724.0
20
12859.0
11
46685.0
21
12821.0
0
LINE
8
BLACK
10
47524.0
20
12364.0
11
47448.0
21
12402.0
0
LINE
8
BLACK
10
47448.0
20
12402.0
11
47409.0
21
12440.0
0
LINE
8
BLACK
10
47409.0
20
12440.0
11
47371.0
21
12517.0
0
LINE
8
BLACK
10
47371.0
20
12517.0
11
47371.0
21
12745.0
0
LINE
8
BLACK
10
47371.0
20
12745.0
11
47409.0
21
12821.0
0
LINE
8
BLACK
10
47409.0
20
12821.0
11
47448.0
21
12859.0
0
LINE
8
BLACK
10
47448.0
20
12859.0
11
47524.0
21
12898.0
0
LINE
8
BLACK
10
47524.0
20
12898.0
11
47638.0
21
12898.0
0
LINE
8
BLACK
10
47638.0
20
12898.0
11
47714.0
21
12859.0
0
LINE
8
BLACK
10
47714.0
20
12859.0
11
47752.0
21
12821.0
0
LINE
8
BLACK
10
47752.0
20
12821.0
11
47790.0
21
12745.0
0
LINE
8
BLACK
10
47790.0
20
12745.0
11
47790.0
21
12517.0
0
LINE
8
BLACK
10
47790.0
20
12517.0
11
47752.0
21
12440.0
0
LINE
8
BLACK
10
47752.0
20
12440.0
11
47714.0
21
12402.0
0
LINE
8
BLACK
10
47714.0
20
12402.0
11
47638.0
21
12364.0
0
LINE
8
BLACK
10
47638.0
20
12364.0
11
47524.0
21
12364.0
0
LINE
8
BLACK
10
48248.0
20
12364.0
11
48172.0
21
12402.0
0
LINE
8
BLACK
10
48172.0
20
12402.0
11
48133.0
21
12478.0
0
LINE
8
BLACK
10
48133.0
20
12478.0
11
48133.0
21
13164.0
0
LINE
8
BLACK
10
48857.0
20
12402.0
11
48781.0
21
12364.0
0
LINE
8
BLACK
10
48781.0
20
12364.0
11
48629.0
21
12364.0
0
LINE
8
BLACK
10
48629.0
20
12364.0
11
48552.0
21
12402.0
0
LINE
8
BLACK
10
48552.0
20
12402.0
11
48514.0
21
12478.0
0
LINE
8
BLACK
10
48514.0
20
12478.0
11
48514.0
21
12783.0
0
LINE
8
BLACK
10
48514.0
20
12783.0
11
48552.0
21
12859.0
0
LINE
8
BLACK
10
48552.0
20
12859.0
11
48629.0
21
12898.0
0
LINE
8
BLACK
10
48629.0
20
12898.0
11
48781.0
21
12898.0
0
LINE
8
BLACK
10
48781.0
20
12898.0
11
48857.0
21
12859.0
0
LINE
8
BLACK
10
48857.0
20
12859.0
11
48895.0
21
12783.0
0
LINE
8
BLACK
10
48895.0
20
12783.0
11
48895.0
21
12707.0
0
LINE
8
BLACK
10
48895.0
20
12707.0
11
48514.0
21
12631.0
0
LINE
8
BLACK
10
49200.0
20
12402.0
11
49277.0
21
12364.0
0
LINE
8
BLACK
10
49277.0
20
12364.0
11
49429.0
21
12364.0
0
LINE
8
BLACK
10
49429.0
20
12364.0
11
49505.0
21
12402.0
0
LINE
8
BLACK
10
49505.0
20
12402.0
11
49543.0
21
12478.0
0
LINE
8
BLACK
10
49543.0
20
12478.0
11
49543.0
21
12517.0
0
LINE
8
BLACK
10
49543.0
20
12517.0
11
49505.0
21
12593.0
0
LINE
8
BLACK
10
49505.0
20
12593.0
11
49429.0
21
12631.0
0
LINE
8
BLACK
10
49429.0
20
12631.0
11
49315.0
21
12631.0
0
LINE
8
BLACK
10
49315.0
20
12631.0
11
49238.0
21
12669.0
0
LINE
8
BLACK
10
49238.0
20
12669.0
11
49200.0
21
12745.0
0
LINE
8
BLACK
10
49200.0
20
12745.0
11
49200.0
21
12783.0
0
LINE
8
BLACK
10
49200.0
20
12783.0
11
49238.0
21
12859.0
0
LINE
8
BLACK
10
49238.0
20
12859.0
11
49315.0
21
12898.0
0
LINE
8
BLACK
10
49315.0
20
12898.0
11
49429.0
21
12898.0
0
LINE
8
BLACK
10
49429.0
20
12898.0
11
49505.0
21
12859.0
0
LINE
8
BLACK
10
49810.0
20
12059.0
11
49848.0
21
12098.0
0
LINE
8
BLACK
10
49848.0
20
12098.0
11
49925.0
21
12212.0
0
LINE
8
BLACK
10
49925.0
20
12212.0
11
49963.0
21
12288.0
0
LINE
8
BLACK
10
49963.0
20
12288.0
11
50001.0
21
12402.0
0
LINE
8
BLACK
10
50001.0
20
12402.0
11
50039.0
21
12593.0
0
LINE
8
BLACK
10
50039.0
20
12593.0
11
50039.0
21
12745.0
0
LINE
8
BLACK
10
50039.0
20
12745.0
11
50001.0
21
12936.0
0
LINE
8
BLACK
10
50001.0
20
12936.0
11
49963.0
21
13050.0
0
LINE
8
BLACK
10
49963.0
20
13050.0
11
49925.0
21
13126.0
0
LINE
8
BLACK
10
49925.0
20
13126.0
11
49848.0
21
13240.0
0
LINE
8
BLACK
10
49848.0
20
13240.0
11
49810.0
21
13278.0
0
CIRCLE
8
BLACK
10
31198.0
20
11633.0
40
160
0
LINE
8
BLACK
10
31901.0
20
12109.0
11
31977.0
21
12109.0
0
LINE
8
BLACK
10
31977.0
20
12109.0
11
32053.0
21
12071.0
0
LINE
8
BLACK
10
32053.0
20
12071.0
11
32091.0
21
12033.0
0
LINE
8
BLACK
10
32091.0
20
12033.0
11
32129.0
21
11957.0
0
LINE
8
BLACK
10
32129.0
20
11957.0
11
32168.0
21
11804.0
0
LINE
8
BLACK
10
32168.0
20
11804.0
11
32168.0
21
11614.0
0
LINE
8
BLACK
10
32168.0
20
11614.0
11
32129.0
21
11462.0
0
LINE
8
BLACK
10
32129.0
20
11462.0
11
32091.0
21
11385.0
0
LINE
8
BLACK
10
32091.0
20
11385.0
11
32053.0
21
11347.0
0
LINE
8
BLACK
10
32053.0
20
11347.0
11
31977.0
21
11309.0
0
LINE
8
BLACK
10
31977.0
20
11309.0
11
31901.0
21
11309.0
0
LINE
8
BLACK
10
31901.0
20
11309.0
11
31825.0
21
11347.0
0
LINE
8
BLACK
10
31825.0
20
11347.0
11
31787.0
21
11385.0
0
LINE
8
BLACK
10
31787.0
20
11385.0
11
31748.0
21
11462.0
0
LINE
8
BLACK
10
31748.0
20
11462.0
11
31710.0
21
11614.0
0
LINE
8
BLACK
10
31710.0
20
11614.0
11
31710.0
21
11804.0
0
LINE
8
BLACK
10
31710.0
20
11804.0
11
31748.0
21
11957.0
0
LINE
8
BLACK
10
31748.0
20
11957.0
11
31787.0
21
12033.0
0
LINE
8
BLACK
10
31787.0
20
12033.0
11
31825.0
21
12071.0
0
LINE
8
BLACK
10
31825.0
20
12071.0
11
31901.0
21
12109.0
0
LINE
8
BLACK
10
32510.0
20
11385.0
11
32549.0
21
11347.0
0
LINE
8
BLACK
10
32549.0
20
11347.0
11
32510.0
21
11309.0
0
LINE
8
BLACK
10
32510.0
20
11309.0
11
32472.0
21
11347.0
0
LINE
8
BLACK
10
32472.0
20
11347.0
11
32510.0
21
11385.0
0
LINE
8
BLACK
10
32510.0
20
11385.0
11
32510.0
21
11309.0
0
LINE
8
BLACK
10
33006.0
20
11766.0
11
32930.0
21
11804.0
0
LINE
8
BLACK
10
32930.0
20
11804.0
11
32891.0
21
11843.0
0
LINE
8
BLACK
10
32891.0
20
11843.0
11
32853.0
21
11919.0
0
LINE
8
BLACK
10
32853.0
20
11919.0
11
32853.0
21
11957.0
0
LINE
8
BLACK
10
32853.0
20
11957.0
11
32891.0
21
12033.0
0
LINE
8
BLACK
10
32891.0
20
12033.0
11
32930.0
21
12071.0
0
LINE
8
BLACK
10
32930.0
20
12071.0
11
33006.0
21
12109.0
0
LINE
8
BLACK
10
33006.0
20
12109.0
11
33158.0
21
12109.0
0
LINE
8
BLACK
10
33158.0
20
12109.0
11
33234.0
21
12071.0
0
LINE
8
BLACK
10
33234.0
20
12071.0
11
33272.0
21
12033.0
0
LINE
8
BLACK
10
33272.0
20
12033.0
11
33311.0
21
11957.0
0
LINE
8
BLACK
10
33311.0
20
11957.0
11
33311.0
21
11919.0
0
LINE
8
BLACK
10
33311.0
20
11919.0
11
33272.0
21
11843.0
0
LINE
8
BLACK
10
33272.0
20
11843.0
11
33234.0
21
11804.0
0
LINE
8
BLACK
10
33234.0
20
11804.0
11
33158.0
21
11766.0
0
LINE
8
BLACK
10
33158.0
20
11766.0
11
33006.0
21
11766.0
0
LINE
8
BLACK
10
33006.0
20
11766.0
11
32930.0
21
11728.0
0
LINE
8
BLACK
10
32930.0
20
11728.0
11
32891.0
21
11690.0
0
LINE
8
BLACK
10
32891.0
20
11690.0
11
32853.0
21
11614.0
0
LINE
8
BLACK
10
32853.0
20
11614.0
11
32853.0
21
11462.0
0
LINE
8
BLACK
10
32853.0
20
11462.0
11
32891.0
21
11385.0
0
LINE
8
BLACK
10
32891.0
20
11385.0
11
32930.0
21
11347.0
0
LINE
8
BLACK
10
32930.0
20
11347.0
11
33006.0
21
11309.0
0
LINE
8
BLACK
10
33006.0
20
11309.0
11
33158.0
21
11309.0
0
LINE
8
BLACK
10
33158.0
20
11309.0
11
33234.0
21
11347.0
0
LINE
8
BLACK
10
33234.0
20
11347.0
11
33272.0
21
11385.0
0
LINE
8
BLACK
10
33272.0
20
11385.0
11
33311.0
21
11462.0
0
LINE
8
BLACK
10
33311.0
20
11462.0
11
33311.0
21
11614.0
0
LINE
8
BLACK
10
33311.0
20
11614.0
11
33272.0
21
11690.0
0
LINE
8
BLACK
10
33272.0
20
11690.0
11
33234.0
21
11728.0
0
LINE
8
BLACK
10
33234.0
20
11728.0
11
33158.0
21
11766.0
0
LINE
8
BLACK
10
34073.0
20
11309.0
11
33615.0
21
11309.0
0
LINE
8
BLACK
10
33844.0
20
11309.0
11
33844.0
21
12109.0
0
LINE
8
BLACK
10
33844.0
20
12109.0
11
33768.0
21
11995.0
0
LINE
8
BLACK
10
33768.0
20
11995.0
11
33692.0
21
11919.0
0
LINE
8
BLACK
10
33692.0
20
11919.0
11
33615.0
21
11881.0
0
LINE
8
BLACK
10
34415.0
20
11309.0
11
34415.0
21
11843.0
0
LINE
8
BLACK
10
34415.0
20
11766.0
11
34454.0
21
11804.0
0
LINE
8
BLACK
10
34454.0
20
11804.0
11
34530.0
21
11843.0
0
LINE
8
BLACK
10
34530.0
20
11843.0
11
34644.0
21
11843.0
0
LINE
8
BLACK
10
34644.0
20
11843.0
11
34720.0
21
11804.0
0
LINE
8
BLACK
10
34720.0
20
11804.0
11
34758.0
21
11728.0
0
LINE
8
BLACK
10
34758.0
20
11728.0
11
34758.0
21
11309.0
0
LINE
8
BLACK
10
34758.0
20
11728.0
11
34796.0
21
11804.0
0
LINE
8
BLACK
10
34796.0
20
11804.0
11
34873.0
21
11843.0
0
LINE
8
BLACK
10
34873.0
20
11843.0
11
34987.0
21
11843.0
0
LINE
8
BLACK
10
34987.0
20
11843.0
11
35063.0
21
11804.0
0
LINE
8
BLACK
10
35063.0
20
11804.0
11
35101.0
21
11728.0
0
LINE
8
BLACK
10
35101.0
20
11728.0
11
35101.0
21
11309.0
0
LINE
8
BLACK
10
35482.0
20
11309.0
11
35482.0
21
11843.0
0
LINE
8
BLACK
10
35482.0
20
11766.0
11
35521.0
21
11804.0
0
LINE
8
BLACK
10
35521.0
20
11804.0
11
35597.0
21
11843.0
0
LINE
8
BLACK
10
35597.0
20
11843.0
11
35711.0
21
11843.0
0
LINE
8
BLACK
10
35711.0
20
11843.0
11
35787.0
21
11804.0
0
LINE
8
BLACK
10
35787.0
20
11804.0
11
35825.0
21
11728.0
0
LINE
8
BLACK
10
35825.0
20
11728.0
11
35825.0
21
11309.0
0
LINE
8
BLACK
10
35825.0
20
11728.0
11
35863.0
21
11804.0
0
LINE
8
BLACK
10
35863.0
20
11804.0
11
35940.0
21
11843.0
0
LINE
8
BLACK
10
35940.0
20
11843.0
11
36054.0
21
11843.0
0
LINE
8
BLACK
10
36054.0
20
11843.0
11
36130.0
21
11804.0
0
LINE
8
BLACK
10
36130.0
20
11804.0
11
36168.0
21
11728.0
0
LINE
8
BLACK
10
36168.0
20
11728.0
11
36168.0
21
11309.0
0
LINE
8
BLACK
10
37731.0
20
12147.0
11
37045.0
21
11119.0
0
LINE
8
BLACK
10
38760.0
20
12109.0
11
38836.0
21
12109.0
0
LINE
8
BLACK
10
38836.0
20
12109.0
11
38912.0
21
12071.0
0
LINE
8
BLACK
10
38912.0
20
12071.0
11
38950.0
21
12033.0
0
LINE
8
BLACK
10
38950.0
20
12033.0
11
38988.0
21
11957.0
0
LINE
8
BLACK
10
38988.0
20
11957.0
11
39027.0
21
11804.0
0
LINE
8
BLACK
10
39027.0
20
11804.0
11
39027.0
21
11614.0
0
LINE
8
BLACK
10
39027.0
20
11614.0
11
38988.0
21
11462.0
0
LINE
8
BLACK
10
38988.0
20
11462.0
11
38950.0
21
11385.0
0
LINE
8
BLACK
10
38950.0
20
11385.0
11
38912.0
21
11347.0
0
LINE
8
BLACK
10
38912.0
20
11347.0
11
38836.0
21
11309.0
0
LINE
8
BLACK
10
38836.0
20
11309.0
11
38760.0
21
11309.0
0
LINE
8
BLACK
10
38760.0
20
11309.0
11
38684.0
21
11347.0
0
LINE
8
BLACK
10
38684.0
20
11347.0
11
38646.0
21
11385.0
0
LINE
8
BLACK
10
38646.0
20
11385.0
11
38607.0
21
11462.0
0
LINE
8
BLACK
10
38607.0
20
11462.0
11
38569.0
21
11614.0
0
LINE
8
BLACK
10
38569.0
20
11614.0
11
38569.0
21
11804.0
0
LINE
8
BLACK
10
38569.0
20
11804.0
11
38607.0
21
11957.0
0
LINE
8
BLACK
10
38607.0
20
11957.0
11
38646.0
21
12033.0
0
LINE
8
BLACK
10
38646.0
20
12033.0
11
38684.0
21
12071.0
0
LINE
8
BLACK
10
38684.0
20
12071.0
11
38760.0
21
12109.0
0
LINE
8
BLACK
10
39369.0
20
11385.0
11
39408.0
21
11347.0
0
LINE
8
BLACK
10
39408.0
20
11347.0
11
39369.0
21
11309.0
0
LINE
8
BLACK
10
39369.0
20
11309.0
11
39331.0
21
11347.0
0
LINE
8
BLACK
10
39331.0
20
11347.0
11
39369.0
21
11385.0
0
LINE
8
BLACK
10
39369.0
20
11385.0
11
39369.0
21
11309.0
0
LINE
8
BLACK
10
39903.0
20
12109.0
11
39979.0
21
12109.0
0
LINE
8
BLACK
10
39979.0
20
12109.0
11
40055.0
21
12071.0
0
LINE
8
BLACK
10
40055.0
20
12071.0
11
40093.0
21
12033.0
0
LINE
8
BLACK
10
40093.0
20
12033.0
11
40131.0
21
11957.0
0
LINE
8
BLACK
10
40131.0
20
11957.0
11
40170.0
21
11804.0
0
LINE
8
BLACK
10
40170.0
20
11804.0
11
40170.0
21
11614.0
0
LINE
8
BLACK
10
40170.0
20
11614.0
11
40131.0
21
11462.0
0
LINE
8
BLACK
10
40131.0
20
11462.0
11
40093.0
21
11385.0
0
LINE
8
BLACK
10
40093.0
20
11385.0
11
40055.0
21
11347.0
0
LINE
8
BLACK
10
40055.0
20
11347.0
11
39979.0
21
11309.0
0
LINE
8
BLACK
10
39979.0
20
11309.0
11
39903.0
21
11309.0
0
LINE
8
BLACK
10
39903.0
20
11309.0
11
39827.0
21
11347.0
0
LINE
8
BLACK
10
39827.0
20
11347.0
11
39789.0
21
11385.0
0
LINE
8
BLACK
10
39789.0
20
11385.0
11
39750.0
21
11462.0
0
LINE
8
BLACK
10
39750.0
20
11462.0
11
39712.0
21
11614.0
0
LINE
8
BLACK
10
39712.0
20
11614.0
11
39712.0
21
11804.0
0
LINE
8
BLACK
10
39712.0
20
11804.0
11
39750.0
21
11957.0
0
LINE
8
BLACK
10
39750.0
20
11957.0
11
39789.0
21
12033.0
0
LINE
8
BLACK
10
39789.0
20
12033.0
11
39827.0
21
12071.0
0
LINE
8
BLACK
10
39827.0
20
12071.0
11
39903.0
21
12109.0
0
LINE
8
BLACK
10
40436.0
20
12109.0
11
40932.0
21
12109.0
0
LINE
8
BLACK
10
40932.0
20
12109.0
11
40665.0
21
11804.0
0
LINE
8
BLACK
10
40665.0
20
11804.0
11
40779.0
21
11804.0
0
LINE
8
BLACK
10
40779.0
20
11804.0
11
40855.0
21
11766.0
0
LINE
8
BLACK
10
40855.0
20
11766.0
11
40893.0
21
11728.0
0
LINE
8
BLACK
10
40893.0
20
11728.0
11
40932.0
21
11652.0
0
LINE
8
BLACK
10
40932.0
20
11652.0
11
40932.0
21
11462.0
0
LINE
8
BLACK
10
40932.0
20
11462.0
11
40893.0
21
11385.0
0
LINE
8
BLACK
10
40893.0
20
11385.0
11
40855.0
21
11347.0
0
LINE
8
BLACK
10
40855.0
20
11347.0
11
40779.0
21
11309.0
0
LINE
8
BLACK
10
40779.0
20
11309.0
11
40551.0
21
11309.0
0
LINE
8
BLACK
10
40551.0
20
11309.0
11
40474.0
21
11347.0
0
LINE
8
BLACK
10
40474.0
20
11347.0
11
40436.0
21
11385.0
0
LINE
8
BLACK
10
41236.0
20
12033.0
11
41274.0
21
12071.0
0
LINE
8
BLACK
10
41274.0
20
12071.0
11
41351.0
21
12109.0
0
LINE
8
BLACK
10
41351.0
20
12109.0
11
41541.0
21
12109.0
0
LINE
8
BLACK
10
41541.0
20
12109.0
11
41617.0
21
12071.0
0
LINE
8
BLACK
10
41617.0
20
12071.0
11
41655.0
21
12033.0
0
LINE
8
BLACK
10
41655.0
20
12033.0
11
41694.0
21
11957.0
0
LINE
8
BLACK
10
41694.0
20
11957.0
11
41694.0
21
11881.0
0
LINE
8
BLACK
10
41694.0
20
11881.0
11
41655.0
21
11766.0
0
LINE
8
BLACK
10
41655.0
20
11766.0
11
41198.0
21
11309.0
0
LINE
8
BLACK
10
41198.0
20
11309.0
11
41694.0
21
11309.0
0
LINE
8
BLACK
10
41998.0
20
12109.0
11
41998.0
21
11957.0
0
LINE
8
BLACK
10
42303.0
20
12109.0
11
42303.0
21
11957.0
0
LINE
8
BLACK
10
43485.0
20
11004.0
11
43447.0
21
11043.0
0
LINE
8
BLACK
10
43447.0
20
11043.0
11
43371.0
21
11157.0
0
LINE
8
BLACK
10
43371.0
20
11157.0
11
43333.0
21
11233.0
0
LINE
8
BLACK
10
43333.0
20
11233.0
11
43295.0
21
11347.0
0
LINE
8
BLACK
10
43295.0
20
11347.0
11
43256.0
21
11538.0
0
LINE
8
BLACK
10
43256.0
20
11538.0
11
43256.0
21
11690.0
0
LINE
8
BLACK
10
43256.0
20
11690.0
11
43295.0
21
11881.0
0
LINE
8
BLACK
10
43295.0
20
11881.0
11
43333.0
21
11995.0
0
LINE
8
BLACK
10
43333.0
20
11995.0
11
43371.0
21
12071.0
0
LINE
8
BLACK
10
43371.0
20
12071.0
11
43447.0
21
12185.0
0
LINE
8
BLACK
10
43447.0
20
12185.0
11
43485.0
21
12223.0
0
LINE
8
BLACK
10
43713.0
20
12109.0
11
44209.0
21
12109.0
0
LINE
8
BLACK
10
44209.0
20
12109.0
11
43942.0
21
11804.0
0
LINE
8
BLACK
10
43942.0
20
11804.0
11
44056.0
21
11804.0
0
LINE
8
BLACK
10
44056.0
20
11804.0
11
44132.0
21
11766.0
0
LINE
8
BLACK
10
44132.0
20
11766.0
11
44170.0
21
11728.0
0
LINE
8
BLACK
10
44170.0
20
11728.0
11
44209.0
21
11652.0
0
LINE
8
BLACK
10
44209.0
20
11652.0
11
44209.0
21
11462.0
0
LINE
8
BLACK
10
44209.0
20
11462.0
11
44170.0
21
11385.0
0
LINE
8
BLACK
10
44170.0
20
11385.0
11
44132.0
21
11347.0
0
LINE
8
BLACK
10
44132.0
20
11347.0
11
44056.0
21
11309.0
0
LINE
8
BLACK
10
44056.0
20
11309.0
11
43828.0
21
11309.0
0
LINE
8
BLACK
10
43828.0
20
11309.0
11
43751.0
21
11347.0
0
LINE
8
BLACK
10
43751.0
20
11347.0
11
43713.0
21
11385.0
0
LINE
8
BLACK
10
44475.0
20
12109.0
11
45009.0
21
12109.0
0
LINE
8
BLACK
10
45009.0
20
12109.0
11
44666.0
21
11309.0
0
LINE
8
BLACK
10
45923.0
20
11309.0
11
45923.0
21
12109.0
0
LINE
8
BLACK
10
46266.0
20
11309.0
11
46266.0
21
11728.0
0
LINE
8
BLACK
10
46266.0
20
11728.0
11
46228.0
21
11804.0
0
LINE
8
BLACK
10
46228.0
20
11804.0
11
46152.0
21
11843.0
0
LINE
8
BLACK
10
46152.0
20
11843.0
11
46038.0
21
11843.0
0
LINE
8
BLACK
10
46038.0
20
11843.0
11
45962.0
21
11804.0
0
LINE
8
BLACK
10
45962.0
20
11804.0
11
45923.0
21
11766.0
0
LINE
8
BLACK
10
46762.0
20
11309.0
11
46686.0
21
11347.0
0
LINE
8
BLACK
10
46686.0
20
11347.0
11
46647.0
21
11385.0
0
LINE
8
BLACK
10
46647.0
20
11385.0
11
46609.0
21
11462.0
0
LINE
8
BLACK
10
46609.0
20
11462.0
11
46609.0
21
11690.0
0
LINE
8
BLACK
10
46609.0
20
11690.0
11
46647.0
21
11766.0
0
LINE
8
BLACK
10
46647.0
20
11766.0
11
46686.0
21
11804.0
0
LINE
8
BLACK
10
46686.0
20
11804.0
11
46762.0
21
11843.0
0
LINE
8
BLACK
10
46762.0
20
11843.0
11
46876.0
21
11843.0
0
LINE
8
BLACK
10
46876.0
20
11843.0
11
46952.0
21
11804.0
0
LINE
8
BLACK
10
46952.0
20
11804.0
11
46990.0
21
11766.0
0
LINE
8
BLACK
10
46990.0
20
11766.0
11
47028.0
21
11690.0
0
LINE
8
BLACK
10
47028.0
20
11690.0
11
47028.0
21
11462.0
0
LINE
8
BLACK
10
47028.0
20
11462.0
11
46990.0
21
11385.0
0
LINE
8
BLACK
10
46990.0
20
11385.0
11
46952.0
21
11347.0
0
LINE
8
BLACK
10
46952.0
20
11347.0
11
46876.0
21
11309.0
0
LINE
8
BLACK
10
46876.0
20
11309.0
11
46762.0
21
11309.0
0
LINE
8
BLACK
10
47486.0
20
11309.0
11
47410.0
21
11347.0
0
LINE
8
BLACK
10
47410.0
20
11347.0
11
47371.0
21
11423.0
0
LINE
8
BLACK
10
47371.0
20
11423.0
11
47371.0
21
12109.0
0
LINE
8
BLACK
10
48095.0
20
11347.0
11
48019.0
21
11309.0
0
LINE
8
BLACK
10
48019.0
20
11309.0
11
47867.0
21
11309.0
0
LINE
8
BLACK
10
47867.0
20
11309.0
11
47790.0
21
11347.0
0
LINE
8
BLACK
10
47790.0
20
11347.0
11
47752.0
21
11423.0
0
LINE
8
BLACK
10
47752.0
20
11423.0
11
47752.0
21
11728.0
0
LINE
8
BLACK
10
47752.0
20
11728.0
11
47790.0
21
11804.0
0
LINE
8
BLACK
10
47790.0
20
11804.0
11
47867.0
21
11843.0
0
LINE
8
BLACK
10
47867.0
20
11843.0
11
48019.0
21
11843.0
0
LINE
8
BLACK
10
48019.0
20
11843.0
11
48095.0
21
11804.0
0
LINE
8
BLACK
10
48095.0
20
11804.0
11
48133.0
21
11728.0
0
LINE
8
BLACK
10
48133.0
20
11728.0
11
48133.0
21
11652.0
0
LINE
8
BLACK
10
48133.0
20
11652.0
11
47752.0
21
11576.0
0
LINE
8
BLACK
10
48438.0
20
11347.0
11
48515.0
21
11309.0
0
LINE
8
BLACK
10
48515.0
20
11309.0
11
48667.0
21
11309.0
0
LINE
8
BLACK
10
48667.0
20
11309.0
11
48743.0
21
11347.0
0
LINE
8
BLACK
10
48743.0
20
11347.0
11
48781.0
21
11423.0
0
LINE
8
BLACK
10
48781.0
20
11423.0
11
48781.0
21
11462.0
0
LINE
8
BLACK
10
48781.0
20
11462.0
11
48743.0
21
11538.0
0
LINE
8
BLACK
10
48743.0
20
11538.0
11
48667.0
21
11576.0
0
LINE
8
BLACK
10
48667.0
20
11576.0
11
48553.0
21
11576.0
0
LINE
8
BLACK
10
48553.0
20
11576.0
11
48476.0
21
11614.0
0
LINE
8
BLACK
10
48476.0
20
11614.0
11
48438.0
21
11690.0
0
LINE
8
BLACK
10
48438.0
20
11690.0
11
48438.0
21
11728.0
0
LINE
8
BLACK
10
48438.0
20
11728.0
11
48476.0
21
11804.0
0
LINE
8
BLACK
10
48476.0
20
11804.0
11
48553.0
21
11843.0
0
LINE
8
BLACK
10
48553.0
20
11843.0
11
48667.0
21
11843.0
0
LINE
8
BLACK
10
48667.0
20
11843.0
11
48743.0
21
11804.0
0
LINE
8
BLACK
10
49048.0
20
11004.0
11
49086.0
21
11043.0
0
LINE
8
BLACK
10
49086.0
20
11043.0
11
49163.0
21
11157.0
0
LINE
8
BLACK
10
49163.0
20
11157.0
11
49201.0
21
11233.0
0
LINE
8
BLACK
10
49201.0
20
11233.0
11
49239.0
21
11347.0
0
LINE
8
BLACK
10
49239.0
20
11347.0
11
49277.0
21
11538.0
0
LINE
8
BLACK
10
49277.0
20
11538.0
11
49277.0
21
11690.0
0
LINE
8
BLACK
10
49277.0
20
11690.0
11
49239.0
21
11881.0
0
LINE
8
BLACK
10
49239.0
20
11881.0
11
49201.0
21
11995.0
0
LINE
8
BLACK
10
49201.0
20
11995.0
11
49163.0
21
12071.0
0
LINE
8
BLACK
10
49163.0
20
12071.0
11
49086.0
21
12185.0
0
LINE
8
BLACK
10
49086.0
20
12185.0
11
49048.0
21
12223.0
0
LINE
8
BLACK
10
31158.0
20
10778.0
11
31158.0
21
10378.0
0
LINE
8
BLACK
10
31358.0
20
10578.0
11
30958.0
21
10578.0
0
LINE
8
BLACK
10
32168.0
20
10254.0
11
31710.0
21
10254.0
0
LINE
8
BLACK
10
31939.0
20
10254.0
11
31939.0
21
11054.0
0
LINE
8
BLACK
10
31939.0
20
11054.0
11
31863.0
21
10940.0
0
LINE
8
BLACK
10
31863.0
20
10940.0
11
31787.0
21
10864.0
0
LINE
8
BLACK
10
31787.0
20
10864.0
11
31710.0
21
10826.0
0
LINE
8
BLACK
10
32510.0
20
10330.0
11
32549.0
21
10292.0
0
LINE
8
BLACK
10
32549.0
20
10292.0
11
32510.0
21
10254.0
0
LINE
8
BLACK
10
32510.0
20
10254.0
11
32472.0
21
10292.0
0
LINE
8
BLACK
10
32472.0
20
10292.0
11
32510.0
21
10330.0
0
LINE
8
BLACK
10
32510.0
20
10330.0
11
32510.0
21
10254.0
0
LINE
8
BLACK
10
33044.0
20
11054.0
11
33120.0
21
11054.0
0
LINE
8
BLACK
10
33120.0
20
11054.0
11
33196.0
21
11016.0
0
LINE
8
BLACK
10
33196.0
20
11016.0
11
33234.0
21
10978.0
0
LINE
8
BLACK
10
33234.0
20
10978.0
11
33272.0
21
10902.0
0
LINE
8
BLACK
10
33272.0
20
10902.0
11
33311.0
21
10749.0
0
LINE
8
BLACK
10
33311.0
20
10749.0
11
33311.0
21
10559.0
0
LINE
8
BLACK
10
33311.0
20
10559.0
11
33272.0
21
10407.0
0
LINE
8
BLACK
10
33272.0
20
10407.0
11
33234.0
21
10330.0
0
LINE
8
BLACK
10
33234.0
20
10330.0
11
33196.0
21
10292.0
0
LINE
8
BLACK
10
33196.0
20
10292.0
11
33120.0
21
10254.0
0
LINE
8
BLACK
10
33120.0
20
10254.0
11
33044.0
21
10254.0
0
LINE
8
BLACK
10
33044.0
20
10254.0
11
32968.0
21
10292.0
0
LINE
8
BLACK
10
32968.0
20
10292.0
11
32930.0
21
10330.0
0
LINE
8
BLACK
10
32930.0
20
10330.0
11
32891.0
21
10407.0
0
LINE
8
BLACK
10
32891.0
20
10407.0
11
32853.0
21
10559.0
0
LINE
8
BLACK
10
32853.0
20
10559.0
11
32853.0
21
10749.0
0
LINE
8
BLACK
10
32853.0
20
10749.0
11
32891.0
21
10902.0
0
LINE
8
BLACK
10
32891.0
20
10902.0
11
32930.0
21
10978.0
0
LINE
8
BLACK
10
32930.0
20
10978.0
11
32968.0
21
11016.0
0
LINE
8
BLACK
10
32968.0
20
11016.0
11
33044.0
21
11054.0
0
LINE
8
BLACK
10
33615.0
20
10978.0
11
33653.0
21
11016.0
0
LINE
8
BLACK
10
33653.0
20
11016.0
11
33730.0
21
11054.0
0
LINE
8
BLACK
10
33730.0
20
11054.0
11
33920.0
21
11054.0
0
LINE
8
BLACK
10
33920.0
20
11054.0
11
33996.0
21
11016.0
0
LINE
8
BLACK
10
33996.0
20
11016.0
11
34034.0
21
10978.0
0
LINE
8
BLACK
10
34034.0
20
10978.0
11
34073.0
21
10902.0
0
LINE
8
BLACK
10
34073.0
20
10902.0
11
34073.0
21
10826.0
0
LINE
8
BLACK
10
34073.0
20
10826.0
11
34034.0
21
10711.0
0
LINE
8
BLACK
10
34034.0
20
10711.0
11
33577.0
21
10254.0
0
LINE
8
BLACK
10
33577.0
20
10254.0
11
34073.0
21
10254.0
0
LINE
8
BLACK
10
34415.0
20
10254.0
11
34415.0
21
10788.0
0
LINE
8
BLACK
10
34415.0
20
10711.0
11
34454.0
21
10749.0
0
LINE
8
BLACK
10
34454.0
20
10749.0
11
34530.0
21
10788.0
0
LINE
8
BLACK
10
34530.0
20
10788.0
11
34644.0
21
10788.0
0
LINE
8
BLACK
10
34644.0
20
10788.0
11
34720.0
21
10749.0
0
LINE
8
BLACK
10
34720.0
20
10749.0
11
34758.0
21
10673.0
0
LINE
8
BLACK
10
34758.0
20
10673.0
11
34758.0
21
10254.0
0
LINE
8
BLACK
10
34758.0
20
10673.0
11
34796.0
21
10749.0
0
LINE
8
BLACK
10
34796.0
20
10749.0
11
34873.0
21
10788.0
0
LINE
8
BLACK
10
34873.0
20
10788.0
11
34987.0
21
10788.0
0
LINE
8
BLACK
10
34987.0
20
10788.0
11
35063.0
21
10749.0
0
LINE
8
BLACK
10
35063.0
20
10749.0
11
35101.0
21
10673.0
0
LINE
8
BLACK
10
35101.0
20
10673.0
11
35101.0
21
10254.0
0
LINE
8
BLACK
10
35482.0
20
10254.0
11
35482.0
21
10788.0
0
LINE
8
BLACK
10
35482.0
20
10711.0
11
35521.0
21
10749.0
0
LINE
8
BLACK
10
35521.0
20
10749.0
11
35597.0
21
10788.0
0
LINE
8
BLACK
10
35597.0
20
10788.0
11
35711.0
21
10788.0
0
LINE
8
BLACK
10
35711.0
20
10788.0
11
35787.0
21
10749.0
0
LINE
8
BLACK
10
35787.0
20
10749.0
11
35825.0
21
10673.0
0
LINE
8
BLACK
10
35825.0
20
10673.0
11
35825.0
21
10254.0
0
LINE
8
BLACK
10
35825.0
20
10673.0
11
35863.0
21
10749.0
0
LINE
8
BLACK
10
35863.0
20
10749.0
11
35940.0
21
10788.0
0
LINE
8
BLACK
10
35940.0
20
10788.0
11
36054.0
21
10788.0
0
LINE
8
BLACK
10
36054.0
20
10788.0
11
36130.0
21
10749.0
0
LINE
8
BLACK
10
36130.0
20
10749.0
11
36168.0
21
10673.0
0
LINE
8
BLACK
10
36168.0
20
10673.0
11
36168.0
21
10254.0
0
LINE
8
BLACK
10
37731.0
20
11092.0
11
37045.0
21
10064.0
0
LINE
8
BLACK
10
38760.0
20
11054.0
11
38836.0
21
11054.0
0
LINE
8
BLACK
10
38836.0
20
11054.0
11
38912.0
21
11016.0
0
LINE
8
BLACK
10
38912.0
20
11016.0
11
38950.0
21
10978.0
0
LINE
8
BLACK
10
38950.0
20
10978.0
11
38988.0
21
10902.0
0
LINE
8
BLACK
10
38988.0
20
10902.0
11
39027.0
21
10749.0
0
LINE
8
BLACK
10
39027.0
20
10749.0
11
39027.0
21
10559.0
0
LINE
8
BLACK
10
39027.0
20
10559.0
11
38988.0
21
10407.0
0
LINE
8
BLACK
10
38988.0
20
10407.0
11
38950.0
21
10330.0
0
LINE
8
BLACK
10
38950.0
20
10330.0
11
38912.0
21
10292.0
0
LINE
8
BLACK
10
38912.0
20
10292.0
11
38836.0
21
10254.0
0
LINE
8
BLACK
10
38836.0
20
10254.0
11
38760.0
21
10254.0
0
LINE
8
BLACK
10
38760.0
20
10254.0
11
38684.0
21
10292.0
0
LINE
8
BLACK
10
38684.0
20
10292.0
11
38646.0
21
10330.0
0
LINE
8
BLACK
10
38646.0
20
10330.0
11
38607.0
21
10407.0
0
LINE
8
BLACK
10
38607.0
20
10407.0
11
38569.0
21
10559.0
0
LINE
8
BLACK
10
38569.0
20
10559.0
11
38569.0
21
10749.0
0
LINE
8
BLACK
10
38569.0
20
10749.0
11
38607.0
21
10902.0
0
LINE
8
BLACK
10
38607.0
20
10902.0
11
38646.0
21
10978.0
0
LINE
8
BLACK
10
38646.0
20
10978.0
11
38684.0
21
11016.0
0
LINE
8
BLACK
10
38684.0
20
11016.0
11
38760.0
21
11054.0
0
LINE
8
BLACK
10
39369.0
20
10330.0
11
39408.0
21
10292.0
0
LINE
8
BLACK
10
39408.0
20
10292.0
11
39369.0
21
10254.0
0
LINE
8
BLACK
10
39369.0
20
10254.0
11
39331.0
21
10292.0
0
LINE
8
BLACK
10
39331.0
20
10292.0
11
39369.0
21
10330.0
0
LINE
8
BLACK
10
39369.0
20
10330.0
11
39369.0
21
10254.0
0
LINE
8
BLACK
10
39903.0
20
11054.0
11
39979.0
21
11054.0
0
LINE
8
BLACK
10
39979.0
20
11054.0
11
40055.0
21
11016.0
0
LINE
8
BLACK
10
40055.0
20
11016.0
11
40093.0
21
10978.0
0
LINE
8
BLACK
10
40093.0
20
10978.0
11
40131.0
21
10902.0
0
LINE
8
BLACK
10
40131.0
20
10902.0
11
40170.0
21
10749.0
0
LINE
8
BLACK
10
40170.0
20
10749.0
11
40170.0
21
10559.0
0
LINE
8
BLACK
10
40170.0
20
10559.0
11
40131.0
21
10407.0
0
LINE
8
BLACK
10
40131.0
20
10407.0
11
40093.0
21
10330.0
0
LINE
8
BLACK
10
40093.0
20
10330.0
11
40055.0
21
10292.0
0
LINE
8
BLACK
10
40055.0
20
10292.0
11
39979.0
21
10254.0
0
LINE
8
BLACK
10
39979.0
20
10254.0
11
39903.0
21
10254.0
0
LINE
8
BLACK
10
39903.0
20
10254.0
11
39827.0
21
10292.0
0
LINE
8
BLACK
10
39827.0
20
10292.0
11
39789.0
21
10330.0
0
LINE
8
BLACK
10
39789.0
20
10330.0
11
39750.0
21
10407.0
0
LINE
8
BLACK
10
39750.0
20
10407.0
11
39712.0
21
10559.0
0
LINE
8
BLACK
10
39712.0
20
10559.0
11
39712.0
21
10749.0
0
LINE
8
BLACK
10
39712.0
20
10749.0
11
39750.0
21
10902.0
0
LINE
8
BLACK
10
39750.0
20
10902.0
11
39789.0
21
10978.0
0
LINE
8
BLACK
10
39789.0
20
10978.0
11
39827.0
21
11016.0
0
LINE
8
BLACK
10
39827.0
20
11016.0
11
39903.0
21
11054.0
0
LINE
8
BLACK
10
40855.0
20
10788.0
11
40855.0
21
10254.0
0
LINE
8
BLACK
10
40665.0
20
11092.0
11
40474.0
21
10521.0
0
LINE
8
BLACK
10
40474.0
20
10521.0
11
40970.0
21
10521.0
0
LINE
8
BLACK
10
41427.0
20
11054.0
11
41503.0
21
11054.0
0
LINE
8
BLACK
10
41503.0
20
11054.0
11
41579.0
21
11016.0
0
LINE
8
BLACK
10
41579.0
20
11016.0
11
41617.0
21
10978.0
0
LINE
8
BLACK
10
41617.0
20
10978.0
11
41655.0
21
10902.0
0
LINE
8
BLACK
10
41655.0
20
10902.0
11
41694.0
21
10749.0
0
LINE
8
BLACK
10
41694.0
20
10749.0
11
41694.0
21
10559.0
0
LINE
8
BLACK
10
41694.0
20
10559.0
11
41655.0
21
10407.0
0
LINE
8
BLACK
10
41655.0
20
10407.0
11
41617.0
21
10330.0
0
LINE
8
BLACK
10
41617.0
20
10330.0
11
41579.0
21
10292.0
0
LINE
8
BLACK
10
41579.0
20
10292.0
11
41503.0
21
10254.0
0
LINE
8
BLACK
10
41503.0
20
10254.0
11
41427.0
21
10254.0
0
LINE
8
BLACK
10
41427.0
20
10254.0
11
41351.0
21
10292.0
0
LINE
8
BLACK
10
41351.0
20
10292.0
11
41313.0
21
10330.0
0
LINE
8
BLACK
10
41313.0
20
10330.0
11
41274.0
21
10407.0
0
LINE
8
BLACK
10
41274.0
20
10407.0
11
41236.0
21
10559.0
0
LINE
8
BLACK
10
41236.0
20
10559.0
11
41236.0
21
10749.0
0
LINE
8
BLACK
10
41236.0
20
10749.0
11
41274.0
21
10902.0
0
LINE
8
BLACK
10
41274.0
20
10902.0
11
41313.0
21
10978.0
0
LINE
8
BLACK
10
41313.0
20
10978.0
11
41351.0
21
11016.0
0
LINE
8
BLACK
10
41351.0
20
11016.0
11
41427.0
21
11054.0
0
LINE
8
BLACK
10
41998.0
20
11054.0
11
41998.0
21
10902.0
0
LINE
8
BLACK
10
42303.0
20
11054.0
11
42303.0
21
10902.0
0
LINE
8
BLACK
10
43485.0
20
9949.0
11
43447.0
21
9988.0
0
LINE
8
BLACK
10
43447.0
20
9988.0
11
43371.0
21
10102.0
0
LINE
8
BLACK
10
43371.0
20
10102.0
11
43333.0
21
10178.0
0
LINE
8
BLACK
10
43333.0
20
10178.0
11
43295.0
21
10292.0
0
LINE
8
BLACK
10
43295.0
20
10292.0
11
43256.0
21
10483.0
0
LINE
8
BLACK
10
43256.0
20
10483.0
11
43256.0
21
10635.0
0
LINE
8
BLACK
10
43256.0
20
10635.0
11
43295.0
21
10826.0
0
LINE
8
BLACK
10
43295.0
20
10826.0
11
43333.0
21
10940.0
0
LINE
8
BLACK
10
43333.0
20
10940.0
11
43371.0
21
11016.0
0
LINE
8
BLACK
10
43371.0
20
11016.0
11
43447.0
21
11130.0
0
LINE
8
BLACK
10
43447.0
20
11130.0
11
43485.0
21
11168.0
0
LINE
8
BLACK
10
44209.0
20
10254.0
11
43751.0
21
10254.0
0
LINE
8
BLACK
10
43980.0
20
10254.0
11
43980.0
21
11054.0
0
LINE
8
BLACK
10
43980.0
20
11054.0
11
43904.0
21
10940.0
0
LINE
8
BLACK
10
43904.0
20
10940.0
11
43828.0
21
10864.0
0
LINE
8
BLACK
10
43828.0
20
10864.0
11
43751.0
21
10826.0
0
LINE
8
BLACK
10
44513.0
20
10978.0
11
44551.0
21
11016.0
0
LINE
8
BLACK
10
44551.0
20
11016.0
11
44628.0
21
11054.0
0
LINE
8
BLACK
10
44628.0
20
11054.0
11
44818.0
21
11054.0
0
LINE
8
BLACK
10
44818.0
20
11054.0
11
44894.0
21
11016.0
0
LINE
8
BLACK
10
44894.0
20
11016.0
11
44932.0
21
10978.0
0
LINE
8
BLACK
10
44932.0
20
10978.0
11
44971.0
21
10902.0
0
LINE
8
BLACK
10
44971.0
20
10902.0
11
44971.0
21
10826.0
0
LINE
8
BLACK
10
44971.0
20
10826.0
11
44932.0
21
10711.0
0
LINE
8
BLACK
10
44932.0
20
10711.0
11
44475.0
21
10254.0
0
LINE
8
BLACK
10
44475.0
20
10254.0
11
44971.0
21
10254.0
0
LINE
8
BLACK
10
45694.0
20
11054.0
11
45313.0
21
11054.0
0
LINE
8
BLACK
10
45313.0
20
11054.0
11
45275.0
21
10673.0
0
LINE
8
BLACK
10
45275.0
20
10673.0
11
45313.0
21
10711.0
0
LINE
8
BLACK
10
45313.0
20
10711.0
11
45390.0
21
10749.0
0
LINE
8
BLACK
10
45390.0
20
10749.0
11
45580.0
21
10749.0
0
LINE
8
BLACK
10
45580.0
20
10749.0
11
45656.0
21
10711.0
0
LINE
8
BLACK
10
45656.0
20
10711.0
11
45694.0
21
10673.0
0
LINE
8
BLACK
10
45694.0
20
10673.0
11
45733.0
21
10597.0
0
LINE
8
BLACK
10
45733.0
20
10597.0
11
45733.0
21
10407.0
0
LINE
8
BLACK
10
45733.0
20
10407.0
11
45694.0
21
10330.0
0
LINE
8
BLACK
10
45694.0
20
10330.0
11
45656.0
21
10292.0
0
LINE
8
BLACK
10
45656.0
20
10292.0
11
45580.0
21
10254.0
0
LINE
8
BLACK
10
45580.0
20
10254.0
11
45390.0
21
10254.0
0
LINE
8
BLACK
10
45390.0
20
10254.0
11
45313.0
21
10292.0
0
LINE
8
BLACK
10
45313.0
20
10292.0
11
45275.0
21
10330.0
0
LINE
8
BLACK
10
46685.0
20
10254.0
11
46685.0
21
11054.0
0
LINE
8
BLACK
10
47028.0
20
10254.0
11
47028.0
21
10673.0
0
LINE
8
BLACK
10
47028.0
20
10673.0
11
46990.0
21
10749.0
0
LINE
8
BLACK
10
46990.0
20
10749.0
11
46914.0
21
10788.0
0
LINE
8
BLACK
10
46914.0
20
10788.0
11
46800.0
21
10788.0
0
LINE
8
BLACK
10
46800.0
20
10788.0
11
46724.0
21
10749.0
0
LINE
8
BLACK
10
46724.0
20
10749.0
11
46685.0
21
10711.0
0
LINE
8
BLACK
10
47524.0
20
10254.0
11
47448.0
21
10292.0
0
LINE
8
BLACK
10
47448.0
20
10292.0
11
47409.0
21
10330.0
0
LINE
8
BLACK
10
47409.0
20
10330.0
11
47371.0
21
10407.0
0
LINE
8
BLACK
10
47371.0
20
10407.0
11
47371.0
21
10635.0
0
LINE
8
BLACK
10
47371.0
20
10635.0
11
47409.0
21
10711.0
0
LINE
8
BLACK
10
47409.0
20
10711.0
11
47448.0
21
10749.0
0
LINE
8
BLACK
10
47448.0
20
10749.0
11
47524.0
21
10788.0
0
LINE
8
BLACK
10
47524.0
20
10788.0
11
47638.0
21
10788.0
0
LINE
8
BLACK
10
47638.0
20
10788.0
11
47714.0
21
10749.0
0
LINE
8
BLACK
10
47714.0
20
10749.0
11
47752.0
21
10711.0
0
LINE
8
BLACK
10
47752.0
20
10711.0
11
47790.0
21
10635.0
0
LINE
8
BLACK
10
47790.0
20
10635.0
11
47790.0
21
10407.0
0
LINE
8
BLACK
10
47790.0
20
10407.0
11
47752.0
21
10330.0
0
LINE
8
BLACK
10
47752.0
20
10330.0
11
47714.0
21
10292.0
0
LINE
8
BLACK
10
47714.0
20
10292.0
11
47638.0
21
10254.0
0
LINE
8
BLACK
10
47638.0
20
10254.0
11
47524.0
21
10254.0
0
LINE
8
BLACK
10
48248.0
20
10254.0
11
48172.0
21
10292.0
0
LINE
8
BLACK
10
48172.0
20
10292.0
11
48133.0
21
10368.0
0
LINE
8
BLACK
10
48133.0
20
10368.0
11
48133.0
21
11054.0
0
LINE
8
BLACK
10
48857.0
20
10292.0
11
48781.0
21
10254.0
0
LINE
8
BLACK
10
48781.0
20
10254.0
11
48629.0
21
10254.0
0
LINE
8
BLACK
10
48629.0
20
10254.0
11
48552.0
21
10292.0
0
LINE
8
BLACK
10
48552.0
20
10292.0
11
48514.0
21
10368.0
0
LINE
8
BLACK
10
48514.0
20
10368.0
11
48514.0
21
10673.0
0
LINE
8
BLACK
10
48514.0
20
10673.0
11
48552.0
21
10749.0
0
LINE
8
BLACK
10
48552.0
20
10749.0
11
48629.0
21
10788.0
0
LINE
8
BLACK
10
48629.0
20
10788.0
11
48781.0
21
10788.0
0
LINE
8
BLACK
10
48781.0
20
10788.0
11
48857.0
21
10749.0
0
LINE
8
BLACK
10
48857.0
20
10749.0
11
48895.0
21
10673.0
0
LINE
8
BLACK
10
48895.0
20
10673.0
11
48895.0
21
10597.0
0
LINE
8
BLACK
10
48895.0
20
10597.0
11
48514.0
21
10521.0
0
LINE
8
BLACK
10
49200.0
20
10292.0
11
49277.0
21
10254.0
0
LINE
8
BLACK
10
49277.0
20
10254.0
11
49429.0
21
10254.0
0
LINE
8
BLACK
10
49429.0
20
10254.0
11
49505.0
21
10292.0
0
LINE
8
BLACK
10
49505.0
20
10292.0
11
49543.0
21
10368.0
0
LINE
8
BLACK
10
49543.0
20
10368.0
11
49543.0
21
10407.0
0
LINE
8
BLACK
10
49543.0
20
10407.0
11
49505.0
21
10483.0
0
LINE
8
BLACK
10
49505.0
20
10483.0
11
49429.0
21
10521.0
0
LINE
8
BLACK
10
49429.0
20
10521.0
11
49315.0
21
10521.0
0
LINE
8
BLACK
10
49315.0
20
10521.0
11
49238.0
21
10559.0
0
LINE
8
BLACK
10
49238.0
20
10559.0
11
49200.0
21
10635.0
0
LINE
8
BLACK
10
49200.0
20
10635.0
11
49200.0
21
10673.0
0
LINE
8
BLACK
10
49200.0
20
10673.0
11
49238.0
21
10749.0
0
LINE
8
BLACK
10
49238.0
20
10749.0
11
49315.0
21
10788.0
0
LINE
8
BLACK
10
49315.0
20
10788.0
11
49429.0
21
10788.0
0
LINE
8
BLACK
10
49429.0
20
10788.0
11
49505.0
21
10749.0
0
LINE
8
BLACK
10
49810.0
20
9949.0
11
49848.0
21
9988.0
0
LINE
8
BLACK
10
49848.0
20
9988.0
11
49925.0
21
10102.0
0
LINE
8
BLACK
10
49925.0
20
10102.0
11
49963.0
21
10178.0
0
LINE
8
BLACK
10
49963.0
20
10178.0
11
50001.0
21
10292.0
0
LINE
8
BLACK
10
50001.0
20
10292.0
11
50039.0
21
10483.0
0
LINE
8
BLACK
10
50039.0
20
10483.0
11
50039.0
21
10635.0
0
LINE
8
BLACK
10
50039.0
20
10635.0
11
50001.0
21
10826.0
0
LINE
8
BLACK
10
50001.0
20
10826.0
11
49963.0
21
10940.0
0
LINE
8
BLACK
10
49963.0
20
10940.0
11
49925.0
21
11016.0
0
LINE
8
BLACK
10
49925.0
20
11016.0
11
49848.0
21
11130.0
0
LINE
8
BLACK
10
49848.0
20
11130.0
11
49810.0
21
11168.0
0
CIRCLE
8
BLACK
10
31080.0
20
9523.0
40
277
0
LINE
8
BLACK
10
30803.0
20
9800.0
11
31357.0
21
9246.0
0
LINE
8
BLACK
10
31357.0
20
9800.0
11
30803.0
21
9246.0
0
LINE
8
BLACK
10
32168.0
20
9199.0
11
31710.0
21
9199.0
0
LINE
8
BLACK
10
31939.0
20
9199.0
11
31939.0
21
9999.0
0
LINE
8
BLACK
10
31939.0
20
9999.0
11
31863.0
21
9885.0
0
LINE
8
BLACK
10
31863.0
20
9885.0
11
31787.0
21
9809.0
0
LINE
8
BLACK
10
31787.0
20
9809.0
11
31710.0
21
9771.0
0
LINE
8
BLACK
10
32510.0
20
9275.0
11
32549.0
21
9237.0
0
LINE
8
BLACK
10
32549.0
20
9237.0
11
32510.0
21
9199.0
0
LINE
8
BLACK
10
32510.0
20
9199.0
11
32472.0
21
9237.0
0
LINE
8
BLACK
10
32472.0
20
9237.0
11
32510.0
21
9275.0
0
LINE
8
BLACK
10
32510.0
20
9275.0
11
32510.0
21
9199.0
0
LINE
8
BLACK
10
33234.0
20
9733.0
11
33234.0
21
9199.0
0
LINE
8
BLACK
10
33044.0
20
10037.0
11
32853.0
21
9466.0
0
LINE
8
BLACK
10
32853.0
20
9466.0
11
33349.0
21
9466.0
0
LINE
8
BLACK
10
34073.0
20
9199.0
11
33615.0
21
9199.0
0
LINE
8
BLACK
10
33844.0
20
9199.0
11
33844.0
21
9999.0
0
LINE
8
BLACK
10
33844.0
20
9999.0
11
33768.0
21
9885.0
0
LINE
8
BLACK
10
33768.0
20
9885.0
11
33692.0
21
9809.0
0
LINE
8
BLACK
10
33692.0
20
9809.0
11
33615.0
21
9771.0
0
LINE
8
BLACK
10
34415.0
20
9199.0
11
34415.0
21
9733.0
0
LINE
8
BLACK
10
34415.0
20
9656.0
11
34454.0
21
9694.0
0
LINE
8
BLACK
10
34454.0
20
9694.0
11
34530.0
21
9733.0
0
LINE
8
BLACK
10
34530.0
20
9733.0
11
34644.0
21
9733.0
0
LINE
8
BLACK
10
34644.0
20
9733.0
11
34720.0
21
9694.0
0
LINE
8
BLACK
10
34720.0
20
9694.0
11
34758.0
21
9618.0
0
LINE
8
BLACK
10
34758.0
20
9618.0
11
34758.0
21
9199.0
0
LINE
8
BLACK
10
34758.0
20
9618.0
11
34796.0
21
9694.0
0
LINE
8
BLACK
10
34796.0
20
9694.0
11
34873.0
21
9733.0
0
LINE
8
BLACK
10
34873.0
20
9733.0
11
34987.0
21
9733.0
0
LINE
8
BLACK
10
34987.0
20
9733.0
11
35063.0
21
9694.0
0
LINE
8
BLACK
10
35063.0
20
9694.0
11
35101.0
21
9618.0
0
LINE
8
BLACK
10
35101.0
20
9618.0
11
35101.0
21
9199.0
0
LINE
8
BLACK
10
35482.0
20
9199.0
11
35482.0
21
9733.0
0
LINE
8
BLACK
10
35482.0
20
9656.0
11
35521.0
21
9694.0
0
LINE
8
BLACK
10
35521.0
20
9694.0
11
35597.0
21
9733.0
0
LINE
8
BLACK
10
35597.0
20
9733.0
11
35711.0
21
9733.0
0
LINE
8
BLACK
10
35711.0
20
9733.0
11
35787.0
21
9694.0
0
LINE
8
BLACK
10
35787.0
20
9694.0
11
35825.0
21
9618.0
0
LINE
8
BLACK
10
35825.0
20
9618.0
11
35825.0
21
9199.0
0
LINE
8
BLACK
10
35825.0
20
9618.0
11
35863.0
21
9694.0
0
LINE
8
BLACK
10
35863.0
20
9694.0
11
35940.0
21
9733.0
0
LINE
8
BLACK
10
35940.0
20
9733.0
11
36054.0
21
9733.0
0
LINE
8
BLACK
10
36054.0
20
9733.0
11
36130.0
21
9694.0
0
LINE
8
BLACK
10
36130.0
20
9694.0
11
36168.0
21
9618.0
0
LINE
8
BLACK
10
36168.0
20
9618.0
11
36168.0
21
9199.0
0
LINE
8
BLACK
10
37731.0
20
10037.0
11
37045.0
21
9009.0
0
LINE
8
BLACK
10
38760.0
20
9999.0
11
38836.0
21
9999.0
0
LINE
8
BLACK
10
38836.0
20
9999.0
11
38912.0
21
9961.0
0
LINE
8
BLACK
10
38912.0
20
9961.0
11
38950.0
21
9923.0
0
LINE
8
BLACK
10
38950.0
20
9923.0
11
38988.0
21
9847.0
0
LINE
8
BLACK
10
38988.0
20
9847.0
11
39027.0
21
9694.0
0
LINE
8
BLACK
10
39027.0
20
9694.0
11
39027.0
21
9504.0
0
LINE
8
BLACK
10
39027.0
20
9504.0
11
38988.0
21
9352.0
0
LINE
8
BLACK
10
38988.0
20
9352.0
11
38950.0
21
9275.0
0
LINE
8
BLACK
10
38950.0
20
9275.0
11
38912.0
21
9237.0
0
LINE
8
BLACK
10
38912.0
20
9237.0
11
38836.0
21
9199.0
0
LINE
8
BLACK
10
38836.0
20
9199.0
11
38760.0
21
9199.0
0
LINE
8
BLACK
10
38760.0
20
9199.0
11
38684.0
21
9237.0
0
LINE
8
BLACK
10
38684.0
20
9237.0
11
38646.0
21
9275.0
0
LINE
8
BLACK
10
38646.0
20
9275.0
11
38607.0
21
9352.0
0
LINE
8
BLACK
10
38607.0
20
9352.0
11
38569.0
21
9504.0
0
LINE
8
BLACK
10
38569.0
20
9504.0
11
38569.0
21
9694.0
0
LINE
8
BLACK
10
38569.0
20
9694.0
11
38607.0
21
9847.0
0
LINE
8
BLACK
10
38607.0
20
9847.0
11
38646.0
21
9923.0
0
LINE
8
BLACK
10
38646.0
20
9923.0
11
38684.0
21
9961.0
0
LINE
8
BLACK
10
38684.0
20
9961.0
11
38760.0
21
9999.0
0
LINE
8
BLACK
10
39369.0
20
9275.0
11
39408.0
21
9237.0
0
LINE
8
BLACK
10
39408.0
20
9237.0
11
39369.0
21
9199.0
0
LINE
8
BLACK
10
39369.0
20
9199.0
11
39331.0
21
9237.0
0
LINE
8
BLACK
10
39331.0
20
9237.0
11
39369.0
21
9275.0
0
LINE
8
BLACK
10
39369.0
20
9275.0
11
39369.0
21
9199.0
0
LINE
8
BLACK
10
39903.0
20
9999.0
11
39979.0
21
9999.0
0
LINE
8
BLACK
10
39979.0
20
9999.0
11
40055.0
21
9961.0
0
LINE
8
BLACK
10
40055.0
20
9961.0
11
40093.0
21
9923.0
0
LINE
8
BLACK
10
40093.0
20
9923.0
11
40131.0
21
9847.0
0
LINE
8
BLACK
10
40131.0
20
9847.0
11
40170.0
21
9694.0
0
LINE
8
BLACK
10
40170.0
20
9694.0
11
40170.0
21
9504.0
0
LINE
8
BLACK
10
40170.0
20
9504.0
11
40131.0
21
9352.0
0
LINE
8
BLACK
10
40131.0
20
9352.0
11
40093.0
21
9275.0
0
LINE
8
BLACK
10
40093.0
20
9275.0
11
40055.0
21
9237.0
0
LINE
8
BLACK
10
40055.0
20
9237.0
11
39979.0
21
9199.0
0
LINE
8
BLACK
10
39979.0
20
9199.0
11
39903.0
21
9199.0
0
LINE
8
BLACK
10
39903.0
20
9199.0
11
39827.0
21
9237.0
0
LINE
8
BLACK
10
39827.0
20
9237.0
11
39789.0
21
9275.0
0
LINE
8
BLACK
10
39789.0
20
9275.0
11
39750.0
21
9352.0
0
LINE
8
BLACK
10
39750.0
20
9352.0
11
39712.0
21
9504.0
0
LINE
8
BLACK
10
39712.0
20
9504.0
11
39712.0
21
9694.0
0
LINE
8
BLACK
10
39712.0
20
9694.0
11
39750.0
21
9847.0
0
LINE
8
BLACK
10
39750.0
20
9847.0
11
39789.0
21
9923.0
0
LINE
8
BLACK
10
39789.0
20
9923.0
11
39827.0
21
9961.0
0
LINE
8
BLACK
10
39827.0
20
9961.0
11
39903.0
21
9999.0
0
LINE
8
BLACK
10
40893.0
20
9999.0
11
40512.0
21
9999.0
0
LINE
8
BLACK
10
40512.0
20
9999.0
11
40474.0
21
9618.0
0
LINE
8
BLACK
10
40474.0
20
9618.0
11
40512.0
21
9656.0
0
LINE
8
BLACK
10
40512.0
20
9656.0
11
40589.0
21
9694.0
0
LINE
8
BLACK
10
40589.0
20
9694.0
11
40779.0
21
9694.0
0
LINE
8
BLACK
10
40779.0
20
9694.0
11
40855.0
21
9656.0
0
LINE
8
BLACK
10
40855.0
20
9656.0
11
40893.0
21
9618.0
0
LINE
8
BLACK
10
40893.0
20
9618.0
11
40932.0
21
9542.0
0
LINE
8
BLACK
10
40932.0
20
9542.0
11
40932.0
21
9352.0
0
LINE
8
BLACK
10
40932.0
20
9352.0
11
40893.0
21
9275.0
0
LINE
8
BLACK
10
40893.0
20
9275.0
11
40855.0
21
9237.0
0
LINE
8
BLACK
10
40855.0
20
9237.0
11
40779.0
21
9199.0
0
LINE
8
BLACK
10
40779.0
20
9199.0
11
40589.0
21
9199.0
0
LINE
8
BLACK
10
40589.0
20
9199.0
11
40512.0
21
9237.0
0
LINE
8
BLACK
10
40512.0
20
9237.0
11
40474.0
21
9275.0
0
LINE
8
BLACK
10
41617.0
20
9999.0
11
41465.0
21
9999.0
0
LINE
8
BLACK
10
41465.0
20
9999.0
11
41389.0
21
9961.0
0
LINE
8
BLACK
10
41389.0
20
9961.0
11
41351.0
21
9923.0
0
LINE
8
BLACK
10
41351.0
20
9923.0
11
41274.0
21
9809.0
0
LINE
8
BLACK
10
41274.0
20
9809.0
11
41236.0
21
9656.0
0
LINE
8
BLACK
10
41236.0
20
9656.0
11
41236.0
21
9352.0
0
LINE
8
BLACK
10
41236.0
20
9352.0
11
41274.0
21
9275.0
0
LINE
8
BLACK
10
41274.0
20
9275.0
11
41313.0
21
9237.0
0
LINE
8
BLACK
10
41313.0
20
9237.0
11
41389.0
21
9199.0
0
LINE
8
BLACK
10
41389.0
20
9199.0
11
41541.0
21
9199.0
0
LINE
8
BLACK
10
41541.0
20
9199.0
11
41617.0
21
9237.0
0
LINE
8
BLACK
10
41617.0
20
9237.0
11
41655.0
21
9275.0
0
LINE
8
BLACK
10
41655.0
20
9275.0
11
41694.0
21
9352.0
0
LINE
8
BLACK
10
41694.0
20
9352.0
11
41694.0
21
9542.0
0
LINE
8
BLACK
10
41694.0
20
9542.0
11
41655.0
21
9618.0
0
LINE
8
BLACK
10
41655.0
20
9618.0
11
41617.0
21
9656.0
0
LINE
8
BLACK
10
41617.0
20
9656.0
11
41541.0
21
9694.0
0
LINE
8
BLACK
10
41541.0
20
9694.0
11
41389.0
21
9694.0
0
LINE
8
BLACK
10
41389.0
20
9694.0
11
41313.0
21
9656.0
0
LINE
8
BLACK
10
41313.0
20
9656.0
11
41274.0
21
9618.0
0
LINE
8
BLACK
10
41274.0
20
9618.0
11
41236.0
21
9542.0
0
LINE
8
BLACK
10
41998.0
20
9999.0
11
41998.0
21
9847.0
0
LINE
8
BLACK
10
42303.0
20
9999.0
11
42303.0
21
9847.0
0
LINE
8
BLACK
10
43485.0
20
8894.0
11
43447.0
21
8933.0
0
LINE
8
BLACK
10
43447.0
20
8933.0
11
43371.0
21
9047.0
0
LINE
8
BLACK
10
43371.0
20
9047.0
11
43333.0
21
9123.0
0
LINE
8
BLACK
10
43333.0
20
9123.0
11
43295.0
21
9237.0
0
LINE
8
BLACK
10
43295.0
20
9237.0
11
43256.0
21
9428.0
0
LINE
8
BLACK
10
43256.0
20
9428.0
11
43256.0
21
9580.0
0
LINE
8
BLACK
10
43256.0
20
9580.0
11
43295.0
21
9771.0
0
LINE
8
BLACK
10
43295.0
20
9771.0
11
43333.0
21
9885.0
0
LINE
8
BLACK
10
43333.0
20
9885.0
11
43371.0
21
9961.0
0
LINE
8
BLACK
10
43371.0
20
9961.0
11
43447.0
21
10075.0
0
LINE
8
BLACK
10
43447.0
20
10075.0
11
43485.0
21
10113.0
0
LINE
8
BLACK
10
44132.0
20
9733.0
11
44132.0
21
9199.0
0
LINE
8
BLACK
10
43942.0
20
10037.0
11
43751.0
21
9466.0
0
LINE
8
BLACK
10
43751.0
20
9466.0
11
44247.0
21
9466.0
0
LINE
8
BLACK
10
45161.0
20
9199.0
11
45161.0
21
9999.0
0
LINE
8
BLACK
10
45504.0
20
9199.0
11
45504.0
21
9618.0
0
LINE
8
BLACK
10
45504.0
20
9618.0
11
45466.0
21
9694.0
0
LINE
8
BLACK
10
45466.0
20
9694.0
11
45390.0
21
9733.0
0
LINE
8
BLACK
10
45390.0
20
9733.0
11
45276.0
21
9733.0
0
LINE
8
BLACK
10
45276.0
20
9733.0
11
45200.0
21
9694.0
0
LINE
8
BLACK
10
45200.0
20
9694.0
11
45161.0
21
9656.0
0
LINE
8
BLACK
10
46000.0
20
9199.0
11
45924.0
21
9237.0
0
LINE
8
BLACK
10
45924.0
20
9237.0
11
45885.0
21
9275.0
0
LINE
8
BLACK
10
45885.0
20
9275.0
11
45847.0
21
9352.0
0
LINE
8
BLACK
10
45847.0
20
9352.0
11
45847.0
21
9580.0
0
LINE
8
BLACK
10
45847.0
20
9580.0
11
45885.0
21
9656.0
0
LINE
8
BLACK
10
45885.0
20
9656.0
11
45924.0
21
9694.0
0
LINE
8
BLACK
10
45924.0
20
9694.0
11
46000.0
21
9733.0
0
LINE
8
BLACK
10
46000.0
20
9733.0
11
46114.0
21
9733.0
0
LINE
8
BLACK
10
46114.0
20
9733.0
11
46190.0
21
9694.0
0
LINE
8
BLACK
10
46190.0
20
9694.0
11
46228.0
21
9656.0
0
LINE
8
BLACK
10
46228.0
20
9656.0
11
46266.0
21
9580.0
0
LINE
8
BLACK
10
46266.0
20
9580.0
11
46266.0
21
9352.0
0
LINE
8
BLACK
10
46266.0
20
9352.0
11
46228.0
21
9275.0
0
LINE
8
BLACK
10
46228.0
20
9275.0
11
46190.0
21
9237.0
0
LINE
8
BLACK
10
46190.0
20
9237.0
11
46114.0
21
9199.0
0
LINE
8
BLACK
10
46114.0
20
9199.0
11
46000.0
21
9199.0
0
LINE
8
BLACK
10
46724.0
20
9199.0
11
46648.0
21
9237.0
0
LINE
8
BLACK
10
46648.0
20
9237.0
11
46609.0
21
9313.0
0
LINE
8
BLACK
10
46609.0
20
9313.0
11
46609.0
21
9999.0
0
LINE
8
BLACK
10
47333.0
20
9237.0
11
47257.0
21
9199.0
0
LINE
8
BLACK
10
47257.0
20
9199.0
11
47105.0
21
9199.0
0
LINE
8
BLACK
10
47105.0
20
9199.0
11
47028.0
21
9237.0
0
LINE
8
BLACK
10
47028.0
20
9237.0
11
46990.0
21
9313.0
0
LINE
8
BLACK
10
46990.0
20
9313.0
11
46990.0
21
9618.0
0
LINE
8
BLACK
10
46990.0
20
9618.0
11
47028.0
21
9694.0
0
LINE
8
BLACK
10
47028.0
20
9694.0
11
47105.0
21
9733.0
0
LINE
8
BLACK
10
47105.0
20
9733.0
11
47257.0
21
9733.0
0
LINE
8
BLACK
10
47257.0
20
9733.0
11
47333.0
21
9694.0
0
LINE
8
BLACK
10
47333.0
20
9694.0
11
47371.0
21
9618.0
0
LINE
8
BLACK
10
47371.0
20
9618.0
11
47371.0
21
9542.0
0
LINE
8
BLACK
10
47371.0
20
9542.0
11
46990.0
21
9466.0
0
LINE
8
BLACK
10
47676.0
20
9237.0
11
47753.0
21
9199.0
0
LINE
8
BLACK
10
47753.0
20
9199.0
11
47905.0
21
9199.0
0
LINE
8
BLACK
10
47905.0
20
9199.0
11
47981.0
21
9237.0
0
LINE
8
BLACK
10
47981.0
20
9237.0
11
48019.0
21
9313.0
0
LINE
8
BLACK
10
48019.0
20
9313.0
11
48019.0
21
9352.0
0
LINE
8
BLACK
10
48019.0
20
9352.0
11
47981.0
21
9428.0
0
LINE
8
BLACK
10
47981.0
20
9428.0
11
47905.0
21
9466.0
0
LINE
8
BLACK
10
47905.0
20
9466.0
11
47791.0
21
9466.0
0
LINE
8
BLACK
10
47791.0
20
9466.0
11
47714.0
21
9504.0
0
LINE
8
BLACK
10
47714.0
20
9504.0
11
47676.0
21
9580.0
0
LINE
8
BLACK
10
47676.0
20
9580.0
11
47676.0
21
9618.0
0
LINE
8
BLACK
10
47676.0
20
9618.0
11
47714.0
21
9694.0
0
LINE
8
BLACK
10
47714.0
20
9694.0
11
47791.0
21
9733.0
0
LINE
8
BLACK
10
47791.0
20
9733.0
11
47905.0
21
9733.0
0
LINE
8
BLACK
10
47905.0
20
9733.0
11
47981.0
21
9694.0
0
LINE
8
BLACK
10
48286.0
20
8894.0
11
48324.0
21
8933.0
0
LINE
8
BLACK
10
48324.0
20
8933.0
11
48401.0
21
9047.0
0
LINE
8
BLACK
10
48401.0
20
9047.0
11
48439.0
21
9123.0
0
LINE
8
BLACK
10
48439.0
20
9123.0
11
48477.0
21
9237.0
0
LINE
8
BLACK
10
48477.0
20
9237.0
11
48515.0
21
9428.0
0
LINE
8
BLACK
10
48515.0
20
9428.0
11
48515.0
21
9580.0
0
LINE
8
BLACK
10
48515.0
20
9580.0
11
48477.0
21
9771.0
0
LINE
8
BLACK
10
48477.0
20
9771.0
11
48439.0
21
9885.0
0
LINE
8
BLACK
10
48439.0
20
9885.0
11
48401.0
21
9961.0
0
LINE
8
BLACK
10
48401.0
20
9961.0
11
48324.0
21
10075.0
0
LINE
8
BLACK
10
48324.0
20
10075.0
11
48286.0
21
10113.0
0
CIRCLE
8
BLACK
10
30758.0
20
8468.0
40
600
0
LINE
8
BLACK
10
30158.0
20
8468.0
11
31358.0
21
8468.0
0
LINE
8
BLACK
10
31672.0
20
8944.0
11
32168.0
21
8944.0
0
LINE
8
BLACK
10
32168.0
20
8944.0
11
31901.0
21
8639.0
0
LINE
8
BLACK
10
31901.0
20
8639.0
11
32015.0
21
8639.0
0
LINE
8
BLACK
10
32015.0
20
8639.0
11
32091.0
21
8601.0
0
LINE
8
BLACK
10
32091.0
20
8601.0
11
32129.0
21
8563.0
0
LINE
8
BLACK
10
32129.0
20
8563.0
11
32168.0
21
8487.0
0
LINE
8
BLACK
10
32168.0
20
8487.0
11
32168.0
21
8297.0
0
LINE
8
BLACK
10
32168.0
20
8297.0
11
32129.0
21
8220.0
0
LINE
8
BLACK
10
32129.0
20
8220.0
11
32091.0
21
8182.0
0
LINE
8
BLACK
10
32091.0
20
8182.0
11
32015.0
21
8144.0
0
LINE
8
BLACK
10
32015.0
20
8144.0
11
31787.0
21
8144.0
0
LINE
8
BLACK
10
31787.0
20
8144.0
11
31710.0
21
8182.0
0
LINE
8
BLACK
10
31710.0
20
8182.0
11
31672.0
21
8220.0
0
LINE
8
BLACK
10
32510.0
20
8220.0
11
32549.0
21
8182.0
0
LINE
8
BLACK
10
32549.0
20
8182.0
11
32510.0
21
8144.0
0
LINE
8
BLACK
10
32510.0
20
8144.0
11
32472.0
21
8182.0
0
LINE
8
BLACK
10
32472.0
20
8182.0
11
32510.0
21
8220.0
0
LINE
8
BLACK
10
32510.0
20
8220.0
11
32510.0
21
8144.0
0
LINE
8
BLACK
10
33044.0
20
8944.0
11
33120.0
21
8944.0
0
LINE
8
BLACK
10
33120.0
20
8944.0
11
33196.0
21
8906.0
0
LINE
8
BLACK
10
33196.0
20
8906.0
11
33234.0
21
8868.0
0
LINE
8
BLACK
10
33234.0
20
8868.0
11
33272.0
21
8792.0
0
LINE
8
BLACK
10
33272.0
20
8792.0
11
33311.0
21
8639.0
0
LINE
8
BLACK
10
33311.0
20
8639.0
11
33311.0
21
8449.0
0
LINE
8
BLACK
10
33311.0
20
8449.0
11
33272.0
21
8297.0
0
LINE
8
BLACK
10
33272.0
20
8297.0
11
33234.0
21
8220.0
0
LINE
8
BLACK
10
33234.0
20
8220.0
11
33196.0
21
8182.0
0
LINE
8
BLACK
10
33196.0
20
8182.0
11
33120.0
21
8144.0
0
LINE
8
BLACK
10
33120.0
20
8144.0
11
33044.0
21
8144.0
0
LINE
8
BLACK
10
33044.0
20
8144.0
11
32968.0
21
8182.0
0
LINE
8
BLACK
10
32968.0
20
8182.0
11
32930.0
21
8220.0
0
LINE
8
BLACK
10
32930.0
20
8220.0
11
32891.0
21
8297.0
0
LINE
8
BLACK
10
32891.0
20
8297.0
11
32853.0
21
8449.0
0
LINE
8
BLACK
10
32853.0
20
8449.0
11
32853.0
21
8639.0
0
LINE
8
BLACK
10
32853.0
20
8639.0
11
32891.0
21
8792.0
0
LINE
8
BLACK
10
32891.0
20
8792.0
11
32930.0
21
8868.0
0
LINE
8
BLACK
10
32930.0
20
8868.0
11
32968.0
21
8906.0
0
LINE
8
BLACK
10
32968.0
20
8906.0
11
33044.0
21
8944.0
0
LINE
8
BLACK
10
34034.0
20
8944.0
11
33653.0
21
8944.0
0
LINE
8
BLACK
10
33653.0
20
8944.0
11
33615.0
21
8563.0
0
LINE
8
BLACK
10
33615.0
20
8563.0
11
33653.0
21
8601.0
0
LINE
8
BLACK
10
33653.0
20
8601.0
11
33730.0
21
8639.0
0
LINE
8
BLACK
10
33730.0
20
8639.0
11
33920.0
21
8639.0
0
LINE
8
BLACK
10
33920.0
20
8639.0
11
33996.0
21
8601.0
0
LINE
8
BLACK
10
33996.0
20
8601.0
11
34034.0
21
8563.0
0
LINE
8
BLACK
10
34034.0
20
8563.0
11
34073.0
21
8487.0
0
LINE
8
BLACK
10
34073.0
20
8487.0
11
34073.0
21
8297.0
0
LINE
8
BLACK
10
34073.0
20
8297.0
11
34034.0
21
8220.0
0
LINE
8
BLACK
10
34034.0
20
8220.0
11
33996.0
21
8182.0
0
LINE
8
BLACK
10
33996.0
20
8182.0
11
33920.0
21
8144.0
0
LINE
8
BLACK
10
33920.0
20
8144.0
11
33730.0
21
8144.0
0
LINE
8
BLACK
10
33730.0
20
8144.0
11
33653.0
21
8182.0
0
LINE
8
BLACK
10
33653.0
20
8182.0
11
33615.0
21
8220.0
0
LINE
8
BLACK
10
34415.0
20
8144.0
11
34415.0
21
8678.0
0
LINE
8
BLACK
10
34415.0
20
8601.0
11
34454.0
21
8639.0
0
LINE
8
BLACK
10
34454.0
20
8639.0
11
34530.0
21
8678.0
0
LINE
8
BLACK
10
34530.0
20
8678.0
11
34644.0
21
8678.0
0
LINE
8
BLACK
10
34644.0
20
8678.0
11
34720.0
21
8639.0
0
LINE
8
BLACK
10
34720.0
20
8639.0
11
34758.0
21
8563.0
0
LINE
8
BLACK
10
34758.0
20
8563.0
11
34758.0
21
8144.0
0
LINE
8
BLACK
10
34758.0
20
8563.0
11
34796.0
21
8639.0
0
LINE
8
BLACK
10
34796.0
20
8639.0
11
34873.0
21
8678.0
0
LINE
8
BLACK
10
34873.0
20
8678.0
11
34987.0
21
8678.0
0
LINE
8
BLACK
10
34987.0
20
8678.0
11
35063.0
21
8639.0
0
LINE
8
BLACK
10
35063.0
20
8639.0
11
35101.0
21
8563.0
0
LINE
8
BLACK
10
35101.0
20
8563.0
11
35101.0
21
8144.0
0
LINE
8
BLACK
10
35482.0
20
8144.0
11
35482.0
21
8678.0
0
LINE
8
BLACK
10
35482.0
20
8601.0
11
35521.0
21
8639.0
0
LINE
8
BLACK
10
35521.0
20
8639.0
11
35597.0
21
8678.0
0
LINE
8
BLACK
10
35597.0
20
8678.0
11
35711.0
21
8678.0
0
LINE
8
BLACK
10
35711.0
20
8678.0
11
35787.0
21
8639.0
0
LINE
8
BLACK
10
35787.0
20
8639.0
11
35825.0
21
8563.0
0
LINE
8
BLACK
10
35825.0
20
8563.0
11
35825.0
21
8144.0
0
LINE
8
BLACK
10
35825.0
20
8563.0
11
35863.0
21
8639.0
0
LINE
8
BLACK
10
35863.0
20
8639.0
11
35940.0
21
8678.0
0
LINE
8
BLACK
10
35940.0
20
8678.0
11
36054.0
21
8678.0
0
LINE
8
BLACK
10
36054.0
20
8678.0
11
36130.0
21
8639.0
0
LINE
8
BLACK
10
36130.0
20
8639.0
11
36168.0
21
8563.0
0
LINE
8
BLACK
10
36168.0
20
8563.0
11
36168.0
21
8144.0
0
LINE
8
BLACK
10
37731.0
20
8982.0
11
37045.0
21
7954.0
0
LINE
8
BLACK
10
38760.0
20
8944.0
11
38836.0
21
8944.0
0
LINE
8
BLACK
10
38836.0
20
8944.0
11
38912.0
21
8906.0
0
LINE
8
BLACK
10
38912.0
20
8906.0
11
38950.0
21
8868.0
0
LINE
8
BLACK
10
38950.0
20
8868.0
11
38988.0
21
8792.0
0
LINE
8
BLACK
10
38988.0
20
8792.0
11
39027.0
21
8639.0
0
LINE
8
BLACK
10
39027.0
20
8639.0
11
39027.0
21
8449.0
0
LINE
8
BLACK
10
39027.0
20
8449.0
11
38988.0
21
8297.0
0
LINE
8
BLACK
10
38988.0
20
8297.0
11
38950.0
21
8220.0
0
LINE
8
BLACK
10
38950.0
20
8220.0
11
38912.0
21
8182.0
0
LINE
8
BLACK
10
38912.0
20
8182.0
11
38836.0
21
8144.0
0
LINE
8
BLACK
10
38836.0
20
8144.0
11
38760.0
21
8144.0
0
LINE
8
BLACK
10
38760.0
20
8144.0
11
38684.0
21
8182.0
0
LINE
8
BLACK
10
38684.0
20
8182.0
11
38646.0
21
8220.0
0
LINE
8
BLACK
10
38646.0
20
8220.0
11
38607.0
21
8297.0
0
LINE
8
BLACK
10
38607.0
20
8297.0
11
38569.0
21
8449.0
0
LINE
8
BLACK
10
38569.0
20
8449.0
11
38569.0
21
8639.0
0
LINE
8
BLACK
10
38569.0
20
8639.0
11
38607.0
21
8792.0
0
LINE
8
BLACK
10
38607.0
20
8792.0
11
38646.0
21
8868.0
0
LINE
8
BLACK
10
38646.0
20
8868.0
11
38684.0
21
8906.0
0
LINE
8
BLACK
10
38684.0
20
8906.0
11
38760.0
21
8944.0
0
LINE
8
BLACK
10
39369.0
20
8220.0
11
39408.0
21
8182.0
0
LINE
8
BLACK
10
39408.0
20
8182.0
11
39369.0
21
8144.0
0
LINE
8
BLACK
10
39369.0
20
8144.0
11
39331.0
21
8182.0
0
LINE
8
BLACK
10
39331.0
20
8182.0
11
39369.0
21
8220.0
0
LINE
8
BLACK
10
39369.0
20
8220.0
11
39369.0
21
8144.0
0
LINE
8
BLACK
10
40170.0
20
8144.0
11
39712.0
21
8144.0
0
LINE
8
BLACK
10
39941.0
20
8144.0
11
39941.0
21
8944.0
0
LINE
8
BLACK
10
39941.0
20
8944.0
11
39865.0
21
8830.0
0
LINE
8
BLACK
10
39865.0
20
8830.0
11
39789.0
21
8754.0
0
LINE
8
BLACK
10
39789.0
20
8754.0
11
39712.0
21
8716.0
0
LINE
8
BLACK
10
40474.0
20
8868.0
11
40512.0
21
8906.0
0
LINE
8
BLACK
10
40512.0
20
8906.0
11
40589.0
21
8944.0
0
LINE
8
BLACK
10
40589.0
20
8944.0
11
40779.0
21
8944.0
0
LINE
8
BLACK
10
40779.0
20
8944.0
11
40855.0
21
8906.0
0
LINE
8
BLACK
10
40855.0
20
8906.0
11
40893.0
21
8868.0
0
LINE
8
BLACK
10
40893.0
20
8868.0
11
40932.0
21
8792.0
0
LINE
8
BLACK
10
40932.0
20
8792.0
11
40932.0
21
8716.0
0
LINE
8
BLACK
10
40932.0
20
8716.0
11
40893.0
21
8601.0
0
LINE
8
BLACK
10
40893.0
20
8601.0
11
40436.0
21
8144.0
0
LINE
8
BLACK
10
40436.0
20
8144.0
11
40932.0
21
8144.0
0
LINE
8
BLACK
10
41427.0
20
8944.0
11
41503.0
21
8944.0
0
LINE
8
BLACK
10
41503.0
20
8944.0
11
41579.0
21
8906.0
0
LINE
8
BLACK
10
41579.0
20
8906.0
11
41617.0
21
8868.0
0
LINE
8
BLACK
10
41617.0
20
8868.0
11
41655.0
21
8792.0
0
LINE
8
BLACK
10
41655.0
20
8792.0
11
41694.0
21
8639.0
0
LINE
8
BLACK
10
41694.0
20
8639.0
11
41694.0
21
8449.0
0
LINE
8
BLACK
10
41694.0
20
8449.0
11
41655.0
21
8297.0
0
LINE
8
BLACK
10
41655.0
20
8297.0
11
41617.0
21
8220.0
0
LINE
8
BLACK
10
41617.0
20
8220.0
11
41579.0
21
8182.0
0
LINE
8
BLACK
10
41579.0
20
8182.0
11
41503.0
21
8144.0
0
LINE
8
BLACK
10
41503.0
20
8144.0
11
41427.0
21
8144.0
0
LINE
8
BLACK
10
41427.0
20
8144.0
11
41351.0
21
8182.0
0
LINE
8
BLACK
10
41351.0
20
8182.0
11
41313.0
21
8220.0
0
LINE
8
BLACK
10
41313.0
20
8220.0
11
41274.0
21
8297.0
0
LINE
8
BLACK
10
41274.0
20
8297.0
11
41236.0
21
8449.0
0
LINE
8
BLACK
10
41236.0
20
8449.0
11
41236.0
21
8639.0
0
LINE
8
BLACK
10
41236.0
20
8639.0
11
41274.0
21
8792.0
0
LINE
8
BLACK
10
41274.0
20
8792.0
11
41313.0
21
8868.0
0
LINE
8
BLACK
10
41313.0
20
8868.0
11
41351.0
21
8906.0
0
LINE
8
BLACK
10
41351.0
20
8906.0
11
41427.0
21
8944.0
0
LINE
8
BLACK
10
41998.0
20
8944.0
11
41998.0
21
8792.0
0
LINE
8
BLACK
10
42303.0
20
8944.0
11
42303.0
21
8792.0
0
LINE
8
BLACK
10
43485.0
20
7839.0
11
43447.0
21
7878.0
0
LINE
8
BLACK
10
43447.0
20
7878.0
11
43371.0
21
7992.0
0
LINE
8
BLACK
10
43371.0
20
7992.0
11
43333.0
21
8068.0
0
LINE
8
BLACK
10
43333.0
20
8068.0
11
43295.0
21
8182.0
0
LINE
8
BLACK
10
43295.0
20
8182.0
11
43256.0
21
8373.0
0
LINE
8
BLACK
10
43256.0
20
8373.0
11
43256.0
21
8525.0
0
LINE
8
BLACK
10
43256.0
20
8525.0
11
43295.0
21
8716.0
0
LINE
8
BLACK
10
43295.0
20
8716.0
11
43333.0
21
8830.0
0
LINE
8
BLACK
10
43333.0
20
8830.0
11
43371.0
21
8906.0
0
LINE
8
BLACK
10
43371.0
20
8906.0
11
43447.0
21
9020.0
0
LINE
8
BLACK
10
43447.0
20
9020.0
11
43485.0
21
9058.0
0
LINE
8
BLACK
10
44132.0
20
8678.0
11
44132.0
21
8144.0
0
LINE
8
BLACK
10
43942.0
20
8982.0
11
43751.0
21
8411.0
0
LINE
8
BLACK
10
43751.0
20
8411.0
11
44247.0
21
8411.0
0
LINE
8
BLACK
10
45161.0
20
8144.0
11
45161.0
21
8944.0
0
LINE
8
BLACK
10
45504.0
20
8144.0
11
45504.0
21
8563.0
0
LINE
8
BLACK
10
45504.0
20
8563.0
11
45466.0
21
8639.0
0
LINE
8
BLACK
10
45466.0
20
8639.0
11
45390.0
21
8678.0
0
LINE
8
BLACK
10
45390.0
20
8678.0
11
45276.0
21
8678.0
0
LINE
8
BLACK
10
45276.0
20
8678.0
11
45200.0
21
8639.0
0
LINE
8
BLACK
10
45200.0
20
8639.0
11
45161.0
21
8601.0
0
LINE
8
BLACK
10
46000.0
20
8144.0
11
45924.0
21
8182.0
0
LINE
8
BLACK
10
45924.0
20
8182.0
11
45885.0
21
8220.0
0
LINE
8
BLACK
10
45885.0
20
8220.0
11
45847.0
21
8297.0
0
LINE
8
BLACK
10
45847.0
20
8297.0
11
45847.0
21
8525.0
0
LINE
8
BLACK
10
45847.0
20
8525.0
11
45885.0
21
8601.0
0
LINE
8
BLACK
10
45885.0
20
8601.0
11
45924.0
21
8639.0
0
LINE
8
BLACK
10
45924.0
20
8639.0
11
46000.0
21
8678.0
0
LINE
8
BLACK
10
46000.0
20
8678.0
11
46114.0
21
8678.0
0
LINE
8
BLACK
10
46114.0
20
8678.0
11
46190.0
21
8639.0
0
LINE
8
BLACK
10
46190.0
20
8639.0
11
46228.0
21
8601.0
0
LINE
8
BLACK
10
46228.0
20
8601.0
11
46266.0
21
8525.0
0
LINE
8
BLACK
10
46266.0
20
8525.0
11
46266.0
21
8297.0
0
LINE
8
BLACK
10
46266.0
20
8297.0
11
46228.0
21
8220.0
0
LINE
8
BLACK
10
46228.0
20
8220.0
11
46190.0
21
8182.0
0
LINE
8
BLACK
10
46190.0
20
8182.0
11
46114.0
21
8144.0
0
LINE
8
BLACK
10
46114.0
20
8144.0
11
46000.0
21
8144.0
0
LINE
8
BLACK
10
46724.0
20
8144.0
11
46648.0
21
8182.0
0
LINE
8
BLACK
10
46648.0
20
8182.0
11
46609.0
21
8258.0
0
LINE
8
BLACK
10
46609.0
20
8258.0
11
46609.0
21
8944.0
0
LINE
8
BLACK
10
47333.0
20
8182.0
11
47257.0
21
8144.0
0
LINE
8
BLACK
10
47257.0
20
8144.0
11
47105.0
21
8144.0
0
LINE
8
BLACK
10
47105.0
20
8144.0
11
47028.0
21
8182.0
0
LINE
8
BLACK
10
47028.0
20
8182.0
11
46990.0
21
8258.0
0
LINE
8
BLACK
10
46990.0
20
8258.0
11
46990.0
21
8563.0
0
LINE
8
BLACK
10
46990.0
20
8563.0
11
47028.0
21
8639.0
0
LINE
8
BLACK
10
47028.0
20
8639.0
11
47105.0
21
8678.0
0
LINE
8
BLACK
10
47105.0
20
8678.0
11
47257.0
21
8678.0
0
LINE
8
BLACK
10
47257.0
20
8678.0
11
47333.0
21
8639.0
0
LINE
8
BLACK
10
47333.0
20
8639.0
11
47371.0
21
8563.0
0
LINE
8
BLACK
10
47371.0
20
8563.0
11
47371.0
21
8487.0
0
LINE
8
BLACK
10
47371.0
20
8487.0
11
46990.0
21
8411.0
0
LINE
8
BLACK
10
47676.0
20
8182.0
11
47753.0
21
8144.0
0
LINE
8
BLACK
10
47753.0
20
8144.0
11
47905.0
21
8144.0
0
LINE
8
BLACK
10
47905.0
20
8144.0
11
47981.0
21
8182.0
0
LINE
8
BLACK
10
47981.0
20
8182.0
11
48019.0
21
8258.0
0
LINE
8
BLACK
10
48019.0
20
8258.0
11
48019.0
21
8297.0
0
LINE
8
BLACK
10
48019.0
20
8297.0
11
47981.0
21
8373.0
0
LINE
8
BLACK
10
47981.0
20
8373.0
11
47905.0
21
8411.0
0
LINE
8
BLACK
10
47905.0
20
8411.0
11
47791.0
21
8411.0
0
LINE
8
BLACK
10
47791.0
20
8411.0
11
47714.0
21
8449.0
0
LINE
8
BLACK
10
47714.0
20
8449.0
11
47676.0
21
8525.0
0
LINE
8
BLACK
10
47676.0
20
8525.0
11
47676.0
21
8563.0
0
LINE
8
BLACK
10
47676.0
20
8563.0
11
47714.0
21
8639.0
0
LINE
8
BLACK
10
47714.0
20
8639.0
11
47791.0
21
8678.0
0
LINE
8
BLACK
10
47791.0
20
8678.0
11
47905.0
21
8678.0
0
LINE
8
BLACK
10
47905.0
20
8678.0
11
47981.0
21
8639.0
0
LINE
8
BLACK
10
48286.0
20
7839.0
11
48324.0
21
7878.0
0
LINE
8
BLACK
10
48324.0
20
7878.0
11
48401.0
21
7992.0
0
LINE
8
BLACK
10
48401.0
20
7992.0
11
48439.0
21
8068.0
0
LINE
8
BLACK
10
48439.0
20
8068.0
11
48477.0
21
8182.0
0
LINE
8
BLACK
10
48477.0
20
8182.0
11
48515.0
21
8373.0
0
LINE
8
BLACK
10
48515.0
20
8373.0
11
48515.0
21
8525.0
0
LINE
8
BLACK
10
48515.0
20
8525.0
11
48477.0
21
8716.0
0
LINE
8
BLACK
10
48477.0
20
8716.0
11
48439.0
21
8830.0
0
LINE
8
BLACK
10
48439.0
20
8830.0
11
48401.0
21
8906.0
0
LINE
8
BLACK
10
48401.0
20
8906.0
11
48324.0
21
9020.0
0
LINE
8
BLACK
10
48324.0
20
9020.0
11
48286.0
21
9058.0
0
ENDSEC
0
EOF
