<?xml version="1.0" standalone="no"?>
<!DOCTYPE svg PUBLIC "-//W3C//DTD SVG 20010904//EN" 
"http://www.w3.org/TR/2001/REC-SVG-20010904/DTD/svg10.dtd"> 
<svg xmlns="http://www.w3.org/2000/svg" xmlns:xlink="http://www.w3.org/1999/xlink" 
    width="29.72cm" height="21.00cm" viewBox="0 0 117000 82670 "> 
<title>SVG Picture created as valve-ps-Front.svg </title>
<desc>Picture generated by wxSVG v0100 </desc>
<g style="fill:black; stroke:black; stroke-width:1">
</g>
<g style="fill:#000000; fill-opacity:0.0; stroke:#000000; stroke-opacity:1.00; stroke-linecap:round; stroke-linejoin:round; stroke-width:150" 
   transform="translate(0.00 0.00) scale(1.00 1.00)">
<path d="M46000 60650 L72050 60650" /> 
<path d="M46000 45050 L46000 60650" /> 
<path d="M72050 45050 L46000 45050" /> 
<path d="M72050 60600 L72050 45050" /> 
</g>
<g style="fill:#000000; fill-opacity:0.0; stroke:#000000; stroke-opacity:1.00; stroke-linecap:round; stroke-linejoin:round; stroke-width:394" 
   transform="translate(0.00 0.00) scale(1.00 1.00)">
<path d="M65909 55895 L65280 56524" /> 
<path d="M67420 55895 L65909 55895" /> 
<path d="M69135 55895 L69780 56540" /> 
<path d="M67420 55895 L69135 55895" /> 
<path d="M69720 56600 L69780 56540" /> 
<path d="M69720 59940 L69720 56600" /> 
<path d="M65144 56524 L64380 55760" /> 
<path d="M64380 55760 L64380 52300" /> 
<path d="M64380 52300 L64000 51920" /> 
<path d="M64000 51920 L64000 50980" /> 
</g>
<g style="fill:#000000; fill-opacity:0.0; stroke:#000000; stroke-opacity:1.00; stroke-linecap:round; stroke-linejoin:round; stroke-width:315" 
   transform="translate(0.00 0.00) scale(1.00 1.00)">
<path d="M64000 50980 L63980 50960" /> 
<path d="M63980 50960 L63980 50455" /> 
</g>
<g style="fill:#000000; fill-opacity:0.0; stroke:#000000; stroke-opacity:1.00; stroke-linecap:round; stroke-linejoin:round; stroke-width:394" 
   transform="translate(0.00 0.00) scale(1.00 1.00)">
<path d="M65280 56524 L65144 56524" /> 
<path d="M69960 51760 L69960 47160" /> 
<path d="M71720 53520 L69960 51760" /> 
<path d="M70720 59940 L70720 58340" /> 
<path d="M71720 58600 L71720 58620" /> 
<path d="M71720 58620 L71720 59940" /> 
<path d="M71380 58260 L71720 58600" /> 
<path d="M70800 58260 L71380 58260" /> 
<path d="M70720 58340 L70800 58260" /> 
<path d="M57265 47860 L57265 46910" /> 
</g>
<g style="fill:#000000; fill-opacity:0.0; stroke:#000000; stroke-opacity:1.00; stroke-linecap:round; stroke-linejoin:round; stroke-width:315" 
   transform="translate(0.00 0.00) scale(1.00 1.00)">
<path d="M65790 48770 L66100 48460" /> 
</g>
<g style="fill:#000000; fill-opacity:0.0; stroke:#000000; stroke-opacity:1.00; stroke-linecap:round; stroke-linejoin:round; stroke-width:394" 
   transform="translate(0.00 0.00) scale(1.00 1.00)">
<path d="M69960 47160 L68980 46180" /> 
<path d="M68980 46180 L66580 46180" /> 
<path d="M66580 46180 L66490 46270" /> 
<path d="M66490 46270 L66490 47105" /> 
<path d="M71720 58620 L71720 53520" /> 
<path d="M66490 47105 L66490 48055" /> 
<path d="M65565 48055 L65565 47105" /> 
<path d="M65565 47105 L65565 46080" /> 
<path d="M66430 46270 L66240 46080" /> 
<path d="M66240 46080 L65565 46080" /> 
<path d="M66490 46270 L66430 46270" /> 
<path d="M65565 46080 L65565 45845" /> 
<path d="M57460 46200 L57265 46395" /> 
<path d="M63680 46200 L57460 46200" /> 
<path d="M64460 45420 L63680 46200" /> 
<path d="M65140 45420 L64460 45420" /> 
<path d="M65565 45845 L65140 45420" /> 
<path d="M56365 46910 L56365 47860" /> 
<path d="M56365 45935 L56365 46910" /> 
<path d="M57265 46910 L57265 46395" /> 
<path d="M57265 46395 L57265 46345" /> 
</g>
<g style="fill:#000000; fill-opacity:0.0; stroke:#000000; stroke-opacity:1.00; stroke-linecap:round; stroke-linejoin:round; stroke-width:315" 
   transform="translate(0.00 0.00) scale(1.00 1.00)">
<path d="M66100 48460 L66280 48460" /> 
<path d="M66280 48460 L66490 48250" /> 
<path d="M66490 48250 L66490 48055" /> 
<path d="M65790 49030 L65790 48770" /> 
<path d="M56765 48795 L57180 48380" /> 
<path d="M57180 48380 L57180 48360" /> 
<path d="M57180 48360 L57265 48275" /> 
<path d="M57265 48275 L57265 47860" /> 
<path d="M56765 49120 L56765 48795" /> 
</g>
<g style="fill:#000000; fill-opacity:0.0; stroke:#000000; stroke-opacity:1.00; stroke-linecap:round; stroke-linejoin:round; stroke-width:394" 
   transform="translate(0.00 0.00) scale(1.00 1.00)">
<path d="M56855 45935 L56365 45935" /> 
<path d="M57265 46345 L56855 45935" /> 
<path d="M66640 51760 L66290 51410" /> 
<path d="M66290 51410 L66290 51130" /> 
<path d="M66640 52105 L66640 51760" /> 
<path d="M66640 52500 L67120 52980" /> 
<path d="M67120 52980 L68280 52980" /> 
<path d="M66640 52105 L66640 52500" /> 
<path d="M67420 53840 L68280 52980" /> 
<path d="M67420 55145 L67420 53840" /> 
<path d="M67240 47105 L67240 48055" /> 
<path d="M67315 48055 L67880 48620" /> 
<path d="M67880 48620 L67880 50100" /> 
<path d="M67240 48055 L67315 48055" /> 
<path d="M67605 50375 L67880 50100" /> 
<path d="M67220 50375 L67605 50375" /> 
<path d="M58015 47860 L58015 46910" /> 
<path d="M66290 51130 L66950 51130" /> 
<path d="M66950 51130 L67220 50860" /> 
<path d="M67220 50860 L67220 50375" /> 
<path d="M58140 50535 L57455 51220" /> 
<path d="M57455 51220 L57265 51220" /> 
<path d="M57265 51220 L57690 51645" /> 
<path d="M57690 51645 L57690 52195" /> 
<path d="M57690 52195 L58415 52920" /> 
<path d="M58415 52920 L59265 52920" /> 
<path d="M59265 52920 L60765 54420" /> 
<path d="M60765 54420 L60765 54570" /> 
<path d="M59265 52920 L58440 53745" /> 
<path d="M58440 53745 L58440 55045" /> 
<path d="M69780 54540 L69780 54480" /> 
<path d="M69780 54480 L68280 52980" /> 
<path d="M67880 50200 L67880 50100" /> 
<path d="M68640 50960 L67880 50200" /> 
</g>
<g style="fill:#000000; fill-opacity:1.00; stroke:#000000; stroke-opacity:1.00; stroke-linecap:round; stroke-linejoin:round; stroke-width:0" 
   transform="translate(0.00 0.00) scale(1.00 1.00)">
<ellipse cx="68640" cy="50960" rx="590" ry="590"  /> 
</g>
<g style="fill:#000000; fill-opacity:1.00; stroke:#000000; stroke-opacity:1.00; stroke-linecap:round; stroke-linejoin:round; stroke-width:394" 
   transform="translate(0.00 0.00) scale(1.00 1.00)">
<path d="M67020 58780 L67020 58600" /> 
<path d="M59660 50140 L58780 50140" /> 
<path d="M60140 50620 L59660 50140" /> 
</g>
<g style="fill:#000000; fill-opacity:1.00; stroke:#000000; stroke-opacity:1.00; stroke-linecap:round; stroke-linejoin:round; stroke-width:0" 
   transform="translate(0.00 0.00) scale(1.00 1.00)">
<ellipse cx="60140" cy="50620" rx="590" ry="590"  /> 
</g>
<g style="fill:#000000; fill-opacity:1.00; stroke:#000000; stroke-opacity:1.00; stroke-linecap:round; stroke-linejoin:round; stroke-width:394" 
   transform="translate(0.00 0.00) scale(1.00 1.00)">
<path d="M58780 49400 L58015 48635" /> 
<path d="M58780 50140 L58780 49400" /> 
<path d="M58015 48635 L58015 47860" /> 
<path d="M58385 50535 L58780 50140" /> 
<path d="M58140 50535 L58385 50535" /> 
<path d="M67720 59020 L67460 58760" /> 
<path d="M67460 58760 L67040 58760" /> 
<path d="M67020 58780 L66720 59080" /> 
<path d="M67040 58760 L67020 58780" /> 
<path d="M66720 59080 L66720 59940" /> 
<path d="M67720 59940 L67720 59020" /> 
<path d="M67020 58600 L66880 58460" /> 
<path d="M66880 58460 L63040 58460" /> 
</g>
<g style="fill:#000000; fill-opacity:1.00; stroke:#000000; stroke-opacity:1.00; stroke-linecap:round; stroke-linejoin:round; stroke-width:0" 
   transform="translate(0.00 0.00) scale(1.00 1.00)">
<ellipse cx="63040" cy="58460" rx="590" ry="590"  /> 
</g>
<g style="fill:#000000; fill-opacity:1.00; stroke:#000000; stroke-opacity:1.00; stroke-linecap:round; stroke-linejoin:round; stroke-width:394" 
   transform="translate(0.00 0.00) scale(1.00 1.00)">
<path d="M65280 51860 L65290 51850" /> 
<path d="M65290 51850 L65290 51130" /> 
<path d="M65280 52980 L65280 51860" /> 
<path d="M65280 54556 L65280 52980" /> 
<path d="M57265 49120 L57265 49515" /> 
<path d="M57015 49765 L54900 49765" /> 
<path d="M57265 49515 L57015 49765" /> 
<path d="M58140 49785 L57475 49120" /> 
<path d="M57475 49120 L57265 49120" /> 
<path d="M65290 49030 L65290 48730" /> 
<path d="M64815 48255 L64815 48055" /> 
<path d="M65290 48730 L64815 48255" /> 
<path d="M64815 47105 L64815 46080" /> 
<path d="M64815 48055 L64815 47105" /> 
<path d="M64790 50410 L64680 50300" /> 
</g>
<g style="fill:#000000; fill-opacity:1.00; stroke:#000000; stroke-opacity:1.00; stroke-linecap:round; stroke-linejoin:round; stroke-width:157" 
   transform="translate(0.00 0.00) scale(1.00 1.00)">
<path d="M64680 50300 L64660 50300" /> 
<path d="M64660 50300 L64460 50100" /> 
<path d="M64460 50100 L63600 50100" /> 
<path d="M63600 50100 L63320 49820" /> 
</g>
<g style="fill:#000000; fill-opacity:1.00; stroke:#000000; stroke-opacity:1.00; stroke-linecap:round; stroke-linejoin:round; stroke-width:394" 
   transform="translate(0.00 0.00) scale(1.00 1.00)">
<path d="M63320 49820 L63320 49460" /> 
<path d="M63320 49460 L64725 48055" /> 
<path d="M64725 48055 L64815 48055" /> 
<path d="M64790 51130 L64790 50410" /> 
<path d="M65890 52105 L65890 51730" /> 
<path d="M65790 51630 L65790 51130" /> 
<path d="M65890 51730 L65790 51630" /> 
<path d="M56765 51220 L56760 51225" /> 
<path d="M56760 52015 L56940 52195" /> 
<path d="M56760 51225 L56760 52015" /> 
<path d="M66930 49030 L67220 49320" /> 
<path d="M67220 49320 L67220 49625" /> 
<path d="M66290 49030 L66930 49030" /> 
<path d="M66195 49705 L66260 49640" /> 
<path d="M66260 49640 L66260 49060" /> 
<path d="M66260 49060 L66290 49030" /> 
<path d="M63980 49705 L66195 49705" /> 
<path d="M56265 54486 L56265 52920" /> 
<path d="M56265 51220 L56265 52920" /> 
<path d="M55615 45935 L55615 46910" /> 
<path d="M55615 46910 L55615 47860" /> 
<path d="M55615 48035 L56140 48560" /> 
<path d="M56140 48560 L56200 48560" /> 
<path d="M56200 48560 L56265 48625" /> 
<path d="M56265 48625 L56265 49120" /> 
<path d="M55615 47860 L55615 48035" /> 
<path d="M55765 50585 L55540 50360" /> 
<path d="M55540 50360 L55540 50281" /> 
</g>
<g style="fill:#000000; fill-opacity:1.00; stroke:#000000; stroke-opacity:1.00; stroke-linecap:round; stroke-linejoin:round; stroke-width:157" 
   transform="translate(0.00 0.00) scale(1.00 1.00)">
<path d="M55540 50281 L55419 50160" /> 
<path d="M55419 50160 L54540 50160" /> 
<path d="M54540 50160 L54300 49920" /> 
<path d="M54300 49920 L54300 49780" /> 
</g>
<g style="fill:#000000; fill-opacity:1.00; stroke:#000000; stroke-opacity:1.00; stroke-linecap:round; stroke-linejoin:round; stroke-width:394" 
   transform="translate(0.00 0.00) scale(1.00 1.00)">
<path d="M54300 49780 L54300 48960" /> 
<path d="M54300 48960 L54780 48480" /> 
<path d="M54780 48480 L54995 48480" /> 
<path d="M54995 48480 L55615 47860" /> 
<path d="M55765 51220 L55765 50585" /> 
<path d="M57781 56454 L58440 55795" /> 
<path d="M56265 56454 L57781 56454" /> 
<path d="M59215 56570 L60765 56570" /> 
<path d="M58440 55795 L59215 56570" /> 
<path d="M68720 58340 L67800 57420" /> 
<path d="M67800 57420 L62440 57420" /> 
<path d="M62440 57420 L61590 56570" /> 
<path d="M61590 56570 L60765 56570" /> 
<path d="M68720 59940 L68720 58340" /> 
<path d="M56265 56085 L55120 54940" /> 
<path d="M55120 54940 L55120 51660" /> 
</g>
<g style="fill:#000000; fill-opacity:1.00; stroke:#000000; stroke-opacity:1.00; stroke-linecap:round; stroke-linejoin:round; stroke-width:315" 
   transform="translate(0.00 0.00) scale(1.00 1.00)">
<path d="M55120 51660 L54900 51440" /> 
<path d="M54900 51440 L54900 50515" /> 
</g>
<g style="fill:#000000; fill-opacity:1.00; stroke:#000000; stroke-opacity:1.00; stroke-linecap:round; stroke-linejoin:round; stroke-width:394" 
   transform="translate(0.00 0.00) scale(1.00 1.00)">
<path d="M56265 56454 L56265 56085" /> 
</g>
<g style="fill:#000000; fill-opacity:1.00; stroke:#000000; stroke-opacity:1.00; stroke-linecap:round; stroke-linejoin:round; stroke-width:100" 
   transform="translate(0.00 0.00) scale(1.00 1.00)">
<path d="M64953 56973 L64953 56973" /> 
<path d="M62625 56973 L64953 56973" /> 
<path d="M61906 56254 L62625 56973" /> 
<path d="M61761 56157 L61906 56254" /> 
<path d="M61590 56123 L61761 56157" /> 
<path d="M61433 56123 L61590 56123" /> 
<path d="M61433 54679 L61433 56123" /> 
<path d="M61423 54415 L61433 54679" /> 
<path d="M61340 54214 L61423 54415" /> 
<path d="M61219 54187 L61340 54214" /> 
<path d="M61148 54258 L61219 54187" /> 
<path d="M61148 54116 L61148 54258" /> 
<path d="M61121 53995 L61148 54116" /> 
<path d="M60874 53902 L61121 53995" /> 
<path d="M60610 53912 L60874 53902" /> 
<path d="M60409 53995 L60610 53912" /> 
<path d="M60382 54116 L60409 53995" /> 
<path d="M60765 54499 L60382 54116" /> 
<path d="M61148 54116 L60765 54499" /> 
<path d="M61148 54258 L61148 54116" /> 
<path d="M60836 54570 L61148 54258" /> 
<path d="M61219 54953 L60836 54570" /> 
<path d="M61340 54926 L61219 54953" /> 
<path d="M61433 54679 L61340 54926" /> 
<path d="M61433 56123 L61433 54679" /> 
<path d="M61344 56123 L61433 56123" /> 
<path d="M61326 56079 L61344 56123" /> 
<path d="M61256 56009 L61326 56079" /> 
<path d="M61165 55971 L61256 56009" /> 
<path d="M61148 55971 L61165 55971" /> 
<path d="M61148 55024 L61148 55971" /> 
<path d="M60765 54641 L61148 55024" /> 
<path d="M60694 54712 L60765 54641" /> 
<path d="M60694 54570 L60694 54712" /> 
<path d="M60311 54187 L60694 54570" /> 
<path d="M60190 54214 L60311 54187" /> 
<path d="M60097 54461 L60190 54214" /> 
<path d="M60107 54725 L60097 54461" /> 
<path d="M60190 54926 L60107 54725" /> 
<path d="M60311 54953 L60190 54926" /> 
<path d="M60694 54570 L60311 54953" /> 
<path d="M60694 54712 L60694 54570" /> 
<path d="M60382 55024 L60694 54712" /> 
<path d="M60409 55145 L60382 55024" /> 
<path d="M60656 55238 L60409 55145" /> 
<path d="M60920 55228 L60656 55238" /> 
<path d="M61121 55145 L60920 55228" /> 
<path d="M61148 55024 L61121 55145" /> 
<path d="M61148 55971 L61148 55024" /> 
<path d="M61066 55971 L61148 55971" /> 
<path d="M60366 55971 L61066 55971" /> 
<path d="M60274 56009 L60366 55971" /> 
<path d="M60204 56079 L60274 56009" /> 
<path d="M60185 56123 L60204 56079" /> 
<path d="M59858 56123 L60185 56123" /> 
<path d="M59858 53011 L59858 56123" /> 
<path d="M59848 52777 L59858 53011" /> 
<path d="M59778 52609 L59848 52777" /> 
<path d="M59666 52590 L59778 52609" /> 
<path d="M59595 52661 L59666 52590" /> 
<path d="M59595 52519 L59595 52661" /> 
<path d="M59576 52407 L59595 52519" /> 
<path d="M59356 52327 L59576 52407" /> 
<path d="M59122 52337 L59356 52327" /> 
<path d="M58954 52407 L59122 52337" /> 
<path d="M58935 52519 L58954 52407" /> 
<path d="M59265 52849 L58935 52519" /> 
<path d="M59595 52519 L59265 52849" /> 
<path d="M59595 52661 L59595 52519" /> 
<path d="M59336 52920 L59595 52661" /> 
<path d="M59666 53250 L59336 52920" /> 
<path d="M59778 53231 L59666 53250" /> 
<path d="M59858 53011 L59778 53231" /> 
<path d="M59858 56123 L59858 53011" /> 
<path d="M59595 56123 L59858 56123" /> 
<path d="M59595 53321 L59595 56123" /> 
<path d="M59265 52991 L59595 53321" /> 
<path d="M59194 53062 L59265 52991" /> 
<path d="M59194 52920 L59194 53062" /> 
<path d="M58864 52590 L59194 52920" /> 
<path d="M58752 52609 L58864 52590" /> 
<path d="M58741 52639 L58752 52609" /> 
<path d="M58741 50774 L58741 52639" /> 
<path d="M58741 50666 L58741 50774" /> 
<path d="M58660 50585 L58741 50666" /> 
<path d="M58190 50585 L58660 50585" /> 
<path d="M58190 50955 L58190 50585" /> 
<path d="M58271 51036 L58190 50955" /> 
<path d="M58351 51036 L58271 51036" /> 
<path d="M58481 51036 L58351 51036" /> 
<path d="M58600 50986 L58481 51036" /> 
<path d="M58692 50894 L58600 50986" /> 
<path d="M58741 50774 L58692 50894" /> 
<path d="M58741 52639 L58741 50774" /> 
<path d="M58672 52829 L58741 52639" /> 
<path d="M58682 53063 L58672 52829" /> 
<path d="M58752 53231 L58682 53063" /> 
<path d="M58864 53250 L58752 53231" /> 
<path d="M59194 52920 L58864 53250" /> 
<path d="M59194 53062 L59194 52920" /> 
<path d="M58935 53321 L59194 53062" /> 
<path d="M58954 53433 L58935 53321" /> 
<path d="M59174 53513 L58954 53433" /> 
<path d="M59408 53503 L59174 53513" /> 
<path d="M59576 53433 L59408 53503" /> 
<path d="M59595 53321 L59576 53433" /> 
<path d="M59595 56123 L59595 53321" /> 
<path d="M59400 56123 L59595 56123" /> 
<path d="M58964 55687 L59400 56123" /> 
<path d="M58964 55571 L58964 55687" /> 
<path d="M58926 55479 L58964 55571" /> 
<path d="M58921 55474 L58926 55479" /> 
<path d="M58992 55404 L58921 55474" /> 
<path d="M59041 55284 L58992 55404" /> 
<path d="M59041 55176 L59041 55284" /> 
<path d="M59041 54914 L59041 55176" /> 
<path d="M59041 54806 L59041 54914" /> 
<path d="M58992 54686 L59041 54806" /> 
<path d="M58900 54594 L58992 54686" /> 
<path d="M58781 54544 L58900 54594" /> 
<path d="M58651 54544 L58781 54544" /> 
<path d="M58571 54544 L58651 54544" /> 
<path d="M58490 54625 L58571 54544" /> 
<path d="M58490 54995 L58490 54625" /> 
<path d="M58960 54995 L58490 54995" /> 
<path d="M59041 54914 L58960 54995" /> 
<path d="M59041 55176 L59041 54914" /> 
<path d="M58960 55095 L59041 55176" /> 
<path d="M58540 55095 L58960 55095" /> 
<path d="M58490 55095 L58540 55095" /> 
<path d="M58390 55095 L58490 55095" /> 
<path d="M58390 54995 L58390 55095" /> 
<path d="M58390 54625 L58390 54995" /> 
<path d="M58309 54544 L58390 54625" /> 
<path d="M58229 54544 L58309 54544" /> 
<path d="M58191 54544 L58229 54544" /> 
<path d="M58191 52536 L58191 54544" /> 
<path d="M58191 52406 L58191 52536" /> 
<path d="M58191 52326 L58191 52406" /> 
<path d="M58191 52064 L58191 52326" /> 
<path d="M58191 51984 L58191 52064" /> 
<path d="M58191 51854 L58191 51984" /> 
<path d="M58141 51735 L58191 51854" /> 
<path d="M58090 51684 L58141 51735" /> 
<path d="M58090 50955 L58090 51684" /> 
<path d="M58090 50585 L58090 50955" /> 
<path d="M57620 50585 L58090 50585" /> 
<path d="M57539 50666 L57620 50585" /> 
<path d="M57539 50713 L57539 50666" /> 
<path d="M57429 50669 L57539 50713" /> 
<path d="M57396 50669 L57429 50669" /> 
<path d="M57315 50750 L57396 50669" /> 
<path d="M57315 51170 L57315 50750" /> 
<path d="M57610 51170 L57315 51170" /> 
<path d="M57691 51089 L57610 51170" /> 
<path d="M57691 51059 L57691 51089" /> 
<path d="M57691 50990 L57691 51059" /> 
<path d="M57799 51036 L57691 50990" /> 
<path d="M57929 51036 L57799 51036" /> 
<path d="M58009 51036 L57929 51036" /> 
<path d="M58090 50955 L58009 51036" /> 
<path d="M58090 51684 L58090 50955" /> 
<path d="M58049 51643 L58090 51684" /> 
<path d="M57929 51594 L58049 51643" /> 
<path d="M57821 51594 L57929 51594" /> 
<path d="M57740 51675 L57821 51594" /> 
<path d="M57740 52145 L57740 51675" /> 
<path d="M58110 52145 L57740 52145" /> 
<path d="M58191 52064 L58110 52145" /> 
<path d="M58191 52326 L58191 52064" /> 
<path d="M58110 52245 L58191 52326" /> 
<path d="M57740 52245 L58110 52245" /> 
<path d="M57740 52715 L57740 52245" /> 
<path d="M57821 52796 L57740 52715" /> 
<path d="M57929 52796 L57821 52796" /> 
<path d="M58049 52747 L57929 52796" /> 
<path d="M58141 52655 L58049 52747" /> 
<path d="M58191 52536 L58141 52655" /> 
<path d="M58191 54544 L58191 52536" /> 
<path d="M58099 54544 L58191 54544" /> 
<path d="M57980 54594 L58099 54544" /> 
<path d="M57888 54686 L57980 54594" /> 
<path d="M57839 54806 L57888 54686" /> 
<path d="M57839 54914 L57839 54806" /> 
<path d="M57920 54995 L57839 54914" /> 
<path d="M58390 54995 L57920 54995" /> 
<path d="M58390 55095 L58390 54995" /> 
<path d="M58340 55095 L58390 55095" /> 
<path d="M57920 55095 L58340 55095" /> 
<path d="M57839 55176 L57920 55095" /> 
<path d="M57839 55284 L57839 55176" /> 
<path d="M57888 55404 L57839 55284" /> 
<path d="M57958 55474 L57888 55404" /> 
<path d="M57954 55479 L57958 55474" /> 
<path d="M57916 55570 L57954 55479" /> 
<path d="M57916 55669 L57916 55570" /> 
<path d="M57916 55687 L57916 55669" /> 
<path d="M57596 56007 L57916 55687" /> 
<path d="M56696 56007 L57596 56007" /> 
<path d="M56678 55914 L56696 56007" /> 
<path d="M56581 55769 L56678 55914" /> 
<path d="M55567 54755 L56581 55769" /> 
<path d="M55567 51673 L55567 54755" /> 
<path d="M55615 51694 L55567 51673" /> 
<path d="M55714 51694 L55615 51694" /> 
<path d="M55818 51694 L55714 51694" /> 
<path d="M55818 52465 L55818 51694" /> 
<path d="M55779 52504 L55818 52465" /> 
<path d="M55741 52595 L55779 52504" /> 
<path d="M55741 52694 L55741 52595" /> 
<path d="M55741 53244 L55741 52694" /> 
<path d="M55779 53336 L55741 53244" /> 
<path d="M55818 53375 L55779 53336" /> 
<path d="M55818 54157 L55818 53375" /> 
<path d="M55800 54175 L55818 54157" /> 
<path d="M55716 54377 L55800 54175" /> 
<path d="M55716 54595 L55716 54377" /> 
<path d="M55800 54797 L55716 54595" /> 
<path d="M55954 54951 L55800 54797" /> 
<path d="M56156 55035 L55954 54951" /> 
<path d="M56374 55035 L56156 55035" /> 
<path d="M56576 54951 L56374 55035" /> 
<path d="M56730 54797 L56576 54951" /> 
<path d="M56814 54595 L56730 54797" /> 
<path d="M56814 54377 L56814 54595" /> 
<path d="M56730 54175 L56814 54377" /> 
<path d="M56712 54157 L56730 54175" /> 
<path d="M56712 53375 L56712 54157" /> 
<path d="M56751 53336 L56712 53375" /> 
<path d="M56789 53245 L56751 53336" /> 
<path d="M56789 53146 L56789 53245" /> 
<path d="M56789 52719 L56789 53146" /> 
<path d="M56814 52719 L56789 52719" /> 
<path d="M57164 52719 L56814 52719" /> 
<path d="M57256 52681 L57164 52719" /> 
<path d="M57260 52676 L57256 52681" /> 
<path d="M57331 52747 L57260 52676" /> 
<path d="M57451 52796 L57331 52747" /> 
<path d="M57559 52796 L57451 52796" /> 
<path d="M57640 52715 L57559 52796" /> 
<path d="M57640 52295 L57640 52715" /> 
<path d="M57640 52245 L57640 52295" /> 
<path d="M57640 52145 L57640 52245" /> 
<path d="M57640 52095 L57640 52145" /> 
<path d="M57640 51675 L57640 52095" /> 
<path d="M57618 51653 L57640 51675" /> 
<path d="M57641 51630 L57618 51653" /> 
<path d="M57691 51511 L57641 51630" /> 
<path d="M57691 51381 L57691 51511" /> 
<path d="M57691 51351 L57691 51381" /> 
<path d="M57610 51270 L57691 51351" /> 
<path d="M57365 51270 L57610 51270" /> 
<path d="M57315 51270 L57365 51270" /> 
<path d="M57215 51270 L57315 51270" /> 
<path d="M57215 51170 L57215 51270" /> 
<path d="M57215 51120 L57215 51170" /> 
<path d="M57215 50750 L57215 51120" /> 
<path d="M57134 50669 L57215 50750" /> 
<path d="M57101 50669 L57134 50669" /> 
<path d="M56981 50718 L57101 50669" /> 
<path d="M56941 50757 L56981 50718" /> 
<path d="M56915 50746 L56941 50757" /> 
<path d="M56816 50746 L56915 50746" /> 
<path d="M56616 50746 L56816 50746" /> 
<path d="M56524 50784 L56616 50746" /> 
<path d="M56515 50793 L56524 50784" /> 
<path d="M56506 50784 L56515 50793" /> 
<path d="M56415 50746 L56506 50784" /> 
<path d="M56316 50746 L56415 50746" /> 
<path d="M56212 50746 L56316 50746" /> 
<path d="M56212 50585 L56212 50746" /> 
<path d="M56178 50414 L56212 50585" /> 
<path d="M56081 50269 L56178 50414" /> 
<path d="M56024 50212 L56081 50269" /> 
<path d="M57015 50212 L56024 50212" /> 
<path d="M57186 50178 L57015 50212" /> 
<path d="M57331 50081 L57186 50178" /> 
<path d="M57567 49844 L57331 50081" /> 
<path d="M57616 49893 L57567 49844" /> 
<path d="M57616 50009 L57616 49893" /> 
<path d="M57654 50101 L57616 50009" /> 
<path d="M57658 50105 L57654 50101" /> 
<path d="M57588 50176 L57658 50105" /> 
<path d="M57539 50296 L57588 50176" /> 
<path d="M57539 50404 L57539 50296" /> 
<path d="M57620 50485 L57539 50404" /> 
<path d="M58040 50485 L57620 50485" /> 
<path d="M58090 50485 L58040 50485" /> 
<path d="M58190 50485 L58090 50485" /> 
<path d="M58240 50485 L58190 50485" /> 
<path d="M58660 50485 L58240 50485" /> 
<path d="M58741 50404 L58660 50485" /> 
<path d="M58741 50296 L58741 50404" /> 
<path d="M58692 50176 L58741 50296" /> 
<path d="M58621 50105 L58692 50176" /> 
<path d="M58626 50101 L58621 50105" /> 
<path d="M58664 50010 L58626 50101" /> 
<path d="M58664 49911 L58664 50010" /> 
<path d="M58664 49561 L58664 49911" /> 
<path d="M58626 49469 L58664 49561" /> 
<path d="M58556 49399 L58626 49469" /> 
<path d="M58516 49382 L58556 49399" /> 
<path d="M58516 48201 L58516 49382" /> 
<path d="M58516 48071 L58516 48201" /> 
<path d="M58516 47991 L58516 48071" /> 
<path d="M58516 47729 L58516 47991" /> 
<path d="M58516 47649 L58516 47729" /> 
<path d="M58516 47519 L58516 47649" /> 
<path d="M58466 47400 L58516 47519" /> 
<path d="M58451 47385 L58466 47400" /> 
<path d="M58466 47370 L58451 47385" /> 
<path d="M58516 47251 L58466 47370" /> 
<path d="M58516 47121 L58516 47251" /> 
<path d="M58516 47041 L58516 47121" /> 
<path d="M58435 46960 L58516 47041" /> 
<path d="M58065 46960 L58435 46960" /> 
<path d="M58065 47340 L58065 46960" /> 
<path d="M58065 47430 L58065 47340" /> 
<path d="M58065 47810 L58065 47430" /> 
<path d="M58435 47810 L58065 47810" /> 
<path d="M58516 47729 L58435 47810" /> 
<path d="M58516 47991 L58516 47729" /> 
<path d="M58435 47910 L58516 47991" /> 
<path d="M58065 47910 L58435 47910" /> 
<path d="M58065 48380 L58065 47910" /> 
<path d="M58146 48461 L58065 48380" /> 
<path d="M58254 48461 L58146 48461" /> 
<path d="M58374 48412 L58254 48461" /> 
<path d="M58466 48320 L58374 48412" /> 
<path d="M58516 48201 L58466 48320" /> 
<path d="M58516 49382 L58516 48201" /> 
<path d="M58465 49361 L58516 49382" /> 
<path d="M58366 49361 L58465 49361" /> 
<path d="M58348 49361 L58366 49361" /> 
<path d="M57791 48804 L58348 49361" /> 
<path d="M57646 48707 L57791 48804" /> 
<path d="M57483 48674 L57646 48707" /> 
<path d="M57468 48668 L57483 48674" /> 
<path d="M57506 48609 L57468 48668" /> 
<path d="M57508 48608 L57506 48609" /> 
<path d="M57553 48563 L57508 48608" /> 
<path d="M57641 48431 L57553 48563" /> 
<path d="M57646 48402 L57641 48431" /> 
<path d="M57656 48412 L57646 48402" /> 
<path d="M57776 48461 L57656 48412" /> 
<path d="M57884 48461 L57776 48461" /> 
<path d="M57965 48380 L57884 48461" /> 
<path d="M57965 47960 L57965 48380" /> 
<path d="M57965 47910 L57965 47960" /> 
<path d="M57965 47810 L57965 47910" /> 
<path d="M57965 47760 L57965 47810" /> 
<path d="M57965 47430 L57965 47760" /> 
<path d="M57965 47340 L57965 47430" /> 
<path d="M57965 47010 L57965 47340" /> 
<path d="M57965 46960 L57965 47010" /> 
<path d="M57965 46860 L57965 46960" /> 
<path d="M58065 46860 L57965 46860" /> 
<path d="M58115 46860 L58065 46860" /> 
<path d="M58435 46860 L58115 46860" /> 
<path d="M58516 46779 L58435 46860" /> 
<path d="M58516 46699 L58516 46779" /> 
<path d="M58516 46647 L58516 46699" /> 
<path d="M63680 46647 L58516 46647" /> 
<path d="M63851 46613 L63680 46647" /> 
<path d="M63996 46516 L63851 46613" /> 
<path d="M64368 46144 L63996 46516" /> 
<path d="M64368 47105 L64368 46144" /> 
<path d="M64368 47780 L64368 47105" /> 
<path d="M63004 49144 L64368 47780" /> 
<path d="M62907 49289 L63004 49144" /> 
<path d="M62873 49460 L62907 49289" /> 
<path d="M62873 49820 L62873 49460" /> 
<path d="M62907 49991 L62873 49820" /> 
<path d="M63004 50136 L62907 49991" /> 
<path d="M63149 50233 L63004 50136" /> 
<path d="M63298 50262 L63149 50233" /> 
<path d="M63367 50331 L63298 50262" /> 
<path d="M63368 50332 L63367 50331" /> 
<path d="M63456 50390 L63368 50332" /> 
<path d="M63456 50679 L63456 50390" /> 
<path d="M63494 50771 L63456 50679" /> 
<path d="M63564 50841 L63494 50771" /> 
<path d="M63573 50844 L63564 50841" /> 
<path d="M63573 50879 L63573 50844" /> 
<path d="M63553 50980 L63573 50879" /> 
<path d="M63553 51920 L63553 50980" /> 
<path d="M63587 52091 L63553 51920" /> 
<path d="M63684 52236 L63587 52091" /> 
<path d="M63933 52485 L63684 52236" /> 
<path d="M63933 55760 L63933 52485" /> 
<path d="M63967 55931 L63933 55760" /> 
<path d="M64064 56076 L63967 55931" /> 
<path d="M64809 56821 L64064 56076" /> 
<path d="M64815 56835 L64809 56821" /> 
<path d="M64953 56973 L64815 56835" /> 
</g>
<g style="fill:#000000; fill-opacity:1.00; stroke:#000000; stroke-opacity:1.00; stroke-linecap:round; stroke-linejoin:round; stroke-width:0" 
   transform="translate(0.00 0.00) scale(1.00 1.00)">
<polygon style="fill-rule:evenodd; " 
points="61590,56123
61433,56123
61433,54679
61423,54415
61340,54214
61219,54187
61148,54258
61148,54116
61121,53995
60874,53902
60610,53912
60409,53995
60382,54116
60765,54499
61148,54116
61148,54258
60836,54570
61219,54953
61340,54926
61433,54679
61433,56123
61344,56123
61326,56079
61256,56009
61165,55971
61148,55971
61148,55024
60765,54641
60694,54712
60694,54570
60311,54187
60190,54214
60097,54461
60107,54725
60190,54926
60311,54953
60694,54570
60694,54712
60382,55024
60409,55145
60656,55238
60920,55228
61121,55145
61148,55024
61148,55971
61066,55971
60366,55971
60274,56009
60204,56079
60185,56123
59858,56123
59858,53011
59848,52777
59778,52609
59666,52590
59595,52661
59595,52519
59576,52407
59356,52327
59122,52337
58954,52407
58935,52519
59265,52849
59595,52519
59595,52661
59336,52920
59666,53250
59778,53231
59858,53011
59858,56123
59595,56123
59595,53321
59265,52991
59194,53062
59194,52920
58864,52590
58752,52609
58741,52639
58741,50774
58741,50666
58660,50585
58190,50585
58190,50955
58271,51036
58351,51036
58481,51036
58600,50986
58692,50894
58741,50774
58741,52639
58672,52829
58682,53063
58752,53231
58864,53250
59194,52920
59194,53062
58935,53321
58954,53433
59174,53513
59408,53503
59576,53433
59595,53321
59595,56123
59400,56123
58964,55687
58964,55571
58926,55479
58921,55474
58992,55404
59041,55284
59041,55176
59041,54914
59041,54806
58992,54686
58900,54594
58781,54544
58651,54544
58571,54544
58490,54625
58490,54995
58960,54995
59041,54914
59041,55176
58960,55095
58540,55095
58490,55095
58390,55095
58390,54995
58390,54625
58309,54544
58229,54544
58191,54544
58191,52536
58191,52406
58191,52326
58191,52064
58191,51984
58191,51854
58141,51735
58090,51684
58090,50955
58090,50585
57620,50585
57539,50666
57539,50713
57429,50669
57396,50669
57315,50750
57315,51170
57610,51170
57691,51089
57691,51059
57691,50990
57799,51036
57929,51036
58009,51036
58090,50955
58090,51684
58049,51643
57929,51594
57821,51594
57740,51675
57740,52145
58110,52145
58191,52064
58191,52326
58110,52245
57740,52245
57740,52715
57821,52796
57929,52796
58049,52747
58141,52655
58191,52536
58191,54544
58099,54544
57980,54594
57888,54686
57839,54806
57839,54914
57920,54995
58390,54995
58390,55095
58340,55095
57920,55095
57839,55176
57839,55284
57888,55404
57958,55474
57954,55479
57916,55570
57916,55669
57916,55687
57596,56007
56696,56007
56678,55914
56581,55769
55567,54755
55567,51673
55615,51694
55714,51694
55818,51694
55818,52465
55779,52504
55741,52595
55741,52694
55741,53244
55779,53336
55818,53375
55818,54157
55800,54175
55716,54377
55716,54595
55800,54797
55954,54951
56156,55035
56374,55035
56576,54951
56730,54797
56814,54595
56814,54377
56730,54175
56712,54157
56712,53375
56751,53336
56789,53245
56789,53146
56789,52719
56814,52719
57164,52719
57256,52681
57260,52676
57331,52747
57451,52796
57559,52796
57640,52715
57640,52295
57640,52245
57640,52145
57640,52095
57640,51675
57618,51653
57641,51630
57691,51511
57691,51381
57691,51351
57610,51270
57365,51270
57315,51270
57215,51270
57215,51170
57215,51120
57215,50750
57134,50669
57101,50669
56981,50718
56941,50757
56915,50746
56816,50746
56616,50746
56524,50784
56515,50793
56506,50784
56415,50746
56316,50746
56212,50746
56212,50585
56178,50414
56081,50269
56024,50212
57015,50212
57186,50178
57331,50081
57567,49844
57616,49893
57616,50009
57654,50101
57658,50105
57588,50176
57539,50296
57539,50404
57620,50485
58040,50485
58090,50485
58190,50485
58240,50485
58660,50485
58741,50404
58741,50296
58692,50176
58621,50105
58626,50101
58664,50010
58664,49911
58664,49561
58626,49469
58556,49399
58516,49382
58516,48201
58516,48071
58516,47991
58516,47729
58516,47649
58516,47519
58466,47400
58451,47385
58466,47370
58516,47251
58516,47121
58516,47041
58435,46960
58065,46960
58065,47340
58065,47430
58065,47810
58435,47810
58516,47729
58516,47991
58435,47910
58065,47910
58065,48380
58146,48461
58254,48461
58374,48412
58466,48320
58516,48201
58516,49382
58465,49361
58366,49361
58348,49361
57791,48804
57646,48707
57483,48674
57468,48668
57506,48609
57508,48608
57553,48563
57641,48431
57646,48402
57656,48412
57776,48461
57884,48461
57965,48380
57965,47960
57965,47910
57965,47810
57965,47760
57965,47430
57965,47340
57965,47010
57965,46960
57965,46860
58065,46860
58115,46860
58435,46860
58516,46779
58516,46699
58516,46647
63680,46647
63851,46613
63996,46516
64368,46144
64368,47105
64368,47780
63004,49144
62907,49289
62873,49460
62873,49820
62907,49991
63004,50136
63149,50233
63298,50262
63367,50331
63368,50332
63456,50390
63456,50679
63494,50771
63564,50841
63573,50844
63573,50879
63553,50980
63553,51920
63587,52091
63684,52236
63933,52485
63933,55760
63967,55931
64064,56076
64809,56821
64815,56835
64953,56973
64953,56973
62625,56973
61906,56254
61761,56157
" /> 
</g>
<g style="fill:#000000; fill-opacity:1.00; stroke:#000000; stroke-opacity:1.00; stroke-linecap:round; stroke-linejoin:round; stroke-width:100" 
   transform="translate(0.00 0.00) scale(1.00 1.00)">
<path d="M68273 59209 L68273 59209" /> 
<path d="M68261 59235 L68273 59209" /> 
<path d="M68232 59165 L68261 59235" /> 
<path d="M68140 59073 L68232 59165" /> 
<path d="M68020 59024 L68140 59073" /> 
<path d="M67851 59024 L68020 59024" /> 
<path d="M67770 59105 L67851 59024" /> 
<path d="M67770 59840 L67770 59105" /> 
<path d="M67770 59890 L67770 59840" /> 
<path d="M67770 59990 L67770 59890" /> 
<path d="M67670 59990 L67770 59990" /> 
<path d="M67670 59890 L67670 59990" /> 
<path d="M67670 59105 L67670 59890" /> 
<path d="M67589 59024 L67670 59105" /> 
<path d="M67420 59024 L67589 59024" /> 
<path d="M67300 59073 L67420 59024" /> 
<path d="M67220 59153 L67300 59073" /> 
<path d="M67140 59073 L67220 59153" /> 
<path d="M67020 59024 L67140 59073" /> 
<path d="M66851 59024 L67020 59024" /> 
<path d="M66770 59105 L66851 59024" /> 
<path d="M66770 59890 L66770 59105" /> 
<path d="M67201 59890 L66770 59890" /> 
<path d="M67220 59871 L67201 59890" /> 
<path d="M67239 59890 L67220 59871" /> 
<path d="M67670 59890 L67239 59890" /> 
<path d="M67670 59990 L67670 59890" /> 
<path d="M67620 59990 L67670 59990" /> 
<path d="M67239 59990 L67620 59990" /> 
<path d="M67220 60009 L67239 59990" /> 
<path d="M67201 59990 L67220 60009" /> 
<path d="M66820 59990 L67201 59990" /> 
<path d="M66770 59990 L66820 59990" /> 
<path d="M66670 59990 L66770 59990" /> 
<path d="M66670 59890 L66670 59990" /> 
<path d="M66670 59840 L66670 59890" /> 
<path d="M66670 59105 L66670 59840" /> 
<path d="M66589 59024 L66670 59105" /> 
<path d="M66420 59024 L66589 59024" /> 
<path d="M66300 59073 L66420 59024" /> 
<path d="M66208 59165 L66300 59073" /> 
<path d="M66178 59236 L66208 59165" /> 
<path d="M66167 59209 L66178 59236" /> 
<path d="M66097 59139 L66167 59209" /> 
<path d="M66006 59101 L66097 59139" /> 
<path d="M65907 59101 L66006 59101" /> 
<path d="M65435 59101 L65907 59101" /> 
<path d="M65343 59139 L65435 59101" /> 
<path d="M65273 59209 L65343 59139" /> 
<path d="M65235 59300 L65273 59209" /> 
<path d="M65235 59399 L65235 59300" /> 
<path d="M65235 60325 L65235 59399" /> 
<path d="M65205 60325 L65235 60325" /> 
<path d="M65205 59301 L65205 60325" /> 
<path d="M65167 59209 L65205 59301" /> 
<path d="M65097 59139 L65167 59209" /> 
<path d="M65006 59101 L65097 59139" /> 
<path d="M64907 59101 L65006 59101" /> 
<path d="M64435 59101 L64907 59101" /> 
<path d="M64343 59139 L64435 59101" /> 
<path d="M64273 59209 L64343 59139" /> 
<path d="M64235 59300 L64273 59209" /> 
<path d="M64235 59399 L64235 59300" /> 
<path d="M64235 60325 L64235 59399" /> 
<path d="M46325 60325 L64235 60325" /> 
<path d="M46325 45375 L46325 60325" /> 
<path d="M63873 45375 L46325 45375" /> 
<path d="M63495 45753 L63873 45375" /> 
<path d="M57460 45753 L63495 45753" /> 
<path d="M57330 45778 L57460 45753" /> 
<path d="M57171 45619 L57330 45778" /> 
<path d="M57026 45522 L57171 45619" /> 
<path d="M56855 45488 L57026 45522" /> 
<path d="M56720 45488 L56855 45488" /> 
<path d="M56681 45449 L56720 45488" /> 
<path d="M56590 45411 L56681 45449" /> 
<path d="M56491 45411 L56590 45411" /> 
<path d="M56141 45411 L56491 45411" /> 
<path d="M56049 45449 L56141 45411" /> 
<path d="M55990 45508 L56049 45449" /> 
<path d="M55931 45449 L55990 45508" /> 
<path d="M55840 45411 L55931 45449" /> 
<path d="M55741 45411 L55840 45411" /> 
<path d="M55391 45411 L55741 45411" /> 
<path d="M55299 45449 L55391 45411" /> 
<path d="M55229 45519 L55299 45449" /> 
<path d="M55191 45610 L55229 45519" /> 
<path d="M55191 45709 L55191 45610" /> 
<path d="M55191 45819 L55191 45709" /> 
<path d="M55168 45935 L55191 45819" /> 
<path d="M55168 46910 L55168 45935" /> 
<path d="M55168 47674 L55168 46910" /> 
<path d="M54809 48033 L55168 47674" /> 
<path d="M54780 48033 L54809 48033" /> 
<path d="M54609 48067 L54780 48033" /> 
<path d="M54464 48164 L54609 48067" /> 
<path d="M54463 48164 L54464 48164" /> 
<path d="M54463 48165 L54463 48164" /> 
<path d="M53984 48644 L54463 48165" /> 
<path d="M53887 48789 L53984 48644" /> 
<path d="M53853 48960 L53887 48789" /> 
<path d="M53853 49780 L53853 48960" /> 
<path d="M53887 49951 L53853 49780" /> 
<path d="M53984 50096 L53887 49951" /> 
<path d="M54068 50152 L53984 50096" /> 
<path d="M54308 50392 L54068 50152" /> 
<path d="M54376 50437 L54308 50392" /> 
<path d="M54376 50739 L54376 50437" /> 
<path d="M54414 50831 L54376 50739" /> 
<path d="M54484 50901 L54414 50831" /> 
<path d="M54493 50904 L54484 50901" /> 
<path d="M54493 51440 L54493 50904" /> 
<path d="M54524 51596 L54493 51440" /> 
<path d="M54612 51728 L54524 51596" /> 
<path d="M54673 51789 L54612 51728" /> 
<path d="M54673 54940 L54673 51789" /> 
<path d="M54707 55111 L54673 54940" /> 
<path d="M54804 55256 L54707 55111" /> 
<path d="M55767 56219 L54804 55256" /> 
<path d="M55716 56345 L55767 56219" /> 
<path d="M55716 56563 L55716 56345" /> 
<path d="M55800 56765 L55716 56563" /> 
<path d="M55954 56919 L55800 56765" /> 
<path d="M56156 57003 L55954 56919" /> 
<path d="M56374 57003 L56156 57003" /> 
<path d="M56576 56919 L56374 57003" /> 
<path d="M56594 56901 L56576 56919" /> 
<path d="M57781 56901 L56594 56901" /> 
<path d="M57952 56867 L57781 56901" /> 
<path d="M58097 56770 L57952 56867" /> 
<path d="M58440 56427 L58097 56770" /> 
<path d="M58899 56886 L58440 56427" /> 
<path d="M59044 56983 L58899 56886" /> 
<path d="M59215 57017 L59044 56983" /> 
<path d="M60185 57017 L59215 57017" /> 
<path d="M60204 57061 L60185 57017" /> 
<path d="M60274 57131 L60204 57061" /> 
<path d="M60365 57169 L60274 57131" /> 
<path d="M60464 57169 L60365 57169" /> 
<path d="M61164 57169 L60464 57169" /> 
<path d="M61256 57131 L61164 57169" /> 
<path d="M61326 57061 L61256 57131" /> 
<path d="M61344 57017 L61326 57061" /> 
<path d="M61405 57017 L61344 57017" /> 
<path d="M62124 57736 L61405 57017" /> 
<path d="M62269 57833 L62124 57736" /> 
<path d="M62440 57867 L62269 57833" /> 
<path d="M67615 57867 L62440 57867" /> 
<path d="M68273 58525 L67615 57867" /> 
<path d="M68273 59209 L68273 58525" /> 
</g>
<g style="fill:#000000; fill-opacity:1.00; stroke:#000000; stroke-opacity:1.00; stroke-linecap:round; stroke-linejoin:round; stroke-width:0" 
   transform="translate(0.00 0.00) scale(1.00 1.00)">
<polygon style="fill-rule:evenodd; " 
points="68020,59024
67851,59024
67770,59105
67770,59840
67770,59890
67770,59990
67670,59990
67670,59890
67670,59105
67589,59024
67420,59024
67300,59073
67220,59153
67140,59073
67020,59024
66851,59024
66770,59105
66770,59890
67201,59890
67220,59871
67239,59890
67670,59890
67670,59990
67620,59990
67239,59990
67220,60009
67201,59990
66820,59990
66770,59990
66670,59990
66670,59890
66670,59840
66670,59105
66589,59024
66420,59024
66300,59073
66208,59165
66178,59236
66167,59209
66097,59139
66006,59101
65907,59101
65435,59101
65343,59139
65273,59209
65235,59300
65235,59399
65235,60325
65205,60325
65205,59301
65167,59209
65097,59139
65006,59101
64907,59101
64435,59101
64343,59139
64273,59209
64235,59300
64235,59399
64235,60325
46325,60325
46325,45375
63873,45375
63495,45753
57460,45753
57330,45778
57171,45619
57026,45522
56855,45488
56720,45488
56681,45449
56590,45411
56491,45411
56141,45411
56049,45449
55990,45508
55931,45449
55840,45411
55741,45411
55391,45411
55299,45449
55229,45519
55191,45610
55191,45709
55191,45819
55168,45935
55168,46910
55168,47674
54809,48033
54780,48033
54609,48067
54464,48164
54463,48164
54463,48165
53984,48644
53887,48789
53853,48960
53853,49780
53887,49951
53984,50096
54068,50152
54308,50392
54376,50437
54376,50739
54414,50831
54484,50901
54493,50904
54493,51440
54524,51596
54612,51728
54673,51789
54673,54940
54707,55111
54804,55256
55767,56219
55716,56345
55716,56563
55800,56765
55954,56919
56156,57003
56374,57003
56576,56919
56594,56901
57781,56901
57952,56867
58097,56770
58440,56427
58899,56886
59044,56983
59215,57017
60185,57017
60204,57061
60274,57131
60365,57169
60464,57169
61164,57169
61256,57131
61326,57061
61344,57017
61405,57017
62124,57736
62269,57833
62440,57867
67615,57867
68273,58525
68273,59209
68273,59209
68261,59235
68232,59165
68140,59073
" /> 
</g>
<g style="fill:#000000; fill-opacity:1.00; stroke:#000000; stroke-opacity:1.00; stroke-linecap:round; stroke-linejoin:round; stroke-width:100" 
   transform="translate(0.00 0.00) scale(1.00 1.00)">
<path d="M71273 57813 L71273 57813" /> 
<path d="M70800 57813 L71273 57813" /> 
<path d="M70629 57847 L70800 57813" /> 
<path d="M70484 57944 L70629 57847" /> 
<path d="M70448 57980 L70484 57944" /> 
<path d="M70448 54649 L70448 57980" /> 
<path d="M70438 54385 L70448 54649" /> 
<path d="M70355 54184 L70438 54385" /> 
<path d="M70234 54157 L70355 54184" /> 
<path d="M70163 54228 L70234 54157" /> 
<path d="M70163 54086 L70163 54228" /> 
<path d="M70136 53965 L70163 54086" /> 
<path d="M69889 53872 L70136 53965" /> 
<path d="M69625 53882 L69889 53872" /> 
<path d="M69424 53965 L69625 53882" /> 
<path d="M69397 54086 L69424 53965" /> 
<path d="M69780 54469 L69397 54086" /> 
<path d="M70163 54086 L69780 54469" /> 
<path d="M70163 54228 L70163 54086" /> 
<path d="M69851 54540 L70163 54228" /> 
<path d="M70234 54923 L69851 54540" /> 
<path d="M70355 54896 L70234 54923" /> 
<path d="M70448 54649 L70355 54896" /> 
<path d="M70448 57980 L70448 54649" /> 
<path d="M70404 58024 L70448 57980" /> 
<path d="M70307 58169 L70404 58024" /> 
<path d="M70273 58340 L70307 58169" /> 
<path d="M70273 59209 L70273 58340" /> 
<path d="M70235 59300 L70273 59209" /> 
<path d="M70235 59399 L70235 59300" /> 
<path d="M70235 60325 L70235 59399" /> 
<path d="M70205 60325 L70235 60325" /> 
<path d="M70205 59301 L70205 60325" /> 
<path d="M70167 59209 L70205 59301" /> 
<path d="M70167 57139 L70167 59209" /> 
<path d="M70179 57139 L70167 57139" /> 
<path d="M70271 57101 L70179 57139" /> 
<path d="M70341 57031 L70271 57101" /> 
<path d="M70379 56940 L70341 57031" /> 
<path d="M70379 56841 L70379 56940" /> 
<path d="M70379 56141 L70379 56841" /> 
<path d="M70341 56049 L70379 56141" /> 
<path d="M70271 55979 L70341 56049" /> 
<path d="M70180 55941 L70271 55979" /> 
<path d="M70163 55941 L70180 55941" /> 
<path d="M70163 54994 L70163 55941" /> 
<path d="M69780 54611 L70163 54994" /> 
<path d="M69709 54682 L69780 54611" /> 
<path d="M69709 54540 L69709 54682" /> 
<path d="M69326 54157 L69709 54540" /> 
<path d="M69205 54184 L69326 54157" /> 
<path d="M69112 54431 L69205 54184" /> 
<path d="M69122 54695 L69112 54431" /> 
<path d="M69205 54896 L69122 54695" /> 
<path d="M69326 54923 L69205 54896" /> 
<path d="M69709 54540 L69326 54923" /> 
<path d="M69709 54682 L69709 54540" /> 
<path d="M69397 54994 L69709 54682" /> 
<path d="M69424 55115 L69397 54994" /> 
<path d="M69671 55208 L69424 55115" /> 
<path d="M69935 55198 L69671 55208" /> 
<path d="M70136 55115 L69935 55198" /> 
<path d="M70163 54994 L70136 55115" /> 
<path d="M70163 55941 L70163 54994" /> 
<path d="M70081 55941 L70163 55941" /> 
<path d="M69813 55941 L70081 55941" /> 
<path d="M69451 55579 L69813 55941" /> 
<path d="M69306 55482 L69451 55579" /> 
<path d="M69135 55448 L69306 55482" /> 
<path d="M68873 55448 L69135 55448" /> 
<path d="M68873 53071 L68873 55448" /> 
<path d="M68863 52837 L68873 53071" /> 
<path d="M68793 52669 L68863 52837" /> 
<path d="M68681 52650 L68793 52669" /> 
<path d="M68610 52721 L68681 52650" /> 
<path d="M68610 52579 L68610 52721" /> 
<path d="M68591 52467 L68610 52579" /> 
<path d="M68371 52387 L68591 52467" /> 
<path d="M68137 52397 L68371 52387" /> 
<path d="M67969 52467 L68137 52397" /> 
<path d="M67950 52579 L67969 52467" /> 
<path d="M68280 52909 L67950 52579" /> 
<path d="M68610 52579 L68280 52909" /> 
<path d="M68610 52721 L68610 52579" /> 
<path d="M68351 52980 L68610 52721" /> 
<path d="M68681 53310 L68351 52980" /> 
<path d="M68793 53291 L68681 53310" /> 
<path d="M68873 53071 L68793 53291" /> 
<path d="M68873 55448 L68873 53071" /> 
<path d="M68610 55448 L68873 55448" /> 
<path d="M68610 53381 L68610 55448" /> 
<path d="M68280 53051 L68610 53381" /> 
<path d="M68209 53122 L68280 53051" /> 
<path d="M68209 52980 L68209 53122" /> 
<path d="M67879 52650 L68209 52980" /> 
<path d="M67821 52659 L67879 52650" /> 
<path d="M67821 50614 L67821 52659" /> 
<path d="M67821 50506 L67821 50614" /> 
<path d="M67740 50425 L67821 50506" /> 
<path d="M67270 50425 L67740 50425" /> 
<path d="M67270 50795 L67270 50425" /> 
<path d="M67351 50876 L67270 50795" /> 
<path d="M67431 50876 L67351 50876" /> 
<path d="M67561 50876 L67431 50876" /> 
<path d="M67680 50826 L67561 50876" /> 
<path d="M67772 50734 L67680 50826" /> 
<path d="M67821 50614 L67772 50734" /> 
<path d="M67821 52659 L67821 50614" /> 
<path d="M67767 52669 L67821 52659" /> 
<path d="M67687 52889 L67767 52669" /> 
<path d="M67697 53123 L67687 52889" /> 
<path d="M67767 53291 L67697 53123" /> 
<path d="M67879 53310 L67767 53291" /> 
<path d="M68209 52980 L67879 53310" /> 
<path d="M68209 53122 L68209 52980" /> 
<path d="M67950 53381 L68209 53122" /> 
<path d="M67969 53493 L67950 53381" /> 
<path d="M68189 53573 L67969 53493" /> 
<path d="M68423 53563 L68189 53573" /> 
<path d="M68591 53493 L68423 53563" /> 
<path d="M68610 53381 L68591 53493" /> 
<path d="M68610 55448 L68610 53381" /> 
<path d="M67994 55448 L68610 55448" /> 
<path d="M68021 55384 L67994 55448" /> 
<path d="M68021 55276 L68021 55384" /> 
<path d="M68021 55014 L68021 55276" /> 
<path d="M68021 54906 L68021 55014" /> 
<path d="M67972 54786 L68021 54906" /> 
<path d="M67880 54694 L67972 54786" /> 
<path d="M67761 54644 L67880 54694" /> 
<path d="M67631 54644 L67761 54644" /> 
<path d="M67551 54644 L67631 54644" /> 
<path d="M67470 54725 L67551 54644" /> 
<path d="M67470 55095 L67470 54725" /> 
<path d="M67940 55095 L67470 55095" /> 
<path d="M68021 55014 L67940 55095" /> 
<path d="M68021 55276 L68021 55014" /> 
<path d="M67940 55195 L68021 55276" /> 
<path d="M67520 55195 L67940 55195" /> 
<path d="M67470 55195 L67520 55195" /> 
<path d="M67370 55195 L67470 55195" /> 
<path d="M67370 55095 L67370 55195" /> 
<path d="M67370 54725 L67370 55095" /> 
<path d="M67289 54644 L67370 54725" /> 
<path d="M67209 54644 L67289 54644" /> 
<path d="M67170 54644 L67209 54644" /> 
<path d="M67170 50795 L67170 54644" /> 
<path d="M67170 50425 L67170 50795" /> 
<path d="M66700 50425 L67170 50425" /> 
<path d="M66619 50506 L66700 50425" /> 
<path d="M66619 50614 L66619 50506" /> 
<path d="M66659 50713 L66619 50614" /> 
<path d="M66574 50628 L66659 50713" /> 
<path d="M66454 50579 L66574 50628" /> 
<path d="M66421 50579 L66454 50579" /> 
<path d="M66340 50660 L66421 50579" /> 
<path d="M66340 51080 L66340 50660" /> 
<path d="M66635 51080 L66340 51080" /> 
<path d="M66716 50999 L66635 51080" /> 
<path d="M66716 50969 L66716 50999" /> 
<path d="M66716 50839 L66716 50969" /> 
<path d="M66674 50740 L66716 50839" /> 
<path d="M66760 50826 L66674 50740" /> 
<path d="M66879 50876 L66760 50826" /> 
<path d="M67009 50876 L66879 50876" /> 
<path d="M67089 50876 L67009 50876" /> 
<path d="M67170 50795 L67089 50876" /> 
<path d="M67170 54644 L67170 50795" /> 
<path d="M67141 54644 L67170 54644" /> 
<path d="M67141 52446 L67141 54644" /> 
<path d="M67141 52316 L67141 52446" /> 
<path d="M67141 52236 L67141 52316" /> 
<path d="M67060 52155 L67141 52236" /> 
<path d="M66690 52155 L67060 52155" /> 
<path d="M66690 52625 L66690 52155" /> 
<path d="M66771 52706 L66690 52625" /> 
<path d="M66879 52706 L66771 52706" /> 
<path d="M66999 52657 L66879 52706" /> 
<path d="M67091 52565 L66999 52657" /> 
<path d="M67141 52446 L67091 52565" /> 
<path d="M67141 54644 L67141 52446" /> 
<path d="M67079 54644 L67141 54644" /> 
<path d="M66960 54694 L67079 54644" /> 
<path d="M66868 54786 L66960 54694" /> 
<path d="M66819 54906 L66868 54786" /> 
<path d="M66819 55014 L66819 54906" /> 
<path d="M66900 55095 L66819 55014" /> 
<path d="M67370 55095 L66900 55095" /> 
<path d="M67370 55195 L67370 55095" /> 
<path d="M67320 55195 L67370 55195" /> 
<path d="M66900 55195 L67320 55195" /> 
<path d="M66819 55276 L66900 55195" /> 
<path d="M66819 55384 L66819 55276" /> 
<path d="M66845 55448 L66819 55384" /> 
<path d="M65909 55448 L66845 55448" /> 
<path d="M65737 55482 L65909 55448" /> 
<path d="M65593 55579 L65737 55482" /> 
<path d="M65212 55960 L65593 55579" /> 
<path d="M64827 55575 L65212 55960" /> 
<path d="M64827 54879 L64827 55575" /> 
<path d="M64969 55021 L64827 54879" /> 
<path d="M65171 55105 L64969 55021" /> 
<path d="M65389 55105 L65171 55105" /> 
<path d="M65591 55021 L65389 55105" /> 
<path d="M65745 54867 L65591 55021" /> 
<path d="M65829 54665 L65745 54867" /> 
<path d="M65829 54447 L65829 54665" /> 
<path d="M65745 54245 L65829 54447" /> 
<path d="M65727 54227 L65745 54245" /> 
<path d="M65727 53435 L65727 54227" /> 
<path d="M65766 53396 L65727 53435" /> 
<path d="M65804 53305 L65766 53396" /> 
<path d="M65804 53206 L65804 53305" /> 
<path d="M65804 52656 L65804 53206" /> 
<path d="M65792 52629 L65804 52656" /> 
<path d="M66114 52629 L65792 52629" /> 
<path d="M66206 52591 L66114 52629" /> 
<path d="M66210 52586 L66206 52591" /> 
<path d="M66281 52657 L66210 52586" /> 
<path d="M66401 52706 L66281 52657" /> 
<path d="M66509 52706 L66401 52706" /> 
<path d="M66590 52625 L66509 52706" /> 
<path d="M66590 52205 L66590 52625" /> 
<path d="M66590 52155 L66590 52205" /> 
<path d="M66590 52055 L66590 52155" /> 
<path d="M66690 52055 L66590 52055" /> 
<path d="M66740 52055 L66690 52055" /> 
<path d="M67060 52055 L66740 52055" /> 
<path d="M67141 51974 L67060 52055" /> 
<path d="M67141 51894 L67141 51974" /> 
<path d="M67141 51764 L67141 51894" /> 
<path d="M67091 51645 L67141 51764" /> 
<path d="M66999 51553 L67091 51645" /> 
<path d="M66879 51504 L66999 51553" /> 
<path d="M66771 51504 L66879 51504" /> 
<path d="M66740 51535 L66771 51504" /> 
<path d="M66740 51504 L66740 51535" /> 
<path d="M66681 51504 L66740 51504" /> 
<path d="M66716 51421 L66681 51504" /> 
<path d="M66716 51291 L66716 51421" /> 
<path d="M66716 51261 L66716 51291" /> 
<path d="M66635 51180 L66716 51261" /> 
<path d="M66390 51180 L66635 51180" /> 
<path d="M66340 51180 L66390 51180" /> 
<path d="M66240 51180 L66340 51180" /> 
<path d="M66240 51080 L66240 51180" /> 
<path d="M66240 51030 L66240 51080" /> 
<path d="M66240 50660 L66240 51030" /> 
<path d="M66159 50579 L66240 50660" /> 
<path d="M66126 50579 L66159 50579" /> 
<path d="M66006 50628 L66126 50579" /> 
<path d="M65966 50667 L66006 50628" /> 
<path d="M65940 50656 L65966 50667" /> 
<path d="M65841 50656 L65940 50656" /> 
<path d="M65641 50656 L65841 50656" /> 
<path d="M65549 50694 L65641 50656" /> 
<path d="M65540 50703 L65549 50694" /> 
<path d="M65531 50694 L65540 50703" /> 
<path d="M65440 50656 L65531 50694" /> 
<path d="M65341 50656 L65440 50656" /> 
<path d="M65237 50656 L65341 50656" /> 
<path d="M65237 50410 L65237 50656" /> 
<path d="M65208 50266 L65237 50410" /> 
<path d="M65203 50239 L65208 50266" /> 
<path d="M65203 50238 L65203 50239" /> 
<path d="M65145 50152 L65203 50238" /> 
<path d="M66195 50152 L65145 50152" /> 
<path d="M66366 50118 L66195 50152" /> 
<path d="M66511 50021 L66366 50118" /> 
<path d="M66575 49957 L66511 50021" /> 
<path d="M66575 49956 L66575 49957" /> 
<path d="M66576 49956 L66575 49956" /> 
<path d="M66672 49812 L66576 49956" /> 
<path d="M66673 49811 L66672 49812" /> 
<path d="M66696 49695 L66673 49811" /> 
<path d="M66696 49849 L66696 49695" /> 
<path d="M66734 49941 L66696 49849" /> 
<path d="M66738 49945 L66734 49941" /> 
<path d="M66668 50016 L66738 49945" /> 
<path d="M66619 50136 L66668 50016" /> 
<path d="M66619 50244 L66619 50136" /> 
<path d="M66700 50325 L66619 50244" /> 
<path d="M67120 50325 L66700 50325" /> 
<path d="M67170 50325 L67120 50325" /> 
<path d="M67270 50325 L67170 50325" /> 
<path d="M67320 50325 L67270 50325" /> 
<path d="M67740 50325 L67320 50325" /> 
<path d="M67821 50244 L67740 50325" /> 
<path d="M67821 50136 L67821 50244" /> 
<path d="M67772 50016 L67821 50136" /> 
<path d="M67701 49945 L67772 50016" /> 
<path d="M67706 49941 L67701 49945" /> 
<path d="M67744 49850 L67706 49941" /> 
<path d="M67744 49751 L67744 49850" /> 
<path d="M67744 49401 L67744 49751" /> 
<path d="M67741 49393 L67744 49401" /> 
<path d="M67741 48396 L67741 49393" /> 
<path d="M67741 48266 L67741 48396" /> 
<path d="M67741 48186 L67741 48266" /> 
<path d="M67741 47924 L67741 48186" /> 
<path d="M67741 47844 L67741 47924" /> 
<path d="M67741 47714 L67741 47844" /> 
<path d="M67691 47595 L67741 47714" /> 
<path d="M67676 47580 L67691 47595" /> 
<path d="M67691 47565 L67676 47580" /> 
<path d="M67741 47446 L67691 47565" /> 
<path d="M67741 47316 L67741 47446" /> 
<path d="M67741 47236 L67741 47316" /> 
<path d="M67660 47155 L67741 47236" /> 
<path d="M67290 47155 L67660 47155" /> 
<path d="M67290 47535 L67290 47155" /> 
<path d="M67290 47625 L67290 47535" /> 
<path d="M67290 48005 L67290 47625" /> 
<path d="M67660 48005 L67290 48005" /> 
<path d="M67741 47924 L67660 48005" /> 
<path d="M67741 48186 L67741 47924" /> 
<path d="M67660 48105 L67741 48186" /> 
<path d="M67290 48105 L67660 48105" /> 
<path d="M67290 48575 L67290 48105" /> 
<path d="M67371 48656 L67290 48575" /> 
<path d="M67479 48656 L67371 48656" /> 
<path d="M67599 48607 L67479 48656" /> 
<path d="M67691 48515 L67599 48607" /> 
<path d="M67741 48396 L67691 48515" /> 
<path d="M67741 49393 L67741 48396" /> 
<path d="M67706 49309 L67741 49393" /> 
<path d="M67654 49257 L67706 49309" /> 
<path d="M67633 49149 L67654 49257" /> 
<path d="M67536 49004 L67633 49149" /> 
<path d="M67246 48714 L67536 49004" /> 
<path d="M67129 48635 L67246 48714" /> 
<path d="M67190 48575 L67129 48635" /> 
<path d="M67190 48155 L67190 48575" /> 
<path d="M67190 48105 L67190 48155" /> 
<path d="M67190 48005 L67190 48105" /> 
<path d="M67190 47955 L67190 48005" /> 
<path d="M67190 47625 L67190 47955" /> 
<path d="M67190 47535 L67190 47625" /> 
<path d="M67190 47205 L67190 47535" /> 
<path d="M67190 47155 L67190 47205" /> 
<path d="M67190 47055 L67190 47155" /> 
<path d="M67290 47055 L67190 47055" /> 
<path d="M67340 47055 L67290 47055" /> 
<path d="M67660 47055 L67340 47055" /> 
<path d="M67741 46974 L67660 47055" /> 
<path d="M67741 46894 L67741 46974" /> 
<path d="M67741 46764 L67741 46894" /> 
<path d="M67691 46645 L67741 46764" /> 
<path d="M67673 46627 L67691 46645" /> 
<path d="M68795 46627 L67673 46627" /> 
<path d="M69513 47345 L68795 46627" /> 
<path d="M69513 51760 L69513 47345" /> 
<path d="M69547 51931 L69513 51760" /> 
<path d="M69644 52076 L69547 51931" /> 
<path d="M71273 53705 L69644 52076" /> 
<path d="M71273 57813 L71273 53705" /> 
</g>
<g style="fill:#000000; fill-opacity:1.00; stroke:#000000; stroke-opacity:1.00; stroke-linecap:round; stroke-linejoin:round; stroke-width:0" 
   transform="translate(0.00 0.00) scale(1.00 1.00)">
<polygon style="fill-rule:evenodd; " 
points="70448,57980
70448,54649
70438,54385
70355,54184
70234,54157
70163,54228
70163,54086
70136,53965
69889,53872
69625,53882
69424,53965
69397,54086
69780,54469
70163,54086
70163,54228
69851,54540
70234,54923
70355,54896
70448,54649
70448,57980
70404,58024
70307,58169
70273,58340
70273,59209
70235,59300
70235,59399
70235,60325
70205,60325
70205,59301
70167,59209
70167,57139
70179,57139
70271,57101
70341,57031
70379,56940
70379,56841
70379,56141
70341,56049
70271,55979
70180,55941
70163,55941
70163,54994
69780,54611
69709,54682
69709,54540
69326,54157
69205,54184
69112,54431
69122,54695
69205,54896
69326,54923
69709,54540
69709,54682
69397,54994
69424,55115
69671,55208
69935,55198
70136,55115
70163,54994
70163,55941
70081,55941
69813,55941
69451,55579
69306,55482
69135,55448
68873,55448
68873,53071
68863,52837
68793,52669
68681,52650
68610,52721
68610,52579
68591,52467
68371,52387
68137,52397
67969,52467
67950,52579
68280,52909
68610,52579
68610,52721
68351,52980
68681,53310
68793,53291
68873,53071
68873,55448
68610,55448
68610,53381
68280,53051
68209,53122
68209,52980
67879,52650
67821,52659
67821,50614
67821,50506
67740,50425
67270,50425
67270,50795
67351,50876
67431,50876
67561,50876
67680,50826
67772,50734
67821,50614
67821,52659
67767,52669
67687,52889
67697,53123
67767,53291
67879,53310
68209,52980
68209,53122
67950,53381
67969,53493
68189,53573
68423,53563
68591,53493
68610,53381
68610,55448
67994,55448
68021,55384
68021,55276
68021,55014
68021,54906
67972,54786
67880,54694
67761,54644
67631,54644
67551,54644
67470,54725
67470,55095
67940,55095
68021,55014
68021,55276
67940,55195
67520,55195
67470,55195
67370,55195
67370,55095
67370,54725
67289,54644
67209,54644
67170,54644
67170,50795
67170,50425
66700,50425
66619,50506
66619,50614
66659,50713
66574,50628
66454,50579
66421,50579
66340,50660
66340,51080
66635,51080
66716,50999
66716,50969
66716,50839
66674,50740
66760,50826
66879,50876
67009,50876
67089,50876
67170,50795
67170,54644
67141,54644
67141,52446
67141,52316
67141,52236
67060,52155
66690,52155
66690,52625
66771,52706
66879,52706
66999,52657
67091,52565
67141,52446
67141,54644
67079,54644
66960,54694
66868,54786
66819,54906
66819,55014
66900,55095
67370,55095
67370,55195
67320,55195
66900,55195
66819,55276
66819,55384
66845,55448
65909,55448
65737,55482
65593,55579
65212,55960
64827,55575
64827,54879
64969,55021
65171,55105
65389,55105
65591,55021
65745,54867
65829,54665
65829,54447
65745,54245
65727,54227
65727,53435
65766,53396
65804,53305
65804,53206
65804,52656
65792,52629
66114,52629
66206,52591
66210,52586
66281,52657
66401,52706
66509,52706
66590,52625
66590,52205
66590,52155
66590,52055
66690,52055
66740,52055
67060,52055
67141,51974
67141,51894
67141,51764
67091,51645
66999,51553
66879,51504
66771,51504
66740,51535
66740,51504
66681,51504
66716,51421
66716,51291
66716,51261
66635,51180
66390,51180
66340,51180
66240,51180
66240,51080
66240,51030
66240,50660
66159,50579
66126,50579
66006,50628
65966,50667
65940,50656
65841,50656
65641,50656
65549,50694
65540,50703
65531,50694
65440,50656
65341,50656
65237,50656
65237,50410
65208,50266
65203,50239
65203,50238
65145,50152
66195,50152
66366,50118
66511,50021
66575,49957
66575,49956
66576,49956
66672,49812
66673,49811
66696,49695
66696,49849
66734,49941
66738,49945
66668,50016
66619,50136
66619,50244
66700,50325
67120,50325
67170,50325
67270,50325
67320,50325
67740,50325
67821,50244
67821,50136
67772,50016
67701,49945
67706,49941
67744,49850
67744,49751
67744,49401
67741,49393
67741,48396
67741,48266
67741,48186
67741,47924
67741,47844
67741,47714
67691,47595
67676,47580
67691,47565
67741,47446
67741,47316
67741,47236
67660,47155
67290,47155
67290,47535
67290,47625
67290,48005
67660,48005
67741,47924
67741,48186
67660,48105
67290,48105
67290,48575
67371,48656
67479,48656
67599,48607
67691,48515
67741,48396
67741,49393
67706,49309
67654,49257
67633,49149
67536,49004
67246,48714
67129,48635
67190,48575
67190,48155
67190,48105
67190,48005
67190,47955
67190,47625
67190,47535
67190,47205
67190,47155
67190,47055
67290,47055
67340,47055
67660,47055
67741,46974
67741,46894
67741,46764
67691,46645
67673,46627
68795,46627
69513,47345
69513,51760
69547,51931
69644,52076
71273,53705
71273,57813
71273,57813
70800,57813
70629,57847
70484,57944
" /> 
<polygon style="fill-rule:evenodd; " 
points="64690,49255
64690,48805
64890,48805
64890,49255
" /> 
<polygon style="fill-rule:evenodd; " 
points="64690,51355
64690,50905
64890,50905
64890,51355
" /> 
<polygon style="fill-rule:evenodd; " 
points="65190,49255
65190,48805
65390,48805
65390,49255
" /> 
<polygon style="fill-rule:evenodd; " 
points="65690,49255
65690,48805
65890,48805
65890,49255
" /> 
<polygon style="fill-rule:evenodd; " 
points="66190,49255
66190,48805
66390,48805
66390,49255
" /> 
<polygon style="fill-rule:evenodd; " 
points="65190,51355
65190,50905
65390,50905
65390,51355
" /> 
<polygon style="fill-rule:evenodd; " 
points="65690,51355
65690,50905
65890,50905
65890,51355
" /> 
<polygon style="fill-rule:evenodd; " 
points="66190,51355
66190,50905
66390,50905
66390,51355
" /> 
<polygon style="fill-rule:evenodd; " 
points="55665,49345
55665,48895
55865,48895
55865,49345
" /> 
<polygon style="fill-rule:evenodd; " 
points="55665,51445
55665,50995
55865,50995
55865,51445
" /> 
<polygon style="fill-rule:evenodd; " 
points="56165,49345
56165,48895
56365,48895
56365,49345
" /> 
<polygon style="fill-rule:evenodd; " 
points="56665,49345
56665,48895
56865,48895
56865,49345
" /> 
<polygon style="fill-rule:evenodd; " 
points="57165,49345
57165,48895
57365,48895
57365,49345
" /> 
<polygon style="fill-rule:evenodd; " 
points="56165,51445
56165,50995
56365,50995
56365,51445
" /> 
<polygon style="fill-rule:evenodd; " 
points="56665,51445
56665,50995
56865,50995
56865,51445
" /> 
<polygon style="fill-rule:evenodd; " 
points="57165,51445
57165,50995
57365,50995
57365,51445
" /> 
<polygon style="fill-rule:evenodd; " 
points="63705,49530
64255,49530
64255,49880
63705,49880
" /> 
<polygon style="fill-rule:evenodd; " 
points="63705,50280
64255,50280
64255,50630
63705,50630
" /> 
<polygon style="fill-rule:evenodd; " 
points="54625,49590
55175,49590
55175,49940
54625,49940
" /> 
<polygon style="fill-rule:evenodd; " 
points="54625,50340
55175,50340
55175,50690
54625,50690
" /> 
<polygon style="fill-rule:evenodd; " 
points="66945,49450
67495,49450
67495,49800
66945,49800
" /> 
<polygon style="fill-rule:evenodd; " 
points="66945,50200
67495,50200
67495,50550
66945,50550
" /> 
<polygon style="fill-rule:evenodd; " 
points="57865,49610
58415,49610
58415,49960
57865,49960
" /> 
<polygon style="fill-rule:evenodd; " 
points="57865,50360
58415,50360
58415,50710
57865,50710
" /> 
<polygon style="fill-rule:evenodd; " 
points="64640,46355
64640,45805
64990,45805
64990,46355
" /> 
<polygon style="fill-rule:evenodd; " 
points="65390,46355
65390,45805
65740,45805
65740,46355
" /> 
<polygon style="fill-rule:evenodd; " 
points="55440,46210
55440,45660
55790,45660
55790,46210
" /> 
<polygon style="fill-rule:evenodd; " 
points="56190,46210
56190,45660
56540,45660
56540,46210
" /> 
<polygon style="fill-rule:evenodd; " 
points="64640,47380
64640,46830
64990,46830
64990,47380
" /> 
<polygon style="fill-rule:evenodd; " 
points="65390,47380
65390,46830
65740,46830
65740,47380
" /> 
<polygon style="fill-rule:evenodd; " 
points="55440,47185
55440,46635
55790,46635
55790,47185
" /> 
<polygon style="fill-rule:evenodd; " 
points="56190,47185
56190,46635
56540,46635
56540,47185
" /> 
<polygon style="fill-rule:evenodd; " 
points="64640,48330
64640,47780
64990,47780
64990,48330
" /> 
<polygon style="fill-rule:evenodd; " 
points="65390,48330
65390,47780
65740,47780
65740,48330
" /> 
<polygon style="fill-rule:evenodd; " 
points="55440,48135
55440,47585
55790,47585
55790,48135
" /> 
<polygon style="fill-rule:evenodd; " 
points="56190,48135
56190,47585
56540,47585
56540,48135
" /> 
<polygon style="fill-rule:evenodd; " 
points="67695,56070
67145,56070
67145,55720
67695,55720
" /> 
<polygon style="fill-rule:evenodd; " 
points="67695,55320
67145,55320
67145,54970
67695,54970
" /> 
<polygon style="fill-rule:evenodd; " 
points="58715,55970
58165,55970
58165,55620
58715,55620
" /> 
<polygon style="fill-rule:evenodd; " 
points="58715,55220
58165,55220
58165,54870
58715,54870
" /> 
<polygon style="fill-rule:evenodd; " 
points="65715,52380
65715,51830
66065,51830
66065,52380
" /> 
<polygon style="fill-rule:evenodd; " 
points="66465,52380
66465,51830
66815,51830
66815,52380
" /> 
<polygon style="fill-rule:evenodd; " 
points="56765,52470
56765,51920
57115,51920
57115,52470
" /> 
<polygon style="fill-rule:evenodd; " 
points="57515,52470
57515,51920
57865,51920
57865,52470
" /> 
<polygon style="fill-rule:evenodd; " 
points="66315,48330
66315,47780
66665,47780
66665,48330
" /> 
<polygon style="fill-rule:evenodd; " 
points="67065,48330
67065,47780
67415,47780
67415,48330
" /> 
<polygon style="fill-rule:evenodd; " 
points="57090,48135
57090,47585
57440,47585
57440,48135
" /> 
<polygon style="fill-rule:evenodd; " 
points="57840,48135
57840,47585
58190,47585
58190,48135
" /> 
<polygon style="fill-rule:evenodd; " 
points="66315,47380
66315,46830
66665,46830
66665,47380
" /> 
<polygon style="fill-rule:evenodd; " 
points="67065,47380
67065,46830
67415,46830
67415,47380
" /> 
<polygon style="fill-rule:evenodd; " 
points="57090,47185
57090,46635
57440,46635
57440,47185
" /> 
<polygon style="fill-rule:evenodd; " 
points="57840,47185
57840,46635
58190,46635
58190,47185
" /> 
<polygon style="fill-rule:evenodd; " 
points="64956,59350
64956,60530
64484,60530
64484,59350
" /> 
<polygon style="fill-rule:evenodd; " 
points="65956,59350
65956,60530
65484,60530
65484,59350
" /> 
<polygon style="fill-rule:evenodd; " 
points="66956,59350
66956,60530
66484,60530
66484,59350
" /> 
<polygon style="fill-rule:evenodd; " 
points="67956,59350
67956,60530
67484,60530
67484,59350
" /> 
<polygon style="fill-rule:evenodd; " 
points="68956,59350
68956,60530
68484,60530
68484,59350
" /> 
<polygon style="fill-rule:evenodd; " 
points="69956,59350
69956,60530
69484,60530
69484,59350
" /> 
<polygon style="fill-rule:evenodd; " 
points="70956,59350
70956,60530
70484,60530
70484,59350
" /> 
<polygon style="fill-rule:evenodd; " 
points="71956,59350
71956,60530
71484,60530
71484,59350
" /> 
<ellipse cx="56265" cy="54486" rx="300" ry="300"  /> 
</g>
<g style="fill:#FFFFFF; fill-opacity:1.00; stroke:#808000; stroke-opacity:1.00; stroke-linecap:round; stroke-linejoin:round; stroke-width:0" 
   transform="translate(0.00 0.00) scale(1.00 1.00)">
<ellipse cx="56265" cy="54486" rx="160" ry="160"  /> 
</g>
<g style="fill:#000000; fill-opacity:1.00; stroke:#000000; stroke-opacity:1.00; stroke-linecap:round; stroke-linejoin:round; stroke-width:0" 
   transform="translate(0.00 0.00) scale(1.00 1.00)">
<ellipse cx="56265" cy="56454" rx="300" ry="300"  /> 
</g>
<g style="fill:#FFFFFF; fill-opacity:1.00; stroke:#808000; stroke-opacity:1.00; stroke-linecap:round; stroke-linejoin:round; stroke-width:0" 
   transform="translate(0.00 0.00) scale(1.00 1.00)">
<ellipse cx="56265" cy="56454" rx="160" ry="160"  /> 
</g>
<g style="fill:#000000; fill-opacity:1.00; stroke:#000000; stroke-opacity:1.00; stroke-linecap:round; stroke-linejoin:round; stroke-width:0" 
   transform="translate(0.00 0.00) scale(1.00 1.00)">
<ellipse cx="65280" cy="54556" rx="300" ry="300"  /> 
</g>
<g style="fill:#FFFFFF; fill-opacity:1.00; stroke:#808000; stroke-opacity:1.00; stroke-linecap:round; stroke-linejoin:round; stroke-width:0" 
   transform="translate(0.00 0.00) scale(1.00 1.00)">
<ellipse cx="65280" cy="54556" rx="160" ry="160"  /> 
</g>
<g style="fill:#000000; fill-opacity:1.00; stroke:#000000; stroke-opacity:1.00; stroke-linecap:round; stroke-linejoin:round; stroke-width:0" 
   transform="translate(0.00 0.00) scale(1.00 1.00)">
<ellipse cx="65280" cy="56524" rx="300" ry="300"  /> 
</g>
<g style="fill:#FFFFFF; fill-opacity:1.00; stroke:#808000; stroke-opacity:1.00; stroke-linecap:round; stroke-linejoin:round; stroke-width:0" 
   transform="translate(0.00 0.00) scale(1.00 1.00)">
<ellipse cx="65280" cy="56524" rx="160" ry="160"  /> 
</g>
<g style="fill:#000000; fill-opacity:1.00; stroke:#000000; stroke-opacity:1.00; stroke-linecap:round; stroke-linejoin:round; stroke-width:0" 
   transform="translate(0.00 0.00) scale(1.00 1.00)">
<polygon style="fill-rule:evenodd; " 
points="65555,52705
65555,53255
65005,53255
65005,52705
" /> 
<ellipse cx="68280" cy="52980" rx="275" ry="275"  /> 
<polygon style="fill-rule:evenodd; " 
points="56540,52645
56540,53195
55990,53195
55990,52645
" /> 
<ellipse cx="59265" cy="52920" rx="275" ry="275"  /> 
<polygon style="fill-rule:evenodd; " 
points="70130,56890
69430,56890
69430,56190
70130,56190
" /> 
</g>
<g style="fill:#FFFFFF; fill-opacity:1.00; stroke:#808000; stroke-opacity:1.00; stroke-linecap:round; stroke-linejoin:round; stroke-width:0" 
   transform="translate(0.00 0.00) scale(1.00 1.00)">
<ellipse cx="69780" cy="56540" rx="200" ry="200"  /> 
</g>
<g style="fill:#000000; fill-opacity:1.00; stroke:#000000; stroke-opacity:1.00; stroke-linecap:round; stroke-linejoin:round; stroke-width:0" 
   transform="translate(0.00 0.00) scale(1.00 1.00)">
<ellipse cx="69780" cy="54540" rx="350" ry="350"  /> 
</g>
<g style="fill:#FFFFFF; fill-opacity:1.00; stroke:#808000; stroke-opacity:1.00; stroke-linecap:round; stroke-linejoin:round; stroke-width:0" 
   transform="translate(0.00 0.00) scale(1.00 1.00)">
<ellipse cx="69780" cy="54540" rx="200" ry="200"  /> 
</g>
<g style="fill:#000000; fill-opacity:1.00; stroke:#000000; stroke-opacity:1.00; stroke-linecap:round; stroke-linejoin:round; stroke-width:0" 
   transform="translate(0.00 0.00) scale(1.00 1.00)">
<polygon style="fill-rule:evenodd; " 
points="61115,56920
60415,56920
60415,56220
61115,56220
" /> 
</g>
<g style="fill:#FFFFFF; fill-opacity:1.00; stroke:#808000; stroke-opacity:1.00; stroke-linecap:round; stroke-linejoin:round; stroke-width:0" 
   transform="translate(0.00 0.00) scale(1.00 1.00)">
<ellipse cx="60765" cy="56570" rx="200" ry="200"  /> 
</g>
<g style="fill:#000000; fill-opacity:1.00; stroke:#000000; stroke-opacity:1.00; stroke-linecap:round; stroke-linejoin:round; stroke-width:0" 
   transform="translate(0.00 0.00) scale(1.00 1.00)">
<ellipse cx="60765" cy="54570" rx="350" ry="350"  /> 
</g>
<g style="fill:#FFFFFF; fill-opacity:1.00; stroke:#808000; stroke-opacity:1.00; stroke-linecap:round; stroke-linejoin:round; stroke-width:0" 
   transform="translate(0.00 0.00) scale(1.00 1.00)">
<ellipse cx="60765" cy="54570" rx="200" ry="200"  /> 
</g>
<g style="fill:#FFFFFF; fill-opacity:1.00; stroke:#FFFFFF; stroke-opacity:1.00; stroke-linecap:round; stroke-linejoin:round; stroke-width:0" 
   transform="translate(0.00 0.00) scale(1.00 1.00)">
<ellipse cx="68640" cy="50960" rx="29" ry="29"  /> 
<ellipse cx="60140" cy="50620" rx="29" ry="29"  /> 
<ellipse cx="63040" cy="58460" rx="29" ry="29"  /> 
</g> 
</svg> 
