<?xml version="1.0" standalone="no"?>
<!DOCTYPE svg PUBLIC "-//W3C//DTD SVG 20010904//EN" 
"http://www.w3.org/TR/2001/REC-SVG-20010904/DTD/svg10.dtd"> 
<svg xmlns="http://www.w3.org/2000/svg" xmlns:xlink="http://www.w3.org/1999/xlink" 
    width="29.72cm" height="21.00cm" viewBox="0 0 11700 8267 "> 
<title>SVG Picture created as cable-power.svg </title>
<desc>Picture generated by wxSVG v0100 </desc>
<g style="fill:black; stroke:black; stroke-width:1">
</g>
<g style="fill:#000000; fill-opacity:0.0; stroke:#000000; stroke-opacity:1.00; stroke-linecap:round; stroke-linejoin:round; stroke-width:6" 
   transform="translate(0.00 0.00) scale(1.00 1.00)">
<path d="M4800 4100 L6300 4100" /> 
</g>
<g style="fill:#000000; fill-opacity:1.00; stroke:#000000; stroke-opacity:1.00; stroke-linecap:round; stroke-linejoin:round; stroke-width:0" 
   transform="translate(0.00 0.00) scale(1.00 1.00)">
<ellipse cx="6200" cy="4100" rx="16" ry="16"  /> 
</g>
<g style="fill:#000000; fill-opacity:1.00; stroke:#000000; stroke-opacity:1.00; stroke-linecap:round; stroke-linejoin:round; stroke-width:6" 
   transform="translate(0.00 0.00) scale(1.00 1.00)">
<path d="M6300 4000 L6200 4000" /> 
<path d="M6200 4000 L6200 4200" /> 
</g>
<g style="fill:#000000; fill-opacity:1.00; stroke:#000000; stroke-opacity:1.00; stroke-linecap:round; stroke-linejoin:round; stroke-width:0" 
   transform="translate(0.00 0.00) scale(1.00 1.00)">
<ellipse cx="6200" cy="3800" rx="16" ry="16"  /> 
</g>
<g style="fill:#000000; fill-opacity:1.00; stroke:#000000; stroke-opacity:1.00; stroke-linecap:round; stroke-linejoin:round; stroke-width:6" 
   transform="translate(0.00 0.00) scale(1.00 1.00)">
<path d="M6300 3900 L6200 3900" /> 
<path d="M6200 3900 L6200 3700" /> 
</g>
<g style="fill:#000000; fill-opacity:1.00; stroke:#000000; stroke-opacity:1.00; stroke-linecap:round; stroke-linejoin:round; stroke-width:0" 
   transform="translate(0.00 0.00) scale(1.00 1.00)">
<ellipse cx="4900" cy="4100" rx="16" ry="16"  /> 
</g>
<g style="fill:#000000; fill-opacity:1.00; stroke:#000000; stroke-opacity:1.00; stroke-linecap:round; stroke-linejoin:round; stroke-width:6" 
   transform="translate(0.00 0.00) scale(1.00 1.00)">
<path d="M4800 4000 L4900 4000" /> 
<path d="M4900 4000 L4900 4200" /> 
</g>
<g style="fill:#000000; fill-opacity:1.00; stroke:#000000; stroke-opacity:1.00; stroke-linecap:round; stroke-linejoin:round; stroke-width:0" 
   transform="translate(0.00 0.00) scale(1.00 1.00)">
<ellipse cx="4900" cy="3800" rx="16" ry="16"  /> 
</g>
<g style="fill:#000000; fill-opacity:1.00; stroke:#000000; stroke-opacity:1.00; stroke-linecap:round; stroke-linejoin:round; stroke-width:6" 
   transform="translate(0.00 0.00) scale(1.00 1.00)">
<path d="M4800 3900 L4900 3900" /> 
<path d="M4900 3900 L4900 3700" /> 
<path d="M4900 3700 L4800 3700" /> 
<path d="M4900 4200 L4800 4200" /> 
<path d="M6200 3700 L6300 3700" /> 
<path d="M6200 4200 L6300 4200" /> 
<path d="M6300 3800 L4800 3800" /> 
</g>
<g style="fill:#000000; fill-opacity:0.0; stroke:#000000; stroke-opacity:1.00; stroke-linecap:round; stroke-linejoin:round; stroke-width:6" 
   transform="translate(0.00 0.00) scale(1.00 1.00)">
<polygon style="fill-rule:evenodd; " 
points="4550,3650
4550,3650
4550,4250
4350,4250
4350,3650
" /> 
<ellipse cx="4585" cy="3700" rx="35" ry="35"  /> 
<path d="M4620 3700 L4800 3700" /> 
<path d="M4693 3684 L4658 3684" /> 
<g style = "stroke-linecap:round;" > 
<path d="M4658 3684 L4658 3684" /> 
</g><path d="M4676 3684 L4676 3624" /> 
<path d="M4676 3624 L4670 3633" /> 
<path d="M4670 3633 L4664 3639" /> 
<path d="M4664 3639 L4658 3641" /> 
<g style = "stroke-linecap:round;" > 
<path d="M4658 3641 L4658 3641" /> 
</g><ellipse cx="4585" cy="3800" rx="35" ry="35"  /> 
<path d="M4620 3800 L4800 3800" /> 
<path d="M4658 3730 L4661 3727" /> 
<path d="M4661 3727 L4667 3724" /> 
<path d="M4667 3724 L4681 3724" /> 
<path d="M4681 3724 L4687 3727" /> 
<path d="M4687 3727 L4690 3730" /> 
<path d="M4690 3730 L4693 3736" /> 
<path d="M4693 3736 L4693 3741" /> 
<path d="M4693 3741 L4690 3750" /> 
<path d="M4690 3750 L4656 3784" /> 
<path d="M4656 3784 L4693 3784" /> 
<g style = "stroke-linecap:round;" > 
<path d="M4693 3784 L4693 3784" /> 
</g><ellipse cx="4585" cy="3900" rx="35" ry="35"  /> 
<path d="M4620 3900 L4800 3900" /> 
<path d="M4656 3824 L4693 3824" /> 
<path d="M4693 3824 L4673 3847" /> 
<path d="M4673 3847 L4681 3847" /> 
<path d="M4681 3847 L4687 3850" /> 
<path d="M4687 3850 L4690 3853" /> 
<path d="M4690 3853 L4693 3859" /> 
<path d="M4693 3859 L4693 3873" /> 
<path d="M4693 3873 L4690 3879" /> 
<path d="M4690 3879 L4687 3881" /> 
<path d="M4687 3881 L4681 3884" /> 
<path d="M4681 3884 L4664 3884" /> 
<path d="M4664 3884 L4658 3881" /> 
<path d="M4658 3881 L4656 3879" /> 
<g style = "stroke-linecap:round;" > 
<path d="M4656 3879 L4656 3879" /> 
</g><ellipse cx="4585" cy="4000" rx="35" ry="35"  /> 
<path d="M4620 4000 L4800 4000" /> 
<path d="M4687 3944 L4687 3984" /> 
<g style = "stroke-linecap:round;" > 
<path d="M4687 3984 L4687 3984" /> 
</g><path d="M4673 3921 L4658 3964" /> 
<path d="M4658 3964 L4696 3964" /> 
<g style = "stroke-linecap:round;" > 
<path d="M4696 3964 L4696 3964" /> 
</g><ellipse cx="4585" cy="4100" rx="35" ry="35"  /> 
<path d="M4620 4100 L4800 4100" /> 
<path d="M4690 4024 L4661 4024" /> 
<path d="M4661 4024 L4658 4053" /> 
<path d="M4658 4053 L4661 4050" /> 
<path d="M4661 4050 L4667 4047" /> 
<path d="M4667 4047 L4681 4047" /> 
<path d="M4681 4047 L4687 4050" /> 
<path d="M4687 4050 L4690 4053" /> 
<path d="M4690 4053 L4693 4059" /> 
<path d="M4693 4059 L4693 4073" /> 
<path d="M4693 4073 L4690 4079" /> 
<path d="M4690 4079 L4687 4081" /> 
<path d="M4687 4081 L4681 4084" /> 
<path d="M4681 4084 L4667 4084" /> 
<path d="M4667 4084 L4661 4081" /> 
<path d="M4661 4081 L4658 4079" /> 
<g style = "stroke-linecap:round;" > 
<path d="M4658 4079 L4658 4079" /> 
</g><ellipse cx="4585" cy="4200" rx="35" ry="35"  /> 
<path d="M4620 4200 L4800 4200" /> 
<path d="M4687 4124 L4676 4124" /> 
<path d="M4676 4124 L4670 4127" /> 
<path d="M4670 4127 L4667 4130" /> 
<path d="M4667 4130 L4661 4139" /> 
<path d="M4661 4139 L4658 4150" /> 
<path d="M4658 4150 L4658 4173" /> 
<path d="M4658 4173 L4661 4179" /> 
<path d="M4661 4179 L4664 4181" /> 
<path d="M4664 4181 L4670 4184" /> 
<path d="M4670 4184 L4681 4184" /> 
<path d="M4681 4184 L4687 4181" /> 
<path d="M4687 4181 L4690 4179" /> 
<path d="M4690 4179 L4693 4173" /> 
<path d="M4693 4173 L4693 4159" /> 
<path d="M4693 4159 L4690 4153" /> 
<path d="M4690 4153 L4687 4150" /> 
<path d="M4687 4150 L4681 4147" /> 
<path d="M4681 4147 L4670 4147" /> 
<path d="M4670 4147 L4664 4150" /> 
<path d="M4664 4150 L4661 4153" /> 
<path d="M4661 4153 L4658 4159" /> 
<g style = "stroke-linecap:round;" > 
<path d="M4658 4159 L4658 4159" /> 
</g><path d="M4527 3993 L4467 3993" /> 
<path d="M4467 3993 L4467 3970" /> 
<path d="M4467 3970 L4470 3964" /> 
<path d="M4470 3964 L4473 3961" /> 
<path d="M4473 3961 L4479 3958" /> 
<path d="M4479 3958 L4487 3958" /> 
<path d="M4487 3958 L4493 3961" /> 
<path d="M4493 3961 L4496 3964" /> 
<path d="M4496 3964 L4499 3970" /> 
<path d="M4499 3970 L4499 3993" /> 
<g style = "stroke-linecap:round;" > 
<path d="M4499 3993 L4499 3993" /> 
</g><path d="M4527 3901 L4527 3936" /> 
<g style = "stroke-linecap:round;" > 
<path d="M4527 3936 L4527 3936" /> 
</g><path d="M4527 3918 L4467 3918" /> 
<path d="M4467 3918 L4476 3924" /> 
<path d="M4476 3924 L4482 3930" /> 
<path d="M4482 3930 L4484 3936" /> 
<g style = "stroke-linecap:round;" > 
<path d="M4484 3936 L4484 3936" /> 
</g><path d="M4422 4077 L4424 4080" /> 
<path d="M4424 4080 L4427 4089" /> 
<path d="M4427 4089 L4427 4095" /> 
<path d="M4427 4095 L4424 4103" /> 
<path d="M4424 4103 L4419 4109" /> 
<path d="M4419 4109 L4413 4112" /> 
<path d="M4413 4112 L4402 4115" /> 
<path d="M4402 4115 L4393 4115" /> 
<path d="M4393 4115 L4382 4112" /> 
<path d="M4382 4112 L4376 4109" /> 
<path d="M4376 4109 L4370 4103" /> 
<path d="M4370 4103 L4367 4095" /> 
<path d="M4367 4095 L4367 4089" /> 
<path d="M4367 4089 L4370 4080" /> 
<path d="M4370 4080 L4373 4077" /> 
<g style = "stroke-linecap:round;" > 
<path d="M4373 4077 L4373 4077" /> 
</g><path d="M4367 4040 L4367 4029" /> 
<path d="M4367 4029 L4370 4023" /> 
<path d="M4370 4023 L4376 4017" /> 
<path d="M4376 4017 L4387 4015" /> 
<path d="M4387 4015 L4407 4015" /> 
<path d="M4407 4015 L4419 4017" /> 
<path d="M4419 4017 L4424 4023" /> 
<path d="M4424 4023 L4427 4029" /> 
<path d="M4427 4029 L4427 4040" /> 
<path d="M4427 4040 L4424 4046" /> 
<path d="M4424 4046 L4419 4052" /> 
<path d="M4419 4052 L4407 4055" /> 
<path d="M4407 4055 L4387 4055" /> 
<path d="M4387 4055 L4376 4052" /> 
<path d="M4376 4052 L4370 4046" /> 
<path d="M4370 4046 L4367 4040" /> 
<path d="M4427 3989 L4367 3989" /> 
<path d="M4367 3989 L4427 3954" /> 
<path d="M4427 3954 L4367 3954" /> 
<g style = "stroke-linecap:round;" > 
<path d="M4367 3954 L4367 3954" /> 
</g><path d="M4427 3926 L4367 3926" /> 
<path d="M4367 3926 L4427 3891" /> 
<path d="M4427 3891 L4367 3891" /> 
<g style = "stroke-linecap:round;" > 
<path d="M4367 3891 L4367 3891" /> 
</g><path d="M4433 3877 L4433 3831" /> 
<g style = "stroke-linecap:round;" > 
<path d="M4433 3831 L4433 3831" /> 
</g><path d="M4367 3791 L4367 3802" /> 
<path d="M4367 3802 L4370 3808" /> 
<path d="M4370 3808 L4373 3811" /> 
<path d="M4373 3811 L4382 3817" /> 
<path d="M4382 3817 L4393 3820" /> 
<path d="M4393 3820 L4416 3820" /> 
<path d="M4416 3820 L4422 3817" /> 
<path d="M4422 3817 L4424 3814" /> 
<path d="M4424 3814 L4427 3808" /> 
<path d="M4427 3808 L4427 3797" /> 
<path d="M4427 3797 L4424 3791" /> 
<path d="M4424 3791 L4422 3788" /> 
<path d="M4422 3788 L4416 3785" /> 
<path d="M4416 3785 L4402 3785" /> 
<path d="M4402 3785 L4396 3788" /> 
<path d="M4396 3788 L4393 3791" /> 
<path d="M4393 3791 L4390 3797" /> 
<path d="M4390 3797 L4390 3808" /> 
<path d="M4390 3808 L4393 3814" /> 
<path d="M4393 3814 L4396 3817" /> 
<path d="M4396 3817 L4402 3820" /> 
<g style = "stroke-linecap:round;" > 
<path d="M4402 3820 L4402 3820" /> 
</g><polygon style="fill-rule:evenodd; " 
points="6550,3650
6550,3650
6550,4250
6750,4250
6750,3650
" /> 
<ellipse cx="6515" cy="3700" rx="35" ry="35"  /> 
<path d="M6480 3700 L6300 3700" /> 
<path d="M6443 3684 L6408 3684" /> 
<g style = "stroke-linecap:round;" > 
<path d="M6408 3684 L6408 3684" /> 
</g><path d="M6426 3684 L6426 3624" /> 
<path d="M6426 3624 L6420 3633" /> 
<path d="M6420 3633 L6414 3639" /> 
<path d="M6414 3639 L6408 3641" /> 
<g style = "stroke-linecap:round;" > 
<path d="M6408 3641 L6408 3641" /> 
</g><ellipse cx="6515" cy="3800" rx="35" ry="35"  /> 
<path d="M6480 3800 L6300 3800" /> 
<path d="M6408 3730 L6411 3727" /> 
<path d="M6411 3727 L6417 3724" /> 
<path d="M6417 3724 L6431 3724" /> 
<path d="M6431 3724 L6437 3727" /> 
<path d="M6437 3727 L6440 3730" /> 
<path d="M6440 3730 L6443 3736" /> 
<path d="M6443 3736 L6443 3741" /> 
<path d="M6443 3741 L6440 3750" /> 
<path d="M6440 3750 L6406 3784" /> 
<path d="M6406 3784 L6443 3784" /> 
<g style = "stroke-linecap:round;" > 
<path d="M6443 3784 L6443 3784" /> 
</g><ellipse cx="6515" cy="3900" rx="35" ry="35"  /> 
<path d="M6480 3900 L6300 3900" /> 
<path d="M6406 3824 L6443 3824" /> 
<path d="M6443 3824 L6423 3847" /> 
<path d="M6423 3847 L6431 3847" /> 
<path d="M6431 3847 L6437 3850" /> 
<path d="M6437 3850 L6440 3853" /> 
<path d="M6440 3853 L6443 3859" /> 
<path d="M6443 3859 L6443 3873" /> 
<path d="M6443 3873 L6440 3879" /> 
<path d="M6440 3879 L6437 3881" /> 
<path d="M6437 3881 L6431 3884" /> 
<path d="M6431 3884 L6414 3884" /> 
<path d="M6414 3884 L6408 3881" /> 
<path d="M6408 3881 L6406 3879" /> 
<g style = "stroke-linecap:round;" > 
<path d="M6406 3879 L6406 3879" /> 
</g><ellipse cx="6515" cy="4000" rx="35" ry="35"  /> 
<path d="M6480 4000 L6300 4000" /> 
<path d="M6437 3944 L6437 3984" /> 
<g style = "stroke-linecap:round;" > 
<path d="M6437 3984 L6437 3984" /> 
</g><path d="M6423 3921 L6408 3964" /> 
<path d="M6408 3964 L6446 3964" /> 
<g style = "stroke-linecap:round;" > 
<path d="M6446 3964 L6446 3964" /> 
</g><ellipse cx="6515" cy="4100" rx="35" ry="35"  /> 
<path d="M6480 4100 L6300 4100" /> 
<path d="M6440 4024 L6411 4024" /> 
<path d="M6411 4024 L6408 4053" /> 
<path d="M6408 4053 L6411 4050" /> 
<path d="M6411 4050 L6417 4047" /> 
<path d="M6417 4047 L6431 4047" /> 
<path d="M6431 4047 L6437 4050" /> 
<path d="M6437 4050 L6440 4053" /> 
<path d="M6440 4053 L6443 4059" /> 
<path d="M6443 4059 L6443 4073" /> 
<path d="M6443 4073 L6440 4079" /> 
<path d="M6440 4079 L6437 4081" /> 
<path d="M6437 4081 L6431 4084" /> 
<path d="M6431 4084 L6417 4084" /> 
<path d="M6417 4084 L6411 4081" /> 
<path d="M6411 4081 L6408 4079" /> 
<g style = "stroke-linecap:round;" > 
<path d="M6408 4079 L6408 4079" /> 
</g><ellipse cx="6515" cy="4200" rx="35" ry="35"  /> 
<path d="M6480 4200 L6300 4200" /> 
<path d="M6437 4124 L6426 4124" /> 
<path d="M6426 4124 L6420 4127" /> 
<path d="M6420 4127 L6417 4130" /> 
<path d="M6417 4130 L6411 4139" /> 
<path d="M6411 4139 L6408 4150" /> 
<path d="M6408 4150 L6408 4173" /> 
<path d="M6408 4173 L6411 4179" /> 
<path d="M6411 4179 L6414 4181" /> 
<path d="M6414 4181 L6420 4184" /> 
<path d="M6420 4184 L6431 4184" /> 
<path d="M6431 4184 L6437 4181" /> 
<path d="M6437 4181 L6440 4179" /> 
<path d="M6440 4179 L6443 4173" /> 
<path d="M6443 4173 L6443 4159" /> 
<path d="M6443 4159 L6440 4153" /> 
<path d="M6440 4153 L6437 4150" /> 
<path d="M6437 4150 L6431 4147" /> 
<path d="M6431 4147 L6420 4147" /> 
<path d="M6420 4147 L6414 4150" /> 
<path d="M6414 4150 L6411 4153" /> 
<path d="M6411 4153 L6408 4159" /> 
<g style = "stroke-linecap:round;" > 
<path d="M6408 4159 L6408 4159" /> 
</g><path d="M6621 3993 L6561 3993" /> 
<path d="M6561 3993 L6561 3970" /> 
<path d="M6561 3970 L6564 3964" /> 
<path d="M6564 3964 L6567 3961" /> 
<path d="M6567 3961 L6573 3958" /> 
<path d="M6573 3958 L6581 3958" /> 
<path d="M6581 3958 L6587 3961" /> 
<path d="M6587 3961 L6590 3964" /> 
<path d="M6590 3964 L6593 3970" /> 
<path d="M6593 3970 L6593 3993" /> 
<g style = "stroke-linecap:round;" > 
<path d="M6593 3993 L6593 3993" /> 
</g><path d="M6567 3936 L6564 3933" /> 
<path d="M6564 3933 L6561 3927" /> 
<path d="M6561 3927 L6561 3913" /> 
<path d="M6561 3913 L6564 3907" /> 
<path d="M6564 3907 L6567 3904" /> 
<path d="M6567 3904 L6573 3901" /> 
<path d="M6573 3901 L6578 3901" /> 
<path d="M6578 3901 L6587 3904" /> 
<path d="M6587 3904 L6621 3938" /> 
<path d="M6621 3938 L6621 3901" /> 
<g style = "stroke-linecap:round;" > 
<path d="M6621 3901 L6621 3901" /> 
</g><path d="M6716 4077 L6718 4080" /> 
<path d="M6718 4080 L6721 4089" /> 
<path d="M6721 4089 L6721 4095" /> 
<path d="M6721 4095 L6718 4103" /> 
<path d="M6718 4103 L6713 4109" /> 
<path d="M6713 4109 L6707 4112" /> 
<path d="M6707 4112 L6696 4115" /> 
<path d="M6696 4115 L6687 4115" /> 
<path d="M6687 4115 L6676 4112" /> 
<path d="M6676 4112 L6670 4109" /> 
<path d="M6670 4109 L6664 4103" /> 
<path d="M6664 4103 L6661 4095" /> 
<path d="M6661 4095 L6661 4089" /> 
<path d="M6661 4089 L6664 4080" /> 
<path d="M6664 4080 L6667 4077" /> 
<g style = "stroke-linecap:round;" > 
<path d="M6667 4077 L6667 4077" /> 
</g><path d="M6661 4040 L6661 4029" /> 
<path d="M6661 4029 L6664 4023" /> 
<path d="M6664 4023 L6670 4017" /> 
<path d="M6670 4017 L6681 4015" /> 
<path d="M6681 4015 L6701 4015" /> 
<path d="M6701 4015 L6713 4017" /> 
<path d="M6713 4017 L6718 4023" /> 
<path d="M6718 4023 L6721 4029" /> 
<path d="M6721 4029 L6721 4040" /> 
<path d="M6721 4040 L6718 4046" /> 
<path d="M6718 4046 L6713 4052" /> 
<path d="M6713 4052 L6701 4055" /> 
<path d="M6701 4055 L6681 4055" /> 
<path d="M6681 4055 L6670 4052" /> 
<path d="M6670 4052 L6664 4046" /> 
<path d="M6664 4046 L6661 4040" /> 
<path d="M6721 3989 L6661 3989" /> 
<path d="M6661 3989 L6721 3954" /> 
<path d="M6721 3954 L6661 3954" /> 
<g style = "stroke-linecap:round;" > 
<path d="M6661 3954 L6661 3954" /> 
</g><path d="M6721 3926 L6661 3926" /> 
<path d="M6661 3926 L6721 3891" /> 
<path d="M6721 3891 L6661 3891" /> 
<g style = "stroke-linecap:round;" > 
<path d="M6661 3891 L6661 3891" /> 
</g><path d="M6727 3877 L6727 3831" /> 
<g style = "stroke-linecap:round;" > 
<path d="M6727 3831 L6727 3831" /> 
</g><path d="M6661 3791 L6661 3802" /> 
<path d="M6661 3802 L6664 3808" /> 
<path d="M6664 3808 L6667 3811" /> 
<path d="M6667 3811 L6676 3817" /> 
<path d="M6676 3817 L6687 3820" /> 
<path d="M6687 3820 L6710 3820" /> 
<path d="M6710 3820 L6716 3817" /> 
<path d="M6716 3817 L6718 3814" /> 
<path d="M6718 3814 L6721 3808" /> 
<path d="M6721 3808 L6721 3797" /> 
<path d="M6721 3797 L6718 3791" /> 
<path d="M6718 3791 L6716 3788" /> 
<path d="M6716 3788 L6710 3785" /> 
<path d="M6710 3785 L6696 3785" /> 
<path d="M6696 3785 L6690 3788" /> 
<path d="M6690 3788 L6687 3791" /> 
<path d="M6687 3791 L6684 3797" /> 
<path d="M6684 3797 L6684 3808" /> 
<path d="M6684 3808 L6687 3814" /> 
<path d="M6687 3814 L6690 3817" /> 
<path d="M6690 3817 L6696 3820" /> 
<g style = "stroke-linecap:round;" > 
<path d="M6696 3820 L6696 3820" /> 
</g><polygon style="fill-rule:evenodd; " 
points="400,400
400,400
400,7867
11300,7867
11300,400
" /> 
<polygon style="fill-rule:evenodd; " 
points="470,470
470,470
470,7797
11230,7797
11230,470
" /> 
<path d="M2580 400 L2580 470" /> 
<path d="M1504 455 L1476 455" /> 
<g style = "stroke-linecap:round;" > 
<path d="M1476 455 L1476 455" /> 
</g><path d="M1490 455 L1490 405" /> 
<path d="M1490 405 L1485 412" /> 
<path d="M1485 412 L1480 417" /> 
<path d="M1480 417 L1476 420" /> 
<g style = "stroke-linecap:round;" > 
<path d="M1476 420 L1476 420" /> 
</g><path d="M2580 7867 L2580 7797" /> 
<path d="M1504 7852 L1476 7852" /> 
<g style = "stroke-linecap:round;" > 
<path d="M1476 7852 L1476 7852" /> 
</g><path d="M1490 7852 L1490 7802" /> 
<path d="M1490 7802 L1485 7809" /> 
<path d="M1485 7809 L1480 7814" /> 
<path d="M1480 7814 L1476 7817" /> 
<g style = "stroke-linecap:round;" > 
<path d="M1476 7817 L1476 7817" /> 
</g><path d="M4760 400 L4760 470" /> 
<path d="M3656 410 L3658 408" /> 
<path d="M3658 408 L3663 405" /> 
<path d="M3663 405 L3675 405" /> 
<path d="M3675 405 L3679 408" /> 
<path d="M3679 408 L3682 410" /> 
<path d="M3682 410 L3684 415" /> 
<path d="M3684 415 L3684 420" /> 
<path d="M3684 420 L3682 427" /> 
<path d="M3682 427 L3653 455" /> 
<path d="M3653 455 L3684 455" /> 
<g style = "stroke-linecap:round;" > 
<path d="M3684 455 L3684 455" /> 
</g><path d="M4760 7867 L4760 7797" /> 
<path d="M3656 7807 L3658 7805" /> 
<path d="M3658 7805 L3663 7802" /> 
<path d="M3663 7802 L3675 7802" /> 
<path d="M3675 7802 L3679 7805" /> 
<path d="M3679 7805 L3682 7807" /> 
<path d="M3682 7807 L3684 7812" /> 
<path d="M3684 7812 L3684 7817" /> 
<path d="M3684 7817 L3682 7824" /> 
<path d="M3682 7824 L3653 7852" /> 
<path d="M3653 7852 L3684 7852" /> 
<g style = "stroke-linecap:round;" > 
<path d="M3684 7852 L3684 7852" /> 
</g><path d="M6940 400 L6940 470" /> 
<path d="M5833 405 L5864 405" /> 
<path d="M5864 405 L5847 424" /> 
<path d="M5847 424 L5855 424" /> 
<path d="M5855 424 L5859 427" /> 
<path d="M5859 427 L5862 429" /> 
<path d="M5862 429 L5864 434" /> 
<path d="M5864 434 L5864 446" /> 
<path d="M5864 446 L5862 450" /> 
<path d="M5862 450 L5859 453" /> 
<path d="M5859 453 L5855 455" /> 
<path d="M5855 455 L5840 455" /> 
<path d="M5840 455 L5836 453" /> 
<path d="M5836 453 L5833 450" /> 
<g style = "stroke-linecap:round;" > 
<path d="M5833 450 L5833 450" /> 
</g><path d="M6940 7867 L6940 7797" /> 
<path d="M5833 7802 L5864 7802" /> 
<path d="M5864 7802 L5847 7821" /> 
<path d="M5847 7821 L5855 7821" /> 
<path d="M5855 7821 L5859 7824" /> 
<path d="M5859 7824 L5862 7826" /> 
<path d="M5862 7826 L5864 7831" /> 
<path d="M5864 7831 L5864 7843" /> 
<path d="M5864 7843 L5862 7847" /> 
<path d="M5862 7847 L5859 7850" /> 
<path d="M5859 7850 L5855 7852" /> 
<path d="M5855 7852 L5840 7852" /> 
<path d="M5840 7852 L5836 7850" /> 
<path d="M5836 7850 L5833 7847" /> 
<g style = "stroke-linecap:round;" > 
<path d="M5833 7847 L5833 7847" /> 
</g><path d="M9120 400 L9120 470" /> 
<path d="M8039 422 L8039 455" /> 
<g style = "stroke-linecap:round;" > 
<path d="M8039 455 L8039 455" /> 
</g><path d="M8027 403 L8016 439" /> 
<path d="M8016 439 L8046 439" /> 
<g style = "stroke-linecap:round;" > 
<path d="M8046 439 L8046 439" /> 
</g><path d="M9120 7867 L9120 7797" /> 
<path d="M8039 7819 L8039 7852" /> 
<g style = "stroke-linecap:round;" > 
<path d="M8039 7852 L8039 7852" /> 
</g><path d="M8027 7800 L8016 7836" /> 
<path d="M8016 7836 L8046 7836" /> 
<g style = "stroke-linecap:round;" > 
<path d="M8046 7836 L8046 7836" /> 
</g><path d="M10222 405 L10198 405" /> 
<path d="M10198 405 L10196 429" /> 
<path d="M10196 429 L10198 427" /> 
<path d="M10198 427 L10203 424" /> 
<path d="M10203 424 L10215 424" /> 
<path d="M10215 424 L10219 427" /> 
<path d="M10219 427 L10222 429" /> 
<path d="M10222 429 L10224 434" /> 
<path d="M10224 434 L10224 446" /> 
<path d="M10224 446 L10222 450" /> 
<path d="M10222 450 L10219 453" /> 
<path d="M10219 453 L10215 455" /> 
<path d="M10215 455 L10203 455" /> 
<path d="M10203 455 L10198 453" /> 
<path d="M10198 453 L10196 450" /> 
<g style = "stroke-linecap:round;" > 
<path d="M10196 450 L10196 450" /> 
</g><path d="M10222 7802 L10198 7802" /> 
<path d="M10198 7802 L10196 7826" /> 
<path d="M10196 7826 L10198 7824" /> 
<path d="M10198 7824 L10203 7821" /> 
<path d="M10203 7821 L10215 7821" /> 
<path d="M10215 7821 L10219 7824" /> 
<path d="M10219 7824 L10222 7826" /> 
<path d="M10222 7826 L10224 7831" /> 
<path d="M10224 7831 L10224 7843" /> 
<path d="M10224 7843 L10222 7847" /> 
<path d="M10222 7847 L10219 7850" /> 
<path d="M10219 7850 L10215 7852" /> 
<path d="M10215 7852 L10203 7852" /> 
<path d="M10203 7852 L10198 7850" /> 
<path d="M10198 7850 L10196 7847" /> 
<g style = "stroke-linecap:round;" > 
<path d="M10196 7847 L10196 7847" /> 
</g><path d="M400 2889 L470 2889" /> 
<path d="M424 1651 L447 1651" /> 
<g style = "stroke-linecap:round;" > 
<path d="M447 1651 L447 1651" /> 
</g><path d="M419 1665 L435 1615" /> 
<path d="M435 1615 L452 1665" /> 
<g style = "stroke-linecap:round;" > 
<path d="M452 1665 L452 1665" /> 
</g><path d="M11300 2889 L11230 2889" /> 
<path d="M11254 1805 L11277 1805" /> 
<g style = "stroke-linecap:round;" > 
<path d="M11277 1805 L11277 1805" /> 
</g><path d="M11249 1819 L11265 1769" /> 
<path d="M11265 1769 L11282 1819" /> 
<g style = "stroke-linecap:round;" > 
<path d="M11282 1819 L11282 1819" /> 
</g><path d="M400 5378 L470 5378" /> 
<path d="M439 4128 L446 4130" /> 
<path d="M446 4130 L448 4133" /> 
<path d="M448 4133 L450 4138" /> 
<path d="M450 4138 L450 4145" /> 
<path d="M450 4145 L448 4149" /> 
<path d="M448 4149 L446 4152" /> 
<path d="M446 4152 L441 4154" /> 
<path d="M441 4154 L422 4154" /> 
<path d="M422 4154 L422 4104" /> 
<path d="M422 4104 L439 4104" /> 
<path d="M439 4104 L443 4107" /> 
<path d="M443 4107 L446 4109" /> 
<path d="M446 4109 L448 4114" /> 
<path d="M448 4114 L448 4119" /> 
<path d="M448 4119 L446 4123" /> 
<path d="M446 4123 L443 4126" /> 
<path d="M443 4126 L439 4128" /> 
<path d="M439 4128 L422 4128" /> 
<g style = "stroke-linecap:round;" > 
<path d="M422 4128 L422 4128" /> 
</g><path d="M11300 5378 L11230 5378" /> 
<path d="M11269 4282 L11276 4284" /> 
<path d="M11276 4284 L11278 4287" /> 
<path d="M11278 4287 L11280 4292" /> 
<path d="M11280 4292 L11280 4299" /> 
<path d="M11280 4299 L11278 4303" /> 
<path d="M11278 4303 L11276 4306" /> 
<path d="M11276 4306 L11271 4308" /> 
<path d="M11271 4308 L11252 4308" /> 
<path d="M11252 4308 L11252 4258" /> 
<path d="M11252 4258 L11269 4258" /> 
<path d="M11269 4258 L11273 4261" /> 
<path d="M11273 4261 L11276 4263" /> 
<path d="M11276 4263 L11278 4268" /> 
<path d="M11278 4268 L11278 4273" /> 
<path d="M11278 4273 L11276 4277" /> 
<path d="M11276 4277 L11273 4280" /> 
<path d="M11273 4280 L11269 4282" /> 
<path d="M11269 4282 L11252 4282" /> 
<g style = "stroke-linecap:round;" > 
<path d="M11252 4282 L11252 4282" /> 
</g><path d="M450 6638 L448 6641" /> 
<path d="M448 6641 L441 6643" /> 
<path d="M441 6643 L436 6643" /> 
<path d="M436 6643 L429 6641" /> 
<path d="M429 6641 L424 6636" /> 
<path d="M424 6636 L422 6631" /> 
<path d="M422 6631 L420 6622" /> 
<path d="M420 6622 L420 6615" /> 
<path d="M420 6615 L422 6605" /> 
<path d="M422 6605 L424 6600" /> 
<path d="M424 6600 L429 6596" /> 
<path d="M429 6596 L436 6593" /> 
<path d="M436 6593 L441 6593" /> 
<path d="M441 6593 L448 6596" /> 
<path d="M448 6596 L450 6598" /> 
<g style = "stroke-linecap:round;" > 
<path d="M450 6598 L450 6598" /> 
</g><path d="M11280 6792 L11278 6795" /> 
<path d="M11278 6795 L11271 6797" /> 
<path d="M11271 6797 L11266 6797" /> 
<path d="M11266 6797 L11259 6795" /> 
<path d="M11259 6795 L11254 6790" /> 
<path d="M11254 6790 L11252 6785" /> 
<path d="M11252 6785 L11250 6776" /> 
<path d="M11250 6776 L11250 6769" /> 
<path d="M11250 6769 L11252 6759" /> 
<path d="M11252 6759 L11254 6754" /> 
<path d="M11254 6754 L11259 6750" /> 
<path d="M11259 6750 L11266 6747" /> 
<path d="M11266 6747 L11271 6747" /> 
<path d="M11271 6747 L11278 6750" /> 
<path d="M11278 6750 L11280 6752" /> 
<g style = "stroke-linecap:round;" > 
<path d="M11280 6752 L11280 6752" /> 
</g><path d="M7944 7641 L7944 7581" /> 
<path d="M7944 7581 L7959 7581" /> 
<path d="M7959 7581 L7967 7584" /> 
<path d="M7967 7584 L7973 7590" /> 
<path d="M7973 7590 L7976 7596" /> 
<path d="M7976 7596 L7979 7607" /> 
<path d="M7979 7607 L7979 7616" /> 
<path d="M7979 7616 L7976 7627" /> 
<path d="M7976 7627 L7973 7633" /> 
<path d="M7973 7633 L7967 7638" /> 
<path d="M7967 7638 L7959 7641" /> 
<path d="M7959 7641 L7944 7641" /> 
<path d="M8030 7641 L8030 7610" /> 
<path d="M8030 7610 L8027 7604" /> 
<path d="M8027 7604 L8021 7601" /> 
<path d="M8021 7601 L8010 7601" /> 
<path d="M8010 7601 L8004 7604" /> 
<g style = "stroke-linecap:round;" > 
<path d="M8004 7604 L8004 7604" /> 
</g><path d="M8030 7638 L8024 7641" /> 
<path d="M8024 7641 L8010 7641" /> 
<path d="M8010 7641 L8004 7638" /> 
<path d="M8004 7638 L8001 7633" /> 
<path d="M8001 7633 L8001 7627" /> 
<path d="M8001 7627 L8004 7621" /> 
<path d="M8004 7621 L8010 7618" /> 
<path d="M8010 7618 L8024 7618" /> 
<path d="M8024 7618 L8030 7616" /> 
<g style = "stroke-linecap:round;" > 
<path d="M8030 7616 L8030 7616" /> 
</g><path d="M8050 7601 L8073 7601" /> 
<g style = "stroke-linecap:round;" > 
<path d="M8073 7601 L8073 7601" /> 
</g><path d="M8058 7581 L8058 7633" /> 
<path d="M8058 7633 L8061 7638" /> 
<path d="M8061 7638 L8067 7641" /> 
<path d="M8067 7641 L8073 7641" /> 
<g style = "stroke-linecap:round;" > 
<path d="M8073 7641 L8073 7641" /> 
</g><path d="M8115 7638 L8109 7641" /> 
<path d="M8109 7641 L8098 7641" /> 
<path d="M8098 7641 L8092 7638" /> 
<path d="M8092 7638 L8089 7633" /> 
<path d="M8089 7633 L8089 7610" /> 
<path d="M8089 7610 L8092 7604" /> 
<path d="M8092 7604 L8098 7601" /> 
<path d="M8098 7601 L8109 7601" /> 
<path d="M8109 7601 L8115 7604" /> 
<path d="M8115 7604 L8118 7610" /> 
<path d="M8118 7610 L8118 7616" /> 
<path d="M8118 7616 L8089 7621" /> 
<g style = "stroke-linecap:round;" > 
<path d="M8089 7621 L8089 7621" /> 
</g><path d="M8143 7636 L8146 7638" /> 
<path d="M8146 7638 L8143 7641" /> 
<path d="M8143 7641 L8140 7638" /> 
<path d="M8140 7638 L8143 7636" /> 
<path d="M8143 7636 L8143 7641" /> 
<g style = "stroke-linecap:round;" > 
<path d="M8143 7641 L8143 7641" /> 
</g><path d="M8143 7604 L8146 7607" /> 
<path d="M8146 7607 L8143 7610" /> 
<path d="M8143 7610 L8140 7607" /> 
<path d="M8140 7607 L8143 7604" /> 
<path d="M8143 7604 L8143 7610" /> 
<g style = "stroke-linecap:round;" > 
<path d="M8143 7610 L8143 7610" /> 
</g><path d="M8247 7581 L8218 7581" /> 
<path d="M8218 7581 L8215 7610" /> 
<path d="M8215 7610 L8218 7607" /> 
<path d="M8218 7607 L8224 7604" /> 
<path d="M8224 7604 L8238 7604" /> 
<path d="M8238 7604 L8244 7607" /> 
<path d="M8244 7607 L8247 7610" /> 
<path d="M8247 7610 L8250 7616" /> 
<path d="M8250 7616 L8250 7630" /> 
<path d="M8250 7630 L8247 7636" /> 
<path d="M8247 7636 L8244 7638" /> 
<path d="M8244 7638 L8238 7641" /> 
<path d="M8238 7641 L8224 7641" /> 
<path d="M8224 7641 L8218 7638" /> 
<path d="M8218 7638 L8215 7636" /> 
<g style = "stroke-linecap:round;" > 
<path d="M8215 7636 L8215 7636" /> 
</g><path d="M8318 7638 L8324 7641" /> 
<path d="M8324 7641 L8336 7641" /> 
<path d="M8336 7641 L8341 7638" /> 
<path d="M8341 7638 L8344 7633" /> 
<path d="M8344 7633 L8344 7630" /> 
<path d="M8344 7630 L8341 7624" /> 
<path d="M8341 7624 L8336 7621" /> 
<path d="M8336 7621 L8327 7621" /> 
<path d="M8327 7621 L8321 7618" /> 
<path d="M8321 7618 L8318 7613" /> 
<path d="M8318 7613 L8318 7610" /> 
<path d="M8318 7610 L8321 7604" /> 
<path d="M8321 7604 L8327 7601" /> 
<path d="M8327 7601 L8336 7601" /> 
<path d="M8336 7601 L8341 7604" /> 
<g style = "stroke-linecap:round;" > 
<path d="M8341 7604 L8341 7604" /> 
</g><path d="M8393 7638 L8387 7641" /> 
<path d="M8387 7641 L8376 7641" /> 
<path d="M8376 7641 L8370 7638" /> 
<path d="M8370 7638 L8367 7633" /> 
<path d="M8367 7633 L8367 7610" /> 
<path d="M8367 7610 L8370 7604" /> 
<path d="M8370 7604 L8376 7601" /> 
<path d="M8376 7601 L8387 7601" /> 
<path d="M8387 7601 L8393 7604" /> 
<path d="M8393 7604 L8396 7610" /> 
<path d="M8396 7610 L8396 7616" /> 
<path d="M8396 7616 L8367 7621" /> 
<g style = "stroke-linecap:round;" > 
<path d="M8367 7621 L8367 7621" /> 
</g><path d="M8421 7601 L8421 7661" /> 
<g style = "stroke-linecap:round;" > 
<path d="M8421 7661 L8421 7661" /> 
</g><path d="M8421 7604 L8427 7601" /> 
<path d="M8427 7601 L8438 7601" /> 
<path d="M8438 7601 L8444 7604" /> 
<path d="M8444 7604 L8447 7607" /> 
<path d="M8447 7607 L8450 7613" /> 
<path d="M8450 7613 L8450 7630" /> 
<path d="M8450 7630 L8447 7636" /> 
<path d="M8447 7636 L8444 7638" /> 
<path d="M8444 7638 L8438 7641" /> 
<path d="M8438 7641 L8427 7641" /> 
<path d="M8427 7641 L8421 7638" /> 
<g style = "stroke-linecap:round;" > 
<path d="M8421 7638 L8421 7638" /> 
</g><path d="M8518 7587 L8521 7584" /> 
<path d="M8521 7584 L8527 7581" /> 
<path d="M8527 7581 L8541 7581" /> 
<path d="M8541 7581 L8547 7584" /> 
<path d="M8547 7584 L8550 7587" /> 
<path d="M8550 7587 L8553 7593" /> 
<path d="M8553 7593 L8553 7598" /> 
<path d="M8553 7598 L8550 7607" /> 
<path d="M8550 7607 L8516 7641" /> 
<path d="M8516 7641 L8553 7641" /> 
<g style = "stroke-linecap:round;" > 
<path d="M8553 7641 L8553 7641" /> 
</g><path d="M8590 7581 L8595 7581" /> 
<path d="M8595 7581 L8601 7584" /> 
<path d="M8601 7584 L8604 7587" /> 
<path d="M8604 7587 L8607 7593" /> 
<path d="M8607 7593 L8610 7604" /> 
<path d="M8610 7604 L8610 7618" /> 
<path d="M8610 7618 L8607 7630" /> 
<path d="M8607 7630 L8604 7636" /> 
<path d="M8604 7636 L8601 7638" /> 
<path d="M8601 7638 L8595 7641" /> 
<path d="M8595 7641 L8590 7641" /> 
<path d="M8590 7641 L8584 7638" /> 
<path d="M8584 7638 L8581 7636" /> 
<path d="M8581 7636 L8578 7630" /> 
<path d="M8578 7630 L8575 7618" /> 
<path d="M8575 7618 L8575 7604" /> 
<path d="M8575 7604 L8578 7593" /> 
<path d="M8578 7593 L8581 7587" /> 
<path d="M8581 7587 L8584 7584" /> 
<path d="M8584 7584 L8590 7581" /> 
<path d="M8667 7641 L8632 7641" /> 
<g style = "stroke-linecap:round;" > 
<path d="M8632 7641 L8632 7641" /> 
</g><path d="M8650 7641 L8650 7581" /> 
<path d="M8650 7581 L8644 7590" /> 
<path d="M8644 7590 L8638 7596" /> 
<path d="M8638 7596 L8632 7598" /> 
<g style = "stroke-linecap:round;" > 
<path d="M8632 7598 L8632 7598" /> 
</g><path d="M8689 7587 L8692 7584" /> 
<path d="M8692 7584 L8698 7581" /> 
<path d="M8698 7581 L8712 7581" /> 
<path d="M8712 7581 L8718 7584" /> 
<path d="M8718 7584 L8721 7587" /> 
<path d="M8721 7587 L8724 7593" /> 
<path d="M8724 7593 L8724 7598" /> 
<path d="M8724 7598 L8721 7607" /> 
<path d="M8721 7607 L8687 7641" /> 
<path d="M8687 7641 L8724 7641" /> 
<g style = "stroke-linecap:round;" > 
<path d="M8724 7641 L8724 7641" /> 
</g><path d="M7104 7761 L7104 7701" /> 
<g style = "stroke-linecap:round;" > 
<path d="M7104 7701 L7104 7701" /> 
</g><path d="M7139 7761 L7113 7727" /> 
<g style = "stroke-linecap:round;" > 
<path d="M7113 7727 L7113 7727" /> 
</g><path d="M7139 7701 L7104 7736" /> 
<g style = "stroke-linecap:round;" > 
<path d="M7104 7736 L7104 7736" /> 
</g><path d="M7164 7761 L7164 7721" /> 
<g style = "stroke-linecap:round;" > 
<path d="M7164 7721 L7164 7721" /> 
</g><path d="M7164 7701 L7161 7704" /> 
<path d="M7161 7704 L7164 7707" /> 
<path d="M7164 7707 L7167 7704" /> 
<path d="M7167 7704 L7164 7701" /> 
<path d="M7164 7701 L7164 7707" /> 
<g style = "stroke-linecap:round;" > 
<path d="M7164 7707 L7164 7707" /> 
</g><path d="M7228 7756 L7225 7758" /> 
<path d="M7225 7758 L7216 7761" /> 
<path d="M7216 7761 L7210 7761" /> 
<path d="M7210 7761 L7202 7758" /> 
<path d="M7202 7758 L7196 7753" /> 
<path d="M7196 7753 L7193 7747" /> 
<path d="M7193 7747 L7190 7736" /> 
<path d="M7190 7736 L7190 7727" /> 
<path d="M7190 7727 L7193 7716" /> 
<path d="M7193 7716 L7196 7710" /> 
<path d="M7196 7710 L7202 7704" /> 
<path d="M7202 7704 L7210 7701" /> 
<path d="M7210 7701 L7216 7701" /> 
<path d="M7216 7701 L7225 7704" /> 
<path d="M7225 7704 L7228 7707" /> 
<g style = "stroke-linecap:round;" > 
<path d="M7228 7707 L7228 7707" /> 
</g><path d="M7279 7761 L7279 7730" /> 
<path d="M7279 7730 L7276 7724" /> 
<path d="M7276 7724 L7270 7721" /> 
<path d="M7270 7721 L7259 7721" /> 
<path d="M7259 7721 L7253 7724" /> 
<g style = "stroke-linecap:round;" > 
<path d="M7253 7724 L7253 7724" /> 
</g><path d="M7279 7758 L7273 7761" /> 
<path d="M7273 7761 L7259 7761" /> 
<path d="M7259 7761 L7253 7758" /> 
<path d="M7253 7758 L7250 7753" /> 
<path d="M7250 7753 L7250 7747" /> 
<path d="M7250 7747 L7253 7741" /> 
<path d="M7253 7741 L7259 7738" /> 
<path d="M7259 7738 L7273 7738" /> 
<path d="M7273 7738 L7279 7736" /> 
<g style = "stroke-linecap:round;" > 
<path d="M7279 7736 L7279 7736" /> 
</g><path d="M7333 7761 L7333 7701" /> 
<g style = "stroke-linecap:round;" > 
<path d="M7333 7701 L7333 7701" /> 
</g><path d="M7333 7758 L7327 7761" /> 
<path d="M7327 7761 L7316 7761" /> 
<path d="M7316 7761 L7310 7758" /> 
<path d="M7310 7758 L7307 7756" /> 
<path d="M7307 7756 L7304 7750" /> 
<path d="M7304 7750 L7304 7733" /> 
<path d="M7304 7733 L7307 7727" /> 
<path d="M7307 7727 L7310 7724" /> 
<path d="M7310 7724 L7316 7721" /> 
<path d="M7316 7721 L7327 7721" /> 
<path d="M7327 7721 L7333 7724" /> 
<g style = "stroke-linecap:round;" > 
<path d="M7333 7724 L7333 7724" /> 
</g><path d="M7407 7730 L7427 7730" /> 
<g style = "stroke-linecap:round;" > 
<path d="M7427 7730 L7427 7730" /> 
</g><path d="M7436 7761 L7407 7761" /> 
<path d="M7407 7761 L7407 7701" /> 
<path d="M7407 7701 L7436 7701" /> 
<g style = "stroke-linecap:round;" > 
<path d="M7436 7701 L7436 7701" /> 
</g><path d="M7461 7756 L7464 7758" /> 
<path d="M7464 7758 L7461 7761" /> 
<path d="M7461 7761 L7458 7758" /> 
<path d="M7458 7758 L7461 7756" /> 
<path d="M7461 7756 L7461 7761" /> 
<g style = "stroke-linecap:round;" > 
<path d="M7461 7761 L7461 7761" /> 
</g><path d="M7490 7761 L7490 7701" /> 
<path d="M7490 7701 L7505 7701" /> 
<path d="M7505 7701 L7513 7704" /> 
<path d="M7513 7704 L7519 7710" /> 
<path d="M7519 7710 L7522 7716" /> 
<path d="M7522 7716 L7525 7727" /> 
<path d="M7525 7727 L7525 7736" /> 
<path d="M7525 7736 L7522 7747" /> 
<path d="M7522 7747 L7519 7753" /> 
<path d="M7519 7753 L7513 7758" /> 
<path d="M7513 7758 L7505 7761" /> 
<path d="M7505 7761 L7490 7761" /> 
<path d="M7550 7756 L7553 7758" /> 
<path d="M7553 7758 L7550 7761" /> 
<path d="M7550 7761 L7547 7758" /> 
<path d="M7547 7758 L7550 7756" /> 
<path d="M7550 7756 L7550 7761" /> 
<g style = "stroke-linecap:round;" > 
<path d="M7550 7761 L7550 7761" /> 
</g><path d="M7576 7744 L7605 7744" /> 
<g style = "stroke-linecap:round;" > 
<path d="M7605 7744 L7605 7744" /> 
</g><path d="M7571 7761 L7591 7701" /> 
<path d="M7591 7701 L7611 7761" /> 
<g style = "stroke-linecap:round;" > 
<path d="M7611 7761 L7611 7761" /> 
</g><path d="M7630 7756 L7633 7758" /> 
<path d="M7633 7758 L7630 7761" /> 
<path d="M7630 7761 L7627 7758" /> 
<path d="M7627 7758 L7630 7756" /> 
<path d="M7630 7756 L7630 7761" /> 
<g style = "stroke-linecap:round;" > 
<path d="M7630 7761 L7630 7761" /> 
</g><path d="M7774 7758 L7768 7761" /> 
<path d="M7768 7761 L7757 7761" /> 
<path d="M7757 7761 L7751 7758" /> 
<path d="M7751 7758 L7748 7753" /> 
<path d="M7748 7753 L7748 7730" /> 
<path d="M7748 7730 L7751 7724" /> 
<path d="M7751 7724 L7757 7721" /> 
<path d="M7757 7721 L7768 7721" /> 
<path d="M7768 7721 L7774 7724" /> 
<path d="M7774 7724 L7777 7730" /> 
<path d="M7777 7730 L7777 7736" /> 
<path d="M7777 7736 L7748 7741" /> 
<g style = "stroke-linecap:round;" > 
<path d="M7748 7741 L7748 7741" /> 
</g><path d="M7825 7758 L7819 7761" /> 
<path d="M7819 7761 L7808 7761" /> 
<path d="M7808 7761 L7802 7758" /> 
<path d="M7802 7758 L7799 7753" /> 
<path d="M7799 7753 L7799 7730" /> 
<path d="M7799 7730 L7802 7724" /> 
<path d="M7802 7724 L7808 7721" /> 
<path d="M7808 7721 L7819 7721" /> 
<path d="M7819 7721 L7825 7724" /> 
<path d="M7825 7724 L7828 7730" /> 
<path d="M7828 7730 L7828 7736" /> 
<path d="M7828 7736 L7799 7741" /> 
<g style = "stroke-linecap:round;" > 
<path d="M7799 7741 L7799 7741" /> 
</g><path d="M7850 7758 L7856 7761" /> 
<path d="M7856 7761 L7868 7761" /> 
<path d="M7868 7761 L7873 7758" /> 
<path d="M7873 7758 L7876 7753" /> 
<path d="M7876 7753 L7876 7750" /> 
<path d="M7876 7750 L7873 7744" /> 
<path d="M7873 7744 L7868 7741" /> 
<path d="M7868 7741 L7859 7741" /> 
<path d="M7859 7741 L7853 7738" /> 
<path d="M7853 7738 L7850 7733" /> 
<path d="M7850 7733 L7850 7730" /> 
<path d="M7850 7730 L7853 7724" /> 
<path d="M7853 7724 L7859 7721" /> 
<path d="M7859 7721 L7868 7721" /> 
<path d="M7868 7721 L7873 7724" /> 
<g style = "stroke-linecap:round;" > 
<path d="M7873 7724 L7873 7724" /> 
</g><path d="M7928 7758 L7922 7761" /> 
<path d="M7922 7761 L7911 7761" /> 
<path d="M7911 7761 L7905 7758" /> 
<path d="M7905 7758 L7902 7756" /> 
<path d="M7902 7756 L7899 7750" /> 
<path d="M7899 7750 L7899 7733" /> 
<path d="M7899 7733 L7902 7727" /> 
<path d="M7902 7727 L7905 7724" /> 
<path d="M7905 7724 L7911 7721" /> 
<path d="M7911 7721 L7922 7721" /> 
<path d="M7922 7721 L7928 7724" /> 
<g style = "stroke-linecap:round;" > 
<path d="M7928 7724 L7928 7724" /> 
</g><path d="M7953 7761 L7953 7701" /> 
<g style = "stroke-linecap:round;" > 
<path d="M7953 7701 L7953 7701" /> 
</g><path d="M7979 7761 L7979 7730" /> 
<path d="M7979 7730 L7976 7724" /> 
<path d="M7976 7724 L7970 7721" /> 
<path d="M7970 7721 L7962 7721" /> 
<path d="M7962 7721 L7956 7724" /> 
<path d="M7956 7724 L7953 7727" /> 
<g style = "stroke-linecap:round;" > 
<path d="M7953 7727 L7953 7727" /> 
</g><path d="M8030 7758 L8024 7761" /> 
<path d="M8024 7761 L8013 7761" /> 
<path d="M8013 7761 L8007 7758" /> 
<path d="M8007 7758 L8004 7753" /> 
<path d="M8004 7753 L8004 7730" /> 
<path d="M8004 7730 L8007 7724" /> 
<path d="M8007 7724 L8013 7721" /> 
<path d="M8013 7721 L8024 7721" /> 
<path d="M8024 7721 L8030 7724" /> 
<path d="M8030 7724 L8033 7730" /> 
<path d="M8033 7730 L8033 7736" /> 
<path d="M8033 7736 L8004 7741" /> 
<g style = "stroke-linecap:round;" > 
<path d="M8004 7741 L8004 7741" /> 
</g><path d="M8058 7761 L8058 7721" /> 
<g style = "stroke-linecap:round;" > 
<path d="M8058 7721 L8058 7721" /> 
</g><path d="M8058 7727 L8061 7724" /> 
<path d="M8061 7724 L8067 7721" /> 
<path d="M8067 7721 L8075 7721" /> 
<path d="M8075 7721 L8081 7724" /> 
<path d="M8081 7724 L8084 7730" /> 
<path d="M8084 7730 L8084 7761" /> 
<g style = "stroke-linecap:round;" > 
<path d="M8084 7761 L8084 7761" /> 
</g><path d="M8084 7730 L8087 7724" /> 
<path d="M8087 7724 L8093 7721" /> 
<path d="M8093 7721 L8101 7721" /> 
<path d="M8101 7721 L8107 7724" /> 
<path d="M8107 7724 L8110 7730" /> 
<path d="M8110 7730 L8110 7761" /> 
<g style = "stroke-linecap:round;" > 
<path d="M8110 7761 L8110 7761" /> 
</g><path d="M8164 7761 L8164 7730" /> 
<path d="M8164 7730 L8161 7724" /> 
<path d="M8161 7724 L8155 7721" /> 
<path d="M8155 7721 L8144 7721" /> 
<path d="M8144 7721 L8138 7724" /> 
<g style = "stroke-linecap:round;" > 
<path d="M8138 7724 L8138 7724" /> 
</g><path d="M8164 7758 L8158 7761" /> 
<path d="M8158 7761 L8144 7761" /> 
<path d="M8144 7761 L8138 7758" /> 
<path d="M8138 7758 L8135 7753" /> 
<path d="M8135 7753 L8135 7747" /> 
<path d="M8135 7747 L8138 7741" /> 
<path d="M8138 7741 L8144 7738" /> 
<path d="M8144 7738 L8158 7738" /> 
<path d="M8158 7738 L8164 7736" /> 
<g style = "stroke-linecap:round;" > 
<path d="M8164 7736 L8164 7736" /> 
</g><path d="M8255 7784 L8253 7781" /> 
<path d="M8253 7781 L8247 7773" /> 
<path d="M8247 7773 L8244 7767" /> 
<path d="M8244 7767 L8241 7758" /> 
<path d="M8241 7758 L8238 7744" /> 
<path d="M8238 7744 L8238 7733" /> 
<path d="M8238 7733 L8241 7718" /> 
<path d="M8241 7718 L8244 7710" /> 
<path d="M8244 7710 L8247 7704" /> 
<path d="M8247 7704 L8253 7696" /> 
<path d="M8253 7696 L8255 7693" /> 
<g style = "stroke-linecap:round;" > 
<path d="M8255 7693 L8255 7693" /> 
</g><path d="M8275 7707 L8278 7704" /> 
<path d="M8278 7704 L8284 7701" /> 
<path d="M8284 7701 L8298 7701" /> 
<path d="M8298 7701 L8304 7704" /> 
<path d="M8304 7704 L8307 7707" /> 
<path d="M8307 7707 L8310 7713" /> 
<path d="M8310 7713 L8310 7718" /> 
<path d="M8310 7718 L8307 7727" /> 
<path d="M8307 7727 L8273 7761" /> 
<path d="M8273 7761 L8310 7761" /> 
<g style = "stroke-linecap:round;" > 
<path d="M8310 7761 L8310 7761" /> 
</g><path d="M8347 7701 L8352 7701" /> 
<path d="M8352 7701 L8358 7704" /> 
<path d="M8358 7704 L8361 7707" /> 
<path d="M8361 7707 L8364 7713" /> 
<path d="M8364 7713 L8367 7724" /> 
<path d="M8367 7724 L8367 7738" /> 
<path d="M8367 7738 L8364 7750" /> 
<path d="M8364 7750 L8361 7756" /> 
<path d="M8361 7756 L8358 7758" /> 
<path d="M8358 7758 L8352 7761" /> 
<path d="M8352 7761 L8347 7761" /> 
<path d="M8347 7761 L8341 7758" /> 
<path d="M8341 7758 L8338 7756" /> 
<path d="M8338 7756 L8335 7750" /> 
<path d="M8335 7750 L8332 7738" /> 
<path d="M8332 7738 L8332 7724" /> 
<path d="M8332 7724 L8335 7713" /> 
<path d="M8335 7713 L8338 7707" /> 
<path d="M8338 7707 L8341 7704" /> 
<path d="M8341 7704 L8347 7701" /> 
<path d="M8424 7761 L8389 7761" /> 
<g style = "stroke-linecap:round;" > 
<path d="M8389 7761 L8389 7761" /> 
</g><path d="M8407 7761 L8407 7701" /> 
<path d="M8407 7701 L8401 7710" /> 
<path d="M8401 7710 L8395 7716" /> 
<path d="M8395 7716 L8389 7718" /> 
<g style = "stroke-linecap:round;" > 
<path d="M8389 7718 L8389 7718" /> 
</g><path d="M8446 7707 L8449 7704" /> 
<path d="M8449 7704 L8455 7701" /> 
<path d="M8455 7701 L8469 7701" /> 
<path d="M8469 7701 L8475 7704" /> 
<path d="M8475 7704 L8478 7707" /> 
<path d="M8478 7707 L8481 7713" /> 
<path d="M8481 7713 L8481 7718" /> 
<path d="M8481 7718 L8478 7727" /> 
<path d="M8478 7727 L8444 7761" /> 
<path d="M8444 7761 L8481 7761" /> 
<g style = "stroke-linecap:round;" > 
<path d="M8481 7761 L8481 7761" /> 
</g><path d="M8506 7738 L8552 7738" /> 
<g style = "stroke-linecap:round;" > 
<path d="M8552 7738 L8552 7738" /> 
</g><path d="M8592 7701 L8597 7701" /> 
<path d="M8597 7701 L8603 7704" /> 
<path d="M8603 7704 L8606 7707" /> 
<path d="M8606 7707 L8609 7713" /> 
<path d="M8609 7713 L8612 7724" /> 
<path d="M8612 7724 L8612 7738" /> 
<path d="M8612 7738 L8609 7750" /> 
<path d="M8609 7750 L8606 7756" /> 
<path d="M8606 7756 L8603 7758" /> 
<path d="M8603 7758 L8597 7761" /> 
<path d="M8597 7761 L8592 7761" /> 
<path d="M8592 7761 L8586 7758" /> 
<path d="M8586 7758 L8583 7756" /> 
<path d="M8583 7756 L8580 7750" /> 
<path d="M8580 7750 L8577 7738" /> 
<path d="M8577 7738 L8577 7724" /> 
<path d="M8577 7724 L8580 7713" /> 
<path d="M8580 7713 L8583 7707" /> 
<path d="M8583 7707 L8586 7704" /> 
<path d="M8586 7704 L8592 7701" /> 
<path d="M8669 7761 L8634 7761" /> 
<g style = "stroke-linecap:round;" > 
<path d="M8634 7761 L8634 7761" /> 
</g><path d="M8652 7761 L8652 7701" /> 
<path d="M8652 7701 L8646 7710" /> 
<path d="M8646 7710 L8640 7716" /> 
<path d="M8640 7716 L8634 7718" /> 
<g style = "stroke-linecap:round;" > 
<path d="M8634 7718 L8634 7718" /> 
</g><path d="M8694 7738 L8740 7738" /> 
<g style = "stroke-linecap:round;" > 
<path d="M8740 7738 L8740 7738" /> 
</g><path d="M8800 7761 L8765 7761" /> 
<g style = "stroke-linecap:round;" > 
<path d="M8765 7761 L8765 7761" /> 
</g><path d="M8783 7761 L8783 7701" /> 
<path d="M8783 7701 L8777 7710" /> 
<path d="M8777 7710 L8771 7716" /> 
<path d="M8771 7716 L8765 7718" /> 
<g style = "stroke-linecap:round;" > 
<path d="M8765 7718 L8765 7718" /> 
</g><path d="M8828 7761 L8840 7761" /> 
<path d="M8840 7761 L8845 7758" /> 
<path d="M8845 7758 L8848 7756" /> 
<path d="M8848 7756 L8854 7747" /> 
<path d="M8854 7747 L8857 7736" /> 
<path d="M8857 7736 L8857 7713" /> 
<path d="M8857 7713 L8854 7707" /> 
<path d="M8854 7707 L8851 7704" /> 
<path d="M8851 7704 L8845 7701" /> 
<path d="M8845 7701 L8834 7701" /> 
<path d="M8834 7701 L8828 7704" /> 
<path d="M8828 7704 L8825 7707" /> 
<path d="M8825 7707 L8822 7713" /> 
<path d="M8822 7713 L8822 7727" /> 
<path d="M8822 7727 L8825 7733" /> 
<path d="M8825 7733 L8828 7736" /> 
<path d="M8828 7736 L8834 7738" /> 
<path d="M8834 7738 L8845 7738" /> 
<path d="M8845 7738 L8851 7736" /> 
<path d="M8851 7736 L8854 7733" /> 
<path d="M8854 7733 L8857 7727" /> 
<g style = "stroke-linecap:round;" > 
<path d="M8857 7727 L8857 7727" /> 
</g><path d="M8948 7730 L8957 7733" /> 
<path d="M8957 7733 L8960 7736" /> 
<path d="M8960 7736 L8963 7741" /> 
<path d="M8963 7741 L8963 7750" /> 
<path d="M8963 7750 L8960 7756" /> 
<path d="M8960 7756 L8957 7758" /> 
<path d="M8957 7758 L8951 7761" /> 
<path d="M8951 7761 L8928 7761" /> 
<path d="M8928 7761 L8928 7701" /> 
<path d="M8928 7701 L8948 7701" /> 
<path d="M8948 7701 L8954 7704" /> 
<path d="M8954 7704 L8957 7707" /> 
<path d="M8957 7707 L8960 7713" /> 
<path d="M8960 7713 L8960 7718" /> 
<path d="M8960 7718 L8957 7724" /> 
<path d="M8957 7724 L8954 7727" /> 
<path d="M8954 7727 L8948 7730" /> 
<path d="M8948 7730 L8928 7730" /> 
<g style = "stroke-linecap:round;" > 
<path d="M8928 7730 L8928 7730" /> 
</g><path d="M8983 7701 L9023 7701" /> 
<path d="M9023 7701 L8983 7761" /> 
<path d="M8983 7761 L9023 7761" /> 
<g style = "stroke-linecap:round;" > 
<path d="M9023 7761 L9023 7761" /> 
</g><path d="M9080 7761 L9060 7733" /> 
<g style = "stroke-linecap:round;" > 
<path d="M9060 7733 L9060 7733" /> 
</g><path d="M9045 7761 L9045 7701" /> 
<path d="M9045 7701 L9068 7701" /> 
<path d="M9068 7701 L9074 7704" /> 
<path d="M9074 7704 L9077 7707" /> 
<path d="M9077 7707 L9080 7713" /> 
<path d="M9080 7713 L9080 7721" /> 
<path d="M9080 7721 L9077 7727" /> 
<path d="M9077 7727 L9074 7730" /> 
<path d="M9074 7730 L9068 7733" /> 
<path d="M9068 7733 L9045 7733" /> 
<g style = "stroke-linecap:round;" > 
<path d="M9045 7733 L9045 7733" /> 
</g><path d="M9146 7701 L9183 7701" /> 
<path d="M9183 7701 L9163 7724" /> 
<path d="M9163 7724 L9171 7724" /> 
<path d="M9171 7724 L9177 7727" /> 
<path d="M9177 7727 L9180 7730" /> 
<path d="M9180 7730 L9183 7736" /> 
<path d="M9183 7736 L9183 7750" /> 
<path d="M9183 7750 L9180 7756" /> 
<path d="M9180 7756 L9177 7758" /> 
<path d="M9177 7758 L9171 7761" /> 
<path d="M9171 7761 L9154 7761" /> 
<path d="M9154 7761 L9148 7758" /> 
<path d="M9148 7758 L9146 7756" /> 
<g style = "stroke-linecap:round;" > 
<path d="M9146 7756 L9146 7756" /> 
</g><path d="M9205 7707 L9208 7704" /> 
<path d="M9208 7704 L9214 7701" /> 
<path d="M9214 7701 L9228 7701" /> 
<path d="M9228 7701 L9234 7704" /> 
<path d="M9234 7704 L9237 7707" /> 
<path d="M9237 7707 L9240 7713" /> 
<path d="M9240 7713 L9240 7718" /> 
<path d="M9240 7718 L9237 7727" /> 
<path d="M9237 7727 L9203 7761" /> 
<path d="M9203 7761 L9240 7761" /> 
<g style = "stroke-linecap:round;" > 
<path d="M9240 7761 L9240 7761" /> 
</g><path d="M9294 7701 L9265 7701" /> 
<path d="M9265 7701 L9262 7730" /> 
<path d="M9262 7730 L9265 7727" /> 
<path d="M9265 7727 L9271 7724" /> 
<path d="M9271 7724 L9285 7724" /> 
<path d="M9285 7724 L9291 7727" /> 
<path d="M9291 7727 L9294 7730" /> 
<path d="M9294 7730 L9297 7736" /> 
<path d="M9297 7736 L9297 7750" /> 
<path d="M9297 7750 L9294 7756" /> 
<path d="M9294 7756 L9291 7758" /> 
<path d="M9291 7758 L9285 7761" /> 
<path d="M9285 7761 L9271 7761" /> 
<path d="M9271 7761 L9265 7758" /> 
<path d="M9265 7758 L9262 7756" /> 
<g style = "stroke-linecap:round;" > 
<path d="M9262 7756 L9262 7756" /> 
</g><path d="M9348 7701 L9337 7701" /> 
<path d="M9337 7701 L9331 7704" /> 
<path d="M9331 7704 L9328 7707" /> 
<path d="M9328 7707 L9322 7716" /> 
<path d="M9322 7716 L9319 7727" /> 
<path d="M9319 7727 L9319 7750" /> 
<path d="M9319 7750 L9322 7756" /> 
<path d="M9322 7756 L9325 7758" /> 
<path d="M9325 7758 L9331 7761" /> 
<path d="M9331 7761 L9342 7761" /> 
<path d="M9342 7761 L9348 7758" /> 
<path d="M9348 7758 L9351 7756" /> 
<path d="M9351 7756 L9354 7750" /> 
<path d="M9354 7750 L9354 7736" /> 
<path d="M9354 7736 L9351 7730" /> 
<path d="M9351 7730 L9348 7727" /> 
<path d="M9348 7727 L9342 7724" /> 
<path d="M9342 7724 L9331 7724" /> 
<path d="M9331 7724 L9325 7727" /> 
<path d="M9325 7727 L9322 7730" /> 
<path d="M9322 7730 L9319 7736" /> 
<g style = "stroke-linecap:round;" > 
<path d="M9319 7736 L9319 7736" /> 
</g><path d="M9374 7784 L9376 7781" /> 
<path d="M9376 7781 L9382 7773" /> 
<path d="M9382 7773 L9385 7767" /> 
<path d="M9385 7767 L9388 7758" /> 
<path d="M9388 7758 L9391 7744" /> 
<path d="M9391 7744 L9391 7733" /> 
<path d="M9391 7733 L9388 7718" /> 
<path d="M9388 7718 L9385 7710" /> 
<path d="M9385 7710 L9382 7704" /> 
<path d="M9382 7704 L9376 7696" /> 
<path d="M9376 7696 L9374 7693" /> 
<g style = "stroke-linecap:round;" > 
<path d="M9374 7693 L9374 7693" /> 
</g><path d="M9419 7738 L9465 7738" /> 
<g style = "stroke-linecap:round;" > 
<path d="M9465 7738 L9465 7738" /> 
</g><path d="M9490 7758 L9496 7761" /> 
<path d="M9496 7761 L9508 7761" /> 
<path d="M9508 7761 L9513 7758" /> 
<path d="M9513 7758 L9516 7753" /> 
<path d="M9516 7753 L9516 7750" /> 
<path d="M9516 7750 L9513 7744" /> 
<path d="M9513 7744 L9508 7741" /> 
<path d="M9508 7741 L9499 7741" /> 
<path d="M9499 7741 L9493 7738" /> 
<path d="M9493 7738 L9490 7733" /> 
<path d="M9490 7733 L9490 7730" /> 
<path d="M9490 7730 L9493 7724" /> 
<path d="M9493 7724 L9499 7721" /> 
<path d="M9499 7721 L9508 7721" /> 
<path d="M9508 7721 L9513 7724" /> 
<g style = "stroke-linecap:round;" > 
<path d="M9513 7724 L9513 7724" /> 
</g><path d="M9534 7721 L9557 7721" /> 
<g style = "stroke-linecap:round;" > 
<path d="M9557 7721 L9557 7721" /> 
</g><path d="M9542 7701 L9542 7753" /> 
<path d="M9542 7753 L9545 7758" /> 
<path d="M9545 7758 L9551 7761" /> 
<path d="M9551 7761 L9557 7761" /> 
<g style = "stroke-linecap:round;" > 
<path d="M9557 7761 L9557 7761" /> 
</g><path d="M9602 7761 L9602 7730" /> 
<path d="M9602 7730 L9599 7724" /> 
<path d="M9599 7724 L9593 7721" /> 
<path d="M9593 7721 L9582 7721" /> 
<path d="M9582 7721 L9576 7724" /> 
<g style = "stroke-linecap:round;" > 
<path d="M9576 7724 L9576 7724" /> 
</g><path d="M9602 7758 L9596 7761" /> 
<path d="M9596 7761 L9582 7761" /> 
<path d="M9582 7761 L9576 7758" /> 
<path d="M9576 7758 L9573 7753" /> 
<path d="M9573 7753 L9573 7747" /> 
<path d="M9573 7747 L9576 7741" /> 
<path d="M9576 7741 L9582 7738" /> 
<path d="M9582 7738 L9596 7738" /> 
<path d="M9596 7738 L9602 7736" /> 
<g style = "stroke-linecap:round;" > 
<path d="M9602 7736 L9602 7736" /> 
</g><path d="M9630 7761 L9630 7701" /> 
<g style = "stroke-linecap:round;" > 
<path d="M9630 7701 L9630 7701" /> 
</g><path d="M9630 7724 L9636 7721" /> 
<path d="M9636 7721 L9647 7721" /> 
<path d="M9647 7721 L9653 7724" /> 
<path d="M9653 7724 L9656 7727" /> 
<path d="M9656 7727 L9659 7733" /> 
<path d="M9659 7733 L9659 7750" /> 
<path d="M9659 7750 L9656 7756" /> 
<path d="M9656 7756 L9653 7758" /> 
<path d="M9653 7758 L9647 7761" /> 
<path d="M9647 7761 L9636 7761" /> 
<path d="M9636 7761 L9630 7758" /> 
<g style = "stroke-linecap:round;" > 
<path d="M9630 7758 L9630 7758" /> 
</g><path d="M9693 7761 L9687 7758" /> 
<path d="M9687 7758 L9684 7753" /> 
<path d="M9684 7753 L9684 7701" /> 
<g style = "stroke-linecap:round;" > 
<path d="M9684 7701 L9684 7701" /> 
</g><path d="M9738 7758 L9732 7761" /> 
<path d="M9732 7761 L9721 7761" /> 
<path d="M9721 7761 L9715 7758" /> 
<path d="M9715 7758 L9712 7753" /> 
<path d="M9712 7753 L9712 7730" /> 
<path d="M9712 7730 L9715 7724" /> 
<path d="M9715 7724 L9721 7721" /> 
<path d="M9721 7721 L9732 7721" /> 
<path d="M9732 7721 L9738 7724" /> 
<path d="M9738 7724 L9741 7730" /> 
<path d="M9741 7730 L9741 7736" /> 
<path d="M9741 7736 L9712 7741" /> 
<g style = "stroke-linecap:round;" > 
<path d="M9712 7741 L9712 7741" /> 
</g></g>
<g style="fill:#000000; fill-opacity:0.0; stroke:#000000; stroke-opacity:1.00; stroke-linecap:round; stroke-linejoin:round; stroke-width:12" 
   transform="translate(0.00 0.00) scale(1.00 1.00)">
<path d="M10459 7641 L10439 7613" /> 
<g style = "stroke-linecap:round;" > 
<path d="M10439 7613 L10439 7613" /> 
</g><path d="M10424 7641 L10424 7581" /> 
<path d="M10424 7581 L10447 7581" /> 
<path d="M10447 7581 L10453 7584" /> 
<path d="M10453 7584 L10456 7587" /> 
<path d="M10456 7587 L10459 7593" /> 
<path d="M10459 7593 L10459 7601" /> 
<path d="M10459 7601 L10456 7607" /> 
<path d="M10456 7607 L10453 7610" /> 
<path d="M10453 7610 L10447 7613" /> 
<path d="M10447 7613 L10424 7613" /> 
<g style = "stroke-linecap:round;" > 
<path d="M10424 7613 L10424 7613" /> 
</g><path d="M10507 7638 L10501 7641" /> 
<path d="M10501 7641 L10490 7641" /> 
<path d="M10490 7641 L10484 7638" /> 
<path d="M10484 7638 L10481 7633" /> 
<path d="M10481 7633 L10481 7610" /> 
<path d="M10481 7610 L10484 7604" /> 
<path d="M10484 7604 L10490 7601" /> 
<path d="M10490 7601 L10501 7601" /> 
<path d="M10501 7601 L10507 7604" /> 
<path d="M10507 7604 L10510 7610" /> 
<path d="M10510 7610 L10510 7616" /> 
<path d="M10510 7616 L10481 7621" /> 
<g style = "stroke-linecap:round;" > 
<path d="M10481 7621 L10481 7621" /> 
</g><path d="M10530 7601 L10544 7641" /> 
<path d="M10544 7641 L10558 7601" /> 
<g style = "stroke-linecap:round;" > 
<path d="M10558 7601 L10558 7601" /> 
</g><path d="M10581 7636 L10584 7638" /> 
<path d="M10584 7638 L10581 7641" /> 
<path d="M10581 7641 L10578 7638" /> 
<path d="M10578 7638 L10581 7636" /> 
<path d="M10581 7636 L10581 7641" /> 
<g style = "stroke-linecap:round;" > 
<path d="M10581 7641 L10581 7641" /> 
</g><path d="M10581 7604 L10584 7607" /> 
<path d="M10584 7607 L10581 7610" /> 
<path d="M10581 7610 L10578 7607" /> 
<path d="M10578 7607 L10581 7604" /> 
<path d="M10581 7604 L10581 7610" /> 
<g style = "stroke-linecap:round;" > 
<path d="M10581 7610 L10581 7610" /> 
</g></g>
<g style="fill:#000000; fill-opacity:0.0; stroke:#000000; stroke-opacity:1.00; stroke-linecap:round; stroke-linejoin:round; stroke-width:6" 
   transform="translate(0.00 0.00) scale(1.00 1.00)">
<path d="M7101 7638 L7110 7641" /> 
<path d="M7110 7641 L7124 7641" /> 
<path d="M7124 7641 L7130 7638" /> 
<path d="M7130 7638 L7133 7636" /> 
<path d="M7133 7636 L7136 7630" /> 
<path d="M7136 7630 L7136 7624" /> 
<path d="M7136 7624 L7133 7618" /> 
<path d="M7133 7618 L7130 7616" /> 
<path d="M7130 7616 L7124 7613" /> 
<path d="M7124 7613 L7113 7610" /> 
<path d="M7113 7610 L7107 7607" /> 
<path d="M7107 7607 L7104 7604" /> 
<path d="M7104 7604 L7101 7598" /> 
<path d="M7101 7598 L7101 7593" /> 
<path d="M7101 7593 L7104 7587" /> 
<path d="M7104 7587 L7107 7584" /> 
<path d="M7107 7584 L7113 7581" /> 
<path d="M7113 7581 L7127 7581" /> 
<path d="M7127 7581 L7136 7584" /> 
<g style = "stroke-linecap:round;" > 
<path d="M7136 7584 L7136 7584" /> 
</g><path d="M7161 7641 L7161 7601" /> 
<g style = "stroke-linecap:round;" > 
<path d="M7161 7601 L7161 7601" /> 
</g><path d="M7161 7581 L7158 7584" /> 
<path d="M7158 7584 L7161 7587" /> 
<path d="M7161 7587 L7164 7584" /> 
<path d="M7164 7584 L7161 7581" /> 
<path d="M7161 7581 L7161 7587" /> 
<g style = "stroke-linecap:round;" > 
<path d="M7161 7587 L7161 7587" /> 
</g><path d="M7185 7601 L7216 7601" /> 
<path d="M7216 7601 L7185 7641" /> 
<path d="M7185 7641 L7216 7641" /> 
<g style = "stroke-linecap:round;" > 
<path d="M7216 7641 L7216 7641" /> 
</g><path d="M7262 7638 L7256 7641" /> 
<path d="M7256 7641 L7245 7641" /> 
<path d="M7245 7641 L7239 7638" /> 
<path d="M7239 7638 L7236 7633" /> 
<path d="M7236 7633 L7236 7610" /> 
<path d="M7236 7610 L7239 7604" /> 
<path d="M7239 7604 L7245 7601" /> 
<path d="M7245 7601 L7256 7601" /> 
<path d="M7256 7601 L7262 7604" /> 
<path d="M7262 7604 L7265 7610" /> 
<path d="M7265 7610 L7265 7616" /> 
<path d="M7265 7616 L7236 7621" /> 
<g style = "stroke-linecap:round;" > 
<path d="M7236 7621 L7236 7621" /> 
</g><path d="M7290 7636 L7293 7638" /> 
<path d="M7293 7638 L7290 7641" /> 
<path d="M7290 7641 L7287 7638" /> 
<path d="M7287 7638 L7290 7636" /> 
<path d="M7290 7636 L7290 7641" /> 
<g style = "stroke-linecap:round;" > 
<path d="M7290 7641 L7290 7641" /> 
</g><path d="M7290 7604 L7293 7607" /> 
<path d="M7293 7607 L7290 7610" /> 
<path d="M7290 7610 L7287 7607" /> 
<path d="M7287 7607 L7290 7604" /> 
<path d="M7290 7604 L7290 7610" /> 
<g style = "stroke-linecap:round;" > 
<path d="M7290 7610 L7290 7610" /> 
</g><path d="M7362 7624 L7391 7624" /> 
<g style = "stroke-linecap:round;" > 
<path d="M7391 7624 L7391 7624" /> 
</g><path d="M7357 7641 L7377 7581" /> 
<path d="M7377 7581 L7397 7641" /> 
<g style = "stroke-linecap:round;" > 
<path d="M7397 7641 L7397 7641" /> 
</g><path d="M7442 7601 L7442 7641" /> 
<g style = "stroke-linecap:round;" > 
<path d="M7442 7641 L7442 7641" /> 
</g><path d="M7428 7578 L7413 7621" /> 
<path d="M7413 7621 L7451 7621" /> 
<g style = "stroke-linecap:round;" > 
<path d="M7451 7621 L7451 7621" /> 
</g><path d="M10424 7761 L10424 7701" /> 
<g style = "stroke-linecap:round;" > 
<path d="M10424 7701 L10424 7701" /> 
</g><path d="M10479 7761 L10479 7701" /> 
<g style = "stroke-linecap:round;" > 
<path d="M10479 7701 L10479 7701" /> 
</g><path d="M10479 7758 L10473 7761" /> 
<path d="M10473 7761 L10462 7761" /> 
<path d="M10462 7761 L10456 7758" /> 
<path d="M10456 7758 L10453 7756" /> 
<path d="M10453 7756 L10450 7750" /> 
<path d="M10450 7750 L10450 7733" /> 
<path d="M10450 7733 L10453 7727" /> 
<path d="M10453 7727 L10456 7724" /> 
<path d="M10456 7724 L10462 7721" /> 
<path d="M10462 7721 L10473 7721" /> 
<path d="M10473 7721 L10479 7724" /> 
<g style = "stroke-linecap:round;" > 
<path d="M10479 7724 L10479 7724" /> 
</g><path d="M10507 7756 L10510 7758" /> 
<path d="M10510 7758 L10507 7761" /> 
<path d="M10507 7761 L10504 7758" /> 
<path d="M10504 7758 L10507 7756" /> 
<path d="M10507 7756 L10507 7761" /> 
<g style = "stroke-linecap:round;" > 
<path d="M10507 7761 L10507 7761" /> 
</g><path d="M10507 7724 L10510 7727" /> 
<path d="M10510 7727 L10507 7730" /> 
<path d="M10507 7730 L10504 7727" /> 
<path d="M10504 7727 L10507 7724" /> 
<path d="M10507 7724 L10507 7730" /> 
<g style = "stroke-linecap:round;" > 
<path d="M10507 7730 L10507 7730" /> 
</g><path d="M10614 7761 L10579 7761" /> 
<g style = "stroke-linecap:round;" > 
<path d="M10579 7761 L10579 7761" /> 
</g><path d="M10597 7761 L10597 7701" /> 
<path d="M10597 7701 L10591 7710" /> 
<path d="M10591 7710 L10585 7716" /> 
<path d="M10585 7716 L10579 7718" /> 
<g style = "stroke-linecap:round;" > 
<path d="M10579 7718 L10579 7718" /> 
</g><path d="M10682 7698 L10631 7776" /> 
<g style = "stroke-linecap:round;" > 
<path d="M10631 7776 L10631 7776" /> 
</g><path d="M10734 7761 L10699 7761" /> 
<g style = "stroke-linecap:round;" > 
<path d="M10699 7761 L10699 7761" /> 
</g><path d="M10717 7761 L10717 7701" /> 
<path d="M10717 7701 L10711 7710" /> 
<path d="M10711 7710 L10705 7716" /> 
<path d="M10705 7716 L10699 7718" /> 
<g style = "stroke-linecap:round;" > 
<path d="M10699 7718 L10699 7718" /> 
</g></g>
<g style="fill:#000000; fill-opacity:0.0; stroke:#000000; stroke-opacity:1.00; stroke-linecap:round; stroke-linejoin:round; stroke-width:12" 
   transform="translate(0.00 0.00) scale(1.00 1.00)">
<path d="M7096 7461 L7130 7461" /> 
<g style = "stroke-linecap:round;" > 
<path d="M7130 7461 L7130 7461" /> 
</g><path d="M7113 7521 L7113 7461" /> 
<g style = "stroke-linecap:round;" > 
<path d="M7113 7461 L7113 7461" /> 
</g><path d="M7150 7521 L7150 7481" /> 
<g style = "stroke-linecap:round;" > 
<path d="M7150 7481 L7150 7481" /> 
</g><path d="M7150 7461 L7147 7464" /> 
<path d="M7147 7464 L7150 7467" /> 
<path d="M7150 7467 L7153 7464" /> 
<path d="M7153 7464 L7150 7461" /> 
<path d="M7150 7461 L7150 7467" /> 
<g style = "stroke-linecap:round;" > 
<path d="M7150 7467 L7150 7467" /> 
</g><path d="M7171 7481 L7194 7481" /> 
<g style = "stroke-linecap:round;" > 
<path d="M7194 7481 L7194 7481" /> 
</g><path d="M7179 7461 L7179 7513" /> 
<path d="M7179 7513 L7182 7518" /> 
<path d="M7182 7518 L7188 7521" /> 
<path d="M7188 7521 L7194 7521" /> 
<g style = "stroke-linecap:round;" > 
<path d="M7194 7521 L7194 7521" /> 
</g><path d="M7222 7521 L7216 7518" /> 
<path d="M7216 7518 L7213 7513" /> 
<path d="M7213 7513 L7213 7461" /> 
<g style = "stroke-linecap:round;" > 
<path d="M7213 7461 L7213 7461" /> 
</g><path d="M7267 7518 L7261 7521" /> 
<path d="M7261 7521 L7250 7521" /> 
<path d="M7250 7521 L7244 7518" /> 
<path d="M7244 7518 L7241 7513" /> 
<path d="M7241 7513 L7241 7490" /> 
<path d="M7241 7490 L7244 7484" /> 
<path d="M7244 7484 L7250 7481" /> 
<path d="M7250 7481 L7261 7481" /> 
<path d="M7261 7481 L7267 7484" /> 
<path d="M7267 7484 L7270 7490" /> 
<path d="M7270 7490 L7270 7496" /> 
<path d="M7270 7496 L7241 7501" /> 
<g style = "stroke-linecap:round;" > 
<path d="M7241 7501 L7241 7501" /> 
</g><path d="M7295 7516 L7298 7518" /> 
<path d="M7298 7518 L7295 7521" /> 
<path d="M7295 7521 L7292 7518" /> 
<path d="M7292 7518 L7295 7516" /> 
<path d="M7295 7516 L7295 7521" /> 
<g style = "stroke-linecap:round;" > 
<path d="M7295 7521 L7295 7521" /> 
</g><path d="M7295 7484 L7298 7487" /> 
<path d="M7298 7487 L7295 7490" /> 
<path d="M7295 7490 L7292 7487" /> 
<path d="M7292 7487 L7295 7484" /> 
<path d="M7295 7484 L7295 7490" /> 
<g style = "stroke-linecap:round;" > 
<path d="M7295 7490 L7295 7490" /> 
</g></g>
<g style="fill:#000000; fill-opacity:0.0; stroke:#000000; stroke-opacity:1.00; stroke-linecap:round; stroke-linejoin:round; stroke-width:6" 
   transform="translate(0.00 0.00) scale(1.00 1.00)">
<path d="M7124 7250 L7104 7250" /> 
<g style = "stroke-linecap:round;" > 
<path d="M7104 7250 L7104 7250" /> 
</g><path d="M7104 7281 L7104 7221" /> 
<path d="M7104 7221 L7133 7221" /> 
<g style = "stroke-linecap:round;" > 
<path d="M7133 7221 L7133 7221" /> 
</g><path d="M7155 7281 L7155 7241" /> 
<g style = "stroke-linecap:round;" > 
<path d="M7155 7241 L7155 7241" /> 
</g><path d="M7155 7221 L7152 7224" /> 
<path d="M7152 7224 L7155 7227" /> 
<path d="M7155 7227 L7158 7224" /> 
<path d="M7158 7224 L7155 7221" /> 
<path d="M7155 7221 L7155 7227" /> 
<g style = "stroke-linecap:round;" > 
<path d="M7155 7227 L7155 7227" /> 
</g><path d="M7193 7281 L7187 7278" /> 
<path d="M7187 7278 L7184 7273" /> 
<path d="M7184 7273 L7184 7221" /> 
<g style = "stroke-linecap:round;" > 
<path d="M7184 7221 L7184 7221" /> 
</g><path d="M7238 7278 L7232 7281" /> 
<path d="M7232 7281 L7221 7281" /> 
<path d="M7221 7281 L7215 7278" /> 
<path d="M7215 7278 L7212 7273" /> 
<path d="M7212 7273 L7212 7250" /> 
<path d="M7212 7250 L7215 7244" /> 
<path d="M7215 7244 L7221 7241" /> 
<path d="M7221 7241 L7232 7241" /> 
<path d="M7232 7241 L7238 7244" /> 
<path d="M7238 7244 L7241 7250" /> 
<path d="M7241 7250 L7241 7256" /> 
<path d="M7241 7256 L7212 7261" /> 
<g style = "stroke-linecap:round;" > 
<path d="M7212 7261 L7212 7261" /> 
</g><path d="M7266 7276 L7269 7278" /> 
<path d="M7269 7278 L7266 7281" /> 
<path d="M7266 7281 L7263 7278" /> 
<path d="M7263 7278 L7266 7276" /> 
<path d="M7266 7276 L7266 7281" /> 
<g style = "stroke-linecap:round;" > 
<path d="M7266 7281 L7266 7281" /> 
</g><path d="M7266 7244 L7269 7247" /> 
<path d="M7269 7247 L7266 7250" /> 
<path d="M7266 7250 L7263 7247" /> 
<path d="M7263 7247 L7266 7244" /> 
<path d="M7266 7244 L7266 7250" /> 
<g style = "stroke-linecap:round;" > 
<path d="M7266 7250 L7266 7250" /> 
</g><path d="M7367 7278 L7361 7281" /> 
<path d="M7361 7281 L7350 7281" /> 
<path d="M7350 7281 L7344 7278" /> 
<path d="M7344 7278 L7341 7276" /> 
<path d="M7341 7276 L7338 7270" /> 
<path d="M7338 7270 L7338 7253" /> 
<path d="M7338 7253 L7341 7247" /> 
<path d="M7341 7247 L7344 7244" /> 
<path d="M7344 7244 L7350 7241" /> 
<path d="M7350 7241 L7361 7241" /> 
<path d="M7361 7241 L7367 7244" /> 
<g style = "stroke-linecap:round;" > 
<path d="M7367 7244 L7367 7244" /> 
</g><path d="M7418 7281 L7418 7250" /> 
<path d="M7418 7250 L7415 7244" /> 
<path d="M7415 7244 L7409 7241" /> 
<path d="M7409 7241 L7398 7241" /> 
<path d="M7398 7241 L7392 7244" /> 
<g style = "stroke-linecap:round;" > 
<path d="M7392 7244 L7392 7244" /> 
</g><path d="M7418 7278 L7412 7281" /> 
<path d="M7412 7281 L7398 7281" /> 
<path d="M7398 7281 L7392 7278" /> 
<path d="M7392 7278 L7389 7273" /> 
<path d="M7389 7273 L7389 7267" /> 
<path d="M7389 7267 L7392 7261" /> 
<path d="M7392 7261 L7398 7258" /> 
<path d="M7398 7258 L7412 7258" /> 
<path d="M7412 7258 L7418 7256" /> 
<g style = "stroke-linecap:round;" > 
<path d="M7418 7256 L7418 7256" /> 
</g><path d="M7446 7281 L7446 7221" /> 
<g style = "stroke-linecap:round;" > 
<path d="M7446 7221 L7446 7221" /> 
</g><path d="M7446 7244 L7452 7241" /> 
<path d="M7452 7241 L7463 7241" /> 
<path d="M7463 7241 L7469 7244" /> 
<path d="M7469 7244 L7472 7247" /> 
<path d="M7472 7247 L7475 7253" /> 
<path d="M7475 7253 L7475 7270" /> 
<path d="M7475 7270 L7472 7276" /> 
<path d="M7472 7276 L7469 7278" /> 
<path d="M7469 7278 L7463 7281" /> 
<path d="M7463 7281 L7452 7281" /> 
<path d="M7452 7281 L7446 7278" /> 
<g style = "stroke-linecap:round;" > 
<path d="M7446 7278 L7446 7278" /> 
</g><path d="M7509 7281 L7503 7278" /> 
<path d="M7503 7278 L7500 7273" /> 
<path d="M7500 7273 L7500 7221" /> 
<g style = "stroke-linecap:round;" > 
<path d="M7500 7221 L7500 7221" /> 
</g><path d="M7554 7278 L7548 7281" /> 
<path d="M7548 7281 L7537 7281" /> 
<path d="M7537 7281 L7531 7278" /> 
<path d="M7531 7278 L7528 7273" /> 
<path d="M7528 7273 L7528 7250" /> 
<path d="M7528 7250 L7531 7244" /> 
<path d="M7531 7244 L7537 7241" /> 
<path d="M7537 7241 L7548 7241" /> 
<path d="M7548 7241 L7554 7244" /> 
<path d="M7554 7244 L7557 7250" /> 
<path d="M7557 7250 L7557 7256" /> 
<path d="M7557 7256 L7528 7261" /> 
<g style = "stroke-linecap:round;" > 
<path d="M7528 7261 L7528 7261" /> 
</g><path d="M7582 7258 L7628 7258" /> 
<g style = "stroke-linecap:round;" > 
<path d="M7628 7258 L7628 7258" /> 
</g><path d="M7656 7241 L7656 7301" /> 
<g style = "stroke-linecap:round;" > 
<path d="M7656 7301 L7656 7301" /> 
</g><path d="M7656 7244 L7662 7241" /> 
<path d="M7662 7241 L7673 7241" /> 
<path d="M7673 7241 L7679 7244" /> 
<path d="M7679 7244 L7682 7247" /> 
<path d="M7682 7247 L7685 7253" /> 
<path d="M7685 7253 L7685 7270" /> 
<path d="M7685 7270 L7682 7276" /> 
<path d="M7682 7276 L7679 7278" /> 
<path d="M7679 7278 L7673 7281" /> 
<path d="M7673 7281 L7662 7281" /> 
<path d="M7662 7281 L7656 7278" /> 
<g style = "stroke-linecap:round;" > 
<path d="M7656 7278 L7656 7278" /> 
</g><path d="M7719 7281 L7713 7278" /> 
<path d="M7713 7278 L7710 7276" /> 
<path d="M7710 7276 L7707 7270" /> 
<path d="M7707 7270 L7707 7253" /> 
<path d="M7707 7253 L7710 7247" /> 
<path d="M7710 7247 L7713 7244" /> 
<path d="M7713 7244 L7719 7241" /> 
<path d="M7719 7241 L7727 7241" /> 
<path d="M7727 7241 L7733 7244" /> 
<path d="M7733 7244 L7736 7247" /> 
<path d="M7736 7247 L7739 7253" /> 
<path d="M7739 7253 L7739 7270" /> 
<path d="M7739 7270 L7736 7276" /> 
<path d="M7736 7276 L7733 7278" /> 
<path d="M7733 7278 L7727 7281" /> 
<path d="M7727 7281 L7719 7281" /> 
<path d="M7759 7241 L7770 7281" /> 
<path d="M7770 7281 L7781 7253" /> 
<path d="M7781 7253 L7793 7281" /> 
<path d="M7793 7281 L7804 7241" /> 
<g style = "stroke-linecap:round;" > 
<path d="M7804 7241 L7804 7241" /> 
</g><path d="M7850 7278 L7844 7281" /> 
<path d="M7844 7281 L7833 7281" /> 
<path d="M7833 7281 L7827 7278" /> 
<path d="M7827 7278 L7824 7273" /> 
<path d="M7824 7273 L7824 7250" /> 
<path d="M7824 7250 L7827 7244" /> 
<path d="M7827 7244 L7833 7241" /> 
<path d="M7833 7241 L7844 7241" /> 
<path d="M7844 7241 L7850 7244" /> 
<path d="M7850 7244 L7853 7250" /> 
<path d="M7853 7250 L7853 7256" /> 
<path d="M7853 7256 L7824 7261" /> 
<g style = "stroke-linecap:round;" > 
<path d="M7824 7261 L7824 7261" /> 
</g><path d="M7878 7281 L7878 7241" /> 
<g style = "stroke-linecap:round;" > 
<path d="M7878 7241 L7878 7241" /> 
</g><path d="M7878 7253 L7881 7247" /> 
<path d="M7881 7247 L7884 7244" /> 
<path d="M7884 7244 L7890 7241" /> 
<path d="M7890 7241 L7895 7241" /> 
<g style = "stroke-linecap:round;" > 
<path d="M7895 7241 L7895 7241" /> 
</g><path d="M7915 7276 L7918 7278" /> 
<path d="M7918 7278 L7915 7281" /> 
<path d="M7915 7281 L7912 7278" /> 
<path d="M7912 7278 L7915 7276" /> 
<path d="M7915 7276 L7915 7281" /> 
<g style = "stroke-linecap:round;" > 
<path d="M7915 7281 L7915 7281" /> 
</g><path d="M7941 7278 L7947 7281" /> 
<path d="M7947 7281 L7959 7281" /> 
<path d="M7959 7281 L7964 7278" /> 
<path d="M7964 7278 L7967 7273" /> 
<path d="M7967 7273 L7967 7270" /> 
<path d="M7967 7270 L7964 7264" /> 
<path d="M7964 7264 L7959 7261" /> 
<path d="M7959 7261 L7950 7261" /> 
<path d="M7950 7261 L7944 7258" /> 
<path d="M7944 7258 L7941 7253" /> 
<path d="M7941 7253 L7941 7250" /> 
<path d="M7941 7250 L7944 7244" /> 
<path d="M7944 7244 L7950 7241" /> 
<path d="M7950 7241 L7959 7241" /> 
<path d="M7959 7241 L7964 7244" /> 
<g style = "stroke-linecap:round;" > 
<path d="M7964 7244 L7964 7244" /> 
</g><path d="M8019 7278 L8013 7281" /> 
<path d="M8013 7281 L8002 7281" /> 
<path d="M8002 7281 L7996 7278" /> 
<path d="M7996 7278 L7993 7276" /> 
<path d="M7993 7276 L7990 7270" /> 
<path d="M7990 7270 L7990 7253" /> 
<path d="M7990 7253 L7993 7247" /> 
<path d="M7993 7247 L7996 7244" /> 
<path d="M7996 7244 L8002 7241" /> 
<path d="M8002 7241 L8013 7241" /> 
<path d="M8013 7241 L8019 7244" /> 
<g style = "stroke-linecap:round;" > 
<path d="M8019 7244 L8019 7244" /> 
</g><path d="M8044 7281 L8044 7221" /> 
<g style = "stroke-linecap:round;" > 
<path d="M8044 7221 L8044 7221" /> 
</g><path d="M8070 7281 L8070 7250" /> 
<path d="M8070 7250 L8067 7244" /> 
<path d="M8067 7244 L8061 7241" /> 
<path d="M8061 7241 L8053 7241" /> 
<path d="M8053 7241 L8047 7244" /> 
<path d="M8047 7244 L8044 7247" /> 
<g style = "stroke-linecap:round;" > 
<path d="M8044 7247 L8044 7247" /> 
</g><path d="M7101 7398 L7110 7401" /> 
<path d="M7110 7401 L7124 7401" /> 
<path d="M7124 7401 L7130 7398" /> 
<path d="M7130 7398 L7133 7396" /> 
<path d="M7133 7396 L7136 7390" /> 
<path d="M7136 7390 L7136 7384" /> 
<path d="M7136 7384 L7133 7378" /> 
<path d="M7133 7378 L7130 7376" /> 
<path d="M7130 7376 L7124 7373" /> 
<path d="M7124 7373 L7113 7370" /> 
<path d="M7113 7370 L7107 7367" /> 
<path d="M7107 7367 L7104 7364" /> 
<path d="M7104 7364 L7101 7358" /> 
<path d="M7101 7358 L7101 7353" /> 
<path d="M7101 7353 L7104 7347" /> 
<path d="M7104 7347 L7107 7344" /> 
<path d="M7107 7344 L7113 7341" /> 
<path d="M7113 7341 L7127 7341" /> 
<path d="M7127 7341 L7136 7344" /> 
<g style = "stroke-linecap:round;" > 
<path d="M7136 7344 L7136 7344" /> 
</g><path d="M7161 7401 L7161 7341" /> 
<g style = "stroke-linecap:round;" > 
<path d="M7161 7341 L7161 7341" /> 
</g><path d="M7187 7401 L7187 7370" /> 
<path d="M7187 7370 L7184 7364" /> 
<path d="M7184 7364 L7178 7361" /> 
<path d="M7178 7361 L7170 7361" /> 
<path d="M7170 7361 L7164 7364" /> 
<path d="M7164 7364 L7161 7367" /> 
<g style = "stroke-linecap:round;" > 
<path d="M7161 7367 L7161 7367" /> 
</g><path d="M7238 7398 L7232 7401" /> 
<path d="M7232 7401 L7221 7401" /> 
<path d="M7221 7401 L7215 7398" /> 
<path d="M7215 7398 L7212 7393" /> 
<path d="M7212 7393 L7212 7370" /> 
<path d="M7212 7370 L7215 7364" /> 
<path d="M7215 7364 L7221 7361" /> 
<path d="M7221 7361 L7232 7361" /> 
<path d="M7232 7361 L7238 7364" /> 
<path d="M7238 7364 L7241 7370" /> 
<path d="M7241 7370 L7241 7376" /> 
<path d="M7241 7376 L7212 7381" /> 
<g style = "stroke-linecap:round;" > 
<path d="M7212 7381 L7212 7381" /> 
</g><path d="M7289 7398 L7283 7401" /> 
<path d="M7283 7401 L7272 7401" /> 
<path d="M7272 7401 L7266 7398" /> 
<path d="M7266 7398 L7263 7393" /> 
<path d="M7263 7393 L7263 7370" /> 
<path d="M7263 7370 L7266 7364" /> 
<path d="M7266 7364 L7272 7361" /> 
<path d="M7272 7361 L7283 7361" /> 
<path d="M7283 7361 L7289 7364" /> 
<path d="M7289 7364 L7292 7370" /> 
<path d="M7292 7370 L7292 7376" /> 
<path d="M7292 7376 L7263 7381" /> 
<g style = "stroke-linecap:round;" > 
<path d="M7263 7381 L7263 7381" /> 
</g><path d="M7309 7361 L7332 7361" /> 
<g style = "stroke-linecap:round;" > 
<path d="M7332 7361 L7332 7361" /> 
</g><path d="M7317 7341 L7317 7393" /> 
<path d="M7317 7393 L7320 7398" /> 
<path d="M7320 7398 L7326 7401" /> 
<path d="M7326 7401 L7332 7401" /> 
<g style = "stroke-linecap:round;" > 
<path d="M7332 7401 L7332 7401" /> 
</g><path d="M7351 7396 L7354 7398" /> 
<path d="M7354 7398 L7351 7401" /> 
<path d="M7351 7401 L7348 7398" /> 
<path d="M7348 7398 L7351 7396" /> 
<path d="M7351 7396 L7351 7401" /> 
<g style = "stroke-linecap:round;" > 
<path d="M7351 7401 L7351 7401" /> 
</g><path d="M7351 7364 L7354 7367" /> 
<path d="M7354 7367 L7351 7370" /> 
<path d="M7351 7370 L7348 7367" /> 
<path d="M7348 7367 L7351 7364" /> 
<path d="M7351 7364 L7351 7370" /> 
<g style = "stroke-linecap:round;" > 
<path d="M7351 7370 L7351 7370" /> 
</g><path d="M7469 7338 L7418 7416" /> 
<g style = "stroke-linecap:round;" > 
<path d="M7418 7416 L7418 7416" /> 
</g><path d="M7030 7197 L7030 7797" /> 
<path d="M7030 7197 L11230 7197" /> 
<path d="M7030 7197 L11230 7197" /> 
<path d="M7030 7437 L11230 7437" /> 
<path d="M10350 7557 L10350 7797" /> 
<path d="M7030 7677 L11230 7677" /> 
<path d="M7030 7557 L11230 7557" /> 
<path d="M7690 7557 L7690 7677" /> 
</g> 
</svg> 
