<?xml version="1.0" standalone="no"?>
<!DOCTYPE svg PUBLIC "-//W3C//DTD SVG 20010904//EN" 
"http://www.w3.org/TR/2001/REC-SVG-20010904/DTD/svg10.dtd"> 
<svg xmlns="http://www.w3.org/2000/svg" xmlns:xlink="http://www.w3.org/1999/xlink" 
    width="29.72cm" height="21.00cm" viewBox="0 0 117000 82670 "> 
<title>SVG Picture created as valve-power-Back.svg </title>
<desc>Picture generated by wxSVG v0100 </desc>
<g style="fill:black; stroke:black; stroke-width:1">
</g>
<g style="fill:#000000; fill-opacity:0.0; stroke:#000000; stroke-opacity:1.00; stroke-linecap:round; stroke-linejoin:round; stroke-width:150" 
   transform="translate(0.00 0.00) scale(1.00 1.00)">
<path d="M45500 50500 L71500 50500" /> 
<path d="M45500 23750 L45500 50500" /> 
<path d="M71500 23750 L45500 23750" /> 
<path d="M71500 50500 L71500 23750" /> 
</g>
<g style="fill:#000000; fill-opacity:1.00; stroke:#000000; stroke-opacity:1.00; stroke-linecap:round; stroke-linejoin:round; stroke-width:0" 
   transform="translate(0.00 0.00) scale(1.00 1.00)">
<ellipse cx="66900" cy="44800" rx="590" ry="590"  /> 
</g>
<g style="fill:#000000; fill-opacity:1.00; stroke:#000000; stroke-opacity:1.00; stroke-linecap:round; stroke-linejoin:round; stroke-width:394" 
   transform="translate(0.00 0.00) scale(1.00 1.00)">
<path d="M66100 44000 L66900 44800" /> 
<path d="M69400 48500 L69250 48500" /> 
</g>
<g style="fill:#000000; fill-opacity:1.00; stroke:#000000; stroke-opacity:1.00; stroke-linecap:round; stroke-linejoin:round; stroke-width:0" 
   transform="translate(0.00 0.00) scale(1.00 1.00)">
<ellipse cx="69400" cy="48500" rx="590" ry="590"  /> 
</g>
<g style="fill:#000000; fill-opacity:1.00; stroke:#000000; stroke-opacity:1.00; stroke-linecap:round; stroke-linejoin:round; stroke-width:394" 
   transform="translate(0.00 0.00) scale(1.00 1.00)">
<path d="M64050 44000 L64050 36800" /> 
<path d="M64050 36800 L60450 33200" /> 
<path d="M60250 44000 L64050 44000" /> 
<path d="M49200 30700 L49200 46450" /> 
</g>
<g style="fill:#000000; fill-opacity:1.00; stroke:#000000; stroke-opacity:1.00; stroke-linecap:round; stroke-linejoin:round; stroke-width:0" 
   transform="translate(0.00 0.00) scale(1.00 1.00)">
<ellipse cx="60250" cy="44000" rx="590" ry="590"  /> 
</g>
<g style="fill:#000000; fill-opacity:1.00; stroke:#000000; stroke-opacity:1.00; stroke-linecap:round; stroke-linejoin:round; stroke-width:394" 
   transform="translate(0.00 0.00) scale(1.00 1.00)">
<path d="M49750 30150 L49200 30700" /> 
<path d="M64050 44000 L66100 44000" /> 
<path d="M66700 49350 L66400 49650" /> 
</g>
<g style="fill:#000000; fill-opacity:1.00; stroke:#000000; stroke-opacity:1.00; stroke-linecap:round; stroke-linejoin:round; stroke-width:0" 
   transform="translate(0.00 0.00) scale(1.00 1.00)">
<ellipse cx="59400" cy="28550" rx="590" ry="590"  /> 
</g>
<g style="fill:#000000; fill-opacity:1.00; stroke:#000000; stroke-opacity:1.00; stroke-linecap:round; stroke-linejoin:round; stroke-width:394" 
   transform="translate(0.00 0.00) scale(1.00 1.00)">
<path d="M69250 48500 L68400 49350" /> 
<path d="M66400 49650 L65050 49650" /> 
<path d="M65050 49650 L63650 48250" /> 
<path d="M63650 48250 L51000 48250" /> 
<path d="M49750 30150 L51900 28000" /> 
<path d="M49200 46450 L51000 48250" /> 
<path d="M60450 33200 L60450 29600" /> 
<path d="M60450 29600 L59400 28550" /> 
<path d="M54000 25900 L58300 25900" /> 
<path d="M58300 25900 L59400 27000" /> 
<path d="M59400 27000 L59400 28550" /> 
<path d="M51900 28000 L54000 25900" /> 
</g>
<g style="fill:#000000; fill-opacity:1.00; stroke:#000000; stroke-opacity:1.00; stroke-linecap:round; stroke-linejoin:round; stroke-width:0" 
   transform="translate(0.00 0.00) scale(1.00 1.00)">
<ellipse cx="60450" cy="33200" rx="590" ry="590"  /> 
</g>
<g style="fill:#000000; fill-opacity:1.00; stroke:#000000; stroke-opacity:1.00; stroke-linecap:round; stroke-linejoin:round; stroke-width:394" 
   transform="translate(0.00 0.00) scale(1.00 1.00)">
<path d="M68400 49350 L66700 49350" /> 
<path d="M48825 29575 L51400 27000" /> 
<path d="M63550 48950 L50200 48950" /> 
<path d="M50200 48950 L48700 47450" /> 
</g>
<g style="fill:#000000; fill-opacity:1.00; stroke:#000000; stroke-opacity:1.00; stroke-linecap:round; stroke-linejoin:round; stroke-width:0" 
   transform="translate(0.00 0.00) scale(1.00 1.00)">
<ellipse cx="70700" cy="47250" rx="590" ry="590"  /> 
</g>
<g style="fill:#000000; fill-opacity:1.00; stroke:#000000; stroke-opacity:1.00; stroke-linecap:round; stroke-linejoin:round; stroke-width:394" 
   transform="translate(0.00 0.00) scale(1.00 1.00)">
<path d="M70750 47950 L70750 48400" /> 
<path d="M62750 28250 L62750 32600" /> 
<path d="M61500 27000 L62750 28250" /> 
<path d="M47800 30600 L47800 46550" /> 
<path d="M68350 50150 L64750 50150" /> 
<path d="M64750 50150 L63550 48950" /> 
<path d="M69750 49400 L69100 49400" /> 
<path d="M62750 32600 L68750 32600" /> 
<path d="M59900 25400 L61500 27000" /> 
</g>
<g style="fill:#000000; fill-opacity:1.00; stroke:#000000; stroke-opacity:1.00; stroke-linecap:round; stroke-linejoin:round; stroke-width:276" 
   transform="translate(0.00 0.00) scale(1.00 1.00)">
<path d="M70750 47300 L70700 47250" /> 
<path d="M70750 47950 L70750 47300" /> 
</g>
<g style="fill:#000000; fill-opacity:1.00; stroke:#000000; stroke-opacity:1.00; stroke-linecap:round; stroke-linejoin:round; stroke-width:394" 
   transform="translate(0.00 0.00) scale(1.00 1.00)">
<path d="M48825 29575 L47800 30600" /> 
</g>
<g style="fill:#000000; fill-opacity:1.00; stroke:#000000; stroke-opacity:1.00; stroke-linecap:round; stroke-linejoin:round; stroke-width:0" 
   transform="translate(0.00 0.00) scale(1.00 1.00)">
<ellipse cx="69650" cy="31700" rx="590" ry="590"  /> 
<ellipse cx="62750" cy="32600" rx="590" ry="590"  /> 
</g>
<g style="fill:#000000; fill-opacity:1.00; stroke:#000000; stroke-opacity:1.00; stroke-linecap:round; stroke-linejoin:round; stroke-width:394" 
   transform="translate(0.00 0.00) scale(1.00 1.00)">
<path d="M53000 25400 L59900 25400" /> 
<path d="M51400 27000 L53000 25400" /> 
<path d="M68750 32600 L69650 31700" /> 
</g>
<g style="fill:#000000; fill-opacity:1.00; stroke:#000000; stroke-opacity:1.00; stroke-linecap:round; stroke-linejoin:round; stroke-width:0" 
   transform="translate(0.00 0.00) scale(1.00 1.00)">
<ellipse cx="70750" cy="47950" rx="590" ry="590"  /> 
</g>
<g style="fill:#000000; fill-opacity:1.00; stroke:#000000; stroke-opacity:1.00; stroke-linecap:round; stroke-linejoin:round; stroke-width:394" 
   transform="translate(0.00 0.00) scale(1.00 1.00)">
<path d="M69100 49400 L68350 50150" /> 
<path d="M70750 48400 L69750 49400" /> 
<path d="M47800 46550 L48700 47450" /> 
<path d="M52250 29600 L56950 29600" /> 
<path d="M56950 29600 L58150 30800" /> 
<path d="M65800 48250 L65800 46350" /> 
</g>
<g style="fill:#000000; fill-opacity:1.00; stroke:#000000; stroke-opacity:1.00; stroke-linecap:round; stroke-linejoin:round; stroke-width:0" 
   transform="translate(0.00 0.00) scale(1.00 1.00)">
<ellipse cx="65800" cy="48250" rx="590" ry="590"  /> 
</g>
<g style="fill:#000000; fill-opacity:1.00; stroke:#000000; stroke-opacity:1.00; stroke-linecap:round; stroke-linejoin:round; stroke-width:394" 
   transform="translate(0.00 0.00) scale(1.00 1.00)">
<path d="M65550 46700 L64400 46700" /> 
</g>
<g style="fill:#000000; fill-opacity:1.00; stroke:#000000; stroke-opacity:1.00; stroke-linecap:round; stroke-linejoin:round; stroke-width:0" 
   transform="translate(0.00 0.00) scale(1.00 1.00)">
<ellipse cx="65800" cy="46350" rx="590" ry="590"  /> 
</g>
<g style="fill:#000000; fill-opacity:1.00; stroke:#000000; stroke-opacity:1.00; stroke-linecap:round; stroke-linejoin:round; stroke-width:197" 
   transform="translate(0.00 0.00) scale(1.00 1.00)">
<path d="M65550 46700 L65550 46600" /> 
<path d="M65550 46600 L65800 46350" /> 
</g>
<g style="fill:#000000; fill-opacity:1.00; stroke:#000000; stroke-opacity:1.00; stroke-linecap:round; stroke-linejoin:round; stroke-width:0" 
   transform="translate(0.00 0.00) scale(1.00 1.00)">
<ellipse cx="58150" cy="30800" rx="590" ry="590"  /> 
<ellipse cx="63900" cy="46200" rx="590" ry="590"  /> 
</g>
<g style="fill:#000000; fill-opacity:1.00; stroke:#000000; stroke-opacity:1.00; stroke-linecap:round; stroke-linejoin:round; stroke-width:394" 
   transform="translate(0.00 0.00) scale(1.00 1.00)">
<path d="M57750 43750 L57750 36900" /> 
</g>
<g style="fill:#000000; fill-opacity:1.00; stroke:#000000; stroke-opacity:1.00; stroke-linecap:round; stroke-linejoin:round; stroke-width:0" 
   transform="translate(0.00 0.00) scale(1.00 1.00)">
<ellipse cx="59150" cy="45500" rx="590" ry="590"  /> 
</g>
<g style="fill:#000000; fill-opacity:1.00; stroke:#000000; stroke-opacity:1.00; stroke-linecap:round; stroke-linejoin:round; stroke-width:394" 
   transform="translate(0.00 0.00) scale(1.00 1.00)">
<path d="M70350 46200 L70850 45700" /> 
<path d="M63900 46200 L59850 46200" /> 
<path d="M57750 36900 L57775 36875" /> 
</g>
<g style="fill:#000000; fill-opacity:1.00; stroke:#000000; stroke-opacity:1.00; stroke-linecap:round; stroke-linejoin:round; stroke-width:0" 
   transform="translate(0.00 0.00) scale(1.00 1.00)">
<ellipse cx="60150" cy="34500" rx="590" ry="590"  /> 
</g>
<g style="fill:#000000; fill-opacity:1.00; stroke:#000000; stroke-opacity:1.00; stroke-linecap:round; stroke-linejoin:round; stroke-width:394" 
   transform="translate(0.00 0.00) scale(1.00 1.00)">
<path d="M66700 46700 L65550 46700" /> 
<path d="M67200 46200 L70350 46200" /> 
</g>
<g style="fill:#000000; fill-opacity:1.00; stroke:#000000; stroke-opacity:1.00; stroke-linecap:round; stroke-linejoin:round; stroke-width:0" 
   transform="translate(0.00 0.00) scale(1.00 1.00)">
<ellipse cx="70850" cy="45700" rx="590" ry="590"  /> 
</g>
<g style="fill:#000000; fill-opacity:1.00; stroke:#000000; stroke-opacity:1.00; stroke-linecap:round; stroke-linejoin:round; stroke-width:394" 
   transform="translate(0.00 0.00) scale(1.00 1.00)">
<path d="M69500 26250 L65400 26250" /> 
<path d="M57025 27100 L54525 29600" /> 
</g>
<g style="fill:#000000; fill-opacity:1.00; stroke:#000000; stroke-opacity:1.00; stroke-linecap:round; stroke-linejoin:round; stroke-width:0" 
   transform="translate(0.00 0.00) scale(1.00 1.00)">
<ellipse cx="57025" cy="27100" rx="590" ry="590"  /> 
</g>
<g style="fill:#000000; fill-opacity:1.00; stroke:#000000; stroke-opacity:1.00; stroke-linecap:round; stroke-linejoin:round; stroke-width:394" 
   transform="translate(0.00 0.00) scale(1.00 1.00)">
<path d="M54525 29600 L52250 29600" /> 
</g>
<g style="fill:#000000; fill-opacity:1.00; stroke:#000000; stroke-opacity:1.00; stroke-linecap:round; stroke-linejoin:round; stroke-width:0" 
   transform="translate(0.00 0.00) scale(1.00 1.00)">
<ellipse cx="52250" cy="29600" rx="590" ry="590"  /> 
</g>
<g style="fill:#000000; fill-opacity:1.00; stroke:#000000; stroke-opacity:1.00; stroke-linecap:round; stroke-linejoin:round; stroke-width:394" 
   transform="translate(0.00 0.00) scale(1.00 1.00)">
<path d="M59150 45500 L59150 45150" /> 
<path d="M57775 36725 L53600 32550" /> 
<path d="M57775 36875 L57775 36725" /> 
<path d="M53600 30700 L52500 29600" /> 
<path d="M52500 29600 L52250 29600" /> 
<path d="M53600 32550 L53600 30700" /> 
<path d="M66700 46700 L67200 46200" /> 
<path d="M70850 27600 L69500 26250" /> 
<path d="M59150 45150 L57750 43750" /> 
<path d="M57775 36875 L60150 34500" /> 
</g>
<g style="fill:#000000; fill-opacity:1.00; stroke:#000000; stroke-opacity:1.00; stroke-linecap:round; stroke-linejoin:round; stroke-width:0" 
   transform="translate(0.00 0.00) scale(1.00 1.00)">
<ellipse cx="65400" cy="26250" rx="590" ry="590"  /> 
</g>
<g style="fill:#000000; fill-opacity:1.00; stroke:#000000; stroke-opacity:1.00; stroke-linecap:round; stroke-linejoin:round; stroke-width:394" 
   transform="translate(0.00 0.00) scale(1.00 1.00)">
<path d="M59850 46200 L59150 45500" /> 
<path d="M70850 45700 L70850 27600" /> 
<path d="M64400 46700 L63900 46200" /> 
<path d="M66200 49150 L65400 49150" /> 
</g>
<g style="fill:#000000; fill-opacity:1.00; stroke:#000000; stroke-opacity:1.00; stroke-linecap:round; stroke-linejoin:round; stroke-width:197" 
   transform="translate(0.00 0.00) scale(1.00 1.00)">
<path d="M55100 44425 L55025 44350" /> 
</g>
<g style="fill:#000000; fill-opacity:1.00; stroke:#000000; stroke-opacity:1.00; stroke-linecap:round; stroke-linejoin:round; stroke-width:0" 
   transform="translate(0.00 0.00) scale(1.00 1.00)">
<ellipse cx="55100" cy="44425" rx="590" ry="590"  /> 
</g>
<g style="fill:#000000; fill-opacity:1.00; stroke:#000000; stroke-opacity:1.00; stroke-linecap:round; stroke-linejoin:round; stroke-width:197" 
   transform="translate(0.00 0.00) scale(1.00 1.00)">
<path d="M55025 44350 L54800 44350" /> 
</g>
<g style="fill:#000000; fill-opacity:1.00; stroke:#000000; stroke-opacity:1.00; stroke-linecap:round; stroke-linejoin:round; stroke-width:394" 
   transform="translate(0.00 0.00) scale(1.00 1.00)">
<path d="M53900 43450 L53900 36200" /> 
</g>
<g style="fill:#000000; fill-opacity:1.00; stroke:#000000; stroke-opacity:1.00; stroke-linecap:round; stroke-linejoin:round; stroke-width:0" 
   transform="translate(0.00 0.00) scale(1.00 1.00)">
<ellipse cx="53900" cy="36200" rx="590" ry="590"  /> 
</g>
<g style="fill:#000000; fill-opacity:1.00; stroke:#000000; stroke-opacity:1.00; stroke-linecap:round; stroke-linejoin:round; stroke-width:394" 
   transform="translate(0.00 0.00) scale(1.00 1.00)">
<path d="M66900 48450 L66200 49150" /> 
<path d="M54950 44500 L54800 44350" /> 
<path d="M54950 47050 L55100 47200" /> 
<path d="M54950 44750 L54950 44500" /> 
<path d="M54950 44750 L54950 47050" /> 
<path d="M53900 36200 L53900 34250" /> 
<path d="M53900 34250 L51000 31350" /> 
</g>
<g style="fill:#000000; fill-opacity:1.00; stroke:#000000; stroke-opacity:1.00; stroke-linecap:round; stroke-linejoin:round; stroke-width:0" 
   transform="translate(0.00 0.00) scale(1.00 1.00)">
<ellipse cx="51000" cy="31350" rx="590" ry="590"  /> 
<ellipse cx="51600" cy="47200" rx="590" ry="590"  /> 
</g>
<g style="fill:#000000; fill-opacity:1.00; stroke:#000000; stroke-opacity:1.00; stroke-linecap:round; stroke-linejoin:round; stroke-width:394" 
   transform="translate(0.00 0.00) scale(1.00 1.00)">
<path d="M68050 48450 L66900 48450" /> 
<path d="M54800 44350 L53900 43450" /> 
<path d="M65400 49150 L63450 47200" /> 
<path d="M63450 47200 L55100 47200" /> 
</g>
<g style="fill:#000000; fill-opacity:1.00; stroke:#000000; stroke-opacity:1.00; stroke-linecap:round; stroke-linejoin:round; stroke-width:0" 
   transform="translate(0.00 0.00) scale(1.00 1.00)">
<ellipse cx="68050" cy="48450" rx="590" ry="590"  /> 
</g>
<g style="fill:#000000; fill-opacity:1.00; stroke:#000000; stroke-opacity:1.00; stroke-linecap:round; stroke-linejoin:round; stroke-width:394" 
   transform="translate(0.00 0.00) scale(1.00 1.00)">
<path d="M55100 47200 L51600 47200" /> 
</g>
<g style="fill:#000000; fill-opacity:1.00; stroke:#000000; stroke-opacity:1.00; stroke-linecap:round; stroke-linejoin:round; stroke-width:100" 
   transform="translate(0.00 0.00) scale(1.00 1.00)">
<path d="M71175 46538 L71175 46538" /> 
<path d="M70868 46410 L71175 46538" /> 
<path d="M70534 46410 L70868 46410" /> 
<path d="M70225 46537 L70534 46410" /> 
<path d="M69989 46773 L70225 46537" /> 
<path d="M69860 47082 L69989 46773" /> 
<path d="M69860 47416 L69860 47082" /> 
<path d="M69960 47660 L69860 47416" /> 
<path d="M69910 47782 L69960 47660" /> 
<path d="M69910 47822 L69910 47782" /> 
<path d="M69877 47789 L69910 47822" /> 
<path d="M69568 47660 L69877 47789" /> 
<path d="M69234 47660 L69568 47660" /> 
<path d="M68925 47787 L69234 47660" /> 
<path d="M68750 47962 L68925 47787" /> 
<path d="M68527 47739 L68750 47962" /> 
<path d="M68218 47610 L68527 47739" /> 
<path d="M67884 47610 L68218 47610" /> 
<path d="M67575 47737 L67884 47610" /> 
<path d="M67339 47973 L67575 47737" /> 
<path d="M67326 48003 L67339 47973" /> 
<path d="M66900 48003 L67326 48003" /> 
<path d="M66729 48037 L66900 48003" /> 
<path d="M66584 48134 L66729 48037" /> 
<path d="M66583 48134 L66584 48134" /> 
<path d="M66583 48135 L66583 48134" /> 
<path d="M66015 48703 L66583 48135" /> 
<path d="M65585 48703 L66015 48703" /> 
<path d="M63766 46884 L65585 48703" /> 
<path d="M63621 46787 L63766 46884" /> 
<path d="M63450 46753 L63621 46787" /> 
<path d="M55397 46753 L63450 46753" /> 
<path d="M55397 45211 L55397 46753" /> 
<path d="M55575 45138 L55397 45211" /> 
<path d="M55811 44902 L55575 45138" /> 
<path d="M55940 44593 L55811 44902" /> 
<path d="M55940 44259 L55940 44593" /> 
<path d="M55813 43950 L55940 44259" /> 
<path d="M55577 43714 L55813 43950" /> 
<path d="M55268 43585 L55577 43714" /> 
<path d="M54934 43585 L55268 43585" /> 
<path d="M54745 43662 L54934 43585" /> 
<path d="M54347 43264 L54745 43662" /> 
<path d="M54347 36924 L54347 43264" /> 
<path d="M54375 36913 L54347 36924" /> 
<path d="M54611 36677 L54375 36913" /> 
<path d="M54740 36368 L54611 36677" /> 
<path d="M54740 36034 L54740 36368" /> 
<path d="M54613 35725 L54740 36034" /> 
<path d="M54377 35489 L54613 35725" /> 
<path d="M54347 35476 L54377 35489" /> 
<path d="M54347 34250 L54347 35476" /> 
<path d="M54313 34079 L54347 34250" /> 
<path d="M54216 33934 L54313 34079" /> 
<path d="M51828 31546 L54216 33934" /> 
<path d="M51840 31518 L51828 31546" /> 
<path d="M51840 31184 L51840 31518" /> 
<path d="M51713 30875 L51840 31184" /> 
<path d="M51477 30639 L51713 30875" /> 
<path d="M51168 30510 L51477 30639" /> 
<path d="M50834 30510 L51168 30510" /> 
<path d="M50525 30637 L50834 30510" /> 
<path d="M50289 30873 L50525 30637" /> 
<path d="M50160 31182 L50289 30873" /> 
<path d="M50160 31516 L50160 31182" /> 
<path d="M50287 31825 L50160 31516" /> 
<path d="M50523 32061 L50287 31825" /> 
<path d="M50832 32190 L50523 32061" /> 
<path d="M51166 32190 L50832 32190" /> 
<path d="M51195 32177 L51166 32190" /> 
<path d="M53453 34435 L51195 32177" /> 
<path d="M53453 35475 L53453 34435" /> 
<path d="M53425 35487 L53453 35475" /> 
<path d="M53189 35723 L53425 35487" /> 
<path d="M53060 36032 L53189 35723" /> 
<path d="M53060 36366 L53060 36032" /> 
<path d="M53187 36675 L53060 36366" /> 
<path d="M53423 36911 L53187 36675" /> 
<path d="M53453 36923 L53423 36911" /> 
<path d="M53453 43450 L53453 36923" /> 
<path d="M53487 43621 L53453 43450" /> 
<path d="M53584 43766 L53487 43621" /> 
<path d="M54260 44442 L53584 43766" /> 
<path d="M54260 44591 L54260 44442" /> 
<path d="M54387 44900 L54260 44591" /> 
<path d="M54503 45016 L54387 44900" /> 
<path d="M54503 46753 L54503 45016" /> 
<path d="M52324 46753 L54503 46753" /> 
<path d="M52313 46725 L52324 46753" /> 
<path d="M52077 46489 L52313 46725" /> 
<path d="M51768 46360 L52077 46489" /> 
<path d="M51434 46360 L51768 46360" /> 
<path d="M51125 46487 L51434 46360" /> 
<path d="M50889 46723 L51125 46487" /> 
<path d="M50760 47032 L50889 46723" /> 
<path d="M50760 47366 L50760 47032" /> 
<path d="M50768 47386 L50760 47366" /> 
<path d="M49647 46265 L50768 47386" /> 
<path d="M49647 30885 L49647 46265" /> 
<path d="M50065 30467 L49647 30885" /> 
<path d="M50065 30466 L50065 30467" /> 
<path d="M50066 30466 L50065 30466" /> 
<path d="M52216 28316 L50066 30466" /> 
<path d="M54185 26347 L52216 28316" /> 
<path d="M58114 26347 L54185 26347" /> 
<path d="M58953 27185 L58114 26347" /> 
<path d="M58953 27825 L58953 27185" /> 
<path d="M58925 27837 L58953 27825" /> 
<path d="M58689 28073 L58925 27837" /> 
<path d="M58560 28382 L58689 28073" /> 
<path d="M58560 28716 L58560 28382" /> 
<path d="M58687 29025 L58560 28716" /> 
<path d="M58923 29261 L58687 29025" /> 
<path d="M59232 29390 L58923 29261" /> 
<path d="M59566 29390 L59232 29390" /> 
<path d="M59595 29377 L59566 29390" /> 
<path d="M60003 29785 L59595 29377" /> 
<path d="M60003 32475 L60003 29785" /> 
<path d="M59975 32487 L60003 32475" /> 
<path d="M59739 32723 L59975 32487" /> 
<path d="M59610 33032 L59739 32723" /> 
<path d="M59610 33366 L59610 33032" /> 
<path d="M59737 33675 L59610 33366" /> 
<path d="M59973 33911 L59737 33675" /> 
<path d="M60282 34040 L59973 33911" /> 
<path d="M60616 34040 L60282 34040" /> 
<path d="M60645 34027 L60616 34040" /> 
<path d="M63603 36985 L60645 34027" /> 
<path d="M63603 43553 L63603 36985" /> 
<path d="M60974 43553 L63603 43553" /> 
<path d="M60963 43525 L60974 43553" /> 
<path d="M60727 43289 L60963 43525" /> 
<path d="M60418 43160 L60727 43289" /> 
<path d="M60084 43160 L60418 43160" /> 
<path d="M59775 43287 L60084 43160" /> 
<path d="M59539 43523 L59775 43287" /> 
<path d="M59410 43832 L59539 43523" /> 
<path d="M59410 44166 L59410 43832" /> 
<path d="M59537 44475 L59410 44166" /> 
<path d="M59773 44711 L59537 44475" /> 
<path d="M60082 44840 L59773 44711" /> 
<path d="M60416 44840 L60082 44840" /> 
<path d="M60725 44713 L60416 44840" /> 
<path d="M60961 44477 L60725 44713" /> 
<path d="M60973 44447 L60961 44477" /> 
<path d="M64050 44447 L60973 44447" /> 
<path d="M65915 44447 L64050 44447" /> 
<path d="M66071 44603 L65915 44447" /> 
<path d="M66060 44632 L66071 44603" /> 
<path d="M66060 44966 L66060 44632" /> 
<path d="M66187 45275 L66060 44966" /> 
<path d="M66423 45511 L66187 45275" /> 
<path d="M66732 45640 L66423 45511" /> 
<path d="M67066 45640 L66732 45640" /> 
<path d="M67375 45513 L67066 45640" /> 
<path d="M67611 45277 L67375 45513" /> 
<path d="M67740 44968 L67611 45277" /> 
<path d="M67740 44634 L67740 44968" /> 
<path d="M67613 44325 L67740 44634" /> 
<path d="M67377 44089 L67613 44325" /> 
<path d="M67068 43960 L67377 44089" /> 
<path d="M66734 43960 L67068 43960" /> 
<path d="M66704 43972 L66734 43960" /> 
<path d="M66416 43684 L66704 43972" /> 
<path d="M66271 43587 L66416 43684" /> 
<path d="M66100 43553 L66271 43587" /> 
<path d="M64497 43553 L66100 43553" /> 
<path d="M64497 36800 L64497 43553" /> 
<path d="M64463 36629 L64497 36800" /> 
<path d="M64366 36484 L64463 36629" /> 
<path d="M61278 33396 L64366 36484" /> 
<path d="M61290 33368 L61278 33396" /> 
<path d="M61290 33034 L61290 33368" /> 
<path d="M61163 32725 L61290 33034" /> 
<path d="M60927 32489 L61163 32725" /> 
<path d="M60897 32476 L60927 32489" /> 
<path d="M60897 29600 L60897 32476" /> 
<path d="M60896 29599 L60897 29600" /> 
<path d="M60863 29429 L60896 29599" /> 
<path d="M60862 29428 L60863 29429" /> 
<path d="M60766 29284 L60862 29428" /> 
<path d="M60765 29283 L60766 29284" /> 
<path d="M60228 28746 L60765 29283" /> 
<path d="M60240 28718 L60228 28746" /> 
<path d="M60240 28384 L60240 28718" /> 
<path d="M60113 28075 L60240 28384" /> 
<path d="M59877 27839 L60113 28075" /> 
<path d="M59847 27826 L59877 27839" /> 
<path d="M59847 27000 L59847 27826" /> 
<path d="M59818 26856 L59847 27000" /> 
<path d="M59813 26829 L59818 26856" /> 
<path d="M59813 26828 L59813 26829" /> 
<path d="M59716 26684 L59813 26828" /> 
<path d="M59716 26683 L59716 26684" /> 
<path d="M58879 25847 L59716 26683" /> 
<path d="M59714 25847 L58879 25847" /> 
<path d="M61183 27316 L59714 25847" /> 
<path d="M61184 27316 L61183 27316" /> 
<path d="M61185 27317 L61184 27316" /> 
<path d="M62303 28435 L61185 27317" /> 
<path d="M62303 31875 L62303 28435" /> 
<path d="M62275 31887 L62303 31875" /> 
<path d="M62039 32123 L62275 31887" /> 
<path d="M61910 32432 L62039 32123" /> 
<path d="M61910 32766 L61910 32432" /> 
<path d="M62037 33075 L61910 32766" /> 
<path d="M62273 33311 L62037 33075" /> 
<path d="M62582 33440 L62273 33311" /> 
<path d="M62916 33440 L62582 33440" /> 
<path d="M63225 33313 L62916 33440" /> 
<path d="M63461 33077 L63225 33313" /> 
<path d="M63473 33047 L63461 33077" /> 
<path d="M68750 33047 L63473 33047" /> 
<path d="M68921 33013 L68750 33047" /> 
<path d="M69066 32916 L68921 33013" /> 
<path d="M69454 32528 L69066 32916" /> 
<path d="M69482 32540 L69454 32528" /> 
<path d="M69816 32540 L69482 32540" /> 
<path d="M70125 32413 L69816 32540" /> 
<path d="M70361 32177 L70125 32413" /> 
<path d="M70490 31868 L70361 32177" /> 
<path d="M70490 31534 L70490 31868" /> 
<path d="M70363 31225 L70490 31534" /> 
<path d="M70127 30989 L70363 31225" /> 
<path d="M69818 30860 L70127 30989" /> 
<path d="M69484 30860 L69818 30860" /> 
<path d="M69175 30987 L69484 30860" /> 
<path d="M68939 31223 L69175 30987" /> 
<path d="M68810 31532 L68939 31223" /> 
<path d="M68810 31866 L68810 31532" /> 
<path d="M68822 31895 L68810 31866" /> 
<path d="M68564 32153 L68822 31895" /> 
<path d="M63474 32153 L68564 32153" /> 
<path d="M63463 32125 L63474 32153" /> 
<path d="M63227 31889 L63463 32125" /> 
<path d="M63197 31876 L63227 31889" /> 
<path d="M63197 28250 L63197 31876" /> 
<path d="M63196 28249 L63197 28250" /> 
<path d="M63163 28079 L63196 28249" /> 
<path d="M63162 28078 L63163 28079" /> 
<path d="M63130 28030 L63162 28078" /> 
<path d="M63066 27934 L63130 28030" /> 
<path d="M63066 27933 L63066 27934" /> 
<path d="M61817 26685 L63066 27933" /> 
<path d="M61816 26684 L61817 26685" /> 
<path d="M61816 26683 L61816 26684" /> 
<path d="M60216 25084 L61816 26683" /> 
<path d="M60071 24987 L60216 25084" /> 
<path d="M59900 24953 L60071 24987" /> 
<path d="M53000 24953 L59900 24953" /> 
<path d="M52829 24987 L53000 24953" /> 
<path d="M52780 25019 L52829 24987" /> 
<path d="M52683 25084 L52780 25019" /> 
<path d="M51086 26681 L52683 25084" /> 
<path d="M51083 26684 L51086 26681" /> 
<path d="M48509 29259 L51083 26684" /> 
<path d="M47484 30284 L48509 29259" /> 
<path d="M47387 30429 L47484 30284" /> 
<path d="M47353 30600 L47387 30429" /> 
<path d="M47353 46550 L47353 30600" /> 
<path d="M47387 46721 L47353 46550" /> 
<path d="M47484 46866 L47387 46721" /> 
<path d="M48383 47766 L47484 46866" /> 
<path d="M48384 47766 L48383 47766" /> 
<path d="M48385 47767 L48384 47766" /> 
<path d="M49884 49266 L48385 47767" /> 
<path d="M50029 49363 L49884 49266" /> 
<path d="M50200 49397 L50029 49363" /> 
<path d="M63365 49397 L50200 49397" /> 
<path d="M64143 50175 L63365 49397" /> 
<path d="M45825 50175 L64143 50175" /> 
<path d="M45825 24075 L45825 50175" /> 
<path d="M71175 24075 L45825 24075" /> 
<path d="M71175 46538 L71175 24075" /> 
</g>
<g style="fill:#000000; fill-opacity:1.00; stroke:#000000; stroke-opacity:1.00; stroke-linecap:round; stroke-linejoin:round; stroke-width:0" 
   transform="translate(0.00 0.00) scale(1.00 1.00)">
<polygon style="fill-rule:evenodd; " 
points="69989,46773
69860,47082
69860,47416
69960,47660
69910,47782
69910,47822
69877,47789
69568,47660
69234,47660
68925,47787
68750,47962
68527,47739
68218,47610
67884,47610
67575,47737
67339,47973
67326,48003
66900,48003
66729,48037
66584,48134
66583,48134
66583,48135
66015,48703
65585,48703
63766,46884
63621,46787
63450,46753
55397,46753
55397,45211
55575,45138
55811,44902
55940,44593
55940,44259
55813,43950
55577,43714
55268,43585
54934,43585
54745,43662
54347,43264
54347,36924
54375,36913
54611,36677
54740,36368
54740,36034
54613,35725
54377,35489
54347,35476
54347,34250
54313,34079
54216,33934
51828,31546
51840,31518
51840,31184
51713,30875
51477,30639
51168,30510
50834,30510
50525,30637
50289,30873
50160,31182
50160,31516
50287,31825
50523,32061
50832,32190
51166,32190
51195,32177
53453,34435
53453,35475
53425,35487
53189,35723
53060,36032
53060,36366
53187,36675
53423,36911
53453,36923
53453,43450
53487,43621
53584,43766
54260,44442
54260,44591
54387,44900
54503,45016
54503,46753
52324,46753
52313,46725
52077,46489
51768,46360
51434,46360
51125,46487
50889,46723
50760,47032
50760,47366
50768,47386
49647,46265
49647,30885
50065,30467
50065,30466
50066,30466
52216,28316
54185,26347
58114,26347
58953,27185
58953,27825
58925,27837
58689,28073
58560,28382
58560,28716
58687,29025
58923,29261
59232,29390
59566,29390
59595,29377
60003,29785
60003,32475
59975,32487
59739,32723
59610,33032
59610,33366
59737,33675
59973,33911
60282,34040
60616,34040
60645,34027
63603,36985
63603,43553
60974,43553
60963,43525
60727,43289
60418,43160
60084,43160
59775,43287
59539,43523
59410,43832
59410,44166
59537,44475
59773,44711
60082,44840
60416,44840
60725,44713
60961,44477
60973,44447
64050,44447
65915,44447
66071,44603
66060,44632
66060,44966
66187,45275
66423,45511
66732,45640
67066,45640
67375,45513
67611,45277
67740,44968
67740,44634
67613,44325
67377,44089
67068,43960
66734,43960
66704,43972
66416,43684
66271,43587
66100,43553
64497,43553
64497,36800
64463,36629
64366,36484
61278,33396
61290,33368
61290,33034
61163,32725
60927,32489
60897,32476
60897,29600
60896,29599
60863,29429
60862,29428
60766,29284
60765,29283
60228,28746
60240,28718
60240,28384
60113,28075
59877,27839
59847,27826
59847,27000
59818,26856
59813,26829
59813,26828
59716,26684
59716,26683
58879,25847
59714,25847
61183,27316
61184,27316
61185,27317
62303,28435
62303,31875
62275,31887
62039,32123
61910,32432
61910,32766
62037,33075
62273,33311
62582,33440
62916,33440
63225,33313
63461,33077
63473,33047
68750,33047
68921,33013
69066,32916
69454,32528
69482,32540
69816,32540
70125,32413
70361,32177
70490,31868
70490,31534
70363,31225
70127,30989
69818,30860
69484,30860
69175,30987
68939,31223
68810,31532
68810,31866
68822,31895
68564,32153
63474,32153
63463,32125
63227,31889
63197,31876
63197,28250
63196,28249
63163,28079
63162,28078
63130,28030
63066,27934
63066,27933
61817,26685
61816,26684
61816,26683
60216,25084
60071,24987
59900,24953
53000,24953
52829,24987
52780,25019
52683,25084
51086,26681
51083,26684
48509,29259
47484,30284
47387,30429
47353,30600
47353,46550
47387,46721
47484,46866
48383,47766
48384,47766
48385,47767
49884,49266
50029,49363
50200,49397
63365,49397
64143,50175
45825,50175
45825,24075
71175,24075
71175,46538
71175,46538
70868,46410
70534,46410
70225,46537
" /> 
</g>
<g style="fill:#FFFFFF; fill-opacity:1.00; stroke:#FFFFFF; stroke-opacity:1.00; stroke-linecap:round; stroke-linejoin:round; stroke-width:0" 
   transform="translate(0.00 0.00) scale(1.00 1.00)">
<ellipse cx="66900" cy="44800" rx="29" ry="29"  /> 
<ellipse cx="69400" cy="48500" rx="29" ry="29"  /> 
<ellipse cx="60250" cy="44000" rx="29" ry="29"  /> 
<ellipse cx="59400" cy="28550" rx="29" ry="29"  /> 
<ellipse cx="60450" cy="33200" rx="29" ry="29"  /> 
<ellipse cx="70700" cy="47250" rx="29" ry="29"  /> 
<ellipse cx="69650" cy="31700" rx="29" ry="29"  /> 
<ellipse cx="62750" cy="32600" rx="29" ry="29"  /> 
<ellipse cx="70750" cy="47950" rx="29" ry="29"  /> 
<ellipse cx="65800" cy="48250" rx="29" ry="29"  /> 
<ellipse cx="65800" cy="46350" rx="29" ry="29"  /> 
<ellipse cx="58150" cy="30800" rx="29" ry="29"  /> 
<ellipse cx="63900" cy="46200" rx="29" ry="29"  /> 
<ellipse cx="59150" cy="45500" rx="29" ry="29"  /> 
<ellipse cx="60150" cy="34500" rx="29" ry="29"  /> 
<ellipse cx="70850" cy="45700" rx="29" ry="29"  /> 
<ellipse cx="57025" cy="27100" rx="29" ry="29"  /> 
<ellipse cx="52250" cy="29600" rx="29" ry="29"  /> 
<ellipse cx="65400" cy="26250" rx="29" ry="29"  /> 
<ellipse cx="55100" cy="44425" rx="29" ry="29"  /> 
<ellipse cx="53900" cy="36200" rx="29" ry="29"  /> 
<ellipse cx="51000" cy="31350" rx="29" ry="29"  /> 
<ellipse cx="51600" cy="47200" rx="29" ry="29"  /> 
<ellipse cx="68050" cy="48450" rx="29" ry="29"  /> 
</g> 
</svg> 
