0
SECTION
2
HEADER
9
$ANGBASE
50
0.0
9
$ANGDIR
70
0
0
ENDSEC
0
SECTION
2
TABLES
0
TABLE
2
LTYPE
70
1
0
LTYPE
2
CONTINUOUS
70
0
3
Solid line
72
65
73
0
40
0.0
0
ENDTAB
0
TABLE
2
LAYER
70
24
0
LAYER
2
BLACK
70
0
62
1
6
CONTINUOUS
0
LAYER
2
BLUE
70
0
62
2
6
CONTINUOUS
0
LAYER
2
GREEN
70
0
62
3
6
CONTINUOUS
0
LAYER
2
CYAN
70
0
62
4
6
CONTINUOUS
0
LAYER
2
RED
70
0
62
5
6
CONTINUOUS
0
LAYER
2
MAGENTA
70
0
62
6
6
CONTINUOUS
0
LAYER
2
BROWN
70
0
62
7
6
CONTINUOUS
0
LAYER
2
GRAY
70
0
62
8
6
CONTINUOUS
0
LAYER
2
DARKGRAY
70
0
62
9
6
CONTINUOUS
0
LAYER
2
LIGHTBLUE
70
0
62
10
6
CONTINUOUS
0
LAYER
2
LIGHTGREEN
70
0
62
11
6
CONTINUOUS
0
LAYER
2
LIGHTCYAN
70
0
62
12
6
CONTINUOUS
0
LAYER
2
LIGHTRED
70
0
62
13
6
CONTINUOUS
0
LAYER
2
LIGHTMAGENTA
70
0
62
14
6
CONTINUOUS
0
LAYER
2
YELLOW
70
0
62
15
6
CONTINUOUS
0
LAYER
2
WHITE
70
0
62
16
6
CONTINUOUS
0
LAYER
2
DARKDARKGRAY
70
0
62
17
6
CONTINUOUS
0
LAYER
2
DARKBLUE
70
0
62
18
6
CONTINUOUS
0
LAYER
2
DARKGREEN
70
0
62
19
6
CONTINUOUS
0
LAYER
2
DARKCYAN
70
0
62
20
6
CONTINUOUS
0
LAYER
2
DARKRED
70
0
62
21
6
CONTINUOUS
0
LAYER
2
DARKMAGENTA
70
0
62
22
6
CONTINUOUS
0
LAYER
2
DARKBROWN
70
0
62
23
6
CONTINUOUS
0
LAYER
2
LIGHTYELLOW
70
0
62
24
6
CONTINUOUS
0
ENDTAB
0
ENDSEC
0
SECTION
2
ENTITIES
0
LINE
8
BLACK
10
56693.0
20
19603.0
11
69685.0
21
19603.0
0
LINE
8
BLACK
10
56693.0
20
19753.0
11
69685.0
21
19753.0
0
ARC
8
BLACK
10
69685.0
20
19678.0
40
75.0
50
270.0
51
450.0
0
ARC
8
BLACK
10
56693.0
20
19678.0
40
75.0
50
90.0
51
270.0
0
LINE
8
BLACK
10
73174.0
20
23274.0
11
69632.0
21
19732.0
0
LINE
8
BLACK
10
73280.0
20
23168.0
11
69738.0
21
19626.0
0
ARC
8
BLACK
10
69685.0
20
19679.0
40
75.0
50
135.0
51
315.0
0
ARC
8
BLACK
10
73227.0
20
23221.0
40
75.0
50
-45.0
51
135.0
0
LINE
8
BLACK
10
73303.0
20
23221.0
11
73303.0
21
26765.0
0
LINE
8
BLACK
10
73153.0
20
23221.0
11
73153.0
21
26765.0
0
ARC
8
BLACK
10
73228.0
20
26765.0
40
75.0
50
360.0
51
540.0
0
ARC
8
BLACK
10
73228.0
20
23221.0
40
75.0
50
180.0
51
360.0
0
LINE
8
BLACK
10
74355.0
20
27999.0
11
73175.0
21
26819.0
0
LINE
8
BLACK
10
74461.0
20
27893.0
11
73281.0
21
26713.0
0
ARC
8
BLACK
10
73228.0
20
26766.0
40
75.0
50
135.0
51
315.0
0
ARC
8
BLACK
10
74408.0
20
27946.0
40
75.0
50
-45.0
51
135.0
0
LINE
8
BLACK
10
74409.0
20
27871.0
11
74803.0
21
27871.0
0
LINE
8
BLACK
10
74409.0
20
28021.0
11
74803.0
21
28021.0
0
ARC
8
BLACK
10
74803.0
20
27946.0
40
75.0
50
270.0
51
450.0
0
ARC
8
BLACK
10
74409.0
20
27946.0
40
75.0
50
90.0
51
270.0
0
LINE
8
BLACK
10
74803.0
20
27871.0
11
75591.0
21
27871.0
0
LINE
8
BLACK
10
74803.0
20
28021.0
11
75591.0
21
28021.0
0
ARC
8
BLACK
10
75591.0
20
27946.0
40
75.0
50
270.0
51
450.0
0
ARC
8
BLACK
10
74803.0
20
27946.0
40
75.0
50
90.0
51
270.0
0
LINE
8
BLACK
10
78686.0
20
31148.0
11
75538.0
21
28000.0
0
LINE
8
BLACK
10
78792.0
20
31042.0
11
75644.0
21
27894.0
0
ARC
8
BLACK
10
75591.0
20
27947.0
40
75.0
50
135.0
51
315.0
0
ARC
8
BLACK
10
78739.0
20
31095.0
40
75.0
50
-45.0
51
135.0
0
LINE
8
BLACK
10
78815.0
20
31096.0
11
78815.0
21
52356.0
0
LINE
8
BLACK
10
78665.0
20
31096.0
11
78665.0
21
52356.0
0
ARC
8
BLACK
10
78740.0
20
52356.0
40
75.0
50
360.0
51
540.0
0
ARC
8
BLACK
10
78740.0
20
31096.0
40
75.0
50
180.0
51
360.0
0
LINE
8
BLACK
10
75538.0
20
55452.0
11
78686.0
21
52304.0
0
LINE
8
BLACK
10
75644.0
20
55558.0
11
78792.0
21
52410.0
0
ARC
8
BLACK
10
78739.0
20
52357.0
40
75.0
50
225.0
51
405.0
0
ARC
8
BLACK
10
75591.0
20
55505.0
40
75.0
50
45.0
51
225.0
0
LINE
8
BLACK
10
74409.0
20
55430.0
11
75591.0
21
55430.0
0
LINE
8
BLACK
10
74409.0
20
55580.0
11
75591.0
21
55580.0
0
ARC
8
BLACK
10
75591.0
20
55505.0
40
75.0
50
270.0
51
450.0
0
ARC
8
BLACK
10
74409.0
20
55505.0
40
75.0
50
90.0
51
270.0
0
LINE
8
BLACK
10
73175.0
20
56633.0
11
74355.0
21
55453.0
0
LINE
8
BLACK
10
73281.0
20
56739.0
11
74461.0
21
55559.0
0
ARC
8
BLACK
10
74408.0
20
55506.0
40
75.0
50
225.0
51
405.0
0
ARC
8
BLACK
10
73228.0
20
56686.0
40
75.0
50
45.0
51
225.0
0
LINE
8
BLACK
10
73303.0
20
56687.0
11
73303.0
21
60229.0
0
LINE
8
BLACK
10
73153.0
20
56687.0
11
73153.0
21
60229.0
0
ARC
8
BLACK
10
73228.0
20
60229.0
40
75.0
50
360.0
51
540.0
0
ARC
8
BLACK
10
73228.0
20
56687.0
40
75.0
50
180.0
51
360.0
0
LINE
8
BLACK
10
69632.0
20
63719.0
11
73174.0
21
60177.0
0
LINE
8
BLACK
10
69738.0
20
63825.0
11
73280.0
21
60283.0
0
ARC
8
BLACK
10
73227.0
20
60230.0
40
75.0
50
225.0
51
405.0
0
ARC
8
BLACK
10
69685.0
20
63772.0
40
75.0
50
45.0
51
225.0
0
LINE
8
BLACK
10
43700.0
20
63697.0
11
69684.0
21
63697.0
0
LINE
8
BLACK
10
43700.0
20
63847.0
11
69684.0
21
63847.0
0
ARC
8
BLACK
10
69684.0
20
63772.0
40
75.0
50
270.0
51
450.0
0
ARC
8
BLACK
10
43700.0
20
63772.0
40
75.0
50
90.0
51
270.0
0
LINE
8
BLACK
10
40210.0
20
60177.0
11
43752.0
21
63719.0
0
LINE
8
BLACK
10
40104.0
20
60283.0
11
43646.0
21
63825.0
0
ARC
8
BLACK
10
43699.0
20
63772.0
40
75.0
50
315.0
51
495.0
0
ARC
8
BLACK
10
40157.0
20
60230.0
40
75.0
50
135.0
51
315.0
0
LINE
8
BLACK
10
40232.0
20
56685.0
11
40232.0
21
60229.0
0
LINE
8
BLACK
10
40082.0
20
56685.0
11
40082.0
21
60229.0
0
ARC
8
BLACK
10
40157.0
20
60229.0
40
75.0
50
360.0
51
540.0
0
ARC
8
BLACK
10
40157.0
20
56685.0
40
75.0
50
180.0
51
360.0
0
LINE
8
BLACK
10
39029.0
20
55452.0
11
40209.0
21
56632.0
0
LINE
8
BLACK
10
38923.0
20
55558.0
11
40103.0
21
56738.0
0
ARC
8
BLACK
10
40156.0
20
56685.0
40
75.0
50
315.0
51
495.0
0
ARC
8
BLACK
10
38976.0
20
55505.0
40
75.0
50
135.0
51
315.0
0
LINE
8
BLACK
10
37795.0
20
55429.0
11
38975.0
21
55429.0
0
LINE
8
BLACK
10
37795.0
20
55579.0
11
38975.0
21
55579.0
0
ARC
8
BLACK
10
38975.0
20
55504.0
40
75.0
50
270.0
51
450.0
0
ARC
8
BLACK
10
37795.0
20
55504.0
40
75.0
50
90.0
51
270.0
0
LINE
8
BLACK
10
34699.0
20
52303.0
11
37847.0
21
55451.0
0
LINE
8
BLACK
10
34593.0
20
52409.0
11
37741.0
21
55557.0
0
ARC
8
BLACK
10
37794.0
20
55504.0
40
75.0
50
315.0
51
495.0
0
ARC
8
BLACK
10
34646.0
20
52356.0
40
75.0
50
135.0
51
315.0
0
LINE
8
BLACK
10
34721.0
20
31095.0
11
34721.0
21
52355.0
0
LINE
8
BLACK
10
34571.0
20
31095.0
11
34571.0
21
52355.0
0
ARC
8
BLACK
10
34646.0
20
52355.0
40
75.0
50
360.0
51
540.0
0
ARC
8
BLACK
10
34646.0
20
31095.0
40
75.0
50
180.0
51
360.0
0
LINE
8
BLACK
10
37847.0
20
28000.0
11
34699.0
21
31148.0
0
LINE
8
BLACK
10
37741.0
20
27894.0
11
34593.0
21
31042.0
0
ARC
8
BLACK
10
34646.0
20
31095.0
40
75.0
50
405.0
51
585.0
0
ARC
8
BLACK
10
37794.0
20
27947.0
40
75.0
50
225.0
51
405.0
0
LINE
8
BLACK
10
37795.0
20
27871.0
11
38975.0
21
27871.0
0
LINE
8
BLACK
10
37795.0
20
28021.0
11
38975.0
21
28021.0
0
ARC
8
BLACK
10
38975.0
20
27946.0
40
75.0
50
270.0
51
450.0
0
ARC
8
BLACK
10
37795.0
20
27946.0
40
75.0
50
90.0
51
270.0
0
LINE
8
BLACK
10
40210.0
20
26818.0
11
39030.0
21
27998.0
0
LINE
8
BLACK
10
40104.0
20
26712.0
11
38924.0
21
27892.0
0
ARC
8
BLACK
10
38977.0
20
27945.0
40
75.0
50
405.0
51
585.0
0
ARC
8
BLACK
10
40157.0
20
26765.0
40
75.0
50
225.0
51
405.0
0
LINE
8
BLACK
10
40233.0
20
23222.0
11
40233.0
21
26764.0
0
LINE
8
BLACK
10
40083.0
20
23222.0
11
40083.0
21
26764.0
0
ARC
8
BLACK
10
40158.0
20
26764.0
40
75.0
50
360.0
51
540.0
0
ARC
8
BLACK
10
40158.0
20
23222.0
40
75.0
50
180.0
51
360.0
0
LINE
8
BLACK
10
43753.0
20
19732.0
11
40211.0
21
23274.0
0
LINE
8
BLACK
10
43647.0
20
19626.0
11
40105.0
21
23168.0
0
ARC
8
BLACK
10
40158.0
20
23221.0
40
75.0
50
405.0
51
585.0
0
ARC
8
BLACK
10
43700.0
20
19679.0
40
75.0
50
225.0
51
405.0
0
LINE
8
BLACK
10
43701.0
20
19603.0
11
56693.0
21
19603.0
0
LINE
8
BLACK
10
43701.0
20
19753.0
11
56693.0
21
19753.0
0
ARC
8
BLACK
10
56693.0
20
19678.0
40
75.0
50
270.0
51
450.0
0
ARC
8
BLACK
10
43701.0
20
19678.0
40
75.0
50
90.0
51
270.0
0
ENDSEC
0
EOF
